G04*
G04 #@! TF.GenerationSoftware,Altium Limited,Altium Designer,23.6.0 (18)*
G04*
G04 Layer_Physical_Order=3*
G04 Layer_Color=16440176*
%FSLAX43Y43*%
%MOMM*%
G71*
G04*
G04 #@! TF.SameCoordinates,17FE0B56-B4FD-4FE6-8C66-39BC20258D9D*
G04*
G04*
G04 #@! TF.FilePolarity,Positive*
G04*
G01*
G75*
%ADD55C,0.500*%
%ADD57C,0.508*%
%ADD58C,0.450*%
%ADD96C,0.700*%
%ADD107C,2.000*%
%ADD108C,0.400*%
%ADD109C,0.600*%
G36*
X37280Y27774D02*
X37245Y27738D01*
X37181Y27584D01*
Y27418D01*
X37245Y27264D01*
X37280Y27228D01*
Y22571D01*
X37245Y22536D01*
X37181Y22382D01*
Y22215D01*
X37245Y22061D01*
X37280Y22026D01*
Y18537D01*
X37235D01*
X37081Y18473D01*
X36963Y18355D01*
X36900Y18201D01*
Y18034D01*
X36963Y17880D01*
X37081Y17762D01*
X37235Y17698D01*
X37280D01*
Y208D01*
X212D01*
Y25408D01*
X336Y25464D01*
X466Y25410D01*
X607D01*
X737Y25464D01*
X836Y25563D01*
X890Y25693D01*
Y25834D01*
X836Y25964D01*
X737Y26064D01*
X607Y26118D01*
X466D01*
X336Y26064D01*
X212Y26120D01*
Y31603D01*
X37280D01*
Y27774D01*
D02*
G37*
%LPC*%
G36*
X1270Y30904D02*
X1130D01*
X999Y30850D01*
X900Y30751D01*
X846Y30620D01*
Y30480D01*
X900Y30349D01*
X999Y30250D01*
X1130Y30196D01*
X1270D01*
X1401Y30250D01*
X1500Y30349D01*
X1554Y30480D01*
Y30620D01*
X1500Y30751D01*
X1401Y30850D01*
X1270Y30904D01*
D02*
G37*
G36*
X35725Y30700D02*
X35585D01*
X35457Y30647D01*
X35358Y30548D01*
X35305Y30420D01*
Y30280D01*
X35358Y30152D01*
X35457Y30053D01*
X35585Y30000D01*
X35725D01*
X35853Y30053D01*
X35952Y30152D01*
X36005Y30280D01*
Y30420D01*
X35952Y30548D01*
X35853Y30647D01*
X35725Y30700D01*
D02*
G37*
G36*
X13282Y30295D02*
X13142D01*
X13011Y30241D01*
X12912Y30142D01*
X12858Y30011D01*
Y29871D01*
X12912Y29740D01*
X13011Y29641D01*
X13142Y29587D01*
X13282D01*
X13413Y29641D01*
X13512Y29740D01*
X13566Y29871D01*
Y30011D01*
X13512Y30142D01*
X13413Y30241D01*
X13282Y30295D01*
D02*
G37*
G36*
X2214Y29539D02*
X2074D01*
X1943Y29485D01*
X1844Y29385D01*
X1790Y29255D01*
Y29114D01*
X1844Y28984D01*
X1943Y28885D01*
X2074Y28831D01*
X2183D01*
X2231Y28811D01*
X2301Y28729D01*
Y28642D01*
X2355Y28512D01*
X2454Y28412D01*
X2584Y28358D01*
X2725D01*
X2855Y28412D01*
X2955Y28512D01*
X3009Y28642D01*
Y28782D01*
X2955Y28913D01*
X2855Y29012D01*
X2725Y29066D01*
X2615D01*
X2568Y29086D01*
X2498Y29168D01*
Y29255D01*
X2444Y29385D01*
X2345Y29485D01*
X2214Y29539D01*
D02*
G37*
G36*
X19023Y31065D02*
X18882D01*
X18752Y31011D01*
X18653Y30912D01*
X18599Y30782D01*
Y30641D01*
X18653Y30511D01*
X18694Y30469D01*
X18642Y30342D01*
X16421D01*
X16246Y30307D01*
X16097Y30208D01*
X14137Y28248D01*
X13011Y29374D01*
X12863Y29474D01*
X12687Y29509D01*
X11467D01*
X10833Y30144D01*
X10684Y30243D01*
X10508Y30278D01*
X8541D01*
X8365Y30243D01*
X8216Y30144D01*
X7158Y29085D01*
X7058Y28936D01*
X7023Y28760D01*
Y27901D01*
X6022Y26899D01*
X3247D01*
X3200Y26909D01*
X3024Y26874D01*
X2876Y26774D01*
X2776Y26626D01*
X2741Y26450D01*
X2776Y26274D01*
X2876Y26126D01*
X2885Y26116D01*
X3034Y26017D01*
X3209Y25982D01*
X6212D01*
X6388Y26017D01*
X6536Y26116D01*
X7806Y27386D01*
X7906Y27535D01*
X7941Y27711D01*
Y28570D01*
X8731Y29360D01*
X10318D01*
X10953Y28726D01*
X11102Y28626D01*
X11277Y28591D01*
X12497D01*
X13489Y27600D01*
X12884Y26994D01*
X12784Y26846D01*
X12749Y26670D01*
Y22225D01*
X12784Y22049D01*
X12884Y21901D01*
X15297Y19488D01*
X15909Y18876D01*
X16057Y18776D01*
X16233Y18741D01*
X26439D01*
X26615Y18776D01*
X26763Y18876D01*
X27938Y20051D01*
X28038Y20199D01*
X28073Y20375D01*
Y20554D01*
X28038Y20729D01*
X27938Y20878D01*
X27790Y20978D01*
X27614Y21013D01*
X27438Y20978D01*
X27289Y20878D01*
X27190Y20729D01*
X27158Y20568D01*
X26249Y19659D01*
X16423D01*
X15945Y20136D01*
X13667Y22415D01*
Y26480D01*
X14462Y27275D01*
X16611Y29424D01*
X27955D01*
X27985Y29418D01*
X28161Y29453D01*
X28309Y29553D01*
X28409Y29702D01*
X28444Y29877D01*
X28409Y30053D01*
X28309Y30202D01*
X28303Y30208D01*
X28155Y30307D01*
X27979Y30342D01*
X19264D01*
X19211Y30469D01*
X19253Y30511D01*
X19307Y30641D01*
Y30782D01*
X19253Y30912D01*
X19153Y31011D01*
X19023Y31065D01*
D02*
G37*
G36*
X5323Y28398D02*
X5091D01*
X4876Y28309D01*
X4711Y28144D01*
X4622Y27929D01*
Y27775D01*
X4495Y27750D01*
X4491Y27760D01*
X4392Y27859D01*
X4261Y27913D01*
X4121D01*
X3990Y27859D01*
X3891Y27760D01*
X3837Y27629D01*
Y27489D01*
X3891Y27358D01*
X3990Y27259D01*
X4121Y27205D01*
X4261D01*
X4392Y27259D01*
X4491Y27358D01*
X4545Y27489D01*
Y27551D01*
X4672Y27576D01*
X4711Y27482D01*
X4876Y27317D01*
X5091Y27228D01*
X5323D01*
X5538Y27317D01*
X5703Y27482D01*
X5753Y27603D01*
X5892Y27639D01*
X5904Y27636D01*
X6026Y27586D01*
X6166D01*
X6297Y27640D01*
X6396Y27739D01*
X6450Y27870D01*
Y28010D01*
X6396Y28141D01*
X6297Y28240D01*
X6166Y28294D01*
X6026D01*
X5895Y28240D01*
X5828Y28173D01*
X5746Y28154D01*
X5673Y28175D01*
X5538Y28309D01*
X5323Y28398D01*
D02*
G37*
G36*
X11673D02*
X11441D01*
X11226Y28309D01*
X11061Y28144D01*
X10972Y27929D01*
Y27697D01*
X11061Y27482D01*
X11226Y27317D01*
X11441Y27228D01*
X11673D01*
X11888Y27317D01*
X12053Y27482D01*
X12142Y27697D01*
Y27929D01*
X12053Y28144D01*
X11888Y28309D01*
X11673Y28398D01*
D02*
G37*
G36*
X23170Y27854D02*
X23030D01*
X22899Y27800D01*
X22800Y27701D01*
X22746Y27570D01*
Y27430D01*
X22800Y27299D01*
X22899Y27200D01*
X23030Y27146D01*
X23170D01*
X23301Y27200D01*
X23400Y27299D01*
X23454Y27430D01*
Y27570D01*
X23400Y27701D01*
X23301Y27800D01*
X23170Y27854D01*
D02*
G37*
G36*
X1620D02*
X1480D01*
X1349Y27800D01*
X1250Y27701D01*
X1196Y27570D01*
Y27430D01*
X1250Y27299D01*
X1349Y27200D01*
X1480Y27146D01*
X1620D01*
X1751Y27200D01*
X1850Y27299D01*
X1904Y27430D01*
Y27570D01*
X1850Y27701D01*
X1751Y27800D01*
X1620Y27854D01*
D02*
G37*
G36*
X32701Y29675D02*
X30800D01*
X30800Y26575D01*
X32701D01*
Y29675D01*
D02*
G37*
G36*
X20390Y27151D02*
X20250D01*
X20119Y27097D01*
X20020Y26998D01*
X19966Y26867D01*
Y26727D01*
X20020Y26596D01*
X20119Y26497D01*
X20250Y26443D01*
X20390D01*
X20521Y26497D01*
X20620Y26596D01*
X20674Y26727D01*
Y26867D01*
X20620Y26998D01*
X20521Y27097D01*
X20390Y27151D01*
D02*
G37*
G36*
X22881Y27048D02*
X22741D01*
X22611Y26994D01*
X22511Y26894D01*
X22457Y26764D01*
Y26623D01*
X22511Y26493D01*
X22611Y26394D01*
X22741Y26340D01*
X22881D01*
X23012Y26394D01*
X23111Y26493D01*
X23165Y26623D01*
Y26764D01*
X23111Y26894D01*
X23012Y26994D01*
X22881Y27048D01*
D02*
G37*
G36*
X6327Y23973D02*
X6187D01*
X6057Y23919D01*
X5957Y23820D01*
X5903Y23690D01*
Y23549D01*
X5957Y23419D01*
X6057Y23319D01*
X6187Y23265D01*
X6327D01*
X6458Y23319D01*
X6557Y23419D01*
X6567Y23441D01*
X6704D01*
X6718Y23408D01*
X6817Y23308D01*
X6948Y23254D01*
X7088D01*
X7219Y23308D01*
X7318Y23408D01*
X7372Y23538D01*
Y23679D01*
X7318Y23809D01*
X7219Y23909D01*
X7088Y23962D01*
X6948D01*
X6817Y23909D01*
X6718Y23809D01*
X6708Y23786D01*
X6571D01*
X6557Y23820D01*
X6458Y23919D01*
X6327Y23973D01*
D02*
G37*
G36*
X10085Y28181D02*
X9909Y28146D01*
X9760Y28047D01*
X8923Y27210D01*
X8824Y27061D01*
X8789Y26886D01*
Y23426D01*
Y22764D01*
X8662Y22679D01*
X8614Y22698D01*
X8473D01*
X8343Y22645D01*
X8244Y22545D01*
X8190Y22415D01*
Y22274D01*
X8244Y22144D01*
X8343Y22044D01*
X8473Y21990D01*
X8614D01*
X8662Y22010D01*
X8789Y21925D01*
Y21407D01*
X8824Y21231D01*
X8923Y21083D01*
X9792Y20213D01*
Y18351D01*
X9559Y18117D01*
X7793D01*
X7740Y18244D01*
X7795Y18300D01*
X7849Y18430D01*
Y18571D01*
X7795Y18701D01*
X7696Y18800D01*
X7566Y18854D01*
X7425D01*
X7295Y18800D01*
X7195Y18701D01*
X7141Y18571D01*
Y18430D01*
X7195Y18300D01*
X7251Y18244D01*
X7198Y18117D01*
X2546D01*
X2370Y18083D01*
X2221Y17983D01*
X2122Y17834D01*
X2087Y17659D01*
X2122Y17483D01*
X2221Y17334D01*
X2370Y17235D01*
X2546Y17200D01*
X9749D01*
X9925Y17235D01*
X10073Y17334D01*
X10441Y17702D01*
X10859D01*
Y16059D01*
X10894Y15883D01*
X10994Y15734D01*
X11143Y15635D01*
X11318Y15600D01*
X11494Y15635D01*
X11643Y15734D01*
X11742Y15883D01*
X11777Y16059D01*
Y17702D01*
X12657D01*
X14024Y16336D01*
X14173Y16236D01*
X14348Y16201D01*
X16043D01*
X16221Y16023D01*
Y13850D01*
Y12108D01*
X16256Y11932D01*
X16355Y11783D01*
X16729Y11409D01*
X16320Y11000D01*
X10619D01*
X9959Y11660D01*
X9810Y11760D01*
X9634Y11795D01*
X9459Y11760D01*
X9310Y11660D01*
X9210Y11512D01*
X9176Y11336D01*
X9210Y11160D01*
X9310Y11012D01*
X10105Y10217D01*
X10254Y10117D01*
X10429Y10082D01*
X16510D01*
X16686Y10117D01*
X16834Y10217D01*
X17378Y10760D01*
X20291Y7848D01*
Y2538D01*
X19483Y1730D01*
X19113D01*
X18938Y1695D01*
X18789Y1596D01*
X18689Y1447D01*
X18655Y1271D01*
X18689Y1096D01*
X18789Y947D01*
X18938Y847D01*
X19113Y813D01*
X19673D01*
X19849Y847D01*
X19998Y947D01*
X21074Y2024D01*
X21174Y2172D01*
X21209Y2348D01*
Y8038D01*
X21174Y8213D01*
X21074Y8362D01*
X17703Y11734D01*
X17139Y12298D01*
Y13391D01*
X36002D01*
X36024Y13376D01*
X36200Y13341D01*
X36376Y13376D01*
X36524Y13476D01*
X36624Y13624D01*
X36659Y13800D01*
X36624Y13976D01*
X36524Y14124D01*
X36474Y14174D01*
X36326Y14274D01*
X36150Y14309D01*
X17139D01*
Y16213D01*
X17104Y16389D01*
X17004Y16538D01*
X16627Y16915D01*
X16580Y16985D01*
X16432Y17084D01*
X16256Y17119D01*
X14538D01*
X13172Y18485D01*
X13023Y18585D01*
X12847Y18620D01*
X10710D01*
Y20403D01*
X10675Y20579D01*
X10576Y20728D01*
X9706Y21597D01*
Y21943D01*
X9833Y22028D01*
X9881Y22008D01*
X10022D01*
X10062Y21982D01*
Y21899D01*
X10116Y21769D01*
X10215Y21669D01*
X10345Y21615D01*
X10486D01*
X10616Y21669D01*
X10716Y21769D01*
X10770Y21899D01*
Y21980D01*
X10868Y22068D01*
X10887Y22074D01*
X11015D01*
X11145Y22128D01*
X11244Y22227D01*
X11298Y22358D01*
Y22498D01*
X11244Y22629D01*
X11145Y22728D01*
X11015Y22782D01*
X10874D01*
X10744Y22728D01*
X10644Y22629D01*
X10590Y22498D01*
Y22418D01*
X10492Y22329D01*
X10473Y22323D01*
X10345D01*
X10306Y22350D01*
Y22433D01*
X10252Y22563D01*
X10152Y22662D01*
X10022Y22716D01*
X9881D01*
X9833Y22696D01*
X9706Y22781D01*
Y22967D01*
X11601D01*
X11635Y22944D01*
X11811Y22909D01*
X11987Y22944D01*
X12135Y23044D01*
X12235Y23192D01*
X12270Y23368D01*
X12235Y23544D01*
X12135Y23692D01*
X12077Y23750D01*
X11929Y23850D01*
X11753Y23885D01*
X9706D01*
Y26696D01*
X10409Y27398D01*
X10509Y27547D01*
X10543Y27723D01*
X10509Y27898D01*
X10409Y28047D01*
X10260Y28146D01*
X10085Y28181D01*
D02*
G37*
G36*
X11933Y21626D02*
X11793D01*
X11662Y21573D01*
X11563Y21473D01*
X11509Y21343D01*
Y21202D01*
X11563Y21072D01*
X11662Y20972D01*
X11793Y20919D01*
X11933D01*
X12063Y20972D01*
X12163Y21072D01*
X12217Y21202D01*
Y21343D01*
X12163Y21473D01*
X12063Y21573D01*
X11933Y21626D01*
D02*
G37*
G36*
X2610Y21436D02*
X2470D01*
X2339Y21382D01*
X2240Y21283D01*
X2186Y21152D01*
Y21012D01*
X2240Y20881D01*
X2339Y20782D01*
X2470Y20728D01*
X2610D01*
X2741Y20782D01*
X2840Y20881D01*
X2894Y21012D01*
Y21152D01*
X2840Y21283D01*
X2741Y21382D01*
X2610Y21436D01*
D02*
G37*
G36*
X2483Y20420D02*
X2343D01*
X2212Y20366D01*
X2113Y20267D01*
X2059Y20136D01*
Y19996D01*
X2113Y19865D01*
X2212Y19766D01*
X2343Y19712D01*
X2483D01*
X2614Y19766D01*
X2713Y19865D01*
X2767Y19996D01*
Y20136D01*
X2713Y20267D01*
X2614Y20366D01*
X2483Y20420D01*
D02*
G37*
G36*
X7995Y20118D02*
X7854D01*
X7724Y20064D01*
X7624Y19964D01*
X7570Y19834D01*
Y19693D01*
X7624Y19563D01*
X7724Y19464D01*
X7854Y19410D01*
X7995D01*
X8125Y19464D01*
X8224Y19563D01*
X8278Y19693D01*
Y19834D01*
X8224Y19964D01*
X8125Y20064D01*
X7995Y20118D01*
D02*
G37*
G36*
X12021Y19829D02*
X11880D01*
X11750Y19775D01*
X11650Y19676D01*
X11596Y19546D01*
Y19405D01*
X11650Y19275D01*
X11750Y19175D01*
X11880Y19121D01*
X12021D01*
X12151Y19175D01*
X12250Y19275D01*
X12304Y19405D01*
Y19546D01*
X12250Y19676D01*
X12151Y19775D01*
X12021Y19829D01*
D02*
G37*
G36*
X22803Y18365D02*
X22663D01*
X22532Y18311D01*
X22433Y18212D01*
X22379Y18082D01*
Y17941D01*
X22433Y17811D01*
X22532Y17711D01*
X22663Y17657D01*
X22803D01*
X22934Y17711D01*
X23033Y17811D01*
X23087Y17941D01*
Y18082D01*
X23033Y18212D01*
X22934Y18311D01*
X22803Y18365D01*
D02*
G37*
G36*
X25978Y18261D02*
X25838D01*
X25707Y18207D01*
X25608Y18108D01*
X25554Y17977D01*
Y17837D01*
X25608Y17706D01*
X25707Y17607D01*
X25838Y17553D01*
X25978D01*
X26109Y17607D01*
X26208Y17706D01*
X26262Y17837D01*
Y17977D01*
X26208Y18108D01*
X26109Y18207D01*
X25978Y18261D01*
D02*
G37*
G36*
X24376Y18118D02*
X24235D01*
X24105Y18064D01*
X24005Y17965D01*
X23952Y17835D01*
Y17694D01*
X24005Y17564D01*
X24105Y17464D01*
X24235Y17410D01*
X24376D01*
X24506Y17464D01*
X24606Y17564D01*
X24660Y17694D01*
Y17835D01*
X24606Y17965D01*
X24506Y18064D01*
X24376Y18118D01*
D02*
G37*
G36*
X25037Y17532D02*
X24896D01*
X24766Y17478D01*
X24666Y17379D01*
X24613Y17248D01*
Y17108D01*
X24666Y16978D01*
X24766Y16878D01*
X24896Y16824D01*
X25037D01*
X25167Y16878D01*
X25267Y16978D01*
X25321Y17108D01*
Y17248D01*
X25267Y17379D01*
X25167Y17478D01*
X25037Y17532D01*
D02*
G37*
G36*
X22437Y17431D02*
X22296D01*
X22166Y17377D01*
X22066Y17278D01*
X22012Y17148D01*
Y17007D01*
X22066Y16877D01*
X22166Y16777D01*
X22296Y16723D01*
X22437D01*
X22567Y16777D01*
X22666Y16877D01*
X22720Y17007D01*
Y17148D01*
X22666Y17278D01*
X22567Y17377D01*
X22437Y17431D01*
D02*
G37*
G36*
X23311Y17372D02*
X23171D01*
X23040Y17318D01*
X22941Y17219D01*
X22887Y17088D01*
Y16948D01*
X22941Y16817D01*
X23040Y16718D01*
X23171Y16664D01*
X23311D01*
X23442Y16718D01*
X23541Y16817D01*
X23595Y16948D01*
Y17088D01*
X23541Y17219D01*
X23442Y17318D01*
X23311Y17372D01*
D02*
G37*
G36*
X20723Y16846D02*
X20583D01*
X20452Y16792D01*
X20353Y16692D01*
X20299Y16562D01*
Y16421D01*
X20353Y16291D01*
X20452Y16192D01*
X20583Y16138D01*
X20723D01*
X20854Y16192D01*
X20953Y16291D01*
X21007Y16421D01*
Y16562D01*
X20953Y16692D01*
X20854Y16792D01*
X20723Y16846D01*
D02*
G37*
G36*
X21757Y16767D02*
X21616D01*
X21486Y16714D01*
X21386Y16614D01*
X21333Y16484D01*
Y16343D01*
X21386Y16213D01*
X21486Y16113D01*
X21616Y16059D01*
X21757D01*
X21887Y16113D01*
X21987Y16213D01*
X22041Y16343D01*
Y16484D01*
X21987Y16614D01*
X21887Y16714D01*
X21757Y16767D01*
D02*
G37*
G36*
X23946Y16610D02*
X23806D01*
X23675Y16556D01*
X23576Y16457D01*
X23522Y16326D01*
Y16186D01*
X23576Y16055D01*
X23675Y15956D01*
X23806Y15902D01*
X23946D01*
X24077Y15956D01*
X24176Y16055D01*
X24230Y16186D01*
Y16326D01*
X24176Y16457D01*
X24077Y16556D01*
X23946Y16610D01*
D02*
G37*
G36*
X26220Y16204D02*
X26080D01*
X25949Y16150D01*
X25850Y16051D01*
X25796Y15920D01*
Y15780D01*
X25850Y15649D01*
X25949Y15550D01*
X26080Y15496D01*
X26220D01*
X26351Y15550D01*
X26450Y15649D01*
X26504Y15780D01*
Y15920D01*
X26450Y16051D01*
X26351Y16150D01*
X26220Y16204D01*
D02*
G37*
G36*
X7907Y16748D02*
X7766D01*
X7636Y16694D01*
X7536Y16594D01*
X7482Y16464D01*
Y16323D01*
X7536Y16193D01*
X7636Y16093D01*
X7766Y16040D01*
X7784D01*
X7869Y15913D01*
X7851Y15869D01*
Y15728D01*
X7905Y15598D01*
X8004Y15498D01*
X8134Y15444D01*
X8275D01*
X8405Y15498D01*
X8505Y15598D01*
X8559Y15728D01*
Y15869D01*
X8505Y15999D01*
X8405Y16098D01*
X8275Y16152D01*
X8257D01*
X8172Y16279D01*
X8190Y16323D01*
Y16464D01*
X8137Y16594D01*
X8037Y16694D01*
X7907Y16748D01*
D02*
G37*
G36*
X4061Y16773D02*
X3920D01*
X3790Y16719D01*
X3690Y16619D01*
X3636Y16489D01*
Y16348D01*
X3690Y16218D01*
X3790Y16119D01*
X3863Y16089D01*
X3900Y15950D01*
X3900Y15946D01*
X3875Y15921D01*
X3821Y15791D01*
Y15650D01*
X3875Y15520D01*
X3974Y15421D01*
X4105Y15367D01*
X4245D01*
X4376Y15421D01*
X4475Y15520D01*
X4529Y15650D01*
Y15791D01*
X4475Y15921D01*
X4376Y16021D01*
X4303Y16051D01*
X4265Y16190D01*
X4266Y16193D01*
X4291Y16218D01*
X4344Y16348D01*
Y16489D01*
X4291Y16619D01*
X4191Y16719D01*
X4061Y16773D01*
D02*
G37*
G36*
X7491Y15524D02*
X7351D01*
X7221Y15470D01*
X7121Y15371D01*
X7067Y15241D01*
Y15100D01*
X7121Y14970D01*
X7221Y14870D01*
X7351Y14816D01*
X7491D01*
X7622Y14870D01*
X7721Y14970D01*
X7775Y15100D01*
Y15241D01*
X7721Y15371D01*
X7622Y15470D01*
X7491Y15524D01*
D02*
G37*
G36*
X2560Y16038D02*
X2419D01*
X2289Y15984D01*
X2189Y15885D01*
X2135Y15755D01*
Y15614D01*
X2189Y15484D01*
X2280Y15393D01*
X2289Y15376D01*
X2297Y15243D01*
X2240Y15187D01*
X2186Y15056D01*
Y14916D01*
X2240Y14785D01*
X2339Y14686D01*
X2470Y14632D01*
X2610D01*
X2741Y14686D01*
X2840Y14785D01*
X2894Y14916D01*
Y15056D01*
X2840Y15187D01*
X2749Y15277D01*
X2740Y15294D01*
X2733Y15427D01*
X2790Y15484D01*
X2843Y15614D01*
Y15755D01*
X2790Y15885D01*
X2690Y15984D01*
X2560Y16038D01*
D02*
G37*
G36*
X19882Y15308D02*
X19742D01*
X19611Y15254D01*
X19512Y15155D01*
X19458Y15024D01*
Y14884D01*
X19512Y14753D01*
X19611Y14654D01*
X19742Y14600D01*
X19882D01*
X20013Y14654D01*
X20112Y14753D01*
X20166Y14884D01*
Y15024D01*
X20112Y15155D01*
X20013Y15254D01*
X19882Y15308D01*
D02*
G37*
G36*
X21520Y12504D02*
X21380D01*
X21249Y12450D01*
X21150Y12351D01*
X21096Y12220D01*
Y12080D01*
X21150Y11949D01*
X21249Y11850D01*
X21380Y11796D01*
X21520D01*
X21651Y11850D01*
X21750Y11949D01*
X21804Y12080D01*
Y12220D01*
X21750Y12351D01*
X21651Y12450D01*
X21520Y12504D01*
D02*
G37*
G36*
X1565Y5428D02*
X1424D01*
X1294Y5374D01*
X1194Y5275D01*
X1140Y5144D01*
Y5004D01*
X1194Y4874D01*
X1294Y4774D01*
X1424Y4720D01*
X1565D01*
X1695Y4774D01*
X1795Y4874D01*
X1848Y5004D01*
Y5144D01*
X1795Y5275D01*
X1695Y5374D01*
X1565Y5428D01*
D02*
G37*
G36*
X15320Y2940D02*
X15160D01*
X15013Y2879D01*
X14901Y2767D01*
X14840Y2620D01*
Y2460D01*
X14901Y2313D01*
X15013Y2201D01*
X15160Y2140D01*
X15320D01*
X15467Y2201D01*
X15579Y2313D01*
X15640Y2460D01*
Y2620D01*
X15579Y2767D01*
X15467Y2879D01*
X15320Y2940D01*
D02*
G37*
G36*
X25320Y2604D02*
X25180D01*
X25049Y2550D01*
X24950Y2451D01*
X24896Y2320D01*
Y2180D01*
X24950Y2049D01*
X25049Y1950D01*
X25180Y1896D01*
X25320D01*
X25451Y1950D01*
X25550Y2049D01*
X25604Y2180D01*
Y2320D01*
X25550Y2451D01*
X25451Y2550D01*
X25320Y2604D01*
D02*
G37*
G36*
X23770Y2004D02*
X23630D01*
X23499Y1950D01*
X23400Y1851D01*
X23346Y1720D01*
Y1580D01*
X23400Y1449D01*
X23499Y1350D01*
X23630Y1296D01*
X23770D01*
X23901Y1350D01*
X24000Y1449D01*
X24054Y1580D01*
Y1720D01*
X24000Y1851D01*
X23901Y1950D01*
X23770Y2004D01*
D02*
G37*
G36*
X35725Y1773D02*
X35585D01*
X35457Y1720D01*
X35358Y1621D01*
X35305Y1493D01*
Y1353D01*
X35358Y1225D01*
X35457Y1126D01*
X35585Y1073D01*
X35725D01*
X35853Y1126D01*
X35952Y1225D01*
X36005Y1353D01*
Y1493D01*
X35952Y1621D01*
X35853Y1720D01*
X35725Y1773D01*
D02*
G37*
G36*
X3367Y1435D02*
X3226D01*
X3096Y1381D01*
X2997Y1282D01*
X2943Y1151D01*
Y1011D01*
X2997Y881D01*
X3096Y781D01*
X3226Y727D01*
X3367D01*
X3497Y781D01*
X3597Y881D01*
X3651Y1011D01*
Y1151D01*
X3597Y1282D01*
X3497Y1381D01*
X3367Y1435D01*
D02*
G37*
G36*
X1348Y1368D02*
X1209D01*
X1080Y1315D01*
X982Y1217D01*
X928Y1088D01*
Y949D01*
X982Y820D01*
X1080Y722D01*
X1209Y668D01*
X1348D01*
X1477Y722D01*
X1575Y820D01*
X1628Y949D01*
Y1088D01*
X1575Y1217D01*
X1477Y1315D01*
X1348Y1368D01*
D02*
G37*
%LPD*%
D55*
X1278Y1018D02*
D03*
X35655Y1423D02*
D03*
Y30350D02*
D03*
D57*
X44476Y4102D02*
D03*
Y10101D02*
D03*
Y13101D02*
D03*
Y16101D02*
D03*
Y7102D02*
D03*
Y27792D02*
D03*
Y21792D02*
D03*
Y24792D02*
D03*
Y19101D02*
D03*
X37600Y27501D02*
D03*
Y22299D02*
D03*
X43573Y26056D02*
D03*
X42993Y20485D02*
D03*
X41452Y19279D02*
D03*
X41406Y21600D02*
D03*
X39587Y23240D02*
D03*
X39580Y26240D02*
D03*
X39773Y27792D02*
D03*
X42042D02*
D03*
X43482Y23340D02*
D03*
X9634Y11336D02*
D03*
X536Y25764D02*
D03*
X1200Y30550D02*
D03*
X23100Y27500D02*
D03*
X22811Y26694D02*
D03*
X4191Y27559D02*
D03*
X2655Y28712D02*
D03*
X1550Y27500D02*
D03*
X3200Y26450D02*
D03*
X6778Y28002D02*
D03*
X6096Y27940D02*
D03*
X28500Y27050D02*
D03*
X5192Y11958D02*
D03*
X5207Y13208D02*
D03*
X3522Y24000D02*
D03*
X2250D02*
D03*
X1000D02*
D03*
X5645Y19746D02*
D03*
X5651Y20951D02*
D03*
X5702Y22166D02*
D03*
X34700Y27900D02*
D03*
X34060Y26616D02*
D03*
X29300Y26400D02*
D03*
X28800Y28000D02*
D03*
X34807Y29198D02*
D03*
X35807Y27198D02*
D03*
X34807Y25198D02*
D03*
X35807Y23198D02*
D03*
X34807Y21198D02*
D03*
X35807Y15198D02*
D03*
Y7198D02*
D03*
X34807Y5198D02*
D03*
X35807Y3198D02*
D03*
X34807Y1198D02*
D03*
X32807Y25198D02*
D03*
Y17198D02*
D03*
X33807Y15198D02*
D03*
Y7198D02*
D03*
X32807Y5198D02*
D03*
X33807Y3198D02*
D03*
X32807Y1198D02*
D03*
X30807Y21198D02*
D03*
X31807Y19198D02*
D03*
X30807Y17198D02*
D03*
X31807Y15198D02*
D03*
Y11198D02*
D03*
X30807Y9198D02*
D03*
X31807Y7198D02*
D03*
X30807Y5198D02*
D03*
X31807Y3198D02*
D03*
X30807Y1198D02*
D03*
X28800Y29198D02*
D03*
X28807Y21198D02*
D03*
X29807Y19198D02*
D03*
X28807Y17198D02*
D03*
X29807Y15198D02*
D03*
Y11198D02*
D03*
X28807Y9198D02*
D03*
X29807Y7198D02*
D03*
X28807Y5198D02*
D03*
X29807Y3198D02*
D03*
X28807Y1198D02*
D03*
X27807Y19198D02*
D03*
X26807Y17198D02*
D03*
X27807Y15198D02*
D03*
Y11198D02*
D03*
Y7198D02*
D03*
X26807Y5198D02*
D03*
X27807Y3198D02*
D03*
X26807Y1198D02*
D03*
X25807Y11198D02*
D03*
X24807Y9198D02*
D03*
X25807Y7198D02*
D03*
X24807Y5198D02*
D03*
X25807Y3198D02*
D03*
X23807Y11198D02*
D03*
X22807Y5198D02*
D03*
Y1198D02*
D03*
X20807Y9198D02*
D03*
X21807Y7198D02*
D03*
Y3198D02*
D03*
X20807Y1198D02*
D03*
X19807Y11198D02*
D03*
Y7198D02*
D03*
X18807Y5198D02*
D03*
X19807Y3198D02*
D03*
X16807Y9198D02*
D03*
X17807Y7198D02*
D03*
X16807Y5198D02*
D03*
X17807Y3198D02*
D03*
X14807Y13198D02*
D03*
X15807Y7198D02*
D03*
X12807Y21198D02*
D03*
Y13198D02*
D03*
X13807Y7198D02*
D03*
X12807Y5198D02*
D03*
X13807Y3198D02*
D03*
X10807Y13198D02*
D03*
Y9198D02*
D03*
Y5198D02*
D03*
X11807Y3198D02*
D03*
X7807Y7198D02*
D03*
X6807Y1198D02*
D03*
X1807Y3198D02*
D03*
X36200Y13800D02*
D03*
X2540Y14986D02*
D03*
X3297Y1081D02*
D03*
X1494Y5074D02*
D03*
X23700Y1650D02*
D03*
X25250Y2250D02*
D03*
X21450Y12150D02*
D03*
X26150Y15850D02*
D03*
X19812Y14954D02*
D03*
X12550Y28000D02*
D03*
X17214Y22095D02*
D03*
X15621Y20955D02*
D03*
X16383Y21717D02*
D03*
X11318Y16059D02*
D03*
X7421Y15170D02*
D03*
X8205Y15798D02*
D03*
X10414Y15875D02*
D03*
X7836Y16394D02*
D03*
X4760Y2521D02*
D03*
X20653Y16492D02*
D03*
X18953Y30711D02*
D03*
X15748Y27178D02*
D03*
Y27940D02*
D03*
X14538Y22249D02*
D03*
X4175Y15721D02*
D03*
X25561Y26468D02*
D03*
X16256Y16660D02*
D03*
X2489Y15684D02*
D03*
X3990Y16419D02*
D03*
X7495Y18500D02*
D03*
X6713D02*
D03*
X2144Y29185D02*
D03*
X7924Y19764D02*
D03*
X13212Y29941D02*
D03*
X8544Y22344D02*
D03*
X23876Y16256D02*
D03*
X18357Y22095D02*
D03*
X14097Y23876D02*
D03*
Y25019D02*
D03*
Y26162D02*
D03*
X19891Y30660D02*
D03*
X26286Y28153D02*
D03*
X26481Y28927D02*
D03*
X23621Y27840D02*
D03*
X23836Y26566D02*
D03*
X27178Y28956D02*
D03*
X27051Y28194D02*
D03*
X26416Y27305D02*
D03*
X25008Y25773D02*
D03*
X24500Y30750D02*
D03*
X23241Y17018D02*
D03*
X24306Y17764D02*
D03*
X24967Y17178D02*
D03*
X37319Y18118D02*
D03*
X15621Y19812D02*
D03*
X22733Y18011D02*
D03*
X11811Y23368D02*
D03*
X6764Y19757D02*
D03*
X9952Y22362D02*
D03*
X10416Y21969D02*
D03*
X9248Y21821D02*
D03*
X28176Y25893D02*
D03*
X27249Y25639D02*
D03*
X11863Y21272D02*
D03*
X6875Y22168D02*
D03*
X6866Y20890D02*
D03*
X11281Y5950D02*
D03*
X28475Y22269D02*
D03*
X27521Y22526D02*
D03*
X17852Y20058D02*
D03*
X18696Y20557D02*
D03*
X15113Y10541D02*
D03*
X10085Y27723D02*
D03*
X27614Y20554D02*
D03*
X18584Y29883D02*
D03*
X27985Y29877D02*
D03*
X2540Y17653D02*
D03*
X6257Y23619D02*
D03*
X7018Y23608D02*
D03*
X22536Y21804D02*
D03*
Y22855D02*
D03*
Y23814D02*
D03*
Y24814D02*
D03*
X23555Y24824D02*
D03*
Y23820D02*
D03*
X23565Y22855D02*
D03*
X21591Y21798D02*
D03*
X23565Y21826D02*
D03*
X21591Y24814D02*
D03*
X21581Y22855D02*
D03*
X21591Y23813D02*
D03*
X20542Y21804D02*
D03*
X20550Y23799D02*
D03*
X20555Y24808D02*
D03*
X20557Y22855D02*
D03*
X10944Y22428D02*
D03*
X21687Y16413D02*
D03*
X2540Y21082D02*
D03*
X22366Y17077D02*
D03*
X20320Y26797D02*
D03*
X25908Y17907D02*
D03*
X11950Y19475D02*
D03*
X2413Y20066D02*
D03*
D58*
X38158Y18108D02*
D03*
X39869D02*
D03*
D96*
X9634Y11336D02*
X10429Y10541D01*
X15113D01*
X7482Y27711D02*
Y28760D01*
X8541Y29819D02*
X10508D01*
X7482Y28760D02*
X8541Y29819D01*
X3200Y26450D02*
X3209Y26441D01*
X6212D01*
X7482Y27711D01*
X16680Y13850D02*
X36150D01*
X36200Y13800D01*
X16680Y12108D02*
Y13850D01*
Y16213D01*
X19673Y1271D02*
X20750Y2348D01*
X17378Y11409D02*
X20750Y8038D01*
Y2348D02*
Y8038D01*
X11277Y29050D02*
X12687D01*
X13208Y26670D02*
X14137Y27600D01*
X16421Y29883D01*
X12687Y29050D02*
X14137Y27600D01*
Y27600D02*
Y27600D01*
X19113Y1271D02*
X19673D01*
X16510Y10541D02*
X17378Y11409D01*
X10508Y29819D02*
X11277Y29050D01*
X9248Y21407D02*
Y23426D01*
X11318Y16059D02*
Y17970D01*
X11509Y18161D01*
X15113Y10541D02*
X16510D01*
X16680Y12108D02*
X17378Y11409D01*
X13208Y22225D02*
Y26670D01*
X15621Y19812D02*
X16233Y19200D01*
X13208Y22225D02*
X15621Y19812D01*
X14348Y16660D02*
X16256D01*
X10251Y18161D02*
Y20403D01*
X9248Y21407D02*
X10251Y20403D01*
X2546Y17659D02*
X9749D01*
X10251Y18161D01*
X11509D01*
X12847D01*
X14348Y16660D01*
X16233Y19200D02*
X26439D01*
X16421Y29883D02*
X18584D01*
X16256Y16637D02*
X16680Y16213D01*
X18584Y29883D02*
X27979D01*
X26439Y19200D02*
X27614Y20375D01*
X9248Y23426D02*
Y26886D01*
X11753Y23426D02*
X11811Y23368D01*
X9248Y23426D02*
X11753D01*
X27979Y29883D02*
X27985Y29877D01*
X9248Y26886D02*
X10085Y27723D01*
X27614Y20375D02*
Y20554D01*
D107*
X41850Y30400D02*
D03*
Y1600D02*
D03*
X9000Y13200D02*
D03*
D108*
X450Y26700D02*
D03*
X481Y28200D02*
D03*
X36703Y1250D02*
D03*
X31367Y23475D02*
D03*
X33000Y24600D02*
D03*
X30816Y26177D02*
D03*
X30179Y25542D02*
D03*
X31622Y25339D02*
D03*
X32224Y26007D02*
D03*
X18543Y31242D02*
D03*
X19451D02*
D03*
X36000Y18700D02*
D03*
X32400Y22400D02*
D03*
X32450Y20650D02*
D03*
X32616Y23379D02*
D03*
X36703Y18700D02*
D03*
X32340Y24637D02*
D03*
X32937Y22874D02*
D03*
X32939Y21974D02*
D03*
X32931Y20174D02*
D03*
X33095Y19289D02*
D03*
X33545Y18510D02*
D03*
X34223Y17919D02*
D03*
X35060Y17588D02*
D03*
X35959Y17536D02*
D03*
X36703D02*
D03*
X35318Y18728D02*
D03*
X34526Y19156D02*
D03*
X34123Y19961D02*
D03*
X34098Y20860D02*
D03*
X34098Y21760D02*
D03*
X34099Y22660D02*
D03*
X34068Y23560D02*
D03*
X33593Y24324D02*
D03*
X36703Y16092D02*
D03*
Y15184D02*
D03*
Y17000D02*
D03*
Y20346D02*
D03*
Y19438D02*
D03*
Y12925D02*
D03*
X3604Y429D02*
D03*
X14500D02*
D03*
X12684Y429D02*
D03*
X13592D02*
D03*
X11776D02*
D03*
X2696Y429D02*
D03*
X1788D02*
D03*
X880D02*
D03*
X19451D02*
D03*
X28531D02*
D03*
X24899D02*
D03*
X35795D02*
D03*
X32163D02*
D03*
X29439D02*
D03*
X33979D02*
D03*
X27623D02*
D03*
X31255D02*
D03*
X30347D02*
D03*
X25807D02*
D03*
X33071D02*
D03*
X26715D02*
D03*
X23991D02*
D03*
X36703D02*
D03*
X34887D02*
D03*
X21267D02*
D03*
X20359D02*
D03*
X23083D02*
D03*
X22175D02*
D03*
X25825Y25093D02*
D03*
X473Y2777D02*
D03*
Y1869D02*
D03*
X470Y962D02*
D03*
X476Y3685D02*
D03*
X478Y6409D02*
D03*
X481Y7316D02*
D03*
Y8224D02*
D03*
X478Y5501D02*
D03*
X476Y4593D02*
D03*
X36703Y31242D02*
D03*
Y23978D02*
D03*
Y30334D02*
D03*
Y27610D02*
D03*
Y21254D02*
D03*
Y26702D02*
D03*
Y29426D02*
D03*
Y25794D02*
D03*
Y22162D02*
D03*
Y28518D02*
D03*
Y23070D02*
D03*
Y12059D02*
D03*
Y24886D02*
D03*
Y11151D02*
D03*
Y10243D02*
D03*
Y2794D02*
D03*
Y4191D02*
D03*
Y3541D02*
D03*
Y4841D02*
D03*
X26670Y25019D02*
D03*
X36703Y2071D02*
D03*
Y5703D02*
D03*
Y9335D02*
D03*
Y8427D02*
D03*
Y7519D02*
D03*
Y6611D02*
D03*
X481Y29108D02*
D03*
Y30016D02*
D03*
Y19120D02*
D03*
Y15488D02*
D03*
Y12764D02*
D03*
Y17304D02*
D03*
Y10948D02*
D03*
Y14580D02*
D03*
Y13672D02*
D03*
Y16396D02*
D03*
Y10040D02*
D03*
Y11856D02*
D03*
Y18212D02*
D03*
Y20936D02*
D03*
Y20028D02*
D03*
Y21844D02*
D03*
X21267Y31242D02*
D03*
X20359D02*
D03*
X23991D02*
D03*
X24899D02*
D03*
X22175D02*
D03*
X23083D02*
D03*
X27623D02*
D03*
X28531D02*
D03*
X25807D02*
D03*
X26715D02*
D03*
X31255D02*
D03*
X32163D02*
D03*
X29439D02*
D03*
X30347D02*
D03*
X34887D02*
D03*
X35795D02*
D03*
X33071D02*
D03*
X33979D02*
D03*
X31044Y24675D02*
D03*
X32950Y21250D02*
D03*
X17064Y27824D02*
D03*
X17018Y27051D02*
D03*
X31750Y24638D02*
D03*
X29716Y24657D02*
D03*
X28702Y24638D02*
D03*
X25807Y23433D02*
D03*
X26670Y23241D02*
D03*
X27813Y23495D02*
D03*
X28829D02*
D03*
X17907Y27813D02*
D03*
X18034Y27051D02*
D03*
Y25654D02*
D03*
X17041Y25671D02*
D03*
X31927Y23475D02*
D03*
X30500D02*
D03*
X29677Y23071D02*
D03*
X27705Y25060D02*
D03*
D109*
X19113Y1271D02*
D03*
X15240Y2540D02*
D03*
M02*
