M48
;Layer_Color=9474304
;FILE_FORMAT=4:4
METRIC
;TYPE=PLATED
T1F00S00C0.2000
T2F00S00C0.2540
T3F00S00C0.3000
T4F00S00C2.0000
;TYPE=NON_PLATED
T5F00S00C0.9700
%
T01
X00230830Y00004290
X00239910
X00248990
X00258070
X00267150
X00276230
X00285310
X00294390
X00303470
X00312550
X00321630
X00330710
X00339790
X00348870
X00357950
X00367030
Y00012500
Y00020710
Y00027940
Y00035410
Y00041910
Y00048410
Y00057030
Y00066110
Y00075190
Y00084270
Y00093350
Y00102430
X00221750Y00004290
X00212670
X00203590
X00194510
X00145000
X00135920Y00004286
X00126840
X00117760
X00036040Y00004290
X00026960
X00017880
X00008800
X00004703Y00009620
X00004730Y00018695
Y00027775
X00004756Y00036850
Y00045930
X00004783Y00055005
Y00064085
X00004810Y00073160
Y00082240
Y00100400
Y00109480
Y00118560
Y00127640
Y00136720
Y00145800
Y00154880
Y00163960
Y00173040
Y00182120
Y00191200
Y00200280
Y00209360
Y00218440
X00004500Y00267000
X00004810Y00282000
Y00291080
Y00300160
X00170636Y00278244
X00170180Y00270510
X00180340
X00179070Y00278130
X00180340Y00256540
X00170408Y00256707
X00185430Y00312420
X00194510
X00203590
X00212670
X00221750
X00230830
X00239910
X00248990
X00258070
X00267150
X00276230
X00285310
X00294390
X00303470
X00312550
X00321630
X00330710
X00339790
X00348870
X00357950
X00367030
Y00303340
Y00294260
Y00285180
Y00276100
Y00267020
Y00257940
Y00248860
Y00239780
Y00230700
Y00221620
Y00212540
Y00203460
Y00194380
Y00187000
X00360000
X00353179Y00187285
X00345258Y00191557
X00341232Y00199607
X00340975Y00208603
X00340984Y00217603
X00340992Y00226603
X00340683Y00235598
X00335927Y00243238
X00330000Y00246000
X00323402Y00246372
X00317500Y00246380
X00310436Y00246754
X00316218Y00253389
X00322244Y00260074
X00308162Y00261771
X00301789Y00255415
X00297158Y00246574
X00287020Y00246380
X00288290Y00234950
X00278130
X00266700Y00232410
X00258073Y00234332
X00258248Y00250934
X00266700Y00250190
X00277050Y00250602
X00296769Y00230707
X00305000Y00234750
X00313666
X00319270
X00326157Y00233788
X00329368Y00228742
X00329392Y00219742
X00329500Y00212500
X00329310Y00201742
X00324500Y00206500
X00324000Y00224000
X00330951Y00192893
X00335446Y00185096
X00342234Y00179187
X00350603Y00175877
X00359589Y00175363
X00367030
Y00170000
Y00160920
Y00151840
Y00129250
Y00120590
Y00111510
T02
X00228071Y00011976
X00237000Y00016500
X00252500Y00022500
X00258071Y00031976
X00278071
X00298071
X00318071
X00338071
X00358071
X00348071Y00051976
X00328071
X00308071
X00288071
X00268071
X00248071
X00228071
X00258071Y00071976
X00278071
X00298071
X00318071
X00338071
X00358071
X00348071Y00011976
X00328071
X00308071
X00288071
X00268071
X00288071Y00091976
X00308071
X00248071
X00444760Y00101015
Y00071015
Y00041015
X00218071Y00031976
X00198071
X00178071
X00188071Y00051976
X00168071
X00178071Y00071976
X00198071
X00218071
X00208071Y00091976
X00168071
X00158070Y00071976
X00138070
X00128070Y00051976
X00108070
X00112807Y00059505
X00118070Y00031976
X00138070
X00151130Y00105410
X00108070Y00091976
X00078071Y00071976
X00068071Y00011976
X00047600Y00025210
X00032967Y00010811
X00018070Y00031976
X00014944Y00050741
X00208071Y00011976
X00198071Y00111976
X00214500Y00121500
X00198120Y00149540
X00206530Y00164918
X00216865Y00164135
X00215911Y00217985
X00205421Y00218036
X00205573Y00228551
X00205497Y00237988
X00205548Y00248084
X00215911Y00248143
Y00238127
X00215810Y00228551
X00183574Y00220955
X00172144
X00163830Y00217170
X00156210Y00209550
Y00198120
X00178524Y00200575
X00186963Y00205574
X00145382Y00222491
X00140970Y00238760
Y00250190
Y00261620
X00157480Y00271780
Y00279400
X00125500Y00280000
X00132120Y00299410
X00100847Y00277226
X00067780Y00280022
X00060960Y00279400
X00041910Y00275590
X00032000Y00264500
X00015500Y00275000
X00021440Y00291848
X00026548Y00287121
X00012000Y00305500
X00005364Y00257639
X00010000Y00240000
X00022500
X00035225
X00062570Y00236192
X00070180Y00236084
X00068748Y00221680
X00057016Y00221658
X00056514Y00209510
X00056446Y00197456
X00067643Y00197567
X00079244Y00197638
X00074954Y00185002
X00067130
X00068658Y00208904
X00085437Y00223445
X00092477Y00218206
X00099517Y00223622
X00104157Y00219693
X00109442Y00224280
X00118110Y00233680
X00118629Y00212725
X00128070Y00211976
X00119503Y00194752
X00113182Y00160588
X00104140Y00158750
X00082047Y00157983
X00078365Y00163935
X00074210Y00151703
X00041750Y00157209
X00039904Y00164188
X00024894Y00156842
X00025400Y00149860
Y00176530
X00024130Y00200660
X00025400Y00210820
X00052070Y00132080
X00051918Y00119581
X00096343Y00113360
X00108070Y00131976
X00128070
X00148070
X00162560Y00166602
X00203200Y00267970
X00198909Y00306598
X00189528Y00307114
X00185835Y00298833
X00245000Y00307500
X00236208Y00278398
X00231000Y00275000
X00228111Y00266938
X00238363Y00265662
X00255606Y00264683
X00250079Y00257727
X00272486Y00256392
X00281763Y00258932
X00285000Y00270500
X00288000Y00280000
Y00291977
X00279850Y00298773
X00271780Y00289560
X00264815Y00289273
X00262855Y00281533
X00270510Y00281940
X00264160Y00273050
X00293000Y00264000
X00328071Y00251976
X00348071
X00340596Y00266164
X00347000Y00279000
X00348071Y00291977
X00358071Y00271976
X00376000Y00275010
X00397730Y00277925
X00395800Y00262405
X00395870Y00232405
X00376000Y00222985
X00358071Y00231976
X00348071Y00211976
X00308071
X00288071
X00284752Y00222692
X00275206Y00225259
X00276139Y00205538
X00278071Y00191976
X00298071
X00318071
X00328071Y00171976
X00308071
X00288071
X00268071
X00259080Y00179070
X00249665Y00171781
X00243055Y00177642
X00232410Y00170180
X00223661Y00170774
X00227330Y00180113
X00238760Y00162560
X00261500Y00158500
X00278071Y00151976
X00298071
X00318071
X00338071
X00358071
X00362000Y00138000
X00373186Y00181175
X00381580Y00181085
X00398690
X00414520Y00192795
X00414060Y00215995
X00429930Y00204845
X00444760Y00217925
X00434820Y00233395
X00444760Y00247925
X00435730Y00260565
X00444760Y00277925
X00420420
X00444760Y00191015
Y00161015
Y00131015
X00318071Y00111976
X00298071
X00278071
X00258071
X00238071
X00235647Y00218264
Y00228551
X00235545Y00238203
Y00248236
X00225360Y00248143
Y00238141
Y00228551
Y00218036
T03
X00152400Y00025400
X00191134Y00012714
T04
X00418500Y00016000
X00090000Y00132000
X00418500Y00304000
T05
X00052070Y00278130
X00115570
M30
