G04*
G04 #@! TF.GenerationSoftware,Altium Limited,Altium Designer,23.6.0 (18)*
G04*
G04 Layer_Color=8388736*
%FSLAX43Y43*%
%MOMM*%
G71*
G04*
G04 #@! TF.SameCoordinates,17FE0B56-B4FD-4FE6-8C66-39BC20258D9D*
G04*
G04*
G04 #@! TF.FilePolarity,Negative*
G04*
G01*
G75*
%ADD17R,2.203X3.803*%
%ADD18R,1.000X1.100*%
%ADD19R,1.800X0.900*%
%ADD20R,1.353X1.003*%
%ADD21R,0.400X0.400*%
%ADD22R,0.380X0.400*%
%ADD23R,0.400X0.380*%
%ADD24R,1.100X0.740*%
%ADD25R,0.610X0.800*%
%ADD26R,0.750X0.660*%
%ADD27R,1.650X0.950*%
%ADD28O,0.400X0.850*%
%ADD29O,0.850X0.400*%
%ADD30R,3.800X3.800*%
%ADD31R,3.099X2.388*%
%ADD32R,0.305X0.660*%
%ADD33R,0.850X0.950*%
%ADD34R,1.100X1.350*%
%ADD35R,0.840X2.890*%
%ADD36R,1.200X2.300*%
%ADD37R,1.100X1.100*%
%ADD38R,1.152X0.452*%
%ADD39R,0.750X0.350*%
%ADD40R,0.990X0.740*%
%ADD41R,0.660X0.610*%
%ADD42R,0.500X0.600*%
%ADD43R,3.100X2.700*%
%ADD44R,3.100X3.700*%
%ADD45R,1.403X1.203*%
%ADD46R,0.740X0.990*%
%ADD47R,0.610X0.660*%
%ADD48R,0.800X0.610*%
G04:AMPARAMS|DCode=49|XSize=0.66mm|YSize=0.61mm|CornerRadius=0mm|HoleSize=0mm|Usage=FLASHONLY|Rotation=135.000|XOffset=0mm|YOffset=0mm|HoleType=Round|Shape=Rectangle|*
%AMROTATEDRECTD49*
4,1,4,0.449,-0.018,0.018,-0.449,-0.449,0.018,-0.018,0.449,0.449,-0.018,0.0*
%
%ADD49ROTATEDRECTD49*%

G04:AMPARAMS|DCode=50|XSize=0.5mm|YSize=0.6mm|CornerRadius=0mm|HoleSize=0mm|Usage=FLASHONLY|Rotation=225.000|XOffset=0mm|YOffset=0mm|HoleType=Round|Shape=Rectangle|*
%AMROTATEDRECTD50*
4,1,4,-0.035,0.389,0.389,-0.035,0.035,-0.389,-0.389,0.035,-0.035,0.389,0.0*
%
%ADD50ROTATEDRECTD50*%

%ADD51R,0.600X0.500*%
G04:AMPARAMS|DCode=52|XSize=0.5mm|YSize=0.6mm|CornerRadius=0mm|HoleSize=0mm|Usage=FLASHONLY|Rotation=135.000|XOffset=0mm|YOffset=0mm|HoleType=Round|Shape=Rectangle|*
%AMROTATEDRECTD52*
4,1,4,0.389,0.035,-0.035,-0.389,-0.389,-0.035,0.035,0.389,0.389,0.035,0.0*
%
%ADD52ROTATEDRECTD52*%

G04:AMPARAMS|DCode=53|XSize=0.66mm|YSize=0.61mm|CornerRadius=0mm|HoleSize=0mm|Usage=FLASHONLY|Rotation=225.000|XOffset=0mm|YOffset=0mm|HoleType=Round|Shape=Rectangle|*
%AMROTATEDRECTD53*
4,1,4,0.018,0.449,0.449,0.018,-0.018,-0.449,-0.449,-0.018,0.018,0.449,0.0*
%
%ADD53ROTATEDRECTD53*%

%ADD54C,1.070*%
%ADD55C,0.500*%
%ADD56C,2.203*%
%ADD57C,0.508*%
%ADD58C,0.450*%
D17*
X6047Y8636D02*
D03*
X9447D02*
D03*
D18*
X17671Y30645D02*
D03*
X13571D02*
D03*
Y29045D02*
D03*
X17671D02*
D03*
D19*
X15621Y31045D02*
D03*
D20*
X2949Y3791D02*
D03*
X6449D02*
D03*
X4727Y1124D02*
D03*
X8227D02*
D03*
X8410Y4445D02*
D03*
X11910D02*
D03*
D21*
X30361Y24056D02*
D03*
D22*
X30830D02*
D03*
X26452Y24429D02*
D03*
X26922D02*
D03*
X33018Y22402D02*
D03*
X33488D02*
D03*
X33018Y20679D02*
D03*
X33488D02*
D03*
X26923Y23705D02*
D03*
X26453D02*
D03*
X28451Y24058D02*
D03*
X28921D02*
D03*
D23*
X30361Y24526D02*
D03*
X33520Y21306D02*
D03*
Y21776D02*
D03*
X29668Y24032D02*
D03*
Y23562D02*
D03*
X27699Y24555D02*
D03*
Y24085D02*
D03*
X25691Y24555D02*
D03*
Y24085D02*
D03*
D24*
X15600Y17750D02*
D03*
Y19150D02*
D03*
D25*
X1050Y25750D02*
D03*
X1950D02*
D03*
X4786Y5117D02*
D03*
X3886D02*
D03*
X18445Y927D02*
D03*
X17545D02*
D03*
X25250Y1550D02*
D03*
X24350D02*
D03*
X1000Y26700D02*
D03*
X1900D02*
D03*
X5676Y23620D02*
D03*
X4776D02*
D03*
X5392Y16637D02*
D03*
X6292D02*
D03*
X5392Y17526D02*
D03*
X6292D02*
D03*
X8708Y16499D02*
D03*
X9608D02*
D03*
X17479Y2032D02*
D03*
X18379D02*
D03*
X2300Y5100D02*
D03*
X3200D02*
D03*
X2300Y6000D02*
D03*
X3200D02*
D03*
X4791Y5983D02*
D03*
X3891D02*
D03*
X2621Y25735D02*
D03*
X3521D02*
D03*
D26*
X2536Y6964D02*
D03*
X4336Y7614D02*
D03*
X2536Y8264D02*
D03*
D27*
X15621Y24398D02*
D03*
X15621Y26148D02*
D03*
D28*
X20308Y20881D02*
D03*
X21308Y20881D02*
D03*
X21808D02*
D03*
X22308D02*
D03*
X22808D02*
D03*
X23308Y20881D02*
D03*
X23808Y20881D02*
D03*
Y25731D02*
D03*
X23308Y25731D02*
D03*
X22808Y25731D02*
D03*
X22308Y25731D02*
D03*
X21808Y25731D02*
D03*
X21308Y25731D02*
D03*
X20808D02*
D03*
X20808Y20881D02*
D03*
X20308Y25731D02*
D03*
D29*
X24483Y21556D02*
D03*
X24483Y22056D02*
D03*
X24483Y22556D02*
D03*
X24483Y23056D02*
D03*
X24483Y24056D02*
D03*
Y25056D02*
D03*
X19633Y25056D02*
D03*
X19633Y24556D02*
D03*
X19633Y24056D02*
D03*
X19633Y23556D02*
D03*
X19633Y23056D02*
D03*
X19633Y22556D02*
D03*
X19633Y22056D02*
D03*
X19633Y21556D02*
D03*
X24483Y24556D02*
D03*
X24483Y23556D02*
D03*
D30*
X22058Y23306D02*
D03*
D31*
X9960Y19355D02*
D03*
D32*
X9560Y17437D02*
D03*
X8760D02*
D03*
Y21272D02*
D03*
X10360D02*
D03*
X11160D02*
D03*
X9560D02*
D03*
X10360Y17437D02*
D03*
X11160D02*
D03*
D33*
X24437Y28659D02*
D03*
Y27309D02*
D03*
X25487Y27309D02*
D03*
X25487Y28659D02*
D03*
D34*
X21336Y28829D02*
D03*
X22836Y28829D02*
D03*
D35*
X8382Y29845D02*
D03*
X9652D02*
D03*
X12192D02*
D03*
Y25781D02*
D03*
X10922D02*
D03*
X9652D02*
D03*
X8382D02*
D03*
X4572D02*
D03*
X5842D02*
D03*
X7112D02*
D03*
Y29845D02*
D03*
X5842D02*
D03*
X4572D02*
D03*
X10922D02*
D03*
D36*
X33250Y28575D02*
D03*
X30250D02*
D03*
D37*
X31750Y27075D02*
D03*
D38*
X612Y9300D02*
D03*
Y22380D02*
D03*
X628Y31127D02*
D03*
Y27547D02*
D03*
D39*
X3262Y10090D02*
D03*
Y10590D02*
D03*
Y11090D02*
D03*
Y11590D02*
D03*
Y12090D02*
D03*
Y12590D02*
D03*
Y13090D02*
D03*
Y13590D02*
D03*
Y14090D02*
D03*
Y14590D02*
D03*
Y15090D02*
D03*
Y15590D02*
D03*
Y16090D02*
D03*
Y16590D02*
D03*
Y17090D02*
D03*
Y17590D02*
D03*
Y18090D02*
D03*
Y18590D02*
D03*
Y19090D02*
D03*
Y19590D02*
D03*
Y20090D02*
D03*
Y20590D02*
D03*
Y21090D02*
D03*
Y21590D02*
D03*
X3278Y30337D02*
D03*
Y29837D02*
D03*
Y29337D02*
D03*
Y28837D02*
D03*
Y28337D02*
D03*
D40*
X2250Y23300D02*
D03*
Y24700D02*
D03*
X1000D02*
D03*
Y23300D02*
D03*
X11303Y8066D02*
D03*
Y6666D02*
D03*
X3522Y24700D02*
D03*
Y23300D02*
D03*
D41*
X13335Y27109D02*
D03*
Y28009D02*
D03*
X17830Y21378D02*
D03*
X17830Y20478D02*
D03*
X18030Y24156D02*
D03*
Y25056D02*
D03*
X16930Y24156D02*
D03*
Y25056D02*
D03*
D42*
X18623Y27051D02*
D03*
X19223D02*
D03*
D43*
X34409Y10479D02*
D03*
D44*
X13009D02*
D03*
D45*
X16262Y2501D02*
D03*
Y801D02*
D03*
X10662Y2501D02*
D03*
Y801D02*
D03*
D46*
X6158Y5588D02*
D03*
X7558D02*
D03*
X4492Y11958D02*
D03*
X5892D02*
D03*
X4507Y13208D02*
D03*
X5907D02*
D03*
X4129Y2267D02*
D03*
X2729D02*
D03*
X4888Y18542D02*
D03*
X6288D02*
D03*
X4845Y19746D02*
D03*
X6245D02*
D03*
X4851Y20951D02*
D03*
X6251D02*
D03*
X4902Y22166D02*
D03*
X6302D02*
D03*
D47*
X11299Y16434D02*
D03*
X10399D02*
D03*
X17976Y26289D02*
D03*
X17076D02*
D03*
X19373Y27940D02*
D03*
X18473Y27940D02*
D03*
X22791Y30607D02*
D03*
X23691D02*
D03*
X20378D02*
D03*
X21278Y30607D02*
D03*
D48*
X7000Y11700D02*
D03*
Y12600D02*
D03*
X4191Y10102D02*
D03*
Y9202D02*
D03*
X14478Y27109D02*
D03*
Y28009D02*
D03*
X11947Y22770D02*
D03*
Y21870D02*
D03*
X10922Y23045D02*
D03*
Y23945D02*
D03*
X9906Y23045D02*
D03*
Y23945D02*
D03*
X8890Y23045D02*
D03*
Y23945D02*
D03*
X7802Y22654D02*
D03*
Y23554D02*
D03*
X6994Y13275D02*
D03*
Y14175D02*
D03*
D49*
X15558Y23305D02*
D03*
X14922Y22669D02*
D03*
X27462Y21188D02*
D03*
X28098Y21824D02*
D03*
D50*
X26744Y21738D02*
D03*
X27168Y22162D02*
D03*
D51*
X18718Y21531D02*
D03*
Y20931D02*
D03*
D52*
X26418Y26418D02*
D03*
X26842Y25994D02*
D03*
D53*
X27123Y26974D02*
D03*
X27760Y26338D02*
D03*
D54*
X11557Y27813D02*
D03*
X5207D02*
D03*
D55*
X1278Y1018D02*
D03*
X35655Y1423D02*
D03*
Y30350D02*
D03*
D56*
X41850Y30400D02*
D03*
Y1600D02*
D03*
X9000Y13200D02*
D03*
D57*
X44476Y4102D02*
D03*
Y10101D02*
D03*
Y13101D02*
D03*
Y16101D02*
D03*
Y7102D02*
D03*
Y27792D02*
D03*
Y21792D02*
D03*
Y24792D02*
D03*
Y19101D02*
D03*
X37600Y27501D02*
D03*
Y22299D02*
D03*
X43573Y26056D02*
D03*
X42993Y20485D02*
D03*
X41452Y19279D02*
D03*
X41406Y21600D02*
D03*
X39587Y23240D02*
D03*
X39580Y26240D02*
D03*
X39773Y27792D02*
D03*
X42042D02*
D03*
X43482Y23340D02*
D03*
D58*
X38158Y18108D02*
D03*
X39869D02*
D03*
M02*
