G04*
G04 #@! TF.GenerationSoftware,Altium Limited,Altium Designer,23.6.0 (18)*
G04*
G04 Layer_Color=16711935*
%FSLAX43Y43*%
%MOMM*%
G71*
G04*
G04 #@! TF.SameCoordinates,17FE0B56-B4FD-4FE6-8C66-39BC20258D9D*
G04*
G04*
G04 #@! TF.FilePolarity,Negative*
G04*
G01*
G75*
%ADD54C,1.070*%
%ADD55C,0.500*%
%ADD56C,2.203*%
%ADD57C,0.508*%
%ADD58C,0.450*%
G04:AMPARAMS|DCode=87|XSize=1mm|YSize=0.46mm|CornerRadius=0.115mm|HoleSize=0mm|Usage=FLASHONLY|Rotation=0.000|XOffset=0mm|YOffset=0mm|HoleType=Round|Shape=RoundedRectangle|*
%AMROUNDEDRECTD87*
21,1,1.000,0.230,0,0,0.0*
21,1,0.770,0.460,0,0,0.0*
1,1,0.230,0.385,-0.115*
1,1,0.230,-0.385,-0.115*
1,1,0.230,-0.385,0.115*
1,1,0.230,0.385,0.115*
%
%ADD87ROUNDEDRECTD87*%
%ADD111R,2.603X1.803*%
D54*
X11557Y27813D02*
D03*
X5207D02*
D03*
D55*
X1278Y1018D02*
D03*
X35655Y1423D02*
D03*
Y30350D02*
D03*
D56*
X41850Y30400D02*
D03*
Y1600D02*
D03*
X9000Y13200D02*
D03*
D57*
X44476Y4102D02*
D03*
Y10101D02*
D03*
Y13101D02*
D03*
Y16101D02*
D03*
Y7102D02*
D03*
Y27792D02*
D03*
Y21792D02*
D03*
Y24792D02*
D03*
Y19101D02*
D03*
X37600Y27501D02*
D03*
Y22299D02*
D03*
X43573Y26056D02*
D03*
X42993Y20485D02*
D03*
X41452Y19279D02*
D03*
X41406Y21600D02*
D03*
X39587Y23240D02*
D03*
X39580Y26240D02*
D03*
X39773Y27792D02*
D03*
X42042D02*
D03*
X43482Y23340D02*
D03*
D58*
X38158Y18108D02*
D03*
X39869D02*
D03*
D87*
X37523Y18118D02*
D03*
D111*
X42050Y16125D02*
D03*
Y13275D02*
D03*
M02*
