G04*
G04 #@! TF.GenerationSoftware,Altium Limited,Altium Designer,23.6.0 (18)*
G04*
G04 Layer_Color=65535*
%FSLAX43Y43*%
%MOMM*%
G71*
G04*
G04 #@! TF.SameCoordinates,17FE0B56-B4FD-4FE6-8C66-39BC20258D9D*
G04*
G04*
G04 #@! TF.FilePolarity,Positive*
G04*
G01*
G75*
%ADD10C,0.120*%
%ADD11C,0.152*%
%ADD12C,0.200*%
%ADD13C,0.254*%
%ADD14C,0.100*%
%ADD15C,0.080*%
%ADD16R,0.500X0.175*%
G36*
X18325Y30620D02*
X18207D01*
Y31370D01*
X18205Y31369D01*
X18198Y31363D01*
X18190Y31355D01*
X18176Y31345D01*
X18161Y31333D01*
X18142Y31319D01*
X18119Y31304D01*
X18094Y31288D01*
X18093D01*
X18092Y31287D01*
X18083Y31282D01*
X18069Y31275D01*
X18053Y31266D01*
X18033Y31257D01*
X18013Y31247D01*
X17992Y31237D01*
X17971Y31229D01*
Y31343D01*
X17972D01*
X17975Y31345D01*
X17981Y31347D01*
X17988Y31351D01*
X17996Y31355D01*
X18006Y31361D01*
X18029Y31374D01*
X18057Y31390D01*
X18085Y31409D01*
X18114Y31431D01*
X18143Y31455D01*
X18144Y31456D01*
X18146Y31458D01*
X18150Y31462D01*
X18155Y31466D01*
X18168Y31480D01*
X18185Y31496D01*
X18201Y31516D01*
X18219Y31538D01*
X18235Y31560D01*
X18248Y31584D01*
X18325D01*
Y30620D01*
D02*
G37*
G36*
X20058Y20467D02*
X19308D01*
X19309Y20465D01*
X19315Y20458D01*
X19323Y20450D01*
X19333Y20436D01*
X19345Y20421D01*
X19359Y20402D01*
X19374Y20379D01*
X19389Y20354D01*
Y20353D01*
X19391Y20352D01*
X19396Y20343D01*
X19403Y20329D01*
X19412Y20313D01*
X19421Y20293D01*
X19431Y20273D01*
X19441Y20252D01*
X19449Y20231D01*
X19335D01*
Y20232D01*
X19333Y20235D01*
X19331Y20241D01*
X19327Y20248D01*
X19323Y20256D01*
X19317Y20266D01*
X19303Y20289D01*
X19288Y20317D01*
X19269Y20345D01*
X19247Y20374D01*
X19223Y20403D01*
X19222Y20404D01*
X19220Y20406D01*
X19216Y20410D01*
X19212Y20415D01*
X19198Y20428D01*
X19181Y20445D01*
X19162Y20461D01*
X19140Y20479D01*
X19118Y20494D01*
X19094Y20508D01*
Y20585D01*
X20058D01*
Y20467D01*
D02*
G37*
G36*
X13356Y25262D02*
Y25256D01*
Y25248D01*
X13354Y25237D01*
X13353Y25224D01*
X13350Y25210D01*
X13347Y25196D01*
X13342Y25181D01*
Y25180D01*
X13340Y25178D01*
X13338Y25170D01*
X13332Y25158D01*
X13324Y25141D01*
X13313Y25122D01*
X13299Y25099D01*
X13283Y25077D01*
X13264Y25054D01*
Y25052D01*
X13261Y25051D01*
X13254Y25042D01*
X13242Y25030D01*
X13224Y25012D01*
X13203Y24991D01*
X13177Y24966D01*
X13145Y24938D01*
X13110Y24909D01*
X13109Y24908D01*
X13103Y24904D01*
X13095Y24897D01*
X13085Y24889D01*
X13073Y24877D01*
X13057Y24865D01*
X13042Y24851D01*
X13024Y24836D01*
X12989Y24803D01*
X12955Y24769D01*
X12938Y24753D01*
X12923Y24736D01*
X12909Y24721D01*
X12898Y24705D01*
Y24704D01*
X12895Y24703D01*
X12892Y24699D01*
X12890Y24693D01*
X12880Y24678D01*
X12869Y24660D01*
X12859Y24638D01*
X12849Y24614D01*
X12844Y24588D01*
X12841Y24563D01*
Y24561D01*
Y24560D01*
X12842Y24552D01*
X12844Y24538D01*
X12848Y24522D01*
X12854Y24503D01*
X12863Y24484D01*
X12876Y24464D01*
X12892Y24445D01*
X12895Y24442D01*
X12902Y24436D01*
X12912Y24430D01*
X12927Y24420D01*
X12946Y24411D01*
X12969Y24403D01*
X12995Y24398D01*
X13024Y24396D01*
X13032D01*
X13038Y24398D01*
X13055Y24399D01*
X13074Y24403D01*
X13095Y24409D01*
X13118Y24418D01*
X13141Y24431D01*
X13161Y24448D01*
X13164Y24450D01*
X13170Y24457D01*
X13178Y24468D01*
X13186Y24485D01*
X13196Y24504D01*
X13204Y24529D01*
X13210Y24557D01*
X13213Y24589D01*
X13333Y24577D01*
Y24575D01*
X13332Y24571D01*
Y24564D01*
X13331Y24554D01*
X13328Y24543D01*
X13325Y24531D01*
X13321Y24515D01*
X13317Y24500D01*
X13306Y24467D01*
X13289Y24434D01*
X13279Y24417D01*
X13267Y24400D01*
X13254Y24385D01*
X13241Y24371D01*
X13239Y24370D01*
X13236Y24368D01*
X13232Y24364D01*
X13225Y24360D01*
X13217Y24355D01*
X13207Y24349D01*
X13196Y24342D01*
X13182Y24335D01*
X13167Y24328D01*
X13150Y24321D01*
X13132Y24316D01*
X13113Y24310D01*
X13092Y24306D01*
X13070Y24302D01*
X13046Y24301D01*
X13021Y24299D01*
X13008D01*
X12998Y24301D01*
X12987Y24302D01*
X12973Y24303D01*
X12958Y24306D01*
X12942Y24309D01*
X12906Y24319D01*
X12870Y24332D01*
X12852Y24341D01*
X12834Y24350D01*
X12818Y24363D01*
X12802Y24377D01*
X12801Y24378D01*
X12798Y24380D01*
X12795Y24385D01*
X12790Y24391D01*
X12783Y24398D01*
X12776Y24407D01*
X12769Y24417D01*
X12761Y24430D01*
X12747Y24456D01*
X12733Y24489D01*
X12727Y24506D01*
X12725Y24525D01*
X12722Y24545D01*
X12720Y24565D01*
Y24568D01*
Y24575D01*
X12722Y24586D01*
X12723Y24601D01*
X12726Y24618D01*
X12732Y24638D01*
X12737Y24658D01*
X12745Y24679D01*
X12747Y24682D01*
X12750Y24689D01*
X12755Y24700D01*
X12763Y24715D01*
X12775Y24732D01*
X12788Y24753D01*
X12805Y24773D01*
X12824Y24797D01*
X12827Y24800D01*
X12834Y24808D01*
X12841Y24815D01*
X12848Y24822D01*
X12856Y24830D01*
X12867Y24841D01*
X12879Y24853D01*
X12892Y24865D01*
X12906Y24879D01*
X12923Y24894D01*
X12941Y24909D01*
X12960Y24927D01*
X12983Y24945D01*
X13005Y24965D01*
X13006Y24966D01*
X13009Y24969D01*
X13014Y24973D01*
X13021Y24979D01*
X13030Y24987D01*
X13039Y24995D01*
X13062Y25013D01*
X13085Y25034D01*
X13107Y25055D01*
X13127Y25073D01*
X13135Y25080D01*
X13142Y25087D01*
X13143Y25088D01*
X13148Y25092D01*
X13153Y25098D01*
X13160Y25106D01*
X13167Y25116D01*
X13175Y25126D01*
X13192Y25149D01*
X12719D01*
Y25263D01*
X13356D01*
Y25262D01*
D02*
G37*
G36*
X12896Y30613D02*
X12898Y30614D01*
X12905Y30620D01*
X12913Y30628D01*
X12927Y30638D01*
X12942Y30650D01*
X12961Y30664D01*
X12984Y30679D01*
X13009Y30695D01*
X13010D01*
X13011Y30696D01*
X13020Y30701D01*
X13034Y30708D01*
X13050Y30717D01*
X13070Y30726D01*
X13090Y30736D01*
X13111Y30746D01*
X13132Y30754D01*
Y30640D01*
X13131D01*
X13128Y30638D01*
X13122Y30636D01*
X13115Y30632D01*
X13107Y30628D01*
X13097Y30622D01*
X13074Y30609D01*
X13046Y30593D01*
X13018Y30574D01*
X12989Y30552D01*
X12960Y30528D01*
X12959Y30527D01*
X12957Y30525D01*
X12953Y30521D01*
X12948Y30517D01*
X12935Y30503D01*
X12918Y30487D01*
X12902Y30467D01*
X12884Y30445D01*
X12868Y30423D01*
X12855Y30399D01*
X12778D01*
Y31363D01*
X12896D01*
Y30613D01*
D02*
G37*
D10*
X14900Y30536D02*
G03*
X14596Y30320I480J-1000D01*
G01*
X14596Y30320D02*
G03*
X14521Y30139I181J-181D01*
G01*
X16646Y29370D02*
G03*
X16721Y29551I-181J181D01*
G01*
X16196Y29097D02*
G03*
X16646Y29370I-334J1058D01*
G01*
X16721Y30139D02*
G03*
X16646Y30320I-256J0D01*
G01*
X16646Y30320D02*
G03*
X16342Y30536I-785J-785D01*
G01*
X14521Y29551D02*
G03*
X14596Y29370I256J0D01*
G01*
X14596Y29370D02*
G03*
X15046Y29097I785J785D01*
G01*
X14646Y30470D02*
G03*
X14646Y30470I-25J0D01*
G01*
Y29220D02*
G03*
X14646Y29220I-25J0D01*
G01*
X16646D02*
G03*
X16646Y29220I-25J0D01*
G01*
Y30470D02*
G03*
X16646Y30470I-25J0D01*
G01*
X15646Y30220D02*
G03*
X15646Y30220I-25J0D01*
G01*
Y29470D02*
G03*
X15646Y29470I-25J0D01*
G01*
X19958Y21006D02*
G03*
X19958Y21006I-200J0D01*
G01*
X32050Y28575D02*
G03*
X32050Y28575I-300J0D01*
G01*
X32305Y27743D02*
G03*
X32528Y27947I-555J832D01*
G01*
X30972D02*
G03*
X31195Y27743I778J628D01*
G01*
X32528Y29203D02*
G03*
X30972Y29203I-778J-628D01*
G01*
X33827Y2629D02*
G03*
X33827Y18329I-7918J7850D01*
G01*
X35854Y12239D02*
G03*
X19555Y18330I-9946J-1760D01*
G01*
X19557Y18329D02*
G03*
X19555Y2631I6355J-7850D01*
G01*
X17993Y18328D02*
G03*
X16852Y16979I7918J-7850D01*
G01*
X16851Y3978D02*
G03*
X17991Y2629I9058J6501D01*
G01*
X19554Y2629D02*
G03*
X35854Y8719I6355J7850D01*
G01*
X13571Y31270D02*
X14646D01*
X13571Y29670D02*
Y30020D01*
Y28420D02*
X17671D01*
Y29670D02*
Y30020D01*
X16596Y31270D02*
X17671D01*
X14521Y29845D02*
Y30139D01*
X15621Y28995D02*
X15696D01*
X16196Y29095D01*
X16721Y29551D02*
Y29845D01*
Y30139D01*
X15546Y28995D02*
X15621D01*
X15046Y29095D02*
X15546Y28995D01*
X14521Y29551D02*
Y29845D01*
X14621Y30470D02*
X16621D01*
X15621Y30220D02*
Y30470D01*
X14621Y29220D02*
X16621D01*
X15621D02*
Y29470D01*
Y30220D02*
X15871Y29470D01*
X2761Y7339D02*
Y7889D01*
Y6464D02*
Y6589D01*
Y6464D02*
X4111D01*
Y7239D01*
Y7989D02*
Y8764D01*
X2761D02*
X4111D01*
X2761Y8639D02*
Y8764D01*
X16346Y24948D02*
X16346Y25598D01*
X14896Y25598D02*
X14896Y24948D01*
X19433Y20681D02*
Y21256D01*
Y20681D02*
X20008Y20681D01*
X24108D02*
X24683D01*
X24683Y21256D01*
X24683Y25356D02*
Y25931D01*
X24108D02*
X24683D01*
X19433Y25356D02*
Y25931D01*
X20008Y25931D01*
X23937Y29209D02*
X23937Y28809D01*
X23937Y29209D02*
X24337Y29209D01*
X24937Y28884D02*
X24987D01*
X24937Y29034D02*
X24987D01*
X24262Y28109D02*
X24262Y27859D01*
X24112Y27859D02*
Y28109D01*
X24937Y27084D02*
X24987Y27084D01*
X24937Y26934D02*
X24987Y26934D01*
X25662Y28109D02*
X25662Y27859D01*
X25812Y28109D02*
X25812Y27859D01*
X21036Y28079D02*
X23136D01*
X21036Y29579D02*
X23136Y29579D01*
X21961Y28279D02*
X22211Y28279D01*
X21961Y29379D02*
X22211Y29379D01*
X3937Y25423D02*
Y30203D01*
X12827Y25423D02*
Y30203D01*
X32050Y29525D02*
Y30125D01*
X31450D02*
X32050D01*
X31450Y29525D02*
Y30125D01*
X32500Y27275D02*
X32875D01*
X30625D02*
X31000D01*
X30625Y29875D02*
X31450D01*
X32050D02*
X32875D01*
X17994Y18329D02*
X33827Y18329D01*
X17994Y2629D02*
X33827Y2629D01*
X13059Y16979D02*
X16852D01*
X13059Y3979D02*
X16852D01*
X12112Y12704D02*
Y14204D01*
X13059Y14229D02*
Y16979D01*
X13309Y12604D02*
Y14229D01*
X13059Y3979D02*
Y6729D01*
X13309D02*
Y8354D01*
X11362Y13454D02*
X12862D01*
X13059Y14229D02*
X13309D01*
X13059Y6729D02*
X13309D01*
X12112Y6754D02*
Y8254D01*
X11362Y7504D02*
X12862D01*
X37250Y26441D02*
X37257Y23330D01*
D11*
X11262Y22454D02*
G03*
X11262Y22454I-102J0D01*
G01*
X7788Y21527D02*
X8275D01*
X11645D02*
X12132D01*
Y17183D02*
Y21527D01*
X7788Y17183D02*
X8275D01*
X7788D02*
Y21527D01*
X11645Y17183D02*
X12132D01*
X3562Y8990D02*
Y9620D01*
X1389Y8990D02*
X3562D01*
X-38Y9733D02*
Y21947D01*
X1389Y22690D02*
X3562D01*
Y22060D02*
Y22690D01*
X3578Y30807D02*
Y31437D01*
X1405D02*
X3578D01*
X-22Y27980D02*
Y30694D01*
X1405Y27237D02*
X3578D01*
Y27867D01*
D12*
X4030Y31165D02*
G03*
X4030Y31165I-130J0D01*
G01*
X5247Y6136D02*
Y6536D01*
Y10736D02*
Y11136D01*
X10247Y6136D02*
Y6536D01*
Y10736D02*
Y11136D01*
X5247Y6136D02*
X10247D01*
X5247Y11136D02*
X10247D01*
X2374Y4591D02*
X6044D01*
X3354Y2991D02*
X6044D01*
X11112Y-99D02*
X15812D01*
X11112Y3401D02*
X15812D01*
X14762Y-1099D02*
Y-99D01*
X12162Y-1099D02*
X14762D01*
X12162D02*
Y-99D01*
X5132Y1924D02*
X7822D01*
X5132Y324D02*
X8802D01*
X8815Y5245D02*
X11505D01*
X8815Y3645D02*
X12485D01*
D13*
X4244Y10869D02*
G03*
X4244Y10869I-180J0D01*
G01*
X1958Y3556D02*
G03*
X1958Y3556I-180J0D01*
G01*
X12096Y5619D02*
G03*
X12096Y5619I-180J0D01*
G01*
X9556Y1513D02*
G03*
X9556Y1513I-180J0D01*
G01*
D14*
X31106Y23809D02*
X31106Y24317D01*
X30852D02*
X31106D01*
X30852Y23809D02*
X31106D01*
X30104Y24796D02*
X30612Y24796D01*
X30104Y24542D02*
Y24796D01*
X30612Y24542D02*
Y24796D01*
X15025Y17400D02*
Y19500D01*
X16175Y17400D02*
Y19500D01*
X1700Y23100D02*
Y24900D01*
X2800Y23100D02*
Y24900D01*
X1550Y22975D02*
Y25025D01*
X450Y22975D02*
Y25050D01*
X33772Y21030D02*
Y21284D01*
X33264Y21030D02*
X33772D01*
X33264D02*
Y21284D01*
X33772Y21792D02*
Y22046D01*
X33264Y21792D02*
Y22046D01*
X33772D01*
X26182Y24173D02*
Y24681D01*
Y24173D02*
X26436D01*
X26182Y24681D02*
X26436D01*
X26944Y24173D02*
X27198D01*
Y24681D01*
X26944D02*
X27198D01*
X32748Y22146D02*
Y22654D01*
Y22146D02*
X33002D01*
X32748Y22654D02*
X33002D01*
X33510Y22146D02*
X33764D01*
Y22654D01*
X33510D02*
X33764D01*
X32748Y20422D02*
Y20930D01*
Y20422D02*
X33002D01*
X32748Y20930D02*
X33002D01*
X33510Y20422D02*
X33764D01*
Y20930D01*
X33510D02*
X33764D01*
X26945Y23956D02*
X27199D01*
Y23448D02*
Y23956D01*
X26945Y23448D02*
X27199D01*
X26183Y23956D02*
X26437D01*
X26183Y23448D02*
X26437D01*
X26183D02*
Y23956D01*
X5833Y6138D02*
X7883D01*
X5808Y5038D02*
X7883D01*
X4167Y12508D02*
X6242D01*
X4167Y11408D02*
X6217D01*
X4182Y13758D02*
X6257D01*
X4182Y12658D02*
X6232D01*
X2404Y1717D02*
X4454D01*
X2404Y2817D02*
X4479D01*
X11853Y6316D02*
Y8391D01*
X10753Y6341D02*
Y8391D01*
X4688Y19092D02*
X6488D01*
X4688Y17992D02*
X6488D01*
X4645Y20296D02*
X6445D01*
X4645Y19196D02*
X6445D01*
X4651Y21501D02*
X6451D01*
X4651Y20401D02*
X6451D01*
X4577Y22716D02*
X6652D01*
X4577Y21616D02*
X6627D01*
X4072Y22975D02*
Y25025D01*
X2972Y22975D02*
Y25050D01*
X28181Y23802D02*
Y24310D01*
Y23802D02*
X28435D01*
X28181Y24310D02*
X28435D01*
X28943Y23802D02*
X29197D01*
Y24310D01*
X28943D02*
X29197D01*
X29417Y24055D02*
Y24309D01*
X29925D01*
Y24055D02*
Y24309D01*
X29417Y23293D02*
Y23547D01*
X29925Y23293D02*
Y23547D01*
X29417Y23293D02*
X29925D01*
X27443Y24825D02*
X27951D01*
X27443Y24571D02*
Y24825D01*
X27951Y24571D02*
Y24825D01*
X27443Y23809D02*
Y24063D01*
Y23809D02*
X27951D01*
Y24063D01*
X25434Y24825D02*
X25942D01*
X25434Y24571D02*
Y24825D01*
X25942Y24571D02*
Y24825D01*
X25434Y23809D02*
Y24063D01*
Y23809D02*
X25942D01*
Y24063D01*
D15*
X2250Y24100D02*
Y24200D01*
Y23800D02*
Y23900D01*
X2050D02*
X2450D01*
X2050Y24100D02*
X2450D01*
X800D02*
X1200D01*
X800Y23900D02*
X1200D01*
X1000Y23800D02*
Y23900D01*
Y24100D02*
Y24200D01*
X6758Y5388D02*
Y5788D01*
X6958Y5388D02*
Y5788D01*
Y5588D02*
X7058D01*
X6658D02*
X6758D01*
X5292Y11958D02*
X5392D01*
X4992D02*
X5092D01*
Y11758D02*
Y12158D01*
X5292Y11758D02*
Y12158D01*
X5307Y13208D02*
X5407D01*
X5007D02*
X5107D01*
Y13008D02*
Y13408D01*
X5307Y13008D02*
Y13408D01*
X3529Y2067D02*
Y2467D01*
X3329Y2067D02*
Y2467D01*
X3229Y2267D02*
X3329D01*
X3529D02*
X3629D01*
X11303Y7166D02*
Y7266D01*
Y7466D02*
Y7566D01*
X11103Y7466D02*
X11503D01*
X11103Y7266D02*
X11503D01*
X5688Y18542D02*
X5788D01*
X5388D02*
X5488D01*
Y18342D02*
Y18742D01*
X5688Y18342D02*
Y18742D01*
X5645Y19746D02*
X5745D01*
X5345D02*
X5445D01*
Y19546D02*
Y19946D01*
X5645Y19546D02*
Y19946D01*
X5651Y20951D02*
X5751D01*
X5351D02*
X5451D01*
Y20751D02*
Y21151D01*
X5651Y20751D02*
Y21151D01*
X5702Y22166D02*
X5802D01*
X5402D02*
X5502D01*
Y21966D02*
Y22366D01*
X5702Y21966D02*
Y22366D01*
X3322Y24100D02*
X3722D01*
X3322Y23900D02*
X3722D01*
X3522Y23800D02*
Y23900D01*
Y24100D02*
Y24200D01*
D16*
X2361Y8777D02*
D03*
M02*
