G04*
G04 #@! TF.GenerationSoftware,Altium Limited,Altium Designer,23.6.0 (18)*
G04*
G04 Layer_Color=32896*
%FSLAX43Y43*%
%MOMM*%
G71*
G04*
G04 #@! TF.SameCoordinates,17FE0B56-B4FD-4FE6-8C66-39BC20258D9D*
G04*
G04*
G04 #@! TF.FilePolarity,Positive*
G04*
G01*
G75*
%ADD12C,0.200*%
%ADD100C,0.250*%
%ADD112C,0.258*%
%ADD113C,0.013*%
%ADD114C,0.293*%
%ADD115C,0.117*%
G36*
X27236Y21246D02*
X27253Y21242D01*
X27299Y21237D01*
X27390Y21233D01*
X27436Y21229D01*
X27453Y21225D01*
X27474Y21221D01*
X27490Y21216D01*
X27536Y21212D01*
X27569Y21204D01*
X27611Y21196D01*
X27653Y21191D01*
X27680Y21185D01*
X27701Y21177D01*
X27730Y21173D01*
X27778Y21158D01*
X27817Y21152D01*
X27840Y21142D01*
X27888Y21131D01*
X27909Y21123D01*
X27924Y21117D01*
X27951Y21110D01*
X27980Y21098D01*
X27997Y21094D01*
X28024Y21083D01*
X28047Y21077D01*
X28074Y21066D01*
X28094Y21058D01*
X28126Y21052D01*
X28136Y21042D01*
X28163Y21031D01*
X28192Y21019D01*
X28238Y20998D01*
X28267Y20989D01*
X28276Y20981D01*
X28284Y20977D01*
X28330Y20956D01*
X28426Y20910D01*
X28472Y20885D01*
X28492Y20873D01*
X28505Y20869D01*
X28534Y20852D01*
X28544Y20841D01*
X28572Y20831D01*
X28584Y20819D01*
X28601Y20814D01*
X28613Y20802D01*
X28642Y20785D01*
X28663Y20773D01*
X28676Y20760D01*
X28705Y20744D01*
X28726Y20731D01*
X28738Y20719D01*
X28751Y20714D01*
X28757Y20708D01*
X28790Y20687D01*
X28794Y20679D01*
X28822Y20660D01*
X28830Y20656D01*
X28838Y20648D01*
X28859Y20635D01*
X28876Y20619D01*
X28884Y20614D01*
X28892Y20606D01*
X28901Y20602D01*
X28909Y20594D01*
X28917Y20589D01*
X28930Y20577D01*
X28938Y20573D01*
X28951Y20560D01*
X28959Y20556D01*
X28980Y20535D01*
X28988Y20531D01*
X29001Y20519D01*
X29009Y20514D01*
X29055Y20469D01*
X29069Y20458D01*
X29080Y20444D01*
X29088Y20439D01*
X29130Y20398D01*
X29138Y20394D01*
X29169Y20362D01*
X29174Y20354D01*
X29215Y20312D01*
X29219Y20304D01*
X29278Y20246D01*
X29282Y20237D01*
X29297Y20223D01*
X29315Y20200D01*
X29319Y20191D01*
X29336Y20175D01*
X29340Y20167D01*
X29349Y20158D01*
X29359Y20144D01*
X29380Y20119D01*
X29388Y20114D01*
X29390Y20108D01*
X29411Y20087D01*
X29415Y20079D01*
X29432Y20054D01*
X29436Y20046D01*
X29444Y20037D01*
X29461Y20008D01*
X29469Y20000D01*
X29474Y19992D01*
X29486Y19979D01*
X29490Y19971D01*
X29532Y19912D01*
X29536Y19904D01*
X29557Y19871D01*
X29561Y19862D01*
X29574Y19850D01*
X29578Y19833D01*
X29586Y19825D01*
X29619Y19767D01*
X29628Y19758D01*
X29644Y19729D01*
X29703Y19617D01*
X29736Y19558D01*
X29751Y19523D01*
X29761Y19496D01*
X29767Y19489D01*
X29778Y19462D01*
X29794Y19425D01*
X29803Y19404D01*
X29809Y19398D01*
X29815Y19375D01*
X29826Y19352D01*
X29836Y19325D01*
X29851Y19289D01*
X29857Y19262D01*
X29874Y19225D01*
X29882Y19196D01*
X29888Y19177D01*
X29894Y19150D01*
X29911Y19112D01*
X29915Y19079D01*
X29919Y19062D01*
X29930Y19044D01*
X29936Y19017D01*
X29944Y18983D01*
X29949Y18971D01*
X29957Y18917D01*
X29967Y18881D01*
X29978Y18833D01*
X29982Y18804D01*
X29988Y18781D01*
X29992Y18756D01*
X29999Y18687D01*
X30003Y18671D01*
X30011Y18650D01*
X30015Y18554D01*
X30019Y18542D01*
X30015Y18529D01*
X30017Y18523D01*
X30024Y18471D01*
X30032Y18462D01*
X30036Y18062D01*
X30028Y18058D01*
X30024Y18042D01*
X30019Y18029D01*
X30015Y17896D01*
X30011Y17879D01*
X30007Y17867D01*
X30003Y17837D01*
X29999Y17821D01*
X29994Y17792D01*
X29990Y17737D01*
X29986Y17721D01*
X29978Y17700D01*
X29974Y17642D01*
X29963Y17614D01*
X29959Y17598D01*
X29953Y17562D01*
X29947Y17539D01*
X29942Y17523D01*
X29936Y17500D01*
X29928Y17466D01*
X29919Y17446D01*
X29911Y17392D01*
X29905Y17385D01*
X29894Y17358D01*
X29890Y17329D01*
X29878Y17316D01*
X29874Y17279D01*
X29857Y17254D01*
X29853Y17221D01*
X29842Y17210D01*
X29836Y17187D01*
X29826Y17160D01*
X29817Y17139D01*
X29811Y17117D01*
X29805Y17110D01*
X29794Y17083D01*
X29780Y17056D01*
X29774Y17033D01*
X29769Y17017D01*
X29757Y17004D01*
X29753Y16979D01*
X29738Y16960D01*
X29732Y16937D01*
X29722Y16919D01*
X29711Y16892D01*
X29703Y16883D01*
X29699Y16875D01*
X29686Y16846D01*
X29644Y16771D01*
X29628Y16742D01*
X29615Y16721D01*
X29599Y16696D01*
X29594Y16683D01*
X29586Y16675D01*
X29569Y16646D01*
X29549Y16617D01*
X29532Y16587D01*
X29524Y16579D01*
X29511Y16558D01*
X29499Y16546D01*
X29492Y16531D01*
X29474Y16508D01*
X29469Y16500D01*
X29459Y16489D01*
X29432Y16450D01*
X29428Y16441D01*
X29419Y16433D01*
X29415Y16425D01*
X29399Y16408D01*
X29394Y16400D01*
X29386Y16392D01*
X29374Y16371D01*
X29357Y16354D01*
X29353Y16346D01*
X29340Y16333D01*
X29330Y16319D01*
X29322Y16314D01*
X29319Y16308D01*
X29303Y16292D01*
X29292Y16277D01*
X29284Y16273D01*
X29274Y16258D01*
X29269Y16250D01*
X29261Y16242D01*
X29257Y16233D01*
X29247Y16223D01*
X29236Y16225D01*
X29232Y16242D01*
X29226Y16260D01*
X29222Y16277D01*
X29215Y16325D01*
X29205Y16344D01*
X29190Y16408D01*
X29184Y16414D01*
X29178Y16437D01*
X29169Y16466D01*
X29161Y16487D01*
X29157Y16512D01*
X29142Y16539D01*
X29136Y16562D01*
X29122Y16589D01*
X29111Y16617D01*
X29103Y16625D01*
X29099Y16642D01*
X29078Y16687D01*
X29069Y16708D01*
X29063Y16714D01*
X29053Y16742D01*
X29044Y16750D01*
X29028Y16779D01*
X29024Y16787D01*
X29007Y16812D01*
X28994Y16833D01*
X28974Y16862D01*
X28969Y16871D01*
X28961Y16879D01*
X28957Y16887D01*
X28940Y16904D01*
X28936Y16912D01*
X28919Y16929D01*
X28915Y16937D01*
X28861Y16992D01*
X28863Y17002D01*
X28892Y17023D01*
X28967Y17064D01*
X29030Y17098D01*
X29038Y17106D01*
X29061Y17121D01*
X29084Y17139D01*
X29142Y17181D01*
X29172Y17198D01*
X29174Y17204D01*
X29180Y17210D01*
X29188Y17214D01*
X29205Y17231D01*
X29213Y17235D01*
X29307Y17329D01*
X29311Y17337D01*
X29332Y17358D01*
X29336Y17367D01*
X29349Y17379D01*
X29382Y17437D01*
X29388Y17439D01*
X29411Y17483D01*
X29428Y17525D01*
X29434Y17531D01*
X29440Y17566D01*
X29453Y17596D01*
X29457Y17658D01*
X29461Y17671D01*
X29459Y17756D01*
X29455Y17794D01*
X29451Y17810D01*
X29440Y17837D01*
X29436Y17867D01*
X29424Y17896D01*
X29415Y17917D01*
X29386Y17979D01*
X29382Y17987D01*
X29365Y18012D01*
X29349Y18042D01*
X29336Y18062D01*
X29328Y18071D01*
X29315Y18091D01*
X29307Y18096D01*
X29294Y18117D01*
X29282Y18129D01*
X29278Y18137D01*
X29261Y18154D01*
X29251Y18169D01*
X29242Y18173D01*
X29236Y18179D01*
X29232Y18187D01*
X29215Y18200D01*
X29211Y18208D01*
X29182Y18237D01*
X29159Y18256D01*
X29151Y18260D01*
X29138Y18273D01*
X29130Y18277D01*
X29117Y18289D01*
X29109Y18294D01*
X29097Y18306D01*
X29067Y18323D01*
X29059Y18331D01*
X29051Y18335D01*
X29030Y18344D01*
X29022Y18352D01*
X28988Y18364D01*
X28982Y18371D01*
X28959Y18377D01*
X28930Y18389D01*
X28913Y18394D01*
X28901Y18398D01*
X28847Y18402D01*
X28834Y18406D01*
X28809Y18410D01*
X28717Y18406D01*
X28705Y18402D01*
X28680Y18398D01*
X28651Y18394D01*
X28622Y18381D01*
X28597Y18377D01*
X28567Y18364D01*
X28547Y18356D01*
X28530Y18352D01*
X28522Y18344D01*
X28488Y18331D01*
X28478Y18321D01*
X28455Y18314D01*
X28442Y18302D01*
X28426Y18298D01*
X28417Y18289D01*
X28397Y18277D01*
X28384Y18264D01*
X28363Y18256D01*
X28351Y18244D01*
X28342Y18239D01*
X28330Y18227D01*
X28309Y18214D01*
X28301Y18206D01*
X28280Y18194D01*
X28276Y18185D01*
X28267Y18181D01*
X28251Y18164D01*
X28242Y18160D01*
X28222Y18139D01*
X28213Y18135D01*
X28197Y18119D01*
X28188Y18114D01*
X27982Y17908D01*
X27978Y17900D01*
X27957Y17879D01*
X27953Y17871D01*
X27924Y17841D01*
X27919Y17833D01*
X27913Y17827D01*
X27901Y17823D01*
X27899Y17846D01*
X27915Y17871D01*
X27919Y17900D01*
X27936Y17937D01*
X27940Y17971D01*
X27951Y17994D01*
X27961Y18054D01*
X27974Y18083D01*
X27978Y18125D01*
X27986Y18158D01*
X27992Y18177D01*
X27999Y18254D01*
X28003Y18267D01*
X28007Y18412D01*
X28003Y18454D01*
X27997Y18473D01*
X27980Y18477D01*
X27969Y18454D01*
X27961Y18446D01*
X27957Y18437D01*
X27949Y18417D01*
X27942Y18414D01*
X27936Y18400D01*
X27928Y18379D01*
X27919Y18375D01*
X27915Y18358D01*
X27894Y18312D01*
X27890Y18296D01*
X27882Y18287D01*
X27878Y18275D01*
X27867Y18248D01*
X27859Y18227D01*
X27853Y18204D01*
X27836Y18162D01*
X27832Y18146D01*
X27824Y18117D01*
X27815Y18096D01*
X27807Y18062D01*
X27799Y18042D01*
X27790Y18008D01*
X27782Y17987D01*
X27778Y17962D01*
X27774Y17946D01*
X27767Y17923D01*
X27761Y17892D01*
X27753Y17862D01*
X27747Y17860D01*
X27740Y17867D01*
X27736Y17904D01*
X27732Y17921D01*
X27726Y17939D01*
X27722Y17956D01*
X27715Y18000D01*
X27705Y18023D01*
X27701Y18039D01*
X27694Y18083D01*
X27684Y18110D01*
X27680Y18127D01*
X27676Y18152D01*
X27672Y18173D01*
X27663Y18194D01*
X27657Y18221D01*
X27653Y18237D01*
X27642Y18260D01*
X27630Y18306D01*
X27622Y18327D01*
X27617Y18344D01*
X27611Y18367D01*
X27603Y18375D01*
X27599Y18392D01*
X27557Y18483D01*
X27553Y18500D01*
X27532Y18533D01*
X27528Y18542D01*
X27507Y18571D01*
X27494Y18591D01*
X27482Y18604D01*
X27478Y18617D01*
X27469Y18625D01*
X27457Y18646D01*
X27399Y18704D01*
X27376Y18723D01*
X27317Y18764D01*
X27280Y18785D01*
X27259Y18798D01*
X27230Y18806D01*
X27222Y18814D01*
X27197Y18819D01*
X27180Y18823D01*
X27169Y18833D01*
X27117Y18839D01*
X27097Y18848D01*
X27059Y18852D01*
X27047Y18856D01*
X26811Y18854D01*
X26794Y18850D01*
X26774Y18846D01*
X26757Y18841D01*
X26724Y18837D01*
X26699Y18833D01*
X26682Y18829D01*
X26655Y18819D01*
X26638Y18814D01*
X26619Y18804D01*
X26592Y18798D01*
X26572Y18789D01*
X26534Y18769D01*
X26505Y18752D01*
X26484Y18739D01*
X26467Y18723D01*
X26459Y18719D01*
X26442Y18702D01*
X26434Y18698D01*
X26399Y18662D01*
X26394Y18650D01*
X26378Y18633D01*
X26374Y18625D01*
X26361Y18612D01*
X26357Y18604D01*
X26349Y18596D01*
X26336Y18575D01*
X26328Y18554D01*
X26317Y18539D01*
X26311Y18517D01*
X26299Y18504D01*
X26294Y18466D01*
X26286Y18446D01*
X26280Y18431D01*
X26274Y18404D01*
X26269Y18350D01*
X26261Y18329D01*
X26263Y18194D01*
X26267Y18177D01*
X26276Y18102D01*
X26280Y18081D01*
X26286Y18058D01*
X26290Y18046D01*
X26294Y18004D01*
X26311Y17966D01*
X26319Y17933D01*
X26330Y17910D01*
X26336Y17887D01*
X26353Y17850D01*
X26403Y17746D01*
X26436Y17683D01*
X26444Y17675D01*
X26461Y17646D01*
X26467Y17644D01*
X26478Y17625D01*
X26472Y17619D01*
X26405Y17614D01*
X26376Y17606D01*
X26363Y17602D01*
X26334Y17598D01*
X26317Y17594D01*
X26297Y17581D01*
X26280Y17577D01*
X26217Y17548D01*
X26159Y17514D01*
X26147Y17502D01*
X26138Y17498D01*
X26109Y17477D01*
X26101Y17473D01*
X26088Y17460D01*
X26080Y17456D01*
X26026Y17402D01*
X26017Y17398D01*
X25999Y17379D01*
X25994Y17371D01*
X25936Y17312D01*
X25932Y17304D01*
X25899Y17271D01*
X25894Y17262D01*
X25886Y17254D01*
X25869Y17225D01*
X25863Y17223D01*
X25853Y17204D01*
X25840Y17191D01*
X25832Y17171D01*
X25824Y17162D01*
X25811Y17142D01*
X25799Y17129D01*
X25794Y17117D01*
X25786Y17108D01*
X25774Y17087D01*
X25765Y17079D01*
X25740Y17037D01*
X25736Y17029D01*
X25728Y17008D01*
X25717Y16994D01*
X25711Y16971D01*
X25701Y16960D01*
X25690Y16933D01*
X25680Y16923D01*
X25669Y16896D01*
X25661Y16887D01*
X25653Y16867D01*
X25640Y16837D01*
X25636Y16829D01*
X25632Y16812D01*
X25615Y16775D01*
X25611Y16758D01*
X25601Y16735D01*
X25594Y16712D01*
X25590Y16696D01*
X25578Y16667D01*
X25574Y16625D01*
X25563Y16598D01*
X25559Y16581D01*
X25549Y16492D01*
X25553Y16462D01*
X25557Y16421D01*
X25582Y16367D01*
X25601Y16348D01*
X25630Y16327D01*
X25667Y16306D01*
X25688Y16294D01*
X25724Y16279D01*
X25751Y16273D01*
X25767Y16269D01*
X25788Y16260D01*
X25867Y16252D01*
X25880Y16248D01*
X26044Y16250D01*
X26113Y16256D01*
X26167Y16260D01*
X26184Y16264D01*
X26197Y16269D01*
X26236Y16275D01*
X26274Y16279D01*
X26290Y16283D01*
X26311Y16292D01*
X26355Y16298D01*
X26384Y16310D01*
X26413Y16314D01*
X26430Y16319D01*
X26453Y16325D01*
X26474Y16333D01*
X26499Y16337D01*
X26532Y16350D01*
X26555Y16356D01*
X26584Y16369D01*
X26597Y16373D01*
X26613Y16377D01*
X26651Y16394D01*
X26667Y16398D01*
X26709Y16414D01*
X26726Y16419D01*
X26767Y16435D01*
X26786Y16441D01*
X26813Y16452D01*
X26859Y16473D01*
X26888Y16481D01*
X26897Y16489D01*
X26905Y16494D01*
X26951Y16514D01*
X26967Y16519D01*
X26976Y16527D01*
X26984Y16531D01*
X27030Y16552D01*
X27092Y16581D01*
X27101Y16589D01*
X27109Y16594D01*
X27130Y16602D01*
X27138Y16610D01*
X27159Y16614D01*
X27167Y16623D01*
X27197Y16639D01*
X27205Y16644D01*
X27213Y16652D01*
X27230Y16656D01*
X27247Y16673D01*
X27263Y16677D01*
X27272Y16685D01*
X27292Y16698D01*
X27305Y16710D01*
X27317Y16714D01*
X27326Y16723D01*
X27347Y16735D01*
X27380Y16769D01*
X27388Y16773D01*
X27394Y16767D01*
X27392Y16719D01*
X27394Y16633D01*
X27399Y16604D01*
X27403Y16587D01*
X27407Y16575D01*
X27411Y16558D01*
X27424Y16529D01*
X27440Y16500D01*
X27447Y16498D01*
X27455Y16485D01*
X27472Y16481D01*
X27480Y16489D01*
X27488Y16494D01*
X27509Y16502D01*
X27517Y16510D01*
X27526Y16514D01*
X27590Y16579D01*
X27607Y16608D01*
X27619Y16629D01*
X27632Y16642D01*
X27636Y16654D01*
X27644Y16675D01*
X27649Y16683D01*
X27663Y16698D01*
X27672Y16694D01*
X27678Y16671D01*
X27690Y16658D01*
X27694Y16642D01*
X27711Y16625D01*
X27715Y16608D01*
X27732Y16583D01*
X27738Y16569D01*
X27759Y16535D01*
X27761Y16533D01*
X27778Y16504D01*
X27790Y16492D01*
X27794Y16479D01*
X27824Y16433D01*
X27836Y16412D01*
X27844Y16404D01*
X27861Y16375D01*
X27872Y16360D01*
X27899Y16321D01*
X27940Y16258D01*
X27961Y16229D01*
X27974Y16208D01*
X27990Y16191D01*
X27997Y16177D01*
X28036Y16125D01*
X28040Y16117D01*
X28047Y16114D01*
X28049Y16108D01*
X28069Y16079D01*
X28074Y16071D01*
X28086Y16058D01*
X28097Y16044D01*
X28115Y16021D01*
X28119Y16012D01*
X28132Y16000D01*
X28136Y15991D01*
X28149Y15979D01*
X28153Y15971D01*
X28169Y15954D01*
X28174Y15946D01*
X28180Y15939D01*
X28199Y15917D01*
X28203Y15908D01*
X28217Y15894D01*
X28236Y15871D01*
X28240Y15862D01*
X28274Y15829D01*
X28278Y15821D01*
X28290Y15808D01*
X28294Y15800D01*
X28301Y15798D01*
X28332Y15767D01*
X28336Y15758D01*
X28369Y15725D01*
X28374Y15717D01*
X28413Y15677D01*
X28422Y15673D01*
X28447Y15648D01*
X28455Y15644D01*
X28474Y15625D01*
X28467Y15619D01*
X28459Y15614D01*
X28438Y15602D01*
X28417Y15594D01*
X28397Y15581D01*
X28388Y15577D01*
X28372Y15573D01*
X28363Y15564D01*
X28330Y15552D01*
X28322Y15544D01*
X28288Y15531D01*
X28280Y15523D01*
X28267Y15519D01*
X28238Y15506D01*
X28217Y15498D01*
X28194Y15487D01*
X28167Y15477D01*
X28151Y15473D01*
X28142Y15464D01*
X28122Y15456D01*
X28105Y15452D01*
X28076Y15439D01*
X28059Y15435D01*
X28040Y15429D01*
X28019Y15421D01*
X27997Y15414D01*
X27974Y15404D01*
X27942Y15398D01*
X27901Y15381D01*
X27876Y15377D01*
X27822Y15360D01*
X27805Y15356D01*
X27776Y15348D01*
X27763Y15344D01*
X27738Y15339D01*
X27709Y15335D01*
X27692Y15331D01*
X27657Y15321D01*
X27622Y15314D01*
X27609Y15310D01*
X27576Y15306D01*
X27563Y15302D01*
X27522Y15298D01*
X27505Y15294D01*
X27463Y15289D01*
X27442Y15281D01*
X27309Y15273D01*
X27280Y15260D01*
X26867Y15256D01*
X26855Y15260D01*
X26840Y15267D01*
X26819Y15271D01*
X26769Y15275D01*
X26651Y15281D01*
X26628Y15287D01*
X26607Y15292D01*
X26553Y15300D01*
X26519Y15304D01*
X26499Y15312D01*
X26461Y15316D01*
X26428Y15321D01*
X26411Y15325D01*
X26390Y15333D01*
X26355Y15339D01*
X26322Y15348D01*
X26309Y15352D01*
X26269Y15358D01*
X26253Y15362D01*
X26232Y15371D01*
X26188Y15381D01*
X26169Y15387D01*
X26142Y15398D01*
X26119Y15404D01*
X26092Y15414D01*
X26076Y15419D01*
X26057Y15425D01*
X26036Y15433D01*
X26009Y15439D01*
X25982Y15454D01*
X25955Y15460D01*
X25949Y15467D01*
X25922Y15477D01*
X25905Y15481D01*
X25867Y15498D01*
X25844Y15508D01*
X25805Y15523D01*
X25799Y15529D01*
X25759Y15544D01*
X25751Y15552D01*
X25742Y15556D01*
X25722Y15564D01*
X25701Y15577D01*
X25680Y15585D01*
X25659Y15598D01*
X25638Y15606D01*
X25601Y15627D01*
X25572Y15644D01*
X25551Y15656D01*
X25530Y15664D01*
X25501Y15681D01*
X25492Y15689D01*
X25463Y15706D01*
X25440Y15721D01*
X25401Y15748D01*
X25380Y15760D01*
X25361Y15775D01*
X25322Y15802D01*
X25292Y15823D01*
X25263Y15839D01*
X25247Y15856D01*
X25238Y15860D01*
X25226Y15873D01*
X25217Y15877D01*
X25205Y15889D01*
X25190Y15900D01*
X25167Y15919D01*
X25159Y15923D01*
X25157Y15929D01*
X25138Y15939D01*
X25122Y15956D01*
X25113Y15960D01*
X25101Y15973D01*
X25092Y15977D01*
X25076Y15994D01*
X25067Y15998D01*
X25059Y16006D01*
X25044Y16017D01*
X25034Y16031D01*
X25026Y16035D01*
X24984Y16077D01*
X24976Y16081D01*
X24861Y16196D01*
X24857Y16204D01*
X24840Y16221D01*
X24836Y16229D01*
X24824Y16237D01*
X24813Y16252D01*
X24805Y16256D01*
X24799Y16262D01*
X24794Y16271D01*
X24782Y16283D01*
X24778Y16292D01*
X24761Y16308D01*
X24757Y16316D01*
X24744Y16329D01*
X24740Y16337D01*
X24715Y16362D01*
X24711Y16371D01*
X24705Y16373D01*
X24692Y16394D01*
X24684Y16398D01*
X24678Y16412D01*
X24665Y16425D01*
X24653Y16446D01*
X24644Y16454D01*
X24640Y16462D01*
X24630Y16473D01*
X24613Y16498D01*
X24594Y16521D01*
X24590Y16529D01*
X24582Y16537D01*
X24576Y16552D01*
X24557Y16575D01*
X24553Y16583D01*
X24544Y16591D01*
X24540Y16600D01*
X24511Y16646D01*
X24490Y16683D01*
X24482Y16691D01*
X24457Y16737D01*
X24449Y16746D01*
X24407Y16821D01*
X24340Y16950D01*
X24301Y17031D01*
X24290Y17058D01*
X24284Y17064D01*
X24278Y17087D01*
X24244Y17162D01*
X24240Y17179D01*
X24222Y17223D01*
X24217Y17239D01*
X24211Y17267D01*
X24203Y17275D01*
X24194Y17308D01*
X24182Y17337D01*
X24178Y17358D01*
X24174Y17375D01*
X24161Y17404D01*
X24153Y17437D01*
X24147Y17460D01*
X24132Y17525D01*
X24124Y17546D01*
X24119Y17562D01*
X24115Y17591D01*
X24111Y17608D01*
X24103Y17629D01*
X24099Y17654D01*
X24094Y17696D01*
X24090Y17725D01*
X24084Y17748D01*
X24080Y17785D01*
X24074Y17837D01*
X24069Y17867D01*
X24065Y17879D01*
X24061Y17908D01*
X24057Y17921D01*
X24053Y18037D01*
X24049Y18091D01*
X24040Y18112D01*
X24036Y18437D01*
X24044Y18446D01*
X24049Y18471D01*
X24053Y18483D01*
X24057Y18566D01*
X24061Y18621D01*
X24065Y18633D01*
X24069Y18658D01*
X24074Y18671D01*
X24078Y18729D01*
X24082Y18746D01*
X24086Y18758D01*
X24092Y18798D01*
X24099Y18858D01*
X24103Y18875D01*
X24115Y18904D01*
X24119Y18946D01*
X24132Y18975D01*
X24140Y19029D01*
X24151Y19052D01*
X24157Y19079D01*
X24161Y19108D01*
X24169Y19129D01*
X24178Y19158D01*
X24182Y19175D01*
X24194Y19196D01*
X24199Y19221D01*
X24203Y19237D01*
X24211Y19246D01*
X24215Y19254D01*
X24222Y19277D01*
X24236Y19316D01*
X24240Y19333D01*
X24257Y19371D01*
X24261Y19387D01*
X24278Y19425D01*
X24299Y19471D01*
X24303Y19487D01*
X24315Y19500D01*
X24319Y19525D01*
X24332Y19537D01*
X24336Y19550D01*
X24357Y19596D01*
X24365Y19617D01*
X24378Y19637D01*
X24382Y19654D01*
X24390Y19662D01*
X24394Y19671D01*
X24403Y19691D01*
X24415Y19712D01*
X24436Y19742D01*
X24440Y19758D01*
X24453Y19771D01*
X24461Y19792D01*
X24469Y19800D01*
X24503Y19858D01*
X24509Y19860D01*
X24528Y19896D01*
X24544Y19925D01*
X24557Y19946D01*
X24574Y19962D01*
X24578Y19971D01*
X24586Y19979D01*
X24599Y20000D01*
X24607Y20008D01*
X24619Y20029D01*
X24636Y20046D01*
X24640Y20054D01*
X24649Y20062D01*
X24661Y20083D01*
X24669Y20091D01*
X24682Y20112D01*
X24688Y20114D01*
X24699Y20133D01*
X24707Y20142D01*
X24719Y20162D01*
X24749Y20191D01*
X24759Y20206D01*
X24774Y20216D01*
X24778Y20225D01*
X24794Y20242D01*
X24799Y20250D01*
X24811Y20258D01*
X24815Y20267D01*
X24857Y20308D01*
X24861Y20316D01*
X24867Y20319D01*
X24878Y20333D01*
X24882Y20341D01*
X24930Y20389D01*
X24938Y20394D01*
X24976Y20431D01*
X24984Y20435D01*
X25022Y20473D01*
X25030Y20477D01*
X25038Y20489D01*
X25047Y20494D01*
X25063Y20510D01*
X25072Y20514D01*
X25080Y20527D01*
X25088Y20531D01*
X25122Y20564D01*
X25142Y20577D01*
X25151Y20585D01*
X25172Y20598D01*
X25180Y20606D01*
X25194Y20617D01*
X25217Y20635D01*
X25226Y20639D01*
X25238Y20652D01*
X25247Y20656D01*
X25255Y20664D01*
X25278Y20679D01*
X25301Y20698D01*
X25309Y20702D01*
X25317Y20710D01*
X25326Y20714D01*
X25334Y20723D01*
X25355Y20735D01*
X25367Y20748D01*
X25388Y20756D01*
X25405Y20773D01*
X25422Y20777D01*
X25430Y20785D01*
X25492Y20819D01*
X25505Y20831D01*
X25526Y20839D01*
X25538Y20852D01*
X25559Y20860D01*
X25588Y20881D01*
X25609Y20894D01*
X25630Y20902D01*
X25636Y20908D01*
X25663Y20919D01*
X25669Y20925D01*
X25709Y20939D01*
X25717Y20948D01*
X25726Y20952D01*
X25769Y20971D01*
X25797Y20981D01*
X25815Y20992D01*
X25842Y21002D01*
X25849Y21008D01*
X25888Y21023D01*
X25894Y21029D01*
X25917Y21035D01*
X25972Y21056D01*
X26007Y21071D01*
X26034Y21077D01*
X26055Y21085D01*
X26061Y21091D01*
X26092Y21098D01*
X26119Y21112D01*
X26172Y21123D01*
X26180Y21131D01*
X26213Y21135D01*
X26249Y21146D01*
X26313Y21160D01*
X26334Y21169D01*
X26347Y21173D01*
X26376Y21177D01*
X26392Y21181D01*
X26415Y21191D01*
X26484Y21198D01*
X26501Y21202D01*
X26519Y21208D01*
X26544Y21212D01*
X26594Y21216D01*
X26619Y21221D01*
X26636Y21225D01*
X26661Y21229D01*
X26682Y21233D01*
X26792Y21239D01*
X26822Y21244D01*
X26830Y21252D01*
X27230Y21256D01*
X27236Y21246D01*
D02*
G37*
G36*
X32617Y11467D02*
X25849D01*
Y13356D01*
X32617D01*
Y11467D01*
D02*
G37*
G36*
X11428Y10836D02*
X11543Y10801D01*
X11561D01*
X11565D01*
X11570Y10799D01*
X11575Y10794D01*
X11576Y10791D01*
X11642Y10771D01*
X11653D01*
X11656D01*
X11662Y10768D01*
X11666Y10764D01*
X11666Y10763D01*
X11742Y10740D01*
X11744D01*
X11747D01*
X11753Y10738D01*
X11755Y10736D01*
X11788Y10726D01*
X11872Y10679D01*
X11897D01*
X11900D01*
X11906Y10677D01*
X11910Y10672D01*
X11912Y10667D01*
Y10663D01*
Y10661D01*
X11911Y10657D01*
X11926Y10649D01*
X11958Y10649D01*
X11961D01*
X11967Y10646D01*
X11971Y10642D01*
X11973Y10636D01*
Y10633D01*
Y10630D01*
X11972Y10626D01*
X11970Y10624D01*
X11981Y10618D01*
X12019Y10618D01*
X12022D01*
X12027Y10616D01*
X12032Y10611D01*
X12034Y10606D01*
Y10602D01*
Y10600D01*
X12033Y10595D01*
X12030Y10591D01*
X12029Y10591D01*
X12035Y10588D01*
X12080Y10588D01*
X12083D01*
X12088Y10585D01*
X12093Y10581D01*
X12095Y10575D01*
Y10572D01*
Y10570D01*
X12094Y10565D01*
X12091Y10561D01*
X12088Y10558D01*
X12090Y10557D01*
X12110Y10557D01*
X12113D01*
X12119Y10555D01*
X12123Y10550D01*
X12126Y10545D01*
Y10542D01*
Y10539D01*
X12125Y10537D01*
X12144Y10527D01*
X12171D01*
X12174D01*
X12180Y10524D01*
X12184Y10520D01*
X12187Y10514D01*
Y10511D01*
Y10509D01*
X12185Y10504D01*
X12199Y10496D01*
X12232Y10496D01*
X12235D01*
X12241Y10494D01*
X12245Y10489D01*
X12248Y10484D01*
Y10481D01*
Y10478D01*
X12246Y10473D01*
X12244Y10471D01*
X12253Y10466D01*
X12262D01*
X12266D01*
X12271Y10463D01*
X12276Y10459D01*
X12278Y10453D01*
Y10452D01*
X12308Y10435D01*
X12323D01*
X12327D01*
X12332Y10433D01*
X12337Y10428D01*
X12339Y10423D01*
Y10420D01*
Y10418D01*
X12378Y10396D01*
X12433Y10344D01*
X12445D01*
X12448D01*
X12454Y10341D01*
X12459Y10337D01*
X12461Y10331D01*
Y10328D01*
Y10326D01*
X12459Y10321D01*
X12458Y10319D01*
X12464Y10313D01*
X12476D01*
X12479D01*
X12485Y10311D01*
X12489Y10307D01*
X12491Y10301D01*
Y10298D01*
Y10295D01*
X12490Y10290D01*
X12489Y10290D01*
X12496Y10283D01*
X12506D01*
X12509D01*
X12515Y10280D01*
X12520Y10276D01*
X12522Y10270D01*
Y10267D01*
Y10265D01*
X12520Y10260D01*
X12520Y10260D01*
X12528Y10252D01*
X12537D01*
X12540D01*
X12546Y10250D01*
X12550Y10246D01*
X12552Y10240D01*
Y10237D01*
Y10234D01*
X12551Y10230D01*
X12560Y10222D01*
X12567D01*
X12570D01*
X12576Y10219D01*
X12581Y10215D01*
X12583Y10209D01*
Y10206D01*
Y10204D01*
X12582Y10201D01*
X12592Y10191D01*
X12598D01*
X12601D01*
X12607Y10189D01*
X12611Y10185D01*
X12613Y10179D01*
Y10176D01*
Y10173D01*
X12613Y10171D01*
X12624Y10161D01*
X12628D01*
X12631D01*
X12637Y10159D01*
X12641Y10154D01*
X12644Y10148D01*
Y10145D01*
Y10143D01*
X12644Y10142D01*
X12655Y10130D01*
X12659D01*
X12662D01*
X12668Y10128D01*
X12672Y10124D01*
X12674Y10118D01*
Y10115D01*
Y10112D01*
X12674Y10112D01*
X12687Y10100D01*
X12689D01*
X12692D01*
X12698Y10098D01*
X12702Y10093D01*
X12705Y10087D01*
Y10084D01*
Y10083D01*
X12719Y10069D01*
X12720D01*
X12723D01*
X12729Y10067D01*
X12733Y10063D01*
X12735Y10057D01*
Y10054D01*
X12751Y10039D01*
X12753D01*
X12759Y10037D01*
X12763Y10032D01*
X12766Y10026D01*
Y10025D01*
X12783Y10009D01*
X12784D01*
X12789Y10006D01*
X12794Y10002D01*
X12796Y9996D01*
Y9996D01*
X12815Y9978D01*
X12820Y9976D01*
X12824Y9971D01*
X12826Y9967D01*
X12848Y9946D01*
X12850Y9945D01*
X12855Y9941D01*
X12857Y9935D01*
Y9932D01*
X12867Y9917D01*
X12872D01*
X12875D01*
X12881Y9915D01*
X12885Y9910D01*
X12888Y9905D01*
Y9901D01*
Y9899D01*
X12886Y9894D01*
X12884Y9892D01*
X12888Y9887D01*
X12903Y9887D01*
X12906D01*
X12911Y9884D01*
X12916Y9880D01*
X12918Y9874D01*
Y9871D01*
Y9868D01*
X12916Y9863D01*
X12913Y9859D01*
X12909Y9856D01*
X12908Y9856D01*
X12909Y9855D01*
X12909Y9855D01*
X12913Y9852D01*
X12916Y9848D01*
X12918Y9843D01*
Y9841D01*
X12928Y9826D01*
X12933D01*
X12936D01*
X12942Y9823D01*
X12946Y9819D01*
X12949Y9813D01*
Y9810D01*
Y9807D01*
X12947Y9802D01*
X12945Y9800D01*
X12970Y9763D01*
X12972Y9762D01*
X12977Y9758D01*
X12979Y9752D01*
Y9749D01*
X12989Y9734D01*
X12994D01*
X12997D01*
X13003Y9732D01*
X13007Y9727D01*
X13010Y9722D01*
Y9719D01*
Y9716D01*
X13008Y9711D01*
X13006Y9709D01*
X13010Y9704D01*
X13024Y9704D01*
X13028D01*
X13033Y9701D01*
X13038Y9697D01*
X13040Y9691D01*
Y9688D01*
Y9685D01*
X13038Y9680D01*
X13035Y9676D01*
X13031Y9673D01*
X13030Y9673D01*
X13030Y9672D01*
X13031Y9672D01*
X13035Y9669D01*
X13038Y9665D01*
X13040Y9660D01*
Y9658D01*
X13050Y9643D01*
X13055D01*
X13058D01*
X13064Y9640D01*
X13068Y9636D01*
X13071Y9630D01*
Y9627D01*
Y9624D01*
X13069Y9619D01*
X13067Y9617D01*
X13092Y9580D01*
X13094Y9579D01*
X13099Y9575D01*
X13101Y9569D01*
Y9566D01*
X13111Y9551D01*
X13116D01*
X13119D01*
X13125Y9549D01*
X13129Y9545D01*
X13132Y9539D01*
Y9536D01*
Y9533D01*
X13130Y9528D01*
X13128Y9526D01*
X13153Y9489D01*
X13155Y9488D01*
X13160Y9484D01*
X13162Y9478D01*
Y9475D01*
X13188Y9436D01*
X13216Y9366D01*
X13216Y9366D01*
X13221Y9362D01*
X13223Y9356D01*
Y9353D01*
Y9350D01*
X13223Y9349D01*
X13308Y9136D01*
X13336Y9032D01*
X13338Y9031D01*
X13343Y9026D01*
X13345Y9021D01*
Y9018D01*
Y9015D01*
X13343Y9010D01*
X13342Y9009D01*
X13408Y8766D01*
X13438Y8476D01*
Y8302D01*
X13817Y8302D01*
X13820D01*
X13826Y8299D01*
X13830Y8295D01*
X13833Y8289D01*
Y8286D01*
X13848D01*
X13828Y8266D01*
X13831Y8263D01*
X13833Y8258D01*
Y8256D01*
Y8252D01*
X13830Y8247D01*
X13826Y8242D01*
X13820Y8240D01*
X13802D01*
X13798Y8236D01*
X13801Y8232D01*
X13802Y8228D01*
Y8225D01*
Y8222D01*
X13800Y8216D01*
X13795Y8212D01*
X13790Y8209D01*
X13772D01*
X13768Y8205D01*
X13770Y8202D01*
X13772Y8197D01*
Y8195D01*
Y8191D01*
X13769Y8186D01*
X13765Y8181D01*
X13759Y8179D01*
X13742D01*
X13737Y8174D01*
X13740Y8171D01*
X13741Y8167D01*
Y8164D01*
Y8161D01*
X13739Y8155D01*
X13734Y8151D01*
X13729Y8148D01*
X13712D01*
X13707Y8143D01*
X13709Y8141D01*
X13711Y8136D01*
Y8134D01*
Y8130D01*
X13708Y8125D01*
X13704Y8120D01*
X13698Y8118D01*
X13682D01*
X13677Y8113D01*
X13679Y8110D01*
X13680Y8106D01*
Y8103D01*
Y8100D01*
X13678Y8094D01*
X13673Y8090D01*
X13668Y8087D01*
X13652D01*
X13647Y8082D01*
X13648Y8080D01*
X13650Y8075D01*
Y8073D01*
Y8070D01*
X13647Y8064D01*
X13643Y8059D01*
X13637Y8057D01*
X13622D01*
X13616Y8051D01*
X13618Y8049D01*
X13619Y8045D01*
Y8042D01*
Y8039D01*
X13617Y8033D01*
X13612Y8029D01*
X13607Y8027D01*
X13592D01*
X13586Y8021D01*
X13587Y8019D01*
X13589Y8014D01*
Y8012D01*
Y8009D01*
X13586Y8003D01*
X13582Y7998D01*
X13576Y7996D01*
X13561D01*
X13556Y7990D01*
X13557Y7988D01*
X13558Y7984D01*
Y7981D01*
Y7978D01*
X13556Y7972D01*
X13551Y7968D01*
X13546Y7966D01*
X13531D01*
X13525Y7959D01*
X13526Y7958D01*
X13528Y7953D01*
Y7951D01*
Y7948D01*
X13525Y7942D01*
X13521Y7937D01*
X13515Y7935D01*
X13501D01*
X13495Y7929D01*
X13496Y7927D01*
X13497Y7923D01*
Y7920D01*
Y7917D01*
X13495Y7911D01*
X13491Y7907D01*
X13485Y7905D01*
X13471D01*
X13465Y7898D01*
X13465Y7897D01*
X13467Y7892D01*
Y7890D01*
Y7887D01*
X13464Y7881D01*
X13460Y7877D01*
X13454Y7874D01*
X13441D01*
X13434Y7867D01*
X13435Y7866D01*
X13436Y7862D01*
Y7859D01*
Y7856D01*
X13434Y7850D01*
X13430Y7846D01*
X13424Y7844D01*
X13411D01*
X13404Y7837D01*
X13404Y7836D01*
X13406Y7831D01*
Y7829D01*
Y7826D01*
X13403Y7820D01*
X13399Y7816D01*
X13393Y7813D01*
X13381D01*
X13374Y7806D01*
X13374Y7806D01*
X13375Y7801D01*
Y7798D01*
Y7795D01*
X13373Y7789D01*
X13369Y7785D01*
X13363Y7783D01*
X13351D01*
X13343Y7775D01*
X13343Y7775D01*
X13345Y7770D01*
Y7768D01*
Y7765D01*
X13343Y7759D01*
X13338Y7755D01*
X13332Y7752D01*
X13321D01*
X13313Y7745D01*
X13314Y7740D01*
Y7737D01*
Y7734D01*
X13312Y7729D01*
X13308Y7724D01*
X13302Y7722D01*
X13290D01*
X13283Y7714D01*
X13284Y7709D01*
Y7707D01*
Y7704D01*
X13282Y7698D01*
X13277Y7694D01*
X13271Y7691D01*
X13260D01*
X13252Y7683D01*
X13253Y7679D01*
Y7676D01*
Y7673D01*
X13251Y7668D01*
X13247Y7663D01*
X13241Y7661D01*
X13230D01*
X13222Y7652D01*
X13223Y7648D01*
Y7646D01*
Y7643D01*
X13221Y7637D01*
X13216Y7633D01*
X13210Y7630D01*
X13200D01*
X13191Y7622D01*
X13193Y7618D01*
Y7615D01*
Y7612D01*
X13190Y7607D01*
X13186Y7602D01*
X13180Y7600D01*
X13170D01*
X13161Y7591D01*
X13162Y7587D01*
Y7585D01*
Y7582D01*
X13160Y7576D01*
X13155Y7572D01*
X13150Y7569D01*
X13140D01*
X13131Y7560D01*
X13132Y7557D01*
Y7554D01*
Y7551D01*
X13129Y7546D01*
X13125Y7541D01*
X13119Y7539D01*
X13110D01*
X13100Y7529D01*
X13101Y7526D01*
Y7524D01*
Y7521D01*
X13099Y7515D01*
X13094Y7511D01*
X13089Y7508D01*
X13080D01*
X13070Y7498D01*
X13071Y7496D01*
Y7494D01*
Y7490D01*
X13068Y7485D01*
X13064Y7480D01*
X13058Y7478D01*
X13049D01*
X13039Y7468D01*
X13040Y7466D01*
Y7463D01*
Y7460D01*
X13038Y7454D01*
X13033Y7450D01*
X13028Y7447D01*
X13019D01*
X13008Y7436D01*
X12996Y7447D01*
X12988D01*
X12979Y7455D01*
X12978Y7465D01*
X12964Y7478D01*
X12958D01*
X12949Y7485D01*
X12948Y7494D01*
X12933Y7508D01*
X12927D01*
X12919Y7516D01*
X12917Y7523D01*
X12901Y7539D01*
X12897D01*
X12888Y7546D01*
X12887Y7552D01*
X12869Y7569D01*
X12866D01*
X12858Y7577D01*
X12857Y7582D01*
X12838Y7600D01*
X12836D01*
X12827Y7607D01*
X12827Y7611D01*
X12806Y7630D01*
X12805D01*
X12797Y7638D01*
X12796Y7640D01*
X12771Y7664D01*
X12766Y7668D01*
X12766Y7669D01*
X12394Y8027D01*
X12379D01*
X12370Y8034D01*
X12368Y8045D01*
X12371Y8050D01*
X12363Y8057D01*
X12348D01*
X12339Y8065D01*
X12338Y8076D01*
X12340Y8079D01*
X12331Y8087D01*
X12318D01*
X12309Y8095D01*
X12307Y8106D01*
X12309Y8109D01*
X12300Y8118D01*
X12287D01*
X12278Y8125D01*
X12277Y8137D01*
X12278Y8139D01*
X12268Y8148D01*
X12257D01*
X12248Y8156D01*
X12246Y8167D01*
X12247Y8169D01*
X12236Y8179D01*
X12226D01*
X12217Y8187D01*
X12216Y8198D01*
X12173Y8240D01*
X12165D01*
X12157Y8247D01*
X12155Y8257D01*
X12141Y8270D01*
X12134D01*
X12125Y8280D01*
Y8292D01*
X12134Y8302D01*
X12556D01*
X12557Y8304D01*
X12551Y8312D01*
X12552Y8322D01*
X12555Y8326D01*
X12553Y8340D01*
X12552Y8341D01*
Y8348D01*
X12531Y8484D01*
X12531D01*
X12522Y8492D01*
X12521Y8504D01*
X12527Y8512D01*
X12525Y8520D01*
X12521Y8524D01*
Y8535D01*
X12439Y8880D01*
X12439D01*
X12431Y8888D01*
X12429Y8900D01*
X12430Y8901D01*
X12228Y9306D01*
X12227Y9307D01*
X12226D01*
X12217Y9315D01*
X12217Y9318D01*
X11948Y9606D01*
X11743Y9764D01*
X11739D01*
X11730Y9771D01*
X11729Y9774D01*
X11688Y9806D01*
X11258Y9966D01*
X10828Y10026D01*
X10438Y9986D01*
X10144Y9896D01*
X10142Y9893D01*
X10138Y9888D01*
X10132Y9886D01*
X10110D01*
X10082Y9877D01*
X10084Y9873D01*
Y9871D01*
Y9868D01*
X10081Y9862D01*
X10077Y9858D01*
X10071Y9855D01*
X10048D01*
X10023Y9838D01*
Y9837D01*
X10020Y9832D01*
X10016Y9827D01*
X10010Y9825D01*
X10003D01*
X9798Y9686D01*
X9535Y9442D01*
Y9441D01*
X9533Y9435D01*
X9528Y9431D01*
X9522Y9429D01*
X9521D01*
X9518Y9426D01*
X9229Y8933D01*
X9230Y8929D01*
Y8926D01*
Y8923D01*
X9228Y8917D01*
X9223Y8913D01*
X9218Y8910D01*
X9216D01*
X9178Y8846D01*
X9109Y8910D01*
X9087D01*
X9078Y8918D01*
X9076Y8929D01*
X9081Y8937D01*
X9077Y8941D01*
X9056D01*
X9048Y8948D01*
X9046Y8960D01*
X9050Y8966D01*
X9044Y8971D01*
X9026D01*
X9017Y8979D01*
X9015Y8991D01*
X9019Y8996D01*
X8979Y9032D01*
X8965D01*
X8956Y9040D01*
X8954Y9051D01*
X8956Y9054D01*
X8947Y9063D01*
X8934D01*
X8926Y9070D01*
X8924Y9082D01*
X8925Y9084D01*
X8915Y9093D01*
X8904D01*
X8895Y9101D01*
X8893Y9112D01*
X8894Y9113D01*
X8882Y9124D01*
X8873D01*
X8865Y9131D01*
X8863Y9142D01*
X8850Y9154D01*
X8843D01*
X8834Y9162D01*
X8833Y9170D01*
X8817Y9185D01*
X8812D01*
X8804Y9192D01*
X8803Y9198D01*
X8785Y9215D01*
X8782D01*
X8773Y9223D01*
X8773Y9227D01*
X8752Y9246D01*
X8752D01*
X8743Y9253D01*
X8743Y9255D01*
X8688Y9306D01*
X8589Y9226D01*
X8588Y9222D01*
X8583Y9218D01*
X8578Y9215D01*
X8576D01*
X8560Y9202D01*
Y9200D01*
Y9197D01*
X8557Y9192D01*
X8553Y9187D01*
X8547Y9185D01*
X8538D01*
X8528Y9176D01*
X8529Y9172D01*
Y9170D01*
Y9167D01*
X8527Y9161D01*
X8522Y9157D01*
X8517Y9154D01*
X8501D01*
X8495Y9149D01*
X8497Y9147D01*
X8499Y9142D01*
Y9139D01*
Y9136D01*
X8496Y9131D01*
X8492Y9126D01*
X8486Y9124D01*
X8463D01*
X8461Y9122D01*
X8464Y9120D01*
X8467Y9116D01*
X8468Y9111D01*
Y9109D01*
Y9106D01*
X8466Y9100D01*
X8461Y9096D01*
X8456Y9093D01*
X8427D01*
X8429Y9093D01*
X8433Y9090D01*
X8436Y9086D01*
X8438Y9081D01*
Y9078D01*
Y9075D01*
X8435Y9070D01*
X8431Y9065D01*
X8425Y9063D01*
X8396D01*
X8399Y9062D01*
X8403Y9059D01*
X8406Y9055D01*
X8407Y9050D01*
Y9048D01*
Y9045D01*
X8405Y9039D01*
X8400Y9035D01*
X8395Y9032D01*
X8355D01*
X8353Y9034D01*
X8318Y9006D01*
X8345Y9081D01*
Y9084D01*
X8348Y9087D01*
X8351Y9096D01*
X8345Y9105D01*
X8346Y9117D01*
X8355Y9125D01*
X8361D01*
X8376Y9165D01*
X8375Y9166D01*
X8377Y9178D01*
X8383Y9183D01*
X8409Y9253D01*
X8406Y9257D01*
X8407Y9269D01*
X8416Y9277D01*
X8417D01*
X8428Y9306D01*
X8437Y9325D01*
X8438Y9330D01*
X8441Y9333D01*
X8467Y9388D01*
Y9389D01*
X8468Y9390D01*
X8473Y9400D01*
X8467Y9410D01*
X8468Y9421D01*
X8477Y9429D01*
X8487D01*
X8503Y9462D01*
X8497Y9471D01*
X8499Y9482D01*
X8507Y9490D01*
X8516D01*
X8548Y9556D01*
X8590Y9621D01*
X8589Y9623D01*
X8590Y9635D01*
X8599Y9643D01*
X8604D01*
X8650Y9714D01*
X8650Y9714D01*
X8651Y9726D01*
X8660Y9734D01*
X8663D01*
X8711Y9809D01*
X8712Y9818D01*
X8721Y9826D01*
X8722D01*
X8748Y9866D01*
X8802Y9928D01*
X8802Y9928D01*
X8803Y9940D01*
X8812Y9948D01*
X8820D01*
X8833Y9963D01*
X8834Y9971D01*
X8843Y9978D01*
X8847D01*
X8864Y9998D01*
X8865Y10001D01*
X8873Y10008D01*
X8968Y10116D01*
X9198Y10346D01*
X9322Y10426D01*
X9322Y10428D01*
X9331Y10435D01*
X9336D01*
X9568Y10586D01*
X9627Y10611D01*
X9635Y10618D01*
X9644D01*
X9687Y10636D01*
X9688Y10641D01*
X9696Y10649D01*
X9716D01*
X9747Y10662D01*
X9749Y10672D01*
X9757Y10679D01*
X9788D01*
X9840Y10701D01*
X9840Y10702D01*
X9849Y10710D01*
X9860D01*
X9900Y10726D01*
X9901Y10733D01*
X9910Y10740D01*
X9932D01*
X9998Y10768D01*
X10001Y10771D01*
X10004D01*
X10088Y10806D01*
X10211Y10828D01*
X10215Y10831D01*
X10229D01*
X10358Y10855D01*
X10367Y10862D01*
X10399D01*
X10588Y10896D01*
X11128D01*
X11428Y10836D01*
D02*
G37*
G36*
X21339Y6740D02*
X21081D01*
X20996Y6826D01*
Y7169D01*
X20738D01*
Y6826D01*
X20652Y6740D01*
X20395D01*
Y7942D01*
X20652D01*
X20738Y7856D01*
Y7341D01*
X20996D01*
Y7856D01*
X21081Y7942D01*
X21339D01*
Y6740D01*
D02*
G37*
G36*
X19330Y7916D02*
X19364Y7856D01*
Y7787D01*
X19330Y7676D01*
X19192Y7512D01*
X19167Y7470D01*
X19150Y7384D01*
Y7324D01*
X19192Y7255D01*
X19296Y7186D01*
X19364Y7083D01*
Y6997D01*
X19321Y6868D01*
X19253Y6791D01*
X19150Y6740D01*
X18248D01*
Y7942D01*
X18591D01*
Y7341D01*
X18849D01*
X18935Y7427D01*
Y7942D01*
X19278D01*
X19330Y7916D01*
D02*
G37*
G36*
X10508Y7266D02*
X10198D01*
X10188Y7276D01*
X10138Y7336D01*
X10078Y7386D01*
X10028Y7426D01*
X9968Y7466D01*
X9848Y7526D01*
X9778Y7556D01*
X9698Y7586D01*
X9668Y7596D01*
X9628Y7606D01*
X9608Y7616D01*
Y7856D01*
X9778Y7866D01*
X9868Y7876D01*
X9898Y7886D01*
X9928Y7906D01*
X9948Y7926D01*
X9958Y7946D01*
X9968Y7976D01*
Y9406D01*
X10508D01*
Y7266D01*
D02*
G37*
G36*
X11422Y9401D02*
X11487Y9391D01*
X11552Y9376D01*
X11632Y9346D01*
X11727Y9296D01*
X11797Y9241D01*
X11837Y9196D01*
X11867Y9151D01*
X11892Y9101D01*
X11912Y9051D01*
X11927Y8986D01*
X11932Y8956D01*
X11937Y8926D01*
X11942Y8856D01*
X11947Y8751D01*
Y8656D01*
Y8386D01*
X11948D01*
Y8006D01*
Y7911D01*
X11943Y7806D01*
X11938Y7736D01*
X11933Y7706D01*
X11928Y7676D01*
X11913Y7611D01*
X11893Y7561D01*
X11868Y7511D01*
X11838Y7466D01*
X11798Y7421D01*
X11728Y7366D01*
X11633Y7316D01*
X11553Y7286D01*
X11488Y7271D01*
X11423Y7261D01*
X11383Y7256D01*
X11258D01*
X11218Y7261D01*
X11163Y7271D01*
X11123Y7281D01*
X11063Y7301D01*
X11003Y7326D01*
X10958Y7351D01*
X10923Y7376D01*
X10878Y7416D01*
X10848Y7446D01*
X10823Y7481D01*
X10793Y7531D01*
X10778Y7566D01*
X10768Y7596D01*
X10758Y7641D01*
X10748Y7701D01*
X10738Y7776D01*
X10733Y7866D01*
X10728Y7946D01*
Y8276D01*
X10727D01*
Y8716D01*
X10732Y8796D01*
X10737Y8886D01*
X10747Y8961D01*
X10757Y9021D01*
X10767Y9066D01*
X10777Y9096D01*
X10792Y9131D01*
X10822Y9181D01*
X10847Y9216D01*
X10877Y9246D01*
X10922Y9286D01*
X10957Y9311D01*
X11002Y9336D01*
X11062Y9361D01*
X11122Y9381D01*
X11162Y9391D01*
X11217Y9401D01*
X11257Y9406D01*
X11382D01*
X11422Y9401D01*
D02*
G37*
G36*
X22447Y7882D02*
X22541Y7770D01*
Y7341D01*
X22481Y7229D01*
X22369Y7169D01*
X21854D01*
X21768Y7083D01*
Y6997D01*
X21854Y6911D01*
X22541D01*
Y6826D01*
X22455Y6740D01*
X21683D01*
X21511Y6826D01*
X21425Y6997D01*
Y7169D01*
X21597Y7341D01*
X22112D01*
X22198Y7427D01*
Y7684D01*
X22112Y7770D01*
X21425D01*
Y7856D01*
X21511Y7942D01*
X22284D01*
X22447Y7882D01*
D02*
G37*
G36*
X9538Y8316D02*
X9108D01*
X9118Y8076D01*
X9208Y7716D01*
X9388Y7346D01*
X9578Y7116D01*
X9778Y6926D01*
X9988Y6786D01*
X10248Y6676D01*
X10608Y6586D01*
X10878Y6566D01*
X11278Y6626D01*
X11518Y6726D01*
X11788Y6876D01*
X12008Y7046D01*
X12158Y7236D01*
X12298Y7436D01*
X12418Y7636D01*
X12478Y7786D01*
X13008Y7286D01*
X13298Y7556D01*
X13208Y7256D01*
X12948Y6776D01*
X12648Y6436D01*
X12298Y6136D01*
X11988Y5946D01*
X11588Y5806D01*
X11118Y5706D01*
X10578D01*
X10188Y5766D01*
X9658Y5966D01*
X9278Y6196D01*
X8858Y6606D01*
X8598Y6936D01*
X8428Y7286D01*
X8328Y7546D01*
X8258Y7826D01*
X8238Y8026D01*
Y8316D01*
X7858D01*
X8688Y9156D01*
X9538Y8316D01*
D02*
G37*
G36*
X27935Y8555D02*
X28013Y9617D01*
X28131Y9696D01*
Y9972D01*
X28564D01*
Y9696D01*
X30121D01*
X30154Y9753D01*
X30278Y9877D01*
X30431Y9965D01*
X30601Y10011D01*
X30777D01*
X30947Y9965D01*
X31100Y9877D01*
X31224Y9753D01*
X31313Y9600D01*
X31358Y9430D01*
Y9288D01*
X32735Y10719D01*
X32893Y10562D01*
X30886Y8476D01*
X31122Y5564D01*
X31634D01*
Y4777D01*
X33326Y3085D01*
Y2810D01*
X31358Y4777D01*
X31201D01*
X31234Y4477D01*
X31295Y4502D01*
X31421D01*
X31536Y4454D01*
X31625Y4365D01*
X31673Y4250D01*
Y4125D01*
X31625Y4009D01*
X31536Y3920D01*
X31421Y3872D01*
X31295D01*
X31180Y3920D01*
X31116Y3984D01*
X31022Y3890D01*
X30785Y3734D01*
X30521Y3632D01*
X30240Y3589D01*
X30099Y3597D01*
X30099Y3479D01*
X28958D01*
Y3556D01*
X28856Y3562D01*
X28737Y3582D01*
X28620Y3614D01*
X28564Y3636D01*
X28013D01*
Y3754D01*
X27930Y3780D01*
X27780Y3869D01*
X27656Y3993D01*
X27566Y4143D01*
X27541Y4227D01*
X27266D01*
Y4423D01*
X27581D01*
X27659Y5171D01*
X25456Y2810D01*
Y3125D01*
X27699Y5486D01*
X27895Y8280D01*
X27777Y8398D01*
X25534Y10640D01*
X25692Y10798D01*
X27935Y8555D01*
D02*
G37*
G36*
X31658Y23739D02*
X9594D01*
Y26001D01*
X31658D01*
Y23739D01*
D02*
G37*
%LPC*%
G36*
X27497Y20219D02*
X27405Y20214D01*
X27388Y20210D01*
X27380Y20202D01*
X27363Y20198D01*
X27326Y20181D01*
X27309Y20164D01*
X27301Y20160D01*
X27278Y20137D01*
X27274Y20129D01*
X27259Y20114D01*
X27249Y20087D01*
X27240Y20079D01*
X27232Y20046D01*
X27222Y20010D01*
X27215Y19975D01*
X27222Y19956D01*
X27330Y19952D01*
X27336Y19958D01*
X27340Y20000D01*
X27349Y20021D01*
X27355Y20035D01*
X27361Y20062D01*
X27378Y20079D01*
X27382Y20087D01*
X27388Y20089D01*
X27409Y20110D01*
X27451Y20127D01*
X27484Y20131D01*
X27513Y20127D01*
X27559Y20106D01*
X27567Y20102D01*
X27584Y20085D01*
X27605Y20052D01*
X27613Y20031D01*
X27617Y20010D01*
X27624Y19941D01*
X27619Y19929D01*
X27615Y19879D01*
X27611Y19862D01*
X27601Y19852D01*
X27590Y19825D01*
X27580Y19819D01*
X27572Y19814D01*
X27559Y19802D01*
X27522Y19781D01*
X27472Y19777D01*
X27459Y19773D01*
X27451Y19777D01*
X27424Y19775D01*
X27407Y19771D01*
X27403Y19733D01*
X27399Y19716D01*
X27403Y19700D01*
X27413Y19689D01*
X27459Y19685D01*
X27472Y19681D01*
X27505Y19677D01*
X27522Y19673D01*
X27534Y19660D01*
X27542Y19656D01*
X27553Y19646D01*
X27557Y19637D01*
X27569Y19625D01*
X27574Y19617D01*
X27590Y19579D01*
X27594Y19512D01*
X27590Y19471D01*
X27578Y19441D01*
X27574Y19425D01*
X27567Y19419D01*
X27559Y19414D01*
X27557Y19408D01*
X27530Y19389D01*
X27513Y19385D01*
X27490Y19379D01*
X27488Y19377D01*
X27442Y19381D01*
X27405Y19398D01*
X27386Y19417D01*
X27374Y19437D01*
X27361Y19466D01*
X27357Y19517D01*
X27353Y19546D01*
X27347Y19552D01*
X27242Y19556D01*
X27236Y19550D01*
X27238Y19506D01*
X27242Y19473D01*
X27251Y19439D01*
X27257Y19412D01*
X27265Y19404D01*
X27282Y19375D01*
X27292Y19360D01*
X27301Y19356D01*
X27322Y19335D01*
X27330Y19331D01*
X27340Y19321D01*
X27361Y19312D01*
X27394Y19300D01*
X27411Y19296D01*
X27465Y19292D01*
X27547Y19294D01*
X27574Y19304D01*
X27607Y19316D01*
X27630Y19335D01*
X27638Y19339D01*
X27642Y19348D01*
X27651Y19352D01*
X27657Y19358D01*
X27661Y19367D01*
X27676Y19381D01*
X27682Y19404D01*
X27694Y19417D01*
X27699Y19441D01*
X27703Y19454D01*
X27707Y19483D01*
X27713Y19506D01*
X27711Y19566D01*
X27703Y19587D01*
X27699Y19604D01*
X27690Y19625D01*
X27672Y19660D01*
X27663Y19664D01*
X27661Y19671D01*
X27655Y19677D01*
X27647Y19681D01*
X27644Y19687D01*
X27592Y19714D01*
X27582Y19725D01*
X27588Y19731D01*
X27609Y19735D01*
X27647Y19752D01*
X27663Y19769D01*
X27672Y19773D01*
X27694Y19796D01*
X27699Y19808D01*
X27711Y19821D01*
X27715Y19829D01*
X27732Y19867D01*
X27736Y19983D01*
X27732Y20025D01*
X27724Y20046D01*
X27719Y20062D01*
X27694Y20117D01*
X27682Y20129D01*
X27678Y20137D01*
X27647Y20169D01*
X27638Y20173D01*
X27609Y20194D01*
X27597Y20198D01*
X27559Y20214D01*
X27497Y20219D01*
D02*
G37*
G36*
X26959Y20206D02*
X26936Y20200D01*
X26930Y20185D01*
X26932Y19725D01*
X26928Y19712D01*
X26932Y19525D01*
X26926Y19519D01*
X26924Y19521D01*
X26915Y19554D01*
X26905Y19581D01*
X26901Y19598D01*
X26894Y19642D01*
X26888Y19664D01*
X26880Y19698D01*
X26872Y19748D01*
X26863Y19769D01*
X26859Y19789D01*
X26853Y19829D01*
X26844Y19850D01*
X26840Y19862D01*
X26836Y19904D01*
X26832Y19921D01*
X26826Y19939D01*
X26822Y19956D01*
X26815Y20000D01*
X26805Y20027D01*
X26799Y20050D01*
X26794Y20091D01*
X26784Y20127D01*
X26780Y20144D01*
X26774Y20187D01*
X26765Y20196D01*
X26744Y20204D01*
X26626Y20202D01*
X26619Y20196D01*
X26615Y20175D01*
X26607Y20146D01*
X26599Y20125D01*
X26594Y20091D01*
X26590Y20075D01*
X26582Y20054D01*
X26576Y20014D01*
X26572Y19977D01*
X26561Y19950D01*
X26557Y19937D01*
X26553Y19900D01*
X26542Y19873D01*
X26538Y19856D01*
X26530Y19802D01*
X26522Y19781D01*
X26511Y19712D01*
X26499Y19683D01*
X26492Y19644D01*
X26488Y19627D01*
X26478Y19566D01*
X26474Y19537D01*
X26467Y19519D01*
X26461Y19525D01*
X26457Y20196D01*
X26438Y20206D01*
X26426Y20202D01*
X26319Y20204D01*
X26292Y20202D01*
X26286Y20196D01*
X26282Y19308D01*
X26286Y19292D01*
X26292Y19285D01*
X26542Y19281D01*
X26559Y19285D01*
X26569Y19304D01*
X26574Y19316D01*
X26578Y19358D01*
X26584Y19381D01*
X26590Y19408D01*
X26594Y19421D01*
X26599Y19462D01*
X26605Y19485D01*
X26609Y19502D01*
X26613Y19523D01*
X26619Y19562D01*
X26628Y19583D01*
Y19587D01*
Y19596D01*
X26632Y19608D01*
X26636Y19646D01*
X26640Y19662D01*
X26644Y19675D01*
X26649Y19700D01*
X26653Y19712D01*
X26657Y19750D01*
X26661Y19767D01*
X26665Y19779D01*
X26669Y19804D01*
X26674Y19816D01*
X26678Y19862D01*
X26686Y19883D01*
X26692Y19885D01*
X26705Y19873D01*
X26709Y19856D01*
X26713Y19835D01*
X26719Y19787D01*
X26726Y19769D01*
X26730Y19752D01*
X26740Y19691D01*
X26749Y19658D01*
X26753Y19646D01*
X26757Y19608D01*
X26761Y19591D01*
X26765Y19579D01*
X26778Y19508D01*
X26782Y19492D01*
X26788Y19469D01*
X26792Y19448D01*
X26797Y19414D01*
X26801Y19398D01*
X26807Y19375D01*
X26811Y19362D01*
X26815Y19321D01*
X26824Y19292D01*
X26830Y19285D01*
X27088Y19281D01*
X27103Y19300D01*
X27101Y20194D01*
X27086Y20204D01*
X26976Y20202D01*
X26959Y20206D01*
D02*
G37*
G36*
X25838D02*
X25819Y20200D01*
X25815Y19654D01*
Y19650D01*
Y19446D01*
X25803Y19437D01*
X25626Y19439D01*
X25619Y19433D01*
X25615Y19292D01*
X25622Y19285D01*
X26188Y19281D01*
X26199Y19292D01*
X26203Y19429D01*
X26197Y19435D01*
X26017Y19439D01*
X26005Y19444D01*
X26001Y20194D01*
X25986Y20204D01*
X25855Y20202D01*
X25838Y20206D01*
D02*
G37*
G36*
X28319Y20204D02*
X27847Y20202D01*
X27838Y20189D01*
X27840Y20150D01*
X27847Y20127D01*
X27857Y20079D01*
X27872Y20052D01*
X27878Y20025D01*
X27888Y20014D01*
X27894Y19992D01*
X27915Y19962D01*
X27919Y19954D01*
X27932Y19941D01*
X27936Y19933D01*
X27942Y19927D01*
X27959Y19902D01*
X27967Y19898D01*
X27974Y19892D01*
X27978Y19883D01*
X27990Y19875D01*
X28001Y19860D01*
X28009Y19856D01*
X28015Y19850D01*
X28019Y19841D01*
X28026Y19839D01*
X28047Y19819D01*
X28055Y19814D01*
X28074Y19796D01*
X28097Y19777D01*
X28105Y19773D01*
X28142Y19735D01*
X28151Y19731D01*
X28157Y19721D01*
X28186Y19683D01*
X28213Y19635D01*
X28219Y19608D01*
X28224Y19596D01*
X28228Y19533D01*
X28224Y19517D01*
X28219Y19504D01*
X28215Y19475D01*
X28207Y19454D01*
X28199Y19446D01*
X28194Y19437D01*
X28176Y19419D01*
X28167Y19414D01*
X28153Y19400D01*
X28128Y19396D01*
X28107Y19392D01*
X28080Y19394D01*
X28051Y19398D01*
X28030Y19406D01*
X28022Y19410D01*
X28013Y19419D01*
X28005Y19423D01*
X27999Y19433D01*
X27994Y19441D01*
X27982Y19454D01*
X27978Y19475D01*
X27961Y19512D01*
X27957Y19562D01*
X27951Y19581D01*
X27863Y19585D01*
X27847Y19581D01*
X27840Y19575D01*
X27836Y19546D01*
X27838Y19544D01*
X27840Y19525D01*
X27844Y19508D01*
X27849Y19496D01*
X27853Y19462D01*
X27869Y19425D01*
X27874Y19408D01*
X27894Y19379D01*
X27899Y19371D01*
X27915Y19354D01*
X27938Y19335D01*
X27984Y19310D01*
X28013Y19298D01*
X28134Y19294D01*
X28176Y19298D01*
X28213Y19314D01*
X28234Y19323D01*
X28255Y19335D01*
X28290Y19371D01*
X28303Y19392D01*
X28315Y19404D01*
X28319Y19421D01*
X28334Y19448D01*
X28340Y19496D01*
X28344Y19508D01*
X28342Y19552D01*
X28336Y19629D01*
X28332Y19646D01*
X28324Y19654D01*
X28315Y19675D01*
X28299Y19712D01*
X28294Y19721D01*
X28278Y19737D01*
X28274Y19746D01*
X28265Y19754D01*
X28261Y19762D01*
X28199Y19825D01*
X28176Y19844D01*
X28161Y19854D01*
X28151Y19869D01*
X28142Y19873D01*
X28126Y19889D01*
X28117Y19894D01*
X28084Y19927D01*
X28063Y19939D01*
X28061Y19946D01*
X28040Y19966D01*
X28036Y19975D01*
X28011Y20000D01*
X27982Y20037D01*
X27978Y20054D01*
X27961Y20079D01*
X27965Y20096D01*
X28322Y20098D01*
X28338Y20102D01*
X28347Y20110D01*
X28353Y20191D01*
X28344Y20200D01*
X28319Y20204D01*
D02*
G37*
G36*
X25267Y20223D02*
X25169Y20216D01*
X25138Y20210D01*
X25117Y20202D01*
X25101Y20198D01*
X25055Y20177D01*
X25042Y20164D01*
X25028Y20154D01*
X25015Y20133D01*
X24999Y20117D01*
X24990Y20096D01*
X24978Y20083D01*
X24974Y20046D01*
X24961Y20017D01*
X24957Y19925D01*
X24963Y19919D01*
X25130Y19914D01*
X25151Y19923D01*
X25157Y20008D01*
X25180Y20052D01*
X25188Y20056D01*
X25203Y20071D01*
X25219Y20075D01*
X25284Y20081D01*
X25301Y20077D01*
X25330Y20069D01*
X25353Y20046D01*
X25357Y20037D01*
X25369Y20025D01*
X25374Y19992D01*
X25378Y19979D01*
X25374Y19933D01*
X25369Y19917D01*
X25363Y19914D01*
X25353Y19892D01*
X25347Y19885D01*
X25326Y19873D01*
X25313Y19860D01*
X25301Y19856D01*
X25280Y19844D01*
X25272Y19839D01*
X25255Y19835D01*
X25232Y19825D01*
X25209Y19819D01*
X25188Y19810D01*
X25182Y19804D01*
X25159Y19798D01*
X25138Y19789D01*
X25132Y19783D01*
X25130Y19781D01*
X25101Y19769D01*
X25080Y19756D01*
X25072Y19748D01*
X25051Y19735D01*
X25036Y19716D01*
X25032Y19708D01*
X25019Y19696D01*
X24994Y19654D01*
X24982Y19612D01*
X24978Y19600D01*
X24974Y19554D01*
X24978Y19475D01*
X24990Y19446D01*
X24994Y19421D01*
X25007Y19400D01*
X25011Y19392D01*
X25019Y19371D01*
X25063Y19327D01*
X25084Y19314D01*
X25097Y19302D01*
X25117Y19294D01*
X25147Y19281D01*
X25167Y19277D01*
X25180Y19273D01*
X25251Y19269D01*
X25263Y19264D01*
X25265Y19267D01*
X25290Y19271D01*
X25367Y19277D01*
X25397Y19289D01*
X25409Y19294D01*
X25430Y19302D01*
X25459Y19319D01*
X25488Y19348D01*
X25507Y19371D01*
X25536Y19425D01*
X25540Y19475D01*
X25544Y19487D01*
X25549Y19529D01*
X25538Y19539D01*
X25401Y19544D01*
X25372Y19539D01*
X25365Y19533D01*
X25361Y19521D01*
X25353Y19462D01*
X25344Y19454D01*
X25340Y19446D01*
X25315Y19421D01*
X25292Y19414D01*
X25276Y19410D01*
X25234Y19414D01*
X25205Y19423D01*
X25197Y19431D01*
X25188Y19435D01*
X25182Y19441D01*
X25178Y19450D01*
X25169Y19471D01*
X25161Y19525D01*
X25167Y19544D01*
X25182Y19583D01*
X25188Y19589D01*
X25197Y19594D01*
X25209Y19606D01*
X25288Y19648D01*
X25309Y19656D01*
X25347Y19673D01*
X25376Y19681D01*
X25382Y19687D01*
X25422Y19702D01*
X25430Y19710D01*
X25447Y19714D01*
X25455Y19723D01*
X25484Y19739D01*
X25497Y19752D01*
X25505Y19756D01*
X25528Y19779D01*
X25540Y19800D01*
X25557Y19837D01*
X25565Y19858D01*
X25572Y19894D01*
X25576Y19935D01*
X25574Y20000D01*
X25563Y20027D01*
X25557Y20054D01*
X25544Y20083D01*
X25540Y20091D01*
X25524Y20117D01*
X25519Y20125D01*
X25499Y20146D01*
X25476Y20164D01*
X25438Y20185D01*
X25424Y20196D01*
X25399Y20200D01*
X25372Y20210D01*
X25359Y20214D01*
X25280Y20219D01*
X25267Y20223D01*
D02*
G37*
G36*
X11342Y9091D02*
X11322D01*
X11297Y9081D01*
X11272Y9061D01*
X11262Y9041D01*
X11257Y9021D01*
X11252Y8991D01*
X11247Y8951D01*
Y8386D01*
X11248D01*
Y7711D01*
X11253Y7671D01*
X11258Y7641D01*
X11263Y7621D01*
X11273Y7601D01*
X11298Y7581D01*
X11323Y7571D01*
X11343D01*
X11363Y7576D01*
X11378Y7581D01*
X11393Y7591D01*
X11413Y7616D01*
X11418Y7641D01*
X11423Y7671D01*
X11428Y7721D01*
X11433Y7771D01*
Y8276D01*
X11432D01*
Y8891D01*
X11427Y8941D01*
X11422Y8991D01*
X11417Y9021D01*
X11412Y9046D01*
X11392Y9071D01*
X11377Y9081D01*
X11362Y9086D01*
X11342Y9091D01*
D02*
G37*
G36*
X28289Y9499D02*
X28174Y8313D01*
X29311Y7161D01*
X30645Y8547D01*
X30624Y8673D01*
X30601D01*
X30431Y8719D01*
X30278Y8807D01*
X30154Y8931D01*
X30066Y9084D01*
X30020Y9254D01*
Y9430D01*
X30032Y9475D01*
X30020Y9460D01*
X28289D01*
Y9499D01*
D02*
G37*
G36*
X28144Y7991D02*
X27936Y5732D01*
X29146Y6990D01*
X28144Y7991D01*
D02*
G37*
G36*
X30654Y8235D02*
X29468Y7002D01*
X30909Y5542D01*
X30654Y8235D01*
D02*
G37*
G36*
X31437Y5368D02*
X31122D01*
Y5289D01*
X31437Y4974D01*
Y5368D01*
D02*
G37*
G36*
X29304Y6832D02*
X27895Y5368D01*
X27817Y4423D01*
X30925D01*
Y4581D01*
X30969D01*
X30925Y4777D01*
X30847D01*
Y5289D01*
X30374Y5761D01*
Y5564D01*
X28958D01*
Y6037D01*
X30099D01*
X29304Y6832D01*
D02*
G37*
G36*
X28013Y4227D02*
X27777D01*
Y4227D01*
X27794Y4190D01*
X27840Y4124D01*
X27902Y4073D01*
X27974Y4039D01*
X28013Y4030D01*
Y4227D01*
D02*
G37*
G36*
X30925D02*
X28407D01*
Y3872D01*
X28469Y3853D01*
X28595Y3823D01*
X28724Y3803D01*
X28853Y3794D01*
X28918Y3794D01*
X28958D01*
Y3990D01*
X30099D01*
Y3833D01*
X30099D01*
X30213Y3832D01*
X30438Y3867D01*
X30650Y3948D01*
X30841Y4072D01*
X30925Y4148D01*
Y4227D01*
D02*
G37*
G36*
X16189Y25671D02*
X15913D01*
D01*
X16189D01*
D02*
G37*
G36*
X28991Y25701D02*
X28366D01*
X28977D01*
X28963Y25698D01*
X28943D01*
X28917Y25696D01*
X28889Y25691D01*
X28857Y25687D01*
X28825Y25678D01*
X28788Y25668D01*
X28750Y25657D01*
X28711Y25643D01*
X28674Y25627D01*
X28635Y25606D01*
X28598Y25583D01*
X28563Y25555D01*
X28531Y25525D01*
X28528Y25523D01*
X28524Y25516D01*
X28514Y25506D01*
X28505Y25492D01*
X28494Y25474D01*
X28480Y25451D01*
X28464Y25423D01*
X28450Y25393D01*
X28433Y25358D01*
X28417Y25321D01*
X28403Y25277D01*
X28392Y25231D01*
X28383Y25182D01*
X28373Y25127D01*
X28369Y25071D01*
X28366Y25009D01*
Y24039D01*
Y24981D01*
X28369Y24963D01*
Y24939D01*
X28373Y24909D01*
X28376Y24879D01*
X28380Y24845D01*
X28385Y24808D01*
X28394Y24766D01*
X28413Y24683D01*
X28440Y24595D01*
X28457Y24553D01*
X28475Y24509D01*
X28477Y24507D01*
X28480Y24500D01*
X28487Y24488D01*
X28496Y24472D01*
X28508Y24454D01*
X28521Y24430D01*
X28538Y24407D01*
X28556Y24379D01*
X28600Y24324D01*
X28651Y24266D01*
X28713Y24211D01*
X28748Y24185D01*
X28783Y24162D01*
X28785Y24160D01*
X28792Y24157D01*
X28804Y24150D01*
X28818Y24143D01*
X28836Y24134D01*
X28857Y24123D01*
X28882Y24111D01*
X28910Y24099D01*
X28940Y24090D01*
X28975Y24079D01*
X29047Y24058D01*
X29125Y24044D01*
X29167Y24042D01*
X29211Y24039D01*
X29236D01*
X29822D01*
X29236D01*
X29255Y24042D01*
X29276Y24044D01*
X29301Y24046D01*
X29331Y24051D01*
X29361Y24058D01*
X29428Y24074D01*
X29463Y24086D01*
X29498Y24099D01*
X29535Y24116D01*
X29567Y24134D01*
X29602Y24155D01*
X29632Y24180D01*
X29634Y24183D01*
X29639Y24187D01*
X29646Y24194D01*
X29658Y24206D01*
X29669Y24220D01*
X29685Y24236D01*
X29699Y24257D01*
X29715Y24280D01*
X29732Y24305D01*
X29748Y24333D01*
X29764Y24366D01*
X29780Y24398D01*
X29794Y24435D01*
X29806Y24474D01*
X29815Y24516D01*
X29822Y24560D01*
X29507Y24590D01*
Y24588D01*
X29505Y24583D01*
Y24576D01*
X29503Y24567D01*
X29496Y24544D01*
X29484Y24514D01*
X29470Y24479D01*
X29452Y24447D01*
X29431Y24414D01*
X29405Y24389D01*
X29403Y24386D01*
X29391Y24379D01*
X29375Y24368D01*
X29352Y24356D01*
X29324Y24345D01*
X29290Y24333D01*
X29250Y24326D01*
X29206Y24324D01*
X29192D01*
X29183Y24326D01*
X29158Y24329D01*
X29123Y24336D01*
X29084Y24345D01*
X29042Y24361D01*
X28996Y24382D01*
X28952Y24410D01*
X28949D01*
X28947Y24414D01*
X28933Y24426D01*
X28910Y24444D01*
X28885Y24474D01*
X28855Y24509D01*
X28822Y24555D01*
X28790Y24609D01*
X28762Y24671D01*
Y24673D01*
X28760Y24678D01*
X28755Y24687D01*
X28750Y24701D01*
X28746Y24717D01*
X28741Y24736D01*
X28734Y24757D01*
X28727Y24780D01*
X28716Y24833D01*
X28704Y24893D01*
X28695Y24958D01*
X28693Y25023D01*
Y25025D01*
Y25032D01*
Y25041D01*
X28695Y25055D01*
Y25071D01*
X28697Y25090D01*
X28704Y25132D01*
X28716Y25180D01*
X28730Y25229D01*
X28753Y25277D01*
X28783Y25321D01*
X28788Y25326D01*
X28799Y25337D01*
X28820Y25354D01*
X28845Y25372D01*
X28880Y25393D01*
X28919Y25409D01*
X28963Y25421D01*
X28987Y25423D01*
X29012Y25425D01*
X29024D01*
X29033Y25423D01*
X29058Y25421D01*
X29088Y25416D01*
X29125Y25405D01*
X29165Y25391D01*
X29204Y25372D01*
X29246Y25344D01*
X29248D01*
X29250Y25340D01*
X29264Y25328D01*
X29283Y25310D01*
X29306Y25282D01*
X29331Y25247D01*
X29359Y25206D01*
X29382Y25155D01*
X29405Y25097D01*
X29739Y25148D01*
Y25150D01*
X29734Y25159D01*
X29729Y25173D01*
X29720Y25192D01*
X29708Y25215D01*
X29697Y25240D01*
X29683Y25270D01*
X29665Y25300D01*
X29623Y25368D01*
X29572Y25435D01*
X29514Y25502D01*
X29479Y25532D01*
X29445Y25560D01*
X29442Y25562D01*
X29435Y25567D01*
X29426Y25573D01*
X29410Y25580D01*
X29391Y25592D01*
X29371Y25604D01*
X29343Y25617D01*
X29315Y25629D01*
X29283Y25643D01*
X29248Y25657D01*
X29211Y25668D01*
X29172Y25678D01*
X29130Y25687D01*
X29086Y25694D01*
X29040Y25698D01*
X28991Y25701D01*
D02*
G37*
G36*
X19280Y25245D02*
X18671D01*
X18731Y24942D01*
X19340D01*
X19280Y25245D01*
D02*
G37*
G36*
X25268Y25671D02*
Y24484D01*
X25263Y24507D01*
X25259Y24539D01*
X25250Y24574D01*
X25236Y24613D01*
X25217Y24653D01*
X25192Y24692D01*
X25189Y24696D01*
X25178Y24708D01*
X25159Y24724D01*
X25136Y24747D01*
X25104Y24771D01*
X25064Y24796D01*
X25018Y24819D01*
X24963Y24840D01*
X24965D01*
X24967Y24842D01*
X24974Y24845D01*
X24983Y24847D01*
X25007Y24854D01*
X25034Y24868D01*
X25064Y24884D01*
X25097Y24905D01*
X25129Y24930D01*
X25157Y24960D01*
X25159Y24965D01*
X25169Y24974D01*
X25180Y24993D01*
X25192Y25016D01*
X25206Y25046D01*
X25215Y25078D01*
X25224Y25115D01*
X25226Y25155D01*
Y25157D01*
Y25162D01*
Y25169D01*
X25224Y25180D01*
Y25192D01*
X25222Y25208D01*
X25217Y25243D01*
X25206Y25287D01*
X25192Y25333D01*
X25171Y25381D01*
X25143Y25430D01*
Y25432D01*
X25138Y25435D01*
X25134Y25442D01*
X25129Y25451D01*
X25111Y25474D01*
X25085Y25502D01*
X25053Y25532D01*
X25013Y25562D01*
X24967Y25590D01*
X24916Y25615D01*
X24914D01*
X24909Y25617D01*
X24902Y25620D01*
X24891Y25624D01*
X24875Y25629D01*
X24858Y25634D01*
X24838Y25638D01*
X24814Y25643D01*
X24787Y25648D01*
X24757Y25652D01*
X24724Y25657D01*
X24690Y25661D01*
X24653Y25666D01*
X24611Y25668D01*
X24569Y25671D01*
X23769Y25671D01*
X24104Y24069D01*
X24710Y24069D01*
X24747Y24072D01*
X24789D01*
X24831Y24074D01*
X24868Y24076D01*
X24886Y24079D01*
X24900Y24081D01*
X24905D01*
X24921Y24083D01*
X24942Y24088D01*
X24970Y24095D01*
X25000Y24104D01*
X25034Y24116D01*
X25067Y24130D01*
X25099Y24148D01*
X25104Y24150D01*
X25113Y24157D01*
X25127Y24169D01*
X25145Y24183D01*
X25166Y24201D01*
X25187Y24224D01*
X25208Y24250D01*
X25224Y24280D01*
X25226Y24285D01*
X25231Y24294D01*
X25238Y24310D01*
X25247Y24333D01*
X25254Y24359D01*
X25261Y24391D01*
X25266Y24423D01*
X25268Y24460D01*
Y24069D01*
D01*
Y25671D01*
D02*
G37*
G36*
X30660D02*
X29859D01*
X30194Y24069D01*
X30801D01*
X30838Y24072D01*
X30879D01*
X30921Y24074D01*
X30958Y24076D01*
X30977Y24079D01*
X30990Y24081D01*
X30995D01*
X31011Y24083D01*
X31032Y24088D01*
X31060Y24095D01*
X31090Y24104D01*
X31125Y24116D01*
X31157Y24130D01*
X31189Y24148D01*
X31194Y24150D01*
X31203Y24157D01*
X31217Y24169D01*
X31236Y24183D01*
X31257Y24201D01*
X31277Y24224D01*
X31298Y24250D01*
X31314Y24280D01*
X31317Y24285D01*
X31321Y24294D01*
X31328Y24310D01*
X31337Y24333D01*
X31344Y24359D01*
X31351Y24391D01*
X31356Y24423D01*
X31358Y24460D01*
Y24484D01*
X31354Y24507D01*
X31349Y24539D01*
X31340Y24574D01*
X31326Y24613D01*
X31307Y24653D01*
X31282Y24692D01*
X31280Y24696D01*
X31268Y24708D01*
X31250Y24724D01*
X31226Y24747D01*
X31194Y24771D01*
X31155Y24796D01*
X31108Y24819D01*
X31053Y24840D01*
X31055D01*
X31058Y24842D01*
X31064Y24845D01*
X31074Y24847D01*
X31097Y24854D01*
X31125Y24868D01*
X31155Y24884D01*
X31187Y24905D01*
X31219Y24930D01*
X31247Y24960D01*
X31250Y24965D01*
X31259Y24974D01*
X31270Y24993D01*
X31282Y25016D01*
X31296Y25046D01*
X31305Y25078D01*
X31314Y25115D01*
X31317Y25155D01*
Y25157D01*
Y25162D01*
Y25169D01*
X31314Y25180D01*
Y25192D01*
X31312Y25208D01*
X31307Y25243D01*
X31296Y25287D01*
X31282Y25333D01*
X31261Y25381D01*
X31233Y25430D01*
Y25432D01*
X31229Y25435D01*
X31224Y25442D01*
X31219Y25451D01*
X31201Y25474D01*
X31176Y25502D01*
X31143Y25532D01*
X31104Y25562D01*
X31058Y25590D01*
X31007Y25615D01*
X31004D01*
X31000Y25617D01*
X30993Y25620D01*
X30981Y25624D01*
X30965Y25629D01*
X30949Y25634D01*
X30928Y25638D01*
X30905Y25643D01*
X30877Y25648D01*
X30847Y25652D01*
X30815Y25657D01*
X30780Y25661D01*
X30743Y25666D01*
X30701Y25668D01*
X30660Y25671D01*
D02*
G37*
G36*
X28276D02*
X26754D01*
X27089Y24069D01*
X26754D01*
D01*
X28276D01*
X28221Y24338D01*
X27362D01*
X27283Y24699D01*
X28114D01*
X28059Y24967D01*
X27223D01*
X27128Y25402D01*
X28061D01*
X28003Y25671D01*
X28276D01*
D02*
G37*
G36*
X26596D02*
Y24069D01*
D01*
Y25671D01*
D02*
G37*
G36*
D02*
X25393D01*
X25728Y24069D01*
X26057D01*
X25777Y25402D01*
X26596D01*
X26541Y25671D01*
X26596D01*
D02*
G37*
G36*
X23614Y25671D02*
Y24069D01*
X23074D01*
X22794Y25402D01*
X23614D01*
X23558Y25671D01*
X22410D01*
X22746Y24069D01*
X22410D01*
D01*
X23614D01*
Y25671D01*
D02*
G37*
G36*
X20941D02*
Y24069D01*
X20885Y24338D01*
X20027D01*
X19948Y24699D01*
X20779D01*
X20723Y24967D01*
X19888D01*
X19793Y25402D01*
X20726D01*
X20668Y25671D01*
X20941D01*
X19418D01*
X19754Y24069D01*
X19418D01*
D01*
X20941D01*
Y25671D01*
D02*
G37*
G36*
X18516D02*
Y24069D01*
D01*
Y25671D01*
D02*
G37*
G36*
D02*
X17313D01*
X17648Y24069D01*
X17977D01*
X17697Y25402D01*
X18516D01*
X18460Y25671D01*
X18516D01*
D02*
G37*
G36*
X17104D02*
Y24069D01*
X16848D01*
X17104Y25671D01*
X16189D01*
X16792D01*
X16739Y25317D01*
X16105D01*
X15913Y25671D01*
X15575D01*
X15880Y25127D01*
D01*
X16475Y24069D01*
X17104D01*
Y25671D01*
D02*
G37*
G36*
X14996D02*
X14647D01*
X14362Y24069D01*
D01*
X15121D01*
X14689D01*
X14890Y25280D01*
X15554Y24069D01*
X15880D01*
X15575Y24623D01*
D01*
X14996Y25671D01*
D02*
G37*
G36*
X15554Y24069D02*
X15121D01*
X15554D01*
D01*
D02*
G37*
G36*
X14228Y25671D02*
Y24069D01*
X14173Y24338D01*
X13314D01*
X13236Y24699D01*
X14066D01*
X14011Y24967D01*
X13175D01*
X13080Y25402D01*
X14013D01*
X13955Y25671D01*
X14228D01*
X12706D01*
X12831Y25074D01*
X13041Y24069D01*
X14228D01*
Y25671D01*
D02*
G37*
G36*
X12032D02*
X11704D01*
X11981Y24338D01*
X11514D01*
X11567Y24069D01*
X11514D01*
X13034D01*
X12831D01*
X12777Y24338D01*
X12706D01*
X12310D01*
X12032Y25671D01*
D02*
G37*
%LPD*%
G36*
X29236Y24039D02*
D01*
D01*
D01*
D02*
G37*
%LPC*%
G36*
X22332Y25701D02*
X20959D01*
X21554D01*
X21536Y25698D01*
X21515Y25696D01*
X21492D01*
X21466Y25691D01*
X21411Y25685D01*
X21351Y25673D01*
X21288Y25657D01*
X21230Y25634D01*
X21228D01*
X21223Y25631D01*
X21216Y25627D01*
X21205Y25620D01*
X21179Y25606D01*
X21147Y25583D01*
X21112Y25557D01*
X21077Y25523D01*
X21045Y25486D01*
X21017Y25442D01*
Y25439D01*
X21015Y25437D01*
X21013Y25430D01*
X21008Y25418D01*
X21003Y25407D01*
X20999Y25393D01*
X20987Y25358D01*
X20976Y25317D01*
X20966Y25268D01*
X20962Y25215D01*
X20959Y25157D01*
D01*
X21274Y25138D01*
Y25141D01*
Y25145D01*
Y25152D01*
X21276Y25162D01*
X21279Y25189D01*
X21283Y25219D01*
X21288Y25254D01*
X21297Y25289D01*
X21309Y25319D01*
X21325Y25342D01*
X21330Y25347D01*
X21339Y25356D01*
X21357Y25368D01*
X21385Y25384D01*
X21401Y25391D01*
X21422Y25400D01*
X21443Y25407D01*
X21469Y25411D01*
X21494Y25418D01*
X21524Y25421D01*
X21556Y25425D01*
X21617D01*
X21631Y25423D01*
X21647D01*
X21681Y25418D01*
X21718Y25411D01*
X21758Y25400D01*
X21795Y25386D01*
X21825Y25368D01*
X21827Y25365D01*
X21836Y25358D01*
X21848Y25344D01*
X21862Y25328D01*
X21876Y25307D01*
X21887Y25284D01*
X21897Y25259D01*
X21899Y25229D01*
Y25226D01*
Y25217D01*
X21897Y25203D01*
X21892Y25187D01*
X21885Y25169D01*
X21873Y25148D01*
X21860Y25127D01*
X21839Y25108D01*
X21836Y25106D01*
X21830Y25101D01*
X21816Y25092D01*
X21795Y25081D01*
X21781Y25071D01*
X21765Y25062D01*
X21746Y25053D01*
X21725Y25044D01*
X21700Y25032D01*
X21674Y25018D01*
X21642Y25004D01*
X21610Y24990D01*
X21607D01*
X21600Y24986D01*
X21591Y24983D01*
X21580Y24976D01*
X21563Y24970D01*
X21545Y24963D01*
X21506Y24944D01*
X21462Y24921D01*
X21415Y24900D01*
X21374Y24877D01*
X21353Y24865D01*
X21337Y24856D01*
X21332Y24854D01*
X21323Y24847D01*
X21307Y24833D01*
X21288Y24817D01*
X21267Y24798D01*
X21244Y24773D01*
X21223Y24745D01*
X21202Y24715D01*
X21200Y24710D01*
X21195Y24699D01*
X21186Y24680D01*
X21179Y24657D01*
X21170Y24627D01*
X21161Y24592D01*
X21156Y24553D01*
X21154Y24511D01*
Y24509D01*
Y24502D01*
Y24491D01*
X21156Y24477D01*
X21158Y24460D01*
X21161Y24440D01*
X21165Y24416D01*
X21172Y24393D01*
X21189Y24340D01*
X21202Y24312D01*
X21216Y24282D01*
X21233Y24255D01*
X21251Y24227D01*
X21274Y24199D01*
X21300Y24174D01*
X21302Y24171D01*
X21307Y24167D01*
X21316Y24162D01*
X21327Y24153D01*
X21341Y24143D01*
X21360Y24132D01*
X21383Y24118D01*
X21408Y24106D01*
X21436Y24095D01*
X21466Y24081D01*
X21501Y24069D01*
X21540Y24060D01*
X21582Y24051D01*
X21626Y24044D01*
X21672Y24042D01*
X21723Y24039D01*
X20959D01*
X22332D01*
X21751D01*
X21769Y24042D01*
X21792Y24044D01*
X21820Y24046D01*
X21850Y24051D01*
X21883Y24056D01*
X21954Y24072D01*
X21991Y24083D01*
X22026Y24095D01*
X22063Y24111D01*
X22098Y24130D01*
X22130Y24150D01*
X22160Y24174D01*
X22163Y24176D01*
X22167Y24180D01*
X22174Y24187D01*
X22186Y24197D01*
X22197Y24211D01*
X22211Y24227D01*
X22225Y24245D01*
X22239Y24266D01*
X22255Y24292D01*
X22271Y24317D01*
X22285Y24347D01*
X22299Y24377D01*
X22311Y24412D01*
X22320Y24447D01*
X22327Y24486D01*
X22332Y24525D01*
X22017Y24539D01*
Y24537D01*
Y24535D01*
X22015Y24521D01*
X22008Y24500D01*
X22001Y24474D01*
X21989Y24447D01*
X21975Y24416D01*
X21957Y24389D01*
X21931Y24363D01*
X21929Y24361D01*
X21917Y24354D01*
X21901Y24342D01*
X21878Y24331D01*
X21850Y24322D01*
X21813Y24310D01*
X21769Y24303D01*
X21721Y24301D01*
X21698D01*
X21674Y24303D01*
X21644Y24308D01*
X21614Y24312D01*
X21582Y24322D01*
X21552Y24333D01*
X21526Y24349D01*
X21524Y24352D01*
X21517Y24359D01*
X21508Y24368D01*
X21499Y24382D01*
X21487Y24400D01*
X21478Y24421D01*
X21471Y24447D01*
X21469Y24472D01*
Y24474D01*
Y24484D01*
X21471Y24495D01*
X21475Y24511D01*
X21482Y24530D01*
X21492Y24548D01*
X21503Y24567D01*
X21522Y24585D01*
X21524Y24588D01*
X21533Y24595D01*
X21547Y24604D01*
X21570Y24618D01*
X21587Y24627D01*
X21603Y24636D01*
X21621Y24648D01*
X21644Y24659D01*
X21668Y24671D01*
X21695Y24685D01*
X21725Y24699D01*
X21758Y24713D01*
X21760Y24715D01*
X21769Y24717D01*
X21783Y24724D01*
X21802Y24731D01*
X21825Y24743D01*
X21850Y24754D01*
X21906Y24782D01*
X21966Y24812D01*
X22024Y24845D01*
X22052Y24861D01*
X22075Y24877D01*
X22096Y24893D01*
X22112Y24907D01*
X22114Y24909D01*
X22116Y24912D01*
X22123Y24919D01*
X22130Y24926D01*
X22149Y24951D01*
X22170Y24983D01*
X22190Y25023D01*
X22207Y25071D01*
X22221Y25127D01*
X22223Y25155D01*
X22225Y25187D01*
Y25189D01*
Y25196D01*
Y25208D01*
X22223Y25222D01*
X22221Y25240D01*
X22216Y25263D01*
X22211Y25287D01*
X22204Y25312D01*
X22195Y25340D01*
X22184Y25370D01*
X22170Y25400D01*
X22153Y25430D01*
X22135Y25460D01*
X22112Y25492D01*
X22086Y25520D01*
X22056Y25550D01*
X22054Y25553D01*
X22049Y25557D01*
X22038Y25564D01*
X22026Y25573D01*
X22008Y25585D01*
X21987Y25599D01*
X21964Y25610D01*
X21934Y25624D01*
X21904Y25641D01*
X21869Y25652D01*
X21830Y25666D01*
X21788Y25678D01*
X21744Y25687D01*
X21695Y25694D01*
X21644Y25698D01*
X21589Y25701D01*
X22332D01*
D02*
G37*
G36*
X11266D02*
X9894D01*
X10489D01*
X10470Y25698D01*
X10450Y25696D01*
X10426D01*
X10401Y25691D01*
X10345Y25685D01*
X10285Y25673D01*
X10223Y25657D01*
X10165Y25634D01*
X10163D01*
X10158Y25631D01*
X10151Y25627D01*
X10139Y25620D01*
X10114Y25606D01*
X10082Y25583D01*
X10047Y25557D01*
X10012Y25523D01*
X9980Y25486D01*
X9952Y25442D01*
Y25439D01*
X9950Y25437D01*
X9947Y25430D01*
X9943Y25418D01*
X9938Y25407D01*
X9934Y25393D01*
X9922Y25358D01*
X9910Y25317D01*
X9901Y25268D01*
X9897Y25215D01*
X9894Y25157D01*
D01*
X10209Y25138D01*
Y25141D01*
Y25145D01*
Y25152D01*
X10211Y25162D01*
X10214Y25189D01*
X10218Y25219D01*
X10223Y25254D01*
X10232Y25289D01*
X10244Y25319D01*
X10260Y25342D01*
X10264Y25347D01*
X10274Y25356D01*
X10292Y25368D01*
X10320Y25384D01*
X10336Y25391D01*
X10357Y25400D01*
X10378Y25407D01*
X10403Y25411D01*
X10429Y25418D01*
X10459Y25421D01*
X10491Y25425D01*
X10551D01*
X10565Y25423D01*
X10581D01*
X10616Y25418D01*
X10653Y25411D01*
X10693Y25400D01*
X10730Y25386D01*
X10760Y25368D01*
X10762Y25365D01*
X10771Y25358D01*
X10783Y25344D01*
X10797Y25328D01*
X10811Y25307D01*
X10822Y25284D01*
X10831Y25259D01*
X10834Y25229D01*
Y25226D01*
Y25217D01*
X10831Y25203D01*
X10827Y25187D01*
X10820Y25169D01*
X10808Y25148D01*
X10794Y25127D01*
X10774Y25108D01*
X10771Y25106D01*
X10764Y25101D01*
X10750Y25092D01*
X10730Y25081D01*
X10716Y25071D01*
X10699Y25062D01*
X10681Y25053D01*
X10660Y25044D01*
X10635Y25032D01*
X10609Y25018D01*
X10577Y25004D01*
X10544Y24990D01*
X10542D01*
X10535Y24986D01*
X10526Y24983D01*
X10514Y24976D01*
X10498Y24970D01*
X10480Y24963D01*
X10440Y24944D01*
X10396Y24921D01*
X10350Y24900D01*
X10308Y24877D01*
X10288Y24865D01*
X10271Y24856D01*
X10267Y24854D01*
X10257Y24847D01*
X10241Y24833D01*
X10223Y24817D01*
X10202Y24798D01*
X10179Y24773D01*
X10158Y24745D01*
X10137Y24715D01*
X10135Y24710D01*
X10130Y24699D01*
X10121Y24680D01*
X10114Y24657D01*
X10105Y24627D01*
X10096Y24592D01*
X10091Y24553D01*
X10089Y24511D01*
Y24509D01*
Y24502D01*
Y24491D01*
X10091Y24477D01*
X10093Y24460D01*
X10096Y24440D01*
X10100Y24416D01*
X10107Y24393D01*
X10123Y24340D01*
X10137Y24312D01*
X10151Y24282D01*
X10167Y24255D01*
X10186Y24227D01*
X10209Y24199D01*
X10234Y24174D01*
X10237Y24171D01*
X10241Y24167D01*
X10251Y24162D01*
X10262Y24153D01*
X10276Y24143D01*
X10295Y24132D01*
X10318Y24118D01*
X10343Y24106D01*
X10371Y24095D01*
X10401Y24081D01*
X10436Y24069D01*
X10475Y24060D01*
X10517Y24051D01*
X10561Y24044D01*
X10607Y24042D01*
X10658Y24039D01*
X10686D01*
X10704Y24042D01*
X10727Y24044D01*
X10755Y24046D01*
X10785Y24051D01*
X10817Y24056D01*
X10889Y24072D01*
X10926Y24083D01*
X10961Y24095D01*
X10998Y24111D01*
X11033Y24130D01*
X11065Y24150D01*
X11095Y24174D01*
X11097Y24176D01*
X11102Y24180D01*
X11109Y24187D01*
X11121Y24197D01*
X11132Y24211D01*
X11146Y24227D01*
X11160Y24245D01*
X11174Y24266D01*
X11190Y24292D01*
X11206Y24317D01*
X11220Y24347D01*
X11234Y24377D01*
X11246Y24412D01*
X11255Y24447D01*
X11262Y24486D01*
X11266Y24525D01*
X10952Y24539D01*
Y24537D01*
Y24535D01*
X10949Y24521D01*
X10942Y24500D01*
X10935Y24474D01*
X10924Y24447D01*
X10910Y24416D01*
X10892Y24389D01*
X10866Y24363D01*
X10864Y24361D01*
X10852Y24354D01*
X10836Y24342D01*
X10813Y24331D01*
X10785Y24322D01*
X10748Y24310D01*
X10704Y24303D01*
X10655Y24301D01*
X10632D01*
X10609Y24303D01*
X10579Y24308D01*
X10549Y24312D01*
X10517Y24322D01*
X10487Y24333D01*
X10461Y24349D01*
X10459Y24352D01*
X10452Y24359D01*
X10443Y24368D01*
X10433Y24382D01*
X10422Y24400D01*
X10413Y24421D01*
X10406Y24447D01*
X10403Y24472D01*
Y24474D01*
Y24484D01*
X10406Y24495D01*
X10410Y24511D01*
X10417Y24530D01*
X10426Y24548D01*
X10438Y24567D01*
X10456Y24585D01*
X10459Y24588D01*
X10468Y24595D01*
X10482Y24604D01*
X10505Y24618D01*
X10521Y24627D01*
X10537Y24636D01*
X10556Y24648D01*
X10579Y24659D01*
X10602Y24671D01*
X10630Y24685D01*
X10660Y24699D01*
X10693Y24713D01*
X10695Y24715D01*
X10704Y24717D01*
X10718Y24724D01*
X10736Y24731D01*
X10760Y24743D01*
X10785Y24754D01*
X10841Y24782D01*
X10901Y24812D01*
X10959Y24845D01*
X10986Y24861D01*
X11010Y24877D01*
X11030Y24893D01*
X11047Y24907D01*
X11049Y24909D01*
X11051Y24912D01*
X11058Y24919D01*
X11065Y24926D01*
X11084Y24951D01*
X11104Y24983D01*
X11125Y25023D01*
X11141Y25071D01*
X11155Y25127D01*
X11158Y25155D01*
X11160Y25187D01*
Y25189D01*
Y25196D01*
Y25208D01*
X11158Y25222D01*
X11155Y25240D01*
X11151Y25263D01*
X11146Y25287D01*
X11139Y25312D01*
X11130Y25340D01*
X11118Y25370D01*
X11104Y25400D01*
X11088Y25430D01*
X11070Y25460D01*
X11047Y25492D01*
X11021Y25520D01*
X10991Y25550D01*
X10989Y25553D01*
X10984Y25557D01*
X10972Y25564D01*
X10961Y25573D01*
X10942Y25585D01*
X10922Y25599D01*
X10898Y25610D01*
X10868Y25624D01*
X10838Y25641D01*
X10804Y25652D01*
X10764Y25666D01*
X10723Y25678D01*
X10679Y25687D01*
X10630Y25694D01*
X10579Y25698D01*
X10524Y25701D01*
X11266D01*
D02*
G37*
G36*
X10658Y24039D02*
X9894D01*
X10658D01*
D01*
D02*
G37*
%LPD*%
G36*
X24535Y25411D02*
X24576D01*
X24622Y25407D01*
X24666Y25402D01*
X24706Y25398D01*
X24722Y25393D01*
X24736Y25388D01*
X24738Y25386D01*
X24747Y25384D01*
X24759Y25377D01*
X24775Y25368D01*
X24794Y25356D01*
X24812Y25342D01*
X24831Y25326D01*
X24847Y25305D01*
X24849Y25303D01*
X24854Y25293D01*
X24861Y25282D01*
X24868Y25266D01*
X24875Y25247D01*
X24882Y25226D01*
X24886Y25203D01*
X24889Y25180D01*
Y25175D01*
Y25166D01*
X24886Y25152D01*
X24882Y25134D01*
X24875Y25113D01*
X24863Y25090D01*
X24849Y25069D01*
X24828Y25048D01*
X24826Y25046D01*
X24817Y25039D01*
X24803Y25032D01*
X24782Y25020D01*
X24754Y25011D01*
X24720Y25004D01*
X24680Y24997D01*
X24632Y24995D01*
X24238Y24995D01*
X24150Y25414D01*
X24516Y25414D01*
X24535Y25411D01*
D02*
G37*
G36*
X24606Y24715D02*
X24643D01*
X24683Y24713D01*
X24722Y24708D01*
X24759Y24701D01*
X24791Y24694D01*
X24794Y24692D01*
X24803Y24690D01*
X24817Y24685D01*
X24833Y24676D01*
X24852Y24664D01*
X24870Y24650D01*
X24886Y24634D01*
X24902Y24615D01*
X24905Y24613D01*
X24909Y24606D01*
X24914Y24595D01*
X24923Y24581D01*
X24930Y24562D01*
X24935Y24541D01*
X24939Y24521D01*
X24942Y24497D01*
Y24495D01*
Y24488D01*
X24939Y24477D01*
X24937Y24463D01*
X24933Y24447D01*
X24926Y24430D01*
X24916Y24414D01*
X24905Y24398D01*
X24902Y24396D01*
X24898Y24391D01*
X24891Y24384D01*
X24879Y24377D01*
X24865Y24368D01*
X24849Y24359D01*
X24828Y24352D01*
X24805Y24345D01*
X24803D01*
X24798Y24342D01*
X24787D01*
X24771Y24340D01*
X24747D01*
X24717Y24338D01*
X24375Y24338D01*
X24296Y24717D01*
X24590Y24717D01*
X24606Y24715D01*
D02*
G37*
G36*
X30625Y25411D02*
X30666D01*
X30713Y25407D01*
X30757Y25402D01*
X30796Y25398D01*
X30812Y25393D01*
X30826Y25388D01*
X30828Y25386D01*
X30838Y25384D01*
X30849Y25377D01*
X30865Y25368D01*
X30884Y25356D01*
X30902Y25342D01*
X30921Y25326D01*
X30937Y25305D01*
X30939Y25303D01*
X30944Y25293D01*
X30951Y25282D01*
X30958Y25266D01*
X30965Y25247D01*
X30972Y25226D01*
X30977Y25203D01*
X30979Y25180D01*
Y25175D01*
Y25166D01*
X30977Y25152D01*
X30972Y25134D01*
X30965Y25113D01*
X30953Y25090D01*
X30939Y25069D01*
X30919Y25048D01*
X30916Y25046D01*
X30907Y25039D01*
X30893Y25032D01*
X30872Y25020D01*
X30845Y25011D01*
X30810Y25004D01*
X30771Y24997D01*
X30722Y24995D01*
X30329D01*
X30241Y25414D01*
X30606D01*
X30625Y25411D01*
D02*
G37*
G36*
X30697Y24715D02*
X30734D01*
X30773Y24713D01*
X30812Y24708D01*
X30849Y24701D01*
X30882Y24694D01*
X30884Y24692D01*
X30893Y24690D01*
X30907Y24685D01*
X30923Y24676D01*
X30942Y24664D01*
X30960Y24650D01*
X30977Y24634D01*
X30993Y24615D01*
X30995Y24613D01*
X31000Y24606D01*
X31004Y24595D01*
X31014Y24581D01*
X31020Y24562D01*
X31025Y24541D01*
X31030Y24521D01*
X31032Y24497D01*
Y24495D01*
Y24488D01*
X31030Y24477D01*
X31027Y24463D01*
X31023Y24447D01*
X31016Y24430D01*
X31007Y24414D01*
X30995Y24398D01*
X30993Y24396D01*
X30988Y24391D01*
X30981Y24384D01*
X30970Y24377D01*
X30956Y24368D01*
X30939Y24359D01*
X30919Y24352D01*
X30896Y24345D01*
X30893D01*
X30889Y24342D01*
X30877D01*
X30861Y24340D01*
X30838D01*
X30808Y24338D01*
X30465D01*
X30386Y24717D01*
X30680D01*
X30697Y24715D01*
D02*
G37*
G36*
X16605Y24405D02*
X16253Y25048D01*
X16699D01*
X16605Y24405D01*
D02*
G37*
D12*
X40550Y13000D02*
Y16400D01*
X43550Y13000D02*
Y16400D01*
D100*
X40118Y16200D02*
G03*
X40118Y16200I-125J0D01*
G01*
D112*
X20188Y7471D02*
G03*
X20188Y7471I-361J0D01*
G01*
D113*
X17039Y21615D02*
X17649D01*
X14067D02*
X15642D01*
X17001Y21603D02*
X17801D01*
X14054D02*
X15693D01*
X16988Y21590D02*
X17877D01*
X14042D02*
X15731D01*
X16976Y21577D02*
X17941D01*
X14042D02*
X15744D01*
X16976Y21565D02*
X17992D01*
X14054D02*
X15756D01*
X16963Y21552D02*
X18030D01*
X14080D02*
X15782D01*
X16963Y21539D02*
X18080D01*
X14105D02*
X15794D01*
X16963Y21527D02*
X18106D01*
X14131D02*
X15794D01*
X16963Y21514D02*
X18144D01*
X14156D02*
X15807D01*
X16963Y21501D02*
X18182D01*
X14169D02*
X15820D01*
X16976Y21489D02*
X18207D01*
X14194D02*
X15820D01*
X16976Y21476D02*
X18233D01*
X14220D02*
X15833D01*
X16976Y21463D02*
X18258D01*
X14232D02*
X15833D01*
X16988Y21450D02*
X18284D01*
X14258D02*
X15833D01*
X16988Y21438D02*
X18309D01*
X14270D02*
X15845D01*
X17001Y21425D02*
X18334D01*
X14283D02*
X15845D01*
X17001Y21412D02*
X18360D01*
X14309D02*
X15858D01*
X17014Y21400D02*
X18385D01*
X14321D02*
X15858D01*
X17014Y21387D02*
X18398D01*
X14334D02*
X15858D01*
X17014Y21374D02*
X18423D01*
X14347D02*
X15871D01*
X17026Y21361D02*
X18436D01*
X14372D02*
X15871D01*
X17026Y21349D02*
X18461D01*
X14385D02*
X15883D01*
X17039Y21336D02*
X18474D01*
X14397D02*
X15883D01*
X17039Y21323D02*
X18500D01*
X14410D02*
X15896D01*
X17039Y21311D02*
X18512D01*
X14423D02*
X15896D01*
X17052Y21298D02*
X18525D01*
X14436D02*
X15896D01*
X17052Y21285D02*
X18550D01*
X14448D02*
X15909D01*
X17064Y21273D02*
X18563D01*
X14461D02*
X15909D01*
X17064Y21260D02*
X18576D01*
X14474D02*
X15921D01*
X17064Y21247D02*
X18588D01*
X14486D02*
X15921D01*
X17077Y21235D02*
X18614D01*
X14499D02*
X15921D01*
X17077Y21222D02*
X18626D01*
X14512D02*
X15934D01*
X17090Y21209D02*
X18639D01*
X14524D02*
X15934D01*
X17090Y21196D02*
X18652D01*
X14537D02*
X15947D01*
X17103Y21184D02*
X18665D01*
X14537D02*
X15947D01*
X17103Y21171D02*
X18677D01*
X14550D02*
X15960D01*
X17103Y21158D02*
X18690D01*
X14562D02*
X15960D01*
X17115Y21146D02*
X18703D01*
X14575D02*
X15960D01*
X17115Y21133D02*
X18715D01*
X14588D02*
X15972D01*
X17128Y21120D02*
X18728D01*
X14588D02*
X15972D01*
X17128Y21108D02*
X18741D01*
X14601D02*
X15985D01*
X17128Y21095D02*
X18753D01*
X14613D02*
X15985D01*
X17141Y21082D02*
X18753D01*
X14626D02*
X15985D01*
X17141Y21069D02*
X18766D01*
X14626D02*
X15998D01*
X17153Y21057D02*
X18779D01*
X14639D02*
X15998D01*
X17153Y21044D02*
X18792D01*
X14651D02*
X16010D01*
X17166Y21031D02*
X18804D01*
X14651D02*
X16010D01*
X17166Y21019D02*
X18817D01*
X14664D02*
X16023D01*
X17166Y21006D02*
X18817D01*
X14677D02*
X16023D01*
X17179Y20993D02*
X18830D01*
X14677D02*
X16023D01*
X17179Y20980D02*
X18842D01*
X14689D02*
X16036D01*
X17191Y20968D02*
X18855D01*
X14689D02*
X16036D01*
X17191Y20955D02*
X18855D01*
X14702D02*
X16048D01*
X17191Y20942D02*
X18868D01*
X14702D02*
X16048D01*
X17204Y20930D02*
X18881D01*
X14715D02*
X16048D01*
X17204Y20917D02*
X18881D01*
X14728D02*
X16061D01*
X17217Y20904D02*
X18893D01*
X14728D02*
X16061D01*
X17217Y20892D02*
X18893D01*
X14740D02*
X16074D01*
X17217Y20879D02*
X18906D01*
X14740D02*
X16074D01*
X17229Y20866D02*
X18919D01*
X14753D02*
X16074D01*
X17229Y20854D02*
X18919D01*
X14753D02*
X16087D01*
X17242Y20841D02*
X18931D01*
X14766D02*
X16087D01*
X17242Y20828D02*
X18931D01*
X14766D02*
X16099D01*
X17255Y20815D02*
X18944D01*
X14766D02*
X16099D01*
X17255Y20803D02*
X18957D01*
X14778D02*
X16112D01*
X17255Y20790D02*
X18957D01*
X14778D02*
X16112D01*
X17268Y20777D02*
X18969D01*
X14791D02*
X16112D01*
X17268Y20765D02*
X18969D01*
X14791D02*
X16125D01*
X17280Y20752D02*
X18982D01*
X14804D02*
X16125D01*
X17280Y20739D02*
X18982D01*
X14804D02*
X16137D01*
X17280Y20726D02*
X18982D01*
X14804D02*
X16137D01*
X17293Y20714D02*
X18995D01*
X14816D02*
X16137D01*
X17293Y20701D02*
X18995D01*
X14816D02*
X16150D01*
X17306Y20688D02*
X19007D01*
X14816D02*
X16150D01*
X17306Y20676D02*
X19007D01*
X14829D02*
X16163D01*
X17318Y20663D02*
X19020D01*
X14829D02*
X16163D01*
X17318Y20650D02*
X19020D01*
X14829D02*
X16175D01*
X17318Y20638D02*
X19033D01*
X14842D02*
X16175D01*
X17331Y20625D02*
X19033D01*
X14842D02*
X16175D01*
X17331Y20612D02*
X19033D01*
X14842D02*
X16188D01*
X17344Y20600D02*
X19046D01*
X14842D02*
X16188D01*
X17344Y20587D02*
X19046D01*
X14855D02*
X16201D01*
X17344Y20574D02*
X19058D01*
X14855D02*
X16201D01*
X17357Y20561D02*
X19058D01*
X14855D02*
X16201D01*
X17357Y20549D02*
X19071D01*
X14867D02*
X16213D01*
X17369Y20536D02*
X19071D01*
X14867D02*
X16213D01*
X17369Y20523D02*
X19071D01*
X14867D02*
X16226D01*
X17369Y20511D02*
X19084D01*
X14867D02*
X16226D01*
X17382Y20498D02*
X19084D01*
X14867D02*
X16226D01*
X9698D02*
X13585D01*
X17382Y20485D02*
X19096D01*
X14880D02*
X16239D01*
X9686D02*
X13623D01*
X17395Y20472D02*
X19096D01*
X14880D02*
X16239D01*
X9673D02*
X13648D01*
X17395Y20460D02*
X19096D01*
X14880D02*
X16252D01*
X9660D02*
X13674D01*
X17407Y20447D02*
X19109D01*
X14880D02*
X16252D01*
X9660D02*
X13699D01*
X17407Y20434D02*
X19109D01*
X14880D02*
X16264D01*
X9660D02*
X13712D01*
X17407Y20422D02*
X19122D01*
X14893D02*
X16264D01*
X9660D02*
X13724D01*
X17420Y20409D02*
X19122D01*
X14893D02*
X16264D01*
X9660D02*
X13737D01*
X17420Y20396D02*
X19135D01*
X14893D02*
X16277D01*
X9660D02*
X13737D01*
X17433Y20384D02*
X19135D01*
X14893D02*
X16277D01*
X9660D02*
X13750D01*
X17433Y20371D02*
X19135D01*
X14893D02*
X16290D01*
X9660D02*
X13762D01*
X17433Y20358D02*
X19147D01*
X14893D02*
X16290D01*
X9673D02*
X13762D01*
X17445Y20346D02*
X19147D01*
X14893D02*
X16290D01*
X9673D02*
X13762D01*
X17445Y20333D02*
X19160D01*
X14893D02*
X16302D01*
X9686D02*
X13775D01*
X17458Y20320D02*
X19160D01*
X14893D02*
X16302D01*
X9686D02*
X13775D01*
X17458Y20307D02*
X19160D01*
X14905D02*
X16315D01*
X9686D02*
X13775D01*
X17471Y20295D02*
X19173D01*
X14905D02*
X16315D01*
X9698D02*
X13775D01*
X17471Y20282D02*
X19173D01*
X14905D02*
X16328D01*
X9698D02*
X13775D01*
X17471Y20269D02*
X19185D01*
X14905D02*
X16328D01*
X9711D02*
X13775D01*
X17483Y20257D02*
X19185D01*
X14905D02*
X16328D01*
X9711D02*
X13775D01*
X17483Y20244D02*
X19185D01*
X14905D02*
X16340D01*
X9711D02*
X13775D01*
X17496Y20231D02*
X19198D01*
X14905D02*
X16340D01*
X9724D02*
X13775D01*
X17496Y20219D02*
X19198D01*
X14905D02*
X16353D01*
X9724D02*
X13775D01*
X17496Y20206D02*
X19211D01*
X14905D02*
X16353D01*
X9736D02*
X13775D01*
X17509Y20193D02*
X19211D01*
X14905D02*
X16353D01*
X9736D02*
X13775D01*
X17509Y20180D02*
X19223D01*
X14905D02*
X16366D01*
X9736D02*
X13762D01*
X17522Y20168D02*
X19223D01*
X14905D02*
X16366D01*
X9749D02*
X13762D01*
X17522Y20155D02*
X19223D01*
X14893D02*
X16379D01*
X9749D02*
X13762D01*
X17522Y20142D02*
X19236D01*
X14893D02*
X16379D01*
X9762D02*
X13750D01*
X17534Y20130D02*
X19236D01*
X14893D02*
X16379D01*
X9762D02*
X13750D01*
X17534Y20117D02*
X19249D01*
X14893D02*
X16391D01*
X9775D02*
X13737D01*
X17547Y20104D02*
X19249D01*
X14893D02*
X16391D01*
X9775D02*
X13724D01*
X17547Y20091D02*
X19249D01*
X14893D02*
X16404D01*
X9775D02*
X13724D01*
X17560Y20079D02*
X19261D01*
X14893D02*
X16404D01*
X9787D02*
X13712D01*
X17560Y20066D02*
X19261D01*
X14893D02*
X16417D01*
X9787D02*
X13699D01*
X17560Y20053D02*
X19274D01*
X14893D02*
X16417D01*
X9800D02*
X13686D01*
X17572Y20041D02*
X19274D01*
X14880D02*
X16417D01*
X9800D02*
X13674D01*
X17572Y20028D02*
X19287D01*
X14880D02*
X16429D01*
X9800D02*
X13661D01*
X17585Y20015D02*
X19287D01*
X14880D02*
X16429D01*
X9813D02*
X13648D01*
X17585Y20003D02*
X19287D01*
X14880D02*
X16442D01*
X9813D02*
X13635D01*
X17585Y19990D02*
X19300D01*
X14880D02*
X16442D01*
X9825D02*
X13623D01*
X17598Y19977D02*
X19300D01*
X14867D02*
X16442D01*
X9825D02*
X13610D01*
X17598Y19965D02*
X19312D01*
X14867D02*
X16455D01*
X9838D02*
X13597D01*
X17611Y19952D02*
X19312D01*
X14867D02*
X16455D01*
X9838D02*
X13585D01*
X17611Y19939D02*
X19312D01*
X14867D02*
X16468D01*
X9838D02*
X13572D01*
X17623Y19926D02*
X19325D01*
X14867D02*
X16468D01*
X9851D02*
X13559D01*
X17623Y19914D02*
X19325D01*
X14855D02*
X16480D01*
X9851D02*
X13547D01*
X17623Y19901D02*
X19338D01*
X14855D02*
X16480D01*
X9863D02*
X13534D01*
X17636Y19888D02*
X19338D01*
X14855D02*
X16480D01*
X9863D02*
X13521D01*
X17636Y19876D02*
X19350D01*
X14842D02*
X16493D01*
X9863D02*
X13508D01*
X17649Y19863D02*
X19350D01*
X14842D02*
X16493D01*
X9876D02*
X13483D01*
X17649Y19850D02*
X19350D01*
X14842D02*
X16506D01*
X9876D02*
X13470D01*
X17649Y19837D02*
X19363D01*
X14829D02*
X16506D01*
X9889D02*
X13458D01*
X17661Y19825D02*
X19363D01*
X14829D02*
X16506D01*
X9889D02*
X13445D01*
X17661Y19812D02*
X19376D01*
X14829D02*
X16518D01*
X9902D02*
X13432D01*
X17674Y19799D02*
X19376D01*
X14816D02*
X16518D01*
X9902D02*
X13420D01*
X17674Y19787D02*
X19376D01*
X14816D02*
X16531D01*
X9902D02*
X13407D01*
X17674Y19774D02*
X19389D01*
X14816D02*
X16531D01*
X9914D02*
X13394D01*
X17687Y19761D02*
X19389D01*
X14804D02*
X16544D01*
X9914D02*
X13381D01*
X17687Y19749D02*
X19401D01*
X14804D02*
X16544D01*
X9927D02*
X13369D01*
X17699Y19736D02*
X19401D01*
X14791D02*
X16544D01*
X9927D02*
X13356D01*
X17699Y19723D02*
X19401D01*
X14791D02*
X16556D01*
X9927D02*
X13343D01*
X17712Y19711D02*
X19414D01*
X14791D02*
X16556D01*
X9940D02*
X13331D01*
X17712Y19698D02*
X19414D01*
X14778D02*
X16569D01*
X9940D02*
X13318D01*
X17712Y19685D02*
X19427D01*
X14778D02*
X16569D01*
X9952D02*
X13305D01*
X17725Y19672D02*
X19427D01*
X14766D02*
X16569D01*
X9952D02*
X13280D01*
X17725Y19660D02*
X19439D01*
X14766D02*
X16582D01*
X9965D02*
X13267D01*
X17737Y19647D02*
X19439D01*
X14753D02*
X16582D01*
X9965D02*
X13254D01*
X17737Y19634D02*
X19439D01*
X14753D02*
X16594D01*
X9965D02*
X13242D01*
X17737Y19622D02*
X19452D01*
X14740D02*
X16594D01*
X9978D02*
X13229D01*
X17750Y19609D02*
X19452D01*
X14740D02*
X16594D01*
X9978D02*
X13216D01*
X17750Y19596D02*
X19465D01*
X14728D02*
X16607D01*
X9991D02*
X13204D01*
X17763Y19583D02*
X19465D01*
X14728D02*
X16607D01*
X9991D02*
X13191D01*
X17763Y19571D02*
X19465D01*
X14715D02*
X16620D01*
X9991D02*
X13178D01*
X17776Y19558D02*
X19477D01*
X14702D02*
X16620D01*
X10003D02*
X13165D01*
X17776Y19545D02*
X19477D01*
X14702D02*
X16633D01*
X10003D02*
X13153D01*
X17776Y19533D02*
X19490D01*
X14689D02*
X16633D01*
X10016D02*
X13140D01*
X17788Y19520D02*
X19490D01*
X14689D02*
X16633D01*
X10016D02*
X13127D01*
X17788Y19507D02*
X19503D01*
X14677D02*
X16645D01*
X10016D02*
X13115D01*
X17801Y19495D02*
X19503D01*
X14664D02*
X16645D01*
X10029D02*
X13089D01*
X17801Y19482D02*
X19503D01*
X14664D02*
X16658D01*
X10029D02*
X13077D01*
X17801Y19469D02*
X19515D01*
X14651D02*
X16658D01*
X10041D02*
X13064D01*
X17814Y19456D02*
X19515D01*
X14639D02*
X16658D01*
X10041D02*
X13051D01*
X17814Y19444D02*
X19528D01*
X14639D02*
X16671D01*
X10054D02*
X13038D01*
X17826Y19431D02*
X19528D01*
X14626D02*
X16671D01*
X10054D02*
X13026D01*
X17826Y19418D02*
X19528D01*
X14613D02*
X16683D01*
X10054D02*
X13013D01*
X17826Y19406D02*
X19541D01*
X14601D02*
X16683D01*
X10067D02*
X13000D01*
X17839Y19393D02*
X19541D01*
X14601D02*
X16696D01*
X10067D02*
X12988D01*
X17839Y19380D02*
X19554D01*
X14588D02*
X16696D01*
X10079D02*
X12975D01*
X17852Y19368D02*
X19554D01*
X14575D02*
X16696D01*
X10079D02*
X12962D01*
X17852Y19355D02*
X19554D01*
X14562D02*
X16709D01*
X10079D02*
X12950D01*
X17865Y19342D02*
X19566D01*
X14562D02*
X16709D01*
X10092D02*
X12937D01*
X17865Y19330D02*
X19566D01*
X14550D02*
X16722D01*
X10092D02*
X12924D01*
X17865Y19317D02*
X19579D01*
X14537D02*
X16722D01*
X10105D02*
X12911D01*
X17877Y19304D02*
X19579D01*
X14524D02*
X16722D01*
X10105D02*
X12886D01*
X17877Y19291D02*
X19592D01*
X14512D02*
X16734D01*
X10118D02*
X12873D01*
X17890Y19279D02*
X19592D01*
X14499D02*
X16734D01*
X10118D02*
X12861D01*
X17890Y19266D02*
X19592D01*
X14486D02*
X16747D01*
X10118D02*
X12848D01*
X17890Y19253D02*
X19604D01*
X14474D02*
X16747D01*
X10130D02*
X12835D01*
X17903Y19241D02*
X19604D01*
X14461D02*
X16747D01*
X10130D02*
X12823D01*
X17903Y19228D02*
X19617D01*
X14448D02*
X16760D01*
X10143D02*
X12810D01*
X17915Y19215D02*
X19617D01*
X14436D02*
X16760D01*
X10143D02*
X12797D01*
X17915Y19202D02*
X19617D01*
X14423D02*
X16772D01*
X10143D02*
X12785D01*
X17928Y19190D02*
X19630D01*
X14410D02*
X16772D01*
X10156D02*
X12772D01*
X17928Y19177D02*
X19630D01*
X14397D02*
X16785D01*
X10156D02*
X12759D01*
X17928Y19164D02*
X19642D01*
X14385D02*
X16785D01*
X10168D02*
X12746D01*
X17941Y19152D02*
X19642D01*
X14372D02*
X16785D01*
X10168D02*
X12734D01*
X17941Y19139D02*
X19655D01*
X14359D02*
X16798D01*
X10181D02*
X12721D01*
X17953Y19126D02*
X19655D01*
X14334D02*
X16798D01*
X10181D02*
X12696D01*
X17953Y19114D02*
X19655D01*
X14321D02*
X16810D01*
X10181D02*
X12683D01*
X17953Y19101D02*
X19668D01*
X14309D02*
X16810D01*
X10194D02*
X12670D01*
X17966Y19088D02*
X19668D01*
X14296D02*
X16810D01*
X10194D02*
X12658D01*
X17966Y19076D02*
X19681D01*
X14283D02*
X16823D01*
X10206D02*
X12645D01*
X17979Y19063D02*
X19681D01*
X14270D02*
X16823D01*
X10206D02*
X12632D01*
X17979Y19050D02*
X19681D01*
X14258D02*
X16836D01*
X10206D02*
X12619D01*
X17979Y19037D02*
X19693D01*
X14245D02*
X16836D01*
X10219D02*
X12607D01*
X17992Y19025D02*
X19693D01*
X14232D02*
X16848D01*
X10219D02*
X12594D01*
X17992Y19012D02*
X19706D01*
X14220D02*
X16848D01*
X10232D02*
X12581D01*
X18004Y18999D02*
X19706D01*
X14207D02*
X16848D01*
X10232D02*
X12569D01*
X18004Y18987D02*
X19719D01*
X14194D02*
X16861D01*
X10245D02*
X12556D01*
X18017Y18974D02*
X19719D01*
X14182D02*
X16861D01*
X10245D02*
X12543D01*
X18017Y18961D02*
X19719D01*
X14156D02*
X16874D01*
X10245D02*
X12531D01*
X18017Y18948D02*
X19731D01*
X14143D02*
X16874D01*
X10257D02*
X12518D01*
X18030Y18936D02*
X19731D01*
X14131D02*
X16874D01*
X10257D02*
X12492D01*
X18030Y18923D02*
X19744D01*
X14118D02*
X16887D01*
X10270D02*
X12480D01*
X18042Y18910D02*
X19744D01*
X14105D02*
X16887D01*
X10270D02*
X12467D01*
X18042Y18898D02*
X19744D01*
X14093D02*
X16899D01*
X10270D02*
X12454D01*
X18042Y18885D02*
X19757D01*
X14080D02*
X16899D01*
X10283D02*
X12442D01*
X18055Y18872D02*
X19757D01*
X14067D02*
X16912D01*
X10283D02*
X12429D01*
X18055Y18860D02*
X19770D01*
X14054D02*
X16912D01*
X10295D02*
X12416D01*
X18068Y18847D02*
X19770D01*
X14042D02*
X16912D01*
X10295D02*
X12403D01*
X18068Y18834D02*
X19770D01*
X14029D02*
X16925D01*
X10295D02*
X12391D01*
X18080Y18822D02*
X19782D01*
X14016D02*
X16925D01*
X10308D02*
X12378D01*
X18080Y18809D02*
X19782D01*
X14004D02*
X16937D01*
X10308D02*
X12365D01*
X18080Y18796D02*
X19795D01*
X13991D02*
X16937D01*
X10321D02*
X12353D01*
X18093Y18783D02*
X19795D01*
X13966D02*
X16937D01*
X10321D02*
X12340D01*
X18093Y18771D02*
X19808D01*
X13953D02*
X16950D01*
X10333D02*
X12327D01*
X18106Y18758D02*
X19808D01*
X13940D02*
X16950D01*
X10333D02*
X12315D01*
X18106Y18745D02*
X19808D01*
X13927D02*
X16963D01*
X10333D02*
X12289D01*
X18106Y18733D02*
X19820D01*
X13915D02*
X16963D01*
X10346D02*
X12276D01*
X18118Y18720D02*
X19820D01*
X13902D02*
X16963D01*
X10346D02*
X12264D01*
X18118Y18707D02*
X19833D01*
X13889D02*
X16976D01*
X10359D02*
X12264D01*
X18131Y18694D02*
X19833D01*
X13877D02*
X16976D01*
X10359D02*
X12251D01*
X18131Y18682D02*
X19833D01*
X13864D02*
X16988D01*
X10359D02*
X12238D01*
X18131Y18669D02*
X19846D01*
X13851D02*
X16988D01*
X10372D02*
X12226D01*
X18144Y18656D02*
X19846D01*
X13839D02*
X17001D01*
X10372D02*
X12213D01*
X18144Y18644D02*
X19858D01*
X13826D02*
X17001D01*
X10384D02*
X12200D01*
X18157Y18631D02*
X19858D01*
X13813D02*
X17001D01*
X10384D02*
X12188D01*
X18157Y18618D02*
X19871D01*
X13788D02*
X17014D01*
X10397D02*
X12188D01*
X18169Y18606D02*
X19871D01*
X13775D02*
X17014D01*
X10397D02*
X12175D01*
X18169Y18593D02*
X19871D01*
X13762D02*
X17026D01*
X10397D02*
X12162D01*
X18169Y18580D02*
X19884D01*
X13750D02*
X17026D01*
X10410D02*
X12162D01*
X18182Y18567D02*
X19884D01*
X13737D02*
X17026D01*
X10410D02*
X12149D01*
X18182Y18555D02*
X19896D01*
X13724D02*
X17039D01*
X10422D02*
X12137D01*
X18195Y18542D02*
X19896D01*
X13712D02*
X17039D01*
X10422D02*
X12137D01*
X18195Y18529D02*
X19896D01*
X13699D02*
X17052D01*
X10422D02*
X12124D01*
X18195Y18517D02*
X19909D01*
X13686D02*
X17052D01*
X10435D02*
X12111D01*
X18207Y18504D02*
X19909D01*
X13674D02*
X17064D01*
X10435D02*
X12111D01*
X18207Y18491D02*
X19922D01*
X13661D02*
X17064D01*
X10448D02*
X12099D01*
X18220Y18479D02*
X19922D01*
X13648D02*
X17064D01*
X10448D02*
X12099D01*
X18220Y18466D02*
X19922D01*
X13635D02*
X17077D01*
X10460D02*
X12086D01*
X18233Y18453D02*
X19935D01*
X13623D02*
X17077D01*
X10460D02*
X12086D01*
X18233Y18441D02*
X19935D01*
X13597D02*
X17090D01*
X10460D02*
X12073D01*
X18233Y18428D02*
X19947D01*
X13585D02*
X17090D01*
X10473D02*
X12073D01*
X18246Y18415D02*
X19947D01*
X13572D02*
X17090D01*
X10473D02*
X12061D01*
X18246Y18402D02*
X19960D01*
X13559D02*
X17103D01*
X10486D02*
X12061D01*
X18258Y18390D02*
X19960D01*
X13547D02*
X17103D01*
X10486D02*
X12048D01*
X18258Y18377D02*
X19960D01*
X13534D02*
X17115D01*
X10486D02*
X12048D01*
X18258Y18364D02*
X19973D01*
X13521D02*
X17115D01*
X10498D02*
X12035D01*
X18271Y18352D02*
X19973D01*
X13508D02*
X17115D01*
X10498D02*
X12035D01*
X18271Y18339D02*
X19985D01*
X13496D02*
X17128D01*
X10511D02*
X12023D01*
X18284Y18326D02*
X19985D01*
X13483D02*
X17128D01*
X10511D02*
X12023D01*
X18284Y18313D02*
X19985D01*
X13470D02*
X17141D01*
X10524D02*
X12023D01*
X18284Y18301D02*
X19998D01*
X13458D02*
X17141D01*
X10524D02*
X12010D01*
X18296Y18288D02*
X19998D01*
X13445D02*
X17153D01*
X10524D02*
X12010D01*
X18296Y18275D02*
X20011D01*
X13420D02*
X17153D01*
X10537D02*
X12010D01*
X18309Y18263D02*
X20011D01*
X13407D02*
X17153D01*
X10537D02*
X11997D01*
X18309Y18250D02*
X20024D01*
X13394D02*
X17166D01*
X10549D02*
X11997D01*
X18322Y18237D02*
X20024D01*
X13381D02*
X17166D01*
X10549D02*
X11997D01*
X18322Y18225D02*
X20024D01*
X13369D02*
X17179D01*
X10549D02*
X11984D01*
X18322Y18212D02*
X20036D01*
X13356D02*
X17179D01*
X10562D02*
X11984D01*
X18334Y18199D02*
X20036D01*
X13343D02*
X17179D01*
X10562D02*
X11984D01*
X18334Y18187D02*
X20049D01*
X13331D02*
X17191D01*
X10575D02*
X11972D01*
X18347Y18174D02*
X20049D01*
X13318D02*
X17191D01*
X10575D02*
X11972D01*
X18347Y18161D02*
X20049D01*
X13305D02*
X17204D01*
X10575D02*
X11972D01*
X18347Y18148D02*
X20062D01*
X13292D02*
X17204D01*
X10587D02*
X11972D01*
X18360Y18136D02*
X20062D01*
X13280D02*
X17217D01*
X10587D02*
X11959D01*
X18360Y18123D02*
X20074D01*
X13267D02*
X17217D01*
X10600D02*
X11959D01*
X18372Y18110D02*
X20074D01*
X13242D02*
X17217D01*
X10600D02*
X11959D01*
X18372Y18098D02*
X20087D01*
X13229D02*
X17229D01*
X10613D02*
X11959D01*
X18385Y18085D02*
X20087D01*
X13216D02*
X17229D01*
X10613D02*
X11946D01*
X18385Y18072D02*
X20087D01*
X13204D02*
X17242D01*
X10613D02*
X11946D01*
X18385Y18059D02*
X20100D01*
X13191D02*
X17242D01*
X10625D02*
X11946D01*
X18398Y18047D02*
X20100D01*
X13178D02*
X17242D01*
X10625D02*
X11946D01*
X18398Y18034D02*
X20112D01*
X13165D02*
X17255D01*
X10638D02*
X11946D01*
X18411Y18021D02*
X20112D01*
X13153D02*
X17255D01*
X10638D02*
X11946D01*
X18411Y18009D02*
X20112D01*
X13140D02*
X17268D01*
X10638D02*
X11934D01*
X18411Y17996D02*
X20125D01*
X13127D02*
X17268D01*
X10651D02*
X11934D01*
X18423Y17983D02*
X20125D01*
X13115D02*
X17268D01*
X10651D02*
X11934D01*
X18423Y17971D02*
X20138D01*
X13102D02*
X17280D01*
X10664D02*
X11934D01*
X18436Y17958D02*
X20138D01*
X13089D02*
X17280D01*
X10664D02*
X11934D01*
X18436Y17945D02*
X20138D01*
X13089D02*
X17293D01*
X10676D02*
X11934D01*
X18436Y17933D02*
X20150D01*
X13077D02*
X17293D01*
X10676D02*
X11934D01*
X18449Y17920D02*
X20150D01*
X13077D02*
X17306D01*
X10676D02*
X11934D01*
X18449Y17907D02*
X20163D01*
X13064D02*
X17306D01*
X10689D02*
X11934D01*
X18461Y17894D02*
X20163D01*
X13064D02*
X17306D01*
X10689D02*
X11934D01*
X18461Y17882D02*
X20176D01*
X13051D02*
X17318D01*
X10702D02*
X11921D01*
X18474Y17869D02*
X20176D01*
X13051D02*
X17318D01*
X10702D02*
X11921D01*
X18474Y17856D02*
X20176D01*
X13051D02*
X17331D01*
X10702D02*
X11921D01*
X18474Y17844D02*
X20189D01*
X13051D02*
X17331D01*
X10714D02*
X11921D01*
X18487Y17831D02*
X20189D01*
X13038D02*
X17331D01*
X10714D02*
X11921D01*
X18487Y17818D02*
X20201D01*
X13038D02*
X17344D01*
X10727D02*
X11921D01*
X18500Y17806D02*
X20201D01*
X13038D02*
X17344D01*
X10727D02*
X11921D01*
X18500Y17793D02*
X20201D01*
X13038D02*
X17357D01*
X10740D02*
X11921D01*
X18500Y17780D02*
X20214D01*
X13038D02*
X17357D01*
X10740D02*
X11921D01*
X18512Y17767D02*
X20214D01*
X13038D02*
X17369D01*
X10740D02*
X11921D01*
X18512Y17755D02*
X20227D01*
X13051D02*
X17369D01*
X10752D02*
X11921D01*
X18525Y17742D02*
X20227D01*
X13051D02*
X17369D01*
X10752D02*
X11921D01*
X18525Y17729D02*
X20239D01*
X13051D02*
X17382D01*
X10765D02*
X11921D01*
X18538Y17717D02*
X20239D01*
X13051D02*
X17382D01*
X10765D02*
X11934D01*
X18538Y17704D02*
X20239D01*
X13064D02*
X17395D01*
X10765D02*
X11934D01*
X18538Y17691D02*
X20252D01*
X13064D02*
X17395D01*
X10778D02*
X11934D01*
X18550Y17678D02*
X20252D01*
X13077D02*
X17395D01*
X10778D02*
X11934D01*
X18550Y17666D02*
X20265D01*
X13077D02*
X17407D01*
X10791D02*
X11934D01*
X18563Y17653D02*
X20265D01*
X13089D02*
X17407D01*
X10791D02*
X11934D01*
X18563Y17640D02*
X20265D01*
X13102D02*
X17407D01*
X10803D02*
X11934D01*
X18576Y17628D02*
X20265D01*
X13102D02*
X17420D01*
X10803D02*
X11934D01*
X18588Y17615D02*
X20265D01*
X13115D02*
X17420D01*
X10803D02*
X11934D01*
X18588Y17602D02*
X20265D01*
X13127D02*
X17420D01*
X10816D02*
X11934D01*
X18601Y17590D02*
X20265D01*
X13153D02*
X17407D01*
X10816D02*
X11946D01*
X18626Y17577D02*
X20265D01*
X13165D02*
X17407D01*
X10829D02*
X11946D01*
X18639Y17564D02*
X20252D01*
X13191D02*
X17395D01*
X10829D02*
X11946D01*
X18665Y17552D02*
X20239D01*
X13216D02*
X17395D01*
X10829D02*
X11946D01*
X18690Y17539D02*
X20227D01*
X13242D02*
X17369D01*
X10841D02*
X11946D01*
X10841Y17526D02*
X11946D01*
X10854Y17513D02*
X11959D01*
X10854Y17501D02*
X11959D01*
X10854Y17488D02*
X11959D01*
X10867Y17475D02*
X11959D01*
X10867Y17463D02*
X11972D01*
X10880Y17450D02*
X11972D01*
X10880Y17437D02*
X11972D01*
X10892Y17424D02*
X11972D01*
X10892Y17412D02*
X11984D01*
X10892Y17399D02*
X11984D01*
X10905Y17386D02*
X11984D01*
X10905Y17374D02*
X11984D01*
X10918Y17361D02*
X11997D01*
X10918Y17348D02*
X11997D01*
X10918Y17336D02*
X11997D01*
X10930Y17323D02*
X12010D01*
X10930Y17310D02*
X12010D01*
X10943Y17298D02*
X12010D01*
X10943Y17285D02*
X12023D01*
X10956Y17272D02*
X12023D01*
X10956Y17259D02*
X12035D01*
X10956Y17247D02*
X12035D01*
X10968Y17234D02*
X12035D01*
X10968Y17221D02*
X12048D01*
X10981Y17209D02*
X12048D01*
X10981Y17196D02*
X12061D01*
X10981Y17183D02*
X12061D01*
X10994Y17170D02*
X12073D01*
X10994Y17158D02*
X12073D01*
X11007Y17145D02*
X12086D01*
X11007Y17132D02*
X12086D01*
X11019Y17120D02*
X12099D01*
X11019Y17107D02*
X12099D01*
X11019Y17094D02*
X12111D01*
X11032Y17082D02*
X12111D01*
X11032Y17069D02*
X12124D01*
X11045Y17056D02*
X12137D01*
X11045Y17044D02*
X12137D01*
X11045Y17031D02*
X12149D01*
X11057Y17018D02*
X12149D01*
X11057Y17005D02*
X12162D01*
X11070Y16993D02*
X12175D01*
X11070Y16980D02*
X12188D01*
X11083Y16967D02*
X12188D01*
X11083Y16955D02*
X12200D01*
X11083Y16942D02*
X12213D01*
X11095Y16929D02*
X12213D01*
X11095Y16917D02*
X12226D01*
X11108Y16904D02*
X12238D01*
X11108Y16891D02*
X12251D01*
X11108Y16878D02*
X12264D01*
X11121Y16866D02*
X12276D01*
X11121Y16853D02*
X12289D01*
X11134Y16840D02*
X12289D01*
X11134Y16828D02*
X12302D01*
X11134Y16815D02*
X12315D01*
X11146Y16802D02*
X12327D01*
X11146Y16789D02*
X12340D01*
X11159Y16777D02*
X12353D01*
X11159Y16764D02*
X12378D01*
X11172Y16751D02*
X12391D01*
X11172Y16739D02*
X12403D01*
X11172Y16726D02*
X12416D01*
X11184Y16713D02*
X12429D01*
X11184Y16701D02*
X12454D01*
X11197Y16688D02*
X12467D01*
X11197Y16675D02*
X12480D01*
X11197Y16663D02*
X12505D01*
X11210Y16650D02*
X12518D01*
X11210Y16637D02*
X12543D01*
X11222Y16624D02*
X12556D01*
X11222Y16612D02*
X12581D01*
X11235Y16599D02*
X12607D01*
X11235Y16586D02*
X12619D01*
X11235Y16574D02*
X12645D01*
X11248Y16561D02*
X12670D01*
X11248Y16548D02*
X12696D01*
X11260Y16535D02*
X12734D01*
X11260Y16523D02*
X12759D01*
X11260Y16510D02*
X12797D01*
X11273Y16497D02*
X12823D01*
X11273Y16485D02*
X12861D01*
X11286Y16472D02*
X12911D01*
X11286Y16459D02*
X12962D01*
X11299Y16447D02*
X13013D01*
X11299Y16434D02*
X13077D01*
X11299Y16421D02*
X13165D01*
X11311Y16409D02*
X20722D01*
X11311Y16396D02*
X20760D01*
X11324Y16383D02*
X20785D01*
X11324Y16370D02*
X20785D01*
X11337Y16358D02*
X20798D01*
X11337Y16345D02*
X20798D01*
X11349Y16332D02*
X20811D01*
X11349Y16320D02*
X20811D01*
X11362Y16307D02*
X20824D01*
X11362Y16294D02*
X20824D01*
X11375Y16281D02*
X20824D01*
X11387Y16269D02*
X20836D01*
X11387Y16256D02*
X20836D01*
X11400Y16243D02*
X20849D01*
X11400Y16231D02*
X20849D01*
X11413Y16218D02*
X20849D01*
X11426Y16205D02*
X20862D01*
X11426Y16193D02*
X20862D01*
X11438Y16180D02*
X20874D01*
X11451Y16167D02*
X20874D01*
X11464Y16154D02*
X20887D01*
X11464Y16142D02*
X20887D01*
X11476Y16129D02*
X20887D01*
X11489Y16116D02*
X20900D01*
X11502Y16104D02*
X20900D01*
X11502Y16091D02*
X20913D01*
X11514Y16078D02*
X20913D01*
X11527Y16066D02*
X20913D01*
X11540Y16053D02*
X20925D01*
X11553Y16040D02*
X20925D01*
X11565Y16028D02*
X20938D01*
X11578Y16015D02*
X20938D01*
X11578Y16002D02*
X20938D01*
X11591Y15989D02*
X20951D01*
X11603Y15977D02*
X20951D01*
X11616Y15964D02*
X20963D01*
X11629Y15951D02*
X20963D01*
X11642Y15939D02*
X20976D01*
X11667Y15926D02*
X20976D01*
X11680Y15913D02*
X20976D01*
X11692Y15901D02*
X20989D01*
X11705Y15888D02*
X20989D01*
X11718Y15875D02*
X21001D01*
X11730Y15862D02*
X21001D01*
X11756Y15850D02*
X21001D01*
X11769Y15837D02*
X21014D01*
X11781Y15824D02*
X21014D01*
X11807Y15812D02*
X21027D01*
X11819Y15799D02*
X21027D01*
X11832Y15786D02*
X21039D01*
X11857Y15774D02*
X21039D01*
X11870Y15761D02*
X21039D01*
X11896Y15748D02*
X21052D01*
X11921Y15735D02*
X21052D01*
X11934Y15723D02*
X21065D01*
X11959Y15710D02*
X21065D01*
X11984Y15697D02*
X21065D01*
X12010Y15685D02*
X21078D01*
X12035Y15672D02*
X21078D01*
X12061Y15659D02*
X21090D01*
X12086Y15646D02*
X21090D01*
X12124Y15634D02*
X21090D01*
X12149Y15621D02*
X21090D01*
X12188Y15608D02*
X21090D01*
X12226Y15596D02*
X21090D01*
X12264Y15583D02*
X21090D01*
X12315Y15570D02*
X21090D01*
X12365Y15558D02*
X21078D01*
X12429Y15545D02*
X21065D01*
X12518Y15532D02*
X21052D01*
D114*
X17536Y6300D02*
X23392D01*
Y10400D01*
X16950D02*
X23392D01*
X16950Y6300D02*
Y10400D01*
Y6300D02*
X17536D01*
D115*
X18219Y8448D02*
X18121Y8350D01*
X17926D01*
X17828Y8448D01*
Y8838D01*
X17926Y8936D01*
X18121D01*
X18219Y8838D01*
X18707Y8350D02*
X18512D01*
X18414Y8448D01*
Y8838D01*
X18512Y8936D01*
X18707D01*
X18804Y8838D01*
Y8448D01*
X18707Y8350D01*
X18999Y8936D02*
Y8350D01*
X19195Y8546D01*
X19390Y8350D01*
Y8936D01*
X19585D02*
Y8350D01*
X19878D01*
X19975Y8448D01*
Y8643D01*
X19878Y8741D01*
X19585D01*
X20170Y8350D02*
Y8936D01*
X20561D01*
X20756Y8350D02*
X20951D01*
X20853D01*
Y8936D01*
X20756D01*
X20951D01*
X21244D02*
Y8546D01*
X21439Y8350D01*
X21634Y8546D01*
Y8936D01*
Y8643D01*
X21244D01*
X21829Y8936D02*
Y8350D01*
X22219Y8936D01*
Y8350D01*
X22415D02*
X22805D01*
X22610D01*
Y8936D01*
X17780Y9961D02*
X17389D01*
X17780Y9570D01*
Y9473D01*
X17682Y9375D01*
X17487D01*
X17389Y9473D01*
X17975D02*
X18072Y9375D01*
X18267D01*
X18365Y9473D01*
Y9863D01*
X18267Y9961D01*
X18072D01*
X17975Y9863D01*
Y9473D01*
X18560D02*
X18658Y9375D01*
X18853D01*
X18950Y9473D01*
Y9863D01*
X18853Y9961D01*
X18658D01*
X18560Y9863D01*
Y9473D01*
X19536Y9961D02*
X19146D01*
X19536Y9570D01*
Y9473D01*
X19438Y9375D01*
X19243D01*
X19146Y9473D01*
X19731Y9961D02*
X20121Y9570D01*
X20317Y9863D02*
X20414Y9961D01*
X20609D01*
X20707Y9863D01*
Y9473D01*
X20609Y9375D01*
X20414D01*
X20317Y9473D01*
Y9570D01*
X20414Y9668D01*
X20707D01*
X21292Y9375D02*
X20902D01*
Y9668D01*
X21097Y9570D01*
X21195D01*
X21292Y9668D01*
Y9863D01*
X21195Y9961D01*
X21000D01*
X20902Y9863D01*
X21487Y9961D02*
X21878Y9570D01*
X22463Y9375D02*
X22073D01*
Y9961D01*
X22463D01*
X22073Y9668D02*
X22268D01*
X23049Y9473D02*
X22951Y9375D01*
X22756D01*
X22658Y9473D01*
Y9863D01*
X22756Y9961D01*
X22951D01*
X23049Y9863D01*
M02*
