G04*
G04 #@! TF.GenerationSoftware,Altium Limited,Altium Designer,24.10.1 (45)*
G04*
G04 Layer_Color=16711935*
%FSLAX43Y43*%
%MOMM*%
G71*
G04*
G04 #@! TF.SameCoordinates,E76F5DE2-06B9-4884-A6CF-3CBD088EBE90*
G04*
G04*
G04 #@! TF.FilePolarity,Negative*
G04*
G01*
G75*
%ADD29R,1.200X1.000*%
G04:AMPARAMS|DCode=30|XSize=1mm|YSize=0.46mm|CornerRadius=0.115mm|HoleSize=0mm|Usage=FLASHONLY|Rotation=0.000|XOffset=0mm|YOffset=0mm|HoleType=Round|Shape=RoundedRectangle|*
%AMROUNDEDRECTD30*
21,1,1.000,0.230,0,0,0.0*
21,1,0.770,0.460,0,0,0.0*
1,1,0.230,0.385,-0.115*
1,1,0.230,-0.385,-0.115*
1,1,0.230,-0.385,0.115*
1,1,0.230,0.385,0.115*
%
%ADD30ROUNDEDRECTD30*%
%ADD50C,0.500*%
%ADD58C,1.070*%
%ADD59C,2.203*%
%ADD60C,0.450*%
%ADD61C,0.508*%
%ADD110R,2.603X1.803*%
G36*
X122916Y1657D02*
X122963Y1648D01*
X123005Y1640D01*
X123041Y1629D01*
X123071Y1615D01*
X123093Y1607D01*
X123107Y1599D01*
X123113Y1596D01*
X123152Y1571D01*
X123185Y1543D01*
X123216Y1515D01*
X123241Y1487D01*
X123260Y1465D01*
X123277Y1446D01*
X123285Y1435D01*
X123288Y1429D01*
Y1629D01*
X123499D01*
Y235D01*
X123263D01*
Y957D01*
X123260Y1024D01*
X123257Y1082D01*
X123252Y1132D01*
X123243Y1174D01*
X123235Y1204D01*
X123229Y1227D01*
X123227Y1240D01*
X123224Y1246D01*
X123207Y1282D01*
X123188Y1313D01*
X123168Y1340D01*
X123149Y1363D01*
X123129Y1379D01*
X123116Y1390D01*
X123104Y1399D01*
X123102Y1401D01*
X123068Y1418D01*
X123038Y1432D01*
X123005Y1440D01*
X122977Y1449D01*
X122955Y1451D01*
X122935Y1454D01*
X122918D01*
X122871Y1451D01*
X122832Y1443D01*
X122799Y1429D01*
X122774Y1415D01*
X122755Y1399D01*
X122741Y1388D01*
X122732Y1376D01*
X122730Y1374D01*
X122710Y1340D01*
X122696Y1304D01*
X122685Y1265D01*
X122680Y1227D01*
X122674Y1193D01*
X122671Y1163D01*
Y1152D01*
Y1146D01*
Y1140D01*
Y1138D01*
Y235D01*
X122435Y235D01*
Y1043D01*
X122430Y1118D01*
X122419Y1182D01*
X122405Y1235D01*
X122385Y1279D01*
X122369Y1313D01*
X122352Y1335D01*
X122341Y1349D01*
X122338Y1354D01*
X122299Y1388D01*
X122258Y1413D01*
X122216Y1429D01*
X122177Y1443D01*
X122144Y1449D01*
X122116Y1451D01*
X122105Y1454D01*
X122091D01*
X122061Y1451D01*
X122036Y1449D01*
X122011Y1443D01*
X121991Y1435D01*
X121972Y1426D01*
X121961Y1421D01*
X121952Y1418D01*
X121950Y1415D01*
X121927Y1399D01*
X121911Y1382D01*
X121897Y1365D01*
X121886Y1349D01*
X121877Y1335D01*
X121872Y1324D01*
X121866Y1315D01*
Y1313D01*
X121858Y1288D01*
X121852Y1254D01*
X121850Y1221D01*
X121847Y1188D01*
X121844Y1157D01*
Y1132D01*
Y1115D01*
Y1113D01*
Y1110D01*
Y235D01*
X121608D01*
Y1190D01*
Y1235D01*
X121614Y1274D01*
X121619Y1313D01*
X121625Y1346D01*
X121633Y1379D01*
X121644Y1407D01*
X121653Y1432D01*
X121664Y1457D01*
X121675Y1476D01*
X121683Y1496D01*
X121702Y1521D01*
X121714Y1537D01*
X121719Y1543D01*
X121764Y1582D01*
X121816Y1610D01*
X121869Y1632D01*
X121919Y1646D01*
X121966Y1654D01*
X121986Y1657D01*
X122005D01*
X122019Y1660D01*
X122038D01*
X122088Y1657D01*
X122133Y1648D01*
X122177Y1637D01*
X122219Y1621D01*
X122258Y1601D01*
X122294Y1582D01*
X122324Y1560D01*
X122355Y1537D01*
X122383Y1512D01*
X122405Y1490D01*
X122424Y1471D01*
X122441Y1451D01*
X122455Y1435D01*
X122463Y1424D01*
X122469Y1415D01*
X122472Y1413D01*
X122488Y1454D01*
X122510Y1490D01*
X122535Y1521D01*
X122558Y1546D01*
X122580Y1568D01*
X122596Y1582D01*
X122608Y1590D01*
X122613Y1593D01*
X122652Y1615D01*
X122694Y1632D01*
X122735Y1643D01*
X122777Y1651D01*
X122810Y1657D01*
X122841Y1660D01*
X122866D01*
X122916Y1657D01*
D02*
G37*
G36*
X126444Y1973D02*
Y1629D01*
X126619D01*
Y1446D01*
X126444D01*
Y641D01*
Y602D01*
Y569D01*
X126441Y538D01*
X126439Y507D01*
Y482D01*
X126436Y460D01*
X126430Y424D01*
X126425Y396D01*
X126422Y377D01*
X126417Y366D01*
Y363D01*
X126405Y338D01*
X126389Y319D01*
X126372Y299D01*
X126358Y285D01*
X126342Y271D01*
X126330Y263D01*
X126322Y258D01*
X126319Y255D01*
X126289Y241D01*
X126258Y233D01*
X126225Y224D01*
X126192Y222D01*
X126164Y219D01*
X126142Y216D01*
X126119D01*
X126058Y219D01*
X126028Y222D01*
X126000Y227D01*
X125975Y230D01*
X125956Y233D01*
X125945Y235D01*
X125939D01*
X125970Y444D01*
X125992Y441D01*
X126014Y438D01*
X126033D01*
X126047Y435D01*
X126075D01*
X126111Y438D01*
X126136Y444D01*
X126150Y449D01*
X126156Y452D01*
X126175Y466D01*
X126186Y480D01*
X126194Y491D01*
X126197Y496D01*
X126200Y510D01*
X126203Y530D01*
X126206Y574D01*
X126208Y594D01*
Y610D01*
Y621D01*
Y627D01*
Y1446D01*
X125970D01*
Y1629D01*
X126208D01*
Y2115D01*
X126444Y1973D01*
D02*
G37*
G36*
X125697D02*
Y1629D01*
X125872D01*
Y1446D01*
X125697D01*
Y641D01*
Y602D01*
Y569D01*
X125695Y538D01*
X125692Y507D01*
Y482D01*
X125689Y460D01*
X125684Y424D01*
X125678Y396D01*
X125675Y377D01*
X125670Y366D01*
Y363D01*
X125659Y338D01*
X125642Y319D01*
X125625Y299D01*
X125611Y285D01*
X125595Y271D01*
X125584Y263D01*
X125575Y258D01*
X125573Y255D01*
X125542Y241D01*
X125511Y233D01*
X125478Y224D01*
X125445Y222D01*
X125417Y219D01*
X125395Y216D01*
X125373D01*
X125312Y219D01*
X125281Y222D01*
X125253Y227D01*
X125228Y230D01*
X125209Y233D01*
X125198Y235D01*
X125192D01*
X125223Y444D01*
X125245Y441D01*
X125267Y438D01*
X125287D01*
X125300Y435D01*
X125328D01*
X125364Y438D01*
X125389Y444D01*
X125403Y449D01*
X125409Y452D01*
X125428Y466D01*
X125439Y480D01*
X125448Y491D01*
X125450Y496D01*
X125453Y510D01*
X125456Y530D01*
X125459Y574D01*
X125462Y594D01*
Y610D01*
Y621D01*
Y627D01*
Y1446D01*
X125223D01*
Y1629D01*
X125462D01*
Y2115D01*
X125697Y1973D01*
D02*
G37*
G36*
X114620Y1657D02*
X114670Y1651D01*
X114718Y1643D01*
X114762Y1629D01*
X114804Y1615D01*
X114842Y1599D01*
X114879Y1582D01*
X114909Y1562D01*
X114940Y1546D01*
X114965Y1526D01*
X114987Y1510D01*
X115003Y1496D01*
X115017Y1482D01*
X115028Y1474D01*
X115034Y1468D01*
X115037Y1465D01*
X115067Y1426D01*
X115095Y1385D01*
X115120Y1343D01*
X115142Y1299D01*
X115159Y1251D01*
X115173Y1207D01*
X115195Y1118D01*
X115203Y1079D01*
X115209Y1041D01*
X115212Y1007D01*
X115214Y977D01*
X115217Y952D01*
Y935D01*
Y921D01*
Y918D01*
X115214Y857D01*
X115209Y799D01*
X115201Y743D01*
X115189Y693D01*
X115176Y646D01*
X115162Y602D01*
X115145Y563D01*
X115128Y527D01*
X115112Y496D01*
X115095Y469D01*
X115081Y446D01*
X115067Y427D01*
X115056Y410D01*
X115048Y399D01*
X115042Y394D01*
X115040Y391D01*
X115003Y358D01*
X114967Y330D01*
X114929Y305D01*
X114887Y283D01*
X114848Y266D01*
X114806Y249D01*
X114729Y227D01*
X114693Y222D01*
X114659Y216D01*
X114629Y210D01*
X114604Y208D01*
X114584Y205D01*
X114554D01*
X114468Y210D01*
X114390Y224D01*
X114321Y241D01*
X114293Y252D01*
X114265Y263D01*
X114240Y274D01*
X114218Y285D01*
X114201Y294D01*
X114184Y302D01*
X114173Y310D01*
X114165Y316D01*
X114160Y321D01*
X114157D01*
X114101Y371D01*
X114057Y424D01*
X114018Y480D01*
X113990Y532D01*
X113968Y580D01*
X113960Y602D01*
X113951Y619D01*
X113946Y635D01*
X113943Y646D01*
X113940Y652D01*
Y655D01*
X114184Y685D01*
X114207Y632D01*
X114232Y588D01*
X114257Y549D01*
X114279Y519D01*
X114298Y496D01*
X114315Y480D01*
X114329Y469D01*
X114332Y466D01*
X114368Y444D01*
X114404Y427D01*
X114443Y416D01*
X114476Y408D01*
X114507Y402D01*
X114532Y399D01*
X114554D01*
X114587Y402D01*
X114618Y405D01*
X114673Y419D01*
X114723Y438D01*
X114768Y460D01*
X114801Y480D01*
X114826Y499D01*
X114842Y513D01*
X114845Y519D01*
X114848D01*
X114887Y569D01*
X114917Y624D01*
X114940Y685D01*
X114956Y741D01*
X114965Y791D01*
X114970Y813D01*
X114973Y832D01*
Y849D01*
X114976Y860D01*
Y868D01*
Y871D01*
X113935D01*
X113932Y899D01*
Y918D01*
Y929D01*
Y932D01*
X113935Y996D01*
X113940Y1054D01*
X113949Y1110D01*
X113960Y1163D01*
X113974Y1210D01*
X113987Y1254D01*
X114004Y1293D01*
X114021Y1329D01*
X114037Y1363D01*
X114054Y1390D01*
X114068Y1413D01*
X114082Y1432D01*
X114093Y1449D01*
X114101Y1460D01*
X114107Y1465D01*
X114110Y1468D01*
X114143Y1501D01*
X114179Y1532D01*
X114218Y1557D01*
X114257Y1579D01*
X114296Y1599D01*
X114332Y1612D01*
X114370Y1626D01*
X114404Y1635D01*
X114440Y1643D01*
X114470Y1648D01*
X114498Y1654D01*
X114520Y1657D01*
X114540Y1660D01*
X114568D01*
X114620Y1657D01*
D02*
G37*
G36*
X129748Y235D02*
X129015D01*
X128948Y238D01*
X128890Y241D01*
X128837Y247D01*
X128793Y252D01*
X128757Y258D01*
X128729Y260D01*
X128712Y266D01*
X128707D01*
X128660Y280D01*
X128621Y294D01*
X128585Y310D01*
X128554Y327D01*
X128529Y338D01*
X128510Y349D01*
X128499Y358D01*
X128496Y360D01*
X128465Y385D01*
X128438Y416D01*
X128415Y446D01*
X128393Y474D01*
X128377Y502D01*
X128365Y521D01*
X128357Y535D01*
X128354Y541D01*
X128335Y585D01*
X128321Y630D01*
X128310Y671D01*
X128304Y710D01*
X128299Y743D01*
X128296Y771D01*
Y788D01*
Y791D01*
Y793D01*
X128299Y854D01*
X128310Y910D01*
X128327Y957D01*
X128343Y1002D01*
X128360Y1035D01*
X128377Y1060D01*
X128388Y1077D01*
X128390Y1082D01*
X128429Y1127D01*
X128471Y1163D01*
X128518Y1193D01*
X128560Y1218D01*
X128599Y1238D01*
X128632Y1249D01*
X128643Y1254D01*
X128651Y1257D01*
X128657Y1260D01*
X128660D01*
X128613Y1288D01*
X128571Y1315D01*
X128538Y1346D01*
X128510Y1374D01*
X128488Y1396D01*
X128471Y1418D01*
X128463Y1429D01*
X128460Y1435D01*
X128438Y1476D01*
X128421Y1515D01*
X128407Y1554D01*
X128399Y1590D01*
X128393Y1621D01*
X128390Y1646D01*
Y1660D01*
Y1665D01*
X128393Y1712D01*
X128402Y1760D01*
X128415Y1801D01*
X128429Y1840D01*
X128443Y1873D01*
X128457Y1896D01*
X128465Y1912D01*
X128468Y1918D01*
X128499Y1959D01*
X128532Y1998D01*
X128568Y2029D01*
X128601Y2054D01*
X128629Y2073D01*
X128654Y2087D01*
X128671Y2095D01*
X128674Y2098D01*
X128676D01*
X128729Y2118D01*
X128787Y2132D01*
X128846Y2143D01*
X128901Y2148D01*
X128951Y2154D01*
X128973D01*
X128993Y2157D01*
X129748D01*
Y235D01*
D02*
G37*
G36*
X117233Y235D02*
X116997D01*
Y2157D01*
X117233D01*
Y235D01*
D02*
G37*
G36*
X113163Y1657D02*
X113191Y1651D01*
X113218Y1643D01*
X113241Y1635D01*
X113257Y1626D01*
X113274Y1618D01*
X113282Y1612D01*
X113285Y1610D01*
X113310Y1587D01*
X113335Y1560D01*
X113360Y1526D01*
X113382Y1496D01*
X113404Y1465D01*
X113418Y1440D01*
X113429Y1421D01*
X113432Y1418D01*
Y1629D01*
X113646D01*
Y235D01*
X113410D01*
Y963D01*
X113407Y1018D01*
X113404Y1068D01*
X113399Y1115D01*
X113390Y1157D01*
X113382Y1190D01*
X113377Y1215D01*
X113374Y1232D01*
X113371Y1238D01*
X113360Y1268D01*
X113346Y1293D01*
X113332Y1315D01*
X113318Y1335D01*
X113304Y1349D01*
X113296Y1360D01*
X113288Y1365D01*
X113285Y1368D01*
X113263Y1385D01*
X113238Y1396D01*
X113213Y1404D01*
X113193Y1410D01*
X113174Y1413D01*
X113160Y1415D01*
X113146D01*
X113116Y1413D01*
X113085Y1407D01*
X113055Y1399D01*
X113030Y1390D01*
X113007Y1382D01*
X112991Y1374D01*
X112980Y1368D01*
X112977Y1365D01*
X112891Y1582D01*
X112938Y1607D01*
X112982Y1626D01*
X113021Y1640D01*
X113057Y1651D01*
X113088Y1657D01*
X113113Y1660D01*
X113132D01*
X113163Y1657D01*
D02*
G37*
G36*
X127460Y1657D02*
X127505Y1654D01*
X127591Y1635D01*
X127666Y1610D01*
X127699Y1596D01*
X127730Y1582D01*
X127757Y1568D01*
X127780Y1554D01*
X127802Y1540D01*
X127819Y1529D01*
X127832Y1518D01*
X127843Y1510D01*
X127849Y1507D01*
X127852Y1504D01*
X127891Y1468D01*
X127921Y1426D01*
X127952Y1382D01*
X127974Y1338D01*
X127996Y1290D01*
X128013Y1240D01*
X128027Y1193D01*
X128038Y1149D01*
X128049Y1104D01*
X128054Y1065D01*
X128060Y1027D01*
X128063Y996D01*
Y968D01*
X128066Y949D01*
Y938D01*
Y932D01*
X128063Y868D01*
X128057Y807D01*
X128049Y752D01*
X128038Y699D01*
X128024Y652D01*
X128010Y607D01*
X127993Y566D01*
X127977Y530D01*
X127960Y496D01*
X127943Y469D01*
X127930Y446D01*
X127916Y427D01*
X127905Y410D01*
X127896Y399D01*
X127891Y394D01*
X127888Y391D01*
X127852Y358D01*
X127816Y330D01*
X127777Y305D01*
X127738Y283D01*
X127699Y266D01*
X127657Y249D01*
X127583Y227D01*
X127549Y222D01*
X127516Y216D01*
X127488Y210D01*
X127463Y208D01*
X127441Y205D01*
X127413D01*
X127347Y208D01*
X127285Y219D01*
X127227Y233D01*
X127180Y247D01*
X127138Y263D01*
X127122Y269D01*
X127108Y274D01*
X127094Y280D01*
X127086Y285D01*
X127083Y288D01*
X127080D01*
X127025Y324D01*
X126977Y363D01*
X126936Y402D01*
X126902Y441D01*
X126877Y474D01*
X126858Y502D01*
X126852Y513D01*
X126847Y521D01*
X126844Y524D01*
Y527D01*
X126816Y591D01*
X126797Y660D01*
X126780Y730D01*
X126772Y799D01*
X126766Y830D01*
Y857D01*
X126764Y885D01*
X126761Y907D01*
Y927D01*
Y941D01*
Y949D01*
Y952D01*
X126764Y1013D01*
X126769Y1068D01*
X126777Y1121D01*
X126789Y1171D01*
X126802Y1218D01*
X126819Y1260D01*
X126836Y1301D01*
X126852Y1335D01*
X126869Y1365D01*
X126886Y1393D01*
X126902Y1418D01*
X126916Y1438D01*
X126927Y1451D01*
X126936Y1462D01*
X126941Y1468D01*
X126944Y1471D01*
X126980Y1504D01*
X127016Y1532D01*
X127055Y1560D01*
X127094Y1579D01*
X127133Y1599D01*
X127172Y1612D01*
X127247Y1637D01*
X127283Y1643D01*
X127313Y1648D01*
X127341Y1654D01*
X127366Y1657D01*
X127385Y1660D01*
X127413D01*
X127460Y1657D01*
D02*
G37*
G36*
X124473D02*
X124518Y1654D01*
X124604Y1635D01*
X124679Y1610D01*
X124712Y1596D01*
X124742Y1582D01*
X124770Y1568D01*
X124792Y1554D01*
X124815Y1540D01*
X124831Y1529D01*
X124845Y1518D01*
X124856Y1510D01*
X124862Y1507D01*
X124865Y1504D01*
X124903Y1468D01*
X124934Y1426D01*
X124965Y1382D01*
X124987Y1338D01*
X125009Y1290D01*
X125026Y1240D01*
X125040Y1193D01*
X125051Y1149D01*
X125062Y1104D01*
X125067Y1065D01*
X125073Y1027D01*
X125076Y996D01*
Y968D01*
X125078Y949D01*
Y938D01*
Y932D01*
X125076Y868D01*
X125070Y807D01*
X125062Y752D01*
X125051Y699D01*
X125037Y652D01*
X125023Y607D01*
X125006Y566D01*
X124990Y530D01*
X124973Y496D01*
X124956Y469D01*
X124942Y446D01*
X124928Y427D01*
X124917Y410D01*
X124909Y399D01*
X124903Y394D01*
X124901Y391D01*
X124865Y358D01*
X124829Y330D01*
X124790Y305D01*
X124751Y283D01*
X124712Y266D01*
X124670Y249D01*
X124595Y227D01*
X124562Y222D01*
X124529Y216D01*
X124501Y210D01*
X124476Y208D01*
X124454Y205D01*
X124426D01*
X124359Y208D01*
X124298Y219D01*
X124240Y233D01*
X124193Y247D01*
X124151Y263D01*
X124134Y269D01*
X124121Y274D01*
X124107Y280D01*
X124098Y285D01*
X124096Y288D01*
X124093D01*
X124037Y324D01*
X123990Y363D01*
X123948Y402D01*
X123915Y441D01*
X123890Y474D01*
X123871Y502D01*
X123865Y513D01*
X123860Y521D01*
X123857Y524D01*
Y527D01*
X123829Y591D01*
X123810Y660D01*
X123793Y730D01*
X123785Y799D01*
X123779Y830D01*
Y857D01*
X123776Y885D01*
X123774Y907D01*
Y927D01*
Y941D01*
Y949D01*
Y952D01*
X123776Y1013D01*
X123782Y1068D01*
X123790Y1121D01*
X123801Y1171D01*
X123815Y1218D01*
X123832Y1260D01*
X123849Y1301D01*
X123865Y1335D01*
X123882Y1365D01*
X123898Y1393D01*
X123915Y1418D01*
X123929Y1438D01*
X123940Y1451D01*
X123948Y1462D01*
X123954Y1468D01*
X123957Y1471D01*
X123993Y1504D01*
X124029Y1532D01*
X124068Y1560D01*
X124107Y1579D01*
X124146Y1599D01*
X124184Y1612D01*
X124259Y1637D01*
X124295Y1643D01*
X124326Y1648D01*
X124354Y1654D01*
X124379Y1657D01*
X124398Y1660D01*
X124426D01*
X124473Y1657D01*
D02*
G37*
G36*
X118204Y1657D02*
X118249Y1654D01*
X118335Y1635D01*
X118410Y1610D01*
X118443Y1596D01*
X118474Y1582D01*
X118502Y1568D01*
X118524Y1554D01*
X118546Y1540D01*
X118563Y1529D01*
X118576Y1518D01*
X118588Y1510D01*
X118593Y1507D01*
X118596Y1504D01*
X118635Y1468D01*
X118665Y1426D01*
X118696Y1382D01*
X118718Y1338D01*
X118740Y1290D01*
X118757Y1240D01*
X118771Y1193D01*
X118782Y1149D01*
X118793Y1104D01*
X118799Y1065D01*
X118804Y1027D01*
X118807Y996D01*
Y968D01*
X118810Y949D01*
Y938D01*
Y932D01*
X118807Y868D01*
X118801Y807D01*
X118793Y752D01*
X118782Y699D01*
X118768Y652D01*
X118754Y607D01*
X118737Y566D01*
X118721Y530D01*
X118704Y496D01*
X118688Y469D01*
X118674Y446D01*
X118660Y427D01*
X118649Y410D01*
X118640Y399D01*
X118635Y394D01*
X118632Y391D01*
X118596Y358D01*
X118560Y330D01*
X118521Y305D01*
X118482Y283D01*
X118443Y266D01*
X118402Y249D01*
X118327Y227D01*
X118293Y222D01*
X118260Y216D01*
X118232Y210D01*
X118207Y208D01*
X118185Y205D01*
X118157D01*
X118091Y208D01*
X118030Y219D01*
X117971Y233D01*
X117924Y247D01*
X117882Y263D01*
X117866Y269D01*
X117852Y274D01*
X117838Y280D01*
X117830Y285D01*
X117827Y288D01*
X117824D01*
X117769Y324D01*
X117721Y363D01*
X117680Y402D01*
X117646Y441D01*
X117621Y474D01*
X117602Y502D01*
X117596Y513D01*
X117591Y521D01*
X117588Y524D01*
Y527D01*
X117560Y591D01*
X117541Y660D01*
X117524Y730D01*
X117516Y799D01*
X117510Y830D01*
Y857D01*
X117508Y885D01*
X117505Y907D01*
Y927D01*
Y941D01*
Y949D01*
Y952D01*
X117508Y1013D01*
X117513Y1068D01*
X117522Y1121D01*
X117533Y1171D01*
X117546Y1218D01*
X117563Y1260D01*
X117580Y1301D01*
X117596Y1335D01*
X117613Y1365D01*
X117630Y1393D01*
X117646Y1418D01*
X117660Y1438D01*
X117671Y1451D01*
X117680Y1462D01*
X117685Y1468D01*
X117688Y1471D01*
X117724Y1504D01*
X117760Y1532D01*
X117799Y1560D01*
X117838Y1579D01*
X117877Y1599D01*
X117916Y1612D01*
X117991Y1637D01*
X118027Y1643D01*
X118057Y1648D01*
X118085Y1654D01*
X118110Y1657D01*
X118130Y1660D01*
X118157D01*
X118204Y1657D01*
D02*
G37*
G36*
X115747Y1468D02*
X115772Y1499D01*
X115800Y1524D01*
X115825Y1549D01*
X115853Y1568D01*
X115875Y1582D01*
X115892Y1596D01*
X115903Y1601D01*
X115909Y1604D01*
X115945Y1623D01*
X115983Y1637D01*
X116022Y1646D01*
X116058Y1654D01*
X116089Y1657D01*
X116111Y1660D01*
X116133D01*
X116194Y1657D01*
X116253Y1646D01*
X116306Y1632D01*
X116350Y1615D01*
X116389Y1596D01*
X116417Y1582D01*
X116428Y1576D01*
X116436Y1571D01*
X116439Y1568D01*
X116442D01*
X116492Y1532D01*
X116533Y1487D01*
X116569Y1446D01*
X116597Y1404D01*
X116619Y1365D01*
X116636Y1335D01*
X116641Y1324D01*
X116647Y1315D01*
X116650Y1310D01*
Y1307D01*
X116672Y1243D01*
X116689Y1177D01*
X116703Y1113D01*
X116711Y1054D01*
X116716Y1004D01*
Y982D01*
X116719Y966D01*
Y949D01*
Y938D01*
Y932D01*
Y929D01*
X116716Y852D01*
X116708Y780D01*
X116694Y716D01*
X116680Y660D01*
X116675Y635D01*
X116669Y616D01*
X116661Y596D01*
X116655Y580D01*
X116650Y569D01*
X116647Y560D01*
X116644Y555D01*
Y552D01*
X116614Y494D01*
X116578Y444D01*
X116541Y399D01*
X116505Y363D01*
X116475Y335D01*
X116450Y313D01*
X116433Y302D01*
X116430Y296D01*
X116428D01*
X116375Y266D01*
X116322Y244D01*
X116269Y227D01*
X116222Y216D01*
X116183Y210D01*
X116150Y208D01*
X116139Y205D01*
X116122D01*
X116075Y208D01*
X116031Y213D01*
X115989Y224D01*
X115953Y238D01*
X115917Y252D01*
X115884Y269D01*
X115856Y288D01*
X115831Y308D01*
X115806Y327D01*
X115786Y346D01*
X115770Y363D01*
X115756Y377D01*
X115745Y391D01*
X115736Y402D01*
X115734Y408D01*
X115731Y410D01*
Y235D01*
X115512D01*
Y2157D01*
X115747D01*
Y1468D01*
D02*
G37*
G36*
X119892Y2187D02*
X119956Y2179D01*
X120017Y2168D01*
X120070Y2157D01*
X120112Y2145D01*
X120131Y2140D01*
X120145Y2134D01*
X120156Y2129D01*
X120164Y2126D01*
X120170Y2123D01*
X120173D01*
X120228Y2095D01*
X120278Y2065D01*
X120320Y2032D01*
X120353Y2001D01*
X120378Y1973D01*
X120398Y1951D01*
X120412Y1934D01*
X120414Y1932D01*
Y1929D01*
X120442Y1882D01*
X120462Y1834D01*
X120475Y1787D01*
X120484Y1746D01*
X120489Y1710D01*
X120495Y1682D01*
Y1671D01*
Y1662D01*
Y1660D01*
Y1657D01*
X120492Y1610D01*
X120484Y1565D01*
X120473Y1524D01*
X120462Y1487D01*
X120450Y1460D01*
X120439Y1438D01*
X120431Y1424D01*
X120428Y1418D01*
X120400Y1379D01*
X120367Y1343D01*
X120334Y1313D01*
X120300Y1288D01*
X120273Y1265D01*
X120248Y1251D01*
X120231Y1240D01*
X120228Y1238D01*
X120226D01*
X120203Y1227D01*
X120178Y1215D01*
X120123Y1196D01*
X120059Y1177D01*
X119998Y1157D01*
X119942Y1140D01*
X119917Y1135D01*
X119895Y1129D01*
X119879Y1124D01*
X119865Y1121D01*
X119856Y1118D01*
X119854D01*
X119806Y1107D01*
X119762Y1096D01*
X119723Y1085D01*
X119690Y1077D01*
X119656Y1068D01*
X119629Y1060D01*
X119604Y1054D01*
X119584Y1046D01*
X119565Y1041D01*
X119551Y1038D01*
X119529Y1029D01*
X119515Y1027D01*
X119512Y1024D01*
X119470Y1007D01*
X119434Y988D01*
X119404Y968D01*
X119382Y952D01*
X119362Y935D01*
X119351Y924D01*
X119343Y916D01*
X119340Y913D01*
X119321Y888D01*
X119307Y860D01*
X119298Y832D01*
X119290Y810D01*
X119287Y788D01*
X119284Y771D01*
Y757D01*
Y755D01*
X119287Y721D01*
X119293Y691D01*
X119301Y663D01*
X119312Y641D01*
X119323Y619D01*
X119332Y605D01*
X119337Y594D01*
X119340Y591D01*
X119362Y563D01*
X119390Y541D01*
X119418Y521D01*
X119443Y502D01*
X119468Y491D01*
X119487Y480D01*
X119501Y474D01*
X119507Y471D01*
X119548Y457D01*
X119593Y446D01*
X119637Y441D01*
X119676Y435D01*
X119709Y433D01*
X119737Y430D01*
X119762D01*
X119823Y433D01*
X119879Y438D01*
X119928Y446D01*
X119973Y457D01*
X120009Y469D01*
X120037Y477D01*
X120045Y480D01*
X120053Y482D01*
X120056Y485D01*
X120059D01*
X120103Y507D01*
X120145Y532D01*
X120176Y557D01*
X120203Y582D01*
X120226Y602D01*
X120239Y621D01*
X120248Y632D01*
X120251Y635D01*
X120270Y671D01*
X120289Y710D01*
X120300Y752D01*
X120312Y788D01*
X120320Y824D01*
X120325Y849D01*
Y860D01*
X120328Y868D01*
Y871D01*
Y874D01*
X120567Y852D01*
X120561Y782D01*
X120550Y716D01*
X120534Y657D01*
X120514Y605D01*
X120495Y563D01*
X120487Y546D01*
X120481Y532D01*
X120473Y521D01*
X120470Y513D01*
X120464Y507D01*
Y505D01*
X120423Y452D01*
X120378Y405D01*
X120331Y366D01*
X120287Y333D01*
X120248Y308D01*
X120214Y291D01*
X120203Y285D01*
X120195Y280D01*
X120189Y277D01*
X120187D01*
X120117Y252D01*
X120045Y233D01*
X119973Y222D01*
X119904Y210D01*
X119870Y208D01*
X119842Y205D01*
X119817D01*
X119795Y202D01*
X119751D01*
X119676Y205D01*
X119606Y213D01*
X119543Y227D01*
X119490Y241D01*
X119445Y252D01*
X119426Y260D01*
X119409Y266D01*
X119398Y271D01*
X119390Y274D01*
X119384Y277D01*
X119382D01*
X119323Y308D01*
X119273Y341D01*
X119229Y377D01*
X119193Y410D01*
X119165Y438D01*
X119146Y463D01*
X119132Y480D01*
X119129Y482D01*
Y485D01*
X119098Y538D01*
X119076Y588D01*
X119062Y635D01*
X119051Y680D01*
X119046Y718D01*
X119040Y749D01*
Y760D01*
Y768D01*
Y771D01*
Y774D01*
X119043Y830D01*
X119051Y882D01*
X119065Y929D01*
X119079Y968D01*
X119096Y1002D01*
X119107Y1027D01*
X119118Y1041D01*
X119121Y1046D01*
X119154Y1088D01*
X119193Y1127D01*
X119234Y1160D01*
X119276Y1190D01*
X119312Y1213D01*
X119343Y1229D01*
X119354Y1235D01*
X119362Y1240D01*
X119368Y1243D01*
X119370D01*
X119393Y1254D01*
X119420Y1263D01*
X119451Y1274D01*
X119484Y1285D01*
X119554Y1304D01*
X119626Y1324D01*
X119659Y1332D01*
X119690Y1340D01*
X119720Y1349D01*
X119745Y1354D01*
X119765Y1360D01*
X119781Y1363D01*
X119792Y1365D01*
X119795D01*
X119851Y1379D01*
X119901Y1390D01*
X119945Y1404D01*
X119984Y1415D01*
X120020Y1429D01*
X120051Y1440D01*
X120078Y1451D01*
X120103Y1460D01*
X120123Y1471D01*
X120139Y1479D01*
X120151Y1485D01*
X120162Y1493D01*
X120176Y1501D01*
X120178Y1504D01*
X120203Y1532D01*
X120220Y1560D01*
X120234Y1587D01*
X120242Y1615D01*
X120248Y1637D01*
X120251Y1657D01*
Y1668D01*
Y1673D01*
X120245Y1718D01*
X120234Y1757D01*
X120217Y1790D01*
X120198Y1821D01*
X120181Y1843D01*
X120164Y1862D01*
X120153Y1873D01*
X120148Y1876D01*
X120126Y1890D01*
X120103Y1904D01*
X120051Y1926D01*
X119995Y1940D01*
X119940Y1951D01*
X119890Y1957D01*
X119867Y1959D01*
X119851Y1962D01*
X119812D01*
X119734Y1959D01*
X119665Y1948D01*
X119609Y1932D01*
X119562Y1915D01*
X119526Y1898D01*
X119498Y1882D01*
X119484Y1871D01*
X119479Y1868D01*
X119440Y1829D01*
X119409Y1787D01*
X119384Y1743D01*
X119368Y1698D01*
X119357Y1657D01*
X119348Y1626D01*
X119345Y1612D01*
X119343Y1604D01*
Y1599D01*
Y1596D01*
X119098Y1615D01*
X119104Y1676D01*
X119118Y1732D01*
X119132Y1785D01*
X119151Y1829D01*
X119168Y1865D01*
X119182Y1893D01*
X119187Y1901D01*
X119193Y1909D01*
X119196Y1912D01*
Y1915D01*
X119232Y1962D01*
X119271Y2004D01*
X119312Y2040D01*
X119354Y2068D01*
X119390Y2093D01*
X119418Y2107D01*
X119429Y2112D01*
X119437Y2118D01*
X119443Y2120D01*
X119445D01*
X119507Y2143D01*
X119573Y2159D01*
X119634Y2173D01*
X119693Y2182D01*
X119745Y2187D01*
X119765D01*
X119784Y2190D01*
X119820D01*
X119892Y2187D01*
D02*
G37*
G36*
X86932Y2184D02*
X87029Y2170D01*
X87074Y2162D01*
X87115Y2151D01*
X87154Y2143D01*
X87190Y2132D01*
X87224Y2120D01*
X87251Y2109D01*
X87276Y2098D01*
X87299Y2090D01*
X87315Y2082D01*
X87326Y2076D01*
X87335Y2073D01*
X87337Y2070D01*
X87376Y2045D01*
X87415Y2021D01*
X87482Y1962D01*
X87540Y1904D01*
X87587Y1843D01*
X87626Y1790D01*
X87640Y1768D01*
X87651Y1746D01*
X87662Y1729D01*
X87668Y1718D01*
X87671Y1710D01*
X87673Y1707D01*
X87712Y1615D01*
X87740Y1524D01*
X87762Y1435D01*
X87768Y1393D01*
X87776Y1354D01*
X87779Y1318D01*
X87784Y1288D01*
X87787Y1257D01*
Y1232D01*
X87790Y1213D01*
Y1199D01*
Y1188D01*
Y1185D01*
X87784Y1082D01*
X87770Y985D01*
X87762Y941D01*
X87754Y899D01*
X87743Y857D01*
X87732Y821D01*
X87720Y788D01*
X87709Y760D01*
X87701Y732D01*
X87693Y713D01*
X87684Y693D01*
X87679Y682D01*
X87673Y674D01*
Y671D01*
X87623Y591D01*
X87568Y521D01*
X87509Y460D01*
X87454Y410D01*
X87401Y371D01*
X87382Y358D01*
X87362Y344D01*
X87346Y335D01*
X87335Y327D01*
X87326Y324D01*
X87323Y321D01*
X87279Y299D01*
X87235Y283D01*
X87146Y252D01*
X87060Y233D01*
X86979Y216D01*
X86943Y213D01*
X86910Y208D01*
X86879Y205D01*
X86854D01*
X86835Y202D01*
X86807D01*
X86729Y205D01*
X86654Y213D01*
X86585Y227D01*
X86524Y241D01*
X86499Y247D01*
X86474Y252D01*
X86452Y260D01*
X86432Y266D01*
X86418Y271D01*
X86407Y274D01*
X86402Y277D01*
X86399D01*
X86324Y308D01*
X86255Y344D01*
X86188Y383D01*
X86130Y419D01*
X86105Y435D01*
X86080Y452D01*
X86060Y466D01*
X86044Y477D01*
X86030Y488D01*
X86019Y496D01*
X86013Y499D01*
X86010Y502D01*
Y1215D01*
X86827D01*
Y988D01*
X86260D01*
Y627D01*
X86294Y599D01*
X86332Y574D01*
X86374Y552D01*
X86413Y532D01*
X86446Y516D01*
X86477Y502D01*
X86488Y496D01*
X86493Y494D01*
X86499Y491D01*
X86502D01*
X86560Y471D01*
X86618Y455D01*
X86671Y444D01*
X86721Y438D01*
X86763Y433D01*
X86779D01*
X86796Y430D01*
X86824D01*
X86893Y433D01*
X86960Y444D01*
X87021Y457D01*
X87076Y471D01*
X87121Y488D01*
X87140Y494D01*
X87154Y499D01*
X87168Y505D01*
X87176Y510D01*
X87182Y513D01*
X87185D01*
X87243Y549D01*
X87296Y588D01*
X87340Y630D01*
X87376Y671D01*
X87407Y710D01*
X87426Y741D01*
X87435Y752D01*
X87437Y760D01*
X87443Y766D01*
Y768D01*
X87471Y838D01*
X87493Y910D01*
X87507Y982D01*
X87518Y1052D01*
X87521Y1082D01*
X87523Y1110D01*
X87526Y1138D01*
Y1160D01*
X87529Y1177D01*
Y1190D01*
Y1199D01*
Y1202D01*
X87526Y1279D01*
X87518Y1349D01*
X87507Y1415D01*
X87493Y1474D01*
X87487Y1499D01*
X87479Y1521D01*
X87473Y1540D01*
X87468Y1557D01*
X87462Y1571D01*
X87460Y1579D01*
X87457Y1585D01*
Y1587D01*
X87437Y1626D01*
X87418Y1662D01*
X87398Y1696D01*
X87379Y1723D01*
X87362Y1746D01*
X87348Y1765D01*
X87337Y1776D01*
X87335Y1779D01*
X87304Y1810D01*
X87271Y1837D01*
X87235Y1859D01*
X87201Y1882D01*
X87174Y1896D01*
X87151Y1909D01*
X87135Y1915D01*
X87129Y1918D01*
X87079Y1937D01*
X87029Y1951D01*
X86976Y1959D01*
X86929Y1968D01*
X86888Y1971D01*
X86871D01*
X86857Y1973D01*
X86827D01*
X86774Y1971D01*
X86724Y1965D01*
X86679Y1957D01*
X86641Y1948D01*
X86607Y1937D01*
X86582Y1929D01*
X86568Y1923D01*
X86563Y1921D01*
X86521Y1901D01*
X86485Y1879D01*
X86452Y1857D01*
X86427Y1834D01*
X86407Y1815D01*
X86391Y1801D01*
X86382Y1790D01*
X86380Y1787D01*
X86355Y1754D01*
X86335Y1715D01*
X86316Y1679D01*
X86299Y1640D01*
X86288Y1607D01*
X86280Y1582D01*
X86277Y1571D01*
X86274Y1562D01*
X86271Y1560D01*
Y1557D01*
X86041Y1618D01*
X86060Y1687D01*
X86085Y1748D01*
X86110Y1804D01*
X86132Y1848D01*
X86155Y1884D01*
X86171Y1909D01*
X86182Y1926D01*
X86188Y1932D01*
X86227Y1976D01*
X86269Y2012D01*
X86313Y2045D01*
X86355Y2073D01*
X86393Y2093D01*
X86424Y2109D01*
X86435Y2115D01*
X86443Y2118D01*
X86449Y2120D01*
X86452D01*
X86516Y2143D01*
X86582Y2159D01*
X86643Y2173D01*
X86702Y2182D01*
X86754Y2187D01*
X86777D01*
X86793Y2190D01*
X86882D01*
X86932Y2184D01*
D02*
G37*
G36*
X88434Y235D02*
X88165D01*
Y505D01*
X88434D01*
Y235D01*
D02*
G37*
G36*
X85647D02*
X84914D01*
X84847Y238D01*
X84789Y241D01*
X84736Y247D01*
X84692Y252D01*
X84656Y258D01*
X84628Y260D01*
X84611Y266D01*
X84606D01*
X84558Y280D01*
X84520Y294D01*
X84483Y310D01*
X84453Y327D01*
X84428Y338D01*
X84408Y349D01*
X84397Y358D01*
X84395Y360D01*
X84364Y385D01*
X84336Y416D01*
X84314Y446D01*
X84292Y474D01*
X84275Y502D01*
X84264Y521D01*
X84256Y535D01*
X84253Y541D01*
X84234Y585D01*
X84220Y630D01*
X84209Y671D01*
X84203Y710D01*
X84197Y743D01*
X84195Y771D01*
Y788D01*
Y791D01*
Y793D01*
X84197Y854D01*
X84209Y910D01*
X84225Y957D01*
X84242Y1002D01*
X84259Y1035D01*
X84275Y1060D01*
X84286Y1077D01*
X84289Y1082D01*
X84328Y1127D01*
X84370Y1163D01*
X84417Y1193D01*
X84458Y1218D01*
X84497Y1238D01*
X84531Y1249D01*
X84542Y1254D01*
X84550Y1257D01*
X84556Y1260D01*
X84558D01*
X84511Y1288D01*
X84470Y1315D01*
X84436Y1346D01*
X84408Y1374D01*
X84386Y1396D01*
X84370Y1418D01*
X84361Y1429D01*
X84358Y1435D01*
X84336Y1476D01*
X84320Y1515D01*
X84306Y1554D01*
X84297Y1590D01*
X84292Y1621D01*
X84289Y1646D01*
Y1660D01*
Y1665D01*
X84292Y1712D01*
X84300Y1760D01*
X84314Y1801D01*
X84328Y1840D01*
X84342Y1873D01*
X84356Y1896D01*
X84364Y1912D01*
X84367Y1918D01*
X84397Y1959D01*
X84431Y1998D01*
X84467Y2029D01*
X84500Y2054D01*
X84528Y2073D01*
X84553Y2087D01*
X84569Y2095D01*
X84572Y2098D01*
X84575D01*
X84628Y2118D01*
X84686Y2132D01*
X84744Y2143D01*
X84800Y2148D01*
X84850Y2154D01*
X84872D01*
X84892Y2157D01*
X85647D01*
Y235D01*
D02*
G37*
G36*
X83256Y2187D02*
X83320Y2179D01*
X83381Y2168D01*
X83434Y2157D01*
X83476Y2145D01*
X83495Y2140D01*
X83509Y2134D01*
X83520Y2129D01*
X83528Y2126D01*
X83534Y2123D01*
X83537D01*
X83592Y2095D01*
X83642Y2065D01*
X83684Y2032D01*
X83717Y2001D01*
X83742Y1973D01*
X83762Y1951D01*
X83775Y1934D01*
X83778Y1932D01*
Y1929D01*
X83806Y1882D01*
X83825Y1834D01*
X83839Y1787D01*
X83848Y1746D01*
X83853Y1710D01*
X83859Y1682D01*
Y1671D01*
Y1662D01*
Y1660D01*
Y1657D01*
X83856Y1610D01*
X83848Y1565D01*
X83837Y1524D01*
X83825Y1487D01*
X83814Y1460D01*
X83803Y1438D01*
X83795Y1424D01*
X83792Y1418D01*
X83764Y1379D01*
X83731Y1343D01*
X83698Y1313D01*
X83664Y1288D01*
X83637Y1265D01*
X83612Y1251D01*
X83595Y1240D01*
X83592Y1238D01*
X83589D01*
X83567Y1227D01*
X83542Y1215D01*
X83487Y1196D01*
X83423Y1177D01*
X83362Y1157D01*
X83306Y1140D01*
X83281Y1135D01*
X83259Y1129D01*
X83242Y1124D01*
X83229Y1121D01*
X83220Y1118D01*
X83217D01*
X83170Y1107D01*
X83126Y1096D01*
X83087Y1085D01*
X83054Y1077D01*
X83020Y1068D01*
X82993Y1060D01*
X82968Y1054D01*
X82948Y1046D01*
X82929Y1041D01*
X82915Y1038D01*
X82893Y1029D01*
X82879Y1027D01*
X82876Y1024D01*
X82834Y1007D01*
X82798Y988D01*
X82768Y968D01*
X82745Y952D01*
X82726Y935D01*
X82715Y924D01*
X82707Y916D01*
X82704Y913D01*
X82684Y888D01*
X82671Y860D01*
X82662Y832D01*
X82654Y810D01*
X82651Y788D01*
X82648Y771D01*
Y757D01*
Y755D01*
X82651Y721D01*
X82657Y691D01*
X82665Y663D01*
X82676Y641D01*
X82687Y619D01*
X82696Y605D01*
X82701Y594D01*
X82704Y591D01*
X82726Y563D01*
X82754Y541D01*
X82782Y521D01*
X82807Y502D01*
X82832Y491D01*
X82851Y480D01*
X82865Y474D01*
X82870Y471D01*
X82912Y457D01*
X82956Y446D01*
X83001Y441D01*
X83040Y435D01*
X83073Y433D01*
X83101Y430D01*
X83126D01*
X83187Y433D01*
X83242Y438D01*
X83292Y446D01*
X83337Y457D01*
X83373Y469D01*
X83401Y477D01*
X83409Y480D01*
X83417Y482D01*
X83420Y485D01*
X83423D01*
X83467Y507D01*
X83509Y532D01*
X83539Y557D01*
X83567Y582D01*
X83589Y602D01*
X83603Y621D01*
X83612Y632D01*
X83614Y635D01*
X83634Y671D01*
X83653Y710D01*
X83664Y752D01*
X83676Y788D01*
X83684Y824D01*
X83689Y849D01*
Y860D01*
X83692Y868D01*
Y871D01*
Y874D01*
X83931Y852D01*
X83925Y782D01*
X83914Y716D01*
X83898Y657D01*
X83878Y605D01*
X83859Y563D01*
X83850Y546D01*
X83845Y532D01*
X83837Y521D01*
X83834Y513D01*
X83828Y507D01*
Y505D01*
X83787Y452D01*
X83742Y405D01*
X83695Y366D01*
X83651Y333D01*
X83612Y308D01*
X83578Y291D01*
X83567Y285D01*
X83559Y280D01*
X83553Y277D01*
X83551D01*
X83481Y252D01*
X83409Y233D01*
X83337Y222D01*
X83267Y210D01*
X83234Y208D01*
X83206Y205D01*
X83181D01*
X83159Y202D01*
X83115D01*
X83040Y205D01*
X82970Y213D01*
X82907Y227D01*
X82854Y241D01*
X82809Y252D01*
X82790Y260D01*
X82773Y266D01*
X82762Y271D01*
X82754Y274D01*
X82748Y277D01*
X82745D01*
X82687Y308D01*
X82637Y341D01*
X82593Y377D01*
X82557Y410D01*
X82529Y438D01*
X82510Y463D01*
X82496Y480D01*
X82493Y482D01*
Y485D01*
X82462Y538D01*
X82440Y588D01*
X82426Y635D01*
X82415Y680D01*
X82410Y718D01*
X82404Y749D01*
Y760D01*
Y768D01*
Y771D01*
Y774D01*
X82407Y830D01*
X82415Y882D01*
X82429Y929D01*
X82443Y968D01*
X82460Y1002D01*
X82471Y1027D01*
X82482Y1041D01*
X82485Y1046D01*
X82518Y1088D01*
X82557Y1127D01*
X82598Y1160D01*
X82640Y1190D01*
X82676Y1213D01*
X82707Y1229D01*
X82718Y1235D01*
X82726Y1240D01*
X82732Y1243D01*
X82734D01*
X82757Y1254D01*
X82784Y1263D01*
X82815Y1274D01*
X82848Y1285D01*
X82918Y1304D01*
X82990Y1324D01*
X83023Y1332D01*
X83054Y1340D01*
X83084Y1349D01*
X83109Y1354D01*
X83129Y1360D01*
X83145Y1363D01*
X83156Y1365D01*
X83159D01*
X83215Y1379D01*
X83265Y1390D01*
X83309Y1404D01*
X83348Y1415D01*
X83384Y1429D01*
X83415Y1440D01*
X83442Y1451D01*
X83467Y1460D01*
X83487Y1471D01*
X83503Y1479D01*
X83515Y1485D01*
X83526Y1493D01*
X83539Y1501D01*
X83542Y1504D01*
X83567Y1532D01*
X83584Y1560D01*
X83598Y1587D01*
X83606Y1615D01*
X83612Y1637D01*
X83614Y1657D01*
Y1668D01*
Y1673D01*
X83609Y1718D01*
X83598Y1757D01*
X83581Y1790D01*
X83562Y1821D01*
X83545Y1843D01*
X83528Y1862D01*
X83517Y1873D01*
X83512Y1876D01*
X83490Y1890D01*
X83467Y1904D01*
X83415Y1926D01*
X83359Y1940D01*
X83304Y1951D01*
X83254Y1957D01*
X83231Y1959D01*
X83215Y1962D01*
X83176D01*
X83098Y1959D01*
X83029Y1948D01*
X82973Y1932D01*
X82926Y1915D01*
X82890Y1898D01*
X82862Y1882D01*
X82848Y1871D01*
X82843Y1868D01*
X82804Y1829D01*
X82773Y1787D01*
X82748Y1743D01*
X82732Y1698D01*
X82721Y1657D01*
X82712Y1626D01*
X82709Y1612D01*
X82707Y1604D01*
Y1599D01*
Y1596D01*
X82462Y1615D01*
X82468Y1676D01*
X82482Y1732D01*
X82496Y1785D01*
X82515Y1829D01*
X82532Y1865D01*
X82546Y1893D01*
X82551Y1901D01*
X82557Y1909D01*
X82560Y1912D01*
Y1915D01*
X82596Y1962D01*
X82634Y2004D01*
X82676Y2040D01*
X82718Y2068D01*
X82754Y2093D01*
X82782Y2107D01*
X82793Y2112D01*
X82801Y2118D01*
X82807Y2120D01*
X82809D01*
X82870Y2143D01*
X82937Y2159D01*
X82998Y2173D01*
X83056Y2182D01*
X83109Y2187D01*
X83129D01*
X83148Y2190D01*
X83184D01*
X83256Y2187D01*
D02*
G37*
%LPC*%
G36*
X114581Y1465D02*
X114565D01*
X114532Y1462D01*
X114501Y1460D01*
X114443Y1443D01*
X114393Y1421D01*
X114351Y1396D01*
X114318Y1371D01*
X114293Y1349D01*
X114279Y1332D01*
X114273Y1329D01*
Y1326D01*
X114248Y1290D01*
X114226Y1249D01*
X114212Y1207D01*
X114198Y1163D01*
X114190Y1127D01*
X114184Y1093D01*
Y1082D01*
X114182Y1074D01*
Y1068D01*
Y1065D01*
X114962D01*
X114953Y1129D01*
X114937Y1188D01*
X114917Y1238D01*
X114895Y1276D01*
X114876Y1310D01*
X114856Y1335D01*
X114845Y1349D01*
X114840Y1354D01*
X114795Y1390D01*
X114751Y1418D01*
X114704Y1438D01*
X114659Y1451D01*
X114623Y1460D01*
X114593Y1462D01*
X114581Y1465D01*
D02*
G37*
G36*
X129493Y1929D02*
X129037D01*
X128976Y1923D01*
X128929Y1921D01*
X128887Y1915D01*
X128857Y1909D01*
X128837Y1907D01*
X128824Y1901D01*
X128821D01*
X128790Y1890D01*
X128762Y1873D01*
X128740Y1857D01*
X128721Y1840D01*
X128707Y1826D01*
X128696Y1812D01*
X128690Y1804D01*
X128687Y1801D01*
X128671Y1773D01*
X128660Y1746D01*
X128651Y1718D01*
X128646Y1690D01*
X128643Y1668D01*
X128640Y1651D01*
Y1640D01*
Y1635D01*
X128643Y1599D01*
X128649Y1565D01*
X128657Y1537D01*
X128665Y1515D01*
X128674Y1496D01*
X128682Y1479D01*
X128687Y1471D01*
X128690Y1468D01*
X128710Y1446D01*
X128735Y1424D01*
X128760Y1407D01*
X128782Y1396D01*
X128804Y1385D01*
X128821Y1376D01*
X128832Y1374D01*
X128837Y1371D01*
X128868Y1365D01*
X128907Y1360D01*
X128946Y1357D01*
X128985Y1354D01*
X129021Y1351D01*
X129493D01*
Y1929D01*
D02*
G37*
G36*
Y1124D02*
X128987D01*
X128929Y1118D01*
X128882Y1113D01*
X128843Y1107D01*
X128812Y1102D01*
X128787Y1096D01*
X128776Y1093D01*
X128771Y1090D01*
X128735Y1077D01*
X128704Y1060D01*
X128676Y1041D01*
X128654Y1021D01*
X128637Y1004D01*
X128626Y991D01*
X128618Y979D01*
X128615Y977D01*
X128596Y946D01*
X128582Y916D01*
X128571Y885D01*
X128565Y857D01*
X128560Y832D01*
X128557Y810D01*
Y799D01*
Y793D01*
X128560Y760D01*
X128563Y727D01*
X128568Y699D01*
X128576Y677D01*
X128585Y657D01*
X128590Y641D01*
X128593Y632D01*
X128596Y630D01*
X128613Y605D01*
X128626Y582D01*
X128646Y566D01*
X128660Y549D01*
X128674Y538D01*
X128685Y530D01*
X128693Y524D01*
X128696Y521D01*
X128743Y499D01*
X128790Y482D01*
X128810Y477D01*
X128826Y474D01*
X128837Y471D01*
X128840D01*
X128862Y469D01*
X128887Y466D01*
X128946Y463D01*
X129493D01*
Y1124D01*
D02*
G37*
G36*
X127430Y1465D02*
X127413D01*
X127380Y1462D01*
X127349Y1460D01*
X127294Y1446D01*
X127244Y1424D01*
X127202Y1399D01*
X127169Y1374D01*
X127144Y1354D01*
X127127Y1338D01*
X127122Y1335D01*
Y1332D01*
X127099Y1307D01*
X127083Y1276D01*
X127052Y1215D01*
X127030Y1149D01*
X127016Y1088D01*
X127008Y1029D01*
X127005Y1004D01*
Y982D01*
X127002Y966D01*
Y952D01*
Y943D01*
Y941D01*
Y891D01*
X127008Y843D01*
X127013Y802D01*
X127022Y760D01*
X127030Y724D01*
X127041Y691D01*
X127049Y660D01*
X127061Y632D01*
X127072Y610D01*
X127083Y588D01*
X127094Y571D01*
X127102Y557D01*
X127111Y546D01*
X127116Y538D01*
X127119Y535D01*
X127122Y532D01*
X127144Y510D01*
X127169Y488D01*
X127216Y455D01*
X127266Y433D01*
X127310Y416D01*
X127352Y408D01*
X127383Y402D01*
X127397Y399D01*
X127413D01*
X127446Y402D01*
X127477Y405D01*
X127535Y419D01*
X127585Y441D01*
X127627Y466D01*
X127660Y488D01*
X127685Y510D01*
X127702Y524D01*
X127705Y530D01*
X127707D01*
X127727Y557D01*
X127746Y585D01*
X127774Y649D01*
X127796Y716D01*
X127810Y782D01*
X127819Y841D01*
X127821Y866D01*
Y888D01*
X127824Y907D01*
Y921D01*
Y929D01*
Y932D01*
X127821Y979D01*
X127819Y1027D01*
X127813Y1068D01*
X127805Y1107D01*
X127796Y1143D01*
X127788Y1177D01*
X127777Y1204D01*
X127766Y1232D01*
X127755Y1254D01*
X127744Y1276D01*
X127735Y1293D01*
X127727Y1307D01*
X127719Y1318D01*
X127713Y1326D01*
X127707Y1329D01*
Y1332D01*
X127685Y1354D01*
X127660Y1376D01*
X127613Y1410D01*
X127563Y1432D01*
X127516Y1449D01*
X127474Y1460D01*
X127444Y1462D01*
X127430Y1465D01*
D02*
G37*
G36*
X124443D02*
X124426D01*
X124393Y1462D01*
X124362Y1460D01*
X124307Y1446D01*
X124257Y1424D01*
X124215Y1399D01*
X124182Y1374D01*
X124157Y1354D01*
X124140Y1338D01*
X124134Y1335D01*
Y1332D01*
X124112Y1307D01*
X124096Y1276D01*
X124065Y1215D01*
X124043Y1149D01*
X124029Y1088D01*
X124021Y1029D01*
X124018Y1004D01*
Y982D01*
X124015Y966D01*
Y952D01*
Y943D01*
Y941D01*
Y891D01*
X124021Y843D01*
X124026Y802D01*
X124035Y760D01*
X124043Y724D01*
X124054Y691D01*
X124062Y660D01*
X124073Y632D01*
X124084Y610D01*
X124096Y588D01*
X124107Y571D01*
X124115Y557D01*
X124123Y546D01*
X124129Y538D01*
X124132Y535D01*
X124134Y532D01*
X124157Y510D01*
X124182Y488D01*
X124229Y455D01*
X124279Y433D01*
X124323Y416D01*
X124365Y408D01*
X124395Y402D01*
X124409Y399D01*
X124426D01*
X124459Y402D01*
X124490Y405D01*
X124548Y419D01*
X124598Y441D01*
X124640Y466D01*
X124673Y488D01*
X124698Y510D01*
X124715Y524D01*
X124717Y530D01*
X124720D01*
X124740Y557D01*
X124759Y585D01*
X124787Y649D01*
X124809Y716D01*
X124823Y782D01*
X124831Y841D01*
X124834Y866D01*
Y888D01*
X124837Y907D01*
Y921D01*
Y929D01*
Y932D01*
X124834Y979D01*
X124831Y1027D01*
X124826Y1068D01*
X124817Y1107D01*
X124809Y1143D01*
X124801Y1177D01*
X124790Y1204D01*
X124779Y1232D01*
X124767Y1254D01*
X124756Y1276D01*
X124748Y1293D01*
X124740Y1307D01*
X124731Y1318D01*
X124726Y1326D01*
X124720Y1329D01*
Y1332D01*
X124698Y1354D01*
X124673Y1376D01*
X124626Y1410D01*
X124576Y1432D01*
X124529Y1449D01*
X124487Y1460D01*
X124456Y1462D01*
X124443Y1465D01*
D02*
G37*
G36*
X118174Y1465D02*
X118157D01*
X118124Y1462D01*
X118093Y1460D01*
X118038Y1446D01*
X117988Y1424D01*
X117946Y1399D01*
X117913Y1374D01*
X117888Y1354D01*
X117871Y1338D01*
X117866Y1335D01*
Y1332D01*
X117844Y1307D01*
X117827Y1276D01*
X117796Y1215D01*
X117774Y1149D01*
X117760Y1088D01*
X117752Y1029D01*
X117749Y1004D01*
Y982D01*
X117746Y966D01*
Y952D01*
Y943D01*
Y941D01*
Y891D01*
X117752Y843D01*
X117757Y802D01*
X117766Y760D01*
X117774Y724D01*
X117785Y691D01*
X117794Y660D01*
X117805Y632D01*
X117816Y610D01*
X117827Y588D01*
X117838Y571D01*
X117846Y557D01*
X117855Y546D01*
X117860Y538D01*
X117863Y535D01*
X117866Y532D01*
X117888Y510D01*
X117913Y488D01*
X117960Y455D01*
X118010Y433D01*
X118055Y416D01*
X118096Y408D01*
X118127Y402D01*
X118141Y399D01*
X118157D01*
X118191Y402D01*
X118221Y405D01*
X118279Y419D01*
X118329Y441D01*
X118371Y466D01*
X118404Y488D01*
X118429Y510D01*
X118446Y524D01*
X118449Y530D01*
X118452D01*
X118471Y557D01*
X118490Y585D01*
X118518Y649D01*
X118540Y716D01*
X118554Y782D01*
X118563Y841D01*
X118565Y866D01*
Y888D01*
X118568Y907D01*
Y921D01*
Y929D01*
Y932D01*
X118565Y979D01*
X118563Y1027D01*
X118557Y1068D01*
X118549Y1107D01*
X118540Y1143D01*
X118532Y1177D01*
X118521Y1204D01*
X118510Y1232D01*
X118499Y1254D01*
X118488Y1276D01*
X118479Y1293D01*
X118471Y1307D01*
X118463Y1318D01*
X118457Y1326D01*
X118452Y1329D01*
Y1332D01*
X118429Y1354D01*
X118404Y1376D01*
X118357Y1410D01*
X118307Y1432D01*
X118260Y1449D01*
X118218Y1460D01*
X118188Y1462D01*
X118174Y1465D01*
D02*
G37*
G36*
X116122D02*
X116108D01*
X116078Y1462D01*
X116050Y1460D01*
X115997Y1443D01*
X115950Y1424D01*
X115911Y1399D01*
X115881Y1374D01*
X115856Y1351D01*
X115842Y1335D01*
X115836Y1332D01*
Y1329D01*
X115817Y1301D01*
X115800Y1274D01*
X115772Y1207D01*
X115753Y1138D01*
X115739Y1071D01*
X115734Y1038D01*
X115731Y1007D01*
X115728Y979D01*
Y957D01*
X115725Y938D01*
Y924D01*
Y913D01*
Y910D01*
Y863D01*
X115731Y818D01*
X115736Y780D01*
X115742Y741D01*
X115750Y707D01*
X115761Y674D01*
X115770Y646D01*
X115781Y621D01*
X115792Y599D01*
X115800Y577D01*
X115811Y563D01*
X115820Y549D01*
X115825Y538D01*
X115831Y530D01*
X115836Y527D01*
Y524D01*
X115856Y502D01*
X115878Y482D01*
X115922Y452D01*
X115967Y430D01*
X116008Y416D01*
X116045Y405D01*
X116075Y402D01*
X116086Y399D01*
X116100D01*
X116128Y402D01*
X116156Y405D01*
X116206Y419D01*
X116253Y441D01*
X116292Y466D01*
X116322Y488D01*
X116347Y510D01*
X116361Y524D01*
X116364Y530D01*
X116367D01*
X116386Y557D01*
X116403Y585D01*
X116430Y649D01*
X116450Y716D01*
X116464Y780D01*
X116472Y838D01*
X116475Y863D01*
Y885D01*
X116478Y904D01*
Y918D01*
Y927D01*
Y929D01*
Y979D01*
X116472Y1027D01*
X116467Y1071D01*
X116461Y1110D01*
X116453Y1146D01*
X116444Y1179D01*
X116436Y1210D01*
X116425Y1238D01*
X116414Y1260D01*
X116405Y1279D01*
X116397Y1296D01*
X116389Y1310D01*
X116380Y1321D01*
X116378Y1329D01*
X116372Y1332D01*
Y1335D01*
X116353Y1357D01*
X116331Y1379D01*
X116286Y1410D01*
X116242Y1435D01*
X116200Y1449D01*
X116164Y1460D01*
X116133Y1462D01*
X116122Y1465D01*
D02*
G37*
G36*
X85391Y1929D02*
X84936D01*
X84875Y1923D01*
X84828Y1921D01*
X84786Y1915D01*
X84755Y1909D01*
X84736Y1907D01*
X84722Y1901D01*
X84719D01*
X84689Y1890D01*
X84661Y1873D01*
X84639Y1857D01*
X84619Y1840D01*
X84606Y1826D01*
X84594Y1812D01*
X84589Y1804D01*
X84586Y1801D01*
X84569Y1773D01*
X84558Y1746D01*
X84550Y1718D01*
X84544Y1690D01*
X84542Y1668D01*
X84539Y1651D01*
Y1640D01*
Y1635D01*
X84542Y1599D01*
X84547Y1565D01*
X84556Y1537D01*
X84564Y1515D01*
X84572Y1496D01*
X84581Y1479D01*
X84586Y1471D01*
X84589Y1468D01*
X84608Y1446D01*
X84633Y1424D01*
X84658Y1407D01*
X84681Y1396D01*
X84703Y1385D01*
X84719Y1376D01*
X84730Y1374D01*
X84736Y1371D01*
X84767Y1365D01*
X84805Y1360D01*
X84844Y1357D01*
X84883Y1354D01*
X84919Y1351D01*
X85391D01*
Y1929D01*
D02*
G37*
G36*
Y1124D02*
X84886D01*
X84828Y1118D01*
X84780Y1113D01*
X84742Y1107D01*
X84711Y1102D01*
X84686Y1096D01*
X84675Y1093D01*
X84669Y1090D01*
X84633Y1077D01*
X84603Y1060D01*
X84575Y1041D01*
X84553Y1021D01*
X84536Y1004D01*
X84525Y991D01*
X84517Y979D01*
X84514Y977D01*
X84495Y946D01*
X84481Y916D01*
X84470Y885D01*
X84464Y857D01*
X84458Y832D01*
X84456Y810D01*
Y799D01*
Y793D01*
X84458Y760D01*
X84461Y727D01*
X84467Y699D01*
X84475Y677D01*
X84483Y657D01*
X84489Y641D01*
X84492Y632D01*
X84495Y630D01*
X84511Y605D01*
X84525Y582D01*
X84544Y566D01*
X84558Y549D01*
X84572Y538D01*
X84583Y530D01*
X84592Y524D01*
X84594Y521D01*
X84642Y499D01*
X84689Y482D01*
X84708Y477D01*
X84725Y474D01*
X84736Y471D01*
X84739D01*
X84761Y469D01*
X84786Y466D01*
X84844Y463D01*
X85391D01*
Y1124D01*
D02*
G37*
%LPD*%
D29*
X37600Y22304D02*
D03*
X37605Y27504D02*
D03*
D30*
X37523Y18122D02*
D03*
D50*
X35655Y30350D02*
D03*
Y1423D02*
D03*
X1250Y1050D02*
D03*
D58*
X11557Y27817D02*
D03*
X5207D02*
D03*
D59*
X41850Y30404D02*
D03*
Y1604D02*
D03*
X9000Y13204D02*
D03*
D60*
X39869Y18113D02*
D03*
X38158D02*
D03*
D61*
X43482Y23344D02*
D03*
X42042Y27797D02*
D03*
X39773D02*
D03*
X39580Y26245D02*
D03*
X39587Y23245D02*
D03*
X41406Y21604D02*
D03*
X41452Y19284D02*
D03*
X42993Y20489D02*
D03*
X43573Y26061D02*
D03*
X37600Y22303D02*
D03*
Y27505D02*
D03*
X44476Y19106D02*
D03*
Y24797D02*
D03*
Y21797D02*
D03*
Y27797D02*
D03*
Y7106D02*
D03*
Y16106D02*
D03*
Y13106D02*
D03*
Y10106D02*
D03*
Y4106D02*
D03*
D110*
X42050Y16129D02*
D03*
Y13279D02*
D03*
M02*
