G04*
G04 #@! TF.GenerationSoftware,Altium Limited,Altium Designer,24.10.1 (45)*
G04*
G04 Layer_Physical_Order=3*
G04 Layer_Color=16440176*
%FSLAX43Y43*%
%MOMM*%
G71*
G04*
G04 #@! TF.SameCoordinates,E76F5DE2-06B9-4884-A6CF-3CBD088EBE90*
G04*
G04*
G04 #@! TF.FilePolarity,Positive*
G04*
G01*
G75*
%ADD60C,0.450*%
%ADD61C,0.508*%
%ADD97C,0.700*%
%ADD107C,2.000*%
%ADD108C,0.400*%
G36*
X37280Y27778D02*
X37245Y27742D01*
X37181Y27588D01*
Y27422D01*
X37245Y27268D01*
X37280Y27232D01*
Y22575D01*
X37245Y22540D01*
X37181Y22386D01*
Y22219D01*
X37245Y22065D01*
X37280Y22030D01*
Y18541D01*
X37235D01*
X37081Y18477D01*
X36963Y18359D01*
X36900Y18205D01*
Y18038D01*
X36963Y17884D01*
X37081Y17766D01*
X37235Y17703D01*
X37280D01*
Y212D01*
X212D01*
Y25412D01*
X336Y25468D01*
X466Y25414D01*
X607D01*
X737Y25468D01*
X837Y25567D01*
X890Y25697D01*
Y25838D01*
X837Y25968D01*
X737Y26068D01*
X607Y26122D01*
X466D01*
X336Y26068D01*
X212Y26124D01*
Y31607D01*
X37280D01*
Y27778D01*
D02*
G37*
G36*
X60394Y1919D02*
X60158D01*
Y2189D01*
X60394D01*
Y1919D01*
D02*
G37*
G36*
X61874Y267D02*
X61654D01*
Y442D01*
X61651Y440D01*
X61649Y434D01*
X61640Y423D01*
X61629Y409D01*
X61615Y395D01*
X61599Y378D01*
X61579Y359D01*
X61554Y340D01*
X61529Y320D01*
X61502Y301D01*
X61468Y284D01*
X61432Y270D01*
X61396Y256D01*
X61354Y245D01*
X61310Y240D01*
X61263Y237D01*
X61246D01*
X61235Y240D01*
X61202Y242D01*
X61163Y248D01*
X61116Y259D01*
X61063Y276D01*
X61010Y298D01*
X60957Y328D01*
X60955D01*
X60952Y334D01*
X60935Y345D01*
X60910Y367D01*
X60880Y395D01*
X60844Y431D01*
X60807Y476D01*
X60771Y526D01*
X60741Y584D01*
Y587D01*
X60738Y592D01*
X60735Y601D01*
X60730Y612D01*
X60724Y628D01*
X60716Y648D01*
X60710Y667D01*
X60705Y692D01*
X60691Y748D01*
X60677Y812D01*
X60669Y884D01*
X60666Y961D01*
Y964D01*
Y970D01*
Y981D01*
Y998D01*
X60669Y1014D01*
Y1036D01*
X60674Y1086D01*
X60683Y1145D01*
X60696Y1209D01*
X60713Y1275D01*
X60735Y1339D01*
Y1342D01*
X60738Y1347D01*
X60744Y1356D01*
X60749Y1367D01*
X60766Y1397D01*
X60788Y1436D01*
X60816Y1478D01*
X60852Y1519D01*
X60894Y1564D01*
X60944Y1600D01*
X60946D01*
X60949Y1603D01*
X60957Y1608D01*
X60968Y1614D01*
X60996Y1628D01*
X61035Y1647D01*
X61080Y1664D01*
X61132Y1678D01*
X61191Y1689D01*
X61252Y1692D01*
X61274D01*
X61296Y1689D01*
X61327Y1686D01*
X61363Y1678D01*
X61402Y1669D01*
X61440Y1656D01*
X61477Y1636D01*
X61482Y1633D01*
X61493Y1628D01*
X61510Y1614D01*
X61532Y1600D01*
X61560Y1581D01*
X61585Y1556D01*
X61613Y1531D01*
X61638Y1500D01*
Y2189D01*
X61874D01*
Y267D01*
D02*
G37*
G36*
X69375Y1689D02*
X69405Y1683D01*
X69442Y1672D01*
X69480Y1658D01*
X69525Y1639D01*
X69572Y1614D01*
X69486Y1397D01*
X69483Y1400D01*
X69472Y1406D01*
X69455Y1414D01*
X69433Y1422D01*
X69408Y1431D01*
X69378Y1439D01*
X69347Y1445D01*
X69317Y1447D01*
X69303D01*
X69289Y1445D01*
X69269Y1442D01*
X69250Y1436D01*
X69225Y1428D01*
X69200Y1417D01*
X69178Y1400D01*
X69175Y1397D01*
X69167Y1392D01*
X69158Y1381D01*
X69144Y1367D01*
X69131Y1347D01*
X69117Y1325D01*
X69103Y1300D01*
X69092Y1270D01*
X69089Y1264D01*
X69086Y1247D01*
X69081Y1222D01*
X69072Y1189D01*
X69064Y1147D01*
X69058Y1100D01*
X69056Y1050D01*
X69053Y995D01*
Y267D01*
X68817D01*
Y1661D01*
X69031D01*
Y1450D01*
X69033Y1453D01*
X69045Y1472D01*
X69058Y1497D01*
X69081Y1528D01*
X69103Y1558D01*
X69128Y1592D01*
X69153Y1619D01*
X69178Y1642D01*
X69181Y1644D01*
X69189Y1650D01*
X69206Y1658D01*
X69222Y1667D01*
X69244Y1675D01*
X69272Y1683D01*
X69300Y1689D01*
X69330Y1692D01*
X69350D01*
X69375Y1689D01*
D02*
G37*
G36*
X59775Y267D02*
X59530D01*
Y1875D01*
X58970Y267D01*
X58742D01*
X58187Y1903D01*
Y267D01*
X57942D01*
Y2189D01*
X58323D01*
X58778Y825D01*
Y823D01*
X58781Y817D01*
X58784Y809D01*
X58789Y795D01*
X58800Y762D01*
X58814Y720D01*
X58828Y673D01*
X58845Y626D01*
X58859Y581D01*
X58870Y542D01*
X58872Y548D01*
X58875Y562D01*
X58884Y587D01*
X58895Y620D01*
X58909Y664D01*
X58928Y717D01*
X58947Y778D01*
X58972Y850D01*
X59433Y2189D01*
X59775D01*
Y267D01*
D02*
G37*
G36*
X66593Y245D02*
Y242D01*
X66590Y234D01*
X66585Y223D01*
X66579Y209D01*
X66571Y190D01*
X66563Y167D01*
X66543Y120D01*
X66524Y68D01*
X66502Y15D01*
X66479Y-32D01*
X66468Y-52D01*
X66460Y-71D01*
X66457Y-77D01*
X66449Y-91D01*
X66435Y-110D01*
X66418Y-135D01*
X66396Y-163D01*
X66371Y-191D01*
X66346Y-218D01*
X66315Y-241D01*
X66313Y-243D01*
X66302Y-249D01*
X66285Y-257D01*
X66260Y-268D01*
X66232Y-280D01*
X66199Y-288D01*
X66163Y-293D01*
X66121Y-296D01*
X66110D01*
X66096Y-293D01*
X66077D01*
X66055Y-288D01*
X66030Y-282D01*
X66002Y-277D01*
X65971Y-266D01*
X65946Y-46D01*
X65949D01*
X65960Y-49D01*
X65974Y-52D01*
X65991Y-57D01*
X66035Y-66D01*
X66080Y-69D01*
X66093D01*
X66107Y-66D01*
X66124D01*
X66166Y-57D01*
X66185Y-49D01*
X66204Y-41D01*
X66207D01*
X66213Y-35D01*
X66221Y-30D01*
X66232Y-21D01*
X66257Y1D01*
X66279Y31D01*
Y34D01*
X66285Y40D01*
X66291Y51D01*
X66296Y68D01*
X66307Y90D01*
X66318Y123D01*
X66335Y162D01*
X66352Y209D01*
Y212D01*
X66357Y223D01*
X66363Y242D01*
X66374Y267D01*
X65846Y1661D01*
X66096D01*
X66388Y853D01*
Y850D01*
X66390Y848D01*
X66393Y839D01*
X66396Y825D01*
X66402Y812D01*
X66407Y795D01*
X66421Y756D01*
X66438Y709D01*
X66454Y653D01*
X66471Y595D01*
X66488Y531D01*
Y534D01*
X66490Y539D01*
X66493Y548D01*
X66496Y559D01*
X66499Y573D01*
X66504Y589D01*
X66515Y631D01*
X66529Y678D01*
X66549Y734D01*
X66565Y789D01*
X66588Y848D01*
X66887Y1661D01*
X67123D01*
X66593Y245D01*
D02*
G37*
G36*
X71077Y2194D02*
X71099Y2191D01*
X71127Y2189D01*
X71157Y2183D01*
X71188Y2177D01*
X71260Y2158D01*
X71332Y2130D01*
X71368Y2114D01*
X71404Y2094D01*
X71438Y2069D01*
X71468Y2041D01*
X71471Y2039D01*
X71476Y2036D01*
X71482Y2025D01*
X71493Y2014D01*
X71507Y2000D01*
X71521Y1980D01*
X71535Y1961D01*
X71551Y1936D01*
X71579Y1883D01*
X71607Y1817D01*
X71618Y1783D01*
X71624Y1744D01*
X71629Y1705D01*
X71632Y1664D01*
Y1658D01*
Y1644D01*
X71629Y1622D01*
X71626Y1592D01*
X71621Y1558D01*
X71610Y1519D01*
X71599Y1478D01*
X71582Y1436D01*
X71579Y1431D01*
X71574Y1417D01*
X71563Y1395D01*
X71546Y1364D01*
X71524Y1331D01*
X71496Y1289D01*
X71463Y1247D01*
X71424Y1200D01*
X71418Y1195D01*
X71404Y1178D01*
X71390Y1164D01*
X71377Y1150D01*
X71360Y1134D01*
X71338Y1111D01*
X71315Y1089D01*
X71288Y1064D01*
X71260Y1036D01*
X71227Y1006D01*
X71191Y975D01*
X71152Y939D01*
X71107Y903D01*
X71063Y864D01*
X71060Y862D01*
X71055Y856D01*
X71043Y848D01*
X71030Y837D01*
X71013Y820D01*
X70993Y803D01*
X70949Y767D01*
X70902Y725D01*
X70857Y684D01*
X70819Y648D01*
X70802Y634D01*
X70788Y620D01*
X70785Y617D01*
X70777Y609D01*
X70766Y598D01*
X70752Y581D01*
X70738Y562D01*
X70721Y542D01*
X70688Y495D01*
X71635D01*
Y267D01*
X70360D01*
Y270D01*
Y281D01*
Y298D01*
X70363Y320D01*
X70366Y345D01*
X70372Y373D01*
X70377Y401D01*
X70388Y431D01*
Y434D01*
X70391Y437D01*
X70397Y453D01*
X70408Y478D01*
X70424Y512D01*
X70447Y551D01*
X70474Y595D01*
X70505Y639D01*
X70544Y687D01*
Y689D01*
X70549Y692D01*
X70563Y709D01*
X70588Y734D01*
X70624Y770D01*
X70666Y812D01*
X70719Y862D01*
X70782Y917D01*
X70852Y975D01*
X70855Y978D01*
X70866Y986D01*
X70882Y1000D01*
X70902Y1017D01*
X70927Y1039D01*
X70957Y1064D01*
X70988Y1092D01*
X71024Y1122D01*
X71093Y1189D01*
X71163Y1256D01*
X71196Y1289D01*
X71227Y1322D01*
X71254Y1353D01*
X71277Y1383D01*
Y1386D01*
X71282Y1389D01*
X71288Y1397D01*
X71293Y1408D01*
X71313Y1439D01*
X71335Y1475D01*
X71354Y1519D01*
X71374Y1567D01*
X71385Y1619D01*
X71390Y1669D01*
Y1672D01*
Y1675D01*
X71388Y1692D01*
X71385Y1719D01*
X71377Y1750D01*
X71365Y1789D01*
X71346Y1828D01*
X71321Y1867D01*
X71288Y1905D01*
X71282Y1911D01*
X71268Y1922D01*
X71249Y1936D01*
X71218Y1955D01*
X71179Y1972D01*
X71135Y1989D01*
X71082Y2000D01*
X71024Y2003D01*
X71007D01*
X70996Y2000D01*
X70963Y1997D01*
X70924Y1989D01*
X70882Y1978D01*
X70835Y1958D01*
X70791Y1933D01*
X70749Y1900D01*
X70744Y1894D01*
X70732Y1880D01*
X70716Y1858D01*
X70699Y1825D01*
X70680Y1786D01*
X70663Y1736D01*
X70652Y1680D01*
X70646Y1617D01*
X70405Y1642D01*
Y1644D01*
X70408Y1653D01*
Y1667D01*
X70410Y1686D01*
X70416Y1708D01*
X70422Y1733D01*
X70430Y1764D01*
X70438Y1794D01*
X70460Y1861D01*
X70494Y1928D01*
X70513Y1961D01*
X70538Y1994D01*
X70563Y2025D01*
X70591Y2053D01*
X70594Y2055D01*
X70599Y2058D01*
X70608Y2066D01*
X70621Y2075D01*
X70638Y2086D01*
X70658Y2097D01*
X70680Y2111D01*
X70707Y2125D01*
X70738Y2139D01*
X70771Y2152D01*
X70807Y2164D01*
X70846Y2175D01*
X70888Y2183D01*
X70932Y2191D01*
X70980Y2194D01*
X71030Y2197D01*
X71057D01*
X71077Y2194D01*
D02*
G37*
G36*
X65138Y1689D02*
X65180Y1686D01*
X65227Y1680D01*
X65274Y1672D01*
X65322Y1661D01*
X65366Y1647D01*
X65372Y1644D01*
X65385Y1639D01*
X65405Y1631D01*
X65430Y1619D01*
X65458Y1603D01*
X65485Y1586D01*
X65510Y1564D01*
X65533Y1542D01*
X65535Y1539D01*
X65541Y1531D01*
X65549Y1517D01*
X65560Y1500D01*
X65574Y1475D01*
X65585Y1450D01*
X65596Y1420D01*
X65605Y1383D01*
Y1381D01*
X65608Y1372D01*
X65610Y1356D01*
X65613Y1333D01*
Y1303D01*
X65616Y1267D01*
X65619Y1220D01*
Y1167D01*
Y850D01*
Y848D01*
Y837D01*
Y820D01*
Y798D01*
Y773D01*
Y742D01*
X65621Y675D01*
Y606D01*
X65624Y537D01*
X65627Y506D01*
Y478D01*
X65630Y453D01*
X65633Y434D01*
Y431D01*
X65635Y420D01*
X65638Y403D01*
X65646Y381D01*
X65652Y356D01*
X65663Y328D01*
X65677Y298D01*
X65691Y267D01*
X65444D01*
X65441Y270D01*
X65438Y281D01*
X65433Y295D01*
X65424Y317D01*
X65416Y342D01*
X65410Y373D01*
X65405Y406D01*
X65399Y442D01*
X65397D01*
X65394Y437D01*
X65377Y423D01*
X65352Y403D01*
X65319Y378D01*
X65277Y353D01*
X65236Y326D01*
X65191Y301D01*
X65144Y281D01*
X65138Y278D01*
X65122Y276D01*
X65097Y267D01*
X65066Y259D01*
X65027Y251D01*
X64983Y245D01*
X64933Y240D01*
X64883Y237D01*
X64861D01*
X64844Y240D01*
X64825D01*
X64802Y242D01*
X64752Y251D01*
X64697Y265D01*
X64636Y284D01*
X64580Y312D01*
X64530Y348D01*
X64525Y353D01*
X64511Y367D01*
X64492Y392D01*
X64469Y426D01*
X64447Y467D01*
X64428Y514D01*
X64414Y573D01*
X64411Y601D01*
X64408Y634D01*
Y639D01*
Y651D01*
X64411Y670D01*
X64414Y695D01*
X64419Y725D01*
X64428Y756D01*
X64439Y789D01*
X64453Y820D01*
X64455Y823D01*
X64461Y834D01*
X64472Y850D01*
X64486Y870D01*
X64503Y892D01*
X64525Y914D01*
X64547Y936D01*
X64575Y956D01*
X64578Y959D01*
X64589Y964D01*
X64603Y975D01*
X64625Y986D01*
X64650Y998D01*
X64680Y1011D01*
X64711Y1023D01*
X64747Y1034D01*
X64750D01*
X64761Y1036D01*
X64777Y1042D01*
X64800Y1045D01*
X64827Y1050D01*
X64864Y1056D01*
X64905Y1064D01*
X64955Y1070D01*
X64958D01*
X64969Y1072D01*
X64983D01*
X65002Y1075D01*
X65025Y1078D01*
X65052Y1084D01*
X65083Y1086D01*
X65116Y1092D01*
X65183Y1106D01*
X65255Y1120D01*
X65319Y1136D01*
X65349Y1145D01*
X65377Y1153D01*
Y1156D01*
Y1161D01*
X65380Y1178D01*
Y1197D01*
Y1209D01*
Y1214D01*
Y1217D01*
Y1220D01*
Y1236D01*
X65377Y1264D01*
X65372Y1295D01*
X65363Y1328D01*
X65349Y1361D01*
X65333Y1392D01*
X65311Y1417D01*
X65308Y1420D01*
X65294Y1431D01*
X65272Y1442D01*
X65244Y1458D01*
X65205Y1472D01*
X65161Y1486D01*
X65105Y1494D01*
X65041Y1497D01*
X65013D01*
X64986Y1494D01*
X64947Y1489D01*
X64908Y1483D01*
X64866Y1472D01*
X64827Y1458D01*
X64794Y1439D01*
X64791Y1436D01*
X64780Y1428D01*
X64766Y1414D01*
X64750Y1392D01*
X64733Y1364D01*
X64714Y1328D01*
X64697Y1283D01*
X64680Y1234D01*
X64450Y1264D01*
Y1267D01*
X64453Y1270D01*
Y1278D01*
X64455Y1289D01*
X64464Y1314D01*
X64475Y1350D01*
X64489Y1386D01*
X64505Y1425D01*
X64528Y1464D01*
X64553Y1500D01*
X64555Y1503D01*
X64566Y1514D01*
X64583Y1531D01*
X64605Y1553D01*
X64636Y1575D01*
X64672Y1597D01*
X64714Y1622D01*
X64761Y1642D01*
X64764D01*
X64766Y1644D01*
X64775Y1647D01*
X64786Y1650D01*
X64814Y1658D01*
X64852Y1667D01*
X64897Y1675D01*
X64952Y1683D01*
X65011Y1689D01*
X65077Y1692D01*
X65108D01*
X65138Y1689D01*
D02*
G37*
G36*
X63270Y495D02*
X64217D01*
Y267D01*
X63015D01*
Y2189D01*
X63270D01*
Y495D01*
D02*
G37*
G36*
X60394Y267D02*
X60158D01*
Y1661D01*
X60394D01*
Y267D01*
D02*
G37*
G36*
X67942Y1689D02*
X67965Y1686D01*
X67992Y1680D01*
X68023Y1675D01*
X68059Y1667D01*
X68092Y1658D01*
X68131Y1644D01*
X68167Y1631D01*
X68206Y1611D01*
X68245Y1589D01*
X68284Y1564D01*
X68320Y1533D01*
X68353Y1500D01*
X68356Y1497D01*
X68362Y1492D01*
X68370Y1481D01*
X68381Y1464D01*
X68395Y1445D01*
X68409Y1422D01*
X68425Y1395D01*
X68442Y1361D01*
X68459Y1325D01*
X68475Y1286D01*
X68489Y1242D01*
X68503Y1195D01*
X68514Y1142D01*
X68523Y1086D01*
X68528Y1028D01*
X68531Y964D01*
Y961D01*
Y950D01*
Y931D01*
X68528Y903D01*
X67487D01*
Y900D01*
Y892D01*
X67490Y881D01*
Y864D01*
X67493Y845D01*
X67498Y823D01*
X67507Y773D01*
X67523Y717D01*
X67545Y656D01*
X67576Y601D01*
X67615Y551D01*
X67618D01*
X67620Y545D01*
X67637Y531D01*
X67662Y512D01*
X67695Y492D01*
X67740Y470D01*
X67790Y451D01*
X67845Y437D01*
X67876Y434D01*
X67909Y431D01*
X67931D01*
X67956Y434D01*
X67987Y440D01*
X68020Y448D01*
X68059Y459D01*
X68095Y476D01*
X68131Y498D01*
X68134Y501D01*
X68148Y512D01*
X68164Y528D01*
X68184Y551D01*
X68206Y581D01*
X68231Y620D01*
X68256Y664D01*
X68278Y717D01*
X68523Y687D01*
Y684D01*
X68520Y678D01*
X68517Y667D01*
X68511Y651D01*
X68503Y634D01*
X68495Y612D01*
X68473Y564D01*
X68445Y512D01*
X68406Y456D01*
X68362Y403D01*
X68306Y353D01*
X68303D01*
X68298Y348D01*
X68289Y342D01*
X68278Y334D01*
X68262Y326D01*
X68245Y317D01*
X68223Y306D01*
X68198Y295D01*
X68170Y284D01*
X68142Y273D01*
X68073Y256D01*
X67995Y242D01*
X67909Y237D01*
X67879D01*
X67859Y240D01*
X67834Y242D01*
X67804Y248D01*
X67770Y254D01*
X67734Y259D01*
X67656Y281D01*
X67615Y298D01*
X67576Y315D01*
X67534Y337D01*
X67495Y362D01*
X67459Y390D01*
X67423Y423D01*
X67420Y426D01*
X67415Y431D01*
X67407Y442D01*
X67395Y459D01*
X67382Y478D01*
X67368Y501D01*
X67351Y528D01*
X67334Y559D01*
X67318Y595D01*
X67301Y634D01*
X67287Y678D01*
X67273Y725D01*
X67262Y775D01*
X67254Y831D01*
X67248Y889D01*
X67246Y950D01*
Y953D01*
Y967D01*
Y984D01*
X67248Y1009D01*
X67251Y1039D01*
X67254Y1072D01*
X67259Y1111D01*
X67268Y1150D01*
X67290Y1239D01*
X67304Y1283D01*
X67320Y1331D01*
X67343Y1375D01*
X67368Y1417D01*
X67395Y1458D01*
X67426Y1497D01*
X67429Y1500D01*
X67434Y1506D01*
X67445Y1514D01*
X67459Y1528D01*
X67476Y1542D01*
X67498Y1558D01*
X67523Y1578D01*
X67554Y1594D01*
X67584Y1614D01*
X67620Y1631D01*
X67659Y1647D01*
X67701Y1661D01*
X67745Y1675D01*
X67792Y1683D01*
X67842Y1689D01*
X67895Y1692D01*
X67923D01*
X67942Y1689D01*
D02*
G37*
G36*
X101295Y2219D02*
X101317D01*
X101370Y2214D01*
X101428Y2205D01*
X101489Y2191D01*
X101556Y2175D01*
X101619Y2152D01*
X101622D01*
X101628Y2150D01*
X101636Y2147D01*
X101647Y2141D01*
X101678Y2125D01*
X101717Y2105D01*
X101758Y2077D01*
X101803Y2044D01*
X101844Y2008D01*
X101883Y1964D01*
X101889Y1958D01*
X101900Y1941D01*
X101916Y1916D01*
X101939Y1880D01*
X101961Y1836D01*
X101986Y1780D01*
X102011Y1719D01*
X102030Y1650D01*
X101800Y1589D01*
Y1592D01*
X101797Y1594D01*
X101794Y1603D01*
X101792Y1614D01*
X101783Y1639D01*
X101772Y1672D01*
X101755Y1711D01*
X101736Y1747D01*
X101717Y1786D01*
X101692Y1819D01*
X101689Y1822D01*
X101680Y1833D01*
X101664Y1847D01*
X101644Y1867D01*
X101619Y1889D01*
X101586Y1911D01*
X101550Y1933D01*
X101508Y1953D01*
X101503Y1955D01*
X101489Y1961D01*
X101464Y1969D01*
X101431Y1980D01*
X101392Y1989D01*
X101347Y1997D01*
X101297Y2003D01*
X101245Y2005D01*
X101214D01*
X101200Y2003D01*
X101184D01*
X101142Y2000D01*
X101095Y1991D01*
X101042Y1983D01*
X100992Y1969D01*
X100942Y1950D01*
X100936Y1947D01*
X100920Y1941D01*
X100898Y1928D01*
X100870Y1914D01*
X100837Y1891D01*
X100800Y1869D01*
X100767Y1842D01*
X100737Y1811D01*
X100734Y1808D01*
X100723Y1797D01*
X100709Y1778D01*
X100692Y1755D01*
X100673Y1728D01*
X100653Y1694D01*
X100634Y1658D01*
X100614Y1619D01*
Y1617D01*
X100612Y1611D01*
X100609Y1603D01*
X100603Y1589D01*
X100598Y1572D01*
X100592Y1553D01*
X100584Y1531D01*
X100578Y1506D01*
X100564Y1447D01*
X100553Y1381D01*
X100545Y1311D01*
X100542Y1234D01*
Y1231D01*
Y1222D01*
Y1209D01*
X100545Y1192D01*
Y1170D01*
X100548Y1142D01*
X100551Y1114D01*
X100553Y1084D01*
X100564Y1014D01*
X100578Y942D01*
X100601Y870D01*
X100628Y800D01*
Y798D01*
X100634Y792D01*
X100637Y784D01*
X100645Y773D01*
X100664Y742D01*
X100695Y703D01*
X100731Y662D01*
X100775Y620D01*
X100828Y581D01*
X100886Y545D01*
X100889D01*
X100895Y542D01*
X100903Y537D01*
X100917Y531D01*
X100931Y526D01*
X100950Y520D01*
X100995Y503D01*
X101050Y489D01*
X101111Y476D01*
X101178Y465D01*
X101247Y462D01*
X101275D01*
X101292Y465D01*
X101308D01*
X101350Y470D01*
X101400Y476D01*
X101453Y487D01*
X101511Y503D01*
X101569Y523D01*
X101572D01*
X101578Y526D01*
X101583Y528D01*
X101594Y534D01*
X101625Y548D01*
X101658Y564D01*
X101697Y584D01*
X101739Y606D01*
X101778Y631D01*
X101811Y659D01*
Y1020D01*
X101245D01*
Y1247D01*
X102061D01*
Y534D01*
X102058Y531D01*
X102053Y528D01*
X102041Y520D01*
X102028Y509D01*
X102011Y498D01*
X101991Y484D01*
X101966Y467D01*
X101941Y451D01*
X101883Y415D01*
X101817Y376D01*
X101747Y340D01*
X101672Y309D01*
X101669D01*
X101664Y306D01*
X101653Y303D01*
X101639Y298D01*
X101619Y292D01*
X101597Y284D01*
X101572Y278D01*
X101547Y273D01*
X101486Y259D01*
X101417Y245D01*
X101342Y237D01*
X101264Y234D01*
X101236D01*
X101217Y237D01*
X101192D01*
X101161Y240D01*
X101128Y245D01*
X101092Y248D01*
X101011Y265D01*
X100925Y284D01*
X100837Y315D01*
X100792Y331D01*
X100748Y353D01*
X100745Y356D01*
X100737Y359D01*
X100725Y367D01*
X100709Y376D01*
X100689Y390D01*
X100670Y403D01*
X100617Y442D01*
X100562Y492D01*
X100503Y553D01*
X100448Y623D01*
X100398Y703D01*
Y706D01*
X100392Y714D01*
X100387Y725D01*
X100378Y745D01*
X100370Y764D01*
X100362Y792D01*
X100351Y820D01*
X100340Y853D01*
X100328Y889D01*
X100317Y931D01*
X100309Y973D01*
X100301Y1017D01*
X100287Y1114D01*
X100281Y1217D01*
Y1220D01*
Y1231D01*
Y1245D01*
X100284Y1264D01*
Y1289D01*
X100287Y1320D01*
X100292Y1350D01*
X100295Y1386D01*
X100303Y1425D01*
X100309Y1467D01*
X100331Y1556D01*
X100359Y1647D01*
X100398Y1739D01*
X100401Y1742D01*
X100403Y1750D01*
X100409Y1761D01*
X100420Y1778D01*
X100431Y1800D01*
X100445Y1822D01*
X100484Y1875D01*
X100531Y1936D01*
X100589Y1994D01*
X100656Y2053D01*
X100695Y2077D01*
X100734Y2102D01*
X100737Y2105D01*
X100745Y2108D01*
X100756Y2114D01*
X100773Y2122D01*
X100795Y2130D01*
X100820Y2141D01*
X100848Y2152D01*
X100881Y2164D01*
X100917Y2175D01*
X100956Y2183D01*
X100998Y2194D01*
X101042Y2202D01*
X101139Y2216D01*
X101189Y2222D01*
X101278D01*
X101295Y2219D01*
D02*
G37*
G36*
X103021Y2194D02*
X103044Y2191D01*
X103071Y2189D01*
X103102Y2183D01*
X103132Y2177D01*
X103205Y2158D01*
X103277Y2130D01*
X103313Y2114D01*
X103349Y2094D01*
X103382Y2069D01*
X103413Y2041D01*
X103416Y2039D01*
X103421Y2036D01*
X103427Y2025D01*
X103438Y2014D01*
X103452Y2000D01*
X103466Y1980D01*
X103479Y1961D01*
X103496Y1936D01*
X103524Y1883D01*
X103552Y1817D01*
X103563Y1783D01*
X103568Y1744D01*
X103574Y1705D01*
X103577Y1664D01*
Y1658D01*
Y1644D01*
X103574Y1622D01*
X103571Y1592D01*
X103566Y1558D01*
X103554Y1519D01*
X103543Y1478D01*
X103527Y1436D01*
X103524Y1431D01*
X103518Y1417D01*
X103507Y1395D01*
X103491Y1364D01*
X103468Y1331D01*
X103441Y1289D01*
X103407Y1247D01*
X103368Y1200D01*
X103363Y1195D01*
X103349Y1178D01*
X103335Y1164D01*
X103321Y1150D01*
X103305Y1134D01*
X103282Y1111D01*
X103260Y1089D01*
X103232Y1064D01*
X103205Y1036D01*
X103171Y1006D01*
X103135Y975D01*
X103096Y939D01*
X103052Y903D01*
X103008Y864D01*
X103005Y862D01*
X102999Y856D01*
X102988Y848D01*
X102974Y837D01*
X102958Y820D01*
X102938Y803D01*
X102894Y767D01*
X102847Y725D01*
X102802Y684D01*
X102763Y648D01*
X102747Y634D01*
X102733Y620D01*
X102730Y617D01*
X102722Y609D01*
X102710Y598D01*
X102697Y581D01*
X102683Y562D01*
X102666Y542D01*
X102633Y495D01*
X103579D01*
Y267D01*
X102305D01*
Y270D01*
Y281D01*
Y298D01*
X102308Y320D01*
X102311Y345D01*
X102316Y373D01*
X102322Y401D01*
X102333Y431D01*
Y434D01*
X102336Y437D01*
X102341Y453D01*
X102352Y478D01*
X102369Y512D01*
X102391Y551D01*
X102419Y595D01*
X102450Y639D01*
X102488Y687D01*
Y689D01*
X102494Y692D01*
X102508Y709D01*
X102533Y734D01*
X102569Y770D01*
X102611Y812D01*
X102663Y862D01*
X102727Y917D01*
X102797Y975D01*
X102799Y978D01*
X102810Y986D01*
X102827Y1000D01*
X102847Y1017D01*
X102871Y1039D01*
X102902Y1064D01*
X102933Y1092D01*
X102969Y1122D01*
X103038Y1189D01*
X103107Y1256D01*
X103141Y1289D01*
X103171Y1322D01*
X103199Y1353D01*
X103221Y1383D01*
Y1386D01*
X103227Y1389D01*
X103232Y1397D01*
X103238Y1408D01*
X103257Y1439D01*
X103280Y1475D01*
X103299Y1519D01*
X103318Y1567D01*
X103330Y1619D01*
X103335Y1669D01*
Y1672D01*
Y1675D01*
X103332Y1692D01*
X103330Y1719D01*
X103321Y1750D01*
X103310Y1789D01*
X103291Y1828D01*
X103266Y1867D01*
X103232Y1905D01*
X103227Y1911D01*
X103213Y1922D01*
X103194Y1936D01*
X103163Y1955D01*
X103124Y1972D01*
X103080Y1989D01*
X103027Y2000D01*
X102969Y2003D01*
X102952D01*
X102941Y2000D01*
X102908Y1997D01*
X102869Y1989D01*
X102827Y1978D01*
X102780Y1958D01*
X102735Y1933D01*
X102694Y1900D01*
X102688Y1894D01*
X102677Y1880D01*
X102660Y1858D01*
X102644Y1825D01*
X102624Y1786D01*
X102608Y1736D01*
X102597Y1680D01*
X102591Y1617D01*
X102350Y1642D01*
Y1644D01*
X102352Y1653D01*
Y1667D01*
X102355Y1686D01*
X102361Y1708D01*
X102366Y1733D01*
X102375Y1764D01*
X102383Y1794D01*
X102405Y1861D01*
X102438Y1928D01*
X102458Y1961D01*
X102483Y1994D01*
X102508Y2025D01*
X102536Y2053D01*
X102538Y2055D01*
X102544Y2058D01*
X102552Y2066D01*
X102566Y2075D01*
X102583Y2086D01*
X102602Y2097D01*
X102624Y2111D01*
X102652Y2125D01*
X102683Y2139D01*
X102716Y2152D01*
X102752Y2164D01*
X102791Y2175D01*
X102833Y2183D01*
X102877Y2191D01*
X102924Y2194D01*
X102974Y2197D01*
X103002D01*
X103021Y2194D01*
D02*
G37*
G36*
X99906Y267D02*
X99637D01*
Y537D01*
X99906D01*
Y267D01*
D02*
G37*
%LPC*%
G36*
X1270Y30908D02*
X1130D01*
X999Y30854D01*
X900Y30755D01*
X846Y30624D01*
Y30484D01*
X900Y30353D01*
X999Y30254D01*
X1130Y30200D01*
X1270D01*
X1401Y30254D01*
X1500Y30353D01*
X1554Y30484D01*
Y30624D01*
X1500Y30755D01*
X1401Y30854D01*
X1270Y30908D01*
D02*
G37*
G36*
X13282Y30299D02*
X13142D01*
X13011Y30245D01*
X12912Y30146D01*
X12858Y30015D01*
Y29875D01*
X12912Y29744D01*
X13011Y29645D01*
X13142Y29591D01*
X13282D01*
X13413Y29645D01*
X13512Y29744D01*
X13566Y29875D01*
Y30015D01*
X13512Y30146D01*
X13413Y30245D01*
X13282Y30299D01*
D02*
G37*
G36*
X2214Y29543D02*
X2074D01*
X1943Y29489D01*
X1844Y29389D01*
X1790Y29259D01*
Y29118D01*
X1844Y28988D01*
X1943Y28889D01*
X2074Y28835D01*
X2183D01*
X2231Y28815D01*
X2301Y28733D01*
Y28646D01*
X2355Y28516D01*
X2454Y28416D01*
X2584Y28362D01*
X2725D01*
X2855Y28416D01*
X2955Y28516D01*
X3009Y28646D01*
Y28787D01*
X2955Y28917D01*
X2855Y29016D01*
X2725Y29070D01*
X2615D01*
X2568Y29090D01*
X2498Y29172D01*
Y29259D01*
X2444Y29389D01*
X2345Y29489D01*
X2214Y29543D01*
D02*
G37*
G36*
X19023Y31069D02*
X18882D01*
X18752Y31016D01*
X18653Y30916D01*
X18599Y30786D01*
Y30645D01*
X18653Y30515D01*
X18694Y30473D01*
X18642Y30346D01*
X16421D01*
X16246Y30311D01*
X16097Y30212D01*
X14138Y28252D01*
X13011Y29378D01*
X12863Y29478D01*
X12687Y29513D01*
X11467D01*
X10833Y30148D01*
X10684Y30247D01*
X10508Y30282D01*
X8541D01*
X8365Y30247D01*
X8217Y30148D01*
X7158Y29089D01*
X7058Y28940D01*
X7023Y28764D01*
Y27905D01*
X6022Y26903D01*
X3247D01*
X3200Y26913D01*
X3024Y26878D01*
X2876Y26778D01*
X2776Y26630D01*
X2741Y26454D01*
X2776Y26278D01*
X2876Y26130D01*
X2885Y26120D01*
X3034Y26021D01*
X3209Y25986D01*
X6212D01*
X6388Y26021D01*
X6536Y26120D01*
X7806Y27390D01*
X7906Y27539D01*
X7941Y27715D01*
Y28574D01*
X8731Y29364D01*
X10318D01*
X10953Y28730D01*
X11102Y28630D01*
X11277Y28595D01*
X12497D01*
X13489Y27604D01*
X12884Y26998D01*
X12784Y26850D01*
X12749Y26674D01*
Y22229D01*
X12784Y22053D01*
X12884Y21905D01*
X15297Y19492D01*
X15909Y18880D01*
X16057Y18780D01*
X16233Y18745D01*
X26439D01*
X26615Y18780D01*
X26763Y18880D01*
X27938Y20055D01*
X28038Y20203D01*
X28073Y20379D01*
Y20558D01*
X28038Y20733D01*
X27938Y20882D01*
X27790Y20982D01*
X27614Y21017D01*
X27438Y20982D01*
X27290Y20882D01*
X27190Y20733D01*
X27158Y20572D01*
X26249Y19663D01*
X16423D01*
X15945Y20140D01*
X13667Y22419D01*
Y26484D01*
X14462Y27279D01*
X16611Y29428D01*
X27955D01*
X27985Y29423D01*
X28161Y29457D01*
X28309Y29557D01*
X28409Y29706D01*
X28444Y29881D01*
X28409Y30057D01*
X28309Y30206D01*
X28303Y30212D01*
X28155Y30311D01*
X27979Y30346D01*
X19264D01*
X19211Y30473D01*
X19253Y30515D01*
X19307Y30645D01*
Y30786D01*
X19253Y30916D01*
X19153Y31016D01*
X19023Y31069D01*
D02*
G37*
G36*
X5323Y28402D02*
X5091D01*
X4876Y28313D01*
X4711Y28148D01*
X4622Y27933D01*
Y27779D01*
X4495Y27754D01*
X4491Y27764D01*
X4392Y27863D01*
X4261Y27917D01*
X4121D01*
X3990Y27863D01*
X3891Y27764D01*
X3837Y27633D01*
Y27493D01*
X3891Y27362D01*
X3990Y27263D01*
X4121Y27209D01*
X4261D01*
X4392Y27263D01*
X4491Y27362D01*
X4545Y27493D01*
Y27555D01*
X4672Y27580D01*
X4711Y27486D01*
X4876Y27321D01*
X5091Y27232D01*
X5323D01*
X5538Y27321D01*
X5703Y27486D01*
X5753Y27607D01*
X5892Y27643D01*
X5904Y27640D01*
X6026Y27590D01*
X6166D01*
X6297Y27644D01*
X6396Y27743D01*
X6450Y27874D01*
Y28014D01*
X6396Y28145D01*
X6297Y28244D01*
X6166Y28298D01*
X6026D01*
X5895Y28244D01*
X5829Y28177D01*
X5746Y28158D01*
X5673Y28179D01*
X5538Y28313D01*
X5323Y28402D01*
D02*
G37*
G36*
X11673D02*
X11441D01*
X11226Y28313D01*
X11061Y28148D01*
X10972Y27933D01*
Y27701D01*
X11061Y27486D01*
X11226Y27321D01*
X11441Y27232D01*
X11673D01*
X11888Y27321D01*
X12053Y27486D01*
X12142Y27701D01*
Y27933D01*
X12053Y28148D01*
X11888Y28313D01*
X11673Y28402D01*
D02*
G37*
G36*
X23170Y27858D02*
X23030D01*
X22899Y27804D01*
X22800Y27705D01*
X22746Y27574D01*
Y27434D01*
X22800Y27303D01*
X22899Y27204D01*
X23030Y27150D01*
X23170D01*
X23301Y27204D01*
X23400Y27303D01*
X23454Y27434D01*
Y27574D01*
X23400Y27705D01*
X23301Y27804D01*
X23170Y27858D01*
D02*
G37*
G36*
X1620D02*
X1480D01*
X1349Y27804D01*
X1250Y27705D01*
X1196Y27574D01*
Y27434D01*
X1250Y27303D01*
X1349Y27204D01*
X1480Y27150D01*
X1620D01*
X1751Y27204D01*
X1850Y27303D01*
X1904Y27434D01*
Y27574D01*
X1850Y27705D01*
X1751Y27804D01*
X1620Y27858D01*
D02*
G37*
G36*
X32701Y29679D02*
X30800D01*
X30800Y26579D01*
X32701D01*
Y29679D01*
D02*
G37*
G36*
X20390Y27155D02*
X20250D01*
X20119Y27101D01*
X20020Y27002D01*
X19966Y26871D01*
Y26731D01*
X20020Y26600D01*
X20119Y26501D01*
X20250Y26447D01*
X20390D01*
X20521Y26501D01*
X20620Y26600D01*
X20674Y26731D01*
Y26871D01*
X20620Y27002D01*
X20521Y27101D01*
X20390Y27155D01*
D02*
G37*
G36*
X22882Y27052D02*
X22741D01*
X22611Y26998D01*
X22511Y26898D01*
X22457Y26768D01*
Y26627D01*
X22511Y26497D01*
X22611Y26398D01*
X22741Y26344D01*
X22882D01*
X23012Y26398D01*
X23111Y26497D01*
X23165Y26627D01*
Y26768D01*
X23111Y26898D01*
X23012Y26998D01*
X22882Y27052D01*
D02*
G37*
G36*
X6327Y23977D02*
X6187D01*
X6057Y23923D01*
X5957Y23824D01*
X5903Y23694D01*
Y23553D01*
X5957Y23423D01*
X6057Y23323D01*
X6187Y23269D01*
X6327D01*
X6458Y23323D01*
X6557Y23423D01*
X6567Y23445D01*
X6704D01*
X6718Y23412D01*
X6817Y23312D01*
X6948Y23258D01*
X7088D01*
X7219Y23312D01*
X7318Y23412D01*
X7372Y23542D01*
Y23683D01*
X7318Y23813D01*
X7219Y23913D01*
X7088Y23966D01*
X6948D01*
X6817Y23913D01*
X6718Y23813D01*
X6708Y23790D01*
X6571D01*
X6557Y23824D01*
X6458Y23923D01*
X6327Y23977D01*
D02*
G37*
G36*
X10085Y28185D02*
X9909Y28150D01*
X9760Y28051D01*
X8923Y27214D01*
X8824Y27065D01*
X8789Y26890D01*
Y23430D01*
Y22768D01*
X8662Y22683D01*
X8614Y22702D01*
X8473D01*
X8343Y22649D01*
X8244Y22549D01*
X8190Y22419D01*
Y22278D01*
X8244Y22148D01*
X8343Y22048D01*
X8473Y21994D01*
X8614D01*
X8662Y22014D01*
X8789Y21929D01*
Y21411D01*
X8824Y21235D01*
X8923Y21087D01*
X9793Y20217D01*
Y18355D01*
X9559Y18121D01*
X7793D01*
X7740Y18248D01*
X7795Y18304D01*
X7849Y18434D01*
Y18575D01*
X7795Y18705D01*
X7696Y18804D01*
X7566Y18858D01*
X7425D01*
X7295Y18804D01*
X7195Y18705D01*
X7141Y18575D01*
Y18434D01*
X7195Y18304D01*
X7251Y18248D01*
X7198Y18121D01*
X2546D01*
X2370Y18087D01*
X2221Y17987D01*
X2122Y17838D01*
X2087Y17663D01*
X2122Y17487D01*
X2221Y17338D01*
X2370Y17239D01*
X2546Y17204D01*
X9749D01*
X9925Y17239D01*
X10073Y17338D01*
X10441Y17706D01*
X10859D01*
Y16063D01*
X10894Y15887D01*
X10994Y15738D01*
X11143Y15639D01*
X11318Y15604D01*
X11494Y15639D01*
X11643Y15738D01*
X11742Y15887D01*
X11777Y16063D01*
Y17706D01*
X12657D01*
X14024Y16340D01*
X14173Y16240D01*
X14348Y16205D01*
X16043D01*
X16221Y16027D01*
Y13854D01*
Y12112D01*
X16256Y11936D01*
X16355Y11787D01*
X16729Y11413D01*
X16320Y11004D01*
X10619D01*
X9959Y11664D01*
X9810Y11764D01*
X9634Y11799D01*
X9459Y11764D01*
X9310Y11664D01*
X9210Y11516D01*
X9176Y11340D01*
X9210Y11164D01*
X9310Y11016D01*
X10105Y10221D01*
X10254Y10121D01*
X10429Y10086D01*
X16510D01*
X16686Y10121D01*
X16834Y10221D01*
X17378Y10764D01*
X20291Y7852D01*
Y2542D01*
X19483Y1734D01*
X19113D01*
X18938Y1699D01*
X18789Y1600D01*
X18690Y1451D01*
X18655Y1275D01*
X18690Y1100D01*
X18789Y951D01*
X18938Y851D01*
X19113Y817D01*
X19673D01*
X19849Y851D01*
X19998Y951D01*
X21074Y2028D01*
X21174Y2176D01*
X21209Y2352D01*
Y8042D01*
X21174Y8217D01*
X21074Y8366D01*
X17703Y11738D01*
X17139Y12302D01*
Y13395D01*
X36002D01*
X36024Y13380D01*
X36200Y13345D01*
X36376Y13380D01*
X36524Y13480D01*
X36624Y13628D01*
X36659Y13804D01*
X36624Y13980D01*
X36524Y14128D01*
X36474Y14178D01*
X36326Y14278D01*
X36150Y14313D01*
X17139D01*
Y16217D01*
X17104Y16393D01*
X17004Y16542D01*
X16627Y16919D01*
X16580Y16989D01*
X16432Y17088D01*
X16256Y17123D01*
X14538D01*
X13172Y18489D01*
X13023Y18589D01*
X12847Y18624D01*
X10710D01*
Y20407D01*
X10675Y20583D01*
X10576Y20732D01*
X9706Y21601D01*
Y21947D01*
X9833Y22032D01*
X9881Y22012D01*
X10022D01*
X10062Y21986D01*
Y21903D01*
X10116Y21773D01*
X10215Y21673D01*
X10345Y21619D01*
X10486D01*
X10616Y21673D01*
X10716Y21773D01*
X10770Y21903D01*
Y21984D01*
X10868Y22072D01*
X10887Y22078D01*
X11015D01*
X11145Y22132D01*
X11244Y22232D01*
X11298Y22362D01*
Y22502D01*
X11244Y22633D01*
X11145Y22732D01*
X11015Y22786D01*
X10874D01*
X10744Y22732D01*
X10644Y22633D01*
X10590Y22502D01*
Y22422D01*
X10492Y22333D01*
X10473Y22327D01*
X10345D01*
X10306Y22354D01*
Y22437D01*
X10252Y22567D01*
X10152Y22666D01*
X10022Y22720D01*
X9881D01*
X9833Y22700D01*
X9706Y22785D01*
Y22971D01*
X11601D01*
X11635Y22948D01*
X11811Y22913D01*
X11987Y22948D01*
X12135Y23048D01*
X12235Y23196D01*
X12270Y23372D01*
X12235Y23548D01*
X12135Y23696D01*
X12077Y23754D01*
X11929Y23854D01*
X11753Y23889D01*
X9706D01*
Y26700D01*
X10409Y27402D01*
X10509Y27551D01*
X10543Y27727D01*
X10509Y27902D01*
X10409Y28051D01*
X10260Y28150D01*
X10085Y28185D01*
D02*
G37*
G36*
X11933Y21631D02*
X11793D01*
X11662Y21577D01*
X11563Y21477D01*
X11509Y21347D01*
Y21206D01*
X11563Y21076D01*
X11662Y20976D01*
X11793Y20923D01*
X11933D01*
X12063Y20976D01*
X12163Y21076D01*
X12217Y21206D01*
Y21347D01*
X12163Y21477D01*
X12063Y21577D01*
X11933Y21631D01*
D02*
G37*
G36*
X2610Y21440D02*
X2470D01*
X2339Y21386D01*
X2240Y21287D01*
X2186Y21156D01*
Y21016D01*
X2240Y20885D01*
X2339Y20786D01*
X2470Y20732D01*
X2610D01*
X2741Y20786D01*
X2840Y20885D01*
X2894Y21016D01*
Y21156D01*
X2840Y21287D01*
X2741Y21386D01*
X2610Y21440D01*
D02*
G37*
G36*
X2483Y20424D02*
X2343D01*
X2212Y20370D01*
X2113Y20271D01*
X2059Y20140D01*
Y20000D01*
X2113Y19869D01*
X2212Y19770D01*
X2343Y19716D01*
X2483D01*
X2614Y19770D01*
X2713Y19869D01*
X2767Y20000D01*
Y20140D01*
X2713Y20271D01*
X2614Y20370D01*
X2483Y20424D01*
D02*
G37*
G36*
X7995Y20122D02*
X7854D01*
X7724Y20068D01*
X7624Y19968D01*
X7570Y19838D01*
Y19697D01*
X7624Y19567D01*
X7724Y19468D01*
X7854Y19414D01*
X7995D01*
X8125Y19468D01*
X8224Y19567D01*
X8278Y19697D01*
Y19838D01*
X8224Y19968D01*
X8125Y20068D01*
X7995Y20122D01*
D02*
G37*
G36*
X12021Y19833D02*
X11880D01*
X11750Y19779D01*
X11650Y19680D01*
X11596Y19550D01*
Y19409D01*
X11650Y19279D01*
X11750Y19179D01*
X11880Y19125D01*
X12021D01*
X12151Y19179D01*
X12250Y19279D01*
X12304Y19409D01*
Y19550D01*
X12250Y19680D01*
X12151Y19779D01*
X12021Y19833D01*
D02*
G37*
G36*
X22803Y18369D02*
X22663D01*
X22532Y18315D01*
X22433Y18216D01*
X22379Y18086D01*
Y17945D01*
X22433Y17815D01*
X22532Y17715D01*
X22663Y17661D01*
X22803D01*
X22934Y17715D01*
X23033Y17815D01*
X23087Y17945D01*
Y18086D01*
X23033Y18216D01*
X22934Y18315D01*
X22803Y18369D01*
D02*
G37*
G36*
X25978Y18265D02*
X25838D01*
X25707Y18211D01*
X25608Y18112D01*
X25554Y17981D01*
Y17841D01*
X25608Y17710D01*
X25707Y17611D01*
X25838Y17557D01*
X25978D01*
X26109Y17611D01*
X26208Y17710D01*
X26262Y17841D01*
Y17981D01*
X26208Y18112D01*
X26109Y18211D01*
X25978Y18265D01*
D02*
G37*
G36*
X24376Y18122D02*
X24235D01*
X24105Y18068D01*
X24005Y17969D01*
X23952Y17839D01*
Y17698D01*
X24005Y17568D01*
X24105Y17468D01*
X24235Y17414D01*
X24376D01*
X24506Y17468D01*
X24606Y17568D01*
X24660Y17698D01*
Y17839D01*
X24606Y17969D01*
X24506Y18068D01*
X24376Y18122D01*
D02*
G37*
G36*
X25037Y17536D02*
X24896D01*
X24766Y17482D01*
X24666Y17383D01*
X24613Y17253D01*
Y17112D01*
X24666Y16982D01*
X24766Y16882D01*
X24896Y16828D01*
X25037D01*
X25167Y16882D01*
X25267Y16982D01*
X25321Y17112D01*
Y17253D01*
X25267Y17383D01*
X25167Y17482D01*
X25037Y17536D01*
D02*
G37*
G36*
X22437Y17435D02*
X22296D01*
X22166Y17381D01*
X22066Y17282D01*
X22012Y17152D01*
Y17011D01*
X22066Y16881D01*
X22166Y16781D01*
X22296Y16727D01*
X22437D01*
X22567Y16781D01*
X22666Y16881D01*
X22720Y17011D01*
Y17152D01*
X22666Y17282D01*
X22567Y17381D01*
X22437Y17435D01*
D02*
G37*
G36*
X23311Y17376D02*
X23171D01*
X23040Y17322D01*
X22941Y17223D01*
X22887Y17092D01*
Y16952D01*
X22941Y16821D01*
X23040Y16722D01*
X23171Y16668D01*
X23311D01*
X23442Y16722D01*
X23541Y16821D01*
X23595Y16952D01*
Y17092D01*
X23541Y17223D01*
X23442Y17322D01*
X23311Y17376D01*
D02*
G37*
G36*
X20723Y16850D02*
X20583D01*
X20452Y16796D01*
X20353Y16696D01*
X20299Y16566D01*
Y16425D01*
X20353Y16295D01*
X20452Y16196D01*
X20583Y16142D01*
X20723D01*
X20854Y16196D01*
X20953Y16295D01*
X21007Y16425D01*
Y16566D01*
X20953Y16696D01*
X20854Y16796D01*
X20723Y16850D01*
D02*
G37*
G36*
X21757Y16772D02*
X21616D01*
X21486Y16718D01*
X21386Y16618D01*
X21333Y16488D01*
Y16347D01*
X21386Y16217D01*
X21486Y16117D01*
X21616Y16064D01*
X21757D01*
X21887Y16117D01*
X21987Y16217D01*
X22041Y16347D01*
Y16488D01*
X21987Y16618D01*
X21887Y16718D01*
X21757Y16772D01*
D02*
G37*
G36*
X23946Y16614D02*
X23806D01*
X23675Y16560D01*
X23576Y16461D01*
X23522Y16330D01*
Y16190D01*
X23576Y16059D01*
X23675Y15960D01*
X23806Y15906D01*
X23946D01*
X24077Y15960D01*
X24176Y16059D01*
X24230Y16190D01*
Y16330D01*
X24176Y16461D01*
X24077Y16560D01*
X23946Y16614D01*
D02*
G37*
G36*
X26220Y16208D02*
X26080D01*
X25949Y16154D01*
X25850Y16055D01*
X25796Y15924D01*
Y15784D01*
X25850Y15653D01*
X25949Y15554D01*
X26080Y15500D01*
X26220D01*
X26351Y15554D01*
X26450Y15653D01*
X26504Y15784D01*
Y15924D01*
X26450Y16055D01*
X26351Y16154D01*
X26220Y16208D01*
D02*
G37*
G36*
X7907Y16752D02*
X7766D01*
X7636Y16698D01*
X7536Y16598D01*
X7482Y16468D01*
Y16327D01*
X7536Y16197D01*
X7636Y16097D01*
X7766Y16044D01*
X7784D01*
X7869Y15917D01*
X7851Y15873D01*
Y15732D01*
X7905Y15602D01*
X8004Y15502D01*
X8134Y15448D01*
X8275D01*
X8405Y15502D01*
X8505Y15602D01*
X8559Y15732D01*
Y15873D01*
X8505Y16003D01*
X8405Y16102D01*
X8275Y16156D01*
X8257D01*
X8172Y16283D01*
X8190Y16327D01*
Y16468D01*
X8137Y16598D01*
X8037Y16698D01*
X7907Y16752D01*
D02*
G37*
G36*
X4061Y16777D02*
X3920D01*
X3790Y16723D01*
X3690Y16623D01*
X3636Y16493D01*
Y16352D01*
X3690Y16222D01*
X3790Y16123D01*
X3863Y16093D01*
X3900Y15954D01*
X3900Y15950D01*
X3875Y15925D01*
X3821Y15795D01*
Y15654D01*
X3875Y15524D01*
X3974Y15425D01*
X4105Y15371D01*
X4245D01*
X4376Y15425D01*
X4475Y15524D01*
X4529Y15654D01*
Y15795D01*
X4475Y15925D01*
X4376Y16025D01*
X4303Y16055D01*
X4265Y16194D01*
X4266Y16197D01*
X4291Y16222D01*
X4344Y16352D01*
Y16493D01*
X4291Y16623D01*
X4191Y16723D01*
X4061Y16777D01*
D02*
G37*
G36*
X7491Y15528D02*
X7351D01*
X7221Y15474D01*
X7121Y15375D01*
X7067Y15245D01*
Y15104D01*
X7121Y14974D01*
X7221Y14874D01*
X7351Y14820D01*
X7491D01*
X7622Y14874D01*
X7721Y14974D01*
X7775Y15104D01*
Y15245D01*
X7721Y15375D01*
X7622Y15474D01*
X7491Y15528D01*
D02*
G37*
G36*
X2560Y16042D02*
X2419D01*
X2289Y15988D01*
X2189Y15889D01*
X2135Y15759D01*
Y15618D01*
X2189Y15488D01*
X2280Y15397D01*
X2289Y15380D01*
X2297Y15247D01*
X2240Y15191D01*
X2186Y15060D01*
Y14920D01*
X2240Y14789D01*
X2339Y14690D01*
X2470Y14636D01*
X2610D01*
X2741Y14690D01*
X2840Y14789D01*
X2894Y14920D01*
Y15060D01*
X2840Y15191D01*
X2749Y15281D01*
X2740Y15298D01*
X2733Y15431D01*
X2790Y15488D01*
X2843Y15618D01*
Y15759D01*
X2790Y15889D01*
X2690Y15988D01*
X2560Y16042D01*
D02*
G37*
G36*
X19882Y15312D02*
X19742D01*
X19611Y15258D01*
X19512Y15159D01*
X19458Y15028D01*
Y14888D01*
X19512Y14757D01*
X19611Y14658D01*
X19742Y14604D01*
X19882D01*
X20013Y14658D01*
X20112Y14757D01*
X20166Y14888D01*
Y15028D01*
X20112Y15159D01*
X20013Y15258D01*
X19882Y15312D01*
D02*
G37*
G36*
X21520Y12508D02*
X21380D01*
X21249Y12454D01*
X21150Y12355D01*
X21096Y12224D01*
Y12084D01*
X21150Y11953D01*
X21249Y11854D01*
X21380Y11800D01*
X21520D01*
X21651Y11854D01*
X21750Y11953D01*
X21804Y12084D01*
Y12224D01*
X21750Y12355D01*
X21651Y12454D01*
X21520Y12508D01*
D02*
G37*
G36*
X1565Y5432D02*
X1424D01*
X1294Y5378D01*
X1194Y5279D01*
X1140Y5148D01*
Y5008D01*
X1194Y4878D01*
X1294Y4778D01*
X1424Y4724D01*
X1565D01*
X1695Y4778D01*
X1795Y4878D01*
X1848Y5008D01*
Y5148D01*
X1795Y5279D01*
X1695Y5378D01*
X1565Y5432D01*
D02*
G37*
G36*
X15310Y2898D02*
X15170D01*
X15039Y2844D01*
X14940Y2745D01*
X14886Y2614D01*
Y2474D01*
X14940Y2343D01*
X15039Y2244D01*
X15170Y2190D01*
X15310D01*
X15441Y2244D01*
X15540Y2343D01*
X15594Y2474D01*
Y2614D01*
X15540Y2745D01*
X15441Y2844D01*
X15310Y2898D01*
D02*
G37*
G36*
X25320Y2608D02*
X25180D01*
X25049Y2554D01*
X24950Y2455D01*
X24896Y2324D01*
Y2184D01*
X24950Y2053D01*
X25049Y1954D01*
X25180Y1900D01*
X25320D01*
X25451Y1954D01*
X25550Y2053D01*
X25604Y2184D01*
Y2324D01*
X25550Y2455D01*
X25451Y2554D01*
X25320Y2608D01*
D02*
G37*
G36*
X23770Y2008D02*
X23630D01*
X23499Y1954D01*
X23400Y1855D01*
X23346Y1724D01*
Y1584D01*
X23400Y1453D01*
X23499Y1354D01*
X23630Y1300D01*
X23770D01*
X23901Y1354D01*
X24000Y1453D01*
X24054Y1584D01*
Y1724D01*
X24000Y1855D01*
X23901Y1954D01*
X23770Y2008D01*
D02*
G37*
G36*
X3367Y1439D02*
X3226D01*
X3096Y1385D01*
X2997Y1286D01*
X2943Y1156D01*
Y1015D01*
X2997Y885D01*
X3096Y785D01*
X3226Y731D01*
X3367D01*
X3497Y785D01*
X3597Y885D01*
X3651Y1015D01*
Y1156D01*
X3597Y1286D01*
X3497Y1385D01*
X3367Y1439D01*
D02*
G37*
G36*
X61277Y1497D02*
X61263D01*
X61252Y1494D01*
X61221Y1492D01*
X61185Y1481D01*
X61143Y1467D01*
X61099Y1442D01*
X61055Y1411D01*
X61032Y1389D01*
X61013Y1367D01*
Y1364D01*
X61007Y1361D01*
X61005Y1353D01*
X60996Y1342D01*
X60988Y1328D01*
X60980Y1311D01*
X60971Y1292D01*
X60960Y1270D01*
X60949Y1242D01*
X60941Y1211D01*
X60932Y1178D01*
X60924Y1142D01*
X60919Y1103D01*
X60913Y1059D01*
X60907Y1011D01*
Y961D01*
Y959D01*
Y950D01*
Y936D01*
X60910Y917D01*
Y895D01*
X60913Y870D01*
X60921Y812D01*
X60935Y748D01*
X60955Y681D01*
X60982Y617D01*
X60999Y589D01*
X61018Y562D01*
X61021D01*
X61024Y556D01*
X61038Y542D01*
X61063Y520D01*
X61093Y498D01*
X61132Y473D01*
X61179Y451D01*
X61229Y437D01*
X61257Y434D01*
X61285Y431D01*
X61299D01*
X61310Y434D01*
X61341Y437D01*
X61377Y448D01*
X61418Y462D01*
X61463Y484D01*
X61507Y514D01*
X61529Y534D01*
X61549Y556D01*
Y559D01*
X61554Y562D01*
X61560Y570D01*
X61565Y581D01*
X61574Y595D01*
X61585Y609D01*
X61593Y631D01*
X61604Y653D01*
X61615Y678D01*
X61624Y706D01*
X61635Y739D01*
X61643Y773D01*
X61649Y812D01*
X61654Y850D01*
X61660Y895D01*
Y942D01*
Y945D01*
Y956D01*
Y970D01*
X61657Y989D01*
Y1011D01*
X61654Y1039D01*
X61651Y1070D01*
X61646Y1103D01*
X61632Y1170D01*
X61613Y1239D01*
X61585Y1306D01*
X61568Y1333D01*
X61549Y1361D01*
Y1364D01*
X61543Y1367D01*
X61529Y1383D01*
X61504Y1406D01*
X61474Y1431D01*
X61435Y1456D01*
X61388Y1475D01*
X61335Y1492D01*
X61307Y1494D01*
X61277Y1497D01*
D02*
G37*
G36*
X65380Y967D02*
X65377D01*
X65374Y964D01*
X65366Y961D01*
X65355Y959D01*
X65341Y953D01*
X65324Y948D01*
X65305Y942D01*
X65283Y936D01*
X65258Y928D01*
X65227Y923D01*
X65197Y914D01*
X65161Y906D01*
X65122Y898D01*
X65083Y889D01*
X65038Y884D01*
X64991Y875D01*
X64986D01*
X64969Y873D01*
X64941Y867D01*
X64911Y862D01*
X64877Y856D01*
X64844Y848D01*
X64814Y839D01*
X64786Y828D01*
X64783D01*
X64775Y823D01*
X64764Y817D01*
X64752Y809D01*
X64719Y787D01*
X64691Y753D01*
Y750D01*
X64686Y745D01*
X64683Y734D01*
X64678Y720D01*
X64672Y703D01*
X64666Y687D01*
X64664Y664D01*
X64661Y642D01*
Y639D01*
Y626D01*
X64664Y609D01*
X64669Y587D01*
X64678Y562D01*
X64691Y537D01*
X64708Y509D01*
X64730Y484D01*
X64733Y481D01*
X64744Y476D01*
X64761Y465D01*
X64783Y453D01*
X64814Y442D01*
X64850Y431D01*
X64891Y426D01*
X64941Y423D01*
X64963D01*
X64991Y426D01*
X65022Y431D01*
X65061Y437D01*
X65100Y448D01*
X65141Y462D01*
X65183Y481D01*
X65188Y484D01*
X65199Y492D01*
X65219Y506D01*
X65241Y526D01*
X65266Y548D01*
X65294Y576D01*
X65316Y609D01*
X65338Y645D01*
X65341Y648D01*
X65344Y659D01*
X65349Y678D01*
X65358Y703D01*
X65366Y737D01*
X65372Y775D01*
X65374Y823D01*
X65377Y878D01*
X65380Y967D01*
D02*
G37*
G36*
X67898Y1497D02*
X67881D01*
X67870Y1494D01*
X67840Y1492D01*
X67804Y1483D01*
X67759Y1469D01*
X67712Y1450D01*
X67668Y1422D01*
X67623Y1386D01*
X67618Y1381D01*
X67606Y1367D01*
X67587Y1342D01*
X67568Y1308D01*
X67545Y1270D01*
X67526Y1220D01*
X67509Y1161D01*
X67501Y1097D01*
X68281D01*
Y1100D01*
Y1106D01*
X68278Y1114D01*
Y1125D01*
X68273Y1159D01*
X68264Y1195D01*
X68251Y1239D01*
X68237Y1281D01*
X68214Y1322D01*
X68189Y1358D01*
Y1361D01*
X68184Y1364D01*
X68170Y1381D01*
X68145Y1403D01*
X68112Y1428D01*
X68070Y1453D01*
X68020Y1475D01*
X67962Y1492D01*
X67931Y1494D01*
X67898Y1497D01*
D02*
G37*
%LPD*%
D60*
X39869Y18113D02*
D03*
X38158D02*
D03*
D61*
X43482Y23344D02*
D03*
X42042Y27797D02*
D03*
X39773D02*
D03*
X39580Y26245D02*
D03*
X39587Y23245D02*
D03*
X41406Y21604D02*
D03*
X41452Y19284D02*
D03*
X42993Y20489D02*
D03*
X43573Y26061D02*
D03*
X37600Y22303D02*
D03*
Y27505D02*
D03*
X44476Y19106D02*
D03*
Y24797D02*
D03*
Y21797D02*
D03*
Y27797D02*
D03*
Y7106D02*
D03*
Y16106D02*
D03*
Y13106D02*
D03*
Y10106D02*
D03*
Y4106D02*
D03*
X9634Y11340D02*
D03*
X536Y25768D02*
D03*
X1200Y30554D02*
D03*
X23100Y27504D02*
D03*
X22811Y26698D02*
D03*
X4191Y27563D02*
D03*
X2655Y28716D02*
D03*
X1550Y27504D02*
D03*
X3200Y26454D02*
D03*
X6778Y28006D02*
D03*
X6096Y27944D02*
D03*
X28500Y27054D02*
D03*
X5192Y11962D02*
D03*
X5207Y13212D02*
D03*
X3522Y24004D02*
D03*
X2250D02*
D03*
X1000D02*
D03*
X5645Y19750D02*
D03*
X5651Y20955D02*
D03*
X5702Y22170D02*
D03*
X34700Y27904D02*
D03*
X34060Y26620D02*
D03*
X29300Y26404D02*
D03*
X28800Y28004D02*
D03*
X34807Y29202D02*
D03*
X35807Y27202D02*
D03*
X34807Y25202D02*
D03*
X35807Y23202D02*
D03*
X34807Y21202D02*
D03*
X35807Y15202D02*
D03*
Y7202D02*
D03*
X34807Y5202D02*
D03*
X35807Y3202D02*
D03*
X34807Y1202D02*
D03*
X32807Y25202D02*
D03*
Y17202D02*
D03*
X33807Y15202D02*
D03*
Y7202D02*
D03*
X32807Y5202D02*
D03*
X33807Y3202D02*
D03*
X32807Y1202D02*
D03*
X30807Y21202D02*
D03*
X31807Y19202D02*
D03*
X30807Y17202D02*
D03*
X31807Y15202D02*
D03*
Y11202D02*
D03*
X30807Y9202D02*
D03*
X31807Y7202D02*
D03*
X30807Y5202D02*
D03*
X31807Y3202D02*
D03*
X30807Y1202D02*
D03*
X28800Y29202D02*
D03*
X28807Y21202D02*
D03*
X29807Y19202D02*
D03*
X28807Y17202D02*
D03*
X29807Y15202D02*
D03*
Y11202D02*
D03*
X28807Y9202D02*
D03*
X29807Y7202D02*
D03*
X28807Y5202D02*
D03*
X29807Y3202D02*
D03*
X28807Y1202D02*
D03*
X27807Y19202D02*
D03*
X26807Y17202D02*
D03*
X27807Y15202D02*
D03*
Y11202D02*
D03*
Y7202D02*
D03*
X26807Y5202D02*
D03*
X27807Y3202D02*
D03*
X26807Y1202D02*
D03*
X25807Y11202D02*
D03*
X24807Y9202D02*
D03*
X25807Y7202D02*
D03*
X24807Y5202D02*
D03*
X25807Y3202D02*
D03*
X23807Y11202D02*
D03*
X22807Y5202D02*
D03*
Y1202D02*
D03*
X20807Y9202D02*
D03*
X21807Y7202D02*
D03*
Y3202D02*
D03*
X20807Y1202D02*
D03*
X19807Y11202D02*
D03*
Y7202D02*
D03*
X18807Y5202D02*
D03*
X19807Y3202D02*
D03*
X16807Y9202D02*
D03*
X17807Y7202D02*
D03*
X16807Y5202D02*
D03*
X17807Y3202D02*
D03*
X14807Y13202D02*
D03*
X15807Y7202D02*
D03*
X12807Y21202D02*
D03*
Y13202D02*
D03*
X13807Y7202D02*
D03*
X12807Y5202D02*
D03*
X13807Y3202D02*
D03*
X10807Y13202D02*
D03*
Y9202D02*
D03*
Y5202D02*
D03*
X11807Y3202D02*
D03*
X7807Y7202D02*
D03*
X6807Y1202D02*
D03*
X1807Y3202D02*
D03*
X36200Y13804D02*
D03*
X2540Y14990D02*
D03*
X3297Y1085D02*
D03*
X1494Y5078D02*
D03*
X23700Y1654D02*
D03*
X25250Y2254D02*
D03*
X21450Y12154D02*
D03*
X26150Y15854D02*
D03*
X19812Y14958D02*
D03*
X19113Y1275D02*
D03*
X12550Y28004D02*
D03*
X17214Y22099D02*
D03*
X15621Y20959D02*
D03*
X16383Y21721D02*
D03*
X11318Y16063D02*
D03*
X7421Y15174D02*
D03*
X8205Y15802D02*
D03*
X10414Y15879D02*
D03*
X7836Y16398D02*
D03*
X15240Y2544D02*
D03*
X4760Y2525D02*
D03*
X20653Y16496D02*
D03*
X18953Y30715D02*
D03*
X15748Y27182D02*
D03*
Y27944D02*
D03*
X14538Y22253D02*
D03*
X4175Y15725D02*
D03*
X25561Y26472D02*
D03*
X16256Y16664D02*
D03*
X2489Y15688D02*
D03*
X3990Y16423D02*
D03*
X7495Y18504D02*
D03*
X6713D02*
D03*
X2144Y29189D02*
D03*
X7924Y19768D02*
D03*
X13212Y29945D02*
D03*
X8544Y22348D02*
D03*
X23876Y16260D02*
D03*
X18357Y22099D02*
D03*
X14097Y23880D02*
D03*
Y25023D02*
D03*
Y26166D02*
D03*
X19891Y30664D02*
D03*
X26286Y28157D02*
D03*
X26481Y28931D02*
D03*
X23621Y27844D02*
D03*
X23836Y26570D02*
D03*
X27178Y28960D02*
D03*
X27051Y28198D02*
D03*
X26416Y27309D02*
D03*
X25008Y25777D02*
D03*
X24500Y30754D02*
D03*
X23241Y17022D02*
D03*
X24306Y17768D02*
D03*
X24967Y17182D02*
D03*
X37319Y18122D02*
D03*
X15621Y19816D02*
D03*
X22733Y18015D02*
D03*
X11811Y23372D02*
D03*
X6764Y19761D02*
D03*
X9952Y22366D02*
D03*
X10416Y21973D02*
D03*
X9248Y21825D02*
D03*
X28176Y25897D02*
D03*
X27249Y25643D02*
D03*
X11863Y21277D02*
D03*
X6875Y22172D02*
D03*
X6866Y20894D02*
D03*
X11281Y5954D02*
D03*
X28475Y22273D02*
D03*
X27521Y22530D02*
D03*
X17852Y20062D02*
D03*
X18696Y20561D02*
D03*
X15113Y10545D02*
D03*
X10085Y27727D02*
D03*
X27614Y20558D02*
D03*
X18584Y29887D02*
D03*
X27985Y29881D02*
D03*
X2540Y17657D02*
D03*
X6257Y23623D02*
D03*
X7018Y23612D02*
D03*
X22536Y21808D02*
D03*
Y22859D02*
D03*
Y23818D02*
D03*
Y24818D02*
D03*
X23555Y24828D02*
D03*
Y23824D02*
D03*
X23565Y22859D02*
D03*
X21591Y21802D02*
D03*
X23565Y21830D02*
D03*
X21591Y24818D02*
D03*
X21581Y22859D02*
D03*
X21591Y23817D02*
D03*
X20542Y21808D02*
D03*
X20550Y23803D02*
D03*
X20555Y24812D02*
D03*
X20557Y22859D02*
D03*
X10944Y22432D02*
D03*
X21687Y16418D02*
D03*
X2540Y21086D02*
D03*
X22366Y17081D02*
D03*
X20320Y26801D02*
D03*
X25908Y17911D02*
D03*
X11950Y19479D02*
D03*
X2413Y20070D02*
D03*
D97*
X9634Y11340D02*
X10429Y10545D01*
X15113D01*
X7482Y27715D02*
Y28764D01*
X8541Y29823D02*
X10508D01*
X7482Y28764D02*
X8541Y29823D01*
X3200Y26454D02*
X3209Y26445D01*
X6212D01*
X7482Y27715D01*
X16680Y13854D02*
X36150D01*
X36200Y13804D01*
X16680Y12112D02*
Y13854D01*
Y16217D01*
X19673Y1275D02*
X20750Y2352D01*
X17378Y11413D02*
X20750Y8042D01*
Y2352D02*
Y8042D01*
X11277Y29054D02*
X12687D01*
X13208Y26674D02*
X14138Y27604D01*
X16421Y29887D01*
X12687Y29054D02*
X14138Y27604D01*
Y27604D02*
Y27604D01*
X19113Y1275D02*
X19673D01*
X16510Y10545D02*
X17378Y11413D01*
X10508Y29823D02*
X11277Y29054D01*
X9248Y21411D02*
Y23430D01*
X11318Y16063D02*
Y17974D01*
X11509Y18165D01*
X15113Y10545D02*
X16510D01*
X16680Y12112D02*
X17378Y11413D01*
X13208Y22229D02*
Y26674D01*
X15621Y19816D02*
X16233Y19204D01*
X13208Y22229D02*
X15621Y19816D01*
X14348Y16664D02*
X16256D01*
X10251Y18165D02*
Y20407D01*
X9248Y21411D02*
X10251Y20407D01*
X2546Y17663D02*
X9749D01*
X10251Y18165D01*
X11509D01*
X12847D01*
X14348Y16664D01*
X16233Y19204D02*
X26439D01*
X16421Y29887D02*
X18584D01*
X16256Y16641D02*
X16680Y16217D01*
X18584Y29887D02*
X27979D01*
X26439Y19204D02*
X27614Y20379D01*
X9248Y23430D02*
Y26890D01*
X11753Y23430D02*
X11811Y23372D01*
X9248Y23430D02*
X11753D01*
X27979Y29887D02*
X27985Y29881D01*
X9248Y26890D02*
X10085Y27727D01*
X27614Y20379D02*
Y20558D01*
D107*
X41850Y30404D02*
D03*
Y1604D02*
D03*
X9000Y13204D02*
D03*
D108*
X450Y26704D02*
D03*
X481Y28204D02*
D03*
X36703Y1254D02*
D03*
X31367Y23479D02*
D03*
X33000Y24604D02*
D03*
X30816Y26181D02*
D03*
X30179Y25546D02*
D03*
X31622Y25343D02*
D03*
X32224Y26011D02*
D03*
X18543Y31246D02*
D03*
X19451D02*
D03*
X36000Y18704D02*
D03*
X32400Y22404D02*
D03*
X32450Y20654D02*
D03*
X32616Y23383D02*
D03*
X36703Y18704D02*
D03*
X32340Y24641D02*
D03*
X32937Y22878D02*
D03*
X32939Y21978D02*
D03*
X32931Y20178D02*
D03*
X33095Y19293D02*
D03*
X33545Y18514D02*
D03*
X34223Y17923D02*
D03*
X35060Y17592D02*
D03*
X35959Y17540D02*
D03*
X36703D02*
D03*
X35318Y18733D02*
D03*
X34526Y19160D02*
D03*
X34123Y19965D02*
D03*
X34098Y20864D02*
D03*
X34098Y21764D02*
D03*
X34099Y22664D02*
D03*
X34068Y23564D02*
D03*
X33593Y24328D02*
D03*
X36703Y16096D02*
D03*
Y15188D02*
D03*
Y17004D02*
D03*
Y20350D02*
D03*
Y19442D02*
D03*
Y12929D02*
D03*
X3604Y433D02*
D03*
X14500D02*
D03*
X12684Y433D02*
D03*
X13592D02*
D03*
X11776D02*
D03*
X2696Y433D02*
D03*
X1788D02*
D03*
X880D02*
D03*
X19451D02*
D03*
X28531D02*
D03*
X24899D02*
D03*
X35795D02*
D03*
X32163D02*
D03*
X29439D02*
D03*
X33979D02*
D03*
X27623D02*
D03*
X31255D02*
D03*
X30347D02*
D03*
X25807D02*
D03*
X33071D02*
D03*
X26715D02*
D03*
X23991D02*
D03*
X36703D02*
D03*
X34887D02*
D03*
X21267D02*
D03*
X20359D02*
D03*
X23083D02*
D03*
X22175D02*
D03*
X25825Y25097D02*
D03*
X473Y2781D02*
D03*
Y1873D02*
D03*
X470Y966D02*
D03*
X476Y3689D02*
D03*
X478Y6413D02*
D03*
X481Y7320D02*
D03*
Y8228D02*
D03*
X478Y5505D02*
D03*
X476Y4597D02*
D03*
X36703Y31246D02*
D03*
Y23982D02*
D03*
Y30338D02*
D03*
Y27614D02*
D03*
Y21258D02*
D03*
Y26706D02*
D03*
Y29430D02*
D03*
Y25798D02*
D03*
Y22166D02*
D03*
Y28522D02*
D03*
Y23074D02*
D03*
Y12063D02*
D03*
Y24890D02*
D03*
Y11155D02*
D03*
Y10247D02*
D03*
Y2798D02*
D03*
Y4195D02*
D03*
Y3545D02*
D03*
Y4845D02*
D03*
X26670Y25023D02*
D03*
X36703Y2075D02*
D03*
Y5707D02*
D03*
Y9339D02*
D03*
Y8431D02*
D03*
Y7523D02*
D03*
Y6615D02*
D03*
X481Y29112D02*
D03*
Y30020D02*
D03*
Y19124D02*
D03*
Y15492D02*
D03*
Y12768D02*
D03*
Y17308D02*
D03*
Y10952D02*
D03*
Y14584D02*
D03*
Y13676D02*
D03*
Y16400D02*
D03*
Y10044D02*
D03*
Y11860D02*
D03*
Y18216D02*
D03*
Y20940D02*
D03*
Y20032D02*
D03*
Y21848D02*
D03*
X21267Y31246D02*
D03*
X20359D02*
D03*
X23991D02*
D03*
X24899D02*
D03*
X22175D02*
D03*
X23083D02*
D03*
X27623D02*
D03*
X28531D02*
D03*
X25807D02*
D03*
X26715D02*
D03*
X31255D02*
D03*
X32163D02*
D03*
X29439D02*
D03*
X30347D02*
D03*
X34887D02*
D03*
X35795D02*
D03*
X33071D02*
D03*
X33979D02*
D03*
X31044Y24679D02*
D03*
X32950Y21254D02*
D03*
X17064Y27828D02*
D03*
X17018Y27055D02*
D03*
X31750Y24642D02*
D03*
X29716Y24661D02*
D03*
X28702Y24642D02*
D03*
X25807Y23437D02*
D03*
X26670Y23245D02*
D03*
X27813Y23499D02*
D03*
X28829D02*
D03*
X17907Y27817D02*
D03*
X18034Y27055D02*
D03*
Y25658D02*
D03*
X17041Y25675D02*
D03*
X31927Y23479D02*
D03*
X30500D02*
D03*
X29677Y23075D02*
D03*
X27705Y25064D02*
D03*
M02*
