M48
;Layer_Color=9474304
;FILE_FORMAT=4:4
METRIC
;TYPE=PLATED
T01F00S00C0.2000
T02F00S00C0.2540
T03F00S00C2.0000
%
T01
X00230830Y00004330
X00239910
X00248990
X00258070
X00267150
X00276230
X00285310
X00294390
X00303470
X00312550
X00321630
X00330710
X00339790
X00348870
X00357950
X00367030
Y00012540
Y00020750
Y00027980
Y00035450
Y00041950
Y00048450
Y00057070
Y00066150
Y00075230
Y00084310
Y00093390
Y00102470
X00221750Y00004330
X00212670
X00203590
X00194510
X00145000
X00135920Y00004326
X00126840
X00117760
X00036040Y00004330
X00026960
X00017880
X00008800
X00004703Y00009660
X00004730Y00018735
Y00027815
X00004757Y00036890
Y00045970
X00004783Y00055045
Y00064125
X00004810Y00073200
Y00082280
Y00100440
Y00109520
Y00118600
Y00127680
Y00136760
Y00145840
Y00154920
Y00164000
Y00173080
Y00182160
Y00191240
Y00200320
Y00209400
Y00218480
X00004500Y00267040
X00004810Y00282040
Y00291120
Y00300200
X00170636Y00278284
X00170180Y00270550
X00180340
X00179070Y00278170
X00180340Y00256580
X00170408Y00256747
X00185430Y00312460
X00194510
X00203590
X00212670
X00221750
X00230830
X00239910
X00248990
X00258070
X00267150
X00276230
X00285310
X00294390
X00303470
X00312550
X00321630
X00330710
X00339790
X00348870
X00357950
X00367030
Y00303380
Y00294300
Y00285220
Y00276140
Y00267060
Y00257980
Y00248900
Y00239820
Y00230740
Y00221660
Y00212580
Y00203500
Y00194420
Y00187040
X00360000
X00353179Y00187325
X00345258Y00191597
X00341233Y00199647
X00340975Y00208643
X00340984Y00217643
X00340992Y00226643
X00340683Y00235638
X00335927Y00243279
X00330000Y00246040
X00323403Y00246412
X00317500Y00246420
X00310436Y00246794
X00316218Y00253430
X00322245Y00260114
X00308162Y00261811
X00301789Y00255455
X00297158Y00246614
X00287020Y00246420
X00288290Y00234990
X00278130
X00266700Y00232450
X00258073Y00234372
X00258248Y00250974
X00266700Y00250230
X00277050Y00250642
X00296769Y00230747
X00305000Y00234790
X00313666
X00319270
X00326157Y00233828
X00329369Y00228782
X00329393Y00219782
X00329500Y00212540
X00329310Y00201783
X00324500Y00206540
X00324000Y00224040
X00330951Y00192934
X00335446Y00185137
X00342234Y00179227
X00350603Y00175917
X00359589Y00175403
X00367030
Y00170040
Y00160960
Y00151880
Y00129290
Y00120630
Y00111550
T02
X00228071Y00012016
X00237000Y00016540
X00252500Y00022540
X00258071Y00032016
X00278071
X00298071
X00318071
X00338071
X00358071
X00348071Y00052017
X00328071
X00308071
X00288071
X00268071
X00248071
X00228071
X00258071Y00072017
X00278071
X00298071
X00318071
X00338071
X00358071
X00348071Y00012016
X00328071
X00308071
X00288071
X00268071
X00288071Y00092016
X00308071
X00248071
X00444760Y00101055
Y00071055
Y00041055
X00218071Y00032016
X00198071
X00178071
X00188071Y00052017
X00168071
X00178071Y00072017
X00198071
X00218071
X00208071Y00092016
X00168071
X00158071Y00072017
X00138071
X00128071Y00052017
X00108071
X00112807Y00059545
X00118071Y00032016
X00138071
X00152400Y00025440
X00191134Y00012754
X00208071Y00012016
X00068071
X00047600Y00025250
X00032968Y00010851
X00018071Y00032016
X00014944Y00050781
X00078071Y00072017
X00108071Y00092016
X00151130Y00105450
X00148071Y00132016
X00128071
X00108071
X00096344Y00113400
X00051918Y00119621
X00052070Y00132120
X00041750Y00157249
X00039904Y00164228
X00024894Y00156882
X00025400Y00149900
Y00176570
X00024130Y00200700
X00025400Y00210860
X00022500Y00240040
X00010000
X00005364Y00257679
X00015500Y00275040
X00021440Y00291888
X00026548Y00287161
X00041910Y00275630
X00032000Y00264540
X00035225Y00240040
X00062571Y00236232
X00070180Y00236124
X00068748Y00221720
X00057016Y00221698
X00056514Y00209550
X00056446Y00197496
X00067643Y00197607
X00079244Y00197679
X00074954Y00185042
X00067130
X00068659Y00208944
X00085437Y00223485
X00092477Y00218246
X00099517Y00223662
X00104157Y00219733
X00109442Y00224320
X00118110Y00233720
X00118629Y00212765
X00128071Y00212017
X00119503Y00194792
X00156210Y00198160
Y00209590
X00163830Y00217210
X00172144Y00220995
X00183574
X00186964Y00205614
X00178524Y00200616
X00205421Y00218076
X00215911Y00218025
X00215810Y00228591
X00215911Y00238167
Y00248184
X00205548Y00248124
X00205497Y00238029
X00205574Y00228591
X00203200Y00268010
X00198909Y00306638
X00189528Y00307154
X00185836Y00298873
X00157480Y00279440
Y00271820
X00140970Y00261660
Y00250230
Y00238800
X00145382Y00222531
X00162560Y00166642
X00206530Y00164958
X00216865Y00164175
X00198120Y00149580
X00198071Y00112016
X00214500Y00121540
X00113182Y00160628
X00104140Y00158790
X00082048Y00158023
X00078365Y00163976
X00074211Y00151743
X00067780Y00280062
X00060960Y00279440
X00100847Y00277266
X00125500Y00280040
X00132120Y00299450
X00012000Y00305540
X00245000Y00307540
X00236208Y00278438
X00231000Y00275040
X00228111Y00266978
X00238363Y00265702
X00255606Y00264723
X00250079Y00257767
X00272486Y00256432
X00281763Y00258972
X00285000Y00270540
X00288000Y00280040
Y00292017
X00279850Y00298813
X00271780Y00289600
X00264815Y00289313
X00262855Y00281573
X00270510Y00281980
X00264160Y00273090
X00293000Y00264040
X00328071Y00252017
X00348071
X00340596Y00266204
X00347000Y00279040
X00348071Y00292017
X00358071Y00272017
X00376000Y00275050
X00397730Y00277965
X00395800Y00262445
X00395870Y00232445
X00376000Y00223025
X00358071Y00232017
X00348071Y00212017
X00308071
X00288071
X00284752Y00222732
X00275206Y00225299
X00276140Y00205578
X00278071Y00192017
X00298071
X00318071
X00328071Y00172017
X00308071
X00288071
X00268071
X00259080Y00179110
X00249665Y00171821
X00243055Y00177682
X00232410Y00170220
X00223661Y00170814
X00227330Y00180153
X00238760Y00162600
X00261500Y00158540
X00278071Y00152016
X00298071
X00318071
X00338071
X00358071
X00362000Y00138040
X00373186Y00181215
X00381580Y00181125
X00398690
X00414520Y00192835
X00414060Y00216035
X00429930Y00204885
X00444760Y00217965
X00434820Y00233435
X00444760Y00247965
X00435730Y00260605
X00444760Y00277965
X00420420
X00444760Y00191055
Y00161055
Y00131055
X00318071Y00112016
X00298071
X00278071
X00258071
X00238071
X00235647Y00218304
Y00228591
X00235546Y00238243
Y00248276
X00225360Y00248184
Y00238181
Y00228591
Y00218076
T03
X00418500Y00016040
X00090000Y00132040
X00418500Y00304040
M30
