G04*
G04 #@! TF.GenerationSoftware,Altium Limited,Altium Designer,24.10.1 (45)*
G04*
G04 Layer_Physical_Order=1*
G04 Layer_Color=255*
%FSLAX43Y43*%
%MOMM*%
G71*
G04*
G04 #@! TF.SameCoordinates,E76F5DE2-06B9-4884-A6CF-3CBD088EBE90*
G04*
G04*
G04 #@! TF.FilePolarity,Positive*
G04*
G01*
G75*
%ADD11C,0.200*%
%ADD14C,0.100*%
%ADD15C,0.150*%
%ADD24R,0.305X0.660*%
%ADD25R,3.099X2.388*%
%ADD29R,1.200X1.000*%
G04:AMPARAMS|DCode=30|XSize=1mm|YSize=0.46mm|CornerRadius=0.115mm|HoleSize=0mm|Usage=FLASHONLY|Rotation=0.000|XOffset=0mm|YOffset=0mm|HoleType=Round|Shape=RoundedRectangle|*
%AMROUNDEDRECTD30*
21,1,1.000,0.230,0,0,0.0*
21,1,0.770,0.460,0,0,0.0*
1,1,0.230,0.385,-0.115*
1,1,0.230,-0.385,-0.115*
1,1,0.230,-0.385,0.115*
1,1,0.230,0.385,0.115*
%
%ADD30ROUNDEDRECTD30*%
%ADD50C,0.500*%
%ADD60C,0.450*%
%ADD61C,0.508*%
%ADD62C,0.340*%
%ADD63R,0.280X0.300*%
%ADD64R,0.300X0.280*%
%ADD65R,0.300X0.300*%
%ADD66R,1.150X0.800*%
%ADD67R,2.000X3.600*%
%ADD68R,1.000X0.300*%
%ADD69R,0.700X0.300*%
%ADD70R,0.640X0.890*%
%ADD71R,0.890X0.640*%
%ADD72R,0.650X0.560*%
%ADD73R,0.740X2.790*%
%ADD74R,0.750X0.850*%
%ADD75R,1.000X1.250*%
%ADD76O,0.300X0.750*%
%ADD77O,0.750X0.300*%
%ADD78R,3.700X3.700*%
%ADD79R,1.550X0.850*%
%ADD80R,0.400X0.500*%
%ADD81R,3.000X2.600*%
%ADD82R,3.000X3.600*%
%ADD83R,0.900X1.000*%
%ADD84R,1.700X0.800*%
%ADD85R,1.100X2.200*%
%ADD86R,1.000X1.000*%
%ADD87R,1.000X0.640*%
%ADD88R,0.560X0.510*%
%ADD89R,0.510X0.700*%
%ADD90R,0.510X0.560*%
%ADD91R,0.700X0.510*%
G04:AMPARAMS|DCode=92|XSize=0.56mm|YSize=0.51mm|CornerRadius=0mm|HoleSize=0mm|Usage=FLASHONLY|Rotation=135.000|XOffset=0mm|YOffset=0mm|HoleType=Round|Shape=Rectangle|*
%AMROTATEDRECTD92*
4,1,4,0.378,-0.018,0.018,-0.378,-0.378,0.018,-0.018,0.378,0.378,-0.018,0.0*
%
%ADD92ROTATEDRECTD92*%

G04:AMPARAMS|DCode=93|XSize=0.4mm|YSize=0.5mm|CornerRadius=0mm|HoleSize=0mm|Usage=FLASHONLY|Rotation=225.000|XOffset=0mm|YOffset=0mm|HoleType=Round|Shape=Rectangle|*
%AMROTATEDRECTD93*
4,1,4,-0.035,0.318,0.318,-0.035,0.035,-0.318,-0.318,0.035,-0.035,0.318,0.0*
%
%ADD93ROTATEDRECTD93*%

%ADD94R,0.500X0.400*%
G04:AMPARAMS|DCode=95|XSize=0.4mm|YSize=0.5mm|CornerRadius=0mm|HoleSize=0mm|Usage=FLASHONLY|Rotation=135.000|XOffset=0mm|YOffset=0mm|HoleType=Round|Shape=Rectangle|*
%AMROTATEDRECTD95*
4,1,4,0.318,0.035,-0.035,-0.318,-0.318,-0.035,0.035,0.318,0.318,0.035,0.0*
%
%ADD95ROTATEDRECTD95*%

G04:AMPARAMS|DCode=96|XSize=0.56mm|YSize=0.51mm|CornerRadius=0mm|HoleSize=0mm|Usage=FLASHONLY|Rotation=225.000|XOffset=0mm|YOffset=0mm|HoleType=Round|Shape=Rectangle|*
%AMROTATEDRECTD96*
4,1,4,0.018,0.378,0.378,0.018,-0.018,-0.378,-0.378,-0.018,0.018,0.378,0.0*
%
%ADD96ROTATEDRECTD96*%

%ADD97C,0.700*%
%ADD98C,0.650*%
%ADD99C,0.300*%
%ADD100C,0.500*%
%ADD101C,0.250*%
%ADD102C,0.400*%
%ADD103C,0.600*%
%ADD104C,0.280*%
%ADD105C,0.180*%
%ADD106C,0.260*%
%ADD107C,2.000*%
%ADD108C,0.400*%
G36*
X900Y30755D02*
X846Y30624D01*
Y30484D01*
X900Y30353D01*
X999Y30254D01*
X1130Y30200D01*
X1270D01*
X1293Y30209D01*
X1712Y29790D01*
X1770Y29751D01*
X1838Y29738D01*
X2738D01*
X2777Y29699D01*
X2767Y29546D01*
X2731Y29519D01*
X2393D01*
X2325Y29506D01*
X2317Y29500D01*
X2214Y29543D01*
X2074D01*
X1943Y29489D01*
X1844Y29389D01*
X1790Y29259D01*
Y29118D01*
X1844Y28988D01*
X1943Y28889D01*
X2074Y28835D01*
X2183D01*
X2231Y28815D01*
X2301Y28733D01*
Y28646D01*
X2355Y28516D01*
X2454Y28416D01*
X2584Y28362D01*
X2725D01*
X2828Y28293D01*
Y28091D01*
X2899D01*
Y27843D01*
X2459Y27404D01*
X2409Y27329D01*
X2392Y27241D01*
Y26416D01*
X2349Y26363D01*
X2283Y26336D01*
X2255Y26348D01*
Y27154D01*
X1928D01*
Y27237D01*
X1915Y27305D01*
X1876Y27363D01*
X1875Y27364D01*
X1904Y27434D01*
Y27574D01*
X1850Y27705D01*
X1751Y27804D01*
X1620Y27858D01*
X1480D01*
X1349Y27804D01*
X1228Y27801D01*
X1228Y27801D01*
X1228Y27801D01*
X212D01*
Y30881D01*
X847D01*
X900Y30755D01*
D02*
G37*
G36*
X37280Y28132D02*
X37265Y28122D01*
X37255Y28107D01*
X37280Y28132D01*
Y26874D01*
D01*
D01*
Y22575D01*
X37245Y22540D01*
X37181Y22386D01*
Y22219D01*
X37245Y22065D01*
X37280Y22030D01*
Y18541D01*
X37235D01*
X37191Y18522D01*
X37138D01*
X37029Y18500D01*
X36991Y18475D01*
X35599Y18478D01*
Y18478D01*
X35472Y18473D01*
X35259Y18494D01*
X34932Y18594D01*
X34630Y18755D01*
X34366Y18971D01*
X34149Y19236D01*
X33988Y19537D01*
X33889Y19864D01*
X33857Y20186D01*
X33863Y20313D01*
X33863Y20313D01*
X33869Y23258D01*
X33869Y23258D01*
X33869D01*
X33848Y23380D01*
X33824Y23560D01*
X33710Y23835D01*
X33529Y24071D01*
X33293Y24252D01*
X33018Y24366D01*
X32723Y24405D01*
Y24405D01*
X30774D01*
X30758Y24419D01*
X30729Y24465D01*
X30707Y24587D01*
X30707D01*
X30707Y24587D01*
X30739Y24747D01*
X30850Y24913D01*
X30859Y24919D01*
X31865Y25924D01*
X31865Y25924D01*
X31865Y25924D01*
X31988Y26085D01*
X32065Y26272D01*
X32084Y26414D01*
X32550D01*
Y27579D01*
X32700D01*
Y29679D01*
X30800D01*
X30800Y27579D01*
X30950D01*
X30950Y26414D01*
X31208D01*
X31261Y26287D01*
X30376Y25402D01*
X30376Y25402D01*
X30373Y25405D01*
X30179Y25152D01*
X30057Y24857D01*
X30054Y24835D01*
X30046D01*
Y24772D01*
X30029Y24646D01*
X30028Y24646D01*
X30023Y24617D01*
X30040Y24532D01*
X29968Y24405D01*
X27296D01*
X27162Y24540D01*
Y24683D01*
X26419D01*
X26303Y24810D01*
X26304Y25215D01*
X26304Y25322D01*
X26290Y25336D01*
X26290D01*
X26074Y25553D01*
X26074Y25680D01*
X26370Y25975D01*
X26382Y25963D01*
X26866Y26446D01*
X26875Y26441D01*
X27041Y26408D01*
X27206Y26441D01*
X27347Y26534D01*
X28139Y27326D01*
X28152Y27345D01*
X28160Y27351D01*
X28291Y27482D01*
X28385Y27623D01*
X28418Y27789D01*
Y29881D01*
X28385Y30047D01*
X28291Y30188D01*
X28151Y30282D01*
X27985Y30315D01*
X27819Y30282D01*
X27679Y30188D01*
X27585Y30047D01*
X27552Y29881D01*
Y27968D01*
X27547Y27964D01*
X27534Y27945D01*
X27526Y27939D01*
X26734Y27147D01*
X26721Y27127D01*
X26464Y26871D01*
X26453Y26882D01*
X25958Y26387D01*
X25987Y26358D01*
X25759Y26129D01*
X25752Y26120D01*
X25044Y25412D01*
X24995Y25337D01*
X24990Y25313D01*
X24965Y25296D01*
X24855Y25262D01*
X24805Y25295D01*
X24708Y25315D01*
X24645D01*
X24645Y25842D01*
X25277Y26473D01*
X25324Y26588D01*
Y26788D01*
X25962D01*
Y27838D01*
X25124D01*
Y28088D01*
X25077Y28203D01*
X24912Y28367D01*
Y29188D01*
X23962D01*
Y28138D01*
X24682D01*
X24800Y28020D01*
Y26893D01*
X24042Y26135D01*
X23988Y26140D01*
X23905Y26195D01*
X23808Y26215D01*
X23710Y26195D01*
X23628Y26140D01*
X23576Y26140D01*
X23458Y26252D01*
Y27228D01*
X23444Y27296D01*
X23415Y27340D01*
X23454Y27434D01*
Y27574D01*
X23400Y27705D01*
X23301Y27804D01*
X23170Y27858D01*
X23030D01*
X22899Y27804D01*
X22800Y27705D01*
X22746Y27574D01*
Y27434D01*
X22800Y27303D01*
X22899Y27204D01*
X22995Y27164D01*
X22998Y27141D01*
X22883Y27051D01*
X22882Y27052D01*
X22741D01*
X22611Y26998D01*
X22486Y27053D01*
Y28108D01*
X23436D01*
Y29558D01*
X22986D01*
X22986Y30231D01*
X23146D01*
Y30991D01*
X22436D01*
Y30231D01*
X22629D01*
X22629Y29558D01*
X22236D01*
Y29383D01*
X21936D01*
Y29558D01*
X21486D01*
Y30231D01*
X21633D01*
Y30991D01*
X20923D01*
Y30231D01*
X21129D01*
Y29558D01*
X20736D01*
Y28108D01*
X21629D01*
X21629Y28078D01*
Y26295D01*
X21502Y26242D01*
X21484Y26261D01*
Y27094D01*
X21470Y27162D01*
X21431Y27220D01*
X20324Y28327D01*
Y29515D01*
X20311Y29583D01*
X20272Y29641D01*
X19296Y30618D01*
X19307Y30645D01*
Y30786D01*
X19253Y30916D01*
X19153Y31016D01*
X19023Y31069D01*
X18882D01*
X18752Y31016D01*
X18653Y30916D01*
X18599Y30786D01*
Y30645D01*
X18653Y30515D01*
X18752Y30415D01*
X18882Y30361D01*
X19023D01*
X19040Y30368D01*
X19968Y29441D01*
Y28253D01*
X19981Y28185D01*
X20020Y28127D01*
X21127Y27020D01*
Y26251D01*
X21009Y26140D01*
X20988Y26140D01*
X20905Y26195D01*
X20855Y26205D01*
X20585Y26476D01*
Y26565D01*
X20620Y26600D01*
X20674Y26731D01*
Y26871D01*
X20620Y27002D01*
X20521Y27101D01*
X20390Y27155D01*
X20250D01*
X20119Y27101D01*
X20020Y27002D01*
X19966Y26871D01*
Y26731D01*
X20020Y26600D01*
X20119Y26501D01*
X20228Y26456D01*
Y26402D01*
X20241Y26334D01*
X20243Y26331D01*
X20215Y26216D01*
X20204Y26195D01*
X20193Y26184D01*
X20128Y26140D01*
X20020Y26130D01*
X19591Y26559D01*
X19614Y26674D01*
Y27564D01*
X19728D01*
Y28324D01*
X19614D01*
X19614Y29214D01*
X19586Y29351D01*
X19509Y29467D01*
X18836Y30140D01*
X18824Y30148D01*
X18784Y30187D01*
X18732Y30209D01*
X18720Y30217D01*
X18706Y30220D01*
X18654Y30241D01*
X18598D01*
X18584Y30244D01*
X18569Y30241D01*
X18513D01*
X18461Y30220D01*
X18447Y30217D01*
X18435Y30209D01*
X18383Y30187D01*
X18357Y30161D01*
X18273Y30173D01*
X18230Y30198D01*
X18221Y30205D01*
Y31249D01*
X17121D01*
Y30602D01*
X14121D01*
Y31249D01*
X13021D01*
Y30249D01*
X13011Y30245D01*
X12912Y30146D01*
X12858Y30015D01*
Y29875D01*
X12879Y29825D01*
X12820Y29766D01*
X12683Y29789D01*
X12662Y29804D01*
Y31344D01*
X11722D01*
Y28435D01*
X11673Y28402D01*
X11441D01*
X11392Y28435D01*
Y31344D01*
X10452D01*
Y28599D01*
X9832Y27979D01*
X9824Y27967D01*
X9785Y27927D01*
X9763Y27875D01*
X9755Y27863D01*
X9752Y27849D01*
X9731Y27797D01*
Y27741D01*
X9728Y27727D01*
X9731Y27712D01*
Y27656D01*
X9752Y27604D01*
X9755Y27590D01*
X9763Y27578D01*
X9785Y27526D01*
X9824Y27486D01*
X9832Y27474D01*
X9845Y27466D01*
X9884Y27427D01*
X9935Y27406D01*
X9914Y27288D01*
X9911Y27280D01*
X9182D01*
Y24304D01*
X8852D01*
Y27280D01*
X7912D01*
Y24393D01*
X7582D01*
Y27280D01*
X6642D01*
Y24563D01*
X6525Y24515D01*
X6440Y24600D01*
X6382Y24638D01*
X6314Y24652D01*
X6312D01*
Y27280D01*
X5677D01*
X5624Y27407D01*
X5703Y27486D01*
X5753Y27607D01*
X5892Y27643D01*
X5904Y27640D01*
X6026Y27590D01*
X6166D01*
X6297Y27644D01*
X6396Y27743D01*
X6450Y27874D01*
Y28014D01*
X6396Y28145D01*
X6313Y28227D01*
X6312Y28354D01*
X6312D01*
Y31344D01*
X5372D01*
Y28435D01*
X5323Y28402D01*
X5091D01*
X5042Y28435D01*
Y31344D01*
X4102D01*
Y29571D01*
X4099Y29554D01*
Y27908D01*
X3990Y27863D01*
X3891Y27764D01*
X3837Y27633D01*
Y27493D01*
X3891Y27362D01*
X3990Y27263D01*
X4102Y27217D01*
Y24290D01*
X4324D01*
Y23987D01*
X4337Y23919D01*
X4376Y23861D01*
X4421Y23816D01*
Y23174D01*
X5131D01*
Y24074D01*
X4681D01*
Y24290D01*
X5042D01*
Y27200D01*
X5091Y27232D01*
X5323D01*
X5372Y27200D01*
Y24290D01*
X6245D01*
X6446Y24089D01*
X6504Y24050D01*
X6572Y24037D01*
X6785D01*
X6814Y23926D01*
X6815Y23910D01*
X6718Y23813D01*
X6708Y23790D01*
X6571D01*
X6557Y23824D01*
X6458Y23923D01*
X6327Y23977D01*
X6187D01*
X6158Y23965D01*
X6031Y24050D01*
Y24074D01*
X5321D01*
Y23174D01*
X6031D01*
Y23196D01*
X6158Y23281D01*
X6187Y23269D01*
X6327D01*
X6458Y23323D01*
X6557Y23423D01*
X6567Y23445D01*
X6704D01*
X6718Y23412D01*
X6817Y23312D01*
X6948Y23258D01*
X7088D01*
X7219Y23312D01*
X7225Y23319D01*
X7352Y23267D01*
Y23203D01*
X8252D01*
Y23910D01*
X8252Y23913D01*
X8260Y24037D01*
X8440D01*
Y23594D01*
X9340D01*
Y23594D01*
X9456D01*
Y23594D01*
X10345D01*
X10356Y23594D01*
X10472D01*
X10483Y23594D01*
X11372D01*
Y24290D01*
X11392D01*
Y27200D01*
X11441Y27232D01*
X11673D01*
X11722Y27200D01*
Y24290D01*
X12662D01*
Y27280D01*
X12027D01*
X11974Y27407D01*
X12053Y27486D01*
X12142Y27701D01*
Y27933D01*
X12053Y28148D01*
X11974Y28227D01*
X12027Y28354D01*
X12648D01*
X12662Y28354D01*
X12781Y28335D01*
X12781Y28334D01*
X12820Y28276D01*
X12955Y28141D01*
Y27658D01*
X13715D01*
Y28368D01*
X13808Y28449D01*
X13869D01*
X14025Y28293D01*
Y28193D01*
X14028Y28176D01*
Y27658D01*
X14928D01*
Y28368D01*
X14381D01*
X14368Y28435D01*
X14329Y28493D01*
X14121Y28701D01*
Y28871D01*
X17121D01*
Y28449D01*
X17121D01*
X17084Y28337D01*
X16467D01*
X16467Y28337D01*
X16399D01*
X16396Y28240D01*
X16396Y28212D01*
X16396Y26767D01*
X16306Y26677D01*
X14746D01*
Y25627D01*
X14846D01*
X14846Y25017D01*
X14756Y24927D01*
X14746D01*
Y23877D01*
X15409D01*
X15462Y23750D01*
X15038Y23327D01*
X15296Y23069D01*
X15305Y23056D01*
X15318Y23047D01*
X15576Y22789D01*
X15622Y22682D01*
X12431Y19491D01*
X12304Y19520D01*
Y19550D01*
X12250Y19680D01*
X12151Y19779D01*
X12021Y19833D01*
X11880D01*
X11750Y19779D01*
X11736Y19766D01*
X11609Y19818D01*
Y20653D01*
X8311D01*
Y20062D01*
X8184Y20009D01*
X8125Y20068D01*
X7995Y20122D01*
X7854D01*
X7801Y20100D01*
X7674Y20184D01*
Y20468D01*
X7914Y20709D01*
X7953Y20767D01*
X7967Y20835D01*
Y22303D01*
X8190D01*
Y22278D01*
X8244Y22148D01*
X8343Y22048D01*
X8473Y21994D01*
X8614D01*
X8744Y22048D01*
X8844Y22148D01*
X8898Y22278D01*
Y22419D01*
X8844Y22549D01*
X8826Y22567D01*
X8871Y22694D01*
X9329D01*
X9340Y22694D01*
X9456D01*
X9467Y22694D01*
X9599D01*
X9652Y22567D01*
X9652Y22567D01*
X9598Y22437D01*
Y22296D01*
X9652Y22166D01*
X9751Y22066D01*
X9881Y22012D01*
X10022D01*
X10062Y21986D01*
Y21903D01*
X10093Y21828D01*
X10108Y21707D01*
X10108Y21707D01*
X10108Y21707D01*
Y20846D01*
X10612D01*
Y21672D01*
X10616Y21673D01*
X10716Y21773D01*
X10770Y21903D01*
Y21984D01*
X10868Y22072D01*
X10887Y22078D01*
X11015D01*
X11145Y22132D01*
X11244Y22232D01*
X11298Y22362D01*
Y22502D01*
X11271Y22567D01*
X11349Y22694D01*
X11370D01*
X11372Y22694D01*
X11497Y22690D01*
Y22419D01*
X11843D01*
X11852Y22417D01*
X11947D01*
X11957Y22419D01*
X12397D01*
Y23129D01*
X12204D01*
Y23333D01*
X12177Y23470D01*
X12115Y23563D01*
X12111Y23573D01*
X12103Y23580D01*
X12100Y23586D01*
X12068Y23618D01*
X12063Y23624D01*
X12051Y23632D01*
X12012Y23672D01*
X11960Y23694D01*
X11948Y23702D01*
X11933Y23705D01*
X11881Y23726D01*
X11825D01*
X11811Y23729D01*
X11797Y23726D01*
X11741D01*
X11689Y23705D01*
X11674Y23702D01*
X11662Y23694D01*
X11610Y23672D01*
X11571Y23632D01*
X11559Y23624D01*
X11551Y23612D01*
X11511Y23573D01*
X11489Y23521D01*
X11481Y23509D01*
X11478Y23494D01*
X11470Y23474D01*
X11399Y23424D01*
X11340Y23404D01*
X10472D01*
Y23404D01*
X10356D01*
Y23404D01*
X9467D01*
X9456Y23404D01*
X9340D01*
X9329Y23404D01*
X8440D01*
Y22886D01*
X8437Y22869D01*
Y22775D01*
X8379Y22740D01*
X8252Y22810D01*
Y23013D01*
X7352D01*
Y22303D01*
X7610D01*
Y20909D01*
X7369Y20668D01*
X7331Y20610D01*
X7317Y20542D01*
Y18813D01*
X7295Y18804D01*
X7195Y18705D01*
X7141Y18575D01*
Y18434D01*
X7151Y18412D01*
X6761Y18022D01*
X6647Y17980D01*
Y17980D01*
X6647Y17980D01*
X5937D01*
Y17080D01*
Y16191D01*
X6647D01*
Y16505D01*
X6684D01*
X6752Y16518D01*
X6810Y16557D01*
X8097Y17843D01*
X8135Y17901D01*
X8149Y17969D01*
Y18701D01*
X8135Y18769D01*
X8125Y18785D01*
Y19419D01*
X8184Y19464D01*
X8311Y19401D01*
Y18065D01*
X11609D01*
Y19140D01*
X11736Y19193D01*
X11750Y19179D01*
X11880Y19125D01*
X11889D01*
X11950Y19113D01*
X11980Y19119D01*
X12009Y19113D01*
X12484D01*
X12553Y19127D01*
X12611Y19165D01*
X13928Y20483D01*
X14046Y20434D01*
Y19255D01*
X12179Y17388D01*
X12140Y17330D01*
X12126Y17262D01*
Y16236D01*
X11758Y15868D01*
X11650Y15940D01*
X11672Y15992D01*
Y16133D01*
X11654Y16177D01*
Y16818D01*
X11417D01*
Y17414D01*
X11413Y17436D01*
Y17871D01*
X10908D01*
Y17671D01*
X10612D01*
Y17871D01*
X10108D01*
Y17011D01*
X10612D01*
Y17212D01*
X10908D01*
Y17011D01*
X10958D01*
Y16818D01*
X10944D01*
Y16058D01*
X10964D01*
Y15992D01*
X11018Y15862D01*
X11118Y15763D01*
X11248Y15709D01*
X11389D01*
X11441Y15731D01*
X11513Y15623D01*
X11243Y15353D01*
X8376D01*
X8351Y15480D01*
X8405Y15502D01*
X8505Y15602D01*
X8559Y15732D01*
Y15873D01*
X8520Y15967D01*
X8605Y16053D01*
X9063D01*
Y16953D01*
X9063D01*
X9012Y17059D01*
Y17871D01*
X8507D01*
Y17364D01*
X8334D01*
X8266Y17351D01*
X8208Y17312D01*
X7989Y17093D01*
X7950Y17036D01*
X7937Y16967D01*
Y16829D01*
X7859Y16752D01*
X7766D01*
X7636Y16698D01*
X7536Y16598D01*
X7482Y16468D01*
Y16327D01*
X7536Y16197D01*
X7636Y16097D01*
X7766Y16044D01*
X7784D01*
X7869Y15917D01*
X7851Y15873D01*
Y15732D01*
X7905Y15602D01*
X8004Y15502D01*
X8058Y15480D01*
X8033Y15353D01*
X7730D01*
X7721Y15375D01*
X7622Y15474D01*
X7491Y15528D01*
X7351D01*
X7221Y15474D01*
X7121Y15375D01*
X7067Y15245D01*
Y15104D01*
X7093Y15041D01*
X7014Y14914D01*
X4661D01*
X4612Y15032D01*
X4776Y15196D01*
X4815Y15254D01*
X4828Y15322D01*
Y16137D01*
X4928Y16236D01*
X5037Y16191D01*
Y16191D01*
X5747D01*
Y17080D01*
Y17980D01*
X5426D01*
X5308Y18001D01*
X5308Y18107D01*
Y19091D01*
X5297D01*
X5265Y19205D01*
X5265Y19218D01*
Y20295D01*
X5265D01*
X5271Y20410D01*
X5271D01*
X5271Y20419D01*
Y21500D01*
X5271D01*
X5277Y21625D01*
X5322D01*
Y22179D01*
X5336Y22250D01*
Y22375D01*
X5322Y22446D01*
Y22715D01*
X4482D01*
Y22030D01*
X4449D01*
X4374Y22015D01*
X4312Y21973D01*
X4312Y21973D01*
X4202Y21863D01*
X4085Y21912D01*
Y22764D01*
X4085Y22804D01*
X4085Y22804D01*
X4070Y22878D01*
X4068Y22881D01*
X4067Y22884D01*
X4067Y22884D01*
Y23724D01*
X2977D01*
Y22884D01*
X3537D01*
X3697Y22724D01*
Y21844D01*
X3286D01*
X2515Y22615D01*
Y22884D01*
X2795D01*
Y23724D01*
X1705D01*
Y23309D01*
X1578Y23241D01*
X1545Y23263D01*
Y23724D01*
X455D01*
Y22884D01*
X1257D01*
X1346Y22795D01*
Y22076D01*
X1362Y21998D01*
X1406Y21932D01*
X2186Y21152D01*
Y21016D01*
X2240Y20885D01*
X2339Y20786D01*
X2470Y20732D01*
X2610D01*
X2685Y20763D01*
X2808Y20694D01*
X2812Y20689D01*
Y20349D01*
X2635D01*
X2614Y20370D01*
X2483Y20424D01*
X2343D01*
X2212Y20370D01*
X2113Y20271D01*
X2059Y20140D01*
Y20000D01*
X2113Y19869D01*
X2212Y19770D01*
X2343Y19716D01*
X2483D01*
X2614Y19770D01*
X2683Y19839D01*
X2812D01*
Y19344D01*
X2812D01*
X2812Y19217D01*
Y18344D01*
X3712D01*
X3736Y18448D01*
X3811Y18462D01*
X3873Y18504D01*
X4341Y18972D01*
X4468Y18919D01*
Y18676D01*
X4458Y18670D01*
X3632Y17844D01*
X3287D01*
X3262Y17849D01*
X2844D01*
X2840Y17858D01*
X2741Y17957D01*
X2610Y18011D01*
X2470D01*
X2339Y17957D01*
X2240Y17858D01*
X2186Y17727D01*
Y17587D01*
X2240Y17456D01*
X2339Y17357D01*
X2470Y17303D01*
X2610D01*
X2685Y17334D01*
X2812Y17288D01*
X2812Y16844D01*
X2812Y16717D01*
Y16046D01*
X2690Y15988D01*
X2560Y16042D01*
X2419D01*
X2289Y15988D01*
X2189Y15889D01*
X2135Y15759D01*
Y15618D01*
X2189Y15488D01*
X2280Y15397D01*
X2289Y15380D01*
X2297Y15247D01*
X2240Y15191D01*
X2186Y15060D01*
Y14920D01*
X2240Y14789D01*
X2339Y14690D01*
X2470Y14636D01*
X2610D01*
X2685Y14667D01*
X2812Y14595D01*
Y14344D01*
X2812D01*
X2812Y14217D01*
Y13471D01*
X2812Y13344D01*
X2812D01*
Y13344D01*
X2812D01*
Y12844D01*
Y11844D01*
X2812D01*
X2812Y11717D01*
Y11283D01*
X2799Y11281D01*
X2725Y11231D01*
X1760Y10266D01*
X1710Y10192D01*
X1693Y10104D01*
Y7482D01*
X1710Y7394D01*
X1760Y7320D01*
X2111Y6969D01*
Y6588D01*
X2189D01*
Y6454D01*
X1945D01*
Y5681D01*
X1945Y5554D01*
X1945D01*
Y5554D01*
X1945D01*
Y5247D01*
X1818Y5222D01*
X1795Y5279D01*
X1695Y5378D01*
X1565Y5432D01*
X1424D01*
X1294Y5378D01*
X1194Y5279D01*
X1140Y5148D01*
Y5008D01*
X1194Y4878D01*
X1240Y4832D01*
Y4425D01*
X1259Y4327D01*
X1314Y4244D01*
X1920Y3639D01*
X2002Y3584D01*
X2100Y3564D01*
X2274D01*
Y3295D01*
X2474D01*
Y2816D01*
X2309D01*
Y1726D01*
X3149D01*
Y2816D01*
X2984D01*
Y3295D01*
X3624D01*
Y4295D01*
X2274D01*
Y4185D01*
X2147Y4132D01*
X1749Y4530D01*
Y4832D01*
X1795Y4878D01*
X1818Y4934D01*
X1945Y4909D01*
Y4654D01*
X2655D01*
Y5427D01*
X2655Y5554D01*
X2655D01*
Y5554D01*
X2655D01*
Y6454D01*
X2647D01*
Y6588D01*
X2961D01*
Y7348D01*
X2380D01*
X2151Y7577D01*
Y7888D01*
X2961D01*
Y8094D01*
X3213D01*
X3301Y8111D01*
X3375Y8161D01*
X4065Y8851D01*
X4641D01*
Y9561D01*
X3741D01*
Y9175D01*
X3118Y8552D01*
X2961D01*
Y8648D01*
X2765D01*
Y9736D01*
X2812Y9844D01*
X3712D01*
Y10844D01*
X3712D01*
X3712Y10971D01*
Y11460D01*
X4072D01*
Y11417D01*
X4912D01*
Y12507D01*
X4505D01*
X4438Y12634D01*
X4458Y12663D01*
X4531D01*
X4550Y12667D01*
X4927D01*
Y13757D01*
X4265D01*
X4217Y13874D01*
X4392Y14050D01*
X5971D01*
X6541Y13480D01*
Y13459D01*
X6544Y13442D01*
Y12924D01*
X6550D01*
Y12249D01*
X7450D01*
Y12959D01*
X7444D01*
Y13634D01*
X6876D01*
X6845Y13680D01*
X6171Y14354D01*
X6113Y14393D01*
X6045Y14406D01*
X4633D01*
X4565Y14533D01*
X4581Y14558D01*
X11430D01*
X11498Y14571D01*
X11556Y14610D01*
X12792Y15845D01*
X12830Y15903D01*
X12844Y15971D01*
Y17052D01*
X14604Y18812D01*
X14643Y18870D01*
X14656Y18938D01*
Y20504D01*
X16564Y22411D01*
X18705D01*
X19133Y21984D01*
X19096Y21843D01*
X19068Y21835D01*
X19068Y21835D01*
X19068Y21835D01*
X18368D01*
Y21789D01*
X17684D01*
X17597Y21772D01*
X17544Y21737D01*
X17450D01*
Y21733D01*
X17182D01*
X17045Y21706D01*
X16929Y21629D01*
X15369Y20068D01*
X15361Y20056D01*
X15321Y20017D01*
X15299Y19965D01*
X15291Y19953D01*
X15288Y19938D01*
X15267Y19886D01*
Y19830D01*
X15264Y19816D01*
Y19574D01*
X15000D01*
Y18734D01*
X16200D01*
Y19574D01*
X16057D01*
X16011Y19701D01*
X17329Y21020D01*
X17800D01*
X17835Y21027D01*
X18210D01*
Y21331D01*
X18368D01*
Y21235D01*
X19068D01*
Y21331D01*
X19301D01*
X19310Y21324D01*
X19408Y21305D01*
X19858D01*
X19919Y21255D01*
X19919Y21215D01*
X19944D01*
X20053Y21110D01*
Y20660D01*
X20072Y20562D01*
X20128Y20480D01*
X20210Y20424D01*
X20212Y20424D01*
X20881Y19755D01*
Y18542D01*
X20010Y17671D01*
X19971Y17613D01*
X19957Y17545D01*
Y15416D01*
X19882Y15312D01*
X19742D01*
X19611Y15258D01*
X19512Y15159D01*
X19458Y15028D01*
Y14888D01*
X19512Y14757D01*
X19611Y14658D01*
X19742Y14604D01*
X19882D01*
X20013Y14658D01*
X20112Y14757D01*
X20166Y14888D01*
Y15028D01*
X20157Y15051D01*
X20262Y15156D01*
X20301Y15214D01*
X20314Y15282D01*
Y16154D01*
X20441Y16207D01*
X20452Y16196D01*
X20583Y16142D01*
X20723D01*
X20777Y16164D01*
X20904Y16080D01*
Y12522D01*
X20917Y12454D01*
X20956Y12396D01*
X21105Y12247D01*
X21096Y12224D01*
Y12084D01*
X21150Y11953D01*
X21249Y11854D01*
X21380Y11800D01*
X21520D01*
X21651Y11854D01*
X21750Y11953D01*
X21804Y12084D01*
Y12224D01*
X21750Y12355D01*
X21651Y12454D01*
X21520Y12508D01*
X21380D01*
X21358Y12499D01*
X21260Y12596D01*
Y16189D01*
X21381Y16216D01*
X21387Y16216D01*
X21486Y16117D01*
X21616Y16064D01*
X21757D01*
X21887Y16117D01*
X21987Y16217D01*
X22041Y16347D01*
Y16488D01*
X21987Y16618D01*
X21887Y16718D01*
X21865Y16727D01*
Y17124D01*
X21865Y17124D01*
Y17798D01*
X21937Y17854D01*
X22059Y17799D01*
Y17701D01*
X22073Y17633D01*
X22112Y17575D01*
X22179Y17508D01*
X22166Y17381D01*
X22166Y17381D01*
X22066Y17282D01*
X22012Y17152D01*
Y17011D01*
X22066Y16881D01*
X22166Y16781D01*
X22296Y16727D01*
X22437D01*
X22567Y16781D01*
X22666Y16881D01*
X22720Y17011D01*
Y17152D01*
X22666Y17282D01*
X22567Y17381D01*
X22545Y17391D01*
Y17573D01*
X22656Y17664D01*
X22663Y17661D01*
X22803D01*
X22934Y17715D01*
X22936Y17717D01*
X23063Y17665D01*
Y17331D01*
X23040Y17322D01*
X22941Y17223D01*
X22887Y17092D01*
Y16952D01*
X22941Y16821D01*
X23040Y16722D01*
X23171Y16668D01*
X23311D01*
X23442Y16722D01*
X23541Y16821D01*
X23571Y16893D01*
X23698Y16867D01*
Y16569D01*
X23675Y16560D01*
X23576Y16461D01*
X23522Y16330D01*
Y16190D01*
X23576Y16059D01*
X23675Y15960D01*
X23806Y15906D01*
X23946D01*
X24077Y15960D01*
X24176Y16059D01*
X24230Y16190D01*
Y16330D01*
X24176Y16461D01*
X24077Y16560D01*
X24054Y16569D01*
Y17059D01*
X24041Y17127D01*
X24002Y17185D01*
X23755Y17432D01*
Y18210D01*
X23742Y18278D01*
X23703Y18336D01*
X23166Y18873D01*
Y19640D01*
X23931Y20406D01*
X23970Y20463D01*
X24014Y20476D01*
X24141Y20391D01*
Y18083D01*
X24105Y18068D01*
X24005Y17969D01*
X23952Y17839D01*
Y17698D01*
X24005Y17568D01*
X24105Y17468D01*
X24235Y17414D01*
X24376D01*
X24506Y17468D01*
X24606Y17568D01*
X24660Y17698D01*
Y17839D01*
X24606Y17969D01*
X24506Y18068D01*
X24498Y18072D01*
Y21305D01*
X24708D01*
X24805Y21324D01*
X24867Y21366D01*
X24946Y21342D01*
X24994Y21309D01*
X24994Y18748D01*
Y18190D01*
X24840Y18037D01*
X24802Y17979D01*
X24788Y17911D01*
Y17491D01*
X24766Y17482D01*
X24666Y17383D01*
X24613Y17253D01*
Y17112D01*
X24666Y16982D01*
X24766Y16882D01*
X24896Y16828D01*
X25037D01*
X25167Y16882D01*
X25184Y16899D01*
X25304Y16946D01*
X25351Y16900D01*
X25971Y16281D01*
X25960Y16158D01*
X25949Y16154D01*
X25850Y16055D01*
X25796Y15924D01*
Y15784D01*
X25850Y15653D01*
X25949Y15554D01*
X26080Y15500D01*
X26220D01*
X26351Y15554D01*
X26450Y15653D01*
X26504Y15784D01*
Y15924D01*
X26450Y16055D01*
X26351Y16154D01*
X26328Y16163D01*
Y16354D01*
X26315Y16423D01*
X26276Y16480D01*
X25610Y17147D01*
Y17543D01*
X25737Y17599D01*
X25838Y17557D01*
X25978D01*
X26109Y17611D01*
X26208Y17710D01*
X26262Y17841D01*
Y17981D01*
X26208Y18112D01*
X26109Y18211D01*
X25978Y18265D01*
X25907D01*
X25874Y18298D01*
Y22106D01*
X26000Y22159D01*
X26333Y21826D01*
X26284Y21777D01*
X26779Y21282D01*
X26811Y21314D01*
X27153Y20972D01*
X27153Y20972D01*
X27153Y20972D01*
X27155Y20971D01*
X27155Y20558D01*
X27190Y20382D01*
X27290Y20233D01*
X27438Y20134D01*
X27614Y20099D01*
X27790Y20134D01*
X27938Y20233D01*
X28038Y20382D01*
X28073Y20558D01*
X28073Y21058D01*
X28038Y21233D01*
X27938Y21382D01*
X27790Y21482D01*
X27645Y21510D01*
X27444Y21712D01*
X27332Y21600D01*
X27294Y21617D01*
X27204Y21707D01*
X27181Y21747D01*
X27181Y21747D01*
X25344Y23591D01*
X25393Y23709D01*
X26109Y23707D01*
X26212Y23604D01*
Y23458D01*
X27162D01*
Y23601D01*
X27276Y23715D01*
X32722Y23705D01*
Y23705D01*
X32846Y23697D01*
X32897Y23686D01*
X33045Y23587D01*
X33144Y23439D01*
X33156Y23380D01*
X33168Y23258D01*
X33168D01*
X33168Y20330D01*
X33168Y20313D01*
X33168D01*
X33170Y20204D01*
D01*
X33171Y20189D01*
X33216Y19730D01*
X33355Y19274D01*
X33579Y18854D01*
X33881Y18486D01*
X34249Y18184D01*
X34669Y17960D01*
X35125Y17821D01*
X35599Y17775D01*
Y17780D01*
X36973D01*
X37029Y17743D01*
X37138Y17721D01*
X37191D01*
X37235Y17703D01*
X37280D01*
Y212D01*
X16962D01*
Y588D01*
X17190D01*
Y481D01*
X17900D01*
Y1381D01*
X17190D01*
Y944D01*
X16962D01*
Y1405D01*
X15562D01*
Y1086D01*
X11362D01*
Y1405D01*
X9962D01*
Y212D01*
X212D01*
Y9054D01*
X1212D01*
Y9554D01*
X212D01*
Y22134D01*
X1212D01*
Y22634D01*
X212D01*
Y25412D01*
X336Y25468D01*
X466Y25414D01*
X607D01*
X695Y25355D01*
Y25304D01*
X1405D01*
Y26204D01*
X695D01*
Y26181D01*
X607Y26122D01*
X466D01*
X336Y26068D01*
X212Y26124D01*
Y27301D01*
X1228D01*
X1325Y27228D01*
X1349Y27204D01*
X1480Y27150D01*
X1545D01*
X1545Y26254D01*
X1595Y26148D01*
Y25304D01*
X2266D01*
Y25289D01*
X2976D01*
Y25952D01*
X3102Y26029D01*
X3161Y25997D01*
Y25838D01*
X3166Y25813D01*
Y25289D01*
X3876D01*
Y26189D01*
X3670D01*
X3652Y26279D01*
X3597Y26362D01*
X3554Y26404D01*
Y26524D01*
X3500Y26655D01*
X3401Y26754D01*
X3270Y26808D01*
X3130D01*
X2999Y26754D01*
X2978Y26732D01*
X2851Y26785D01*
Y27146D01*
X3290Y27586D01*
X3290Y27586D01*
X3340Y27660D01*
X3357Y27748D01*
X3357Y27748D01*
Y28091D01*
X3728D01*
Y29091D01*
X3728Y29591D01*
X3728Y29718D01*
Y30091D01*
X3220D01*
X3203Y30094D01*
X1912D01*
X1545Y30462D01*
X1554Y30484D01*
Y30624D01*
X1500Y30755D01*
X1401Y30854D01*
X1270Y30908D01*
X1228D01*
Y31381D01*
X212D01*
Y31607D01*
X37280D01*
Y28132D01*
D02*
G37*
G36*
X18900Y28148D02*
Y26674D01*
X18927Y26538D01*
X19004Y26422D01*
X19025Y26408D01*
X19036Y26392D01*
X19868Y25560D01*
X19932Y25517D01*
X19960Y25472D01*
X19963Y25464D01*
X19877Y25339D01*
X19791Y25315D01*
X19440D01*
X18346Y26408D01*
X18331Y26419D01*
Y26673D01*
X17621D01*
Y25913D01*
X18193D01*
X19185Y24921D01*
X19212Y24903D01*
X19228Y24880D01*
X19310Y24824D01*
X19408Y24805D01*
X19858D01*
X19918Y24756D01*
X19918Y24417D01*
X19791Y24315D01*
X19408D01*
X19344Y24302D01*
X18410D01*
Y24515D01*
X17650D01*
Y24302D01*
X17310Y24302D01*
Y24515D01*
X16606D01*
X16532Y24635D01*
X16565Y24715D01*
X16714D01*
Y25789D01*
X16721Y25913D01*
X17431D01*
Y26673D01*
X16721D01*
X16714Y26797D01*
Y28237D01*
X18810Y28237D01*
X18900Y28148D01*
D02*
G37*
G36*
X26103Y25218D02*
Y24528D01*
X25986Y24411D01*
X25083D01*
X25535Y24863D01*
Y25121D01*
X25866Y25452D01*
X25869D01*
X26103Y25218D01*
D02*
G37*
G36*
X45096Y1346D02*
X43886D01*
Y19804D01*
X42086D01*
Y18804D01*
X41584D01*
X40265Y17893D01*
X37902D01*
Y18345D01*
X40109D01*
X40876Y18874D01*
Y22003D01*
X42086D01*
Y21003D01*
X42886D01*
Y26803D01*
X40217D01*
Y21804D01*
X37605D01*
Y22804D01*
X38926D01*
Y27003D01*
X37384D01*
Y28003D01*
X38926D01*
Y28983D01*
X45096D01*
Y1346D01*
D02*
G37*
G36*
X15562Y212D02*
X11362D01*
Y730D01*
X15562D01*
Y212D01*
D02*
G37*
G36*
X101295Y2219D02*
X101317D01*
X101370Y2214D01*
X101428Y2205D01*
X101489Y2191D01*
X101556Y2175D01*
X101619Y2152D01*
X101622D01*
X101628Y2150D01*
X101636Y2147D01*
X101647Y2141D01*
X101678Y2125D01*
X101717Y2105D01*
X101758Y2077D01*
X101803Y2044D01*
X101844Y2008D01*
X101883Y1964D01*
X101889Y1958D01*
X101900Y1941D01*
X101916Y1916D01*
X101939Y1880D01*
X101961Y1836D01*
X101986Y1780D01*
X102011Y1719D01*
X102030Y1650D01*
X101800Y1589D01*
Y1592D01*
X101797Y1594D01*
X101794Y1603D01*
X101792Y1614D01*
X101783Y1639D01*
X101772Y1672D01*
X101755Y1711D01*
X101736Y1747D01*
X101717Y1786D01*
X101692Y1819D01*
X101689Y1822D01*
X101680Y1833D01*
X101664Y1847D01*
X101644Y1867D01*
X101619Y1889D01*
X101586Y1911D01*
X101550Y1933D01*
X101508Y1953D01*
X101503Y1955D01*
X101489Y1961D01*
X101464Y1969D01*
X101431Y1980D01*
X101392Y1989D01*
X101347Y1997D01*
X101297Y2003D01*
X101245Y2005D01*
X101214D01*
X101200Y2003D01*
X101184D01*
X101142Y2000D01*
X101095Y1991D01*
X101042Y1983D01*
X100992Y1969D01*
X100942Y1950D01*
X100936Y1947D01*
X100920Y1941D01*
X100898Y1928D01*
X100870Y1914D01*
X100837Y1891D01*
X100800Y1869D01*
X100767Y1842D01*
X100737Y1811D01*
X100734Y1808D01*
X100723Y1797D01*
X100709Y1778D01*
X100692Y1755D01*
X100673Y1728D01*
X100653Y1694D01*
X100634Y1658D01*
X100614Y1619D01*
Y1617D01*
X100612Y1611D01*
X100609Y1603D01*
X100603Y1589D01*
X100598Y1572D01*
X100592Y1553D01*
X100584Y1531D01*
X100578Y1506D01*
X100564Y1447D01*
X100553Y1381D01*
X100545Y1311D01*
X100542Y1234D01*
Y1231D01*
Y1222D01*
Y1209D01*
X100545Y1192D01*
Y1170D01*
X100548Y1142D01*
X100551Y1114D01*
X100553Y1084D01*
X100564Y1014D01*
X100578Y942D01*
X100601Y870D01*
X100628Y800D01*
Y798D01*
X100634Y792D01*
X100637Y784D01*
X100645Y773D01*
X100664Y742D01*
X100695Y703D01*
X100731Y662D01*
X100775Y620D01*
X100828Y581D01*
X100886Y545D01*
X100889D01*
X100895Y542D01*
X100903Y537D01*
X100917Y531D01*
X100931Y526D01*
X100950Y520D01*
X100995Y503D01*
X101050Y489D01*
X101111Y476D01*
X101178Y465D01*
X101247Y462D01*
X101275D01*
X101292Y465D01*
X101308D01*
X101350Y470D01*
X101400Y476D01*
X101453Y487D01*
X101511Y503D01*
X101569Y523D01*
X101572D01*
X101578Y526D01*
X101583Y528D01*
X101594Y534D01*
X101625Y548D01*
X101658Y564D01*
X101697Y584D01*
X101739Y606D01*
X101778Y631D01*
X101811Y659D01*
Y1020D01*
X101245D01*
Y1247D01*
X102061D01*
Y534D01*
X102058Y531D01*
X102053Y528D01*
X102041Y520D01*
X102028Y509D01*
X102011Y498D01*
X101991Y484D01*
X101966Y467D01*
X101941Y451D01*
X101883Y415D01*
X101817Y376D01*
X101747Y340D01*
X101672Y309D01*
X101669D01*
X101664Y306D01*
X101653Y303D01*
X101639Y298D01*
X101619Y292D01*
X101597Y284D01*
X101572Y278D01*
X101547Y273D01*
X101486Y259D01*
X101417Y245D01*
X101342Y237D01*
X101264Y234D01*
X101236D01*
X101217Y237D01*
X101192D01*
X101161Y240D01*
X101128Y245D01*
X101092Y248D01*
X101011Y265D01*
X100925Y284D01*
X100837Y315D01*
X100792Y331D01*
X100748Y353D01*
X100745Y356D01*
X100737Y359D01*
X100725Y367D01*
X100709Y376D01*
X100689Y390D01*
X100670Y403D01*
X100617Y442D01*
X100562Y492D01*
X100503Y553D01*
X100448Y623D01*
X100398Y703D01*
Y706D01*
X100392Y714D01*
X100387Y725D01*
X100378Y745D01*
X100370Y764D01*
X100362Y792D01*
X100351Y820D01*
X100340Y853D01*
X100328Y889D01*
X100317Y931D01*
X100309Y973D01*
X100301Y1017D01*
X100287Y1114D01*
X100281Y1217D01*
Y1220D01*
Y1231D01*
Y1245D01*
X100284Y1264D01*
Y1289D01*
X100287Y1320D01*
X100292Y1350D01*
X100295Y1386D01*
X100303Y1425D01*
X100309Y1467D01*
X100331Y1556D01*
X100359Y1647D01*
X100398Y1739D01*
X100401Y1742D01*
X100403Y1750D01*
X100409Y1761D01*
X100420Y1778D01*
X100431Y1800D01*
X100445Y1822D01*
X100484Y1875D01*
X100531Y1936D01*
X100589Y1994D01*
X100656Y2053D01*
X100695Y2077D01*
X100734Y2102D01*
X100737Y2105D01*
X100745Y2108D01*
X100756Y2114D01*
X100773Y2122D01*
X100795Y2130D01*
X100820Y2141D01*
X100848Y2152D01*
X100881Y2164D01*
X100917Y2175D01*
X100956Y2183D01*
X100998Y2194D01*
X101042Y2202D01*
X101139Y2216D01*
X101189Y2222D01*
X101278D01*
X101295Y2219D01*
D02*
G37*
G36*
X104321Y495D02*
X105267D01*
Y267D01*
X104065D01*
Y2189D01*
X104321D01*
Y495D01*
D02*
G37*
G36*
X103813Y1961D02*
X103180D01*
Y267D01*
X102924D01*
Y1961D01*
X102291D01*
Y2189D01*
X103813D01*
Y1961D01*
D02*
G37*
G36*
X99906Y267D02*
X99637D01*
Y537D01*
X99906D01*
Y267D01*
D02*
G37*
G36*
X61851Y1689D02*
X61871Y1686D01*
X61912Y1680D01*
X61962Y1669D01*
X62015Y1653D01*
X62068Y1628D01*
X62121Y1597D01*
X62123D01*
X62126Y1592D01*
X62143Y1581D01*
X62168Y1558D01*
X62198Y1531D01*
X62232Y1494D01*
X62265Y1450D01*
X62298Y1397D01*
X62326Y1339D01*
Y1336D01*
X62329Y1331D01*
X62332Y1322D01*
X62337Y1311D01*
X62343Y1295D01*
X62348Y1275D01*
X62362Y1231D01*
X62376Y1175D01*
X62387Y1114D01*
X62395Y1045D01*
X62398Y973D01*
Y970D01*
Y964D01*
Y953D01*
Y936D01*
X62395Y917D01*
Y895D01*
X62390Y845D01*
X62379Y784D01*
X62365Y720D01*
X62346Y653D01*
X62321Y587D01*
Y584D01*
X62318Y578D01*
X62312Y570D01*
X62307Y559D01*
X62287Y528D01*
X62262Y489D01*
X62232Y448D01*
X62193Y406D01*
X62148Y365D01*
X62096Y326D01*
X62093D01*
X62090Y323D01*
X62082Y317D01*
X62071Y312D01*
X62043Y298D01*
X62004Y281D01*
X61957Y265D01*
X61907Y251D01*
X61849Y240D01*
X61790Y237D01*
X61771D01*
X61749Y240D01*
X61721Y242D01*
X61688Y248D01*
X61651Y256D01*
X61615Y267D01*
X61579Y284D01*
X61576Y287D01*
X61563Y292D01*
X61546Y303D01*
X61524Y320D01*
X61502Y337D01*
X61474Y359D01*
X61449Y384D01*
X61427Y412D01*
Y-266D01*
X61191D01*
Y1661D01*
X61404D01*
Y1478D01*
X61407Y1483D01*
X61418Y1494D01*
X61432Y1514D01*
X61454Y1536D01*
X61479Y1564D01*
X61507Y1589D01*
X61540Y1614D01*
X61574Y1636D01*
X61579Y1639D01*
X61590Y1644D01*
X61613Y1653D01*
X61640Y1664D01*
X61674Y1675D01*
X61713Y1683D01*
X61757Y1689D01*
X61807Y1692D01*
X61837D01*
X61851Y1689D01*
D02*
G37*
G36*
X69811D02*
X69841Y1683D01*
X69877Y1672D01*
X69916Y1658D01*
X69961Y1639D01*
X70008Y1614D01*
X69922Y1397D01*
X69919Y1400D01*
X69908Y1406D01*
X69891Y1414D01*
X69869Y1422D01*
X69844Y1431D01*
X69814Y1439D01*
X69783Y1445D01*
X69752Y1447D01*
X69739D01*
X69725Y1445D01*
X69705Y1442D01*
X69686Y1436D01*
X69661Y1428D01*
X69636Y1417D01*
X69614Y1400D01*
X69611Y1397D01*
X69603Y1392D01*
X69594Y1381D01*
X69580Y1367D01*
X69566Y1347D01*
X69553Y1325D01*
X69539Y1300D01*
X69528Y1270D01*
X69525Y1264D01*
X69522Y1247D01*
X69516Y1222D01*
X69508Y1189D01*
X69500Y1147D01*
X69494Y1100D01*
X69491Y1050D01*
X69489Y995D01*
Y267D01*
X69253D01*
Y1661D01*
X69467D01*
Y1450D01*
X69469Y1453D01*
X69480Y1472D01*
X69494Y1497D01*
X69516Y1528D01*
X69539Y1558D01*
X69564Y1592D01*
X69589Y1619D01*
X69614Y1642D01*
X69616Y1644D01*
X69625Y1650D01*
X69641Y1658D01*
X69658Y1667D01*
X69680Y1675D01*
X69708Y1683D01*
X69736Y1689D01*
X69766Y1692D01*
X69786D01*
X69811Y1689D01*
D02*
G37*
G36*
X67029Y245D02*
Y242D01*
X67026Y234D01*
X67021Y223D01*
X67015Y209D01*
X67007Y190D01*
X66998Y167D01*
X66979Y120D01*
X66960Y68D01*
X66937Y15D01*
X66915Y-32D01*
X66904Y-52D01*
X66896Y-71D01*
X66893Y-77D01*
X66885Y-91D01*
X66871Y-110D01*
X66854Y-135D01*
X66832Y-163D01*
X66807Y-191D01*
X66782Y-218D01*
X66751Y-241D01*
X66749Y-243D01*
X66737Y-249D01*
X66721Y-257D01*
X66696Y-268D01*
X66668Y-280D01*
X66635Y-288D01*
X66599Y-293D01*
X66557Y-296D01*
X66546D01*
X66532Y-293D01*
X66513D01*
X66490Y-288D01*
X66465Y-282D01*
X66438Y-277D01*
X66407Y-266D01*
X66382Y-46D01*
X66385D01*
X66396Y-49D01*
X66410Y-52D01*
X66427Y-57D01*
X66471Y-66D01*
X66515Y-69D01*
X66529D01*
X66543Y-66D01*
X66560D01*
X66601Y-57D01*
X66621Y-49D01*
X66640Y-41D01*
X66643D01*
X66649Y-35D01*
X66657Y-30D01*
X66668Y-21D01*
X66693Y1D01*
X66715Y31D01*
Y34D01*
X66721Y40D01*
X66726Y51D01*
X66732Y68D01*
X66743Y90D01*
X66754Y123D01*
X66771Y162D01*
X66787Y209D01*
Y212D01*
X66793Y223D01*
X66799Y242D01*
X66810Y267D01*
X66282Y1661D01*
X66532D01*
X66824Y853D01*
Y850D01*
X66826Y848D01*
X66829Y839D01*
X66832Y825D01*
X66837Y812D01*
X66843Y795D01*
X66857Y756D01*
X66874Y709D01*
X66890Y653D01*
X66907Y595D01*
X66923Y531D01*
Y534D01*
X66926Y539D01*
X66929Y548D01*
X66932Y559D01*
X66935Y573D01*
X66940Y589D01*
X66951Y631D01*
X66965Y678D01*
X66985Y734D01*
X67001Y789D01*
X67023Y848D01*
X67323Y1661D01*
X67559D01*
X67029Y245D01*
D02*
G37*
G36*
X65574Y1689D02*
X65616Y1686D01*
X65663Y1680D01*
X65710Y1672D01*
X65757Y1661D01*
X65802Y1647D01*
X65807Y1644D01*
X65821Y1639D01*
X65841Y1631D01*
X65866Y1619D01*
X65894Y1603D01*
X65921Y1586D01*
X65946Y1564D01*
X65968Y1542D01*
X65971Y1539D01*
X65977Y1531D01*
X65985Y1517D01*
X65996Y1500D01*
X66010Y1475D01*
X66021Y1450D01*
X66032Y1420D01*
X66041Y1383D01*
Y1381D01*
X66043Y1372D01*
X66046Y1356D01*
X66049Y1333D01*
Y1303D01*
X66052Y1267D01*
X66055Y1220D01*
Y1167D01*
Y850D01*
Y848D01*
Y837D01*
Y820D01*
Y798D01*
Y773D01*
Y742D01*
X66057Y675D01*
Y606D01*
X66060Y537D01*
X66063Y506D01*
Y478D01*
X66066Y453D01*
X66068Y434D01*
Y431D01*
X66071Y420D01*
X66074Y403D01*
X66082Y381D01*
X66088Y356D01*
X66099Y328D01*
X66113Y298D01*
X66127Y267D01*
X65880D01*
X65877Y270D01*
X65874Y281D01*
X65869Y295D01*
X65860Y317D01*
X65852Y342D01*
X65846Y373D01*
X65841Y406D01*
X65835Y442D01*
X65832D01*
X65830Y437D01*
X65813Y423D01*
X65788Y403D01*
X65755Y378D01*
X65713Y353D01*
X65671Y326D01*
X65627Y301D01*
X65580Y281D01*
X65574Y278D01*
X65558Y276D01*
X65533Y267D01*
X65502Y259D01*
X65463Y251D01*
X65419Y245D01*
X65369Y240D01*
X65319Y237D01*
X65297D01*
X65280Y240D01*
X65261D01*
X65238Y242D01*
X65188Y251D01*
X65133Y265D01*
X65072Y284D01*
X65016Y312D01*
X64966Y348D01*
X64961Y353D01*
X64947Y367D01*
X64927Y392D01*
X64905Y426D01*
X64883Y467D01*
X64864Y514D01*
X64850Y573D01*
X64847Y601D01*
X64844Y634D01*
Y639D01*
Y651D01*
X64847Y670D01*
X64850Y695D01*
X64855Y725D01*
X64864Y756D01*
X64875Y789D01*
X64889Y820D01*
X64891Y823D01*
X64897Y834D01*
X64908Y850D01*
X64922Y870D01*
X64938Y892D01*
X64961Y914D01*
X64983Y936D01*
X65011Y956D01*
X65013Y959D01*
X65025Y964D01*
X65038Y975D01*
X65061Y986D01*
X65086Y998D01*
X65116Y1011D01*
X65147Y1023D01*
X65183Y1034D01*
X65186D01*
X65197Y1036D01*
X65213Y1042D01*
X65236Y1045D01*
X65263Y1050D01*
X65299Y1056D01*
X65341Y1064D01*
X65391Y1070D01*
X65394D01*
X65405Y1072D01*
X65419D01*
X65438Y1075D01*
X65460Y1078D01*
X65488Y1084D01*
X65519Y1086D01*
X65552Y1092D01*
X65619Y1106D01*
X65691Y1120D01*
X65755Y1136D01*
X65785Y1145D01*
X65813Y1153D01*
Y1156D01*
Y1161D01*
X65816Y1178D01*
Y1197D01*
Y1209D01*
Y1214D01*
Y1217D01*
Y1220D01*
Y1236D01*
X65813Y1264D01*
X65807Y1295D01*
X65799Y1328D01*
X65785Y1361D01*
X65769Y1392D01*
X65746Y1417D01*
X65744Y1420D01*
X65730Y1431D01*
X65708Y1442D01*
X65680Y1458D01*
X65641Y1472D01*
X65596Y1486D01*
X65541Y1494D01*
X65477Y1497D01*
X65449D01*
X65422Y1494D01*
X65383Y1489D01*
X65344Y1483D01*
X65302Y1472D01*
X65263Y1458D01*
X65230Y1439D01*
X65227Y1436D01*
X65216Y1428D01*
X65202Y1414D01*
X65186Y1392D01*
X65169Y1364D01*
X65149Y1328D01*
X65133Y1283D01*
X65116Y1234D01*
X64886Y1264D01*
Y1267D01*
X64889Y1270D01*
Y1278D01*
X64891Y1289D01*
X64900Y1314D01*
X64911Y1350D01*
X64925Y1386D01*
X64941Y1425D01*
X64963Y1464D01*
X64988Y1500D01*
X64991Y1503D01*
X65002Y1514D01*
X65019Y1531D01*
X65041Y1553D01*
X65072Y1575D01*
X65108Y1597D01*
X65149Y1622D01*
X65197Y1642D01*
X65199D01*
X65202Y1644D01*
X65211Y1647D01*
X65222Y1650D01*
X65249Y1658D01*
X65288Y1667D01*
X65333Y1675D01*
X65388Y1683D01*
X65447Y1689D01*
X65513Y1692D01*
X65544D01*
X65574Y1689D01*
D02*
G37*
G36*
X63706Y495D02*
X64653D01*
Y267D01*
X63450D01*
Y2189D01*
X63706D01*
Y495D01*
D02*
G37*
G36*
X59464Y1961D02*
X58831D01*
Y267D01*
X58575D01*
Y1961D01*
X57942D01*
Y2189D01*
X59464D01*
Y1961D01*
D02*
G37*
G36*
X68378Y1689D02*
X68400Y1686D01*
X68428Y1680D01*
X68459Y1675D01*
X68495Y1667D01*
X68528Y1658D01*
X68567Y1644D01*
X68603Y1631D01*
X68642Y1611D01*
X68681Y1589D01*
X68720Y1564D01*
X68756Y1533D01*
X68789Y1500D01*
X68792Y1497D01*
X68797Y1492D01*
X68806Y1481D01*
X68817Y1464D01*
X68831Y1445D01*
X68845Y1422D01*
X68861Y1395D01*
X68878Y1361D01*
X68895Y1325D01*
X68911Y1286D01*
X68925Y1242D01*
X68939Y1195D01*
X68950Y1142D01*
X68958Y1086D01*
X68964Y1028D01*
X68967Y964D01*
Y961D01*
Y950D01*
Y931D01*
X68964Y903D01*
X67923D01*
Y900D01*
Y892D01*
X67926Y881D01*
Y864D01*
X67928Y845D01*
X67934Y823D01*
X67942Y773D01*
X67959Y717D01*
X67981Y656D01*
X68012Y601D01*
X68051Y551D01*
X68053D01*
X68056Y545D01*
X68073Y531D01*
X68098Y512D01*
X68131Y492D01*
X68176Y470D01*
X68226Y451D01*
X68281Y437D01*
X68312Y434D01*
X68345Y431D01*
X68367D01*
X68392Y434D01*
X68423Y440D01*
X68456Y448D01*
X68495Y459D01*
X68531Y476D01*
X68567Y498D01*
X68570Y501D01*
X68584Y512D01*
X68600Y528D01*
X68620Y551D01*
X68642Y581D01*
X68667Y620D01*
X68692Y664D01*
X68714Y717D01*
X68958Y687D01*
Y684D01*
X68956Y678D01*
X68953Y667D01*
X68947Y651D01*
X68939Y634D01*
X68931Y612D01*
X68908Y564D01*
X68881Y512D01*
X68842Y456D01*
X68797Y403D01*
X68742Y353D01*
X68739D01*
X68734Y348D01*
X68725Y342D01*
X68714Y334D01*
X68698Y326D01*
X68681Y317D01*
X68659Y306D01*
X68634Y295D01*
X68606Y284D01*
X68578Y273D01*
X68509Y256D01*
X68431Y242D01*
X68345Y237D01*
X68314D01*
X68295Y240D01*
X68270Y242D01*
X68239Y248D01*
X68206Y254D01*
X68170Y259D01*
X68092Y281D01*
X68051Y298D01*
X68012Y315D01*
X67970Y337D01*
X67931Y362D01*
X67895Y390D01*
X67859Y423D01*
X67856Y426D01*
X67851Y431D01*
X67842Y442D01*
X67831Y459D01*
X67817Y478D01*
X67804Y501D01*
X67787Y528D01*
X67770Y559D01*
X67754Y595D01*
X67737Y634D01*
X67723Y678D01*
X67709Y725D01*
X67698Y775D01*
X67690Y831D01*
X67684Y889D01*
X67681Y950D01*
Y953D01*
Y967D01*
Y984D01*
X67684Y1009D01*
X67687Y1039D01*
X67690Y1072D01*
X67695Y1111D01*
X67704Y1150D01*
X67726Y1239D01*
X67740Y1283D01*
X67756Y1331D01*
X67779Y1375D01*
X67804Y1417D01*
X67831Y1458D01*
X67862Y1497D01*
X67865Y1500D01*
X67870Y1506D01*
X67881Y1514D01*
X67895Y1528D01*
X67912Y1542D01*
X67934Y1558D01*
X67959Y1578D01*
X67990Y1594D01*
X68020Y1614D01*
X68056Y1631D01*
X68095Y1647D01*
X68137Y1661D01*
X68181Y1675D01*
X68228Y1683D01*
X68278Y1689D01*
X68331Y1692D01*
X68359D01*
X68378Y1689D01*
D02*
G37*
G36*
X60308D02*
X60333Y1686D01*
X60361Y1680D01*
X60391Y1675D01*
X60427Y1669D01*
X60502Y1644D01*
X60541Y1631D01*
X60580Y1611D01*
X60619Y1592D01*
X60658Y1564D01*
X60694Y1536D01*
X60730Y1503D01*
X60733Y1500D01*
X60738Y1494D01*
X60746Y1483D01*
X60758Y1469D01*
X60771Y1450D01*
X60788Y1425D01*
X60805Y1397D01*
X60821Y1367D01*
X60838Y1333D01*
X60855Y1292D01*
X60871Y1250D01*
X60885Y1203D01*
X60896Y1153D01*
X60905Y1100D01*
X60910Y1045D01*
X60913Y984D01*
Y981D01*
Y973D01*
Y959D01*
Y939D01*
X60910Y917D01*
X60907Y889D01*
Y862D01*
X60902Y831D01*
X60894Y762D01*
X60877Y692D01*
X60857Y623D01*
X60830Y559D01*
Y556D01*
X60827Y553D01*
X60821Y545D01*
X60816Y534D01*
X60796Y506D01*
X60771Y473D01*
X60738Y434D01*
X60696Y395D01*
X60649Y356D01*
X60594Y320D01*
X60591D01*
X60588Y317D01*
X60580Y312D01*
X60566Y306D01*
X60552Y301D01*
X60535Y295D01*
X60494Y278D01*
X60447Y265D01*
X60388Y251D01*
X60327Y240D01*
X60261Y237D01*
X60233D01*
X60211Y240D01*
X60186Y242D01*
X60158Y248D01*
X60125Y254D01*
X60091Y259D01*
X60016Y281D01*
X59975Y298D01*
X59936Y315D01*
X59897Y337D01*
X59858Y362D01*
X59822Y390D01*
X59786Y423D01*
X59783Y426D01*
X59778Y431D01*
X59769Y442D01*
X59758Y459D01*
X59744Y478D01*
X59730Y501D01*
X59714Y528D01*
X59697Y562D01*
X59680Y598D01*
X59664Y639D01*
X59650Y684D01*
X59636Y731D01*
X59625Y784D01*
X59616Y839D01*
X59611Y900D01*
X59608Y964D01*
Y970D01*
Y981D01*
X59611Y1000D01*
Y1028D01*
X59614Y1059D01*
X59619Y1097D01*
X59625Y1136D01*
X59636Y1181D01*
X59647Y1225D01*
X59661Y1272D01*
X59678Y1322D01*
X59700Y1370D01*
X59722Y1414D01*
X59753Y1458D01*
X59783Y1500D01*
X59822Y1536D01*
X59825Y1539D01*
X59830Y1542D01*
X59841Y1550D01*
X59855Y1561D01*
X59872Y1572D01*
X59894Y1586D01*
X59916Y1600D01*
X59944Y1614D01*
X59975Y1628D01*
X60008Y1642D01*
X60083Y1667D01*
X60169Y1686D01*
X60213Y1689D01*
X60261Y1692D01*
X60288D01*
X60308Y1689D01*
D02*
G37*
%LPC*%
G36*
X35725Y30700D02*
X35585D01*
X35457Y30647D01*
X35358Y30548D01*
X35305Y30420D01*
Y30280D01*
X35358Y30152D01*
X35457Y30053D01*
X35585Y30000D01*
X35725D01*
X35853Y30053D01*
X35952Y30152D01*
X36005Y30280D01*
Y30420D01*
X35952Y30548D01*
X35853Y30647D01*
X35725Y30700D01*
D02*
G37*
G36*
X7582Y31344D02*
X6642D01*
Y28354D01*
X7582D01*
Y31344D01*
D02*
G37*
G36*
X12397Y22229D02*
X11497D01*
Y21799D01*
X11413Y21707D01*
X10908D01*
Y20846D01*
X11413D01*
Y21047D01*
X11592D01*
X11662Y20976D01*
X11793Y20923D01*
X11933D01*
X12063Y20976D01*
X12163Y21076D01*
X12217Y21206D01*
Y21347D01*
X12198Y21392D01*
X12283Y21519D01*
X12397D01*
Y22229D01*
D02*
G37*
G36*
X9318Y22179D02*
X9177D01*
X9047Y22125D01*
X8948Y22025D01*
X8894Y21895D01*
Y21754D01*
X8948Y21624D01*
X9047Y21524D01*
X9177Y21471D01*
X9255D01*
X9307Y21418D01*
Y20846D01*
X9812D01*
Y21707D01*
X9719D01*
X9602Y21754D01*
Y21895D01*
X9548Y22025D01*
X9448Y22125D01*
X9318Y22179D01*
D02*
G37*
G36*
X16200Y18174D02*
X15000D01*
Y17334D01*
X15312D01*
Y17104D01*
X15347Y16929D01*
X15447Y16780D01*
X15887Y16340D01*
X16035Y16240D01*
X16211Y16205D01*
X16256D01*
X16432Y16240D01*
X16580Y16340D01*
X16680Y16489D01*
X16715Y16664D01*
X16680Y16840D01*
X16580Y16989D01*
X16445Y17079D01*
X16230Y17294D01*
Y17488D01*
X16200Y17638D01*
Y18174D01*
D02*
G37*
G36*
X9812Y17871D02*
X9307D01*
Y17011D01*
X9253Y16953D01*
X9253D01*
Y16053D01*
X9963D01*
Y16953D01*
X9915D01*
X9812Y17011D01*
Y17871D01*
D02*
G37*
G36*
X36270Y14158D02*
X36130D01*
X35999Y14104D01*
X35900Y14005D01*
X35846Y13874D01*
Y13734D01*
X35900Y13603D01*
X35999Y13504D01*
X36130Y13450D01*
X36270D01*
X36401Y13504D01*
X36500Y13603D01*
X36554Y13734D01*
Y13874D01*
X36500Y14005D01*
X36401Y14104D01*
X36270Y14158D01*
D02*
G37*
G36*
X7450Y12059D02*
X6550D01*
Y11349D01*
X7025D01*
X7055Y11343D01*
X7463D01*
X7683Y11124D01*
X7683Y11124D01*
X7782Y11057D01*
X7899Y11034D01*
X7899Y11034D01*
X9448D01*
X9564Y10986D01*
X9705D01*
X9835Y11040D01*
X9934Y11139D01*
X9988Y11270D01*
Y11410D01*
X9934Y11541D01*
X9835Y11640D01*
X9705Y11694D01*
X9564D01*
X9448Y11646D01*
X8026D01*
X7806Y11865D01*
X7707Y11932D01*
X7590Y11955D01*
X7590Y11955D01*
X7450D01*
Y12059D01*
D02*
G37*
G36*
X14609Y12383D02*
X11409D01*
Y8583D01*
X11304Y8529D01*
X10547D01*
Y10540D01*
X8347D01*
Y6740D01*
X10547D01*
Y7611D01*
X11702D01*
X11878Y7646D01*
X12027Y7746D01*
X12437Y8156D01*
X12536Y8304D01*
X12571Y8480D01*
Y8583D01*
X14609D01*
Y10086D01*
X15113D01*
X15289Y10121D01*
X15437Y10221D01*
X15537Y10369D01*
X15572Y10545D01*
X15537Y10721D01*
X15437Y10869D01*
X15289Y10969D01*
X15113Y11004D01*
X14609D01*
Y12383D01*
D02*
G37*
G36*
X7147Y10540D02*
X4947D01*
Y7975D01*
X4761D01*
Y7998D01*
X3911D01*
Y7238D01*
X4761D01*
Y7261D01*
X4947D01*
Y6740D01*
X5750D01*
Y6137D01*
X5738D01*
Y5047D01*
X5750D01*
Y4247D01*
X5750Y4246D01*
X5766Y4166D01*
Y3895D01*
X5766Y3895D01*
X5774Y3856D01*
Y3295D01*
X7124D01*
Y4295D01*
X6569D01*
X6566Y4311D01*
Y5047D01*
X6578D01*
Y6137D01*
X6566D01*
Y6740D01*
X7147D01*
Y10540D01*
D02*
G37*
G36*
X3555Y6454D02*
X2845D01*
Y5681D01*
X2845Y5554D01*
X2845D01*
Y5554D01*
X2845D01*
Y4654D01*
X3555D01*
Y4671D01*
X4241D01*
Y5537D01*
X4246D01*
Y6437D01*
X3555D01*
Y6454D01*
D02*
G37*
G36*
X16962Y3105D02*
X15562D01*
Y2902D01*
X15441Y2844D01*
X15310Y2898D01*
X15170D01*
X15039Y2844D01*
X14940Y2745D01*
X14931Y2722D01*
X11362D01*
Y3105D01*
X9962D01*
Y1905D01*
X11362D01*
Y2366D01*
X14931D01*
X14940Y2343D01*
X15039Y2244D01*
X15170Y2190D01*
X15310D01*
X15441Y2244D01*
X15562Y2186D01*
Y1905D01*
X16670D01*
X16687Y1902D01*
X17124D01*
Y1586D01*
X17834D01*
Y2486D01*
X17124D01*
Y2258D01*
X16962D01*
Y3105D01*
D02*
G37*
G36*
X5402Y1628D02*
X4052D01*
Y1361D01*
X3521D01*
X3497Y1385D01*
X3367Y1439D01*
X3226D01*
X3096Y1385D01*
X2997Y1286D01*
X2943Y1156D01*
Y1015D01*
X2997Y885D01*
X3096Y785D01*
X3226Y731D01*
X3367D01*
X3497Y785D01*
X3564Y852D01*
X4052D01*
Y628D01*
X5402D01*
Y1628D01*
D02*
G37*
G36*
X25320Y2608D02*
X25180D01*
X25049Y2554D01*
X24950Y2455D01*
X24896Y2324D01*
Y2184D01*
X24918Y2131D01*
X24895Y2004D01*
X24895D01*
X24895Y2004D01*
Y1104D01*
X25605D01*
Y2004D01*
X25605Y2004D01*
X25605D01*
X25582Y2131D01*
X25604Y2184D01*
Y2324D01*
X25550Y2455D01*
X25451Y2554D01*
X25320Y2608D01*
D02*
G37*
G36*
X23770Y2008D02*
X23630D01*
X23499Y1954D01*
X23400Y1855D01*
X23346Y1724D01*
Y1584D01*
X23400Y1453D01*
X23499Y1354D01*
X23630Y1300D01*
X23770D01*
X23868Y1340D01*
X23995Y1282D01*
Y1104D01*
X24705D01*
Y2004D01*
X23995D01*
Y2004D01*
X23868Y1968D01*
X23770Y2008D01*
D02*
G37*
G36*
X35725Y1773D02*
X35585D01*
X35457Y1720D01*
X35358Y1621D01*
X35305Y1493D01*
Y1353D01*
X35358Y1225D01*
X35457Y1126D01*
X35585Y1073D01*
X35725D01*
X35853Y1126D01*
X35952Y1225D01*
X36005Y1353D01*
Y1493D01*
X35952Y1621D01*
X35853Y1720D01*
X35725Y1773D01*
D02*
G37*
G36*
X1320Y1400D02*
X1180D01*
X1052Y1347D01*
X953Y1248D01*
X900Y1120D01*
Y980D01*
X953Y852D01*
X1052Y753D01*
X1180Y700D01*
X1320D01*
X1448Y753D01*
X1547Y852D01*
X1600Y980D01*
Y1120D01*
X1547Y1248D01*
X1448Y1347D01*
X1320Y1400D01*
D02*
G37*
G36*
X7978Y6137D02*
X7138D01*
Y5047D01*
X7248D01*
X7290Y4985D01*
X7735Y4539D01*
Y3949D01*
X8022D01*
Y1628D01*
X7552D01*
Y628D01*
X8902D01*
Y1628D01*
X8837D01*
Y3949D01*
X9085D01*
Y4949D01*
X8608D01*
X8602Y4953D01*
X8446Y4984D01*
X8437D01*
X8423Y5005D01*
X7986Y5442D01*
Y5572D01*
X7986Y5572D01*
X7978Y5611D01*
Y6137D01*
D02*
G37*
G36*
X19184Y1629D02*
X19043D01*
X18913Y1576D01*
X18831Y1494D01*
X18771Y1453D01*
X18771Y1453D01*
X18698Y1381D01*
X18090D01*
Y481D01*
X18800D01*
Y645D01*
X18882Y700D01*
X19104Y921D01*
X19184D01*
X19314Y975D01*
X19413Y1075D01*
X19467Y1205D01*
Y1346D01*
X19413Y1476D01*
X19314Y1576D01*
X19184Y1629D01*
D02*
G37*
G36*
X61785Y1506D02*
X61771D01*
X61760Y1503D01*
X61732Y1497D01*
X61696Y1489D01*
X61654Y1472D01*
X61610Y1447D01*
X61585Y1431D01*
X61563Y1411D01*
X61540Y1389D01*
X61518Y1364D01*
Y1361D01*
X61513Y1358D01*
X61507Y1350D01*
X61502Y1339D01*
X61493Y1322D01*
X61482Y1306D01*
X61471Y1283D01*
X61463Y1261D01*
X61452Y1234D01*
X61440Y1203D01*
X61432Y1170D01*
X61421Y1134D01*
X61415Y1092D01*
X61410Y1050D01*
X61404Y1006D01*
Y956D01*
Y953D01*
Y945D01*
Y931D01*
X61407Y911D01*
Y889D01*
X61410Y864D01*
X61418Y806D01*
X61432Y739D01*
X61449Y675D01*
X61477Y612D01*
X61493Y584D01*
X61513Y559D01*
X61518Y553D01*
X61532Y539D01*
X61554Y517D01*
X61585Y495D01*
X61624Y473D01*
X61668Y451D01*
X61718Y437D01*
X61746Y434D01*
X61774Y431D01*
X61790D01*
X61801Y434D01*
X61829Y440D01*
X61868Y448D01*
X61910Y465D01*
X61954Y487D01*
X61998Y520D01*
X62021Y539D01*
X62043Y562D01*
Y564D01*
X62048Y567D01*
X62054Y576D01*
X62060Y587D01*
X62071Y601D01*
X62079Y620D01*
X62090Y639D01*
X62101Y664D01*
X62110Y689D01*
X62121Y723D01*
X62132Y756D01*
X62140Y792D01*
X62146Y834D01*
X62151Y878D01*
X62157Y925D01*
Y975D01*
Y978D01*
Y986D01*
Y1000D01*
X62154Y1020D01*
Y1042D01*
X62151Y1067D01*
X62143Y1125D01*
X62129Y1189D01*
X62110Y1253D01*
X62082Y1317D01*
X62065Y1347D01*
X62046Y1372D01*
Y1375D01*
X62040Y1378D01*
X62026Y1395D01*
X62004Y1414D01*
X61973Y1439D01*
X61935Y1464D01*
X61890Y1486D01*
X61840Y1500D01*
X61812Y1503D01*
X61785Y1506D01*
D02*
G37*
G36*
X65816Y967D02*
X65813D01*
X65810Y964D01*
X65802Y961D01*
X65791Y959D01*
X65777Y953D01*
X65760Y948D01*
X65741Y942D01*
X65719Y936D01*
X65694Y928D01*
X65663Y923D01*
X65633Y914D01*
X65596Y906D01*
X65558Y898D01*
X65519Y889D01*
X65474Y884D01*
X65427Y875D01*
X65422D01*
X65405Y873D01*
X65377Y867D01*
X65347Y862D01*
X65313Y856D01*
X65280Y848D01*
X65249Y839D01*
X65222Y828D01*
X65219D01*
X65211Y823D01*
X65199Y817D01*
X65188Y809D01*
X65155Y787D01*
X65127Y753D01*
Y750D01*
X65122Y745D01*
X65119Y734D01*
X65113Y720D01*
X65108Y703D01*
X65102Y687D01*
X65100Y664D01*
X65097Y642D01*
Y639D01*
Y626D01*
X65100Y609D01*
X65105Y587D01*
X65113Y562D01*
X65127Y537D01*
X65144Y509D01*
X65166Y484D01*
X65169Y481D01*
X65180Y476D01*
X65197Y465D01*
X65219Y453D01*
X65249Y442D01*
X65286Y431D01*
X65327Y426D01*
X65377Y423D01*
X65399D01*
X65427Y426D01*
X65458Y431D01*
X65497Y437D01*
X65535Y448D01*
X65577Y462D01*
X65619Y481D01*
X65624Y484D01*
X65635Y492D01*
X65655Y506D01*
X65677Y526D01*
X65702Y548D01*
X65730Y576D01*
X65752Y609D01*
X65774Y645D01*
X65777Y648D01*
X65780Y659D01*
X65785Y678D01*
X65794Y703D01*
X65802Y737D01*
X65807Y775D01*
X65810Y823D01*
X65813Y878D01*
X65816Y967D01*
D02*
G37*
G36*
X68334Y1497D02*
X68317D01*
X68306Y1494D01*
X68276Y1492D01*
X68239Y1483D01*
X68195Y1469D01*
X68148Y1450D01*
X68103Y1422D01*
X68059Y1386D01*
X68053Y1381D01*
X68042Y1367D01*
X68023Y1342D01*
X68003Y1308D01*
X67981Y1270D01*
X67962Y1220D01*
X67945Y1161D01*
X67937Y1097D01*
X68717D01*
Y1100D01*
Y1106D01*
X68714Y1114D01*
Y1125D01*
X68709Y1159D01*
X68700Y1195D01*
X68686Y1239D01*
X68673Y1281D01*
X68650Y1322D01*
X68625Y1358D01*
Y1361D01*
X68620Y1364D01*
X68606Y1381D01*
X68581Y1403D01*
X68548Y1428D01*
X68506Y1453D01*
X68456Y1475D01*
X68398Y1492D01*
X68367Y1494D01*
X68334Y1497D01*
D02*
G37*
G36*
X60261D02*
X60244D01*
X60230Y1494D01*
X60199Y1492D01*
X60158Y1481D01*
X60111Y1464D01*
X60061Y1442D01*
X60013Y1408D01*
X59988Y1386D01*
X59966Y1364D01*
Y1361D01*
X59961Y1358D01*
X59955Y1350D01*
X59947Y1339D01*
X59939Y1325D01*
X59930Y1308D01*
X59919Y1286D01*
X59908Y1264D01*
X59897Y1236D01*
X59886Y1209D01*
X59877Y1175D01*
X59869Y1139D01*
X59861Y1100D01*
X59855Y1059D01*
X59852Y1011D01*
X59850Y964D01*
Y961D01*
Y953D01*
Y939D01*
X59852Y920D01*
Y898D01*
X59855Y873D01*
X59864Y814D01*
X59877Y748D01*
X59900Y681D01*
X59927Y617D01*
X59947Y589D01*
X59966Y562D01*
X59969D01*
X59972Y556D01*
X59988Y542D01*
X60013Y520D01*
X60047Y498D01*
X60088Y473D01*
X60138Y451D01*
X60197Y437D01*
X60227Y434D01*
X60261Y431D01*
X60277D01*
X60291Y434D01*
X60322Y440D01*
X60363Y448D01*
X60408Y465D01*
X60458Y487D01*
X60505Y520D01*
X60530Y542D01*
X60552Y564D01*
X60555Y567D01*
X60558Y570D01*
X60563Y578D01*
X60571Y589D01*
X60580Y603D01*
X60591Y620D01*
X60602Y642D01*
X60613Y664D01*
X60624Y692D01*
X60633Y723D01*
X60644Y756D01*
X60652Y792D01*
X60660Y834D01*
X60666Y875D01*
X60671Y923D01*
Y973D01*
Y975D01*
Y984D01*
Y998D01*
X60669Y1014D01*
Y1036D01*
X60666Y1061D01*
X60658Y1120D01*
X60644Y1181D01*
X60621Y1247D01*
X60591Y1308D01*
X60574Y1339D01*
X60552Y1364D01*
Y1367D01*
X60547Y1370D01*
X60530Y1386D01*
X60505Y1406D01*
X60472Y1431D01*
X60430Y1456D01*
X60380Y1478D01*
X60324Y1492D01*
X60294Y1494D01*
X60261Y1497D01*
D02*
G37*
%LPD*%
D11*
X5842Y29849D02*
X6096Y29595D01*
Y27944D02*
Y29595D01*
X1125Y23304D02*
X1550Y22879D01*
Y22076D02*
X2540Y21086D01*
X1550Y22076D02*
Y22879D01*
X1000Y23304D02*
X1125D01*
X9560Y21277D02*
Y21454D01*
X9248Y21767D02*
X9560Y21454D01*
X9248Y21767D02*
Y21825D01*
X15630Y26135D02*
X15788Y26293D01*
X17076D01*
X17076Y26293D01*
X2540Y21086D02*
X2548Y21094D01*
D14*
X24483Y25909D02*
X25162Y26588D01*
Y27048D01*
X23805Y25818D02*
X23900Y25913D01*
X23805Y25737D02*
Y25818D01*
X23900Y25913D02*
X24049D01*
X24962Y26826D01*
Y28088D01*
X25162Y27048D02*
X25449Y27336D01*
X24399Y28650D02*
Y28663D01*
Y28650D02*
X24962Y28088D01*
X24483Y25060D02*
X24483Y25909D01*
D15*
X4318Y14228D02*
X6045D01*
X6899Y13279D02*
X6994D01*
X6719Y13459D02*
X6899Y13279D01*
X6719Y13459D02*
Y13554D01*
X6045Y14228D02*
X6719Y13554D01*
X6994Y12660D02*
X7050Y12604D01*
X6994Y12660D02*
Y13279D01*
X450Y26704D02*
X1000D01*
X1750D02*
Y27237D01*
X1550Y27437D02*
X1750Y27237D01*
X1550Y27437D02*
Y27504D01*
X986Y25768D02*
X1000Y25754D01*
X536Y25768D02*
X986D01*
X1200Y30554D02*
X1838Y29916D01*
X3203D02*
X3278Y29841D01*
X1838Y29916D02*
X3203D01*
X23279Y25764D02*
X23308Y25735D01*
X23279Y25764D02*
Y27228D01*
X23100Y27407D02*
X23279Y27228D01*
X23100Y27407D02*
Y27504D01*
X22809Y25744D02*
Y26696D01*
X22811Y26698D01*
X4191Y27563D02*
Y27660D01*
X4277Y27746D02*
Y29554D01*
X4191Y27660D02*
X4277Y27746D01*
X2655Y28716D02*
X2752D01*
X2877Y28841D01*
X3278D01*
X2540Y14990D02*
X2592Y15042D01*
X3210D01*
X3262Y14594D02*
X3922D01*
X3759Y13669D02*
X4318Y14228D01*
X3851Y14169D02*
X4418Y14736D01*
X11430D01*
X3337Y14169D02*
X3851D01*
X17380Y766D02*
X17545Y931D01*
X16301Y766D02*
X17380D01*
X16159Y908D02*
X16301Y766D01*
X10662Y805D02*
X10765Y908D01*
X16159D01*
X24230Y1522D02*
Y1594D01*
X24170Y1654D02*
X24230Y1594D01*
X23700Y1654D02*
X24170D01*
X25250Y1459D02*
Y1554D01*
Y2254D01*
X21082Y12522D02*
X21450Y12154D01*
X21082Y12522D02*
Y17784D01*
X19812Y14958D02*
X20136Y15282D01*
Y17545D01*
X26150Y15854D02*
Y16354D01*
X25431Y17073D02*
X26150Y16354D01*
X25431Y17073D02*
Y19049D01*
X14224Y20678D02*
X16487Y22940D01*
X14224Y19181D02*
Y20678D01*
X12665Y17126D02*
X14478Y18938D01*
Y20578D02*
X16490Y22590D01*
X14478Y18938D02*
Y20578D01*
X16490Y22590D02*
X18779D01*
X12305Y17262D02*
X14224Y19181D01*
X11317Y15174D02*
X12305Y16162D01*
Y17262D01*
X12665Y15971D02*
Y17126D01*
X11430Y14736D02*
X12665Y15971D01*
X16487Y22940D02*
X18873D01*
X7421Y15174D02*
X11317D01*
X8205Y15802D02*
Y15905D01*
X8115Y16755D02*
Y16967D01*
X7836Y16476D02*
X8115Y16755D01*
X8205Y15905D02*
X8708Y16408D01*
X7836Y16398D02*
Y16476D01*
X8115Y16967D02*
X8334Y17186D01*
X22238Y17701D02*
Y20080D01*
X22305Y20147D02*
Y20880D01*
X22238Y20080D02*
X22305Y20147D01*
X22988Y18799D02*
X23577Y18210D01*
X22738Y18682D02*
X23241Y18179D01*
X22733Y18015D02*
Y18137D01*
X22488Y18382D02*
Y19976D01*
X22988Y18799D02*
Y19714D01*
X22488Y19976D02*
X22805Y20293D01*
X22738Y18682D02*
Y19851D01*
X23305Y20418D01*
X22988Y19714D02*
X23805Y20532D01*
X22488Y18382D02*
X22733Y18137D01*
X10662Y2505D02*
X10701Y2544D01*
X15240D01*
X16223D01*
X17435Y2080D02*
X17479Y2036D01*
X16687Y2080D02*
X17435D01*
X16262Y2505D02*
X16687Y2080D01*
X16223Y2544D02*
X16262Y2505D01*
X21082Y17784D02*
X21666Y18368D01*
X20701Y16544D02*
Y17757D01*
X20653Y16496D02*
X20701Y16544D01*
X20136Y17545D02*
X21059Y18469D01*
X20701Y17757D02*
X21416Y18471D01*
X18953Y30708D02*
Y30715D01*
Y30708D02*
X20146Y29515D01*
Y28253D02*
Y29515D01*
X13310Y28013D02*
X13335D01*
X13130Y28193D02*
X13310Y28013D01*
X12946Y28402D02*
Y29640D01*
X13130Y28193D02*
Y28218D01*
X12946Y28402D02*
X13130Y28218D01*
X13212Y29906D02*
Y29945D01*
Y30290D01*
X12946Y29640D02*
X13212Y29906D01*
X13571Y28999D02*
Y29049D01*
Y28999D02*
X14203Y28367D01*
Y28193D02*
Y28367D01*
Y28193D02*
X14383Y28013D01*
X14478D01*
X2241Y29189D02*
X2393Y29341D01*
X3278D01*
X5392Y16641D02*
Y17530D01*
X4650Y15322D02*
Y16211D01*
X3922Y14594D02*
X4650Y15322D01*
X4140Y15725D02*
X4175D01*
X3846Y16019D02*
X4140Y15725D01*
X4277Y29554D02*
X4572Y29849D01*
X2489Y15688D02*
X2537Y15641D01*
X3215D01*
X3262Y15594D01*
X3210Y15042D02*
X3262Y15094D01*
X3922Y16491D02*
X3990Y16423D01*
X3262Y16094D02*
X3337Y16019D01*
X3766Y16491D02*
X3922D01*
X3337Y16019D02*
X3846D01*
X2144Y29189D02*
X2241D01*
X3738Y16519D02*
X3766Y16491D01*
X7924Y19768D02*
X7946Y19746D01*
X7495Y18504D02*
Y20542D01*
X7946Y18725D02*
Y19746D01*
X7495Y20542D02*
X7788Y20835D01*
Y22500D01*
X7748Y23612D02*
X7802Y23558D01*
X7018Y23612D02*
X7748D01*
X7946Y18725D02*
X7970Y18701D01*
X23241Y17022D02*
Y18179D01*
X13212Y30290D02*
X13571Y30649D01*
X8544Y22348D02*
Y22445D01*
X8795Y23049D02*
X8890D01*
X8615Y22869D02*
X8795Y23049D01*
X8615Y22517D02*
Y22869D01*
X8544Y22445D02*
X8615Y22517D01*
X23876Y16260D02*
Y17059D01*
X23577Y17358D02*
X23876Y17059D01*
X24306Y17768D02*
X24319Y17782D01*
Y21491D01*
X24372Y21543D02*
X24710D01*
X24319Y21491D02*
X24372Y21543D01*
X24967Y17182D02*
Y17911D01*
X25172Y18117D01*
Y18748D01*
X10388Y21945D02*
X10416Y21973D01*
X9952Y22366D02*
Y22800D01*
X10388Y21304D02*
Y21945D01*
X10360Y21277D02*
X10388Y21304D01*
X15431Y23182D02*
X15813Y23564D01*
X9905Y22924D02*
X9906D01*
X13623Y30597D02*
X13796Y30424D01*
X17446D02*
X17671Y30649D01*
X13796Y30424D02*
X17446D01*
X6684Y17693D02*
X7495Y18504D01*
X6292Y17530D02*
X6455Y17693D01*
X6684D01*
X20805Y20437D02*
X20805Y20880D01*
X20805Y20437D02*
X20805D01*
X21416Y19826D01*
Y18471D02*
Y19826D01*
X19309Y22060D02*
X19625D01*
X18779Y22590D02*
X19309Y22060D01*
X6684Y16683D02*
X7970Y17969D01*
Y18701D01*
X8708Y16408D02*
Y16503D01*
X3262Y16594D02*
X3337Y16519D01*
X3738D01*
X4650Y16211D02*
X5000Y16561D01*
X5777Y23610D02*
X5790Y23623D01*
X6257D01*
X21687Y17124D02*
X21687Y17124D01*
X21687Y17902D02*
X21933Y18149D01*
X21687Y17124D02*
Y17902D01*
X21687Y16418D02*
Y17124D01*
X8334Y17186D02*
X8682D01*
X8760Y17263D01*
X5722Y23665D02*
X5777Y23610D01*
X4776Y23624D02*
Y23719D01*
X4596Y23899D02*
X4776Y23719D01*
X4590Y23899D02*
X4596D01*
X4502Y23987D02*
X4590Y23899D01*
X4502Y23987D02*
Y25728D01*
X10944Y22432D02*
Y23027D01*
X10922Y23049D02*
X10944Y23027D01*
X6572Y24215D02*
X8529D01*
X5842Y24768D02*
Y25785D01*
X8529Y24215D02*
X8795Y23949D01*
X8890D01*
X6314Y24473D02*
X6572Y24215D01*
X5842Y24768D02*
X6137Y24473D01*
X6314D01*
X13571Y29049D02*
X17671D01*
X3262Y13594D02*
X3337Y13669D01*
X3759D01*
X3262Y14094D02*
X3337Y14169D01*
X25696Y18224D02*
Y22158D01*
X25172Y21716D02*
X25172Y18748D01*
X25431Y21962D02*
X25431Y19049D01*
X24828Y22060D02*
X25172Y21716D01*
X24834Y22560D02*
X25431Y21962D01*
X24793Y23060D02*
X25696Y22158D01*
X25908Y17911D02*
Y18011D01*
X25696Y18224D02*
X25908Y18011D01*
X20146Y28253D02*
X21305Y27094D01*
X6334Y16683D02*
X6684D01*
X6292Y16641D02*
X6334Y16683D01*
X21305Y25740D02*
Y27094D01*
X12009Y19292D02*
X12484D01*
X11950D02*
Y19479D01*
X12484Y19292D02*
X16436Y23243D01*
X19059D01*
X23577Y17358D02*
Y18210D01*
X20303Y20585D02*
X21059Y19829D01*
Y18469D02*
Y19829D01*
X21305Y20364D02*
X21666Y20003D01*
X22238Y17701D02*
X22366Y17573D01*
X21666Y18368D02*
Y20003D01*
X21805Y20270D02*
X21933Y20142D01*
X21933Y18748D02*
X21933Y20142D01*
X21933Y18149D02*
Y18748D01*
X23305Y20418D02*
Y20880D01*
X22366Y17081D02*
Y17573D01*
X23805Y20532D02*
Y20880D01*
X18873Y22940D02*
X19254Y22560D01*
X15813Y23564D02*
X19621Y23564D01*
X20406Y26402D02*
Y26715D01*
X20320Y26801D02*
X20406Y26715D01*
X22308Y25735D02*
Y28195D01*
X21808Y25735D02*
Y28236D01*
X22308Y28195D02*
X22396Y28283D01*
X22411D01*
X21336Y28708D02*
X21808Y28236D01*
X22411Y28283D02*
X22836Y28708D01*
Y28833D01*
X22808Y30679D02*
X22808Y29304D01*
X21308D02*
Y30679D01*
X21805Y20270D02*
X21805Y20880D01*
X21305Y20364D02*
X21305Y20880D01*
X19254Y22560D02*
X19625D01*
X19241Y23060D02*
X19625Y23060D01*
X19059Y23243D02*
X19241Y23060D01*
X19621Y23564D02*
X19625Y23560D01*
X20805Y25740D02*
Y26003D01*
X20406Y26402D02*
X20805Y26003D01*
X22805Y20293D02*
Y20880D01*
Y25740D02*
X22809Y25744D01*
X23292Y25753D02*
X23305Y25740D01*
X24485Y22060D02*
X24828Y22060D01*
X24485Y22560D02*
X24834D01*
X24485Y23060D02*
X24793Y23060D01*
X8760Y17263D02*
Y17441D01*
X5000Y16561D02*
X5312D01*
X5392Y16641D01*
X9560Y16551D02*
X9608Y16503D01*
X9560Y16551D02*
Y17441D01*
D24*
X11160D02*
D03*
X10360D02*
D03*
X9560Y21277D02*
D03*
X11160D02*
D03*
X10360D02*
D03*
X8760D02*
D03*
Y17441D02*
D03*
X9560D02*
D03*
D25*
X9960Y19359D02*
D03*
D29*
X16262Y2505D02*
D03*
Y805D02*
D03*
X10662Y2505D02*
D03*
Y805D02*
D03*
X37600Y22304D02*
D03*
X37605Y27504D02*
D03*
D30*
X37523Y18122D02*
D03*
D50*
X35655Y30350D02*
D03*
Y1423D02*
D03*
X1250Y1050D02*
D03*
X35655Y1423D02*
D03*
Y30350D02*
D03*
D60*
X39869Y18113D02*
D03*
X38158D02*
D03*
D61*
X43482Y23344D02*
D03*
X42042Y27797D02*
D03*
X39773D02*
D03*
X39580Y26245D02*
D03*
X39587Y23245D02*
D03*
X41406Y21604D02*
D03*
X41452Y19284D02*
D03*
X42993Y20489D02*
D03*
X43573Y26061D02*
D03*
X37600Y22303D02*
D03*
Y27505D02*
D03*
X44476Y19106D02*
D03*
Y24797D02*
D03*
Y21797D02*
D03*
Y27797D02*
D03*
Y7106D02*
D03*
Y16106D02*
D03*
Y13106D02*
D03*
Y10106D02*
D03*
Y4106D02*
D03*
X9634Y11340D02*
D03*
X536Y25768D02*
D03*
X1200Y30554D02*
D03*
X23100Y27504D02*
D03*
X22811Y26698D02*
D03*
X4191Y27563D02*
D03*
X2655Y28716D02*
D03*
X1550Y27504D02*
D03*
X3200Y26454D02*
D03*
X6778Y28006D02*
D03*
X6096Y27944D02*
D03*
X28500Y27054D02*
D03*
X5192Y11962D02*
D03*
X5207Y13212D02*
D03*
X3522Y24004D02*
D03*
X2250D02*
D03*
X1000D02*
D03*
X5645Y19750D02*
D03*
X5651Y20955D02*
D03*
X5702Y22170D02*
D03*
X34700Y27904D02*
D03*
X34060Y26620D02*
D03*
X29300Y26404D02*
D03*
X28800Y28004D02*
D03*
X34807Y29202D02*
D03*
X35807Y27202D02*
D03*
X34807Y25202D02*
D03*
X35807Y23202D02*
D03*
X34807Y21202D02*
D03*
X35807Y15202D02*
D03*
Y7202D02*
D03*
X34807Y5202D02*
D03*
X35807Y3202D02*
D03*
X34807Y1202D02*
D03*
X32807Y25202D02*
D03*
Y17202D02*
D03*
X33807Y15202D02*
D03*
Y7202D02*
D03*
X32807Y5202D02*
D03*
X33807Y3202D02*
D03*
X32807Y1202D02*
D03*
X30807Y21202D02*
D03*
X31807Y19202D02*
D03*
X30807Y17202D02*
D03*
X31807Y15202D02*
D03*
Y11202D02*
D03*
X30807Y9202D02*
D03*
X31807Y7202D02*
D03*
X30807Y5202D02*
D03*
X31807Y3202D02*
D03*
X30807Y1202D02*
D03*
X28800Y29202D02*
D03*
X28807Y21202D02*
D03*
X29807Y19202D02*
D03*
X28807Y17202D02*
D03*
X29807Y15202D02*
D03*
Y11202D02*
D03*
X28807Y9202D02*
D03*
X29807Y7202D02*
D03*
X28807Y5202D02*
D03*
X29807Y3202D02*
D03*
X28807Y1202D02*
D03*
X27807Y19202D02*
D03*
X26807Y17202D02*
D03*
X27807Y15202D02*
D03*
Y11202D02*
D03*
Y7202D02*
D03*
X26807Y5202D02*
D03*
X27807Y3202D02*
D03*
X26807Y1202D02*
D03*
X25807Y11202D02*
D03*
X24807Y9202D02*
D03*
X25807Y7202D02*
D03*
X24807Y5202D02*
D03*
X25807Y3202D02*
D03*
X23807Y11202D02*
D03*
X22807Y5202D02*
D03*
Y1202D02*
D03*
X20807Y9202D02*
D03*
X21807Y7202D02*
D03*
Y3202D02*
D03*
X20807Y1202D02*
D03*
X19807Y11202D02*
D03*
Y7202D02*
D03*
X18807Y5202D02*
D03*
X19807Y3202D02*
D03*
X16807Y9202D02*
D03*
X17807Y7202D02*
D03*
X16807Y5202D02*
D03*
X17807Y3202D02*
D03*
X14807Y13202D02*
D03*
X15807Y7202D02*
D03*
X12807Y21202D02*
D03*
Y13202D02*
D03*
X13807Y7202D02*
D03*
X12807Y5202D02*
D03*
X13807Y3202D02*
D03*
X10807Y13202D02*
D03*
Y9202D02*
D03*
Y5202D02*
D03*
X11807Y3202D02*
D03*
X7807Y7202D02*
D03*
X6807Y1202D02*
D03*
X1807Y3202D02*
D03*
X36200Y13804D02*
D03*
X2540Y14990D02*
D03*
X3297Y1085D02*
D03*
X1494Y5078D02*
D03*
X23700Y1654D02*
D03*
X25250Y2254D02*
D03*
X21450Y12154D02*
D03*
X26150Y15854D02*
D03*
X19812Y14958D02*
D03*
X19113Y1275D02*
D03*
X12550Y28004D02*
D03*
X17214Y22099D02*
D03*
X15621Y20959D02*
D03*
X16383Y21721D02*
D03*
X11318Y16063D02*
D03*
X7421Y15174D02*
D03*
X8205Y15802D02*
D03*
X10414Y15879D02*
D03*
X7836Y16398D02*
D03*
X15240Y2544D02*
D03*
X4760Y2525D02*
D03*
X20653Y16496D02*
D03*
X18953Y30715D02*
D03*
X15748Y27182D02*
D03*
Y27944D02*
D03*
X14538Y22253D02*
D03*
X4175Y15725D02*
D03*
X25561Y26472D02*
D03*
X16256Y16664D02*
D03*
X2489Y15688D02*
D03*
X3990Y16423D02*
D03*
X7495Y18504D02*
D03*
X6713D02*
D03*
X2144Y29189D02*
D03*
X7924Y19768D02*
D03*
X13212Y29945D02*
D03*
X8544Y22348D02*
D03*
X23876Y16260D02*
D03*
X18357Y22099D02*
D03*
X14097Y23880D02*
D03*
Y25023D02*
D03*
Y26166D02*
D03*
X19891Y30664D02*
D03*
X26286Y28157D02*
D03*
X26481Y28931D02*
D03*
X23621Y27844D02*
D03*
X23836Y26570D02*
D03*
X27178Y28960D02*
D03*
X27051Y28198D02*
D03*
X26416Y27309D02*
D03*
X25008Y25777D02*
D03*
X24500Y30754D02*
D03*
X23241Y17022D02*
D03*
X24306Y17768D02*
D03*
X24967Y17182D02*
D03*
X37319Y18122D02*
D03*
X15621Y19816D02*
D03*
X22733Y18015D02*
D03*
X11811Y23372D02*
D03*
X6764Y19761D02*
D03*
X9952Y22366D02*
D03*
X10416Y21973D02*
D03*
X9248Y21825D02*
D03*
X28176Y25897D02*
D03*
X27249Y25643D02*
D03*
X11863Y21277D02*
D03*
X6875Y22172D02*
D03*
X6866Y20894D02*
D03*
X11281Y5954D02*
D03*
X28475Y22273D02*
D03*
X27521Y22530D02*
D03*
X17852Y20062D02*
D03*
X18696Y20561D02*
D03*
X15113Y10545D02*
D03*
X10085Y27727D02*
D03*
X27614Y20558D02*
D03*
X18584Y29887D02*
D03*
X27985Y29881D02*
D03*
X2540Y17657D02*
D03*
X6257Y23623D02*
D03*
X7018Y23612D02*
D03*
X22536Y21808D02*
D03*
Y22859D02*
D03*
Y23818D02*
D03*
Y24818D02*
D03*
X23555Y24828D02*
D03*
Y23824D02*
D03*
X23565Y22859D02*
D03*
X21591Y21802D02*
D03*
X23565Y21830D02*
D03*
X21591Y24818D02*
D03*
X21581Y22859D02*
D03*
X21591Y23817D02*
D03*
X20542Y21808D02*
D03*
X20550Y23803D02*
D03*
X20555Y24812D02*
D03*
X20557Y22859D02*
D03*
X10944Y22432D02*
D03*
X21687Y16418D02*
D03*
X2540Y21086D02*
D03*
X22366Y17081D02*
D03*
X20320Y26801D02*
D03*
X25908Y17911D02*
D03*
X11950Y19479D02*
D03*
X2413Y20070D02*
D03*
D62*
X33518Y23264D02*
G03*
X32722Y24060I-796J0D01*
G01*
X36703Y27614D02*
G03*
X36812Y27505I109J0D01*
G01*
X33516Y20204D02*
G03*
X35599Y18122I2082J0D01*
G01*
X30618Y25161D02*
G03*
X30364Y24617I620J-620D01*
G01*
X31623Y26166D02*
G03*
X31750Y26473I-307J307D01*
G01*
X33518Y22449D02*
Y23264D01*
X33520Y21845D02*
Y22447D01*
X30872Y24060D02*
X32722D01*
X36812Y27505D02*
X37600D01*
X33516Y20204D02*
Y21245D01*
X35599Y18122D02*
X37523D01*
X33518Y22449D02*
X33520Y22447D01*
X30618Y25161D02*
X31623Y26166D01*
X31750Y26473D02*
Y27079D01*
X29668Y24060D02*
X30319D01*
X28953D02*
X29668D01*
X27699D02*
X28406D01*
X24483Y24060D02*
X25693Y24060D01*
X26088D01*
X27284D02*
X27699D01*
D63*
X28451Y24062D02*
D03*
X28921D02*
D03*
X26452Y23708D02*
D03*
X26922D02*
D03*
X33488Y20683D02*
D03*
X33018D02*
D03*
Y22406D02*
D03*
X33488D02*
D03*
X26922Y24433D02*
D03*
X26452D02*
D03*
X30830Y24060D02*
D03*
D64*
X33520Y21310D02*
D03*
Y21780D02*
D03*
X29668Y24036D02*
D03*
Y23566D02*
D03*
X27699Y24559D02*
D03*
Y24089D02*
D03*
X30361Y24530D02*
D03*
X25691Y24089D02*
D03*
Y24559D02*
D03*
D65*
X30361Y24060D02*
D03*
D66*
X4727Y1128D02*
D03*
X8227D02*
D03*
X11910Y4449D02*
D03*
X8410D02*
D03*
X6449Y3795D02*
D03*
X2949D02*
D03*
D67*
X9447Y8640D02*
D03*
X6047D02*
D03*
D68*
X628Y27551D02*
D03*
Y31131D02*
D03*
X612Y9304D02*
D03*
Y22384D02*
D03*
D69*
X3278Y28341D02*
D03*
Y28841D02*
D03*
Y29341D02*
D03*
Y29841D02*
D03*
Y30341D02*
D03*
X3262Y10094D02*
D03*
Y10594D02*
D03*
Y11094D02*
D03*
Y11594D02*
D03*
Y12094D02*
D03*
Y12594D02*
D03*
Y13094D02*
D03*
Y13594D02*
D03*
Y14094D02*
D03*
Y14594D02*
D03*
Y15094D02*
D03*
Y15594D02*
D03*
Y16094D02*
D03*
Y16594D02*
D03*
Y17094D02*
D03*
Y17594D02*
D03*
Y18094D02*
D03*
Y18594D02*
D03*
Y19094D02*
D03*
Y19594D02*
D03*
Y20094D02*
D03*
Y20594D02*
D03*
Y21094D02*
D03*
Y21594D02*
D03*
D70*
X4902Y22170D02*
D03*
X6302D02*
D03*
X2729Y2271D02*
D03*
X4129D02*
D03*
X4507Y13212D02*
D03*
X5907D02*
D03*
X4492Y11962D02*
D03*
X5892D02*
D03*
X7558Y5592D02*
D03*
X6158D02*
D03*
X6288Y18546D02*
D03*
X4888D02*
D03*
X6245Y19750D02*
D03*
X4845D02*
D03*
X6251Y20955D02*
D03*
X4851D02*
D03*
D71*
X1000Y24704D02*
D03*
Y23304D02*
D03*
X2250D02*
D03*
Y24704D02*
D03*
X11303Y6670D02*
D03*
Y8070D02*
D03*
X3522Y23304D02*
D03*
Y24704D02*
D03*
D72*
X2536Y6968D02*
D03*
X4336Y7618D02*
D03*
X2536Y8268D02*
D03*
D73*
X8382Y29849D02*
D03*
X9652D02*
D03*
X12192D02*
D03*
Y25785D02*
D03*
X10922D02*
D03*
X9652D02*
D03*
X8382D02*
D03*
X4572D02*
D03*
X5842D02*
D03*
X7112D02*
D03*
Y29849D02*
D03*
X5842D02*
D03*
X4572D02*
D03*
X10922D02*
D03*
D74*
X24437Y28663D02*
D03*
Y27313D02*
D03*
X25487Y27313D02*
D03*
X25487Y28663D02*
D03*
D75*
X21336Y28833D02*
D03*
X22836Y28833D02*
D03*
D76*
X20308Y20885D02*
D03*
X21308Y20885D02*
D03*
X21808D02*
D03*
X22308D02*
D03*
X22808D02*
D03*
X23308Y20885D02*
D03*
X23808Y20885D02*
D03*
Y25735D02*
D03*
X23308Y25735D02*
D03*
X22808Y25735D02*
D03*
X22308Y25735D02*
D03*
X21808Y25735D02*
D03*
X21308Y25735D02*
D03*
X20808D02*
D03*
X20808Y20885D02*
D03*
X20308Y25735D02*
D03*
D77*
X24483Y21560D02*
D03*
X24483Y22060D02*
D03*
X24483Y22560D02*
D03*
X24483Y23060D02*
D03*
X24483Y24060D02*
D03*
Y25060D02*
D03*
X19633Y25060D02*
D03*
X19633Y24560D02*
D03*
X19633Y24060D02*
D03*
X19633Y23560D02*
D03*
X19633Y23060D02*
D03*
X19633Y22560D02*
D03*
X19633Y22060D02*
D03*
X19633Y21560D02*
D03*
X24483Y24560D02*
D03*
X24483Y23560D02*
D03*
D78*
X22058Y23310D02*
D03*
D79*
X15621Y24402D02*
D03*
X15621Y26152D02*
D03*
D80*
X18623Y27055D02*
D03*
X19223D02*
D03*
D81*
X34409Y10483D02*
D03*
D82*
X13009D02*
D03*
D83*
X17671Y30649D02*
D03*
X13571D02*
D03*
Y29049D02*
D03*
X17671D02*
D03*
D84*
X15621Y31049D02*
D03*
D85*
X33250Y28579D02*
D03*
X30250D02*
D03*
D86*
X31750Y27079D02*
D03*
D87*
X15600Y17754D02*
D03*
Y19154D02*
D03*
D88*
X13335Y27113D02*
D03*
Y28013D02*
D03*
X17830Y20482D02*
D03*
X17830Y21382D02*
D03*
X18030Y25060D02*
D03*
Y24160D02*
D03*
X16930Y25060D02*
D03*
Y24160D02*
D03*
D89*
X1050Y25754D02*
D03*
X1950D02*
D03*
X3886Y5121D02*
D03*
X4786D02*
D03*
X17545Y931D02*
D03*
X18445D02*
D03*
X24350Y1554D02*
D03*
X25250D02*
D03*
X1900Y26704D02*
D03*
X1000D02*
D03*
X4776Y23624D02*
D03*
X5676D02*
D03*
X6292Y16641D02*
D03*
X5392D02*
D03*
X6292Y17530D02*
D03*
X5392D02*
D03*
X9608Y16503D02*
D03*
X8708D02*
D03*
X18379Y2036D02*
D03*
X17479D02*
D03*
X3200Y5104D02*
D03*
X2300D02*
D03*
X3200Y6004D02*
D03*
X2300D02*
D03*
X3891Y5987D02*
D03*
X4791D02*
D03*
X3521Y25739D02*
D03*
X2621D02*
D03*
D90*
X10399Y16438D02*
D03*
X11299D02*
D03*
X17076Y26293D02*
D03*
X17976D02*
D03*
X18473Y27944D02*
D03*
X19373Y27944D02*
D03*
X23691Y30611D02*
D03*
X22791D02*
D03*
X21278Y30611D02*
D03*
X20378Y30611D02*
D03*
D91*
X7000Y12604D02*
D03*
Y11704D02*
D03*
X4191Y9206D02*
D03*
Y10106D02*
D03*
X14478Y28013D02*
D03*
Y27113D02*
D03*
X11947Y21874D02*
D03*
Y22774D02*
D03*
X10922Y23949D02*
D03*
Y23049D02*
D03*
X9906Y23949D02*
D03*
Y23049D02*
D03*
X8890Y23949D02*
D03*
Y23049D02*
D03*
X7802Y23558D02*
D03*
Y22658D02*
D03*
X6994Y14179D02*
D03*
Y13279D02*
D03*
D92*
X14922Y22673D02*
D03*
X15558Y23309D02*
D03*
X28098Y21828D02*
D03*
X27462Y21192D02*
D03*
D93*
X27168Y22166D02*
D03*
X26744Y21742D02*
D03*
D94*
X18718Y20935D02*
D03*
Y21535D02*
D03*
D95*
X26842Y25998D02*
D03*
X26418Y26422D02*
D03*
D96*
X27760Y26342D02*
D03*
X27123Y26978D02*
D03*
D97*
X12112Y8480D02*
Y9586D01*
X11303Y8070D02*
X11702D01*
X12112Y8480D01*
Y9586D02*
X13009Y10483D01*
X15771Y17104D02*
X16211Y16664D01*
X15771Y17104D02*
Y17488D01*
X16211Y16664D02*
X16256D01*
X27614Y21058D02*
X27614Y20558D01*
X9447Y8640D02*
X9634Y8827D01*
X9447Y8640D02*
X10017Y8070D01*
X11303D01*
X13071Y10545D02*
X15113D01*
D98*
X27041Y26841D02*
X27832Y27633D01*
X27854Y27658D02*
X27985Y27789D01*
Y29881D01*
D99*
X26275Y26321D02*
X26403Y26449D01*
X3416Y25838D02*
X3500Y25754D01*
X3416Y25838D02*
Y26181D01*
X3200Y26398D02*
X3416Y26181D01*
X3200Y26398D02*
Y26454D01*
X4706Y1107D02*
X4727Y1128D01*
X3297Y1085D02*
X3318Y1107D01*
X4706D01*
X2729Y2671D02*
Y3795D01*
X2100Y3819D02*
X2573D01*
X1494Y4425D02*
Y5078D01*
X2778Y3795D02*
X2949D01*
X2573Y3819D02*
X2663Y3909D01*
X1494Y4425D02*
X2100Y3819D01*
X19216Y26573D02*
X20049Y25740D01*
X20235Y25740D01*
X27333Y21153D02*
X27409Y21153D01*
X26629Y21851D02*
X26739Y21742D01*
X26744D02*
X27333Y21153D01*
X26407Y26453D02*
X26954Y27000D01*
X2540Y17657D02*
X2621D01*
X2684Y17594D01*
X3262D01*
X2548Y21094D02*
X3262D01*
X2437Y20094D02*
X3262D01*
X2413Y20070D02*
X2437Y20094D01*
D100*
X19257Y29214D02*
X19257Y27944D01*
Y26674D02*
Y27944D01*
X15621Y19154D02*
Y19816D01*
X11852Y22774D02*
X11947D01*
X11847Y22779D02*
X11852Y22774D01*
X11847Y22779D02*
Y23333D01*
X11811Y23370D02*
X11847Y23333D01*
X11811Y23370D02*
Y23372D01*
X5397Y7618D02*
X6047Y8268D01*
X4336Y7618D02*
X5397D01*
X15621Y19816D02*
X17182Y21377D01*
X17800D01*
X10902Y29829D02*
X10922Y29849D01*
X10085Y27727D02*
X10902Y28544D01*
Y29829D01*
X18584Y29887D02*
X19257Y29214D01*
X6047Y8268D02*
Y8640D01*
D101*
X17684Y21560D02*
X19625D01*
X11863Y21277D02*
X11912Y21326D01*
Y21609D01*
X11933Y21631D01*
X2621Y27241D02*
X3128Y27748D01*
X2621Y25739D02*
Y27241D01*
X1905Y25754D02*
X2450D01*
X3128Y27748D02*
Y28291D01*
X3237Y11069D02*
X3262Y11094D01*
X2887Y11069D02*
X3237D01*
X1922Y10104D02*
X2887Y11069D01*
X2536Y6868D02*
X2542Y6862D01*
X1922Y7482D02*
Y10104D01*
X3200Y5104D02*
X3208Y5112D01*
X3878D01*
X3886Y5121D01*
X3200Y6004D02*
X3209Y5995D01*
X3882D01*
X3891Y5987D01*
X2300Y5104D02*
Y6004D01*
X2463Y6896D02*
X2463D01*
X2336Y7023D02*
X2463Y6896D01*
X2418Y6850D02*
X2536Y6968D01*
X2418Y6122D02*
Y6850D01*
X2300Y6004D02*
X2418Y6122D01*
X11309Y16182D02*
X11318Y16173D01*
X11349D01*
X11188Y16549D02*
X11299Y16438D01*
X11309Y16428D01*
Y16182D02*
Y16428D01*
X24485Y23560D02*
X24924Y23560D01*
X26631Y21853D01*
X11160Y21277D02*
X11863D01*
X11188Y16549D02*
Y17414D01*
X11160Y17441D02*
X11188Y17414D01*
X10360Y17441D02*
X11160D01*
X25921Y25967D02*
X26275Y26321D01*
X25206Y25249D02*
X25923Y25965D01*
X25206Y24891D02*
Y25249D01*
X24875Y24560D02*
X25206Y24891D01*
X24485Y24560D02*
X24875D01*
X26403Y26449D02*
X26407Y26453D01*
X9876Y23880D02*
X9906D01*
X9746Y24010D02*
X9876Y23880D01*
X9746Y24010D02*
Y25691D01*
X9652Y25785D02*
X9746Y25691D01*
X1922Y7482D02*
X2336Y7068D01*
Y7023D02*
Y7068D01*
X18184Y26246D02*
X19347Y25083D01*
X10795Y23949D02*
Y25658D01*
X10922Y25785D01*
X4096Y9206D02*
X4191D01*
X3213Y8323D02*
X4096Y9206D01*
X2691Y8323D02*
X3213D01*
X2536Y8168D02*
X2691Y8323D01*
X2536Y8168D02*
Y10218D01*
X2912Y10594D01*
X3262D01*
D102*
X7000Y11704D02*
X7055Y11649D01*
X7590D01*
X7899Y11340D01*
X19075Y1237D02*
X19113Y1275D01*
X18987Y1237D02*
X19075D01*
X18666Y916D02*
X18987Y1237D01*
X7899Y11340D02*
X9634D01*
X3262Y17244D02*
Y17444D01*
D103*
X8302Y1128D02*
X8429Y1255D01*
X6274Y3795D02*
X6449D01*
X6174Y3895D02*
X6274Y3795D01*
X6174Y3895D02*
Y4230D01*
X6158Y4246D02*
Y8321D01*
Y4246D02*
X6174Y4230D01*
X8429Y1255D02*
Y4557D01*
X8235Y4576D02*
X8446D01*
X8135Y4676D02*
Y4716D01*
Y4676D02*
X8235Y4576D01*
X7578Y5273D02*
X8135Y4716D01*
X7578Y5273D02*
Y5572D01*
X6262Y8425D02*
X6604Y8767D01*
X7558Y5592D02*
X7578Y5572D01*
D104*
X26452Y24423D02*
Y24433D01*
X26442Y24423D02*
X26452D01*
X26079Y24060D02*
X26442Y24423D01*
X26092Y24070D02*
X26453Y23709D01*
X26923Y23709D02*
X27284Y24070D01*
X26922Y24433D02*
X27284Y24071D01*
D105*
X4471Y11654D02*
X4566Y11749D01*
X3322Y11654D02*
X4471D01*
X3322Y12154D02*
X3592D01*
X4277Y12839D01*
Y12857D01*
X4531D01*
X3262Y12094D02*
X3322Y12154D01*
X3681Y17619D02*
X4595Y18533D01*
X3287Y17619D02*
X3681D01*
X4595Y18533D02*
X5020D01*
X3262Y17594D02*
X3287Y17619D01*
X3262Y17444D02*
Y17594D01*
X2321Y22535D02*
Y23304D01*
Y22535D02*
X3262Y21594D01*
Y11594D02*
X3322Y11654D01*
X4191Y20705D02*
Y21578D01*
X4449Y21836D02*
X4728D01*
X4191Y21578D02*
X4449Y21836D01*
X4728D02*
X5142Y22250D01*
Y22375D01*
X3262Y18594D02*
X3309Y18641D01*
X4615Y19395D02*
X4845Y19625D01*
X3309Y18641D02*
X3736D01*
X4490Y19395D01*
X4615D01*
X4845Y19625D02*
Y19750D01*
X3612Y19115D02*
X4138Y19641D01*
Y20179D01*
X4936Y20775D02*
Y20977D01*
X4912Y20751D02*
X4936Y20775D01*
X4709Y20751D02*
X4912D01*
X4138Y20179D02*
X4709Y20751D01*
X3283Y19115D02*
X3612D01*
X3262Y19094D02*
X3283Y19115D01*
X3810Y19824D02*
Y20324D01*
X4191Y20705D01*
X3322Y19654D02*
X3640D01*
X3262Y19594D02*
X3322Y19654D01*
X3640D02*
X3810Y19824D01*
X3891Y20873D02*
Y22804D01*
X3612Y20594D02*
X3891Y20873D01*
X3262Y20594D02*
X3612D01*
X3535Y23160D02*
X3891Y22804D01*
D106*
X15621Y24402D02*
X15863Y24160D01*
X16930D01*
X18030Y24068D02*
X19625D01*
X16930Y24068D02*
X18030Y24068D01*
X19625D02*
X19633Y24060D01*
D107*
X41850Y30404D02*
D03*
Y1604D02*
D03*
X9000Y13204D02*
D03*
D108*
X450Y26704D02*
D03*
X481Y28204D02*
D03*
X36703Y1254D02*
D03*
X31367Y23479D02*
D03*
X33000Y24604D02*
D03*
X30816Y26181D02*
D03*
X30179Y25546D02*
D03*
X31622Y25343D02*
D03*
X32224Y26011D02*
D03*
X18543Y31246D02*
D03*
X19451D02*
D03*
X36000Y18704D02*
D03*
X32400Y22404D02*
D03*
X32450Y20654D02*
D03*
X32616Y23383D02*
D03*
X36703Y18704D02*
D03*
X32340Y24641D02*
D03*
X32937Y22878D02*
D03*
X32939Y21978D02*
D03*
X32931Y20178D02*
D03*
X33095Y19293D02*
D03*
X33545Y18514D02*
D03*
X34223Y17923D02*
D03*
X35060Y17592D02*
D03*
X35959Y17540D02*
D03*
X36703D02*
D03*
X35318Y18733D02*
D03*
X34526Y19160D02*
D03*
X34123Y19965D02*
D03*
X34098Y20864D02*
D03*
X34098Y21764D02*
D03*
X34099Y22664D02*
D03*
X34068Y23564D02*
D03*
X33593Y24328D02*
D03*
X36703Y16096D02*
D03*
Y15188D02*
D03*
Y17004D02*
D03*
Y20350D02*
D03*
Y19442D02*
D03*
Y12929D02*
D03*
X3604Y433D02*
D03*
X14500D02*
D03*
X12684Y433D02*
D03*
X13592D02*
D03*
X11776D02*
D03*
X2696Y433D02*
D03*
X1788D02*
D03*
X880D02*
D03*
X19451D02*
D03*
X28531D02*
D03*
X24899D02*
D03*
X35795D02*
D03*
X32163D02*
D03*
X29439D02*
D03*
X33979D02*
D03*
X27623D02*
D03*
X31255D02*
D03*
X30347D02*
D03*
X25807D02*
D03*
X33071D02*
D03*
X26715D02*
D03*
X23991D02*
D03*
X36703D02*
D03*
X34887D02*
D03*
X21267D02*
D03*
X20359D02*
D03*
X23083D02*
D03*
X22175D02*
D03*
X25825Y25097D02*
D03*
X473Y2781D02*
D03*
Y1873D02*
D03*
X470Y966D02*
D03*
X476Y3689D02*
D03*
X478Y6413D02*
D03*
X481Y7320D02*
D03*
Y8228D02*
D03*
X478Y5505D02*
D03*
X476Y4597D02*
D03*
X36703Y31246D02*
D03*
Y23982D02*
D03*
Y30338D02*
D03*
Y27614D02*
D03*
Y21258D02*
D03*
Y26706D02*
D03*
Y29430D02*
D03*
Y25798D02*
D03*
Y22166D02*
D03*
Y28522D02*
D03*
Y23074D02*
D03*
Y12063D02*
D03*
Y24890D02*
D03*
Y11155D02*
D03*
Y10247D02*
D03*
Y2798D02*
D03*
Y4195D02*
D03*
Y3545D02*
D03*
Y4845D02*
D03*
X26670Y25023D02*
D03*
X36703Y2075D02*
D03*
Y5707D02*
D03*
Y9339D02*
D03*
Y8431D02*
D03*
Y7523D02*
D03*
Y6615D02*
D03*
X481Y29112D02*
D03*
Y30020D02*
D03*
Y19124D02*
D03*
Y15492D02*
D03*
Y12768D02*
D03*
Y17308D02*
D03*
Y10952D02*
D03*
Y14584D02*
D03*
Y13676D02*
D03*
Y16400D02*
D03*
Y10044D02*
D03*
Y11860D02*
D03*
Y18216D02*
D03*
Y20940D02*
D03*
Y20032D02*
D03*
Y21848D02*
D03*
X21267Y31246D02*
D03*
X20359D02*
D03*
X23991D02*
D03*
X24899D02*
D03*
X22175D02*
D03*
X23083D02*
D03*
X27623D02*
D03*
X28531D02*
D03*
X25807D02*
D03*
X26715D02*
D03*
X31255D02*
D03*
X32163D02*
D03*
X29439D02*
D03*
X30347D02*
D03*
X34887D02*
D03*
X35795D02*
D03*
X33071D02*
D03*
X33979D02*
D03*
X31044Y24679D02*
D03*
X32950Y21254D02*
D03*
X17064Y27828D02*
D03*
X17018Y27055D02*
D03*
X31750Y24642D02*
D03*
X29716Y24661D02*
D03*
X28702Y24642D02*
D03*
X25807Y23437D02*
D03*
X26670Y23245D02*
D03*
X27813Y23499D02*
D03*
X28829D02*
D03*
X17907Y27817D02*
D03*
X18034Y27055D02*
D03*
Y25658D02*
D03*
X17041Y25675D02*
D03*
X31927Y23479D02*
D03*
X30500D02*
D03*
X29677Y23075D02*
D03*
X27705Y25064D02*
D03*
M02*
