G04*
G04 #@! TF.GenerationSoftware,Altium Limited,Altium Designer,24.10.1 (45)*
G04*
G04 Layer_Color=32896*
%FSLAX43Y43*%
%MOMM*%
G71*
G04*
G04 #@! TF.SameCoordinates,EA8D933E-AF89-4038-8A9C-2A299DC7CCCE*
G04*
G04*
G04 #@! TF.FilePolarity,Positive*
G04*
G01*
G75*
%ADD12C,0.254*%
%ADD28C,0.013*%
G36*
X121956Y5838D02*
X122003Y5830D01*
X122045Y5821D01*
X122081Y5810D01*
X122112Y5796D01*
X122134Y5788D01*
X122148Y5780D01*
X122153Y5777D01*
X122192Y5752D01*
X122225Y5724D01*
X122256Y5696D01*
X122281Y5669D01*
X122300Y5646D01*
X122317Y5627D01*
X122325Y5616D01*
X122328Y5610D01*
Y5810D01*
X122539D01*
Y4416D01*
X122303D01*
Y5138D01*
X122300Y5205D01*
X122298Y5263D01*
X122292Y5313D01*
X122284Y5355D01*
X122275Y5385D01*
X122270Y5408D01*
X122267Y5421D01*
X122264Y5427D01*
X122248Y5463D01*
X122228Y5494D01*
X122209Y5521D01*
X122189Y5544D01*
X122170Y5560D01*
X122156Y5571D01*
X122145Y5580D01*
X122142Y5582D01*
X122109Y5599D01*
X122078Y5613D01*
X122045Y5621D01*
X122017Y5630D01*
X121995Y5632D01*
X121976Y5635D01*
X121959D01*
X121912Y5632D01*
X121873Y5624D01*
X121840Y5610D01*
X121815Y5596D01*
X121795Y5580D01*
X121781Y5569D01*
X121773Y5557D01*
X121770Y5555D01*
X121751Y5521D01*
X121737Y5485D01*
X121726Y5446D01*
X121720Y5408D01*
X121715Y5374D01*
X121712Y5344D01*
Y5333D01*
Y5327D01*
Y5321D01*
Y5319D01*
Y4416D01*
X121476Y4416D01*
Y5224D01*
X121470Y5299D01*
X121459Y5363D01*
X121445Y5416D01*
X121426Y5460D01*
X121409Y5494D01*
X121393Y5516D01*
X121382Y5530D01*
X121379Y5535D01*
X121340Y5569D01*
X121298Y5594D01*
X121257Y5610D01*
X121218Y5624D01*
X121184Y5630D01*
X121157Y5632D01*
X121146Y5635D01*
X121132D01*
X121101Y5632D01*
X121076Y5630D01*
X121051Y5624D01*
X121032Y5616D01*
X121012Y5607D01*
X121001Y5602D01*
X120993Y5599D01*
X120990Y5596D01*
X120968Y5580D01*
X120951Y5563D01*
X120937Y5546D01*
X120926Y5530D01*
X120918Y5516D01*
X120912Y5505D01*
X120907Y5496D01*
Y5494D01*
X120898Y5469D01*
X120893Y5435D01*
X120890Y5402D01*
X120887Y5369D01*
X120885Y5338D01*
Y5313D01*
Y5296D01*
Y5294D01*
Y5291D01*
Y4416D01*
X120649D01*
Y5371D01*
Y5416D01*
X120654Y5455D01*
X120660Y5494D01*
X120665Y5527D01*
X120674Y5560D01*
X120685Y5588D01*
X120693Y5613D01*
X120704Y5638D01*
X120715Y5657D01*
X120724Y5677D01*
X120743Y5702D01*
X120754Y5718D01*
X120760Y5724D01*
X120804Y5763D01*
X120857Y5791D01*
X120910Y5813D01*
X120960Y5827D01*
X121007Y5835D01*
X121026Y5838D01*
X121046D01*
X121059Y5841D01*
X121079D01*
X121129Y5838D01*
X121173Y5830D01*
X121218Y5818D01*
X121259Y5802D01*
X121298Y5782D01*
X121334Y5763D01*
X121365Y5741D01*
X121395Y5718D01*
X121423Y5693D01*
X121445Y5671D01*
X121465Y5652D01*
X121481Y5632D01*
X121495Y5616D01*
X121504Y5605D01*
X121509Y5596D01*
X121512Y5594D01*
X121529Y5635D01*
X121551Y5671D01*
X121576Y5702D01*
X121598Y5727D01*
X121620Y5749D01*
X121637Y5763D01*
X121648Y5771D01*
X121654Y5774D01*
X121692Y5796D01*
X121734Y5813D01*
X121776Y5824D01*
X121817Y5832D01*
X121851Y5838D01*
X121881Y5841D01*
X121906D01*
X121956Y5838D01*
D02*
G37*
G36*
X112614Y5838D02*
X112673Y5832D01*
X112728Y5824D01*
X112772Y5816D01*
X112811Y5807D01*
X112839Y5799D01*
X112850Y5796D01*
X112858Y5793D01*
X112861Y5791D01*
X112864D01*
X112911Y5771D01*
X112953Y5746D01*
X112989Y5724D01*
X113020Y5702D01*
X113042Y5680D01*
X113058Y5663D01*
X113070Y5652D01*
X113072Y5649D01*
X113097Y5613D01*
X113119Y5574D01*
X113136Y5535D01*
X113150Y5499D01*
X113161Y5463D01*
X113169Y5438D01*
X113172Y5427D01*
Y5419D01*
X113175Y5416D01*
Y5413D01*
X112945Y5383D01*
X112928Y5433D01*
X112911Y5477D01*
X112892Y5513D01*
X112875Y5541D01*
X112858Y5563D01*
X112845Y5577D01*
X112834Y5585D01*
X112831Y5588D01*
X112797Y5607D01*
X112759Y5621D01*
X112717Y5632D01*
X112678Y5638D01*
X112639Y5644D01*
X112611Y5646D01*
X112584D01*
X112520Y5644D01*
X112464Y5635D01*
X112420Y5621D01*
X112381Y5607D01*
X112353Y5591D01*
X112331Y5580D01*
X112317Y5569D01*
X112314Y5566D01*
X112292Y5541D01*
X112275Y5510D01*
X112262Y5477D01*
X112253Y5444D01*
X112248Y5413D01*
X112245Y5385D01*
Y5369D01*
Y5366D01*
Y5363D01*
Y5358D01*
Y5346D01*
Y5327D01*
X112248Y5310D01*
Y5305D01*
Y5302D01*
X112275Y5294D01*
X112306Y5285D01*
X112370Y5269D01*
X112442Y5255D01*
X112509Y5241D01*
X112542Y5235D01*
X112573Y5233D01*
X112600Y5227D01*
X112623Y5224D01*
X112642Y5222D01*
X112656D01*
X112667Y5219D01*
X112670D01*
X112720Y5213D01*
X112761Y5205D01*
X112797Y5199D01*
X112825Y5194D01*
X112847Y5191D01*
X112864Y5185D01*
X112875Y5183D01*
X112878D01*
X112914Y5172D01*
X112945Y5160D01*
X112975Y5147D01*
X113000Y5135D01*
X113022Y5124D01*
X113036Y5113D01*
X113047Y5108D01*
X113050Y5105D01*
X113078Y5085D01*
X113100Y5063D01*
X113122Y5041D01*
X113139Y5019D01*
X113153Y4999D01*
X113164Y4983D01*
X113169Y4972D01*
X113172Y4969D01*
X113186Y4938D01*
X113197Y4905D01*
X113206Y4875D01*
X113211Y4844D01*
X113214Y4819D01*
X113217Y4800D01*
Y4788D01*
Y4783D01*
X113214Y4750D01*
X113211Y4722D01*
X113197Y4664D01*
X113178Y4616D01*
X113156Y4575D01*
X113133Y4541D01*
X113114Y4516D01*
X113100Y4503D01*
X113094Y4497D01*
X113045Y4461D01*
X112989Y4433D01*
X112928Y4414D01*
X112872Y4400D01*
X112822Y4391D01*
X112800Y4389D01*
X112781D01*
X112764Y4386D01*
X112742D01*
X112692Y4389D01*
X112642Y4394D01*
X112598Y4400D01*
X112559Y4408D01*
X112528Y4416D01*
X112503Y4425D01*
X112486Y4428D01*
X112481Y4430D01*
X112434Y4450D01*
X112389Y4475D01*
X112348Y4503D01*
X112306Y4527D01*
X112273Y4552D01*
X112248Y4572D01*
X112231Y4586D01*
X112228Y4591D01*
X112226D01*
X112220Y4555D01*
X112214Y4522D01*
X112209Y4491D01*
X112201Y4466D01*
X112192Y4444D01*
X112187Y4430D01*
X112184Y4419D01*
X112181Y4416D01*
X111934D01*
X111948Y4447D01*
X111962Y4478D01*
X111973Y4505D01*
X111978Y4530D01*
X111987Y4552D01*
X111990Y4569D01*
X111992Y4580D01*
Y4583D01*
X111995Y4602D01*
X111998Y4627D01*
Y4655D01*
X112001Y4686D01*
X112003Y4755D01*
Y4825D01*
X112006Y4891D01*
Y4922D01*
Y4947D01*
Y4969D01*
Y4986D01*
Y4997D01*
Y4999D01*
Y5316D01*
Y5369D01*
X112009Y5416D01*
X112012Y5452D01*
Y5483D01*
X112015Y5505D01*
X112017Y5521D01*
X112020Y5530D01*
Y5532D01*
X112028Y5569D01*
X112040Y5599D01*
X112051Y5624D01*
X112065Y5649D01*
X112076Y5666D01*
X112084Y5680D01*
X112089Y5688D01*
X112092Y5691D01*
X112114Y5713D01*
X112139Y5735D01*
X112167Y5752D01*
X112195Y5768D01*
X112220Y5780D01*
X112239Y5788D01*
X112253Y5793D01*
X112259Y5796D01*
X112303Y5810D01*
X112350Y5821D01*
X112398Y5830D01*
X112445Y5835D01*
X112486Y5838D01*
X112517Y5841D01*
X112548D01*
X112614Y5838D01*
D02*
G37*
G36*
X117087Y4416D02*
X116862D01*
X116332Y5810D01*
X116576D01*
X116884Y4958D01*
X116903Y4902D01*
X116923Y4852D01*
X116937Y4805D01*
X116951Y4769D01*
X116959Y4736D01*
X116967Y4713D01*
X116970Y4700D01*
X116973Y4694D01*
X116990Y4747D01*
X117003Y4800D01*
X117020Y4847D01*
X117034Y4888D01*
X117045Y4924D01*
X117053Y4952D01*
X117056Y4961D01*
X117059Y4969D01*
X117062Y4972D01*
Y4974D01*
X117362Y5810D01*
X117611D01*
X117087Y4416D01*
D02*
G37*
G36*
X111251D02*
X111262Y4391D01*
X111268Y4372D01*
X111273Y4361D01*
Y4358D01*
X111290Y4311D01*
X111307Y4272D01*
X111318Y4239D01*
X111329Y4217D01*
X111334Y4200D01*
X111340Y4189D01*
X111345Y4183D01*
Y4180D01*
X111368Y4150D01*
X111393Y4128D01*
X111404Y4119D01*
X111412Y4114D01*
X111418Y4108D01*
X111420D01*
X111440Y4100D01*
X111459Y4092D01*
X111501Y4083D01*
X111518D01*
X111531Y4081D01*
X111545D01*
X111590Y4083D01*
X111634Y4092D01*
X111651Y4097D01*
X111665Y4100D01*
X111676Y4103D01*
X111679D01*
X111654Y3883D01*
X111623Y3872D01*
X111595Y3867D01*
X111570Y3861D01*
X111548Y3856D01*
X111529D01*
X111515Y3853D01*
X111504D01*
X111462Y3856D01*
X111426Y3861D01*
X111393Y3870D01*
X111365Y3881D01*
X111340Y3892D01*
X111323Y3900D01*
X111312Y3906D01*
X111309Y3908D01*
X111279Y3931D01*
X111254Y3958D01*
X111229Y3986D01*
X111207Y4014D01*
X111190Y4039D01*
X111176Y4058D01*
X111168Y4072D01*
X111165Y4078D01*
X111157Y4097D01*
X111146Y4117D01*
X111123Y4164D01*
X111101Y4217D01*
X111082Y4269D01*
X111062Y4316D01*
X111054Y4339D01*
X111046Y4358D01*
X111040Y4372D01*
X111035Y4383D01*
X111032Y4391D01*
Y4394D01*
X110501Y5810D01*
X110737D01*
X111037Y4997D01*
X111060Y4938D01*
X111076Y4883D01*
X111096Y4827D01*
X111109Y4780D01*
X111121Y4738D01*
X111126Y4722D01*
X111129Y4708D01*
X111132Y4697D01*
X111134Y4688D01*
X111137Y4683D01*
Y4680D01*
X111154Y4744D01*
X111171Y4802D01*
X111187Y4858D01*
X111204Y4905D01*
X111218Y4944D01*
X111223Y4961D01*
X111229Y4974D01*
X111232Y4988D01*
X111234Y4997D01*
X111237Y4999D01*
Y5002D01*
X111529Y5810D01*
X111779D01*
X111251Y4416D01*
D02*
G37*
G36*
X125485Y6154D02*
Y5810D01*
X125660D01*
Y5627D01*
X125485D01*
Y4822D01*
Y4783D01*
Y4750D01*
X125482Y4719D01*
X125479Y4688D01*
Y4664D01*
X125476Y4641D01*
X125471Y4605D01*
X125465Y4577D01*
X125463Y4558D01*
X125457Y4547D01*
Y4544D01*
X125446Y4519D01*
X125429Y4500D01*
X125413Y4480D01*
X125399Y4466D01*
X125382Y4453D01*
X125371Y4444D01*
X125363Y4439D01*
X125360Y4436D01*
X125329Y4422D01*
X125299Y4414D01*
X125265Y4405D01*
X125232Y4403D01*
X125204Y4400D01*
X125182Y4397D01*
X125160D01*
X125099Y4400D01*
X125068Y4403D01*
X125041Y4408D01*
X125016Y4411D01*
X124996Y4414D01*
X124985Y4416D01*
X124979D01*
X125010Y4625D01*
X125032Y4622D01*
X125054Y4619D01*
X125074D01*
X125088Y4616D01*
X125116D01*
X125152Y4619D01*
X125177Y4625D01*
X125190Y4630D01*
X125196Y4633D01*
X125215Y4647D01*
X125227Y4661D01*
X125235Y4672D01*
X125238Y4677D01*
X125240Y4691D01*
X125243Y4711D01*
X125246Y4755D01*
X125249Y4775D01*
Y4791D01*
Y4802D01*
Y4808D01*
Y5627D01*
X125010D01*
Y5810D01*
X125249D01*
Y6296D01*
X125485Y6154D01*
D02*
G37*
G36*
X124738D02*
Y5810D01*
X124913D01*
Y5627D01*
X124738D01*
Y4822D01*
Y4783D01*
Y4750D01*
X124735Y4719D01*
X124732Y4688D01*
Y4664D01*
X124730Y4641D01*
X124724Y4605D01*
X124719Y4577D01*
X124716Y4558D01*
X124710Y4547D01*
Y4544D01*
X124699Y4519D01*
X124682Y4500D01*
X124666Y4480D01*
X124652Y4466D01*
X124635Y4453D01*
X124624Y4444D01*
X124616Y4439D01*
X124613Y4436D01*
X124582Y4422D01*
X124552Y4414D01*
X124519Y4405D01*
X124485Y4403D01*
X124458Y4400D01*
X124435Y4397D01*
X124413D01*
X124352Y4400D01*
X124322Y4403D01*
X124294Y4408D01*
X124269Y4411D01*
X124249Y4414D01*
X124238Y4416D01*
X124233D01*
X124263Y4625D01*
X124285Y4622D01*
X124308Y4619D01*
X124327D01*
X124341Y4616D01*
X124369D01*
X124405Y4619D01*
X124430Y4625D01*
X124444Y4630D01*
X124449Y4633D01*
X124469Y4647D01*
X124480Y4661D01*
X124488Y4672D01*
X124491Y4677D01*
X124494Y4691D01*
X124496Y4711D01*
X124499Y4755D01*
X124502Y4775D01*
Y4791D01*
Y4802D01*
Y4808D01*
Y5627D01*
X124263D01*
Y5810D01*
X124502D01*
Y6296D01*
X124738Y6154D01*
D02*
G37*
G36*
X115604Y5838D02*
X115654Y5832D01*
X115701Y5824D01*
X115746Y5810D01*
X115787Y5796D01*
X115826Y5780D01*
X115862Y5763D01*
X115893Y5743D01*
X115923Y5727D01*
X115948Y5707D01*
X115971Y5691D01*
X115987Y5677D01*
X116001Y5663D01*
X116012Y5655D01*
X116018Y5649D01*
X116021Y5646D01*
X116051Y5607D01*
X116079Y5566D01*
X116104Y5524D01*
X116126Y5480D01*
X116143Y5433D01*
X116157Y5388D01*
X116179Y5299D01*
X116187Y5260D01*
X116193Y5222D01*
X116196Y5188D01*
X116198Y5158D01*
X116201Y5133D01*
Y5116D01*
Y5102D01*
Y5099D01*
X116198Y5038D01*
X116193Y4980D01*
X116184Y4924D01*
X116173Y4875D01*
X116159Y4827D01*
X116146Y4783D01*
X116129Y4744D01*
X116112Y4708D01*
X116096Y4677D01*
X116079Y4650D01*
X116065Y4627D01*
X116051Y4608D01*
X116040Y4591D01*
X116032Y4580D01*
X116026Y4575D01*
X116023Y4572D01*
X115987Y4539D01*
X115951Y4511D01*
X115912Y4486D01*
X115871Y4464D01*
X115832Y4447D01*
X115790Y4430D01*
X115712Y4408D01*
X115676Y4403D01*
X115643Y4397D01*
X115613Y4391D01*
X115588Y4389D01*
X115568Y4386D01*
X115538D01*
X115451Y4391D01*
X115374Y4405D01*
X115304Y4422D01*
X115277Y4433D01*
X115249Y4444D01*
X115224Y4455D01*
X115202Y4466D01*
X115185Y4475D01*
X115168Y4483D01*
X115157Y4491D01*
X115149Y4497D01*
X115143Y4503D01*
X115141D01*
X115085Y4552D01*
X115041Y4605D01*
X115002Y4661D01*
X114974Y4713D01*
X114952Y4761D01*
X114943Y4783D01*
X114935Y4800D01*
X114930Y4816D01*
X114927Y4827D01*
X114924Y4833D01*
Y4836D01*
X115168Y4866D01*
X115191Y4813D01*
X115216Y4769D01*
X115241Y4730D01*
X115263Y4700D01*
X115282Y4677D01*
X115299Y4661D01*
X115313Y4650D01*
X115315Y4647D01*
X115352Y4625D01*
X115388Y4608D01*
X115427Y4597D01*
X115460Y4589D01*
X115490Y4583D01*
X115515Y4580D01*
X115538D01*
X115571Y4583D01*
X115601Y4586D01*
X115657Y4600D01*
X115707Y4619D01*
X115751Y4641D01*
X115785Y4661D01*
X115810Y4680D01*
X115826Y4694D01*
X115829Y4700D01*
X115832D01*
X115871Y4750D01*
X115901Y4805D01*
X115923Y4866D01*
X115940Y4922D01*
X115948Y4972D01*
X115954Y4994D01*
X115957Y5013D01*
Y5030D01*
X115960Y5041D01*
Y5049D01*
Y5052D01*
X114918D01*
X114916Y5080D01*
Y5099D01*
Y5110D01*
Y5113D01*
X114918Y5177D01*
X114924Y5235D01*
X114932Y5291D01*
X114943Y5344D01*
X114957Y5391D01*
X114971Y5435D01*
X114988Y5474D01*
X115005Y5510D01*
X115021Y5544D01*
X115038Y5571D01*
X115052Y5594D01*
X115066Y5613D01*
X115077Y5630D01*
X115085Y5641D01*
X115091Y5646D01*
X115093Y5649D01*
X115127Y5682D01*
X115163Y5713D01*
X115202Y5738D01*
X115241Y5760D01*
X115279Y5780D01*
X115315Y5793D01*
X115354Y5807D01*
X115388Y5816D01*
X115424Y5824D01*
X115454Y5830D01*
X115482Y5835D01*
X115504Y5838D01*
X115524Y5841D01*
X115551D01*
X115604Y5838D01*
D02*
G37*
G36*
X128788Y4416D02*
X128056D01*
X127989Y4419D01*
X127931Y4422D01*
X127878Y4428D01*
X127833Y4433D01*
X127797Y4439D01*
X127770Y4441D01*
X127753Y4447D01*
X127747D01*
X127700Y4461D01*
X127661Y4475D01*
X127625Y4491D01*
X127595Y4508D01*
X127570Y4519D01*
X127550Y4530D01*
X127539Y4539D01*
X127536Y4541D01*
X127506Y4566D01*
X127478Y4597D01*
X127456Y4627D01*
X127434Y4655D01*
X127417Y4683D01*
X127406Y4702D01*
X127398Y4716D01*
X127395Y4722D01*
X127375Y4766D01*
X127361Y4811D01*
X127350Y4852D01*
X127345Y4891D01*
X127339Y4924D01*
X127336Y4952D01*
Y4969D01*
Y4972D01*
Y4974D01*
X127339Y5036D01*
X127350Y5091D01*
X127367Y5138D01*
X127384Y5183D01*
X127400Y5216D01*
X127417Y5241D01*
X127428Y5258D01*
X127431Y5263D01*
X127470Y5308D01*
X127511Y5344D01*
X127559Y5374D01*
X127600Y5399D01*
X127639Y5419D01*
X127672Y5430D01*
X127684Y5435D01*
X127692Y5438D01*
X127697Y5441D01*
X127700D01*
X127653Y5469D01*
X127611Y5496D01*
X127578Y5527D01*
X127550Y5555D01*
X127528Y5577D01*
X127511Y5599D01*
X127503Y5610D01*
X127500Y5616D01*
X127478Y5657D01*
X127461Y5696D01*
X127448Y5735D01*
X127439Y5771D01*
X127434Y5802D01*
X127431Y5827D01*
Y5841D01*
Y5846D01*
X127434Y5893D01*
X127442Y5941D01*
X127456Y5982D01*
X127470Y6021D01*
X127484Y6054D01*
X127498Y6077D01*
X127506Y6093D01*
X127509Y6099D01*
X127539Y6140D01*
X127572Y6179D01*
X127609Y6210D01*
X127642Y6235D01*
X127670Y6254D01*
X127695Y6268D01*
X127711Y6277D01*
X127714Y6279D01*
X127717D01*
X127770Y6299D01*
X127828Y6313D01*
X127886Y6324D01*
X127942Y6329D01*
X127992Y6335D01*
X128014D01*
X128033Y6338D01*
X128788D01*
Y4416D01*
D02*
G37*
G36*
X114147Y5838D02*
X114174Y5832D01*
X114202Y5824D01*
X114224Y5816D01*
X114241Y5807D01*
X114258Y5799D01*
X114266Y5793D01*
X114269Y5791D01*
X114294Y5768D01*
X114319Y5741D01*
X114344Y5707D01*
X114366Y5677D01*
X114388Y5646D01*
X114402Y5621D01*
X114413Y5602D01*
X114416Y5599D01*
Y5810D01*
X114630D01*
Y4416D01*
X114394D01*
Y5144D01*
X114391Y5199D01*
X114388Y5249D01*
X114383Y5296D01*
X114374Y5338D01*
X114366Y5371D01*
X114360Y5396D01*
X114358Y5413D01*
X114355Y5419D01*
X114344Y5449D01*
X114330Y5474D01*
X114316Y5496D01*
X114302Y5516D01*
X114288Y5530D01*
X114280Y5541D01*
X114272Y5546D01*
X114269Y5549D01*
X114247Y5566D01*
X114222Y5577D01*
X114197Y5585D01*
X114177Y5591D01*
X114158Y5594D01*
X114144Y5596D01*
X114130D01*
X114099Y5594D01*
X114069Y5588D01*
X114038Y5580D01*
X114013Y5571D01*
X113991Y5563D01*
X113975Y5555D01*
X113963Y5549D01*
X113961Y5546D01*
X113875Y5763D01*
X113922Y5788D01*
X113966Y5807D01*
X114005Y5821D01*
X114041Y5832D01*
X114072Y5838D01*
X114097Y5841D01*
X114116D01*
X114147Y5838D01*
D02*
G37*
G36*
X113739Y4416D02*
X113503D01*
Y6338D01*
X113739D01*
Y4416D01*
D02*
G37*
G36*
X126501Y5838D02*
X126545Y5835D01*
X126631Y5816D01*
X126706Y5791D01*
X126740Y5777D01*
X126770Y5763D01*
X126798Y5749D01*
X126820Y5735D01*
X126842Y5721D01*
X126859Y5710D01*
X126873Y5699D01*
X126884Y5691D01*
X126890Y5688D01*
X126892Y5685D01*
X126931Y5649D01*
X126962Y5607D01*
X126992Y5563D01*
X127014Y5519D01*
X127037Y5471D01*
X127053Y5421D01*
X127067Y5374D01*
X127078Y5330D01*
X127089Y5285D01*
X127095Y5247D01*
X127101Y5208D01*
X127103Y5177D01*
Y5149D01*
X127106Y5130D01*
Y5119D01*
Y5113D01*
X127103Y5049D01*
X127098Y4988D01*
X127089Y4933D01*
X127078Y4880D01*
X127064Y4833D01*
X127051Y4788D01*
X127034Y4747D01*
X127017Y4711D01*
X127001Y4677D01*
X126984Y4650D01*
X126970Y4627D01*
X126956Y4608D01*
X126945Y4591D01*
X126937Y4580D01*
X126931Y4575D01*
X126928Y4572D01*
X126892Y4539D01*
X126856Y4511D01*
X126817Y4486D01*
X126778Y4464D01*
X126740Y4447D01*
X126698Y4430D01*
X126623Y4408D01*
X126590Y4403D01*
X126556Y4397D01*
X126529Y4391D01*
X126504Y4389D01*
X126481Y4386D01*
X126454D01*
X126387Y4389D01*
X126326Y4400D01*
X126268Y4414D01*
X126220Y4428D01*
X126179Y4444D01*
X126162Y4450D01*
X126148Y4455D01*
X126134Y4461D01*
X126126Y4466D01*
X126123Y4469D01*
X126121D01*
X126065Y4505D01*
X126018Y4544D01*
X125976Y4583D01*
X125943Y4622D01*
X125918Y4655D01*
X125898Y4683D01*
X125893Y4694D01*
X125887Y4702D01*
X125885Y4705D01*
Y4708D01*
X125857Y4772D01*
X125837Y4841D01*
X125821Y4911D01*
X125812Y4980D01*
X125807Y5011D01*
Y5038D01*
X125804Y5066D01*
X125801Y5088D01*
Y5108D01*
Y5122D01*
Y5130D01*
Y5133D01*
X125804Y5194D01*
X125810Y5249D01*
X125818Y5302D01*
X125829Y5352D01*
X125843Y5399D01*
X125860Y5441D01*
X125876Y5483D01*
X125893Y5516D01*
X125910Y5546D01*
X125926Y5574D01*
X125943Y5599D01*
X125957Y5619D01*
X125968Y5632D01*
X125976Y5644D01*
X125982Y5649D01*
X125984Y5652D01*
X126021Y5685D01*
X126057Y5713D01*
X126096Y5741D01*
X126134Y5760D01*
X126173Y5780D01*
X126212Y5793D01*
X126287Y5818D01*
X126323Y5824D01*
X126354Y5830D01*
X126381Y5835D01*
X126406Y5838D01*
X126426Y5841D01*
X126454D01*
X126501Y5838D01*
D02*
G37*
G36*
X123514D02*
X123558Y5835D01*
X123644Y5816D01*
X123719Y5791D01*
X123752Y5777D01*
X123783Y5763D01*
X123811Y5749D01*
X123833Y5735D01*
X123855Y5721D01*
X123872Y5710D01*
X123886Y5699D01*
X123897Y5691D01*
X123902Y5688D01*
X123905Y5685D01*
X123944Y5649D01*
X123974Y5607D01*
X124005Y5563D01*
X124027Y5519D01*
X124049Y5471D01*
X124066Y5421D01*
X124080Y5374D01*
X124091Y5330D01*
X124102Y5285D01*
X124108Y5247D01*
X124113Y5208D01*
X124116Y5177D01*
Y5149D01*
X124119Y5130D01*
Y5119D01*
Y5113D01*
X124116Y5049D01*
X124111Y4988D01*
X124102Y4933D01*
X124091Y4880D01*
X124077Y4833D01*
X124063Y4788D01*
X124047Y4747D01*
X124030Y4711D01*
X124013Y4677D01*
X123997Y4650D01*
X123983Y4627D01*
X123969Y4608D01*
X123958Y4591D01*
X123950Y4580D01*
X123944Y4575D01*
X123941Y4572D01*
X123905Y4539D01*
X123869Y4511D01*
X123830Y4486D01*
X123791Y4464D01*
X123752Y4447D01*
X123711Y4430D01*
X123636Y4408D01*
X123602Y4403D01*
X123569Y4397D01*
X123541Y4391D01*
X123516Y4389D01*
X123494Y4386D01*
X123466D01*
X123400Y4389D01*
X123339Y4400D01*
X123280Y4414D01*
X123233Y4428D01*
X123192Y4444D01*
X123175Y4450D01*
X123161Y4455D01*
X123147Y4461D01*
X123139Y4466D01*
X123136Y4469D01*
X123133D01*
X123078Y4505D01*
X123031Y4544D01*
X122989Y4583D01*
X122956Y4622D01*
X122931Y4655D01*
X122911Y4683D01*
X122906Y4694D01*
X122900Y4702D01*
X122897Y4705D01*
Y4708D01*
X122870Y4772D01*
X122850Y4841D01*
X122833Y4911D01*
X122825Y4980D01*
X122820Y5011D01*
Y5038D01*
X122817Y5066D01*
X122814Y5088D01*
Y5108D01*
Y5122D01*
Y5130D01*
Y5133D01*
X122817Y5194D01*
X122822Y5249D01*
X122831Y5302D01*
X122842Y5352D01*
X122856Y5399D01*
X122872Y5441D01*
X122889Y5483D01*
X122906Y5516D01*
X122922Y5546D01*
X122939Y5574D01*
X122956Y5599D01*
X122969Y5619D01*
X122981Y5632D01*
X122989Y5644D01*
X122994Y5649D01*
X122997Y5652D01*
X123033Y5685D01*
X123069Y5713D01*
X123108Y5741D01*
X123147Y5760D01*
X123186Y5780D01*
X123225Y5793D01*
X123300Y5818D01*
X123336Y5824D01*
X123367Y5830D01*
X123394Y5835D01*
X123419Y5838D01*
X123439Y5841D01*
X123466D01*
X123514Y5838D01*
D02*
G37*
G36*
X118755Y6368D02*
X118825Y6360D01*
X118891Y6346D01*
X118955Y6329D01*
X119013Y6307D01*
X119069Y6285D01*
X119119Y6260D01*
X119163Y6235D01*
X119205Y6210D01*
X119241Y6185D01*
X119272Y6163D01*
X119297Y6140D01*
X119316Y6124D01*
X119333Y6110D01*
X119341Y6102D01*
X119344Y6099D01*
X119388Y6046D01*
X119427Y5991D01*
X119463Y5929D01*
X119491Y5868D01*
X119516Y5805D01*
X119538Y5743D01*
X119555Y5682D01*
X119566Y5624D01*
X119577Y5569D01*
X119585Y5516D01*
X119591Y5469D01*
X119596Y5430D01*
Y5396D01*
X119599Y5371D01*
Y5355D01*
Y5352D01*
Y5349D01*
X119594Y5255D01*
X119583Y5169D01*
X119566Y5085D01*
X119555Y5049D01*
X119544Y5013D01*
X119535Y4983D01*
X119524Y4955D01*
X119516Y4930D01*
X119508Y4908D01*
X119502Y4891D01*
X119496Y4880D01*
X119491Y4872D01*
Y4869D01*
X119444Y4788D01*
X119394Y4719D01*
X119338Y4658D01*
X119285Y4608D01*
X119238Y4566D01*
X119219Y4550D01*
X119202Y4539D01*
X119186Y4527D01*
X119174Y4519D01*
X119169Y4516D01*
X119166Y4514D01*
X119124Y4491D01*
X119083Y4472D01*
X118999Y4439D01*
X118919Y4416D01*
X118844Y4400D01*
X118808Y4394D01*
X118777Y4391D01*
X118750Y4386D01*
X118725D01*
X118708Y4383D01*
X118680D01*
X118589Y4389D01*
X118503Y4403D01*
X118422Y4419D01*
X118386Y4430D01*
X118353Y4441D01*
X118322Y4453D01*
X118294Y4464D01*
X118272Y4472D01*
X118253Y4480D01*
X118236Y4489D01*
X118222Y4494D01*
X118217Y4500D01*
X118214D01*
X118136Y4550D01*
X118069Y4605D01*
X118014Y4664D01*
X117967Y4719D01*
X117928Y4772D01*
X117914Y4791D01*
X117903Y4811D01*
X117892Y4827D01*
X117886Y4838D01*
X117881Y4847D01*
Y4850D01*
X117858Y4894D01*
X117842Y4938D01*
X117811Y5027D01*
X117789Y5116D01*
X117775Y5197D01*
X117772Y5233D01*
X117767Y5266D01*
X117764Y5296D01*
Y5321D01*
X117761Y5344D01*
Y5358D01*
Y5369D01*
Y5371D01*
X117767Y5477D01*
X117778Y5574D01*
X117786Y5619D01*
X117797Y5663D01*
X117809Y5702D01*
X117817Y5738D01*
X117828Y5771D01*
X117839Y5802D01*
X117847Y5827D01*
X117858Y5849D01*
X117864Y5866D01*
X117870Y5877D01*
X117875Y5885D01*
Y5888D01*
X117920Y5968D01*
X117972Y6041D01*
X118028Y6102D01*
X118078Y6152D01*
X118125Y6190D01*
X118147Y6207D01*
X118164Y6221D01*
X118181Y6229D01*
X118192Y6238D01*
X118197Y6240D01*
X118200Y6243D01*
X118242Y6265D01*
X118283Y6285D01*
X118364Y6318D01*
X118447Y6340D01*
X118519Y6354D01*
X118553Y6360D01*
X118586Y6365D01*
X118611Y6368D01*
X118636D01*
X118655Y6371D01*
X118680D01*
X118755Y6368D01*
D02*
G37*
G36*
X85973Y6365D02*
X86070Y6351D01*
X86114Y6343D01*
X86156Y6332D01*
X86195Y6324D01*
X86231Y6313D01*
X86264Y6301D01*
X86292Y6290D01*
X86317Y6279D01*
X86339Y6271D01*
X86356Y6263D01*
X86367Y6257D01*
X86375Y6254D01*
X86378Y6252D01*
X86417Y6227D01*
X86456Y6202D01*
X86522Y6143D01*
X86581Y6085D01*
X86628Y6024D01*
X86667Y5971D01*
X86680Y5949D01*
X86692Y5927D01*
X86703Y5910D01*
X86708Y5899D01*
X86711Y5891D01*
X86714Y5888D01*
X86753Y5796D01*
X86780Y5705D01*
X86803Y5616D01*
X86808Y5574D01*
X86816Y5535D01*
X86819Y5499D01*
X86825Y5469D01*
X86828Y5438D01*
Y5413D01*
X86830Y5394D01*
Y5380D01*
Y5369D01*
Y5366D01*
X86825Y5263D01*
X86811Y5166D01*
X86803Y5122D01*
X86794Y5080D01*
X86783Y5038D01*
X86772Y5002D01*
X86761Y4969D01*
X86750Y4941D01*
X86742Y4913D01*
X86733Y4894D01*
X86725Y4875D01*
X86719Y4863D01*
X86714Y4855D01*
Y4852D01*
X86664Y4772D01*
X86608Y4702D01*
X86550Y4641D01*
X86494Y4591D01*
X86442Y4552D01*
X86422Y4539D01*
X86403Y4525D01*
X86386Y4516D01*
X86375Y4508D01*
X86367Y4505D01*
X86364Y4503D01*
X86320Y4480D01*
X86275Y4464D01*
X86186Y4433D01*
X86100Y4414D01*
X86020Y4397D01*
X85984Y4394D01*
X85950Y4389D01*
X85920Y4386D01*
X85895D01*
X85875Y4383D01*
X85848D01*
X85770Y4386D01*
X85695Y4394D01*
X85625Y4408D01*
X85564Y4422D01*
X85539Y4428D01*
X85514Y4433D01*
X85492Y4441D01*
X85473Y4447D01*
X85459Y4453D01*
X85448Y4455D01*
X85442Y4458D01*
X85439D01*
X85365Y4489D01*
X85295Y4525D01*
X85228Y4564D01*
X85170Y4600D01*
X85145Y4616D01*
X85120Y4633D01*
X85101Y4647D01*
X85084Y4658D01*
X85070Y4669D01*
X85059Y4677D01*
X85054Y4680D01*
X85051Y4683D01*
Y5396D01*
X85867D01*
Y5169D01*
X85301D01*
Y4808D01*
X85334Y4780D01*
X85373Y4755D01*
X85414Y4733D01*
X85453Y4713D01*
X85487Y4697D01*
X85517Y4683D01*
X85528Y4677D01*
X85534Y4675D01*
X85539Y4672D01*
X85542D01*
X85601Y4652D01*
X85659Y4636D01*
X85712Y4625D01*
X85762Y4619D01*
X85803Y4614D01*
X85820D01*
X85836Y4611D01*
X85864D01*
X85934Y4614D01*
X86000Y4625D01*
X86061Y4639D01*
X86117Y4652D01*
X86161Y4669D01*
X86181Y4675D01*
X86195Y4680D01*
X86209Y4686D01*
X86217Y4691D01*
X86222Y4694D01*
X86225D01*
X86283Y4730D01*
X86336Y4769D01*
X86381Y4811D01*
X86417Y4852D01*
X86447Y4891D01*
X86467Y4922D01*
X86475Y4933D01*
X86478Y4941D01*
X86483Y4947D01*
Y4949D01*
X86511Y5019D01*
X86533Y5091D01*
X86547Y5163D01*
X86558Y5233D01*
X86561Y5263D01*
X86564Y5291D01*
X86567Y5319D01*
Y5341D01*
X86569Y5358D01*
Y5371D01*
Y5380D01*
Y5383D01*
X86567Y5460D01*
X86558Y5530D01*
X86547Y5596D01*
X86533Y5655D01*
X86528Y5680D01*
X86519Y5702D01*
X86514Y5721D01*
X86508Y5738D01*
X86503Y5752D01*
X86500Y5760D01*
X86497Y5766D01*
Y5768D01*
X86478Y5807D01*
X86458Y5843D01*
X86439Y5877D01*
X86419Y5904D01*
X86403Y5927D01*
X86389Y5946D01*
X86378Y5957D01*
X86375Y5960D01*
X86345Y5991D01*
X86311Y6018D01*
X86275Y6041D01*
X86242Y6063D01*
X86214Y6077D01*
X86192Y6090D01*
X86175Y6096D01*
X86170Y6099D01*
X86120Y6118D01*
X86070Y6132D01*
X86017Y6140D01*
X85970Y6149D01*
X85928Y6152D01*
X85911D01*
X85898Y6154D01*
X85867D01*
X85814Y6152D01*
X85764Y6146D01*
X85720Y6138D01*
X85681Y6129D01*
X85648Y6118D01*
X85623Y6110D01*
X85609Y6104D01*
X85603Y6102D01*
X85562Y6082D01*
X85526Y6060D01*
X85492Y6038D01*
X85467Y6016D01*
X85448Y5996D01*
X85431Y5982D01*
X85423Y5971D01*
X85420Y5968D01*
X85395Y5935D01*
X85376Y5896D01*
X85356Y5860D01*
X85340Y5821D01*
X85328Y5788D01*
X85320Y5763D01*
X85317Y5752D01*
X85315Y5743D01*
X85312Y5741D01*
Y5738D01*
X85081Y5799D01*
X85101Y5868D01*
X85126Y5929D01*
X85151Y5985D01*
X85173Y6029D01*
X85195Y6066D01*
X85212Y6090D01*
X85223Y6107D01*
X85228Y6113D01*
X85267Y6157D01*
X85309Y6193D01*
X85353Y6227D01*
X85395Y6254D01*
X85434Y6274D01*
X85464Y6290D01*
X85476Y6296D01*
X85484Y6299D01*
X85489Y6301D01*
X85492D01*
X85556Y6324D01*
X85623Y6340D01*
X85684Y6354D01*
X85742Y6363D01*
X85795Y6368D01*
X85817D01*
X85834Y6371D01*
X85923D01*
X85973Y6365D01*
D02*
G37*
G36*
X87474Y4416D02*
X87205D01*
Y4686D01*
X87474D01*
Y4416D01*
D02*
G37*
G36*
X84687D02*
X83954D01*
X83888Y4419D01*
X83829Y4422D01*
X83777Y4428D01*
X83732Y4433D01*
X83696Y4439D01*
X83668Y4441D01*
X83652Y4447D01*
X83646D01*
X83599Y4461D01*
X83560Y4475D01*
X83524Y4491D01*
X83493Y4508D01*
X83468Y4519D01*
X83449Y4530D01*
X83438Y4539D01*
X83435Y4541D01*
X83405Y4566D01*
X83377Y4597D01*
X83355Y4627D01*
X83332Y4655D01*
X83316Y4683D01*
X83305Y4702D01*
X83296Y4716D01*
X83293Y4722D01*
X83274Y4766D01*
X83260Y4811D01*
X83249Y4852D01*
X83243Y4891D01*
X83238Y4924D01*
X83235Y4952D01*
Y4969D01*
Y4972D01*
Y4974D01*
X83238Y5036D01*
X83249Y5091D01*
X83266Y5138D01*
X83282Y5183D01*
X83299Y5216D01*
X83316Y5241D01*
X83327Y5258D01*
X83330Y5263D01*
X83368Y5308D01*
X83410Y5344D01*
X83457Y5374D01*
X83499Y5399D01*
X83538Y5419D01*
X83571Y5430D01*
X83582Y5435D01*
X83591Y5438D01*
X83596Y5441D01*
X83599D01*
X83552Y5469D01*
X83510Y5496D01*
X83477Y5527D01*
X83449Y5555D01*
X83427Y5577D01*
X83410Y5599D01*
X83402Y5610D01*
X83399Y5616D01*
X83377Y5657D01*
X83360Y5696D01*
X83346Y5735D01*
X83338Y5771D01*
X83332Y5802D01*
X83330Y5827D01*
Y5841D01*
Y5846D01*
X83332Y5893D01*
X83341Y5941D01*
X83355Y5982D01*
X83368Y6021D01*
X83382Y6054D01*
X83396Y6077D01*
X83405Y6093D01*
X83407Y6099D01*
X83438Y6140D01*
X83471Y6179D01*
X83507Y6210D01*
X83541Y6235D01*
X83568Y6254D01*
X83593Y6268D01*
X83610Y6277D01*
X83613Y6279D01*
X83616D01*
X83668Y6299D01*
X83727Y6313D01*
X83785Y6324D01*
X83840Y6329D01*
X83890Y6335D01*
X83913D01*
X83932Y6338D01*
X84687D01*
Y4416D01*
D02*
G37*
G36*
X82119Y6368D02*
X82189Y6360D01*
X82255Y6346D01*
X82319Y6329D01*
X82377Y6307D01*
X82433Y6285D01*
X82483Y6260D01*
X82527Y6235D01*
X82569Y6210D01*
X82605Y6185D01*
X82635Y6163D01*
X82660Y6140D01*
X82680Y6124D01*
X82697Y6110D01*
X82705Y6102D01*
X82708Y6099D01*
X82752Y6046D01*
X82791Y5991D01*
X82827Y5929D01*
X82855Y5868D01*
X82880Y5805D01*
X82902Y5743D01*
X82919Y5682D01*
X82930Y5624D01*
X82941Y5569D01*
X82949Y5516D01*
X82955Y5469D01*
X82960Y5430D01*
Y5396D01*
X82963Y5371D01*
Y5355D01*
Y5352D01*
Y5349D01*
X82958Y5255D01*
X82946Y5169D01*
X82930Y5085D01*
X82919Y5049D01*
X82908Y5013D01*
X82899Y4983D01*
X82888Y4955D01*
X82880Y4930D01*
X82871Y4908D01*
X82866Y4891D01*
X82860Y4880D01*
X82855Y4872D01*
Y4869D01*
X82808Y4788D01*
X82758Y4719D01*
X82702Y4658D01*
X82649Y4608D01*
X82602Y4566D01*
X82583Y4550D01*
X82566Y4539D01*
X82549Y4527D01*
X82538Y4519D01*
X82533Y4516D01*
X82530Y4514D01*
X82488Y4491D01*
X82447Y4472D01*
X82363Y4439D01*
X82283Y4416D01*
X82208Y4400D01*
X82172Y4394D01*
X82141Y4391D01*
X82114Y4386D01*
X82089D01*
X82072Y4383D01*
X82044D01*
X81953Y4389D01*
X81866Y4403D01*
X81786Y4419D01*
X81750Y4430D01*
X81717Y4441D01*
X81686Y4453D01*
X81658Y4464D01*
X81636Y4472D01*
X81617Y4480D01*
X81600Y4489D01*
X81586Y4494D01*
X81581Y4500D01*
X81578D01*
X81500Y4550D01*
X81433Y4605D01*
X81378Y4664D01*
X81331Y4719D01*
X81292Y4772D01*
X81278Y4791D01*
X81267Y4811D01*
X81256Y4827D01*
X81250Y4838D01*
X81245Y4847D01*
Y4850D01*
X81222Y4894D01*
X81206Y4938D01*
X81175Y5027D01*
X81153Y5116D01*
X81139Y5197D01*
X81136Y5233D01*
X81131Y5266D01*
X81128Y5297D01*
Y5321D01*
X81125Y5344D01*
Y5358D01*
Y5369D01*
Y5371D01*
X81131Y5477D01*
X81142Y5574D01*
X81150Y5619D01*
X81161Y5663D01*
X81172Y5702D01*
X81181Y5738D01*
X81192Y5771D01*
X81203Y5802D01*
X81211Y5827D01*
X81222Y5849D01*
X81228Y5866D01*
X81234Y5877D01*
X81239Y5885D01*
Y5888D01*
X81283Y5968D01*
X81336Y6041D01*
X81392Y6102D01*
X81442Y6152D01*
X81489Y6190D01*
X81511Y6207D01*
X81528Y6221D01*
X81544Y6229D01*
X81556Y6238D01*
X81561Y6240D01*
X81564Y6243D01*
X81606Y6265D01*
X81647Y6285D01*
X81728Y6318D01*
X81811Y6340D01*
X81883Y6354D01*
X81916Y6360D01*
X81950Y6365D01*
X81975Y6368D01*
X82000D01*
X82019Y6371D01*
X82044D01*
X82119Y6368D01*
D02*
G37*
G36*
X18995Y12874D02*
X18856D01*
X18490Y13833D01*
X18625D01*
X18729Y13542D01*
X19131D01*
X19243Y13833D01*
X19388D01*
X18995Y12874D01*
D02*
G37*
G36*
X16386D02*
X16248D01*
X15882Y13833D01*
X16016D01*
X16120Y13542D01*
X16522D01*
X16635Y13833D01*
X16779D01*
X16386Y12874D01*
D02*
G37*
G36*
X13537Y13573D02*
X13517Y13545D01*
X13499Y13520D01*
X13481Y13499D01*
X13466Y13480D01*
X13452Y13466D01*
X13441Y13455D01*
X13434Y13448D01*
X13431Y13445D01*
X13420Y13437D01*
X13408Y13427D01*
X13383Y13412D01*
X13371Y13406D01*
X13363Y13401D01*
X13358Y13398D01*
X13355Y13396D01*
X13380Y13392D01*
X13403Y13388D01*
X13424Y13381D01*
X13445Y13376D01*
X13463Y13369D01*
X13480Y13360D01*
X13495Y13354D01*
X13509Y13347D01*
X13520Y13338D01*
X13531Y13331D01*
X13539Y13326D01*
X13546Y13320D01*
X13552Y13316D01*
X13556Y13312D01*
X13557Y13311D01*
X13559Y13309D01*
X13570Y13295D01*
X13581Y13281D01*
X13598Y13252D01*
X13609Y13223D01*
X13617Y13195D01*
X13623Y13172D01*
X13624Y13162D01*
Y13152D01*
X13625Y13145D01*
Y13140D01*
Y13137D01*
Y13136D01*
X13624Y13107D01*
X13620Y13080D01*
X13613Y13055D01*
X13606Y13035D01*
X13598Y13017D01*
X13592Y13003D01*
X13586Y12994D01*
X13585Y12993D01*
Y12992D01*
X13568Y12969D01*
X13552Y12950D01*
X13534Y12933D01*
X13517Y12921D01*
X13502Y12911D01*
X13489Y12906D01*
X13481Y12901D01*
X13480Y12900D01*
X13478D01*
X13466Y12896D01*
X13451Y12892D01*
X13420Y12885D01*
X13387Y12881D01*
X13356Y12876D01*
X13327Y12875D01*
X13315D01*
X13304Y12874D01*
X12858D01*
Y13833D01*
X12986D01*
Y13408D01*
X13150D01*
X13165Y13409D01*
X13176D01*
X13186Y13410D01*
X13193Y13412D01*
X13198D01*
X13201Y13413D01*
X13202D01*
X13224Y13420D01*
X13234Y13424D01*
X13243Y13428D01*
X13251Y13433D01*
X13256Y13435D01*
X13259Y13437D01*
X13261Y13438D01*
X13272Y13446D01*
X13283Y13456D01*
X13304Y13477D01*
X13313Y13487D01*
X13320Y13495D01*
X13324Y13501D01*
X13326Y13502D01*
X13340Y13521D01*
X13355Y13542D01*
X13370Y13564D01*
X13385Y13585D01*
X13398Y13605D01*
X13408Y13620D01*
X13412Y13625D01*
X13414Y13629D01*
X13417Y13632D01*
Y13634D01*
X13543Y13833D01*
X13702D01*
X13537Y13573D01*
D02*
G37*
G36*
X24864Y12874D02*
X24742D01*
Y13628D01*
X24239Y12874D01*
X24108D01*
Y13833D01*
X24230D01*
Y13080D01*
X24732Y13833D01*
X24864D01*
Y12874D01*
D02*
G37*
G36*
X22480D02*
X22358D01*
Y13628D01*
X21855Y12874D01*
X21724D01*
Y13833D01*
X21846D01*
Y13080D01*
X22348Y13833D01*
X22480D01*
Y12874D01*
D02*
G37*
G36*
X26221Y13427D02*
X26603Y12874D01*
X26455D01*
X26270Y13157D01*
X26248Y13191D01*
X26228Y13223D01*
X26209Y13252D01*
X26194Y13277D01*
X26182Y13298D01*
X26176Y13306D01*
X26172Y13313D01*
X26168Y13319D01*
X26165Y13323D01*
X26164Y13326D01*
Y13327D01*
X26147Y13297D01*
X26129Y13268D01*
X26112Y13240D01*
X26097Y13215D01*
X26085Y13194D01*
X26079Y13186D01*
X26074Y13179D01*
X26071Y13173D01*
X26068Y13169D01*
X26065Y13166D01*
Y13165D01*
X25877Y12874D01*
X25723D01*
X26093Y13427D01*
Y13833D01*
X26221D01*
Y13427D01*
D02*
G37*
G36*
X25673Y13720D02*
X25200Y13720D01*
Y12874D01*
X25072D01*
Y13833D01*
X25673Y13833D01*
Y13720D01*
D02*
G37*
G36*
X20458Y12874D02*
X20331D01*
Y13833D01*
X20458D01*
Y12874D01*
D02*
G37*
G36*
X19862Y12987D02*
X20178D01*
Y12874D01*
X19418D01*
Y12987D01*
X19734D01*
Y13833D01*
X19862D01*
Y12987D01*
D02*
G37*
G36*
X18058Y13847D02*
X18080Y13844D01*
X18101Y13842D01*
X18121Y13838D01*
X18139Y13833D01*
X18156Y13829D01*
X18171Y13824D01*
X18185Y13818D01*
X18196Y13814D01*
X18207Y13810D01*
X18216Y13806D01*
X18223Y13801D01*
X18227Y13800D01*
X18230Y13797D01*
X18231D01*
X18261Y13776D01*
X18286Y13753D01*
X18306Y13731D01*
X18323Y13709D01*
X18335Y13689D01*
X18343Y13674D01*
X18346Y13668D01*
X18349Y13664D01*
X18350Y13661D01*
Y13660D01*
X18356Y13643D01*
X18361Y13625D01*
X18370Y13588D01*
X18375Y13549D01*
X18379Y13512D01*
X18381Y13495D01*
X18382Y13478D01*
Y13464D01*
X18384Y13452D01*
Y13442D01*
Y13435D01*
Y13430D01*
Y13428D01*
Y12874D01*
X18256D01*
Y13428D01*
Y13460D01*
X18253Y13491D01*
X18250Y13517D01*
X18246Y13542D01*
X18242Y13564D01*
X18237Y13585D01*
X18232Y13603D01*
X18227Y13618D01*
X18221Y13631D01*
X18216Y13643D01*
X18210Y13652D01*
X18206Y13660D01*
X18202Y13666D01*
X18199Y13670D01*
X18198Y13671D01*
X18196Y13672D01*
X18184Y13684D01*
X18170Y13693D01*
X18139Y13709D01*
X18108Y13720D01*
X18074Y13727D01*
X18044Y13732D01*
X18031Y13733D01*
X18019D01*
X18010Y13735D01*
X17997D01*
X17967Y13733D01*
X17941Y13729D01*
X17916Y13725D01*
X17897Y13718D01*
X17880Y13713D01*
X17868Y13709D01*
X17861Y13704D01*
X17858Y13703D01*
X17838Y13691D01*
X17822Y13675D01*
X17808Y13660D01*
X17798Y13646D01*
X17790Y13632D01*
X17783Y13623D01*
X17780Y13616D01*
X17779Y13613D01*
X17775Y13600D01*
X17772Y13588D01*
X17766Y13559D01*
X17762Y13528D01*
X17759Y13498D01*
X17758Y13471D01*
Y13459D01*
X17757Y13449D01*
Y13441D01*
Y13434D01*
Y13430D01*
Y13428D01*
Y12874D01*
X17629D01*
Y13428D01*
Y13456D01*
X17630Y13482D01*
X17632Y13507D01*
X17635Y13531D01*
X17637Y13552D01*
X17640Y13571D01*
X17644Y13589D01*
X17647Y13606D01*
X17650Y13621D01*
X17654Y13634D01*
X17657Y13645D01*
X17660Y13653D01*
X17662Y13660D01*
X17664Y13666D01*
X17665Y13668D01*
Y13670D01*
X17680Y13700D01*
X17700Y13728D01*
X17719Y13750D01*
X17740Y13770D01*
X17758Y13785D01*
X17773Y13796D01*
X17779Y13799D01*
X17783Y13801D01*
X17786Y13804D01*
X17787D01*
X17822Y13819D01*
X17858Y13831D01*
X17895Y13839D01*
X17930Y13844D01*
X17945Y13846D01*
X17961Y13847D01*
X17974Y13849D01*
X17986D01*
X17995Y13850D01*
X18008D01*
X18058Y13847D01*
D02*
G37*
G36*
X17477Y13720D02*
X17004D01*
Y12874D01*
X16876D01*
Y13833D01*
X17477D01*
Y13720D01*
D02*
G37*
G36*
X15872Y12874D02*
X15743D01*
X15482Y13571D01*
X15471Y13600D01*
X15461Y13628D01*
X15453Y13654D01*
X15446Y13678D01*
X15439Y13699D01*
X15435Y13714D01*
X15434Y13720D01*
X15432Y13724D01*
X15431Y13727D01*
Y13728D01*
X15414Y13672D01*
X15406Y13646D01*
X15398Y13623D01*
X15391Y13602D01*
X15388Y13593D01*
X15387Y13585D01*
X15384Y13580D01*
X15382Y13575D01*
X15381Y13573D01*
Y13571D01*
X15131Y12874D01*
X14993D01*
X15364Y13833D01*
X15498D01*
X15872Y12874D01*
D02*
G37*
G36*
X14916Y13720D02*
X14327D01*
Y13394D01*
X14858D01*
Y13280D01*
X14327D01*
Y12987D01*
X14894D01*
Y12874D01*
X14199D01*
Y13833D01*
X14916D01*
Y13720D01*
D02*
G37*
G36*
X11128Y13398D02*
X11578D01*
Y13284D01*
X11128D01*
Y12987D01*
X11649D01*
Y12874D01*
X11000D01*
Y13833D01*
X11128D01*
Y13398D01*
D02*
G37*
G36*
X23533Y13847D02*
X23576Y13840D01*
X23616Y13832D01*
X23634Y13826D01*
X23651Y13821D01*
X23666Y13815D01*
X23680Y13810D01*
X23691Y13806D01*
X23701Y13801D01*
X23709Y13797D01*
X23716Y13795D01*
X23719Y13792D01*
X23720D01*
X23759Y13767D01*
X23792Y13739D01*
X23820Y13710D01*
X23844Y13682D01*
X23863Y13656D01*
X23870Y13646D01*
X23875Y13636D01*
X23881Y13628D01*
X23884Y13623D01*
X23887Y13618D01*
Y13617D01*
X23898Y13595D01*
X23906Y13573D01*
X23921Y13528D01*
X23932Y13484D01*
X23939Y13444D01*
X23941Y13426D01*
X23943Y13409D01*
X23945Y13394D01*
Y13381D01*
X23946Y13370D01*
Y13363D01*
Y13358D01*
Y13356D01*
X23943Y13304D01*
X23938Y13255D01*
X23934Y13233D01*
X23928Y13211D01*
X23923Y13191D01*
X23918Y13173D01*
X23913Y13157D01*
X23907Y13141D01*
X23903Y13129D01*
X23898Y13118D01*
X23895Y13109D01*
X23892Y13104D01*
X23889Y13100D01*
Y13098D01*
X23867Y13058D01*
X23841Y13022D01*
X23813Y12992D01*
X23788Y12967D01*
X23764Y12947D01*
X23753Y12939D01*
X23745Y12932D01*
X23737Y12928D01*
X23731Y12924D01*
X23728Y12922D01*
X23727Y12921D01*
X23706Y12910D01*
X23685Y12900D01*
X23645Y12883D01*
X23604Y12872D01*
X23568Y12865D01*
X23551Y12863D01*
X23534Y12860D01*
X23522Y12858D01*
X23509D01*
X23500Y12857D01*
X23487D01*
X23450Y12858D01*
X23415Y12863D01*
X23382Y12870D01*
X23350Y12878D01*
X23321Y12889D01*
X23293Y12900D01*
X23268Y12912D01*
X23246Y12925D01*
X23225Y12937D01*
X23207Y12950D01*
X23192Y12961D01*
X23179Y12972D01*
X23170Y12980D01*
X23161Y12987D01*
X23157Y12992D01*
X23156Y12993D01*
X23133Y13019D01*
X23114Y13047D01*
X23096Y13078D01*
X23082Y13108D01*
X23070Y13140D01*
X23059Y13170D01*
X23050Y13201D01*
X23045Y13230D01*
X23039Y13258D01*
X23035Y13284D01*
X23032Y13308D01*
X23029Y13327D01*
Y13344D01*
X23028Y13356D01*
Y13365D01*
Y13366D01*
Y13367D01*
X23031Y13415D01*
X23036Y13458D01*
X23045Y13499D01*
X23050Y13517D01*
X23056Y13535D01*
X23060Y13550D01*
X23066Y13564D01*
X23070Y13577D01*
X23074Y13588D01*
X23077Y13596D01*
X23079Y13602D01*
X23082Y13606D01*
Y13607D01*
X23106Y13648D01*
X23131Y13682D01*
X23158Y13713D01*
X23185Y13738D01*
X23208Y13758D01*
X23218Y13767D01*
X23226Y13772D01*
X23235Y13778D01*
X23240Y13782D01*
X23243Y13783D01*
X23244Y13785D01*
X23265Y13796D01*
X23286Y13806D01*
X23328Y13822D01*
X23368Y13833D01*
X23405Y13842D01*
X23423Y13844D01*
X23439Y13846D01*
X23452Y13849D01*
X23465D01*
X23473Y13850D01*
X23487D01*
X23533Y13847D01*
D02*
G37*
G36*
X21149D02*
X21192Y13840D01*
X21232Y13832D01*
X21250Y13826D01*
X21267Y13821D01*
X21282Y13815D01*
X21296Y13810D01*
X21307Y13806D01*
X21317Y13801D01*
X21325Y13797D01*
X21332Y13795D01*
X21335Y13792D01*
X21336D01*
X21375Y13767D01*
X21408Y13739D01*
X21436Y13710D01*
X21460Y13682D01*
X21479Y13656D01*
X21486Y13646D01*
X21491Y13636D01*
X21497Y13628D01*
X21500Y13623D01*
X21503Y13618D01*
Y13617D01*
X21514Y13595D01*
X21522Y13573D01*
X21537Y13528D01*
X21548Y13484D01*
X21555Y13444D01*
X21557Y13426D01*
X21559Y13409D01*
X21561Y13394D01*
Y13381D01*
X21562Y13370D01*
Y13363D01*
Y13358D01*
Y13356D01*
X21559Y13304D01*
X21554Y13255D01*
X21550Y13233D01*
X21544Y13211D01*
X21539Y13191D01*
X21534Y13173D01*
X21529Y13157D01*
X21523Y13141D01*
X21519Y13129D01*
X21514Y13118D01*
X21511Y13109D01*
X21508Y13104D01*
X21505Y13100D01*
Y13098D01*
X21483Y13058D01*
X21457Y13022D01*
X21429Y12992D01*
X21404Y12967D01*
X21380Y12947D01*
X21369Y12939D01*
X21361Y12932D01*
X21353Y12928D01*
X21347Y12924D01*
X21344Y12922D01*
X21343Y12921D01*
X21322Y12910D01*
X21301Y12900D01*
X21261Y12883D01*
X21220Y12872D01*
X21184Y12865D01*
X21167Y12863D01*
X21150Y12860D01*
X21138Y12858D01*
X21125D01*
X21116Y12857D01*
X21103D01*
X21066Y12858D01*
X21031Y12863D01*
X20998Y12870D01*
X20966Y12878D01*
X20937Y12889D01*
X20909Y12900D01*
X20884Y12912D01*
X20862Y12925D01*
X20841Y12937D01*
X20823Y12950D01*
X20808Y12961D01*
X20795Y12972D01*
X20786Y12980D01*
X20777Y12987D01*
X20773Y12992D01*
X20772Y12993D01*
X20749Y13019D01*
X20730Y13047D01*
X20712Y13078D01*
X20698Y13108D01*
X20686Y13140D01*
X20675Y13170D01*
X20666Y13201D01*
X20661Y13230D01*
X20655Y13258D01*
X20651Y13284D01*
X20648Y13308D01*
X20645Y13327D01*
Y13344D01*
X20644Y13356D01*
Y13365D01*
Y13366D01*
Y13367D01*
X20647Y13415D01*
X20652Y13458D01*
X20661Y13499D01*
X20666Y13517D01*
X20672Y13535D01*
X20676Y13550D01*
X20682Y13564D01*
X20686Y13577D01*
X20690Y13588D01*
X20693Y13596D01*
X20695Y13602D01*
X20698Y13606D01*
Y13607D01*
X20722Y13648D01*
X20747Y13682D01*
X20774Y13713D01*
X20801Y13738D01*
X20824Y13758D01*
X20834Y13767D01*
X20842Y13772D01*
X20851Y13778D01*
X20856Y13782D01*
X20859Y13783D01*
X20860Y13785D01*
X20881Y13796D01*
X20902Y13806D01*
X20944Y13822D01*
X20984Y13833D01*
X21021Y13842D01*
X21039Y13844D01*
X21055Y13846D01*
X21068Y13849D01*
X21081D01*
X21089Y13850D01*
X21103D01*
X21149Y13847D01*
D02*
G37*
G36*
X12280D02*
X12323Y13840D01*
X12363Y13832D01*
X12381Y13826D01*
X12398Y13821D01*
X12413Y13815D01*
X12427Y13810D01*
X12438Y13806D01*
X12448Y13801D01*
X12456Y13797D01*
X12463Y13795D01*
X12466Y13792D01*
X12467D01*
X12506Y13767D01*
X12539Y13739D01*
X12567Y13710D01*
X12591Y13682D01*
X12610Y13656D01*
X12617Y13646D01*
X12623Y13636D01*
X12628Y13628D01*
X12631Y13623D01*
X12634Y13618D01*
Y13617D01*
X12645Y13595D01*
X12653Y13573D01*
X12668Y13528D01*
X12679Y13484D01*
X12686Y13444D01*
X12688Y13426D01*
X12691Y13409D01*
X12692Y13394D01*
Y13381D01*
X12693Y13370D01*
Y13363D01*
Y13358D01*
Y13356D01*
X12691Y13304D01*
X12685Y13255D01*
X12681Y13233D01*
X12675Y13211D01*
X12670Y13191D01*
X12666Y13173D01*
X12660Y13157D01*
X12654Y13141D01*
X12650Y13129D01*
X12645Y13118D01*
X12642Y13109D01*
X12639Y13104D01*
X12636Y13100D01*
Y13098D01*
X12614Y13058D01*
X12588Y13022D01*
X12560Y12992D01*
X12535Y12967D01*
X12512Y12947D01*
X12501Y12939D01*
X12492Y12932D01*
X12484Y12928D01*
X12478Y12924D01*
X12476Y12922D01*
X12474Y12921D01*
X12453Y12910D01*
X12433Y12900D01*
X12392Y12883D01*
X12351Y12872D01*
X12315Y12865D01*
X12298Y12863D01*
X12281Y12860D01*
X12269Y12858D01*
X12256D01*
X12247Y12857D01*
X12234D01*
X12197Y12858D01*
X12162Y12863D01*
X12129Y12870D01*
X12097Y12878D01*
X12068Y12889D01*
X12040Y12900D01*
X12015Y12912D01*
X11993Y12925D01*
X11972Y12937D01*
X11954Y12950D01*
X11939Y12961D01*
X11926Y12972D01*
X11917Y12980D01*
X11908Y12987D01*
X11904Y12992D01*
X11903Y12993D01*
X11881Y13019D01*
X11861Y13047D01*
X11843Y13078D01*
X11829Y13108D01*
X11817Y13140D01*
X11806Y13170D01*
X11797Y13201D01*
X11792Y13230D01*
X11786Y13258D01*
X11782Y13284D01*
X11779Y13308D01*
X11777Y13327D01*
Y13344D01*
X11775Y13356D01*
Y13365D01*
Y13366D01*
Y13367D01*
X11778Y13415D01*
X11784Y13458D01*
X11792Y13499D01*
X11797Y13517D01*
X11803Y13535D01*
X11807Y13550D01*
X11813Y13564D01*
X11817Y13577D01*
X11821Y13588D01*
X11824Y13596D01*
X11827Y13602D01*
X11829Y13606D01*
Y13607D01*
X11853Y13648D01*
X11878Y13682D01*
X11906Y13713D01*
X11932Y13738D01*
X11956Y13758D01*
X11965Y13767D01*
X11974Y13772D01*
X11982Y13778D01*
X11987Y13782D01*
X11990Y13783D01*
X11992Y13785D01*
X12012Y13796D01*
X12033Y13806D01*
X12075Y13822D01*
X12115Y13833D01*
X12152Y13842D01*
X12170Y13844D01*
X12186Y13846D01*
X12200Y13849D01*
X12212D01*
X12220Y13850D01*
X12234D01*
X12280Y13847D01*
D02*
G37*
G36*
X27968Y15424D02*
X27830D01*
X27463Y16383D01*
X27598D01*
X27702Y16092D01*
X28104D01*
X28217Y16383D01*
X28361D01*
X27968Y15424D01*
D02*
G37*
G36*
X14183Y15424D02*
X14044D01*
X13678Y16383D01*
X13813D01*
X13917Y16092D01*
X14319D01*
X14431Y16383D01*
X14576D01*
X14183Y15424D01*
D02*
G37*
G36*
X12884Y16399D02*
X12910Y16396D01*
X12935Y16393D01*
X12959Y16388D01*
X12981Y16381D01*
X13002Y16374D01*
X13021Y16367D01*
X13039Y16358D01*
X13054Y16351D01*
X13069Y16345D01*
X13081Y16338D01*
X13092Y16331D01*
X13099Y16325D01*
X13106Y16322D01*
X13108Y16320D01*
X13110Y16318D01*
X13129Y16302D01*
X13146Y16285D01*
X13161Y16265D01*
X13176Y16246D01*
X13201Y16207D01*
X13221Y16168D01*
X13229Y16150D01*
X13236Y16134D01*
X13241Y16118D01*
X13246Y16106D01*
X13250Y16095D01*
X13253Y16087D01*
X13254Y16081D01*
Y16080D01*
X13126Y16048D01*
X13121Y16070D01*
X13114Y16091D01*
X13107Y16110D01*
X13100Y16128D01*
X13092Y16145D01*
X13083Y16159D01*
X13074Y16173D01*
X13065Y16185D01*
X13058Y16196D01*
X13050Y16204D01*
X13043Y16213D01*
X13038Y16220D01*
X13032Y16224D01*
X13028Y16228D01*
X13026Y16229D01*
X13025Y16231D01*
X13011Y16242D01*
X12996Y16250D01*
X12965Y16265D01*
X12936Y16277D01*
X12907Y16284D01*
X12882Y16289D01*
X12873Y16290D01*
X12863D01*
X12855Y16292D01*
X12845D01*
X12813Y16290D01*
X12782Y16285D01*
X12755Y16278D01*
X12730Y16270D01*
X12710Y16261D01*
X12702Y16257D01*
X12695Y16254D01*
X12689Y16252D01*
X12685Y16249D01*
X12683Y16247D01*
X12681D01*
X12655Y16228D01*
X12633Y16207D01*
X12613Y16184D01*
X12598Y16161D01*
X12585Y16142D01*
X12577Y16125D01*
X12574Y16118D01*
X12572Y16114D01*
X12570Y16112D01*
Y16110D01*
X12559Y16074D01*
X12551Y16038D01*
X12544Y16002D01*
X12540Y15969D01*
X12538Y15953D01*
X12537Y15940D01*
Y15927D01*
X12536Y15917D01*
Y15909D01*
Y15902D01*
Y15898D01*
Y15897D01*
X12537Y15861D01*
X12540Y15827D01*
X12545Y15797D01*
X12551Y15769D01*
X12555Y15745D01*
X12558Y15736D01*
X12561Y15727D01*
X12562Y15720D01*
X12563Y15716D01*
X12565Y15714D01*
Y15712D01*
X12579Y15680D01*
X12594Y15651D01*
X12610Y15628D01*
X12628Y15607D01*
X12644Y15590D01*
X12656Y15579D01*
X12666Y15572D01*
X12667Y15569D01*
X12669D01*
X12698Y15551D01*
X12730Y15537D01*
X12760Y15528D01*
X12789Y15522D01*
X12816Y15518D01*
X12827Y15517D01*
X12836D01*
X12843Y15515D01*
X12855D01*
X12889Y15517D01*
X12921Y15522D01*
X12947Y15530D01*
X12971Y15539D01*
X12989Y15548D01*
X13003Y15555D01*
X13011Y15561D01*
X13014Y15564D01*
X13036Y15585D01*
X13057Y15608D01*
X13074Y15633D01*
X13087Y15658D01*
X13099Y15680D01*
X13103Y15691D01*
X13106Y15700D01*
X13108Y15707D01*
X13111Y15712D01*
X13112Y15715D01*
Y15716D01*
X13237Y15687D01*
X13229Y15662D01*
X13221Y15640D01*
X13210Y15619D01*
X13200Y15598D01*
X13189Y15580D01*
X13176Y15564D01*
X13165Y15547D01*
X13154Y15533D01*
X13143Y15522D01*
X13133Y15511D01*
X13124Y15501D01*
X13117Y15494D01*
X13110Y15487D01*
X13104Y15483D01*
X13101Y15482D01*
X13100Y15481D01*
X13081Y15468D01*
X13061Y15456D01*
X13042Y15446D01*
X13021Y15438D01*
X12979Y15425D01*
X12942Y15417D01*
X12924Y15413D01*
X12909Y15411D01*
X12893Y15410D01*
X12881Y15408D01*
X12871Y15407D01*
X12857D01*
X12812Y15410D01*
X12767Y15417D01*
X12728Y15425D01*
X12710Y15431D01*
X12694Y15436D01*
X12678Y15442D01*
X12665Y15447D01*
X12653Y15451D01*
X12642Y15456D01*
X12635Y15460D01*
X12630Y15462D01*
X12626Y15464D01*
X12624Y15465D01*
X12587Y15489D01*
X12555Y15517D01*
X12527Y15544D01*
X12504Y15572D01*
X12486Y15597D01*
X12479Y15608D01*
X12473Y15618D01*
X12468Y15625D01*
X12465Y15630D01*
X12463Y15634D01*
X12462Y15636D01*
X12443Y15679D01*
X12429Y15723D01*
X12419Y15768D01*
X12412Y15808D01*
X12409Y15826D01*
X12408Y15844D01*
X12407Y15858D01*
Y15872D01*
X12405Y15881D01*
Y15890D01*
Y15895D01*
Y15897D01*
X12408Y15946D01*
X12413Y15995D01*
X12420Y16038D01*
X12426Y16059D01*
X12430Y16077D01*
X12434Y16094D01*
X12440Y16109D01*
X12444Y16123D01*
X12447Y16134D01*
X12451Y16142D01*
X12452Y16149D01*
X12455Y16153D01*
Y16155D01*
X12476Y16196D01*
X12499Y16234D01*
X12524Y16265D01*
X12537Y16278D01*
X12548Y16290D01*
X12559Y16302D01*
X12570Y16311D01*
X12580Y16320D01*
X12588Y16325D01*
X12594Y16331D01*
X12599Y16335D01*
X12602Y16336D01*
X12603Y16338D01*
X12623Y16349D01*
X12642Y16358D01*
X12684Y16374D01*
X12726Y16385D01*
X12766Y16392D01*
X12785Y16394D01*
X12802Y16397D01*
X12817Y16399D01*
X12830D01*
X12841Y16400D01*
X12856D01*
X12884Y16399D01*
D02*
G37*
G36*
X11916D02*
X11942Y16396D01*
X11967Y16393D01*
X11991Y16388D01*
X12013Y16381D01*
X12033Y16374D01*
X12053Y16367D01*
X12071Y16358D01*
X12086Y16351D01*
X12101Y16345D01*
X12113Y16338D01*
X12124Y16331D01*
X12131Y16325D01*
X12138Y16322D01*
X12140Y16320D01*
X12142Y16318D01*
X12161Y16302D01*
X12178Y16285D01*
X12193Y16265D01*
X12208Y16246D01*
X12233Y16207D01*
X12253Y16168D01*
X12261Y16150D01*
X12268Y16134D01*
X12273Y16118D01*
X12278Y16106D01*
X12282Y16095D01*
X12285Y16087D01*
X12286Y16081D01*
Y16080D01*
X12158Y16048D01*
X12153Y16070D01*
X12146Y16091D01*
X12139Y16110D01*
X12132Y16128D01*
X12124Y16145D01*
X12115Y16159D01*
X12106Y16173D01*
X12097Y16185D01*
X12090Y16196D01*
X12082Y16204D01*
X12075Y16213D01*
X12070Y16220D01*
X12064Y16224D01*
X12060Y16228D01*
X12058Y16229D01*
X12057Y16231D01*
X12043Y16242D01*
X12028Y16250D01*
X11997Y16265D01*
X11968Y16277D01*
X11939Y16284D01*
X11914Y16289D01*
X11905Y16290D01*
X11895D01*
X11886Y16292D01*
X11877D01*
X11845Y16290D01*
X11814Y16285D01*
X11787Y16278D01*
X11762Y16270D01*
X11742Y16261D01*
X11734Y16257D01*
X11727Y16254D01*
X11721Y16252D01*
X11717Y16249D01*
X11715Y16247D01*
X11713D01*
X11687Y16228D01*
X11665Y16207D01*
X11645Y16184D01*
X11630Y16161D01*
X11617Y16142D01*
X11609Y16125D01*
X11606Y16118D01*
X11604Y16114D01*
X11602Y16112D01*
Y16110D01*
X11591Y16074D01*
X11583Y16038D01*
X11576Y16002D01*
X11572Y15969D01*
X11570Y15953D01*
X11569Y15940D01*
Y15927D01*
X11568Y15917D01*
Y15909D01*
Y15902D01*
Y15898D01*
Y15897D01*
X11569Y15861D01*
X11572Y15827D01*
X11577Y15797D01*
X11583Y15769D01*
X11587Y15745D01*
X11590Y15736D01*
X11592Y15727D01*
X11594Y15720D01*
X11595Y15716D01*
X11597Y15714D01*
Y15712D01*
X11611Y15680D01*
X11626Y15651D01*
X11642Y15628D01*
X11660Y15607D01*
X11676Y15590D01*
X11688Y15579D01*
X11698Y15572D01*
X11699Y15569D01*
X11701D01*
X11730Y15551D01*
X11762Y15537D01*
X11792Y15528D01*
X11821Y15522D01*
X11848Y15518D01*
X11859Y15517D01*
X11868D01*
X11875Y15515D01*
X11886D01*
X11921Y15517D01*
X11953Y15522D01*
X11979Y15530D01*
X12003Y15539D01*
X12021Y15548D01*
X12035Y15555D01*
X12043Y15561D01*
X12046Y15564D01*
X12068Y15585D01*
X12089Y15608D01*
X12106Y15633D01*
X12119Y15658D01*
X12131Y15680D01*
X12135Y15691D01*
X12138Y15700D01*
X12140Y15707D01*
X12143Y15712D01*
X12144Y15715D01*
Y15716D01*
X12269Y15687D01*
X12261Y15662D01*
X12253Y15640D01*
X12242Y15619D01*
X12232Y15598D01*
X12221Y15580D01*
X12208Y15564D01*
X12197Y15547D01*
X12186Y15533D01*
X12175Y15522D01*
X12165Y15511D01*
X12156Y15501D01*
X12149Y15494D01*
X12142Y15487D01*
X12136Y15483D01*
X12133Y15482D01*
X12132Y15481D01*
X12113Y15468D01*
X12093Y15456D01*
X12074Y15446D01*
X12053Y15438D01*
X12011Y15425D01*
X11974Y15417D01*
X11956Y15413D01*
X11941Y15411D01*
X11925Y15410D01*
X11913Y15408D01*
X11903Y15407D01*
X11889D01*
X11844Y15410D01*
X11799Y15417D01*
X11760Y15425D01*
X11742Y15431D01*
X11726Y15436D01*
X11710Y15442D01*
X11696Y15447D01*
X11685Y15451D01*
X11674Y15456D01*
X11667Y15460D01*
X11662Y15462D01*
X11658Y15464D01*
X11656Y15465D01*
X11619Y15489D01*
X11587Y15517D01*
X11559Y15544D01*
X11536Y15572D01*
X11518Y15597D01*
X11511Y15608D01*
X11505Y15618D01*
X11500Y15625D01*
X11497Y15630D01*
X11495Y15634D01*
X11494Y15636D01*
X11475Y15679D01*
X11461Y15723D01*
X11451Y15768D01*
X11444Y15808D01*
X11441Y15826D01*
X11440Y15844D01*
X11439Y15858D01*
Y15872D01*
X11437Y15881D01*
Y15890D01*
Y15895D01*
Y15897D01*
X11440Y15946D01*
X11445Y15995D01*
X11452Y16038D01*
X11458Y16059D01*
X11462Y16077D01*
X11466Y16094D01*
X11472Y16109D01*
X11476Y16123D01*
X11479Y16134D01*
X11483Y16142D01*
X11484Y16149D01*
X11487Y16153D01*
Y16155D01*
X11508Y16196D01*
X11531Y16234D01*
X11556Y16265D01*
X11569Y16278D01*
X11580Y16290D01*
X11591Y16302D01*
X11602Y16311D01*
X11612Y16320D01*
X11620Y16325D01*
X11626Y16331D01*
X11631Y16335D01*
X11634Y16336D01*
X11635Y16338D01*
X11655Y16349D01*
X11674Y16358D01*
X11716Y16374D01*
X11758Y16385D01*
X11798Y16392D01*
X11817Y16394D01*
X11834Y16397D01*
X11849Y16399D01*
X11862D01*
X11873Y16400D01*
X11888D01*
X11916Y16399D01*
D02*
G37*
G36*
X25491Y16123D02*
X25472Y16095D01*
X25454Y16070D01*
X25436Y16049D01*
X25421Y16030D01*
X25407Y16016D01*
X25396Y16005D01*
X25389Y15998D01*
X25386Y15995D01*
X25375Y15987D01*
X25362Y15977D01*
X25337Y15962D01*
X25326Y15956D01*
X25318Y15951D01*
X25312Y15948D01*
X25310Y15947D01*
X25335Y15942D01*
X25358Y15938D01*
X25379Y15931D01*
X25400Y15926D01*
X25418Y15919D01*
X25435Y15910D01*
X25450Y15904D01*
X25464Y15897D01*
X25475Y15888D01*
X25486Y15881D01*
X25494Y15876D01*
X25501Y15870D01*
X25507Y15866D01*
X25511Y15862D01*
X25512Y15861D01*
X25514Y15859D01*
X25525Y15845D01*
X25536Y15831D01*
X25552Y15802D01*
X25564Y15773D01*
X25572Y15745D01*
X25577Y15722D01*
X25579Y15712D01*
Y15702D01*
X25580Y15695D01*
Y15690D01*
Y15687D01*
Y15686D01*
X25579Y15657D01*
X25575Y15630D01*
X25568Y15605D01*
X25561Y15585D01*
X25552Y15567D01*
X25547Y15553D01*
X25541Y15544D01*
X25540Y15543D01*
Y15542D01*
X25523Y15519D01*
X25507Y15500D01*
X25489Y15483D01*
X25472Y15471D01*
X25457Y15461D01*
X25444Y15456D01*
X25436Y15451D01*
X25435Y15450D01*
X25433D01*
X25421Y15446D01*
X25405Y15442D01*
X25375Y15435D01*
X25342Y15431D01*
X25311Y15426D01*
X25282Y15425D01*
X25270D01*
X25258Y15424D01*
X24813D01*
Y16383D01*
X24941D01*
Y15958D01*
X25104D01*
X25120Y15959D01*
X25131D01*
X25141Y15960D01*
X25147Y15962D01*
X25153D01*
X25156Y15963D01*
X25157D01*
X25179Y15970D01*
X25189Y15974D01*
X25197Y15978D01*
X25206Y15983D01*
X25211Y15985D01*
X25214Y15987D01*
X25215Y15988D01*
X25227Y15996D01*
X25238Y16006D01*
X25258Y16027D01*
X25268Y16037D01*
X25275Y16045D01*
X25279Y16051D01*
X25281Y16052D01*
X25294Y16071D01*
X25310Y16092D01*
X25325Y16114D01*
X25340Y16135D01*
X25353Y16155D01*
X25362Y16170D01*
X25367Y16175D01*
X25369Y16180D01*
X25372Y16182D01*
Y16184D01*
X25498Y16383D01*
X25656D01*
X25491Y16123D01*
D02*
G37*
G36*
X24150D02*
X24131Y16095D01*
X24113Y16070D01*
X24095Y16049D01*
X24080Y16030D01*
X24066Y16016D01*
X24055Y16005D01*
X24048Y15998D01*
X24045Y15995D01*
X24034Y15987D01*
X24021Y15977D01*
X23996Y15962D01*
X23985Y15956D01*
X23977Y15951D01*
X23971Y15948D01*
X23969Y15947D01*
X23994Y15942D01*
X24017Y15938D01*
X24038Y15931D01*
X24059Y15926D01*
X24077Y15919D01*
X24093Y15910D01*
X24109Y15904D01*
X24123Y15897D01*
X24134Y15888D01*
X24145Y15881D01*
X24153Y15876D01*
X24160Y15870D01*
X24166Y15866D01*
X24170Y15862D01*
X24171Y15861D01*
X24173Y15859D01*
X24184Y15845D01*
X24195Y15831D01*
X24211Y15802D01*
X24222Y15773D01*
X24231Y15745D01*
X24236Y15722D01*
X24238Y15712D01*
Y15702D01*
X24239Y15695D01*
Y15690D01*
Y15687D01*
Y15686D01*
X24238Y15657D01*
X24234Y15630D01*
X24227Y15605D01*
X24220Y15585D01*
X24211Y15567D01*
X24206Y15553D01*
X24200Y15544D01*
X24199Y15543D01*
Y15542D01*
X24182Y15519D01*
X24166Y15500D01*
X24148Y15483D01*
X24131Y15471D01*
X24116Y15461D01*
X24103Y15456D01*
X24095Y15451D01*
X24093Y15450D01*
X24092D01*
X24080Y15446D01*
X24064Y15442D01*
X24034Y15435D01*
X24001Y15431D01*
X23970Y15426D01*
X23941Y15425D01*
X23928D01*
X23917Y15424D01*
X23472D01*
Y16383D01*
X23600D01*
Y15958D01*
X23763D01*
X23779Y15959D01*
X23790D01*
X23799Y15960D01*
X23806Y15962D01*
X23812D01*
X23815Y15963D01*
X23816D01*
X23838Y15970D01*
X23848Y15974D01*
X23856Y15978D01*
X23865Y15983D01*
X23870Y15985D01*
X23873Y15987D01*
X23874Y15988D01*
X23885Y15996D01*
X23897Y16006D01*
X23917Y16027D01*
X23927Y16037D01*
X23934Y16045D01*
X23938Y16051D01*
X23940Y16052D01*
X23953Y16071D01*
X23969Y16092D01*
X23984Y16114D01*
X23999Y16135D01*
X24012Y16155D01*
X24021Y16170D01*
X24025Y16175D01*
X24028Y16180D01*
X24031Y16182D01*
Y16184D01*
X24157Y16383D01*
X24315D01*
X24150Y16123D01*
D02*
G37*
G36*
X17147Y16123D02*
X17127Y16095D01*
X17109Y16070D01*
X17091Y16049D01*
X17076Y16030D01*
X17062Y16016D01*
X17051Y16005D01*
X17044Y15998D01*
X17041Y15995D01*
X17030Y15987D01*
X17018Y15977D01*
X16993Y15962D01*
X16982Y15956D01*
X16973Y15951D01*
X16968Y15948D01*
X16965Y15946D01*
X16990Y15942D01*
X17014Y15938D01*
X17034Y15931D01*
X17055Y15926D01*
X17073Y15919D01*
X17090Y15910D01*
X17105Y15904D01*
X17119Y15897D01*
X17130Y15888D01*
X17141Y15881D01*
X17150Y15876D01*
X17156Y15870D01*
X17162Y15866D01*
X17166Y15862D01*
X17168Y15861D01*
X17169Y15859D01*
X17180Y15845D01*
X17191Y15831D01*
X17208Y15802D01*
X17219Y15773D01*
X17227Y15745D01*
X17233Y15722D01*
X17234Y15712D01*
Y15702D01*
X17236Y15695D01*
Y15690D01*
Y15687D01*
Y15686D01*
X17234Y15657D01*
X17230Y15630D01*
X17223Y15605D01*
X17216Y15585D01*
X17208Y15567D01*
X17202Y15553D01*
X17197Y15544D01*
X17195Y15543D01*
Y15542D01*
X17179Y15519D01*
X17162Y15500D01*
X17144Y15483D01*
X17127Y15471D01*
X17112Y15461D01*
X17100Y15456D01*
X17091Y15451D01*
X17090Y15450D01*
X17089D01*
X17076Y15446D01*
X17061Y15442D01*
X17030Y15435D01*
X16997Y15431D01*
X16966Y15426D01*
X16937Y15425D01*
X16925D01*
X16914Y15424D01*
X16469D01*
Y16383D01*
X16596D01*
Y15958D01*
X16760D01*
X16775Y15959D01*
X16786D01*
X16796Y15960D01*
X16803Y15962D01*
X16808D01*
X16811Y15963D01*
X16813D01*
X16835Y15970D01*
X16844Y15974D01*
X16853Y15978D01*
X16861Y15983D01*
X16867Y15985D01*
X16869Y15987D01*
X16871Y15988D01*
X16882Y15996D01*
X16893Y16006D01*
X16914Y16027D01*
X16924Y16037D01*
X16930Y16045D01*
X16935Y16051D01*
X16936Y16052D01*
X16950Y16071D01*
X16965Y16092D01*
X16980Y16114D01*
X16996Y16135D01*
X17008Y16155D01*
X17018Y16170D01*
X17022Y16175D01*
X17025Y16179D01*
X17028Y16182D01*
Y16184D01*
X17154Y16383D01*
X17312D01*
X17147Y16123D01*
D02*
G37*
G36*
X8206Y15424D02*
X8084D01*
Y16178D01*
X7580Y15424D01*
X7450D01*
Y16383D01*
X7572D01*
Y15630D01*
X8074Y16383D01*
X8206D01*
Y15424D01*
D02*
G37*
G36*
X29928Y16270D02*
X29338D01*
Y15944D01*
X29870D01*
Y15830D01*
X29338D01*
Y15537D01*
X29906D01*
Y15424D01*
X29211D01*
Y16383D01*
X29928D01*
Y16270D01*
D02*
G37*
G36*
X29058D02*
X28585D01*
Y15424D01*
X28458D01*
Y16383D01*
X29058D01*
Y16270D01*
D02*
G37*
G36*
X26498D02*
X25909D01*
Y15944D01*
X26440D01*
Y15830D01*
X25909D01*
Y15537D01*
X26476D01*
Y15424D01*
X25781D01*
Y16383D01*
X26498D01*
Y16270D01*
D02*
G37*
G36*
X21741Y15948D02*
X22192Y15948D01*
Y15834D01*
X21741Y15834D01*
Y15537D01*
X22263Y15537D01*
Y15424D01*
X21614Y15424D01*
Y16383D01*
X21741D01*
Y15948D01*
D02*
G37*
G36*
X20644Y16382D02*
X20674Y16381D01*
X20700Y16378D01*
X20722Y16375D01*
X20741Y16372D01*
X20755Y16371D01*
X20760Y16369D01*
X20764Y16368D01*
X20766D01*
X20791Y16361D01*
X20814Y16353D01*
X20833Y16346D01*
X20850Y16338D01*
X20864Y16331D01*
X20873Y16325D01*
X20879Y16321D01*
X20882Y16320D01*
X20900Y16307D01*
X20915Y16292D01*
X20930Y16278D01*
X20943Y16264D01*
X20954Y16252D01*
X20962Y16242D01*
X20968Y16235D01*
X20969Y16232D01*
X20983Y16210D01*
X20997Y16186D01*
X21008Y16164D01*
X21016Y16142D01*
X21024Y16123D01*
X21030Y16107D01*
X21031Y16102D01*
X21033Y16098D01*
X21034Y16095D01*
Y16094D01*
X21042Y16060D01*
X21049Y16027D01*
X21054Y15995D01*
X21058Y15965D01*
X21059Y15938D01*
Y15927D01*
X21060Y15917D01*
Y15910D01*
Y15904D01*
Y15901D01*
Y15899D01*
X21059Y15852D01*
X21055Y15809D01*
X21048Y15770D01*
X21045Y15752D01*
X21041Y15737D01*
X21037Y15722D01*
X21034Y15709D01*
X21031Y15698D01*
X21027Y15689D01*
X21026Y15680D01*
X21023Y15675D01*
X21022Y15672D01*
Y15671D01*
X21006Y15634D01*
X20988Y15603D01*
X20969Y15575D01*
X20951Y15551D01*
X20934Y15532D01*
X20920Y15518D01*
X20915Y15514D01*
X20911Y15510D01*
X20909Y15508D01*
X20908Y15507D01*
X20886Y15489D01*
X20862Y15475D01*
X20839Y15462D01*
X20816Y15453D01*
X20797Y15446D01*
X20782Y15442D01*
X20776Y15439D01*
X20772D01*
X20769Y15438D01*
X20768D01*
X20744Y15433D01*
X20716Y15429D01*
X20689Y15426D01*
X20661Y15425D01*
X20636Y15424D01*
X20267D01*
Y16383D01*
X20612D01*
X20644Y16382D01*
D02*
G37*
G36*
X20091Y16270D02*
X19502D01*
Y15944D01*
X20033D01*
Y15830D01*
X19502D01*
Y15537D01*
X20069D01*
Y15424D01*
X19374D01*
Y16383D01*
X20091D01*
Y16270D01*
D02*
G37*
G36*
X19258Y15424D02*
X19129D01*
X18868Y16121D01*
X18857Y16150D01*
X18847Y16178D01*
X18839Y16204D01*
X18832Y16228D01*
X18825Y16249D01*
X18821Y16264D01*
X18819Y16270D01*
X18818Y16274D01*
X18817Y16277D01*
Y16278D01*
X18800Y16222D01*
X18792Y16196D01*
X18783Y16173D01*
X18776Y16152D01*
X18774Y16143D01*
X18772Y16135D01*
X18769Y16130D01*
X18768Y16125D01*
X18767Y16123D01*
Y16121D01*
X18517Y15424D01*
X18378D01*
X18750Y16383D01*
X18883D01*
X19258Y15424D01*
D02*
G37*
G36*
X15700Y15994D02*
X15946D01*
X15982Y15992D01*
X16017Y15990D01*
X16047Y15985D01*
X16075Y15980D01*
X16101Y15974D01*
X16123Y15967D01*
X16144Y15959D01*
X16162Y15951D01*
X16177Y15944D01*
X16191Y15935D01*
X16202Y15928D01*
X16211Y15922D01*
X16218Y15917D01*
X16222Y15913D01*
X16225Y15910D01*
X16226Y15909D01*
X16240Y15892D01*
X16252Y15876D01*
X16262Y15859D01*
X16272Y15841D01*
X16280Y15823D01*
X16286Y15806D01*
X16295Y15775D01*
X16298Y15759D01*
X16301Y15745D01*
X16302Y15733D01*
X16304Y15723D01*
X16305Y15714D01*
Y15708D01*
Y15704D01*
Y15702D01*
X16304Y15676D01*
X16301Y15651D01*
X16295Y15629D01*
X16291Y15609D01*
X16286Y15593D01*
X16280Y15580D01*
X16277Y15573D01*
X16276Y15571D01*
X16265Y15550D01*
X16251Y15532D01*
X16238Y15515D01*
X16226Y15503D01*
X16215Y15493D01*
X16206Y15485D01*
X16201Y15481D01*
X16198Y15479D01*
X16180Y15468D01*
X16159Y15458D01*
X16140Y15450D01*
X16122Y15443D01*
X16105Y15439D01*
X16093Y15436D01*
X16083Y15433D01*
X16080D01*
X16059Y15431D01*
X16036Y15428D01*
X16011Y15426D01*
X15987Y15425D01*
X15967Y15424D01*
X15573D01*
Y16383D01*
X15700D01*
Y15994D01*
D02*
G37*
G36*
X14806D02*
X15051D01*
X15087Y15992D01*
X15122Y15990D01*
X15153Y15985D01*
X15180Y15980D01*
X15207Y15974D01*
X15229Y15967D01*
X15250Y15959D01*
X15268Y15951D01*
X15283Y15944D01*
X15297Y15935D01*
X15308Y15928D01*
X15316Y15922D01*
X15323Y15917D01*
X15327Y15913D01*
X15330Y15910D01*
X15331Y15909D01*
X15345Y15892D01*
X15358Y15876D01*
X15367Y15859D01*
X15377Y15841D01*
X15385Y15823D01*
X15391Y15806D01*
X15401Y15775D01*
X15404Y15759D01*
X15406Y15745D01*
X15408Y15733D01*
X15409Y15723D01*
X15410Y15714D01*
Y15708D01*
Y15704D01*
Y15702D01*
X15409Y15676D01*
X15406Y15651D01*
X15401Y15629D01*
X15397Y15609D01*
X15391Y15593D01*
X15385Y15580D01*
X15383Y15573D01*
X15381Y15571D01*
X15370Y15550D01*
X15356Y15532D01*
X15344Y15515D01*
X15331Y15503D01*
X15320Y15493D01*
X15312Y15485D01*
X15306Y15481D01*
X15304Y15479D01*
X15286Y15468D01*
X15265Y15458D01*
X15245Y15450D01*
X15227Y15443D01*
X15211Y15439D01*
X15198Y15436D01*
X15189Y15433D01*
X15186D01*
X15165Y15431D01*
X15141Y15428D01*
X15116Y15426D01*
X15093Y15425D01*
X15072Y15424D01*
X14678D01*
Y16383D01*
X14806D01*
Y15994D01*
D02*
G37*
G36*
X10788Y15948D02*
X11239D01*
Y15834D01*
X10788D01*
Y15537D01*
X11310D01*
Y15424D01*
X10661D01*
Y16383D01*
X10788D01*
Y15948D01*
D02*
G37*
G36*
X9834Y15537D02*
X10150D01*
Y15424D01*
X9390D01*
Y15537D01*
X9706D01*
Y16383D01*
X9834D01*
Y15537D01*
D02*
G37*
G36*
X27077Y16399D02*
X27111Y16394D01*
X27143Y16388D01*
X27169Y16381D01*
X27192Y16375D01*
X27201Y16371D01*
X27210Y16368D01*
X27215Y16365D01*
X27219Y16364D01*
X27222Y16363D01*
X27224D01*
X27253Y16347D01*
X27278Y16331D01*
X27300Y16313D01*
X27318Y16296D01*
X27332Y16282D01*
X27341Y16270D01*
X27348Y16261D01*
X27350Y16260D01*
Y16259D01*
X27365Y16232D01*
X27376Y16207D01*
X27383Y16184D01*
X27389Y16161D01*
X27391Y16142D01*
X27394Y16127D01*
Y16121D01*
Y16117D01*
Y16116D01*
Y16114D01*
X27393Y16087D01*
X27389Y16060D01*
X27382Y16037D01*
X27375Y16017D01*
X27366Y16001D01*
X27361Y15988D01*
X27355Y15981D01*
X27354Y15978D01*
X27337Y15958D01*
X27318Y15938D01*
X27297Y15922D01*
X27276Y15906D01*
X27258Y15895D01*
X27243Y15887D01*
X27237Y15884D01*
X27233Y15881D01*
X27230Y15880D01*
X27229D01*
X27218Y15874D01*
X27204Y15870D01*
X27189Y15865D01*
X27172Y15859D01*
X27138Y15849D01*
X27102Y15840D01*
X27085Y15836D01*
X27070Y15831D01*
X27054Y15827D01*
X27042Y15824D01*
X27032Y15822D01*
X27024Y15820D01*
X27018Y15819D01*
X27017D01*
X26989Y15812D01*
X26964Y15806D01*
X26942Y15800D01*
X26923Y15794D01*
X26905Y15787D01*
X26889Y15781D01*
X26875Y15776D01*
X26863Y15772D01*
X26853Y15766D01*
X26845Y15762D01*
X26839Y15759D01*
X26834Y15755D01*
X26827Y15751D01*
X26826Y15750D01*
X26813Y15736D01*
X26805Y15722D01*
X26798Y15708D01*
X26794Y15694D01*
X26791Y15683D01*
X26789Y15673D01*
Y15668D01*
Y15665D01*
X26792Y15643D01*
X26798Y15623D01*
X26806Y15607D01*
X26816Y15591D01*
X26824Y15580D01*
X26832Y15571D01*
X26838Y15565D01*
X26841Y15564D01*
X26852Y15557D01*
X26863Y15550D01*
X26889Y15539D01*
X26917Y15532D01*
X26945Y15526D01*
X26970Y15524D01*
X26981Y15522D01*
X26989Y15521D01*
X27009D01*
X27047Y15522D01*
X27082Y15528D01*
X27110Y15536D01*
X27133Y15544D01*
X27151Y15553D01*
X27165Y15561D01*
X27172Y15567D01*
X27175Y15568D01*
X27194Y15587D01*
X27210Y15608D01*
X27222Y15630D01*
X27230Y15653D01*
X27236Y15673D01*
X27240Y15689D01*
X27242Y15695D01*
X27243Y15700D01*
Y15702D01*
Y15704D01*
X27365Y15694D01*
X27362Y15664D01*
X27355Y15636D01*
X27348Y15609D01*
X27339Y15587D01*
X27330Y15569D01*
X27323Y15555D01*
X27321Y15551D01*
X27318Y15547D01*
X27316Y15546D01*
Y15544D01*
X27298Y15521D01*
X27279Y15500D01*
X27258Y15482D01*
X27237Y15468D01*
X27219Y15456D01*
X27206Y15449D01*
X27200Y15446D01*
X27196Y15443D01*
X27193Y15442D01*
X27192D01*
X27161Y15431D01*
X27128Y15422D01*
X27097Y15415D01*
X27068Y15411D01*
X27042Y15408D01*
X27032D01*
X27022Y15407D01*
X27004D01*
X26968Y15408D01*
X26936Y15413D01*
X26906Y15418D01*
X26880Y15424D01*
X26859Y15429D01*
X26849Y15432D01*
X26842Y15435D01*
X26837Y15438D01*
X26832Y15439D01*
X26830Y15440D01*
X26828D01*
X26801Y15454D01*
X26776Y15469D01*
X26755Y15486D01*
X26738Y15501D01*
X26726Y15515D01*
X26716Y15526D01*
X26709Y15535D01*
X26708Y15536D01*
Y15537D01*
X26694Y15561D01*
X26684Y15585D01*
X26677Y15608D01*
X26673Y15629D01*
X26670Y15647D01*
X26667Y15661D01*
Y15666D01*
Y15671D01*
Y15672D01*
Y15673D01*
X26669Y15697D01*
X26673Y15719D01*
X26679Y15740D01*
X26684Y15758D01*
X26690Y15772D01*
X26695Y15783D01*
X26699Y15790D01*
X26701Y15793D01*
X26715Y15812D01*
X26731Y15830D01*
X26748Y15845D01*
X26765Y15858D01*
X26778Y15869D01*
X26791Y15876D01*
X26799Y15881D01*
X26801Y15883D01*
X26802D01*
X26813Y15888D01*
X26826Y15894D01*
X26853Y15904D01*
X26885Y15913D01*
X26916Y15923D01*
X26943Y15931D01*
X26956Y15934D01*
X26967Y15937D01*
X26975Y15940D01*
X26982Y15941D01*
X26986Y15942D01*
X26988D01*
X27011Y15948D01*
X27034Y15953D01*
X27053Y15959D01*
X27070Y15963D01*
X27086Y15967D01*
X27100Y15971D01*
X27113Y15974D01*
X27122Y15978D01*
X27132Y15981D01*
X27139Y15983D01*
X27150Y15987D01*
X27157Y15988D01*
X27158Y15990D01*
X27179Y15998D01*
X27197Y16008D01*
X27212Y16017D01*
X27224Y16026D01*
X27233Y16034D01*
X27239Y16039D01*
X27243Y16044D01*
X27244Y16045D01*
X27254Y16057D01*
X27261Y16071D01*
X27265Y16085D01*
X27269Y16096D01*
X27271Y16107D01*
X27272Y16116D01*
Y16123D01*
Y16124D01*
X27271Y16141D01*
X27268Y16156D01*
X27264Y16170D01*
X27258Y16181D01*
X27253Y16192D01*
X27249Y16199D01*
X27246Y16204D01*
X27244Y16206D01*
X27233Y16220D01*
X27219Y16231D01*
X27206Y16241D01*
X27193Y16250D01*
X27181Y16256D01*
X27171Y16261D01*
X27164Y16264D01*
X27161Y16265D01*
X27140Y16272D01*
X27118Y16278D01*
X27096Y16281D01*
X27077Y16284D01*
X27060Y16285D01*
X27046Y16286D01*
X27034D01*
X27003Y16285D01*
X26975Y16282D01*
X26950Y16278D01*
X26928Y16272D01*
X26910Y16267D01*
X26896Y16263D01*
X26892Y16261D01*
X26888Y16260D01*
X26887Y16259D01*
X26885D01*
X26863Y16247D01*
X26842Y16235D01*
X26827Y16222D01*
X26813Y16210D01*
X26802Y16200D01*
X26795Y16191D01*
X26791Y16185D01*
X26789Y16184D01*
X26780Y16166D01*
X26770Y16146D01*
X26765Y16125D01*
X26759Y16107D01*
X26755Y16089D01*
X26752Y16077D01*
Y16071D01*
X26751Y16067D01*
Y16066D01*
Y16064D01*
X26631Y16075D01*
X26634Y16110D01*
X26640Y16143D01*
X26648Y16173D01*
X26658Y16199D01*
X26667Y16220D01*
X26672Y16228D01*
X26674Y16235D01*
X26679Y16241D01*
X26680Y16245D01*
X26683Y16247D01*
Y16249D01*
X26703Y16275D01*
X26726Y16299D01*
X26749Y16318D01*
X26771Y16335D01*
X26791Y16347D01*
X26808Y16356D01*
X26813Y16358D01*
X26817Y16361D01*
X26820Y16363D01*
X26821D01*
X26856Y16375D01*
X26892Y16385D01*
X26928Y16390D01*
X26963Y16396D01*
X26979Y16397D01*
X26993Y16399D01*
X27006D01*
X27017Y16400D01*
X27039D01*
X27077Y16399D01*
D02*
G37*
G36*
X22894Y16397D02*
X22937Y16390D01*
X22977Y16382D01*
X22995Y16376D01*
X23012Y16371D01*
X23027Y16365D01*
X23041Y16360D01*
X23052Y16356D01*
X23062Y16351D01*
X23070Y16347D01*
X23077Y16345D01*
X23080Y16342D01*
X23081D01*
X23120Y16317D01*
X23153Y16289D01*
X23181Y16260D01*
X23205Y16232D01*
X23224Y16206D01*
X23231Y16196D01*
X23236Y16186D01*
X23242Y16178D01*
X23245Y16173D01*
X23247Y16168D01*
Y16167D01*
X23259Y16145D01*
X23267Y16123D01*
X23282Y16078D01*
X23293Y16034D01*
X23300Y15994D01*
X23302Y15976D01*
X23304Y15959D01*
X23306Y15944D01*
Y15931D01*
X23307Y15920D01*
Y15913D01*
Y15908D01*
Y15906D01*
X23304Y15854D01*
X23299Y15805D01*
X23295Y15783D01*
X23289Y15761D01*
X23284Y15741D01*
X23279Y15723D01*
X23274Y15707D01*
X23268Y15691D01*
X23264Y15679D01*
X23259Y15668D01*
X23256Y15659D01*
X23253Y15654D01*
X23250Y15650D01*
Y15648D01*
X23228Y15608D01*
X23202Y15572D01*
X23174Y15542D01*
X23149Y15517D01*
X23125Y15497D01*
X23114Y15489D01*
X23106Y15482D01*
X23098Y15478D01*
X23092Y15474D01*
X23089Y15472D01*
X23088Y15471D01*
X23067Y15460D01*
X23046Y15450D01*
X23006Y15433D01*
X22965Y15422D01*
X22929Y15415D01*
X22912Y15413D01*
X22895Y15410D01*
X22883Y15408D01*
X22870D01*
X22861Y15407D01*
X22848D01*
X22811Y15408D01*
X22776Y15413D01*
X22743Y15420D01*
X22711Y15428D01*
X22682Y15439D01*
X22654Y15450D01*
X22629Y15462D01*
X22607Y15475D01*
X22586Y15487D01*
X22568Y15500D01*
X22553Y15511D01*
X22540Y15522D01*
X22530Y15530D01*
X22522Y15537D01*
X22518Y15542D01*
X22517Y15543D01*
X22494Y15569D01*
X22475Y15597D01*
X22457Y15628D01*
X22443Y15658D01*
X22431Y15690D01*
X22420Y15720D01*
X22411Y15751D01*
X22406Y15780D01*
X22400Y15808D01*
X22396Y15834D01*
X22393Y15858D01*
X22390Y15877D01*
Y15894D01*
X22389Y15906D01*
Y15915D01*
Y15916D01*
Y15917D01*
X22392Y15965D01*
X22397Y16008D01*
X22406Y16049D01*
X22411Y16067D01*
X22417Y16085D01*
X22421Y16100D01*
X22426Y16114D01*
X22431Y16127D01*
X22435Y16138D01*
X22438Y16146D01*
X22440Y16152D01*
X22443Y16156D01*
Y16157D01*
X22467Y16198D01*
X22492Y16232D01*
X22519Y16263D01*
X22546Y16288D01*
X22569Y16308D01*
X22579Y16317D01*
X22587Y16322D01*
X22596Y16328D01*
X22601Y16332D01*
X22604Y16333D01*
X22605Y16335D01*
X22626Y16346D01*
X22647Y16356D01*
X22689Y16372D01*
X22729Y16383D01*
X22766Y16392D01*
X22784Y16394D01*
X22800Y16396D01*
X22813Y16399D01*
X22826D01*
X22834Y16400D01*
X22848D01*
X22894Y16397D01*
D02*
G37*
G36*
X17901Y16397D02*
X17944Y16390D01*
X17984Y16382D01*
X18002Y16376D01*
X18019Y16371D01*
X18034Y16365D01*
X18048Y16360D01*
X18059Y16356D01*
X18069Y16351D01*
X18077Y16347D01*
X18084Y16345D01*
X18087Y16342D01*
X18088D01*
X18127Y16317D01*
X18161Y16289D01*
X18188Y16260D01*
X18212Y16232D01*
X18231Y16206D01*
X18238Y16196D01*
X18244Y16186D01*
X18249Y16178D01*
X18252Y16173D01*
X18255Y16168D01*
Y16167D01*
X18266Y16145D01*
X18274Y16123D01*
X18290Y16078D01*
X18301Y16034D01*
X18308Y15994D01*
X18309Y15976D01*
X18312Y15959D01*
X18313Y15944D01*
Y15931D01*
X18315Y15920D01*
Y15913D01*
Y15908D01*
Y15906D01*
X18312Y15854D01*
X18306Y15805D01*
X18302Y15783D01*
X18296Y15761D01*
X18291Y15741D01*
X18287Y15723D01*
X18281Y15707D01*
X18276Y15691D01*
X18272Y15679D01*
X18266Y15668D01*
X18263Y15659D01*
X18260Y15654D01*
X18258Y15650D01*
Y15648D01*
X18235Y15608D01*
X18209Y15572D01*
X18181Y15542D01*
X18156Y15517D01*
X18133Y15497D01*
X18122Y15489D01*
X18113Y15482D01*
X18105Y15478D01*
X18100Y15474D01*
X18097Y15472D01*
X18095Y15471D01*
X18075Y15460D01*
X18054Y15450D01*
X18014Y15433D01*
X17972Y15422D01*
X17936Y15415D01*
X17919Y15413D01*
X17903Y15410D01*
X17890Y15408D01*
X17878D01*
X17868Y15407D01*
X17855D01*
X17818Y15408D01*
X17783Y15413D01*
X17750Y15420D01*
X17718Y15428D01*
X17689Y15439D01*
X17661Y15450D01*
X17636Y15462D01*
X17614Y15475D01*
X17593Y15487D01*
X17575Y15500D01*
X17560Y15511D01*
X17548Y15522D01*
X17538Y15530D01*
X17530Y15537D01*
X17525Y15542D01*
X17524Y15543D01*
X17502Y15569D01*
X17482Y15597D01*
X17464Y15628D01*
X17451Y15658D01*
X17438Y15690D01*
X17427Y15720D01*
X17419Y15751D01*
X17413Y15780D01*
X17407Y15808D01*
X17403Y15834D01*
X17401Y15858D01*
X17398Y15877D01*
Y15894D01*
X17396Y15906D01*
Y15915D01*
Y15916D01*
Y15917D01*
X17399Y15965D01*
X17405Y16008D01*
X17413Y16049D01*
X17419Y16067D01*
X17424Y16085D01*
X17428Y16100D01*
X17434Y16114D01*
X17438Y16127D01*
X17442Y16138D01*
X17445Y16146D01*
X17448Y16152D01*
X17451Y16156D01*
Y16157D01*
X17474Y16198D01*
X17499Y16232D01*
X17527Y16263D01*
X17553Y16288D01*
X17577Y16308D01*
X17586Y16317D01*
X17595Y16322D01*
X17603Y16328D01*
X17609Y16332D01*
X17611Y16333D01*
X17613Y16335D01*
X17634Y16346D01*
X17654Y16356D01*
X17696Y16372D01*
X17736Y16383D01*
X17774Y16392D01*
X17792Y16394D01*
X17807Y16396D01*
X17821Y16399D01*
X17833D01*
X17842Y16400D01*
X17855D01*
X17901Y16397D01*
D02*
G37*
G36*
X8885D02*
X8928Y16390D01*
X8969Y16382D01*
X8987Y16376D01*
X9003Y16371D01*
X9019Y16365D01*
X9032Y16360D01*
X9043Y16356D01*
X9053Y16351D01*
X9061Y16347D01*
X9068Y16345D01*
X9071Y16342D01*
X9073D01*
X9111Y16317D01*
X9145Y16289D01*
X9172Y16260D01*
X9196Y16232D01*
X9215Y16206D01*
X9222Y16196D01*
X9228Y16186D01*
X9233Y16178D01*
X9236Y16173D01*
X9239Y16168D01*
Y16167D01*
X9250Y16145D01*
X9258Y16123D01*
X9274Y16078D01*
X9285Y16034D01*
X9292Y15994D01*
X9293Y15976D01*
X9296Y15959D01*
X9297Y15944D01*
Y15931D01*
X9299Y15920D01*
Y15913D01*
Y15908D01*
Y15906D01*
X9296Y15854D01*
X9290Y15805D01*
X9286Y15783D01*
X9281Y15761D01*
X9275Y15741D01*
X9271Y15723D01*
X9265Y15707D01*
X9260Y15691D01*
X9256Y15679D01*
X9250Y15668D01*
X9247Y15659D01*
X9245Y15654D01*
X9242Y15650D01*
Y15648D01*
X9220Y15608D01*
X9193Y15572D01*
X9166Y15542D01*
X9141Y15517D01*
X9117Y15497D01*
X9106Y15489D01*
X9098Y15482D01*
X9089Y15478D01*
X9084Y15474D01*
X9081Y15472D01*
X9080Y15471D01*
X9059Y15460D01*
X9038Y15450D01*
X8998Y15433D01*
X8956Y15422D01*
X8920Y15415D01*
X8903Y15413D01*
X8887Y15410D01*
X8874Y15408D01*
X8862D01*
X8852Y15407D01*
X8840D01*
X8802Y15408D01*
X8767Y15413D01*
X8734Y15420D01*
X8702Y15428D01*
X8673Y15439D01*
X8645Y15450D01*
X8620Y15462D01*
X8598Y15475D01*
X8577Y15487D01*
X8559Y15500D01*
X8544Y15511D01*
X8532Y15522D01*
X8522Y15530D01*
X8514Y15537D01*
X8510Y15542D01*
X8508Y15543D01*
X8486Y15569D01*
X8467Y15597D01*
X8449Y15628D01*
X8435Y15658D01*
X8422Y15690D01*
X8411Y15720D01*
X8403Y15751D01*
X8397Y15780D01*
X8392Y15808D01*
X8387Y15834D01*
X8385Y15858D01*
X8382Y15877D01*
Y15894D01*
X8381Y15906D01*
Y15915D01*
Y15916D01*
Y15917D01*
X8383Y15965D01*
X8389Y16008D01*
X8397Y16049D01*
X8403Y16067D01*
X8408Y16085D01*
X8412Y16100D01*
X8418Y16114D01*
X8422Y16127D01*
X8426Y16138D01*
X8429Y16146D01*
X8432Y16152D01*
X8435Y16156D01*
Y16157D01*
X8458Y16198D01*
X8483Y16232D01*
X8511Y16263D01*
X8537Y16288D01*
X8561Y16308D01*
X8571Y16317D01*
X8579Y16322D01*
X8587Y16328D01*
X8593Y16332D01*
X8596Y16333D01*
X8597Y16335D01*
X8618Y16346D01*
X8639Y16356D01*
X8680Y16372D01*
X8720Y16383D01*
X8758Y16392D01*
X8776Y16394D01*
X8791Y16396D01*
X8805Y16399D01*
X8817D01*
X8826Y16400D01*
X8840D01*
X8885Y16397D01*
D02*
G37*
G36*
X28590Y27072D02*
Y24526D01*
X8095D01*
Y27072D01*
X28590D01*
D02*
G37*
%LPC*%
G36*
X112248Y5116D02*
X112245D01*
X112248Y5027D01*
X112251Y4972D01*
X112253Y4924D01*
X112259Y4886D01*
X112267Y4852D01*
X112275Y4827D01*
X112281Y4808D01*
X112284Y4797D01*
X112287Y4794D01*
X112309Y4758D01*
X112331Y4725D01*
X112359Y4697D01*
X112384Y4675D01*
X112406Y4655D01*
X112425Y4641D01*
X112437Y4633D01*
X112442Y4630D01*
X112484Y4611D01*
X112525Y4597D01*
X112564Y4586D01*
X112603Y4580D01*
X112634Y4575D01*
X112661Y4572D01*
X112684D01*
X112734Y4575D01*
X112775Y4580D01*
X112811Y4591D01*
X112842Y4602D01*
X112864Y4614D01*
X112881Y4625D01*
X112892Y4630D01*
X112895Y4633D01*
X112917Y4658D01*
X112933Y4686D01*
X112947Y4711D01*
X112956Y4736D01*
X112961Y4758D01*
X112964Y4775D01*
Y4788D01*
Y4791D01*
X112961Y4813D01*
X112958Y4836D01*
X112953Y4852D01*
X112947Y4869D01*
X112942Y4883D01*
X112939Y4894D01*
X112933Y4899D01*
Y4902D01*
X112906Y4936D01*
X112872Y4958D01*
X112861Y4966D01*
X112850Y4972D01*
X112842Y4977D01*
X112839D01*
X112811Y4988D01*
X112781Y4997D01*
X112747Y5005D01*
X112714Y5011D01*
X112684Y5016D01*
X112656Y5022D01*
X112639Y5024D01*
X112634D01*
X112586Y5033D01*
X112542Y5038D01*
X112503Y5047D01*
X112464Y5055D01*
X112428Y5063D01*
X112398Y5072D01*
X112367Y5077D01*
X112342Y5085D01*
X112320Y5091D01*
X112300Y5097D01*
X112284Y5102D01*
X112270Y5108D01*
X112259Y5110D01*
X112251Y5113D01*
X112248Y5116D01*
D02*
G37*
G36*
X115565Y5646D02*
X115549D01*
X115515Y5644D01*
X115485Y5641D01*
X115427Y5624D01*
X115377Y5602D01*
X115335Y5577D01*
X115302Y5552D01*
X115277Y5530D01*
X115263Y5513D01*
X115257Y5510D01*
Y5507D01*
X115232Y5471D01*
X115210Y5430D01*
X115196Y5388D01*
X115182Y5344D01*
X115174Y5308D01*
X115168Y5274D01*
Y5263D01*
X115166Y5255D01*
Y5249D01*
Y5247D01*
X115946D01*
X115937Y5310D01*
X115921Y5369D01*
X115901Y5419D01*
X115879Y5458D01*
X115860Y5491D01*
X115840Y5516D01*
X115829Y5530D01*
X115824Y5535D01*
X115779Y5571D01*
X115735Y5599D01*
X115687Y5619D01*
X115643Y5632D01*
X115607Y5641D01*
X115576Y5644D01*
X115565Y5646D01*
D02*
G37*
G36*
X128533Y6110D02*
X128078D01*
X128017Y6104D01*
X127969Y6102D01*
X127928Y6096D01*
X127897Y6090D01*
X127878Y6088D01*
X127864Y6082D01*
X127861D01*
X127831Y6071D01*
X127803Y6054D01*
X127781Y6038D01*
X127761Y6021D01*
X127747Y6007D01*
X127736Y5993D01*
X127731Y5985D01*
X127728Y5982D01*
X127711Y5954D01*
X127700Y5927D01*
X127692Y5899D01*
X127686Y5871D01*
X127684Y5849D01*
X127681Y5832D01*
Y5821D01*
Y5816D01*
X127684Y5780D01*
X127689Y5746D01*
X127697Y5718D01*
X127706Y5696D01*
X127714Y5677D01*
X127722Y5660D01*
X127728Y5652D01*
X127731Y5649D01*
X127750Y5627D01*
X127775Y5605D01*
X127800Y5588D01*
X127822Y5577D01*
X127845Y5566D01*
X127861Y5557D01*
X127872Y5555D01*
X127878Y5552D01*
X127908Y5546D01*
X127947Y5541D01*
X127986Y5538D01*
X128025Y5535D01*
X128061Y5532D01*
X128533D01*
Y6110D01*
D02*
G37*
G36*
Y5305D02*
X128028D01*
X127969Y5299D01*
X127922Y5294D01*
X127883Y5288D01*
X127853Y5283D01*
X127828Y5277D01*
X127817Y5274D01*
X127811Y5272D01*
X127775Y5258D01*
X127745Y5241D01*
X127717Y5222D01*
X127695Y5202D01*
X127678Y5185D01*
X127667Y5172D01*
X127659Y5160D01*
X127656Y5158D01*
X127636Y5127D01*
X127622Y5097D01*
X127611Y5066D01*
X127606Y5038D01*
X127600Y5013D01*
X127597Y4991D01*
Y4980D01*
Y4974D01*
X127600Y4941D01*
X127603Y4908D01*
X127609Y4880D01*
X127617Y4858D01*
X127625Y4838D01*
X127631Y4822D01*
X127634Y4813D01*
X127636Y4811D01*
X127653Y4786D01*
X127667Y4763D01*
X127686Y4747D01*
X127700Y4730D01*
X127714Y4719D01*
X127725Y4711D01*
X127733Y4705D01*
X127736Y4702D01*
X127783Y4680D01*
X127831Y4664D01*
X127850Y4658D01*
X127867Y4655D01*
X127878Y4652D01*
X127881D01*
X127903Y4650D01*
X127928Y4647D01*
X127986Y4644D01*
X128533D01*
Y5305D01*
D02*
G37*
G36*
X126470Y5646D02*
X126454D01*
X126420Y5644D01*
X126390Y5641D01*
X126334Y5627D01*
X126284Y5605D01*
X126243Y5580D01*
X126209Y5555D01*
X126184Y5535D01*
X126168Y5519D01*
X126162Y5516D01*
Y5513D01*
X126140Y5488D01*
X126123Y5458D01*
X126093Y5396D01*
X126071Y5330D01*
X126057Y5269D01*
X126048Y5210D01*
X126046Y5185D01*
Y5163D01*
X126043Y5147D01*
Y5133D01*
Y5124D01*
Y5122D01*
Y5072D01*
X126048Y5024D01*
X126054Y4983D01*
X126062Y4941D01*
X126071Y4905D01*
X126082Y4872D01*
X126090Y4841D01*
X126101Y4813D01*
X126112Y4791D01*
X126123Y4769D01*
X126134Y4752D01*
X126143Y4738D01*
X126151Y4727D01*
X126157Y4719D01*
X126159Y4716D01*
X126162Y4713D01*
X126184Y4691D01*
X126209Y4669D01*
X126257Y4636D01*
X126307Y4614D01*
X126351Y4597D01*
X126393Y4589D01*
X126423Y4583D01*
X126437Y4580D01*
X126454D01*
X126487Y4583D01*
X126518Y4586D01*
X126576Y4600D01*
X126626Y4622D01*
X126667Y4647D01*
X126701Y4669D01*
X126726Y4691D01*
X126742Y4705D01*
X126745Y4711D01*
X126748D01*
X126767Y4738D01*
X126787Y4766D01*
X126815Y4830D01*
X126837Y4897D01*
X126851Y4963D01*
X126859Y5022D01*
X126862Y5047D01*
Y5069D01*
X126865Y5088D01*
Y5102D01*
Y5110D01*
Y5113D01*
X126862Y5160D01*
X126859Y5208D01*
X126853Y5249D01*
X126845Y5288D01*
X126837Y5324D01*
X126828Y5358D01*
X126817Y5385D01*
X126806Y5413D01*
X126795Y5435D01*
X126784Y5458D01*
X126776Y5474D01*
X126767Y5488D01*
X126759Y5499D01*
X126753Y5507D01*
X126748Y5510D01*
Y5513D01*
X126726Y5535D01*
X126701Y5557D01*
X126654Y5591D01*
X126604Y5613D01*
X126556Y5630D01*
X126515Y5641D01*
X126484Y5644D01*
X126470Y5646D01*
D02*
G37*
G36*
X123483D02*
X123466D01*
X123433Y5644D01*
X123403Y5641D01*
X123347Y5627D01*
X123297Y5605D01*
X123255Y5580D01*
X123222Y5555D01*
X123197Y5535D01*
X123180Y5519D01*
X123175Y5516D01*
Y5513D01*
X123153Y5488D01*
X123136Y5458D01*
X123106Y5396D01*
X123083Y5330D01*
X123069Y5269D01*
X123061Y5210D01*
X123058Y5185D01*
Y5163D01*
X123056Y5147D01*
Y5133D01*
Y5124D01*
Y5122D01*
Y5072D01*
X123061Y5024D01*
X123067Y4983D01*
X123075Y4941D01*
X123083Y4905D01*
X123094Y4872D01*
X123103Y4841D01*
X123114Y4813D01*
X123125Y4791D01*
X123136Y4769D01*
X123147Y4752D01*
X123156Y4738D01*
X123164Y4727D01*
X123169Y4719D01*
X123172Y4716D01*
X123175Y4713D01*
X123197Y4691D01*
X123222Y4669D01*
X123269Y4636D01*
X123319Y4614D01*
X123364Y4597D01*
X123405Y4589D01*
X123436Y4583D01*
X123450Y4580D01*
X123466D01*
X123500Y4583D01*
X123530Y4586D01*
X123589Y4600D01*
X123639Y4622D01*
X123680Y4647D01*
X123714Y4669D01*
X123739Y4691D01*
X123755Y4705D01*
X123758Y4711D01*
X123761D01*
X123780Y4738D01*
X123800Y4766D01*
X123827Y4830D01*
X123850Y4897D01*
X123863Y4963D01*
X123872Y5022D01*
X123875Y5047D01*
Y5069D01*
X123877Y5088D01*
Y5102D01*
Y5110D01*
Y5113D01*
X123875Y5160D01*
X123872Y5208D01*
X123866Y5249D01*
X123858Y5288D01*
X123850Y5324D01*
X123841Y5358D01*
X123830Y5385D01*
X123819Y5413D01*
X123808Y5435D01*
X123797Y5458D01*
X123788Y5474D01*
X123780Y5488D01*
X123772Y5499D01*
X123766Y5507D01*
X123761Y5510D01*
Y5513D01*
X123739Y5535D01*
X123714Y5557D01*
X123666Y5591D01*
X123616Y5613D01*
X123569Y5630D01*
X123528Y5641D01*
X123497Y5644D01*
X123483Y5646D01*
D02*
G37*
G36*
X118705Y6152D02*
X118680D01*
X118611Y6149D01*
X118544Y6138D01*
X118486Y6121D01*
X118436Y6104D01*
X118394Y6085D01*
X118378Y6077D01*
X118364Y6071D01*
X118350Y6063D01*
X118342Y6060D01*
X118339Y6054D01*
X118336D01*
X118283Y6016D01*
X118236Y5971D01*
X118194Y5927D01*
X118161Y5882D01*
X118136Y5843D01*
X118117Y5810D01*
X118111Y5799D01*
X118106Y5791D01*
X118103Y5785D01*
Y5782D01*
X118075Y5716D01*
X118056Y5644D01*
X118042Y5577D01*
X118033Y5513D01*
X118028Y5483D01*
X118025Y5458D01*
Y5433D01*
X118022Y5413D01*
Y5396D01*
Y5385D01*
Y5377D01*
Y5374D01*
X118025Y5308D01*
X118031Y5244D01*
X118039Y5183D01*
X118050Y5127D01*
X118067Y5077D01*
X118081Y5030D01*
X118097Y4986D01*
X118114Y4947D01*
X118133Y4913D01*
X118150Y4883D01*
X118164Y4858D01*
X118178Y4838D01*
X118192Y4822D01*
X118200Y4808D01*
X118205Y4802D01*
X118208Y4800D01*
X118244Y4763D01*
X118283Y4733D01*
X118322Y4708D01*
X118361Y4683D01*
X118400Y4664D01*
X118441Y4650D01*
X118478Y4636D01*
X118516Y4625D01*
X118550Y4616D01*
X118583Y4611D01*
X118611Y4605D01*
X118636Y4602D01*
X118655D01*
X118669Y4600D01*
X118683D01*
X118736Y4602D01*
X118786Y4608D01*
X118830Y4619D01*
X118875Y4630D01*
X118916Y4647D01*
X118955Y4664D01*
X118991Y4680D01*
X119024Y4700D01*
X119052Y4719D01*
X119077Y4736D01*
X119099Y4752D01*
X119119Y4769D01*
X119133Y4780D01*
X119144Y4791D01*
X119149Y4797D01*
X119152Y4800D01*
X119186Y4838D01*
X119213Y4880D01*
X119238Y4924D01*
X119260Y4969D01*
X119277Y5016D01*
X119294Y5061D01*
X119316Y5149D01*
X119322Y5188D01*
X119327Y5227D01*
X119333Y5260D01*
X119335Y5288D01*
X119338Y5313D01*
Y5333D01*
Y5344D01*
Y5346D01*
X119335Y5424D01*
X119330Y5496D01*
X119322Y5566D01*
X119308Y5627D01*
X119294Y5682D01*
X119277Y5732D01*
X119258Y5780D01*
X119241Y5818D01*
X119222Y5855D01*
X119205Y5885D01*
X119188Y5910D01*
X119174Y5929D01*
X119161Y5946D01*
X119152Y5957D01*
X119147Y5963D01*
X119144Y5966D01*
X119108Y5999D01*
X119069Y6027D01*
X119030Y6052D01*
X118988Y6074D01*
X118950Y6090D01*
X118911Y6107D01*
X118838Y6129D01*
X118805Y6135D01*
X118775Y6140D01*
X118750Y6146D01*
X118725Y6149D01*
X118705Y6152D01*
D02*
G37*
G36*
X84432Y6110D02*
X83976D01*
X83915Y6104D01*
X83868Y6102D01*
X83826Y6096D01*
X83796Y6090D01*
X83777Y6088D01*
X83763Y6082D01*
X83760D01*
X83729Y6071D01*
X83702Y6054D01*
X83679Y6038D01*
X83660Y6021D01*
X83646Y6007D01*
X83635Y5993D01*
X83629Y5985D01*
X83627Y5982D01*
X83610Y5954D01*
X83599Y5927D01*
X83591Y5899D01*
X83585Y5871D01*
X83582Y5849D01*
X83579Y5832D01*
Y5821D01*
Y5816D01*
X83582Y5780D01*
X83588Y5746D01*
X83596Y5718D01*
X83604Y5696D01*
X83613Y5677D01*
X83621Y5660D01*
X83627Y5652D01*
X83629Y5649D01*
X83649Y5627D01*
X83674Y5605D01*
X83699Y5588D01*
X83721Y5577D01*
X83743Y5566D01*
X83760Y5557D01*
X83771Y5555D01*
X83777Y5552D01*
X83807Y5546D01*
X83846Y5541D01*
X83885Y5538D01*
X83924Y5535D01*
X83960Y5532D01*
X84432D01*
Y6110D01*
D02*
G37*
G36*
Y5305D02*
X83926D01*
X83868Y5299D01*
X83821Y5294D01*
X83782Y5288D01*
X83752Y5283D01*
X83727Y5277D01*
X83715Y5274D01*
X83710Y5272D01*
X83674Y5258D01*
X83643Y5241D01*
X83616Y5222D01*
X83593Y5202D01*
X83577Y5185D01*
X83566Y5172D01*
X83557Y5160D01*
X83554Y5158D01*
X83535Y5127D01*
X83521Y5097D01*
X83510Y5066D01*
X83504Y5038D01*
X83499Y5013D01*
X83496Y4991D01*
Y4980D01*
Y4974D01*
X83499Y4941D01*
X83502Y4908D01*
X83507Y4880D01*
X83516Y4858D01*
X83524Y4838D01*
X83529Y4822D01*
X83532Y4813D01*
X83535Y4811D01*
X83552Y4786D01*
X83566Y4763D01*
X83585Y4747D01*
X83599Y4730D01*
X83613Y4719D01*
X83624Y4711D01*
X83632Y4705D01*
X83635Y4702D01*
X83682Y4680D01*
X83729Y4664D01*
X83749Y4658D01*
X83765Y4655D01*
X83777Y4652D01*
X83779D01*
X83802Y4650D01*
X83826Y4647D01*
X83885Y4644D01*
X84432D01*
Y5305D01*
D02*
G37*
G36*
X82069Y6152D02*
X82044D01*
X81975Y6149D01*
X81908Y6138D01*
X81850Y6121D01*
X81800Y6104D01*
X81758Y6085D01*
X81742Y6077D01*
X81728Y6071D01*
X81714Y6063D01*
X81705Y6060D01*
X81703Y6054D01*
X81700D01*
X81647Y6016D01*
X81600Y5971D01*
X81558Y5927D01*
X81525Y5882D01*
X81500Y5843D01*
X81481Y5810D01*
X81475Y5799D01*
X81469Y5791D01*
X81467Y5785D01*
Y5782D01*
X81439Y5716D01*
X81420Y5644D01*
X81406Y5577D01*
X81397Y5513D01*
X81392Y5483D01*
X81389Y5458D01*
Y5433D01*
X81386Y5413D01*
Y5396D01*
Y5385D01*
Y5377D01*
Y5374D01*
X81389Y5308D01*
X81395Y5244D01*
X81403Y5183D01*
X81414Y5127D01*
X81431Y5077D01*
X81445Y5030D01*
X81461Y4986D01*
X81478Y4947D01*
X81497Y4913D01*
X81514Y4883D01*
X81528Y4858D01*
X81542Y4838D01*
X81556Y4822D01*
X81564Y4808D01*
X81569Y4802D01*
X81572Y4800D01*
X81608Y4763D01*
X81647Y4733D01*
X81686Y4708D01*
X81725Y4683D01*
X81764Y4664D01*
X81805Y4650D01*
X81841Y4636D01*
X81880Y4625D01*
X81914Y4616D01*
X81947Y4611D01*
X81975Y4605D01*
X82000Y4602D01*
X82019D01*
X82033Y4600D01*
X82047D01*
X82100Y4602D01*
X82150Y4608D01*
X82194Y4619D01*
X82239Y4630D01*
X82280Y4647D01*
X82319Y4664D01*
X82355Y4680D01*
X82388Y4700D01*
X82416Y4719D01*
X82441Y4736D01*
X82463Y4752D01*
X82483Y4769D01*
X82497Y4780D01*
X82508Y4791D01*
X82513Y4797D01*
X82516Y4800D01*
X82549Y4838D01*
X82577Y4880D01*
X82602Y4924D01*
X82624Y4969D01*
X82641Y5016D01*
X82658Y5061D01*
X82680Y5149D01*
X82685Y5188D01*
X82691Y5227D01*
X82697Y5260D01*
X82699Y5288D01*
X82702Y5313D01*
Y5333D01*
Y5344D01*
Y5346D01*
X82699Y5424D01*
X82694Y5496D01*
X82685Y5566D01*
X82672Y5627D01*
X82658Y5682D01*
X82641Y5732D01*
X82622Y5780D01*
X82605Y5818D01*
X82586Y5855D01*
X82569Y5885D01*
X82552Y5910D01*
X82538Y5929D01*
X82524Y5946D01*
X82516Y5957D01*
X82511Y5963D01*
X82508Y5966D01*
X82472Y5999D01*
X82433Y6027D01*
X82394Y6052D01*
X82352Y6074D01*
X82313Y6090D01*
X82275Y6107D01*
X82202Y6129D01*
X82169Y6135D01*
X82139Y6140D01*
X82114Y6146D01*
X82089Y6149D01*
X82069Y6152D01*
D02*
G37*
G36*
X19091Y13438D02*
X18766D01*
X18870Y13158D01*
X18883Y13123D01*
X18892Y13090D01*
X18902Y13059D01*
X18909Y13032D01*
X18915Y13008D01*
X18917Y12998D01*
X18919Y12989D01*
X18922Y12983D01*
Y12978D01*
X18923Y12975D01*
Y12974D01*
X18933Y13005D01*
X18944Y13039D01*
X18955Y13072D01*
X18966Y13104D01*
X18972Y13118D01*
X18976Y13132D01*
X18980Y13144D01*
X18984Y13154D01*
X18987Y13162D01*
X18990Y13169D01*
X18991Y13173D01*
Y13175D01*
X19091Y13438D01*
D02*
G37*
G36*
X16482D02*
X16158D01*
X16262Y13158D01*
X16274Y13123D01*
X16284Y13090D01*
X16294Y13059D01*
X16301Y13032D01*
X16306Y13008D01*
X16309Y12998D01*
X16310Y12989D01*
X16313Y12983D01*
Y12978D01*
X16314Y12975D01*
Y12974D01*
X16324Y13005D01*
X16335Y13039D01*
X16346Y13072D01*
X16357Y13104D01*
X16363Y13118D01*
X16367Y13132D01*
X16371Y13144D01*
X16375Y13154D01*
X16378Y13162D01*
X16381Y13169D01*
X16382Y13173D01*
Y13175D01*
X16482Y13438D01*
D02*
G37*
G36*
X13272Y13298D02*
X12986D01*
Y12980D01*
X13288D01*
X13326Y12982D01*
X13358Y12987D01*
X13385Y12994D01*
X13406Y13003D01*
X13424Y13011D01*
X13435Y13018D01*
X13442Y13023D01*
X13445Y13025D01*
X13462Y13043D01*
X13474Y13061D01*
X13482Y13080D01*
X13489Y13097D01*
X13492Y13114D01*
X13494Y13126D01*
X13495Y13134D01*
Y13136D01*
Y13137D01*
X13494Y13154D01*
X13491Y13170D01*
X13487Y13184D01*
X13482Y13197D01*
X13477Y13208D01*
X13473Y13216D01*
X13470Y13222D01*
X13469Y13223D01*
X13459Y13237D01*
X13446Y13250D01*
X13434Y13259D01*
X13421Y13268D01*
X13410Y13273D01*
X13402Y13277D01*
X13396Y13280D01*
X13394Y13281D01*
X13374Y13287D01*
X13352Y13291D01*
X13330Y13294D01*
X13308Y13295D01*
X13288Y13297D01*
X13272Y13298D01*
D02*
G37*
G36*
X23493Y13742D02*
X23486D01*
X23459Y13740D01*
X23434Y13738D01*
X23412Y13732D01*
X23390Y13727D01*
X23369Y13718D01*
X23350Y13710D01*
X23332Y13702D01*
X23315Y13692D01*
X23301Y13682D01*
X23289Y13674D01*
X23278Y13666D01*
X23268Y13657D01*
X23261Y13652D01*
X23256Y13646D01*
X23253Y13643D01*
X23251Y13642D01*
X23235Y13623D01*
X23221Y13602D01*
X23208Y13580D01*
X23197Y13557D01*
X23189Y13534D01*
X23181Y13512D01*
X23170Y13467D01*
X23167Y13448D01*
X23164Y13428D01*
X23161Y13412D01*
X23160Y13398D01*
X23158Y13385D01*
Y13376D01*
Y13370D01*
Y13369D01*
X23160Y13330D01*
X23163Y13294D01*
X23167Y13259D01*
X23174Y13229D01*
X23181Y13201D01*
X23189Y13176D01*
X23199Y13152D01*
X23207Y13133D01*
X23217Y13115D01*
X23225Y13100D01*
X23233Y13087D01*
X23240Y13078D01*
X23247Y13069D01*
X23251Y13064D01*
X23254Y13061D01*
X23256Y13059D01*
X23274Y13043D01*
X23293Y13029D01*
X23312Y13017D01*
X23333Y13005D01*
X23353Y12997D01*
X23372Y12989D01*
X23408Y12978D01*
X23425Y12975D01*
X23440Y12972D01*
X23452Y12969D01*
X23465Y12968D01*
X23475Y12967D01*
X23487D01*
X23522Y12968D01*
X23555Y12974D01*
X23584Y12982D01*
X23609Y12990D01*
X23630Y13000D01*
X23638Y13004D01*
X23645Y13007D01*
X23652Y13011D01*
X23656Y13012D01*
X23658Y13015D01*
X23659D01*
X23685Y13035D01*
X23709Y13057D01*
X23730Y13079D01*
X23746Y13101D01*
X23759Y13121D01*
X23769Y13137D01*
X23771Y13143D01*
X23774Y13147D01*
X23776Y13150D01*
Y13151D01*
X23789Y13184D01*
X23799Y13220D01*
X23806Y13254D01*
X23810Y13286D01*
X23813Y13301D01*
X23814Y13313D01*
Y13326D01*
X23816Y13335D01*
Y13344D01*
Y13349D01*
Y13354D01*
Y13355D01*
X23814Y13388D01*
X23812Y13420D01*
X23807Y13451D01*
X23802Y13478D01*
X23794Y13503D01*
X23787Y13527D01*
X23778Y13549D01*
X23770Y13568D01*
X23760Y13585D01*
X23752Y13600D01*
X23745Y13613D01*
X23738Y13623D01*
X23731Y13631D01*
X23727Y13638D01*
X23724Y13641D01*
X23723Y13642D01*
X23705Y13660D01*
X23685Y13675D01*
X23666Y13688D01*
X23647Y13700D01*
X23627Y13710D01*
X23606Y13717D01*
X23588Y13724D01*
X23569Y13729D01*
X23552Y13733D01*
X23536Y13736D01*
X23522Y13739D01*
X23509Y13740D01*
X23500D01*
X23493Y13742D01*
D02*
G37*
G36*
X21109D02*
X21102D01*
X21075Y13740D01*
X21050Y13738D01*
X21028Y13732D01*
X21006Y13727D01*
X20985Y13718D01*
X20966Y13710D01*
X20948Y13702D01*
X20931Y13692D01*
X20917Y13682D01*
X20905Y13674D01*
X20894Y13666D01*
X20884Y13657D01*
X20877Y13652D01*
X20872Y13646D01*
X20869Y13643D01*
X20867Y13642D01*
X20851Y13623D01*
X20837Y13602D01*
X20824Y13580D01*
X20813Y13557D01*
X20805Y13534D01*
X20797Y13512D01*
X20786Y13467D01*
X20783Y13448D01*
X20780Y13428D01*
X20777Y13412D01*
X20776Y13398D01*
X20774Y13385D01*
Y13376D01*
Y13370D01*
Y13369D01*
X20776Y13330D01*
X20779Y13294D01*
X20783Y13259D01*
X20790Y13229D01*
X20797Y13201D01*
X20805Y13176D01*
X20815Y13152D01*
X20823Y13133D01*
X20833Y13115D01*
X20841Y13100D01*
X20849Y13087D01*
X20856Y13078D01*
X20863Y13069D01*
X20867Y13064D01*
X20870Y13061D01*
X20872Y13059D01*
X20890Y13043D01*
X20909Y13029D01*
X20928Y13017D01*
X20949Y13005D01*
X20969Y12997D01*
X20988Y12989D01*
X21024Y12978D01*
X21041Y12975D01*
X21056Y12972D01*
X21068Y12969D01*
X21081Y12968D01*
X21091Y12967D01*
X21103D01*
X21138Y12968D01*
X21171Y12974D01*
X21200Y12982D01*
X21225Y12990D01*
X21246Y13000D01*
X21254Y13004D01*
X21261Y13007D01*
X21268Y13011D01*
X21272Y13012D01*
X21274Y13015D01*
X21275D01*
X21301Y13035D01*
X21325Y13057D01*
X21346Y13079D01*
X21362Y13101D01*
X21375Y13121D01*
X21385Y13137D01*
X21387Y13143D01*
X21390Y13147D01*
X21392Y13150D01*
Y13151D01*
X21405Y13184D01*
X21415Y13220D01*
X21422Y13254D01*
X21426Y13286D01*
X21429Y13301D01*
X21430Y13313D01*
Y13326D01*
X21432Y13335D01*
Y13344D01*
Y13349D01*
Y13354D01*
Y13355D01*
X21430Y13388D01*
X21428Y13420D01*
X21423Y13451D01*
X21418Y13478D01*
X21410Y13503D01*
X21403Y13527D01*
X21394Y13549D01*
X21386Y13568D01*
X21376Y13585D01*
X21368Y13600D01*
X21361Y13613D01*
X21354Y13623D01*
X21347Y13631D01*
X21343Y13638D01*
X21340Y13641D01*
X21339Y13642D01*
X21321Y13660D01*
X21301Y13675D01*
X21282Y13688D01*
X21263Y13700D01*
X21243Y13710D01*
X21222Y13717D01*
X21204Y13724D01*
X21185Y13729D01*
X21168Y13733D01*
X21152Y13736D01*
X21138Y13739D01*
X21125Y13740D01*
X21116D01*
X21109Y13742D01*
D02*
G37*
G36*
X12240D02*
X12233D01*
X12207Y13740D01*
X12182Y13738D01*
X12159Y13732D01*
X12137Y13727D01*
X12116Y13718D01*
X12097Y13710D01*
X12079Y13702D01*
X12062Y13692D01*
X12048Y13682D01*
X12036Y13674D01*
X12025Y13666D01*
X12015Y13657D01*
X12008Y13652D01*
X12003Y13646D01*
X12000Y13643D01*
X11999Y13642D01*
X11982Y13623D01*
X11968Y13602D01*
X11956Y13580D01*
X11944Y13557D01*
X11936Y13534D01*
X11928Y13512D01*
X11917Y13467D01*
X11914Y13448D01*
X11911Y13428D01*
X11908Y13412D01*
X11907Y13398D01*
X11906Y13385D01*
Y13376D01*
Y13370D01*
Y13369D01*
X11907Y13330D01*
X11910Y13294D01*
X11914Y13259D01*
X11921Y13229D01*
X11928Y13201D01*
X11936Y13176D01*
X11946Y13152D01*
X11954Y13133D01*
X11964Y13115D01*
X11972Y13100D01*
X11980Y13087D01*
X11987Y13078D01*
X11994Y13069D01*
X11999Y13064D01*
X12001Y13061D01*
X12003Y13059D01*
X12021Y13043D01*
X12040Y13029D01*
X12060Y13017D01*
X12080Y13005D01*
X12100Y12997D01*
X12119Y12989D01*
X12155Y12978D01*
X12172Y12975D01*
X12187Y12972D01*
X12200Y12969D01*
X12212Y12968D01*
X12222Y12967D01*
X12234D01*
X12269Y12968D01*
X12302Y12974D01*
X12331Y12982D01*
X12356Y12990D01*
X12377Y13000D01*
X12385Y13004D01*
X12392Y13007D01*
X12399Y13011D01*
X12403Y13012D01*
X12405Y13015D01*
X12406D01*
X12433Y13035D01*
X12456Y13057D01*
X12477Y13079D01*
X12494Y13101D01*
X12506Y13121D01*
X12516Y13137D01*
X12519Y13143D01*
X12521Y13147D01*
X12523Y13150D01*
Y13151D01*
X12537Y13184D01*
X12546Y13220D01*
X12553Y13254D01*
X12557Y13286D01*
X12560Y13301D01*
X12562Y13313D01*
Y13326D01*
X12563Y13335D01*
Y13344D01*
Y13349D01*
Y13354D01*
Y13355D01*
X12562Y13388D01*
X12559Y13420D01*
X12555Y13451D01*
X12549Y13478D01*
X12541Y13503D01*
X12534Y13527D01*
X12526Y13549D01*
X12517Y13568D01*
X12507Y13585D01*
X12499Y13600D01*
X12492Y13613D01*
X12485Y13623D01*
X12478Y13631D01*
X12474Y13638D01*
X12471Y13641D01*
X12470Y13642D01*
X12452Y13660D01*
X12433Y13675D01*
X12413Y13688D01*
X12394Y13700D01*
X12374Y13710D01*
X12354Y13717D01*
X12336Y13724D01*
X12316Y13729D01*
X12299Y13733D01*
X12283Y13736D01*
X12269Y13739D01*
X12256Y13740D01*
X12247D01*
X12240Y13742D01*
D02*
G37*
G36*
X28064Y15988D02*
X27739D01*
X27843Y15708D01*
X27856Y15673D01*
X27866Y15640D01*
X27875Y15609D01*
X27882Y15582D01*
X27888Y15558D01*
X27891Y15548D01*
X27892Y15539D01*
X27895Y15533D01*
Y15528D01*
X27896Y15525D01*
Y15524D01*
X27906Y15555D01*
X27917Y15589D01*
X27928Y15622D01*
X27939Y15654D01*
X27945Y15668D01*
X27949Y15682D01*
X27953Y15694D01*
X27957Y15704D01*
X27960Y15712D01*
X27963Y15719D01*
X27964Y15723D01*
Y15725D01*
X28064Y15988D01*
D02*
G37*
G36*
X14279Y15988D02*
X13954D01*
X14058Y15708D01*
X14071Y15673D01*
X14080Y15640D01*
X14090Y15609D01*
X14097Y15582D01*
X14103Y15558D01*
X14105Y15548D01*
X14107Y15539D01*
X14110Y15533D01*
Y15528D01*
X14111Y15525D01*
Y15524D01*
X14121Y15555D01*
X14132Y15589D01*
X14143Y15622D01*
X14154Y15654D01*
X14160Y15668D01*
X14164Y15682D01*
X14168Y15694D01*
X14172Y15704D01*
X14175Y15712D01*
X14178Y15719D01*
X14179Y15723D01*
Y15725D01*
X14279Y15988D01*
D02*
G37*
G36*
X25227Y15848D02*
X24941D01*
Y15530D01*
X25243D01*
X25281Y15532D01*
X25312Y15537D01*
X25340Y15544D01*
X25361Y15553D01*
X25379Y15561D01*
X25390Y15568D01*
X25397Y15573D01*
X25400Y15575D01*
X25417Y15593D01*
X25429Y15611D01*
X25437Y15630D01*
X25444Y15647D01*
X25447Y15664D01*
X25448Y15676D01*
X25450Y15684D01*
Y15686D01*
Y15687D01*
X25448Y15704D01*
X25446Y15720D01*
X25441Y15734D01*
X25437Y15747D01*
X25432Y15758D01*
X25428Y15766D01*
X25425Y15772D01*
X25423Y15773D01*
X25414Y15787D01*
X25401Y15800D01*
X25389Y15809D01*
X25376Y15818D01*
X25365Y15823D01*
X25357Y15827D01*
X25351Y15830D01*
X25349Y15831D01*
X25329Y15837D01*
X25307Y15841D01*
X25285Y15844D01*
X25263Y15845D01*
X25243Y15847D01*
X25227Y15848D01*
D02*
G37*
G36*
X23885D02*
X23600D01*
Y15530D01*
X23902D01*
X23940Y15532D01*
X23971Y15537D01*
X23999Y15544D01*
X24020Y15553D01*
X24038Y15561D01*
X24049Y15568D01*
X24056Y15573D01*
X24059Y15575D01*
X24075Y15593D01*
X24088Y15611D01*
X24096Y15630D01*
X24103Y15647D01*
X24106Y15664D01*
X24107Y15676D01*
X24109Y15684D01*
Y15686D01*
Y15687D01*
X24107Y15704D01*
X24105Y15720D01*
X24100Y15734D01*
X24096Y15747D01*
X24091Y15758D01*
X24087Y15766D01*
X24084Y15772D01*
X24082Y15773D01*
X24073Y15787D01*
X24060Y15800D01*
X24048Y15809D01*
X24035Y15818D01*
X24024Y15823D01*
X24016Y15827D01*
X24010Y15830D01*
X24007Y15831D01*
X23988Y15837D01*
X23966Y15841D01*
X23944Y15844D01*
X23921Y15845D01*
X23902Y15847D01*
X23885Y15848D01*
D02*
G37*
G36*
X16882Y15848D02*
X16596D01*
Y15530D01*
X16899D01*
X16936Y15532D01*
X16968Y15537D01*
X16996Y15544D01*
X17016Y15553D01*
X17034Y15561D01*
X17046Y15568D01*
X17052Y15573D01*
X17055Y15575D01*
X17072Y15593D01*
X17084Y15611D01*
X17093Y15630D01*
X17100Y15647D01*
X17102Y15664D01*
X17104Y15676D01*
X17105Y15684D01*
Y15686D01*
Y15687D01*
X17104Y15704D01*
X17101Y15720D01*
X17097Y15734D01*
X17093Y15747D01*
X17087Y15758D01*
X17083Y15766D01*
X17080Y15772D01*
X17079Y15773D01*
X17069Y15787D01*
X17057Y15800D01*
X17044Y15809D01*
X17032Y15818D01*
X17021Y15823D01*
X17012Y15827D01*
X17007Y15830D01*
X17004Y15831D01*
X16985Y15837D01*
X16962Y15841D01*
X16940Y15844D01*
X16918Y15845D01*
X16899Y15847D01*
X16882Y15848D01*
D02*
G37*
G36*
X20622Y16270D02*
X20395D01*
Y15537D01*
X20617D01*
X20635Y15539D01*
X20653D01*
X20669Y15540D01*
X20697Y15544D01*
X20719Y15547D01*
X20737Y15551D01*
X20750Y15555D01*
X20757Y15557D01*
X20760Y15558D01*
X20784Y15571D01*
X20808Y15586D01*
X20829Y15604D01*
X20847Y15622D01*
X20861Y15639D01*
X20872Y15652D01*
X20875Y15658D01*
X20877Y15662D01*
X20880Y15665D01*
Y15666D01*
X20888Y15682D01*
X20897Y15700D01*
X20909Y15736D01*
X20918Y15775D01*
X20925Y15812D01*
X20926Y15829D01*
X20927Y15845D01*
X20929Y15859D01*
Y15872D01*
X20930Y15883D01*
Y15890D01*
Y15895D01*
Y15897D01*
X20929Y15935D01*
X20926Y15971D01*
X20922Y16003D01*
X20918Y16031D01*
X20915Y16042D01*
X20912Y16052D01*
X20909Y16062D01*
X20908Y16069D01*
X20906Y16074D01*
X20905Y16078D01*
X20904Y16081D01*
Y16082D01*
X20894Y16109D01*
X20883Y16132D01*
X20870Y16153D01*
X20859Y16171D01*
X20850Y16185D01*
X20841Y16195D01*
X20836Y16200D01*
X20834Y16203D01*
X20821Y16214D01*
X20807Y16224D01*
X20793Y16232D01*
X20779Y16241D01*
X20766Y16246D01*
X20757Y16250D01*
X20750Y16252D01*
X20747Y16253D01*
X20726Y16259D01*
X20701Y16263D01*
X20676Y16265D01*
X20653Y16267D01*
X20632Y16268D01*
X20622Y16270D01*
D02*
G37*
G36*
X15958Y15880D02*
X15700D01*
Y15537D01*
X15975D01*
X16000Y15539D01*
X16021Y15540D01*
X16037Y15542D01*
X16048Y15544D01*
X16057Y15546D01*
X16062Y15547D01*
X16064D01*
X16082Y15554D01*
X16097Y15562D01*
X16111Y15571D01*
X16123Y15580D01*
X16132Y15590D01*
X16139Y15597D01*
X16143Y15603D01*
X16144Y15604D01*
X16154Y15621D01*
X16162Y15637D01*
X16168Y15655D01*
X16170Y15671D01*
X16173Y15684D01*
X16175Y15697D01*
Y15704D01*
Y15705D01*
Y15707D01*
X16172Y15736D01*
X16166Y15761D01*
X16158Y15783D01*
X16148Y15801D01*
X16139Y15815D01*
X16130Y15826D01*
X16125Y15831D01*
X16122Y15834D01*
X16112Y15842D01*
X16100Y15849D01*
X16073Y15861D01*
X16044Y15869D01*
X16015Y15874D01*
X15989Y15877D01*
X15978Y15879D01*
X15968D01*
X15958Y15880D01*
D02*
G37*
G36*
X15064D02*
X14806D01*
Y15537D01*
X15080D01*
X15105Y15539D01*
X15126Y15540D01*
X15143Y15542D01*
X15154Y15544D01*
X15162Y15546D01*
X15168Y15547D01*
X15169D01*
X15187Y15554D01*
X15202Y15562D01*
X15216Y15571D01*
X15229Y15580D01*
X15237Y15590D01*
X15244Y15597D01*
X15248Y15603D01*
X15250Y15604D01*
X15259Y15621D01*
X15268Y15637D01*
X15273Y15655D01*
X15276Y15671D01*
X15279Y15684D01*
X15280Y15697D01*
Y15704D01*
Y15705D01*
Y15707D01*
X15277Y15736D01*
X15272Y15761D01*
X15263Y15783D01*
X15254Y15801D01*
X15244Y15815D01*
X15236Y15826D01*
X15230Y15831D01*
X15227Y15834D01*
X15218Y15842D01*
X15205Y15849D01*
X15179Y15861D01*
X15150Y15869D01*
X15121Y15874D01*
X15094Y15877D01*
X15083Y15879D01*
X15073D01*
X15064Y15880D01*
D02*
G37*
G36*
X22854Y16292D02*
X22847D01*
X22820Y16290D01*
X22795Y16288D01*
X22773Y16282D01*
X22751Y16277D01*
X22730Y16268D01*
X22711Y16260D01*
X22693Y16252D01*
X22676Y16242D01*
X22662Y16232D01*
X22650Y16224D01*
X22639Y16216D01*
X22629Y16207D01*
X22622Y16202D01*
X22616Y16196D01*
X22614Y16193D01*
X22612Y16192D01*
X22596Y16173D01*
X22582Y16152D01*
X22569Y16130D01*
X22558Y16107D01*
X22550Y16084D01*
X22542Y16062D01*
X22530Y16017D01*
X22528Y15998D01*
X22525Y15978D01*
X22522Y15962D01*
X22521Y15948D01*
X22519Y15935D01*
Y15926D01*
Y15920D01*
Y15919D01*
X22521Y15880D01*
X22524Y15844D01*
X22528Y15809D01*
X22535Y15779D01*
X22542Y15751D01*
X22550Y15726D01*
X22560Y15702D01*
X22568Y15683D01*
X22578Y15665D01*
X22586Y15650D01*
X22594Y15637D01*
X22601Y15628D01*
X22608Y15619D01*
X22612Y15614D01*
X22615Y15611D01*
X22616Y15609D01*
X22635Y15593D01*
X22654Y15579D01*
X22673Y15567D01*
X22694Y15555D01*
X22714Y15547D01*
X22733Y15539D01*
X22769Y15528D01*
X22786Y15525D01*
X22801Y15522D01*
X22813Y15519D01*
X22826Y15518D01*
X22836Y15517D01*
X22848D01*
X22883Y15518D01*
X22916Y15524D01*
X22945Y15532D01*
X22970Y15540D01*
X22991Y15550D01*
X22999Y15554D01*
X23006Y15557D01*
X23013Y15561D01*
X23017Y15562D01*
X23019Y15565D01*
X23020D01*
X23046Y15585D01*
X23070Y15607D01*
X23091Y15629D01*
X23107Y15651D01*
X23120Y15671D01*
X23130Y15687D01*
X23132Y15693D01*
X23135Y15697D01*
X23137Y15700D01*
Y15701D01*
X23150Y15734D01*
X23160Y15770D01*
X23167Y15804D01*
X23171Y15836D01*
X23174Y15851D01*
X23175Y15863D01*
Y15876D01*
X23177Y15885D01*
Y15894D01*
Y15899D01*
Y15904D01*
Y15905D01*
X23175Y15938D01*
X23173Y15970D01*
X23168Y16001D01*
X23163Y16028D01*
X23155Y16053D01*
X23148Y16077D01*
X23139Y16099D01*
X23131Y16118D01*
X23121Y16135D01*
X23113Y16150D01*
X23106Y16163D01*
X23099Y16173D01*
X23092Y16181D01*
X23088Y16188D01*
X23085Y16191D01*
X23084Y16192D01*
X23066Y16210D01*
X23046Y16225D01*
X23027Y16238D01*
X23008Y16250D01*
X22988Y16260D01*
X22967Y16267D01*
X22949Y16274D01*
X22930Y16279D01*
X22913Y16284D01*
X22897Y16286D01*
X22883Y16289D01*
X22870Y16290D01*
X22861D01*
X22854Y16292D01*
D02*
G37*
G36*
X17861Y16292D02*
X17854D01*
X17828Y16290D01*
X17803Y16288D01*
X17781Y16282D01*
X17758Y16277D01*
X17738Y16268D01*
X17718Y16260D01*
X17700Y16252D01*
X17683Y16242D01*
X17670Y16232D01*
X17657Y16224D01*
X17646Y16216D01*
X17636Y16207D01*
X17629Y16202D01*
X17624Y16196D01*
X17621Y16193D01*
X17620Y16192D01*
X17603Y16173D01*
X17589Y16152D01*
X17577Y16130D01*
X17566Y16107D01*
X17557Y16084D01*
X17549Y16062D01*
X17538Y16017D01*
X17535Y15998D01*
X17532Y15978D01*
X17530Y15962D01*
X17528Y15948D01*
X17527Y15935D01*
Y15926D01*
Y15920D01*
Y15919D01*
X17528Y15880D01*
X17531Y15844D01*
X17535Y15809D01*
X17542Y15779D01*
X17549Y15751D01*
X17557Y15726D01*
X17567Y15702D01*
X17575Y15683D01*
X17585Y15665D01*
X17593Y15650D01*
X17602Y15637D01*
X17609Y15628D01*
X17616Y15619D01*
X17620Y15614D01*
X17622Y15611D01*
X17624Y15609D01*
X17642Y15593D01*
X17661Y15579D01*
X17681Y15567D01*
X17702Y15555D01*
X17721Y15547D01*
X17740Y15539D01*
X17776Y15528D01*
X17793Y15525D01*
X17808Y15522D01*
X17821Y15519D01*
X17833Y15518D01*
X17843Y15517D01*
X17855D01*
X17890Y15518D01*
X17923Y15524D01*
X17953Y15532D01*
X17978Y15540D01*
X17998Y15550D01*
X18007Y15554D01*
X18014Y15557D01*
X18020Y15561D01*
X18025Y15562D01*
X18026Y15565D01*
X18027D01*
X18054Y15585D01*
X18077Y15607D01*
X18098Y15629D01*
X18115Y15651D01*
X18127Y15671D01*
X18137Y15687D01*
X18140Y15693D01*
X18143Y15697D01*
X18144Y15700D01*
Y15701D01*
X18158Y15734D01*
X18167Y15770D01*
X18174Y15804D01*
X18179Y15836D01*
X18181Y15851D01*
X18183Y15863D01*
Y15876D01*
X18184Y15885D01*
Y15894D01*
Y15899D01*
Y15904D01*
Y15905D01*
X18183Y15938D01*
X18180Y15970D01*
X18176Y16001D01*
X18170Y16028D01*
X18162Y16053D01*
X18155Y16077D01*
X18147Y16099D01*
X18138Y16118D01*
X18129Y16135D01*
X18120Y16150D01*
X18113Y16163D01*
X18106Y16173D01*
X18100Y16181D01*
X18095Y16188D01*
X18093Y16191D01*
X18091Y16192D01*
X18073Y16210D01*
X18054Y16225D01*
X18034Y16238D01*
X18015Y16250D01*
X17996Y16260D01*
X17975Y16267D01*
X17957Y16274D01*
X17937Y16279D01*
X17921Y16284D01*
X17904Y16286D01*
X17890Y16289D01*
X17878Y16290D01*
X17868D01*
X17861Y16292D01*
D02*
G37*
G36*
X8845D02*
X8838D01*
X8812Y16290D01*
X8787Y16288D01*
X8765Y16282D01*
X8743Y16277D01*
X8722Y16268D01*
X8702Y16260D01*
X8684Y16252D01*
X8668Y16242D01*
X8654Y16232D01*
X8641Y16224D01*
X8630Y16216D01*
X8620Y16207D01*
X8614Y16202D01*
X8608Y16196D01*
X8605Y16193D01*
X8604Y16192D01*
X8587Y16173D01*
X8573Y16152D01*
X8561Y16130D01*
X8550Y16107D01*
X8541Y16084D01*
X8533Y16062D01*
X8522Y16017D01*
X8519Y15998D01*
X8516Y15978D01*
X8514Y15962D01*
X8512Y15948D01*
X8511Y15935D01*
Y15926D01*
Y15920D01*
Y15919D01*
X8512Y15880D01*
X8515Y15844D01*
X8519Y15809D01*
X8526Y15779D01*
X8533Y15751D01*
X8541Y15726D01*
X8551Y15702D01*
X8559Y15683D01*
X8569Y15665D01*
X8577Y15650D01*
X8586Y15637D01*
X8593Y15628D01*
X8600Y15619D01*
X8604Y15614D01*
X8607Y15611D01*
X8608Y15609D01*
X8626Y15593D01*
X8645Y15579D01*
X8665Y15567D01*
X8686Y15555D01*
X8705Y15547D01*
X8724Y15539D01*
X8761Y15528D01*
X8777Y15525D01*
X8792Y15522D01*
X8805Y15519D01*
X8817Y15518D01*
X8827Y15517D01*
X8840D01*
X8874Y15518D01*
X8908Y15524D01*
X8937Y15532D01*
X8962Y15540D01*
X8982Y15550D01*
X8991Y15554D01*
X8998Y15557D01*
X9005Y15561D01*
X9009Y15562D01*
X9010Y15565D01*
X9012D01*
X9038Y15585D01*
X9061Y15607D01*
X9082Y15629D01*
X9099Y15651D01*
X9111Y15671D01*
X9121Y15687D01*
X9124Y15693D01*
X9127Y15697D01*
X9128Y15700D01*
Y15701D01*
X9142Y15734D01*
X9152Y15770D01*
X9159Y15804D01*
X9163Y15836D01*
X9166Y15851D01*
X9167Y15863D01*
Y15876D01*
X9168Y15885D01*
Y15894D01*
Y15899D01*
Y15904D01*
Y15905D01*
X9167Y15938D01*
X9164Y15970D01*
X9160Y16001D01*
X9154Y16028D01*
X9146Y16053D01*
X9139Y16077D01*
X9131Y16099D01*
X9123Y16118D01*
X9113Y16135D01*
X9104Y16150D01*
X9098Y16163D01*
X9091Y16173D01*
X9084Y16181D01*
X9080Y16188D01*
X9077Y16191D01*
X9075Y16192D01*
X9057Y16210D01*
X9038Y16225D01*
X9019Y16238D01*
X8999Y16250D01*
X8980Y16260D01*
X8959Y16267D01*
X8941Y16274D01*
X8921Y16279D01*
X8905Y16284D01*
X8888Y16286D01*
X8874Y16289D01*
X8862Y16290D01*
X8852D01*
X8845Y16292D01*
D02*
G37*
G36*
X20788Y26550D02*
X20483D01*
D01*
X20788D01*
D02*
G37*
G36*
X28290Y26550D02*
X27937D01*
X27978D01*
X27924Y26196D01*
X27290D01*
X27098Y26550D01*
X26760D01*
X27660Y24949D01*
X28033D01*
X28290Y26550D01*
D02*
G37*
G36*
X24391Y26580D02*
X24377D01*
X24363Y26578D01*
X24342D01*
X24317Y26575D01*
X24289Y26571D01*
X24257Y26566D01*
X24224Y26557D01*
X24187Y26548D01*
X24150Y26536D01*
X24111Y26522D01*
X24074Y26506D01*
X24035Y26485D01*
X23998Y26462D01*
X23963Y26434D01*
X23930Y26404D01*
X23928Y26402D01*
X23923Y26395D01*
X23914Y26386D01*
X23905Y26372D01*
X23893Y26353D01*
X23880Y26330D01*
X23863Y26302D01*
X23849Y26272D01*
X23833Y26238D01*
X23817Y26201D01*
X23803Y26157D01*
X23792Y26110D01*
X23782Y26062D01*
X23773Y26006D01*
X23768Y25951D01*
X23766Y25888D01*
Y25860D01*
X23768Y25842D01*
Y25819D01*
X23773Y25789D01*
X23775Y25759D01*
X23780Y25724D01*
X23785Y25687D01*
X23794Y25645D01*
X23812Y25562D01*
X23840Y25474D01*
X23856Y25432D01*
X23875Y25388D01*
X23877Y25386D01*
X23880Y25379D01*
X23886Y25368D01*
X23896Y25351D01*
X23907Y25333D01*
X23921Y25310D01*
X23937Y25287D01*
X23956Y25259D01*
X24000Y25203D01*
X24051Y25145D01*
X24113Y25090D01*
X24148Y25064D01*
X24183Y25041D01*
X24185Y25039D01*
X24192Y25037D01*
X24203Y25030D01*
X24217Y25023D01*
X24236Y25014D01*
X24257Y25002D01*
X24282Y24990D01*
X24310Y24979D01*
X24340Y24970D01*
X24375Y24958D01*
X24446Y24937D01*
X24525Y24923D01*
X24567Y24921D01*
X24611Y24919D01*
X23766D01*
X25222D01*
X24636D01*
X24655Y24921D01*
X24676Y24923D01*
X24701Y24926D01*
X24731Y24930D01*
X24761Y24937D01*
X24828Y24953D01*
X24863Y24965D01*
X24898Y24979D01*
X24935Y24995D01*
X24967Y25014D01*
X25002Y25034D01*
X25032Y25060D01*
X25034Y25062D01*
X25039Y25067D01*
X25046Y25074D01*
X25057Y25085D01*
X25069Y25099D01*
X25085Y25115D01*
X25099Y25136D01*
X25115Y25159D01*
X25131Y25185D01*
X25148Y25213D01*
X25164Y25245D01*
X25180Y25277D01*
X25194Y25314D01*
X25205Y25354D01*
X25215Y25395D01*
X25222Y25439D01*
X24907Y25469D01*
Y25467D01*
X24905Y25462D01*
Y25456D01*
X24902Y25446D01*
X24895Y25423D01*
X24884Y25393D01*
X24870Y25358D01*
X24851Y25326D01*
X24831Y25294D01*
X24805Y25268D01*
X24803Y25266D01*
X24791Y25259D01*
X24775Y25247D01*
X24752Y25236D01*
X24724Y25224D01*
X24689Y25213D01*
X24650Y25206D01*
X24606Y25203D01*
X24592D01*
X24583Y25206D01*
X24558Y25208D01*
X24523Y25215D01*
X24483Y25224D01*
X24442Y25240D01*
X24396Y25261D01*
X24352Y25289D01*
X24349D01*
X24347Y25294D01*
X24333Y25305D01*
X24310Y25324D01*
X24284Y25354D01*
X24254Y25388D01*
X24222Y25435D01*
X24190Y25488D01*
X24162Y25550D01*
Y25553D01*
X24160Y25557D01*
X24155Y25567D01*
X24150Y25580D01*
X24146Y25597D01*
X24141Y25615D01*
X24134Y25636D01*
X24127Y25659D01*
X24116Y25712D01*
X24104Y25773D01*
X24095Y25837D01*
X24092Y25902D01*
Y25904D01*
Y25911D01*
Y25921D01*
X24095Y25934D01*
Y25951D01*
X24097Y25969D01*
X24104Y26011D01*
X24116Y26059D01*
X24129Y26108D01*
X24153Y26157D01*
X24183Y26201D01*
X24187Y26205D01*
X24199Y26217D01*
X24220Y26233D01*
X24245Y26251D01*
X24280Y26272D01*
X24319Y26289D01*
X24363Y26300D01*
X24386Y26302D01*
X24412Y26305D01*
X24423D01*
X24433Y26302D01*
X24458Y26300D01*
X24488Y26295D01*
X24525Y26284D01*
X24564Y26270D01*
X24604Y26251D01*
X24645Y26224D01*
X24648D01*
X24650Y26219D01*
X24664Y26208D01*
X24682Y26189D01*
X24706Y26161D01*
X24731Y26127D01*
X24759Y26085D01*
X24782Y26034D01*
X24805Y25976D01*
X25138Y26027D01*
Y26029D01*
X25134Y26039D01*
X25129Y26053D01*
X25120Y26071D01*
X25108Y26094D01*
X25097Y26120D01*
X25083Y26150D01*
X25064Y26180D01*
X25023Y26247D01*
X24972Y26314D01*
X24914Y26381D01*
X24879Y26411D01*
X24844Y26439D01*
X24842Y26441D01*
X24835Y26446D01*
X24826Y26453D01*
X24810Y26460D01*
X24791Y26471D01*
X24770Y26483D01*
X24743Y26497D01*
X24715Y26508D01*
X24682Y26522D01*
X24648Y26536D01*
X24611Y26548D01*
X24571Y26557D01*
X24530Y26566D01*
X24486Y26573D01*
X24439Y26578D01*
X24391Y26580D01*
D02*
G37*
G36*
X22919D02*
X22898Y26580D01*
X22885Y26578D01*
X22868Y26575D01*
X22847Y26573D01*
X22824Y26569D01*
X22799Y26564D01*
X22746Y26548D01*
X22690Y26525D01*
X22662Y26511D01*
X22635Y26492D01*
X22607Y26474D01*
X22581Y26451D01*
X22579Y26448D01*
X22577Y26444D01*
X22570Y26437D01*
X22561Y26427D01*
X22551Y26413D01*
X22540Y26397D01*
X22528Y26379D01*
X22517Y26356D01*
X22503Y26332D01*
X22491Y26307D01*
X22480Y26277D01*
X22470Y26245D01*
X22461Y26212D01*
X22454Y26175D01*
X22452Y26138D01*
X22449Y26096D01*
X22755Y26069D01*
Y26073D01*
Y26083D01*
X22753Y26094D01*
Y26103D01*
Y26106D01*
Y26108D01*
Y26122D01*
X22755Y26140D01*
X22760Y26166D01*
X22764Y26194D01*
X22773Y26221D01*
X22785Y26247D01*
X22801Y26270D01*
X22804Y26272D01*
X22810Y26279D01*
X22822Y26286D01*
X22836Y26295D01*
X22854Y26307D01*
X22878Y26314D01*
X22903Y26321D01*
X22931Y26323D01*
X22935D01*
X22949Y26321D01*
X22972Y26319D01*
X22998Y26309D01*
X23030Y26298D01*
X23065Y26279D01*
X23100Y26251D01*
X23118Y26235D01*
X23134Y26217D01*
Y26214D01*
X23139Y26212D01*
X23144Y26205D01*
X23148Y26196D01*
X23155Y26187D01*
X23165Y26173D01*
X23181Y26140D01*
X23197Y26099D01*
X23213Y26048D01*
X23222Y25988D01*
X23227Y25921D01*
Y25918D01*
Y25916D01*
Y25902D01*
X23225Y25881D01*
X23220Y25858D01*
X23213Y25830D01*
X23204Y25803D01*
X23192Y25775D01*
X23174Y25752D01*
X23171Y25749D01*
X23165Y25742D01*
X23153Y25733D01*
X23137Y25722D01*
X23118Y25712D01*
X23095Y25703D01*
X23067Y25696D01*
X23037Y25694D01*
X23026D01*
X23014Y25696D01*
X22998Y25698D01*
X22979Y25701D01*
X22961Y25705D01*
X22938Y25715D01*
X22917Y25724D01*
X22915Y25726D01*
X22908Y25729D01*
X22896Y25735D01*
X22882Y25745D01*
X22866Y25756D01*
X22847Y25773D01*
X22829Y25789D01*
X22808Y25810D01*
X22551Y25791D01*
X22794Y24970D01*
X22449D01*
X23602Y24970D01*
X23542Y25257D01*
X23007D01*
X22935Y25504D01*
X22938D01*
X22942Y25499D01*
X22952Y25497D01*
X22963Y25493D01*
X22993Y25483D01*
X23026Y25474D01*
X23028D01*
X23033Y25472D01*
X23042Y25469D01*
X23056Y25467D01*
X23084Y25465D01*
X23118Y25462D01*
X23137D01*
X23148Y25465D01*
X23165Y25467D01*
X23183Y25469D01*
X23225Y25479D01*
X23271Y25493D01*
X23322Y25516D01*
X23347Y25530D01*
X23373Y25546D01*
X23396Y25564D01*
X23419Y25587D01*
X23421Y25590D01*
X23424Y25592D01*
X23431Y25599D01*
X23438Y25611D01*
X23447Y25622D01*
X23456Y25636D01*
X23468Y25655D01*
X23479Y25675D01*
X23491Y25696D01*
X23502Y25722D01*
X23512Y25749D01*
X23521Y25779D01*
X23535Y25844D01*
X23537Y25881D01*
X23539Y25918D01*
Y25921D01*
Y25925D01*
Y25934D01*
X23537Y25946D01*
Y25962D01*
X23535Y25978D01*
X23532Y25999D01*
X23530Y26022D01*
X23519Y26071D01*
X23505Y26127D01*
X23484Y26187D01*
X23456Y26247D01*
Y26249D01*
X23451Y26254D01*
X23447Y26263D01*
X23440Y26272D01*
X23433Y26286D01*
X23421Y26302D01*
X23396Y26339D01*
X23364Y26379D01*
X23324Y26420D01*
X23278Y26460D01*
X23225Y26494D01*
X23222D01*
X23218Y26499D01*
X23211Y26501D01*
X23199Y26508D01*
X23185Y26515D01*
X23169Y26522D01*
X23132Y26536D01*
X23086Y26552D01*
X23035Y26566D01*
X22979Y26575D01*
X22919Y26580D01*
D02*
G37*
G36*
X26758Y26550D02*
Y25363D01*
X26753Y25386D01*
X26749Y25418D01*
X26740Y25453D01*
X26726Y25493D01*
X26707Y25532D01*
X26682Y25571D01*
X26679Y25576D01*
X26668Y25587D01*
X26649Y25604D01*
X26626Y25627D01*
X26594Y25650D01*
X26554Y25675D01*
X26508Y25698D01*
X26453Y25719D01*
X26455D01*
X26457Y25722D01*
X26464Y25724D01*
X26473Y25726D01*
X26497Y25733D01*
X26524Y25747D01*
X26554Y25763D01*
X26587Y25784D01*
X26619Y25810D01*
X26647Y25840D01*
X26649Y25844D01*
X26659Y25854D01*
X26670Y25872D01*
X26682Y25895D01*
X26696Y25925D01*
X26705Y25958D01*
X26714Y25995D01*
X26716Y26034D01*
Y26036D01*
Y26041D01*
Y26048D01*
X26714Y26059D01*
Y26071D01*
X26712Y26087D01*
X26707Y26122D01*
X26696Y26166D01*
X26682Y26212D01*
X26661Y26261D01*
X26633Y26309D01*
Y26312D01*
X26628Y26314D01*
X26624Y26321D01*
X26619Y26330D01*
X26601Y26353D01*
X26575Y26381D01*
X26543Y26411D01*
X26504Y26441D01*
X26457Y26469D01*
X26406Y26494D01*
X26404D01*
X26399Y26497D01*
X26392Y26499D01*
X26381Y26504D01*
X26365Y26508D01*
X26348Y26513D01*
X26328Y26518D01*
X26305Y26522D01*
X26277Y26527D01*
X26247Y26531D01*
X26214Y26536D01*
X26180Y26541D01*
X26143Y26545D01*
X26101Y26548D01*
X26059Y26550D01*
X25259D01*
X25594Y24949D01*
X25259D01*
X26200D01*
X26237Y24951D01*
X26279D01*
X26321Y24953D01*
X26358Y24956D01*
X26376Y24958D01*
X26390Y24960D01*
X26395D01*
X26411Y24963D01*
X26432Y24967D01*
X26460Y24974D01*
X26490Y24983D01*
X26524Y24995D01*
X26557Y25009D01*
X26589Y25027D01*
X26594Y25030D01*
X26603Y25037D01*
X26617Y25048D01*
X26635Y25062D01*
X26656Y25081D01*
X26677Y25104D01*
X26698Y25129D01*
X26714Y25159D01*
X26716Y25164D01*
X26721Y25173D01*
X26728Y25189D01*
X26737Y25213D01*
X26744Y25238D01*
X26751Y25270D01*
X26756Y25303D01*
X26758Y25340D01*
Y24949D01*
D01*
D01*
Y26550D01*
D02*
G37*
G36*
X22341Y26550D02*
X21200D01*
Y26548D01*
Y26545D01*
X21202Y26538D01*
Y26529D01*
X21207Y26506D01*
X21214Y26478D01*
X21223Y26444D01*
X21235Y26407D01*
X21237Y26400D01*
X21249Y26365D01*
X21267Y26326D01*
Y26323D01*
X21269Y26321D01*
X21276Y26307D01*
X21288Y26286D01*
X21304Y26261D01*
X21325Y26231D01*
X21348Y26198D01*
X21374Y26164D01*
X21401Y26129D01*
X21406Y26124D01*
X21417Y26110D01*
X21427Y26101D01*
X21438Y26090D01*
X21452Y26073D01*
X21468Y26057D01*
X21487Y26036D01*
X21510Y26015D01*
X21533Y25990D01*
X21561Y25965D01*
X21591Y25934D01*
X21623Y25902D01*
X21658Y25867D01*
X21697Y25830D01*
X21700Y25828D01*
X21704Y25823D01*
X21714Y25816D01*
X21723Y25805D01*
X21751Y25779D01*
X21783Y25747D01*
X21818Y25712D01*
X21853Y25680D01*
X21880Y25650D01*
X21892Y25638D01*
X21901Y25629D01*
X21903Y25624D01*
X21913Y25615D01*
X21927Y25599D01*
X21943Y25578D01*
X21961Y25555D01*
X21977Y25530D01*
X21994Y25504D01*
X22005Y25481D01*
X22008Y25479D01*
X22010Y25469D01*
X22014Y25458D01*
X22021Y25444D01*
X22026Y25425D01*
X22031Y25407D01*
X22033Y25386D01*
X22035Y25368D01*
Y25363D01*
Y25354D01*
X22033Y25340D01*
X22028Y25321D01*
X22024Y25300D01*
X22014Y25277D01*
X22003Y25257D01*
X21987Y25236D01*
X21984Y25233D01*
X21977Y25229D01*
X21968Y25219D01*
X21954Y25210D01*
X21936Y25201D01*
X21915Y25192D01*
X21892Y25187D01*
X21866Y25185D01*
X21855D01*
X21841Y25187D01*
X21822Y25192D01*
X21802Y25199D01*
X21781Y25210D01*
X21758Y25224D01*
X21737Y25243D01*
X21734Y25245D01*
X21728Y25254D01*
X21718Y25268D01*
X21707Y25289D01*
X21693Y25317D01*
X21679Y25351D01*
X21665Y25393D01*
X21654Y25444D01*
X21348Y25400D01*
Y25398D01*
X21350Y25391D01*
X21353Y25379D01*
X21355Y25363D01*
X21362Y25344D01*
X21367Y25324D01*
X21374Y25300D01*
X21383Y25275D01*
X21406Y25219D01*
X21436Y25162D01*
X21473Y25108D01*
X21496Y25083D01*
X21519Y25060D01*
X21522Y25058D01*
X21526Y25055D01*
X21533Y25048D01*
X21545Y25041D01*
X21556Y25032D01*
X21573Y25023D01*
X21591Y25011D01*
X21614Y25000D01*
X21637Y24988D01*
X21663Y24977D01*
X21721Y24958D01*
X21785Y24944D01*
X21822Y24942D01*
X21859Y24940D01*
X21880D01*
X21896Y24942D01*
X21915Y24944D01*
X21938Y24946D01*
X21961Y24949D01*
X21987Y24956D01*
X22045Y24970D01*
X22102Y24990D01*
X22132Y25004D01*
X22160Y25020D01*
X22186Y25041D01*
X22211Y25062D01*
X22213Y25064D01*
X22216Y25067D01*
X22223Y25074D01*
X22232Y25083D01*
X22241Y25097D01*
X22253Y25111D01*
X22264Y25127D01*
X22276Y25145D01*
X22299Y25189D01*
X22320Y25243D01*
X22336Y25303D01*
X22338Y25335D01*
X22341Y25370D01*
Y25386D01*
X22338Y25405D01*
X22336Y25430D01*
X22331Y25458D01*
X22325Y25490D01*
X22315Y25525D01*
X22301Y25562D01*
X22299Y25567D01*
X22294Y25578D01*
X22285Y25597D01*
X22271Y25622D01*
X22253Y25652D01*
X22230Y25687D01*
X22204Y25724D01*
X22172Y25763D01*
X22170Y25766D01*
X22160Y25777D01*
X22144Y25793D01*
X22121Y25816D01*
X22091Y25847D01*
X22054Y25884D01*
X22010Y25925D01*
X21959Y25974D01*
X21957Y25976D01*
X21952Y25981D01*
X21945Y25985D01*
X21936Y25995D01*
X21910Y26018D01*
X21880Y26048D01*
X21848Y26078D01*
X21815Y26108D01*
X21788Y26136D01*
X21765Y26159D01*
X21762Y26161D01*
X21758Y26168D01*
X21748Y26177D01*
X21737Y26189D01*
X21723Y26205D01*
X21709Y26224D01*
X21677Y26263D01*
X22232D01*
X22172Y26550D01*
X22341D01*
D02*
G37*
G36*
X28290Y26550D02*
Y24949D01*
D01*
Y26550D01*
D02*
G37*
G36*
X20483Y26550D02*
X20154D01*
X20432Y25217D01*
X19964D01*
D01*
X20018Y24949D01*
X19964D01*
X21200D01*
X21281D01*
X21228Y25217D01*
X20760D01*
X20483Y26550D01*
D02*
G37*
G36*
X18139D02*
Y24949D01*
X17599D01*
X17319Y26282D01*
X18139D01*
X18083Y26550D01*
X16935D01*
X17271Y24949D01*
X16935D01*
X18139D01*
Y26550D01*
D02*
G37*
G36*
X15466D02*
X13943D01*
X14279Y24949D01*
X13943D01*
X15466D01*
X15410Y25217D01*
X14552D01*
X14473Y25578D01*
X15304D01*
X15249Y25847D01*
X14413D01*
X14318Y26282D01*
X15251D01*
X15193Y26550D01*
X15466D01*
D02*
G37*
G36*
X12004D02*
X11655D01*
X11370Y24949D01*
D01*
X12705D01*
X12888D01*
X12004Y26550D01*
D02*
G37*
G36*
X10533D02*
X10204D01*
X10482Y25217D01*
X10014D01*
X10068Y24949D01*
X10014D01*
D01*
X11331D01*
D01*
X11278Y25217D01*
X10810D01*
X10533Y26550D01*
D02*
G37*
G36*
X21200Y24944D02*
Y24940D01*
D01*
Y24944D01*
D02*
G37*
G36*
X18974Y26580D02*
X18939D01*
X18921Y26578D01*
X18900Y26575D01*
X18877D01*
X18851Y26571D01*
X18796Y26564D01*
X18736Y26552D01*
X18673Y26536D01*
X18615Y26513D01*
X18613D01*
X18608Y26511D01*
X18601Y26506D01*
X18590Y26499D01*
X18564Y26485D01*
X18532Y26462D01*
X18497Y26437D01*
X18463Y26402D01*
X18430Y26365D01*
X18402Y26321D01*
Y26319D01*
X18400Y26316D01*
X18398Y26309D01*
X18393Y26298D01*
X18389Y26286D01*
X18384Y26272D01*
X18372Y26238D01*
X18361Y26196D01*
X18352Y26147D01*
X18347Y26094D01*
X18345Y26036D01*
D01*
X18659Y26018D01*
Y26020D01*
Y26025D01*
Y26032D01*
X18662Y26041D01*
X18664Y26069D01*
X18669Y26099D01*
X18673Y26133D01*
X18682Y26168D01*
X18694Y26198D01*
X18710Y26221D01*
X18715Y26226D01*
X18724Y26235D01*
X18743Y26247D01*
X18770Y26263D01*
X18787Y26270D01*
X18807Y26279D01*
X18828Y26286D01*
X18854Y26291D01*
X18879Y26298D01*
X18909Y26300D01*
X18942Y26305D01*
X19002D01*
X19016Y26302D01*
X19032D01*
X19067Y26298D01*
X19104Y26291D01*
X19143Y26279D01*
X19180Y26265D01*
X19210Y26247D01*
X19212Y26245D01*
X19222Y26238D01*
X19233Y26224D01*
X19247Y26208D01*
X19261Y26187D01*
X19272Y26164D01*
X19282Y26138D01*
X19284Y26108D01*
Y26106D01*
Y26096D01*
X19282Y26083D01*
X19277Y26066D01*
X19270Y26048D01*
X19259Y26027D01*
X19245Y26006D01*
X19224Y25988D01*
X19222Y25985D01*
X19215Y25981D01*
X19201Y25972D01*
X19180Y25960D01*
X19166Y25951D01*
X19150Y25941D01*
X19131Y25932D01*
X19110Y25923D01*
X19085Y25911D01*
X19060Y25897D01*
X19027Y25884D01*
X18995Y25870D01*
X18992D01*
X18986Y25865D01*
X18976Y25863D01*
X18965Y25856D01*
X18949Y25849D01*
X18930Y25842D01*
X18891Y25823D01*
X18847Y25800D01*
X18800Y25779D01*
X18759Y25756D01*
X18738Y25745D01*
X18722Y25735D01*
X18717Y25733D01*
X18708Y25726D01*
X18692Y25712D01*
X18673Y25696D01*
X18652Y25678D01*
X18629Y25652D01*
X18608Y25624D01*
X18588Y25594D01*
X18585Y25590D01*
X18581Y25578D01*
X18571Y25560D01*
X18564Y25536D01*
X18555Y25506D01*
X18546Y25472D01*
X18541Y25432D01*
X18539Y25391D01*
Y25388D01*
Y25381D01*
Y25370D01*
X18541Y25356D01*
X18544Y25340D01*
X18546Y25319D01*
X18551Y25296D01*
X18557Y25273D01*
X18574Y25219D01*
X18588Y25192D01*
X18601Y25162D01*
X18618Y25134D01*
X18636Y25106D01*
X18659Y25078D01*
X18685Y25053D01*
X18687Y25051D01*
X18692Y25046D01*
X18701Y25041D01*
X18712Y25032D01*
X18726Y25023D01*
X18745Y25011D01*
X18768Y24997D01*
X18793Y24986D01*
X18821Y24974D01*
X18851Y24960D01*
X18886Y24949D01*
X18925Y24940D01*
X18967Y24930D01*
X19011Y24923D01*
X19057Y24921D01*
X19108Y24919D01*
X18345D01*
X19717D01*
X19136D01*
X19154Y24921D01*
X19178Y24923D01*
X19205Y24926D01*
X19235Y24930D01*
X19268Y24935D01*
X19340Y24951D01*
X19377Y24963D01*
X19411Y24974D01*
X19448Y24990D01*
X19483Y25009D01*
X19515Y25030D01*
X19546Y25053D01*
X19548Y25055D01*
X19552Y25060D01*
X19559Y25067D01*
X19571Y25076D01*
X19583Y25090D01*
X19596Y25106D01*
X19610Y25125D01*
X19624Y25145D01*
X19640Y25171D01*
X19657Y25196D01*
X19670Y25226D01*
X19684Y25257D01*
X19696Y25291D01*
X19705Y25326D01*
X19712Y25365D01*
X19717Y25405D01*
X19402Y25418D01*
Y25416D01*
Y25414D01*
X19400Y25400D01*
X19393Y25379D01*
X19386Y25354D01*
X19374Y25326D01*
X19360Y25296D01*
X19342Y25268D01*
X19316Y25243D01*
X19314Y25240D01*
X19303Y25233D01*
X19286Y25222D01*
X19263Y25210D01*
X19235Y25201D01*
X19198Y25189D01*
X19154Y25182D01*
X19106Y25180D01*
X19083D01*
X19060Y25182D01*
X19029Y25187D01*
X18999Y25192D01*
X18967Y25201D01*
X18937Y25213D01*
X18911Y25229D01*
X18909Y25231D01*
X18902Y25238D01*
X18893Y25247D01*
X18884Y25261D01*
X18872Y25280D01*
X18863Y25300D01*
X18856Y25326D01*
X18854Y25351D01*
Y25354D01*
Y25363D01*
X18856Y25375D01*
X18861Y25391D01*
X18868Y25409D01*
X18877Y25428D01*
X18888Y25446D01*
X18907Y25465D01*
X18909Y25467D01*
X18918Y25474D01*
X18932Y25483D01*
X18955Y25497D01*
X18972Y25506D01*
X18988Y25516D01*
X19006Y25527D01*
X19029Y25539D01*
X19053Y25550D01*
X19080Y25564D01*
X19110Y25578D01*
X19143Y25592D01*
X19145Y25594D01*
X19154Y25597D01*
X19168Y25604D01*
X19187Y25611D01*
X19210Y25622D01*
X19235Y25634D01*
X19291Y25661D01*
X19351Y25692D01*
X19409Y25724D01*
X19437Y25740D01*
X19460Y25756D01*
X19481Y25773D01*
X19497Y25786D01*
X19499Y25789D01*
X19502Y25791D01*
X19508Y25798D01*
X19515Y25805D01*
X19534Y25830D01*
X19555Y25863D01*
X19576Y25902D01*
X19592Y25951D01*
X19606Y26006D01*
X19608Y26034D01*
X19610Y26066D01*
Y26069D01*
Y26076D01*
Y26087D01*
X19608Y26101D01*
X19606Y26120D01*
X19601Y26143D01*
X19596Y26166D01*
X19589Y26191D01*
X19580Y26219D01*
X19569Y26249D01*
X19555Y26279D01*
X19539Y26309D01*
X19520Y26339D01*
X19497Y26372D01*
X19471Y26400D01*
X19441Y26430D01*
X19439Y26432D01*
X19434Y26437D01*
X19423Y26444D01*
X19411Y26453D01*
X19393Y26464D01*
X19372Y26478D01*
X19349Y26490D01*
X19319Y26504D01*
X19289Y26520D01*
X19254Y26531D01*
X19215Y26545D01*
X19173Y26557D01*
X19129Y26566D01*
X19080Y26573D01*
X19029Y26578D01*
X18974Y26580D01*
D02*
G37*
G36*
X16114D02*
X16079D01*
X16061Y26578D01*
X16040Y26575D01*
X16017D01*
X15991Y26571D01*
X15936Y26564D01*
X15876Y26552D01*
X15813Y26536D01*
X15755Y26513D01*
X15753D01*
X15748Y26511D01*
X15741Y26506D01*
X15730Y26499D01*
X15704Y26485D01*
X15672Y26462D01*
X15637Y26437D01*
X15603Y26402D01*
X15570Y26365D01*
X15542Y26321D01*
Y26319D01*
X15540Y26316D01*
X15538Y26309D01*
X15533Y26298D01*
X15529Y26286D01*
X15524Y26272D01*
X15512Y26238D01*
X15501Y26196D01*
X15491Y26147D01*
X15487Y26094D01*
X15485Y26036D01*
X15799Y26018D01*
Y26020D01*
Y26025D01*
Y26032D01*
X15802Y26041D01*
X15804Y26069D01*
X15808Y26099D01*
X15813Y26133D01*
X15822Y26168D01*
X15834Y26198D01*
X15850Y26221D01*
X15855Y26226D01*
X15864Y26235D01*
X15883Y26247D01*
X15910Y26263D01*
X15927Y26270D01*
X15947Y26279D01*
X15968Y26286D01*
X15994Y26291D01*
X16019Y26298D01*
X16049Y26300D01*
X16082Y26305D01*
X16142D01*
X16156Y26302D01*
X16172D01*
X16206Y26298D01*
X16244Y26291D01*
X16283Y26279D01*
X16320Y26265D01*
X16350Y26247D01*
X16352Y26245D01*
X16362Y26238D01*
X16373Y26224D01*
X16387Y26208D01*
X16401Y26187D01*
X16412Y26164D01*
X16422Y26138D01*
X16424Y26108D01*
Y26106D01*
Y26096D01*
X16422Y26083D01*
X16417Y26066D01*
X16410Y26048D01*
X16399Y26027D01*
X16385Y26006D01*
X16364Y25988D01*
X16362Y25985D01*
X16355Y25981D01*
X16341Y25972D01*
X16320Y25960D01*
X16306Y25951D01*
X16290Y25941D01*
X16271Y25932D01*
X16250Y25923D01*
X16225Y25911D01*
X16200Y25897D01*
X16167Y25884D01*
X16135Y25870D01*
X16132D01*
X16125Y25865D01*
X16116Y25863D01*
X16105Y25856D01*
X16088Y25849D01*
X16070Y25842D01*
X16031Y25823D01*
X15987Y25800D01*
X15940Y25779D01*
X15899Y25756D01*
X15878Y25745D01*
X15862Y25735D01*
X15857Y25733D01*
X15848Y25726D01*
X15832Y25712D01*
X15813Y25696D01*
X15792Y25678D01*
X15769Y25652D01*
X15748Y25624D01*
X15727Y25594D01*
X15725Y25590D01*
X15721Y25578D01*
X15711Y25560D01*
X15704Y25536D01*
X15695Y25506D01*
X15686Y25472D01*
X15681Y25432D01*
X15679Y25391D01*
Y25388D01*
Y25381D01*
Y25370D01*
X15681Y25356D01*
X15684Y25340D01*
X15686Y25319D01*
X15690Y25296D01*
X15697Y25273D01*
X15714Y25219D01*
X15727Y25192D01*
X15741Y25162D01*
X15758Y25134D01*
X15776Y25106D01*
X15799Y25078D01*
X15825Y25053D01*
X15827Y25051D01*
X15832Y25046D01*
X15841Y25041D01*
X15852Y25032D01*
X15866Y25023D01*
X15885Y25011D01*
X15908Y24997D01*
X15933Y24986D01*
X15961Y24974D01*
X15991Y24960D01*
X16026Y24949D01*
X16065Y24940D01*
X16107Y24930D01*
X16151Y24923D01*
X16197Y24921D01*
X16248Y24919D01*
X15485D01*
X16857D01*
X16276D01*
X16294Y24921D01*
X16318Y24923D01*
X16345Y24926D01*
X16375Y24930D01*
X16408Y24935D01*
X16480Y24951D01*
X16517Y24963D01*
X16551Y24974D01*
X16588Y24990D01*
X16623Y25009D01*
X16655Y25030D01*
X16685Y25053D01*
X16688Y25055D01*
X16692Y25060D01*
X16699Y25067D01*
X16711Y25076D01*
X16722Y25090D01*
X16736Y25106D01*
X16750Y25125D01*
X16764Y25145D01*
X16780Y25171D01*
X16797Y25196D01*
X16810Y25226D01*
X16824Y25257D01*
X16836Y25291D01*
X16845Y25326D01*
X16852Y25365D01*
X16857Y25405D01*
X16542Y25418D01*
Y25416D01*
Y25414D01*
X16540Y25400D01*
X16533Y25379D01*
X16526Y25354D01*
X16514Y25326D01*
X16500Y25296D01*
X16482Y25268D01*
X16456Y25243D01*
X16454Y25240D01*
X16443Y25233D01*
X16426Y25222D01*
X16403Y25210D01*
X16375Y25201D01*
X16338Y25189D01*
X16294Y25182D01*
X16246Y25180D01*
X16223D01*
X16200Y25182D01*
X16169Y25187D01*
X16139Y25192D01*
X16107Y25201D01*
X16077Y25213D01*
X16051Y25229D01*
X16049Y25231D01*
X16042Y25238D01*
X16033Y25247D01*
X16024Y25261D01*
X16012Y25280D01*
X16003Y25300D01*
X15996Y25326D01*
X15994Y25351D01*
Y25354D01*
Y25363D01*
X15996Y25375D01*
X16001Y25391D01*
X16007Y25409D01*
X16017Y25428D01*
X16028Y25446D01*
X16047Y25465D01*
X16049Y25467D01*
X16058Y25474D01*
X16072Y25483D01*
X16095Y25497D01*
X16112Y25506D01*
X16128Y25516D01*
X16146Y25527D01*
X16169Y25539D01*
X16193Y25550D01*
X16220Y25564D01*
X16250Y25578D01*
X16283Y25592D01*
X16285Y25594D01*
X16294Y25597D01*
X16308Y25604D01*
X16327Y25611D01*
X16350Y25622D01*
X16375Y25634D01*
X16431Y25661D01*
X16491Y25692D01*
X16549Y25724D01*
X16577Y25740D01*
X16600Y25756D01*
X16621Y25773D01*
X16637Y25786D01*
X16639Y25789D01*
X16642Y25791D01*
X16648Y25798D01*
X16655Y25805D01*
X16674Y25830D01*
X16695Y25863D01*
X16716Y25902D01*
X16732Y25951D01*
X16746Y26006D01*
X16748Y26034D01*
X16750Y26066D01*
Y26069D01*
Y26076D01*
Y26087D01*
X16748Y26101D01*
X16746Y26120D01*
X16741Y26143D01*
X16736Y26166D01*
X16729Y26191D01*
X16720Y26219D01*
X16709Y26249D01*
X16695Y26279D01*
X16679Y26309D01*
X16660Y26339D01*
X16637Y26372D01*
X16611Y26400D01*
X16581Y26430D01*
X16579Y26432D01*
X16574Y26437D01*
X16563Y26444D01*
X16551Y26453D01*
X16533Y26464D01*
X16512Y26478D01*
X16489Y26490D01*
X16459Y26504D01*
X16429Y26520D01*
X16394Y26531D01*
X16355Y26545D01*
X16313Y26557D01*
X16269Y26566D01*
X16220Y26573D01*
X16169Y26578D01*
X16114Y26580D01*
D02*
G37*
G36*
X9024D02*
X8989D01*
X8971Y26578D01*
X8950Y26575D01*
X8927D01*
X8901Y26571D01*
X8846Y26564D01*
X8786Y26552D01*
X8723Y26536D01*
X8665Y26513D01*
X8663D01*
X8658Y26511D01*
X8651Y26506D01*
X8640Y26499D01*
X8614Y26485D01*
X8582Y26462D01*
X8547Y26437D01*
X8513Y26402D01*
X8480Y26365D01*
X8452Y26321D01*
Y26319D01*
X8450Y26316D01*
X8448Y26309D01*
X8443Y26298D01*
X8439Y26286D01*
X8434Y26272D01*
X8422Y26238D01*
X8411Y26196D01*
X8402Y26147D01*
X8397Y26094D01*
X8395Y26036D01*
X8709Y26018D01*
Y26020D01*
Y26025D01*
Y26032D01*
X8712Y26041D01*
X8714Y26069D01*
X8719Y26099D01*
X8723Y26133D01*
X8732Y26168D01*
X8744Y26198D01*
X8760Y26221D01*
X8765Y26226D01*
X8774Y26235D01*
X8793Y26247D01*
X8820Y26263D01*
X8837Y26270D01*
X8857Y26279D01*
X8878Y26286D01*
X8904Y26291D01*
X8929Y26298D01*
X8959Y26300D01*
X8992Y26305D01*
X9052D01*
X9066Y26302D01*
X9082D01*
X9117Y26298D01*
X9154Y26291D01*
X9193Y26279D01*
X9230Y26265D01*
X9260Y26247D01*
X9262Y26245D01*
X9272Y26238D01*
X9283Y26224D01*
X9297Y26208D01*
X9311Y26187D01*
X9323Y26164D01*
X9332Y26138D01*
X9334Y26108D01*
Y26106D01*
Y26096D01*
X9332Y26083D01*
X9327Y26066D01*
X9320Y26048D01*
X9309Y26027D01*
X9295Y26006D01*
X9274Y25988D01*
X9272Y25985D01*
X9265Y25981D01*
X9251Y25972D01*
X9230Y25960D01*
X9216Y25951D01*
X9200Y25941D01*
X9181Y25932D01*
X9161Y25923D01*
X9135Y25911D01*
X9110Y25897D01*
X9077Y25884D01*
X9045Y25870D01*
X9043D01*
X9036Y25865D01*
X9026Y25863D01*
X9015Y25856D01*
X8999Y25849D01*
X8980Y25842D01*
X8941Y25823D01*
X8897Y25800D01*
X8850Y25779D01*
X8809Y25756D01*
X8788Y25745D01*
X8772Y25735D01*
X8767Y25733D01*
X8758Y25726D01*
X8742Y25712D01*
X8723Y25696D01*
X8702Y25678D01*
X8679Y25652D01*
X8658Y25624D01*
X8638Y25594D01*
X8635Y25590D01*
X8631Y25578D01*
X8621Y25560D01*
X8614Y25536D01*
X8605Y25506D01*
X8596Y25472D01*
X8591Y25432D01*
X8589Y25391D01*
Y25388D01*
Y25381D01*
Y25370D01*
X8591Y25356D01*
X8594Y25340D01*
X8596Y25319D01*
X8601Y25296D01*
X8608Y25273D01*
X8624Y25219D01*
X8638Y25192D01*
X8651Y25162D01*
X8668Y25134D01*
X8686Y25106D01*
X8709Y25078D01*
X8735Y25053D01*
X8737Y25051D01*
X8742Y25046D01*
X8751Y25041D01*
X8763Y25032D01*
X8776Y25023D01*
X8795Y25011D01*
X8818Y24997D01*
X8844Y24986D01*
X8871Y24974D01*
X8901Y24960D01*
X8936Y24949D01*
X8975Y24940D01*
X9017Y24930D01*
X9061Y24923D01*
X9107Y24921D01*
X9158Y24919D01*
X8395D01*
X9767D01*
D01*
X9186D01*
X9205Y24921D01*
X9228Y24923D01*
X9255Y24926D01*
X9285Y24930D01*
X9318Y24935D01*
X9390Y24951D01*
X9427Y24963D01*
X9461Y24974D01*
X9498Y24990D01*
X9533Y25009D01*
X9565Y25030D01*
X9596Y25053D01*
X9598Y25055D01*
X9603Y25060D01*
X9609Y25067D01*
X9621Y25076D01*
X9633Y25090D01*
X9646Y25106D01*
X9660Y25125D01*
X9674Y25145D01*
X9690Y25171D01*
X9707Y25196D01*
X9721Y25226D01*
X9734Y25257D01*
X9746Y25291D01*
X9755Y25326D01*
X9762Y25365D01*
X9767Y25405D01*
X9452Y25418D01*
Y25416D01*
Y25414D01*
X9450Y25400D01*
X9443Y25379D01*
X9436Y25354D01*
X9424Y25326D01*
X9410Y25296D01*
X9392Y25268D01*
X9366Y25243D01*
X9364Y25240D01*
X9353Y25233D01*
X9336Y25222D01*
X9313Y25210D01*
X9285Y25201D01*
X9248Y25189D01*
X9205Y25182D01*
X9156Y25180D01*
X9133D01*
X9110Y25182D01*
X9080Y25187D01*
X9049Y25192D01*
X9017Y25201D01*
X8987Y25213D01*
X8962Y25229D01*
X8959Y25231D01*
X8952Y25238D01*
X8943Y25247D01*
X8934Y25261D01*
X8922Y25280D01*
X8913Y25300D01*
X8906Y25326D01*
X8904Y25351D01*
Y25354D01*
Y25363D01*
X8906Y25375D01*
X8911Y25391D01*
X8918Y25409D01*
X8927Y25428D01*
X8938Y25446D01*
X8957Y25465D01*
X8959Y25467D01*
X8968Y25474D01*
X8982Y25483D01*
X9006Y25497D01*
X9022Y25506D01*
X9038Y25516D01*
X9056Y25527D01*
X9080Y25539D01*
X9103Y25550D01*
X9130Y25564D01*
X9161Y25578D01*
X9193Y25592D01*
X9195Y25594D01*
X9205Y25597D01*
X9218Y25604D01*
X9237Y25611D01*
X9260Y25622D01*
X9285Y25634D01*
X9341Y25661D01*
X9401Y25692D01*
X9459Y25724D01*
X9487Y25740D01*
X9510Y25756D01*
X9531Y25773D01*
X9547Y25786D01*
X9549Y25789D01*
X9552Y25791D01*
X9559Y25798D01*
X9565Y25805D01*
X9584Y25830D01*
X9605Y25863D01*
X9626Y25902D01*
X9642Y25951D01*
X9656Y26006D01*
X9658Y26034D01*
X9660Y26066D01*
Y26069D01*
Y26076D01*
Y26087D01*
X9658Y26101D01*
X9656Y26120D01*
X9651Y26143D01*
X9646Y26166D01*
X9640Y26191D01*
X9630Y26219D01*
X9619Y26249D01*
X9605Y26279D01*
X9589Y26309D01*
X9570Y26339D01*
X9547Y26372D01*
X9522Y26400D01*
X9491Y26430D01*
X9489Y26432D01*
X9484Y26437D01*
X9473Y26444D01*
X9461Y26453D01*
X9443Y26464D01*
X9422Y26478D01*
X9399Y26490D01*
X9369Y26504D01*
X9339Y26520D01*
X9304Y26531D01*
X9265Y26545D01*
X9223Y26557D01*
X9179Y26566D01*
X9130Y26573D01*
X9080Y26578D01*
X9024Y26580D01*
D02*
G37*
G36*
X13187Y26772D02*
X13029D01*
X13073Y26559D01*
X13071D01*
X13066Y26557D01*
X13060Y26555D01*
X13048Y26552D01*
X13034Y26548D01*
X13020Y26541D01*
X12983Y26527D01*
X12942Y26506D01*
X12900Y26478D01*
X12888Y26469D01*
D01*
X12856Y26441D01*
D01*
X12817Y26400D01*
Y26397D01*
X12812Y26393D01*
X12807Y26386D01*
X12800Y26376D01*
X12793Y26365D01*
X12784Y26351D01*
X12775Y26332D01*
X12766Y26314D01*
X12745Y26268D01*
X12729Y26214D01*
X12715Y26152D01*
X12705Y26085D01*
X12888Y26076D01*
X12981Y26071D01*
Y26073D01*
Y26080D01*
X12983Y26090D01*
X12985Y26101D01*
X12990Y26117D01*
X12992Y26133D01*
X13006Y26173D01*
X13025Y26214D01*
X13050Y26254D01*
X13083Y26291D01*
X13101Y26305D01*
X13124Y26316D01*
X13226Y25833D01*
X13224D01*
X13219Y25828D01*
X13210Y25826D01*
X13198Y25819D01*
X13184Y25812D01*
X13166Y25803D01*
X13129Y25779D01*
X13087Y25752D01*
X13046Y25717D01*
X13006Y25680D01*
X12972Y25636D01*
Y25634D01*
X12969Y25631D01*
X12965Y25624D01*
X12960Y25615D01*
X12946Y25592D01*
X12932Y25560D01*
X12918Y25523D01*
X12905Y25479D01*
X12895Y25432D01*
X12893Y25384D01*
Y25381D01*
Y25379D01*
Y25372D01*
Y25363D01*
X12895Y25340D01*
X12900Y25310D01*
X12909Y25275D01*
X12918Y25238D01*
X12935Y25196D01*
X12955Y25155D01*
Y25152D01*
X12958Y25150D01*
X12967Y25136D01*
X12983Y25115D01*
X13002Y25092D01*
X13029Y25064D01*
X13060Y25034D01*
X13097Y25009D01*
X13138Y24983D01*
X13141D01*
X13143Y24981D01*
X13150Y24977D01*
X13159Y24974D01*
X13182Y24963D01*
X13210Y24951D01*
X13245Y24942D01*
X13282Y24930D01*
X13321Y24923D01*
X13360Y24921D01*
X13418D01*
X13439Y24826D01*
X12705D01*
X13895D01*
D01*
X13596D01*
X13571Y24942D01*
X13573D01*
X13578Y24944D01*
X13585Y24946D01*
X13594Y24949D01*
X13620Y24958D01*
X13652Y24972D01*
X13689Y24990D01*
X13726Y25014D01*
X13763Y25044D01*
X13795Y25078D01*
X13800Y25083D01*
X13809Y25097D01*
X13823Y25118D01*
X13839Y25148D01*
X13856Y25185D01*
X13872Y25229D01*
X13886Y25277D01*
X13895Y25333D01*
X13626Y25347D01*
Y25344D01*
Y25342D01*
X13622Y25328D01*
X13615Y25305D01*
X13606Y25280D01*
X13592Y25252D01*
X13573Y25224D01*
X13550Y25199D01*
X13522Y25178D01*
X13430Y25613D01*
X13432D01*
X13439Y25617D01*
X13448Y25620D01*
X13462Y25627D01*
X13478Y25634D01*
X13497Y25643D01*
X13539Y25666D01*
X13582Y25696D01*
X13629Y25729D01*
X13673Y25768D01*
X13691Y25789D01*
X13707Y25810D01*
Y25812D01*
X13712Y25814D01*
X13714Y25821D01*
X13721Y25830D01*
X13735Y25856D01*
X13751Y25888D01*
X13765Y25928D01*
X13779Y25972D01*
X13788Y26022D01*
X13793Y26078D01*
Y26080D01*
Y26087D01*
Y26099D01*
X13791Y26113D01*
X13788Y26131D01*
X13784Y26152D01*
X13779Y26175D01*
X13775Y26201D01*
X13754Y26256D01*
X13742Y26286D01*
X13726Y26316D01*
X13710Y26346D01*
X13687Y26376D01*
X13663Y26407D01*
X13636Y26434D01*
X13633Y26437D01*
X13629Y26441D01*
X13620Y26448D01*
X13608Y26457D01*
X13592Y26469D01*
X13573Y26481D01*
X13550Y26494D01*
X13525Y26506D01*
X13497Y26520D01*
X13467Y26534D01*
X13432Y26545D01*
X13397Y26557D01*
X13358Y26566D01*
X13316Y26573D01*
X13272Y26578D01*
X13226Y26580D01*
X13187Y26772D01*
D02*
G37*
%LPD*%
G36*
X27790Y25284D02*
X27438Y25928D01*
X27885D01*
X27790Y25284D01*
D02*
G37*
G36*
X26025Y26291D02*
X26066D01*
X26112Y26286D01*
X26156Y26282D01*
X26196Y26277D01*
X26212Y26272D01*
X26226Y26268D01*
X26228Y26265D01*
X26237Y26263D01*
X26249Y26256D01*
X26265Y26247D01*
X26284Y26235D01*
X26302Y26221D01*
X26321Y26205D01*
X26337Y26184D01*
X26339Y26182D01*
X26344Y26173D01*
X26351Y26161D01*
X26358Y26145D01*
X26365Y26127D01*
X26372Y26106D01*
X26376Y26083D01*
X26379Y26059D01*
Y26055D01*
Y26046D01*
X26376Y26032D01*
X26372Y26013D01*
X26365Y25992D01*
X26353Y25969D01*
X26339Y25948D01*
X26318Y25928D01*
X26316Y25925D01*
X26307Y25918D01*
X26293Y25911D01*
X26272Y25900D01*
X26244Y25891D01*
X26210Y25884D01*
X26170Y25877D01*
X26122Y25874D01*
X25728D01*
X25640Y26293D01*
X26006D01*
X26025Y26291D01*
D02*
G37*
G36*
X26096Y25594D02*
X26133D01*
X26173Y25592D01*
X26212Y25587D01*
X26249Y25580D01*
X26281Y25574D01*
X26284Y25571D01*
X26293Y25569D01*
X26307Y25564D01*
X26323Y25555D01*
X26342Y25543D01*
X26360Y25530D01*
X26376Y25513D01*
X26392Y25495D01*
X26395Y25493D01*
X26399Y25486D01*
X26404Y25474D01*
X26413Y25460D01*
X26420Y25442D01*
X26425Y25421D01*
X26429Y25400D01*
X26432Y25377D01*
Y25375D01*
Y25368D01*
X26429Y25356D01*
X26427Y25342D01*
X26423Y25326D01*
X26416Y25310D01*
X26406Y25294D01*
X26395Y25277D01*
X26392Y25275D01*
X26388Y25270D01*
X26381Y25263D01*
X26369Y25257D01*
X26355Y25247D01*
X26339Y25238D01*
X26318Y25231D01*
X26295Y25224D01*
X26293D01*
X26288Y25222D01*
X26277D01*
X26261Y25219D01*
X26237D01*
X26207Y25217D01*
X25865D01*
X25786Y25597D01*
X26080D01*
X26096Y25594D01*
D02*
G37*
G36*
X12562Y24949D02*
X11697D01*
X11898Y26159D01*
X12562Y24949D01*
D02*
G37*
G36*
X13289Y26335D02*
X13298D01*
X13319Y26330D01*
X13346Y26323D01*
X13377Y26314D01*
X13409Y26302D01*
X13439Y26284D01*
X13467Y26263D01*
X13469Y26261D01*
X13478Y26251D01*
X13490Y26238D01*
X13501Y26217D01*
X13515Y26194D01*
X13525Y26168D01*
X13534Y26136D01*
X13536Y26103D01*
Y26101D01*
Y26094D01*
X13534Y26083D01*
X13532Y26069D01*
X13522Y26034D01*
X13515Y26015D01*
X13504Y25999D01*
X13501Y25997D01*
X13497Y25992D01*
X13490Y25983D01*
X13476Y25969D01*
X13458Y25955D01*
X13434Y25939D01*
X13404Y25921D01*
X13370Y25900D01*
X13277Y26337D01*
X13282D01*
X13289Y26335D01*
D02*
G37*
G36*
X13370Y25150D02*
X13353D01*
X13337Y25152D01*
X13316Y25157D01*
X13291Y25164D01*
X13265Y25176D01*
X13240Y25189D01*
X13215Y25210D01*
X13212Y25213D01*
X13205Y25222D01*
X13196Y25233D01*
X13184Y25250D01*
X13173Y25270D01*
X13164Y25296D01*
X13157Y25321D01*
X13154Y25351D01*
Y25354D01*
Y25356D01*
Y25363D01*
X13157Y25372D01*
X13161Y25393D01*
X13171Y25421D01*
X13187Y25453D01*
X13198Y25469D01*
X13210Y25486D01*
X13226Y25502D01*
X13242Y25518D01*
X13263Y25534D01*
X13286Y25548D01*
X13370Y25150D01*
D02*
G37*
D12*
X6750Y14853D02*
X30600D01*
X6750Y16853D02*
X30600D01*
Y14853D02*
Y16853D01*
X6750Y14853D02*
Y16853D01*
X10300Y12350D02*
X27050D01*
X10300Y14350D02*
X27050D01*
Y12350D02*
Y14350D01*
X10300Y12350D02*
Y14350D01*
X0Y0D02*
X37280D01*
X0Y31820D02*
X37280D01*
Y0D02*
Y31820D01*
X0Y0D02*
Y31820D01*
D28*
X20796Y8948D02*
X21406D01*
X17824D02*
X19399D01*
X20758Y8935D02*
X21558D01*
X17812D02*
X19450D01*
X20745Y8922D02*
X21634D01*
X17799D02*
X19488D01*
X20733Y8909D02*
X21698D01*
X17799D02*
X19501D01*
X20733Y8897D02*
X21749D01*
X17812D02*
X19514D01*
X20720Y8884D02*
X21787D01*
X17837D02*
X19539D01*
X20720Y8871D02*
X21838D01*
X17862D02*
X19552D01*
X20720Y8859D02*
X21863D01*
X17888D02*
X19552D01*
X20720Y8846D02*
X21901D01*
X17913D02*
X19564D01*
X20720Y8833D02*
X21939D01*
X17926D02*
X19577D01*
X20733Y8821D02*
X21965D01*
X17951D02*
X19577D01*
X20733Y8808D02*
X21990D01*
X17977D02*
X19590D01*
X20733Y8795D02*
X22015D01*
X17990D02*
X19590D01*
X20745Y8782D02*
X22041D01*
X18015D02*
X19590D01*
X20745Y8770D02*
X22066D01*
X18028D02*
X19602D01*
X20758Y8757D02*
X22092D01*
X18040D02*
X19602D01*
X20758Y8744D02*
X22117D01*
X18066D02*
X19615D01*
X20771Y8732D02*
X22142D01*
X18078D02*
X19615D01*
X20771Y8719D02*
X22155D01*
X18091D02*
X19615D01*
X20771Y8706D02*
X22181D01*
X18104D02*
X19628D01*
X20784Y8693D02*
X22193D01*
X18129D02*
X19628D01*
X20784Y8681D02*
X22219D01*
X18142D02*
X19640D01*
X20796Y8668D02*
X22231D01*
X18155D02*
X19640D01*
X20796Y8655D02*
X22257D01*
X18167D02*
X19653D01*
X20796Y8643D02*
X22269D01*
X18180D02*
X19653D01*
X20809Y8630D02*
X22282D01*
X18193D02*
X19653D01*
X20809Y8617D02*
X22308D01*
X18205D02*
X19666D01*
X20822Y8605D02*
X22320D01*
X18218D02*
X19666D01*
X20822Y8592D02*
X22333D01*
X18231D02*
X19679D01*
X20822Y8579D02*
X22346D01*
X18243D02*
X19679D01*
X20834Y8566D02*
X22371D01*
X18256D02*
X19679D01*
X20834Y8554D02*
X22384D01*
X18269D02*
X19691D01*
X20847Y8541D02*
X22396D01*
X18282D02*
X19691D01*
X20847Y8528D02*
X22409D01*
X18294D02*
X19704D01*
X20860Y8516D02*
X22422D01*
X18294D02*
X19704D01*
X20860Y8503D02*
X22434D01*
X18307D02*
X19717D01*
X20860Y8490D02*
X22447D01*
X18320D02*
X19717D01*
X20872Y8478D02*
X22460D01*
X18332D02*
X19717D01*
X20872Y8465D02*
X22473D01*
X18345D02*
X19729D01*
X20885Y8452D02*
X22485D01*
X18345D02*
X19729D01*
X20885Y8439D02*
X22498D01*
X18358D02*
X19742D01*
X20885Y8427D02*
X22511D01*
X18371D02*
X19742D01*
X20898Y8414D02*
X22511D01*
X18383D02*
X19742D01*
X20898Y8401D02*
X22523D01*
X18383D02*
X19755D01*
X20910Y8389D02*
X22536D01*
X18396D02*
X19755D01*
X20910Y8376D02*
X22549D01*
X18409D02*
X19767D01*
X20923Y8363D02*
X22562D01*
X18409D02*
X19767D01*
X20923Y8351D02*
X22574D01*
X18421D02*
X19780D01*
X20923Y8338D02*
X22574D01*
X18434D02*
X19780D01*
X20936Y8325D02*
X22587D01*
X18434D02*
X19780D01*
X20936Y8312D02*
X22600D01*
X18447D02*
X19793D01*
X20949Y8300D02*
X22612D01*
X18447D02*
X19793D01*
X20949Y8287D02*
X22612D01*
X18459D02*
X19806D01*
X20949Y8274D02*
X22625D01*
X18459D02*
X19806D01*
X20961Y8262D02*
X22638D01*
X18472D02*
X19806D01*
X20961Y8249D02*
X22638D01*
X18485D02*
X19818D01*
X20974Y8236D02*
X22650D01*
X18485D02*
X19818D01*
X20974Y8224D02*
X22650D01*
X18497D02*
X19831D01*
X20974Y8211D02*
X22663D01*
X18497D02*
X19831D01*
X20987Y8198D02*
X22676D01*
X18510D02*
X19831D01*
X20987Y8186D02*
X22676D01*
X18510D02*
X19844D01*
X20999Y8173D02*
X22688D01*
X18523D02*
X19844D01*
X20999Y8160D02*
X22688D01*
X18523D02*
X19856D01*
X21012Y8147D02*
X22701D01*
X18523D02*
X19856D01*
X21012Y8135D02*
X22714D01*
X18536D02*
X19869D01*
X21012Y8122D02*
X22714D01*
X18536D02*
X19869D01*
X21025Y8109D02*
X22727D01*
X18548D02*
X19869D01*
X21025Y8097D02*
X22727D01*
X18548D02*
X19882D01*
X21038Y8084D02*
X22739D01*
X18561D02*
X19882D01*
X21038Y8071D02*
X22739D01*
X18561D02*
X19895D01*
X21038Y8059D02*
X22739D01*
X18561D02*
X19895D01*
X21050Y8046D02*
X22752D01*
X18574D02*
X19895D01*
X21050Y8033D02*
X22752D01*
X18574D02*
X19907D01*
X21063Y8020D02*
X22765D01*
X18574D02*
X19907D01*
X21063Y8008D02*
X22765D01*
X18586D02*
X19920D01*
X21076Y7995D02*
X22777D01*
X18586D02*
X19920D01*
X21076Y7982D02*
X22777D01*
X18586D02*
X19933D01*
X21076Y7970D02*
X22790D01*
X18599D02*
X19933D01*
X21088Y7957D02*
X22790D01*
X18599D02*
X19933D01*
X21088Y7944D02*
X22790D01*
X18599D02*
X19945D01*
X21101Y7931D02*
X22803D01*
X18599D02*
X19945D01*
X21101Y7919D02*
X22803D01*
X18612D02*
X19958D01*
X21101Y7906D02*
X22816D01*
X18612D02*
X19958D01*
X21114Y7893D02*
X22816D01*
X18612D02*
X19958D01*
X21114Y7881D02*
X22828D01*
X18625D02*
X19971D01*
X21126Y7868D02*
X22828D01*
X18625D02*
X19971D01*
X21126Y7855D02*
X22828D01*
X18625D02*
X19983D01*
X21126Y7843D02*
X22841D01*
X18625D02*
X19983D01*
X21139Y7830D02*
X22841D01*
X18625D02*
X19983D01*
X13456D02*
X17342D01*
X21139Y7817D02*
X22854D01*
X18637D02*
X19996D01*
X13443D02*
X17380D01*
X21152Y7805D02*
X22854D01*
X18637D02*
X19996D01*
X13430D02*
X17405D01*
X21152Y7792D02*
X22854D01*
X18637D02*
X20009D01*
X13417D02*
X17431D01*
X21164Y7779D02*
X22866D01*
X18637D02*
X20009D01*
X13417D02*
X17456D01*
X21164Y7766D02*
X22866D01*
X18637D02*
X20021D01*
X13417D02*
X17469D01*
X21164Y7754D02*
X22879D01*
X18650D02*
X20021D01*
X13417D02*
X17482D01*
X21177Y7741D02*
X22879D01*
X18650D02*
X20021D01*
X13417D02*
X17494D01*
X21177Y7728D02*
X22892D01*
X18650D02*
X20034D01*
X13417D02*
X17494D01*
X21190Y7716D02*
X22892D01*
X18650D02*
X20034D01*
X13417D02*
X17507D01*
X21190Y7703D02*
X22892D01*
X18650D02*
X20047D01*
X13417D02*
X17520D01*
X21190Y7690D02*
X22904D01*
X18650D02*
X20047D01*
X13430D02*
X17520D01*
X21203Y7677D02*
X22904D01*
X18650D02*
X20047D01*
X13430D02*
X17520D01*
X21203Y7665D02*
X22917D01*
X18650D02*
X20060D01*
X13443D02*
X17532D01*
X21215Y7652D02*
X22917D01*
X18650D02*
X20060D01*
X13443D02*
X17532D01*
X21215Y7639D02*
X22917D01*
X18663D02*
X20072D01*
X13443D02*
X17532D01*
X21228Y7627D02*
X22930D01*
X18663D02*
X20072D01*
X13456D02*
X17532D01*
X21228Y7614D02*
X22930D01*
X18663D02*
X20085D01*
X13456D02*
X17532D01*
X21228Y7601D02*
X22942D01*
X18663D02*
X20085D01*
X13468D02*
X17532D01*
X21241Y7589D02*
X22942D01*
X18663D02*
X20085D01*
X13468D02*
X17532D01*
X21241Y7576D02*
X22942D01*
X18663D02*
X20098D01*
X13468D02*
X17532D01*
X21253Y7563D02*
X22955D01*
X18663D02*
X20098D01*
X13481D02*
X17532D01*
X21253Y7550D02*
X22955D01*
X18663D02*
X20110D01*
X13481D02*
X17532D01*
X21253Y7538D02*
X22968D01*
X18663D02*
X20110D01*
X13494D02*
X17532D01*
X21266Y7525D02*
X22968D01*
X18663D02*
X20110D01*
X13494D02*
X17532D01*
X21266Y7512D02*
X22981D01*
X18663D02*
X20123D01*
X13494D02*
X17520D01*
X21279Y7500D02*
X22981D01*
X18663D02*
X20123D01*
X13506D02*
X17520D01*
X21279Y7487D02*
X22981D01*
X18650D02*
X20136D01*
X13506D02*
X17520D01*
X21279Y7474D02*
X22993D01*
X18650D02*
X20136D01*
X13519D02*
X17507D01*
X21292Y7462D02*
X22993D01*
X18650D02*
X20136D01*
X13519D02*
X17507D01*
X21292Y7449D02*
X23006D01*
X18650D02*
X20149D01*
X13532D02*
X17494D01*
X21304Y7436D02*
X23006D01*
X18650D02*
X20149D01*
X13532D02*
X17482D01*
X21304Y7424D02*
X23006D01*
X18650D02*
X20161D01*
X13532D02*
X17482D01*
X21317Y7411D02*
X23019D01*
X18650D02*
X20161D01*
X13545D02*
X17469D01*
X21317Y7398D02*
X23019D01*
X18650D02*
X20174D01*
X13545D02*
X17456D01*
X21317Y7385D02*
X23031D01*
X18650D02*
X20174D01*
X13557D02*
X17443D01*
X21330Y7373D02*
X23031D01*
X18637D02*
X20174D01*
X13557D02*
X17431D01*
X21330Y7360D02*
X23044D01*
X18637D02*
X20187D01*
X13557D02*
X17418D01*
X21342Y7347D02*
X23044D01*
X18637D02*
X20187D01*
X13570D02*
X17405D01*
X21342Y7335D02*
X23044D01*
X18637D02*
X20199D01*
X13570D02*
X17393D01*
X21342Y7322D02*
X23057D01*
X18637D02*
X20199D01*
X13583D02*
X17380D01*
X21355Y7309D02*
X23057D01*
X18625D02*
X20199D01*
X13583D02*
X17367D01*
X21355Y7297D02*
X23069D01*
X18625D02*
X20212D01*
X13595D02*
X17354D01*
X21368Y7284D02*
X23069D01*
X18625D02*
X20212D01*
X13595D02*
X17342D01*
X21368Y7271D02*
X23069D01*
X18625D02*
X20225D01*
X13595D02*
X17329D01*
X21380Y7258D02*
X23082D01*
X18625D02*
X20225D01*
X13608D02*
X17316D01*
X21380Y7246D02*
X23082D01*
X18612D02*
X20237D01*
X13608D02*
X17304D01*
X21380Y7233D02*
X23095D01*
X18612D02*
X20237D01*
X13621D02*
X17291D01*
X21393Y7220D02*
X23095D01*
X18612D02*
X20237D01*
X13621D02*
X17278D01*
X21393Y7208D02*
X23108D01*
X18599D02*
X20250D01*
X13621D02*
X17266D01*
X21406Y7195D02*
X23108D01*
X18599D02*
X20250D01*
X13633D02*
X17240D01*
X21406Y7182D02*
X23108D01*
X18599D02*
X20263D01*
X13633D02*
X17228D01*
X21406Y7169D02*
X23120D01*
X18586D02*
X20263D01*
X13646D02*
X17215D01*
X21419Y7157D02*
X23120D01*
X18586D02*
X20263D01*
X13646D02*
X17202D01*
X21419Y7144D02*
X23133D01*
X18586D02*
X20275D01*
X13659D02*
X17189D01*
X21431Y7131D02*
X23133D01*
X18574D02*
X20275D01*
X13659D02*
X17177D01*
X21431Y7119D02*
X23133D01*
X18574D02*
X20288D01*
X13659D02*
X17164D01*
X21431Y7106D02*
X23146D01*
X18574D02*
X20288D01*
X13672D02*
X17151D01*
X21444Y7093D02*
X23146D01*
X18561D02*
X20301D01*
X13672D02*
X17139D01*
X21444Y7081D02*
X23158D01*
X18561D02*
X20301D01*
X13684D02*
X17126D01*
X21457Y7068D02*
X23158D01*
X18548D02*
X20301D01*
X13684D02*
X17113D01*
X21457Y7055D02*
X23158D01*
X18548D02*
X20314D01*
X13684D02*
X17101D01*
X21469Y7043D02*
X23171D01*
X18548D02*
X20314D01*
X13697D02*
X17088D01*
X21469Y7030D02*
X23171D01*
X18536D02*
X20326D01*
X13697D02*
X17075D01*
X21469Y7017D02*
X23184D01*
X18536D02*
X20326D01*
X13710D02*
X17062D01*
X21482Y7004D02*
X23184D01*
X18523D02*
X20326D01*
X13710D02*
X17037D01*
X21482Y6992D02*
X23197D01*
X18523D02*
X20339D01*
X13722D02*
X17024D01*
X21495Y6979D02*
X23197D01*
X18510D02*
X20339D01*
X13722D02*
X17012D01*
X21495Y6966D02*
X23197D01*
X18510D02*
X20352D01*
X13722D02*
X16999D01*
X21495Y6954D02*
X23209D01*
X18497D02*
X20352D01*
X13735D02*
X16986D01*
X21507Y6941D02*
X23209D01*
X18497D02*
X20352D01*
X13735D02*
X16973D01*
X21507Y6928D02*
X23222D01*
X18485D02*
X20364D01*
X13748D02*
X16961D01*
X21520Y6916D02*
X23222D01*
X18485D02*
X20364D01*
X13748D02*
X16948D01*
X21520Y6903D02*
X23222D01*
X18472D02*
X20377D01*
X13748D02*
X16935D01*
X21533Y6890D02*
X23235D01*
X18459D02*
X20377D01*
X13760D02*
X16923D01*
X21533Y6877D02*
X23235D01*
X18459D02*
X20390D01*
X13760D02*
X16910D01*
X21533Y6865D02*
X23247D01*
X18447D02*
X20390D01*
X13773D02*
X16897D01*
X21545Y6852D02*
X23247D01*
X18447D02*
X20390D01*
X13773D02*
X16885D01*
X21545Y6839D02*
X23260D01*
X18434D02*
X20403D01*
X13773D02*
X16872D01*
X21558Y6827D02*
X23260D01*
X18421D02*
X20403D01*
X13786D02*
X16847D01*
X21558Y6814D02*
X23260D01*
X18421D02*
X20415D01*
X13786D02*
X16834D01*
X21558Y6801D02*
X23273D01*
X18409D02*
X20415D01*
X13799D02*
X16821D01*
X21571Y6788D02*
X23273D01*
X18396D02*
X20415D01*
X13799D02*
X16808D01*
X21571Y6776D02*
X23285D01*
X18396D02*
X20428D01*
X13811D02*
X16796D01*
X21584Y6763D02*
X23285D01*
X18383D02*
X20428D01*
X13811D02*
X16783D01*
X21584Y6750D02*
X23285D01*
X18371D02*
X20441D01*
X13811D02*
X16770D01*
X21584Y6738D02*
X23298D01*
X18358D02*
X20441D01*
X13824D02*
X16758D01*
X21596Y6725D02*
X23298D01*
X18358D02*
X20453D01*
X13824D02*
X16745D01*
X21596Y6712D02*
X23311D01*
X18345D02*
X20453D01*
X13837D02*
X16732D01*
X21609Y6700D02*
X23311D01*
X18332D02*
X20453D01*
X13837D02*
X16719D01*
X21609Y6687D02*
X23311D01*
X18320D02*
X20466D01*
X13837D02*
X16707D01*
X21622Y6674D02*
X23323D01*
X18320D02*
X20466D01*
X13849D02*
X16694D01*
X21622Y6661D02*
X23323D01*
X18307D02*
X20479D01*
X13849D02*
X16681D01*
X21622Y6649D02*
X23336D01*
X18294D02*
X20479D01*
X13862D02*
X16669D01*
X21634Y6636D02*
X23336D01*
X18282D02*
X20479D01*
X13862D02*
X16643D01*
X21634Y6623D02*
X23349D01*
X18269D02*
X20491D01*
X13875D02*
X16631D01*
X21647Y6611D02*
X23349D01*
X18256D02*
X20491D01*
X13875D02*
X16618D01*
X21647Y6598D02*
X23349D01*
X18243D02*
X20504D01*
X13875D02*
X16605D01*
X21647Y6585D02*
X23362D01*
X18231D02*
X20504D01*
X13887D02*
X16593D01*
X21660Y6573D02*
X23362D01*
X18218D02*
X20504D01*
X13887D02*
X16580D01*
X21660Y6560D02*
X23374D01*
X18205D02*
X20517D01*
X13900D02*
X16567D01*
X21673Y6547D02*
X23374D01*
X18193D02*
X20517D01*
X13900D02*
X16554D01*
X21673Y6535D02*
X23374D01*
X18180D02*
X20529D01*
X13900D02*
X16542D01*
X21685Y6522D02*
X23387D01*
X18167D02*
X20529D01*
X13913D02*
X16529D01*
X21685Y6509D02*
X23387D01*
X18155D02*
X20542D01*
X13913D02*
X16516D01*
X21685Y6496D02*
X23400D01*
X18142D02*
X20542D01*
X13925D02*
X16504D01*
X21698Y6484D02*
X23400D01*
X18129D02*
X20542D01*
X13925D02*
X16491D01*
X21698Y6471D02*
X23412D01*
X18117D02*
X20555D01*
X13938D02*
X16478D01*
X21711Y6458D02*
X23412D01*
X18091D02*
X20555D01*
X13938D02*
X16453D01*
X21711Y6446D02*
X23412D01*
X18078D02*
X20568D01*
X13938D02*
X16440D01*
X21711Y6433D02*
X23425D01*
X18066D02*
X20568D01*
X13951D02*
X16427D01*
X21723Y6420D02*
X23425D01*
X18053D02*
X20568D01*
X13951D02*
X16415D01*
X21723Y6407D02*
X23438D01*
X18040D02*
X20580D01*
X13964D02*
X16402D01*
X21736Y6395D02*
X23438D01*
X18028D02*
X20580D01*
X13964D02*
X16389D01*
X21736Y6382D02*
X23438D01*
X18015D02*
X20593D01*
X13964D02*
X16377D01*
X21736Y6369D02*
X23451D01*
X18002D02*
X20593D01*
X13976D02*
X16364D01*
X21749Y6357D02*
X23451D01*
X17990D02*
X20606D01*
X13976D02*
X16351D01*
X21749Y6344D02*
X23463D01*
X17977D02*
X20606D01*
X13989D02*
X16338D01*
X21761Y6331D02*
X23463D01*
X17964D02*
X20606D01*
X13989D02*
X16326D01*
X21761Y6319D02*
X23476D01*
X17951D02*
X20618D01*
X14002D02*
X16313D01*
X21774Y6306D02*
X23476D01*
X17939D02*
X20618D01*
X14002D02*
X16300D01*
X21774Y6293D02*
X23476D01*
X17913D02*
X20631D01*
X14002D02*
X16288D01*
X21774Y6280D02*
X23489D01*
X17901D02*
X20631D01*
X14014D02*
X16275D01*
X21787Y6268D02*
X23489D01*
X17888D02*
X20631D01*
X14014D02*
X16250D01*
X21787Y6255D02*
X23501D01*
X17875D02*
X20644D01*
X14027D02*
X16237D01*
X21799Y6242D02*
X23501D01*
X17862D02*
X20644D01*
X14027D02*
X16224D01*
X21799Y6230D02*
X23501D01*
X17850D02*
X20656D01*
X14027D02*
X16212D01*
X21799Y6217D02*
X23514D01*
X17837D02*
X20656D01*
X14040D02*
X16199D01*
X21812Y6204D02*
X23514D01*
X17824D02*
X20669D01*
X14040D02*
X16186D01*
X21812Y6192D02*
X23527D01*
X17812D02*
X20669D01*
X14052D02*
X16173D01*
X21825Y6179D02*
X23527D01*
X17799D02*
X20669D01*
X14052D02*
X16161D01*
X21825Y6166D02*
X23527D01*
X17786D02*
X20682D01*
X14052D02*
X16148D01*
X21838Y6154D02*
X23539D01*
X17774D02*
X20682D01*
X14065D02*
X16135D01*
X21838Y6141D02*
X23539D01*
X17761D02*
X20695D01*
X14065D02*
X16123D01*
X21838Y6128D02*
X23552D01*
X17748D02*
X20695D01*
X14078D02*
X16110D01*
X21850Y6115D02*
X23552D01*
X17723D02*
X20695D01*
X14078D02*
X16097D01*
X21850Y6103D02*
X23565D01*
X17710D02*
X20707D01*
X14091D02*
X16084D01*
X21863Y6090D02*
X23565D01*
X17697D02*
X20707D01*
X14091D02*
X16072D01*
X21863Y6077D02*
X23565D01*
X17685D02*
X20720D01*
X14091D02*
X16046D01*
X21863Y6065D02*
X23577D01*
X17672D02*
X20720D01*
X14103D02*
X16034D01*
X21876Y6052D02*
X23577D01*
X17659D02*
X20720D01*
X14103D02*
X16021D01*
X21876Y6039D02*
X23590D01*
X17647D02*
X20733D01*
X14116D02*
X16021D01*
X21888Y6027D02*
X23590D01*
X17634D02*
X20733D01*
X14116D02*
X16008D01*
X21888Y6014D02*
X23590D01*
X17621D02*
X20745D01*
X14116D02*
X15996D01*
X21888Y6001D02*
X23603D01*
X17608D02*
X20745D01*
X14129D02*
X15983D01*
X21901Y5988D02*
X23603D01*
X17596D02*
X20758D01*
X14129D02*
X15970D01*
X21901Y5976D02*
X23616D01*
X17583D02*
X20758D01*
X14141D02*
X15958D01*
X21914Y5963D02*
X23616D01*
X17570D02*
X20758D01*
X14141D02*
X15945D01*
X21914Y5950D02*
X23628D01*
X17545D02*
X20771D01*
X14154D02*
X15945D01*
X21927Y5938D02*
X23628D01*
X17532D02*
X20771D01*
X14154D02*
X15932D01*
X21927Y5925D02*
X23628D01*
X17520D02*
X20784D01*
X14154D02*
X15919D01*
X21927Y5912D02*
X23641D01*
X17507D02*
X20784D01*
X14167D02*
X15919D01*
X21939Y5899D02*
X23641D01*
X17494D02*
X20784D01*
X14167D02*
X15907D01*
X21939Y5887D02*
X23654D01*
X17482D02*
X20796D01*
X14179D02*
X15894D01*
X21952Y5874D02*
X23654D01*
X17469D02*
X20796D01*
X14179D02*
X15894D01*
X21952Y5861D02*
X23654D01*
X17456D02*
X20809D01*
X14179D02*
X15881D01*
X21952Y5849D02*
X23666D01*
X17443D02*
X20809D01*
X14192D02*
X15869D01*
X21965Y5836D02*
X23666D01*
X17431D02*
X20822D01*
X14192D02*
X15869D01*
X21965Y5823D02*
X23679D01*
X17418D02*
X20822D01*
X14205D02*
X15856D01*
X21977Y5811D02*
X23679D01*
X17405D02*
X20822D01*
X14205D02*
X15856D01*
X21977Y5798D02*
X23679D01*
X17393D02*
X20834D01*
X14218D02*
X15843D01*
X21990Y5785D02*
X23692D01*
X17380D02*
X20834D01*
X14218D02*
X15843D01*
X21990Y5773D02*
X23692D01*
X17354D02*
X20847D01*
X14218D02*
X15830D01*
X21990Y5760D02*
X23705D01*
X17342D02*
X20847D01*
X14230D02*
X15830D01*
X22003Y5747D02*
X23705D01*
X17329D02*
X20847D01*
X14230D02*
X15818D01*
X22003Y5734D02*
X23717D01*
X17316D02*
X20860D01*
X14243D02*
X15818D01*
X22015Y5722D02*
X23717D01*
X17304D02*
X20860D01*
X14243D02*
X15805D01*
X22015Y5709D02*
X23717D01*
X17291D02*
X20872D01*
X14243D02*
X15805D01*
X22015Y5696D02*
X23730D01*
X17278D02*
X20872D01*
X14256D02*
X15792D01*
X22028Y5684D02*
X23730D01*
X17266D02*
X20872D01*
X14256D02*
X15792D01*
X22028Y5671D02*
X23743D01*
X17253D02*
X20885D01*
X14268D02*
X15780D01*
X22041Y5658D02*
X23743D01*
X17240D02*
X20885D01*
X14268D02*
X15780D01*
X22041Y5646D02*
X23743D01*
X17228D02*
X20898D01*
X14281D02*
X15780D01*
X22041Y5633D02*
X23755D01*
X17215D02*
X20898D01*
X14281D02*
X15767D01*
X22053Y5620D02*
X23755D01*
X17202D02*
X20910D01*
X14281D02*
X15767D01*
X22053Y5607D02*
X23768D01*
X17177D02*
X20910D01*
X14294D02*
X15767D01*
X22066Y5595D02*
X23768D01*
X17164D02*
X20910D01*
X14294D02*
X15754D01*
X22066Y5582D02*
X23781D01*
X17151D02*
X20923D01*
X14307D02*
X15754D01*
X22079Y5569D02*
X23781D01*
X17139D02*
X20923D01*
X14307D02*
X15754D01*
X22079Y5557D02*
X23781D01*
X17126D02*
X20936D01*
X14307D02*
X15742D01*
X22079Y5544D02*
X23793D01*
X17113D02*
X20936D01*
X14319D02*
X15742D01*
X22092Y5531D02*
X23793D01*
X17101D02*
X20936D01*
X14319D02*
X15742D01*
X22092Y5518D02*
X23806D01*
X17088D02*
X20949D01*
X14332D02*
X15729D01*
X22104Y5506D02*
X23806D01*
X17075D02*
X20949D01*
X14332D02*
X15729D01*
X22104Y5493D02*
X23806D01*
X17062D02*
X20961D01*
X14332D02*
X15729D01*
X22104Y5480D02*
X23819D01*
X17050D02*
X20961D01*
X14345D02*
X15729D01*
X22117Y5468D02*
X23819D01*
X17037D02*
X20974D01*
X14345D02*
X15716D01*
X22117Y5455D02*
X23831D01*
X17024D02*
X20974D01*
X14357D02*
X15716D01*
X22130Y5442D02*
X23831D01*
X16999D02*
X20974D01*
X14357D02*
X15716D01*
X22130Y5430D02*
X23844D01*
X16986D02*
X20987D01*
X14370D02*
X15716D01*
X22142Y5417D02*
X23844D01*
X16973D02*
X20987D01*
X14370D02*
X15703D01*
X22142Y5404D02*
X23844D01*
X16961D02*
X20999D01*
X14370D02*
X15703D01*
X22142Y5391D02*
X23857D01*
X16948D02*
X20999D01*
X14383D02*
X15703D01*
X22155Y5379D02*
X23857D01*
X16935D02*
X20999D01*
X14383D02*
X15703D01*
X22155Y5366D02*
X23870D01*
X16923D02*
X21012D01*
X14395D02*
X15703D01*
X22168Y5353D02*
X23870D01*
X16910D02*
X21012D01*
X14395D02*
X15703D01*
X22168Y5341D02*
X23870D01*
X16897D02*
X21025D01*
X14395D02*
X15691D01*
X22168Y5328D02*
X23882D01*
X16885D02*
X21025D01*
X14408D02*
X15691D01*
X22181Y5315D02*
X23882D01*
X16872D02*
X21025D01*
X14408D02*
X15691D01*
X22181Y5303D02*
X23895D01*
X16859D02*
X21038D01*
X14421D02*
X15691D01*
X22193Y5290D02*
X23895D01*
X16847D02*
X21038D01*
X14421D02*
X15691D01*
X22193Y5277D02*
X23895D01*
X16847D02*
X21050D01*
X14434D02*
X15691D01*
X22193Y5265D02*
X23908D01*
X16834D02*
X21050D01*
X14434D02*
X15691D01*
X22206Y5252D02*
X23908D01*
X16834D02*
X21063D01*
X14434D02*
X15691D01*
X22206Y5239D02*
X23920D01*
X16821D02*
X21063D01*
X14446D02*
X15691D01*
X22219Y5226D02*
X23920D01*
X16821D02*
X21063D01*
X14446D02*
X15691D01*
X22219Y5214D02*
X23933D01*
X16808D02*
X21076D01*
X14459D02*
X15678D01*
X22231Y5201D02*
X23933D01*
X16808D02*
X21076D01*
X14459D02*
X15678D01*
X22231Y5188D02*
X23933D01*
X16808D02*
X21088D01*
X14459D02*
X15678D01*
X22231Y5176D02*
X23946D01*
X16808D02*
X21088D01*
X14472D02*
X15678D01*
X22244Y5163D02*
X23946D01*
X16796D02*
X21088D01*
X14472D02*
X15678D01*
X22244Y5150D02*
X23958D01*
X16796D02*
X21101D01*
X14484D02*
X15678D01*
X22257Y5137D02*
X23958D01*
X16796D02*
X21101D01*
X14484D02*
X15678D01*
X22257Y5125D02*
X23958D01*
X16796D02*
X21114D01*
X14497D02*
X15678D01*
X22257Y5112D02*
X23971D01*
X16796D02*
X21114D01*
X14497D02*
X15678D01*
X22269Y5099D02*
X23971D01*
X16796D02*
X21126D01*
X14497D02*
X15678D01*
X22269Y5087D02*
X23984D01*
X16808D02*
X21126D01*
X14510D02*
X15678D01*
X22282Y5074D02*
X23984D01*
X16808D02*
X21126D01*
X14510D02*
X15678D01*
X22282Y5061D02*
X23997D01*
X16808D02*
X21139D01*
X14522D02*
X15678D01*
X22295Y5049D02*
X23997D01*
X16808D02*
X21139D01*
X14522D02*
X15691D01*
X22295Y5036D02*
X23997D01*
X16821D02*
X21152D01*
X14522D02*
X15691D01*
X22295Y5023D02*
X24009D01*
X16821D02*
X21152D01*
X14535D02*
X15691D01*
X22308Y5010D02*
X24009D01*
X16834D02*
X21152D01*
X14535D02*
X15691D01*
X22308Y4998D02*
X24022D01*
X16834D02*
X21164D01*
X14548D02*
X15691D01*
X22320Y4985D02*
X24022D01*
X16847D02*
X21164D01*
X14548D02*
X15691D01*
X22320Y4972D02*
X24022D01*
X16859D02*
X21164D01*
X14561D02*
X15691D01*
X22333Y4960D02*
X24022D01*
X16859D02*
X21177D01*
X14561D02*
X15691D01*
X22346Y4947D02*
X24022D01*
X16872D02*
X21177D01*
X14561D02*
X15691D01*
X22346Y4934D02*
X24022D01*
X16885D02*
X21177D01*
X14573D02*
X15691D01*
X22358Y4922D02*
X24022D01*
X16910D02*
X21164D01*
X14573D02*
X15703D01*
X22384Y4909D02*
X24022D01*
X16923D02*
X21164D01*
X14586D02*
X15703D01*
X22396Y4896D02*
X24009D01*
X16948D02*
X21152D01*
X14586D02*
X15703D01*
X22422Y4884D02*
X23997D01*
X16973D02*
X21152D01*
X14586D02*
X15703D01*
X22447Y4871D02*
X23984D01*
X16999D02*
X21126D01*
X14599D02*
X15703D01*
X14599Y4858D02*
X15703D01*
X14611Y4845D02*
X15716D01*
X14611Y4833D02*
X15716D01*
X14611Y4820D02*
X15716D01*
X14624Y4807D02*
X15716D01*
X14624Y4795D02*
X15729D01*
X14637Y4782D02*
X15729D01*
X14637Y4769D02*
X15729D01*
X14649Y4756D02*
X15729D01*
X14649Y4744D02*
X15742D01*
X14649Y4731D02*
X15742D01*
X14662Y4718D02*
X15742D01*
X14662Y4706D02*
X15742D01*
X14675Y4693D02*
X15754D01*
X14675Y4680D02*
X15754D01*
X14675Y4668D02*
X15754D01*
X14688Y4655D02*
X15767D01*
X14688Y4642D02*
X15767D01*
X14700Y4629D02*
X15767D01*
X14700Y4617D02*
X15780D01*
X14713Y4604D02*
X15780D01*
X14713Y4591D02*
X15792D01*
X14713Y4579D02*
X15792D01*
X14726Y4566D02*
X15792D01*
X14726Y4553D02*
X15805D01*
X14738Y4541D02*
X15805D01*
X14738Y4528D02*
X15818D01*
X14738Y4515D02*
X15818D01*
X14751Y4503D02*
X15830D01*
X14751Y4490D02*
X15830D01*
X14764Y4477D02*
X15843D01*
X14764Y4464D02*
X15843D01*
X14776Y4452D02*
X15856D01*
X14776Y4439D02*
X15856D01*
X14776Y4426D02*
X15869D01*
X14789Y4414D02*
X15869D01*
X14789Y4401D02*
X15881D01*
X14802Y4388D02*
X15894D01*
X14802Y4376D02*
X15894D01*
X14802Y4363D02*
X15907D01*
X14814Y4350D02*
X15907D01*
X14814Y4337D02*
X15919D01*
X14827Y4325D02*
X15932D01*
X14827Y4312D02*
X15945D01*
X14840Y4299D02*
X15945D01*
X14840Y4287D02*
X15958D01*
X14840Y4274D02*
X15970D01*
X14853Y4261D02*
X15970D01*
X14853Y4248D02*
X15983D01*
X14865Y4236D02*
X15996D01*
X14865Y4223D02*
X16008D01*
X14865Y4210D02*
X16021D01*
X14878Y4198D02*
X16034D01*
X14878Y4185D02*
X16046D01*
X14891Y4172D02*
X16046D01*
X14891Y4160D02*
X16059D01*
X14891Y4147D02*
X16072D01*
X14903Y4134D02*
X16084D01*
X14903Y4122D02*
X16097D01*
X14916Y4109D02*
X16110D01*
X14916Y4096D02*
X16135D01*
X14929Y4083D02*
X16148D01*
X14929Y4071D02*
X16161D01*
X14929Y4058D02*
X16173D01*
X14941Y4045D02*
X16186D01*
X14941Y4033D02*
X16212D01*
X14954Y4020D02*
X16224D01*
X14954Y4007D02*
X16237D01*
X14954Y3994D02*
X16262D01*
X14967Y3982D02*
X16275D01*
X14967Y3969D02*
X16300D01*
X14980Y3956D02*
X16313D01*
X14980Y3944D02*
X16338D01*
X14992Y3931D02*
X16364D01*
X14992Y3918D02*
X16377D01*
X14992Y3906D02*
X16402D01*
X15005Y3893D02*
X16427D01*
X15005Y3880D02*
X16453D01*
X15018Y3868D02*
X16491D01*
X15018Y3855D02*
X16516D01*
X15018Y3842D02*
X16554D01*
X15030Y3829D02*
X16580D01*
X15030Y3817D02*
X16618D01*
X15043Y3804D02*
X16669D01*
X15043Y3791D02*
X16719D01*
X15056Y3779D02*
X16770D01*
X15056Y3766D02*
X16834D01*
X15056Y3753D02*
X16923D01*
X15068Y3740D02*
X24479D01*
X15068Y3728D02*
X24517D01*
X15081Y3715D02*
X24543D01*
X15081Y3702D02*
X24543D01*
X15094Y3690D02*
X24555D01*
X15094Y3677D02*
X24555D01*
X15107Y3664D02*
X24568D01*
X15107Y3652D02*
X24568D01*
X15119Y3639D02*
X24581D01*
X15119Y3626D02*
X24581D01*
X15132Y3614D02*
X24581D01*
X15145Y3601D02*
X24594D01*
X15145Y3588D02*
X24594D01*
X15157Y3575D02*
X24606D01*
X15157Y3563D02*
X24606D01*
X15170Y3550D02*
X24606D01*
X15183Y3537D02*
X24619D01*
X15183Y3525D02*
X24619D01*
X15196Y3512D02*
X24632D01*
X15208Y3499D02*
X24632D01*
X15221Y3487D02*
X24644D01*
X15221Y3474D02*
X24644D01*
X15234Y3461D02*
X24644D01*
X15246Y3448D02*
X24657D01*
X15259Y3436D02*
X24657D01*
X15259Y3423D02*
X24670D01*
X15272Y3410D02*
X24670D01*
X15284Y3398D02*
X24670D01*
X15297Y3385D02*
X24682D01*
X15310Y3372D02*
X24682D01*
X15323Y3359D02*
X24695D01*
X15335Y3347D02*
X24695D01*
X15335Y3334D02*
X24695D01*
X15348Y3321D02*
X24708D01*
X15361Y3309D02*
X24708D01*
X15373Y3296D02*
X24721D01*
X15386Y3283D02*
X24721D01*
X15399Y3271D02*
X24733D01*
X15424Y3258D02*
X24733D01*
X15437Y3245D02*
X24733D01*
X15450Y3233D02*
X24746D01*
X15462Y3220D02*
X24746D01*
X15475Y3207D02*
X24759D01*
X15488Y3194D02*
X24759D01*
X15513Y3182D02*
X24759D01*
X15526Y3169D02*
X24771D01*
X15538Y3156D02*
X24771D01*
X15564Y3144D02*
X24784D01*
X15576Y3131D02*
X24784D01*
X15589Y3118D02*
X24797D01*
X15615Y3105D02*
X24797D01*
X15627Y3093D02*
X24797D01*
X15653Y3080D02*
X24809D01*
X15678Y3067D02*
X24809D01*
X15691Y3055D02*
X24822D01*
X15716Y3042D02*
X24822D01*
X15742Y3029D02*
X24822D01*
X15767Y3017D02*
X24835D01*
X15792Y3004D02*
X24835D01*
X15818Y2991D02*
X24847D01*
X15843Y2978D02*
X24847D01*
X15881Y2966D02*
X24847D01*
X15907Y2953D02*
X24847D01*
X15945Y2940D02*
X24847D01*
X15983Y2928D02*
X24847D01*
X16021Y2915D02*
X24847D01*
X16072Y2902D02*
X24847D01*
X16123Y2890D02*
X24835D01*
X16186Y2877D02*
X24822D01*
X16275Y2864D02*
X24809D01*
M02*
