G04*
G04 #@! TF.GenerationSoftware,Altium Limited,Altium Designer,24.10.1 (45)*
G04*
G04 Layer_Color=8421504*
%FSLAX43Y43*%
%MOMM*%
G71*
G04*
G04 #@! TF.SameCoordinates,E9FE6A12-5DCA-4434-B4C6-82F8609C9334*
G04*
G04*
G04 #@! TF.FilePolarity,Positive*
G04*
G01*
G75*
%ADD10C,0.254*%
%ADD11R,0.249X0.805*%
%ADD12R,1.600X1.600*%
G04:AMPARAMS|DCode=13|XSize=0.254mm|YSize=0.254mm|CornerRadius=0.064mm|HoleSize=0mm|Usage=FLASHONLY|Rotation=0.000|XOffset=0mm|YOffset=0mm|HoleType=Round|Shape=RoundedRectangle|*
%AMROUNDEDRECTD13*
21,1,0.254,0.127,0,0,0.0*
21,1,0.127,0.254,0,0,0.0*
1,1,0.127,0.064,-0.064*
1,1,0.127,-0.064,-0.064*
1,1,0.127,-0.064,0.064*
1,1,0.127,0.064,0.064*
%
%ADD13ROUNDEDRECTD13*%
%ADD14R,1.000X0.300*%
%ADD15R,0.700X0.300*%
%ADD16R,0.510X0.560*%
%ADD17C,0.500*%
G36*
X100335Y6400D02*
X100357D01*
X100410Y6395D01*
X100468Y6386D01*
X100529Y6372D01*
X100596Y6356D01*
X100660Y6333D01*
X100663D01*
X100668Y6331D01*
X100677Y6328D01*
X100688Y6322D01*
X100718Y6306D01*
X100757Y6286D01*
X100799Y6259D01*
X100843Y6225D01*
X100885Y6189D01*
X100924Y6145D01*
X100929Y6139D01*
X100940Y6122D01*
X100957Y6098D01*
X100979Y6061D01*
X101001Y6017D01*
X101026Y5961D01*
X101051Y5900D01*
X101071Y5831D01*
X100840Y5770D01*
Y5773D01*
X100838Y5775D01*
X100835Y5784D01*
X100832Y5795D01*
X100824Y5820D01*
X100813Y5853D01*
X100796Y5892D01*
X100776Y5928D01*
X100757Y5967D01*
X100732Y6000D01*
X100729Y6003D01*
X100721Y6014D01*
X100704Y6028D01*
X100685Y6048D01*
X100660Y6070D01*
X100627Y6092D01*
X100590Y6114D01*
X100549Y6134D01*
X100543Y6136D01*
X100529Y6142D01*
X100504Y6150D01*
X100471Y6161D01*
X100432Y6170D01*
X100388Y6178D01*
X100338Y6184D01*
X100285Y6186D01*
X100255D01*
X100241Y6184D01*
X100224D01*
X100182Y6181D01*
X100135Y6172D01*
X100082Y6164D01*
X100032Y6150D01*
X99982Y6131D01*
X99977Y6128D01*
X99960Y6122D01*
X99938Y6109D01*
X99910Y6095D01*
X99877Y6073D01*
X99841Y6050D01*
X99808Y6023D01*
X99777Y5992D01*
X99774Y5989D01*
X99763Y5978D01*
X99749Y5959D01*
X99733Y5936D01*
X99713Y5909D01*
X99694Y5875D01*
X99674Y5839D01*
X99655Y5800D01*
Y5798D01*
X99652Y5792D01*
X99649Y5784D01*
X99644Y5770D01*
X99638Y5753D01*
X99633Y5734D01*
X99624Y5712D01*
X99619Y5687D01*
X99605Y5628D01*
X99594Y5562D01*
X99586Y5492D01*
X99583Y5415D01*
Y5412D01*
Y5403D01*
Y5390D01*
X99586Y5373D01*
Y5351D01*
X99588Y5323D01*
X99591Y5295D01*
X99594Y5265D01*
X99605Y5195D01*
X99619Y5123D01*
X99641Y5051D01*
X99669Y4981D01*
Y4979D01*
X99674Y4973D01*
X99677Y4965D01*
X99685Y4954D01*
X99705Y4923D01*
X99735Y4884D01*
X99771Y4843D01*
X99816Y4801D01*
X99869Y4762D01*
X99927Y4726D01*
X99930D01*
X99935Y4723D01*
X99944Y4718D01*
X99958Y4712D01*
X99971Y4707D01*
X99991Y4701D01*
X100035Y4684D01*
X100091Y4671D01*
X100152Y4657D01*
X100218Y4646D01*
X100288Y4643D01*
X100316D01*
X100332Y4646D01*
X100349D01*
X100391Y4651D01*
X100441Y4657D01*
X100493Y4668D01*
X100552Y4684D01*
X100610Y4704D01*
X100613D01*
X100618Y4707D01*
X100624Y4709D01*
X100635Y4715D01*
X100665Y4729D01*
X100699Y4745D01*
X100738Y4765D01*
X100779Y4787D01*
X100818Y4812D01*
X100851Y4840D01*
Y5201D01*
X100285D01*
Y5428D01*
X101101D01*
Y4715D01*
X101099Y4712D01*
X101093Y4709D01*
X101082Y4701D01*
X101068Y4690D01*
X101051Y4679D01*
X101032Y4665D01*
X101007Y4648D01*
X100982Y4632D01*
X100924Y4596D01*
X100857Y4557D01*
X100788Y4521D01*
X100713Y4490D01*
X100710D01*
X100704Y4487D01*
X100693Y4485D01*
X100679Y4479D01*
X100660Y4473D01*
X100638Y4465D01*
X100613Y4460D01*
X100588Y4454D01*
X100527Y4440D01*
X100457Y4426D01*
X100382Y4418D01*
X100305Y4415D01*
X100277D01*
X100257Y4418D01*
X100232D01*
X100202Y4421D01*
X100169Y4426D01*
X100132Y4429D01*
X100052Y4446D01*
X99966Y4465D01*
X99877Y4496D01*
X99833Y4512D01*
X99788Y4534D01*
X99785Y4537D01*
X99777Y4540D01*
X99766Y4548D01*
X99749Y4557D01*
X99730Y4571D01*
X99710Y4584D01*
X99658Y4623D01*
X99602Y4673D01*
X99544Y4734D01*
X99488Y4804D01*
X99438Y4884D01*
Y4887D01*
X99433Y4895D01*
X99427Y4907D01*
X99419Y4926D01*
X99411Y4945D01*
X99402Y4973D01*
X99391Y5001D01*
X99380Y5034D01*
X99369Y5070D01*
X99358Y5112D01*
X99350Y5154D01*
X99341Y5198D01*
X99327Y5295D01*
X99322Y5398D01*
Y5401D01*
Y5412D01*
Y5426D01*
X99325Y5445D01*
Y5470D01*
X99327Y5501D01*
X99333Y5531D01*
X99336Y5567D01*
X99344Y5606D01*
X99350Y5648D01*
X99372Y5737D01*
X99399Y5828D01*
X99438Y5920D01*
X99441Y5923D01*
X99444Y5931D01*
X99449Y5942D01*
X99461Y5959D01*
X99472Y5981D01*
X99486Y6003D01*
X99524Y6056D01*
X99572Y6117D01*
X99630Y6175D01*
X99697Y6234D01*
X99735Y6259D01*
X99774Y6284D01*
X99777Y6286D01*
X99785Y6289D01*
X99796Y6295D01*
X99813Y6303D01*
X99835Y6311D01*
X99860Y6322D01*
X99888Y6333D01*
X99921Y6345D01*
X99958Y6356D01*
X99996Y6364D01*
X100038Y6375D01*
X100082Y6383D01*
X100180Y6397D01*
X100230Y6403D01*
X100318D01*
X100335Y6400D01*
D02*
G37*
G36*
X103947Y6367D02*
X103994Y6364D01*
X104044Y6361D01*
X104091Y6356D01*
X104133Y6350D01*
X104138D01*
X104158Y6345D01*
X104183Y6339D01*
X104216Y6331D01*
X104252Y6317D01*
X104291Y6300D01*
X104333Y6281D01*
X104369Y6259D01*
X104374Y6256D01*
X104386Y6247D01*
X104402Y6231D01*
X104424Y6211D01*
X104449Y6186D01*
X104474Y6153D01*
X104502Y6117D01*
X104524Y6075D01*
X104527Y6070D01*
X104533Y6056D01*
X104544Y6031D01*
X104555Y5998D01*
X104563Y5959D01*
X104574Y5914D01*
X104580Y5864D01*
X104583Y5812D01*
Y5809D01*
Y5800D01*
Y5789D01*
X104580Y5770D01*
X104577Y5750D01*
X104574Y5725D01*
X104569Y5698D01*
X104563Y5667D01*
X104544Y5603D01*
X104533Y5570D01*
X104516Y5534D01*
X104497Y5498D01*
X104477Y5465D01*
X104452Y5431D01*
X104424Y5398D01*
X104422Y5395D01*
X104416Y5390D01*
X104408Y5381D01*
X104394Y5373D01*
X104377Y5359D01*
X104355Y5345D01*
X104327Y5328D01*
X104297Y5315D01*
X104261Y5298D01*
X104219Y5281D01*
X104175Y5267D01*
X104122Y5256D01*
X104066Y5245D01*
X104005Y5237D01*
X103936Y5231D01*
X103864Y5229D01*
X103372D01*
Y4448D01*
X103117D01*
Y6370D01*
X103905D01*
X103947Y6367D01*
D02*
G37*
G36*
X102853Y6142D02*
X102220D01*
Y4448D01*
X101965D01*
Y6142D01*
X101332D01*
Y6370D01*
X102853D01*
Y6142D01*
D02*
G37*
G36*
X98947Y4448D02*
X98678D01*
Y4718D01*
X98947D01*
Y4448D01*
D02*
G37*
G36*
X60892Y5870D02*
X60911Y5867D01*
X60953Y5862D01*
X61003Y5850D01*
X61056Y5834D01*
X61108Y5809D01*
X61161Y5778D01*
X61164D01*
X61167Y5773D01*
X61183Y5762D01*
X61208Y5739D01*
X61239Y5712D01*
X61272Y5676D01*
X61305Y5631D01*
X61339Y5578D01*
X61367Y5520D01*
Y5517D01*
X61369Y5512D01*
X61372Y5503D01*
X61378Y5492D01*
X61383Y5476D01*
X61389Y5456D01*
X61403Y5412D01*
X61417Y5356D01*
X61428Y5295D01*
X61436Y5226D01*
X61439Y5154D01*
Y5151D01*
Y5145D01*
Y5134D01*
Y5117D01*
X61436Y5098D01*
Y5076D01*
X61430Y5026D01*
X61419Y4965D01*
X61405Y4901D01*
X61386Y4834D01*
X61361Y4768D01*
Y4765D01*
X61358Y4759D01*
X61353Y4751D01*
X61347Y4740D01*
X61328Y4709D01*
X61303Y4671D01*
X61272Y4629D01*
X61233Y4587D01*
X61189Y4546D01*
X61136Y4507D01*
X61133D01*
X61131Y4504D01*
X61122Y4498D01*
X61111Y4493D01*
X61083Y4479D01*
X61044Y4462D01*
X60997Y4446D01*
X60947Y4432D01*
X60889Y4421D01*
X60831Y4418D01*
X60811D01*
X60789Y4421D01*
X60761Y4423D01*
X60728Y4429D01*
X60692Y4437D01*
X60656Y4448D01*
X60620Y4465D01*
X60617Y4468D01*
X60603Y4473D01*
X60586Y4485D01*
X60564Y4501D01*
X60542Y4518D01*
X60514Y4540D01*
X60489Y4565D01*
X60467Y4593D01*
Y3915D01*
X60231D01*
Y5842D01*
X60445D01*
Y5659D01*
X60448Y5664D01*
X60459Y5676D01*
X60473Y5695D01*
X60495Y5717D01*
X60520Y5745D01*
X60548Y5770D01*
X60581Y5795D01*
X60614Y5817D01*
X60620Y5820D01*
X60631Y5825D01*
X60653Y5834D01*
X60681Y5845D01*
X60714Y5856D01*
X60753Y5864D01*
X60797Y5870D01*
X60847Y5873D01*
X60878D01*
X60892Y5870D01*
D02*
G37*
G36*
X66269D02*
X66311Y5867D01*
X66355Y5862D01*
X66403Y5850D01*
X66453Y5839D01*
X66500Y5823D01*
X66503D01*
X66505Y5820D01*
X66519Y5814D01*
X66541Y5803D01*
X66569Y5789D01*
X66600Y5770D01*
X66630Y5748D01*
X66658Y5723D01*
X66683Y5695D01*
X66686Y5692D01*
X66691Y5681D01*
X66702Y5662D01*
X66716Y5639D01*
X66730Y5606D01*
X66744Y5570D01*
X66755Y5528D01*
X66766Y5481D01*
X66536Y5451D01*
Y5456D01*
X66533Y5467D01*
X66528Y5487D01*
X66519Y5512D01*
X66505Y5537D01*
X66489Y5564D01*
X66469Y5592D01*
X66441Y5617D01*
X66439Y5620D01*
X66428Y5626D01*
X66411Y5637D01*
X66386Y5648D01*
X66358Y5659D01*
X66322Y5670D01*
X66278Y5676D01*
X66230Y5678D01*
X66203D01*
X66175Y5676D01*
X66139Y5673D01*
X66103Y5664D01*
X66064Y5656D01*
X66028Y5642D01*
X65997Y5623D01*
X65994Y5620D01*
X65986Y5614D01*
X65975Y5603D01*
X65964Y5587D01*
X65950Y5570D01*
X65939Y5548D01*
X65931Y5523D01*
X65928Y5498D01*
Y5495D01*
Y5490D01*
X65931Y5481D01*
Y5470D01*
X65939Y5442D01*
X65956Y5415D01*
X65958Y5412D01*
X65961Y5409D01*
X65967Y5401D01*
X65978Y5392D01*
X65989Y5384D01*
X66006Y5373D01*
X66025Y5365D01*
X66047Y5353D01*
X66050D01*
X66056Y5351D01*
X66067Y5348D01*
X66086Y5340D01*
X66114Y5331D01*
X66150Y5323D01*
X66172Y5315D01*
X66197Y5309D01*
X66225Y5301D01*
X66255Y5292D01*
X66258D01*
X66267Y5290D01*
X66280Y5287D01*
X66297Y5281D01*
X66317Y5276D01*
X66342Y5270D01*
X66394Y5254D01*
X66453Y5237D01*
X66511Y5217D01*
X66564Y5198D01*
X66586Y5190D01*
X66605Y5181D01*
X66611Y5179D01*
X66622Y5173D01*
X66639Y5165D01*
X66664Y5151D01*
X66689Y5134D01*
X66714Y5112D01*
X66739Y5087D01*
X66761Y5059D01*
X66764Y5056D01*
X66769Y5045D01*
X66780Y5029D01*
X66791Y5004D01*
X66800Y4973D01*
X66811Y4940D01*
X66816Y4901D01*
X66819Y4857D01*
Y4851D01*
Y4837D01*
X66816Y4815D01*
X66811Y4784D01*
X66802Y4751D01*
X66788Y4715D01*
X66772Y4673D01*
X66750Y4634D01*
X66747Y4629D01*
X66736Y4618D01*
X66722Y4598D01*
X66700Y4576D01*
X66669Y4551D01*
X66636Y4523D01*
X66597Y4498D01*
X66550Y4473D01*
X66547D01*
X66544Y4471D01*
X66528Y4465D01*
X66500Y4457D01*
X66464Y4446D01*
X66419Y4435D01*
X66369Y4426D01*
X66317Y4421D01*
X66255Y4418D01*
X66230D01*
X66211Y4421D01*
X66189D01*
X66161Y4423D01*
X66133Y4426D01*
X66103Y4432D01*
X66036Y4446D01*
X65967Y4465D01*
X65900Y4493D01*
X65870Y4510D01*
X65842Y4529D01*
X65839Y4532D01*
X65836Y4534D01*
X65820Y4551D01*
X65795Y4576D01*
X65767Y4615D01*
X65736Y4662D01*
X65706Y4718D01*
X65681Y4787D01*
X65661Y4865D01*
X65895Y4901D01*
Y4898D01*
Y4895D01*
X65900Y4879D01*
X65906Y4851D01*
X65917Y4820D01*
X65931Y4787D01*
X65947Y4751D01*
X65972Y4715D01*
X66003Y4684D01*
X66008Y4682D01*
X66019Y4673D01*
X66042Y4662D01*
X66069Y4648D01*
X66106Y4634D01*
X66147Y4623D01*
X66197Y4615D01*
X66255Y4612D01*
X66283D01*
X66311Y4615D01*
X66347Y4621D01*
X66386Y4629D01*
X66428Y4640D01*
X66464Y4654D01*
X66497Y4676D01*
X66500Y4679D01*
X66511Y4687D01*
X66522Y4701D01*
X66539Y4720D01*
X66553Y4743D01*
X66566Y4770D01*
X66575Y4798D01*
X66578Y4832D01*
Y4834D01*
Y4845D01*
X66575Y4859D01*
X66569Y4879D01*
X66561Y4898D01*
X66547Y4918D01*
X66530Y4940D01*
X66505Y4956D01*
X66503Y4959D01*
X66494Y4962D01*
X66480Y4970D01*
X66458Y4979D01*
X66425Y4990D01*
X66405Y4998D01*
X66383Y5004D01*
X66358Y5012D01*
X66330Y5020D01*
X66300Y5029D01*
X66264Y5037D01*
X66261D01*
X66253Y5040D01*
X66239Y5043D01*
X66222Y5048D01*
X66200Y5054D01*
X66175Y5062D01*
X66122Y5076D01*
X66061Y5095D01*
X66003Y5112D01*
X65947Y5131D01*
X65922Y5142D01*
X65903Y5151D01*
X65897Y5154D01*
X65886Y5159D01*
X65870Y5170D01*
X65847Y5184D01*
X65822Y5204D01*
X65797Y5226D01*
X65772Y5251D01*
X65750Y5281D01*
X65747Y5284D01*
X65742Y5295D01*
X65734Y5315D01*
X65725Y5337D01*
X65717Y5365D01*
X65709Y5398D01*
X65703Y5431D01*
X65700Y5470D01*
Y5476D01*
Y5487D01*
X65703Y5503D01*
X65706Y5528D01*
X65711Y5553D01*
X65717Y5584D01*
X65728Y5612D01*
X65742Y5642D01*
X65745Y5645D01*
X65750Y5656D01*
X65759Y5670D01*
X65772Y5689D01*
X65789Y5709D01*
X65809Y5734D01*
X65831Y5756D01*
X65858Y5775D01*
X65861Y5778D01*
X65870Y5781D01*
X65881Y5789D01*
X65897Y5798D01*
X65920Y5809D01*
X65945Y5820D01*
X65975Y5831D01*
X66008Y5842D01*
X66014Y5845D01*
X66025Y5848D01*
X66044Y5853D01*
X66069Y5859D01*
X66100Y5864D01*
X66133Y5867D01*
X66172Y5873D01*
X66239D01*
X66269Y5870D01*
D02*
G37*
G36*
X64912D02*
X64953Y5867D01*
X65001Y5862D01*
X65048Y5853D01*
X65095Y5842D01*
X65139Y5828D01*
X65145Y5825D01*
X65159Y5820D01*
X65178Y5812D01*
X65203Y5800D01*
X65231Y5784D01*
X65259Y5767D01*
X65284Y5745D01*
X65306Y5723D01*
X65309Y5720D01*
X65314Y5712D01*
X65323Y5698D01*
X65334Y5681D01*
X65348Y5656D01*
X65359Y5631D01*
X65370Y5601D01*
X65378Y5564D01*
Y5562D01*
X65381Y5553D01*
X65384Y5537D01*
X65387Y5515D01*
Y5484D01*
X65389Y5448D01*
X65392Y5401D01*
Y5348D01*
Y5031D01*
Y5029D01*
Y5018D01*
Y5001D01*
Y4979D01*
Y4954D01*
Y4923D01*
X65395Y4857D01*
Y4787D01*
X65398Y4718D01*
X65400Y4687D01*
Y4659D01*
X65403Y4634D01*
X65406Y4615D01*
Y4612D01*
X65409Y4601D01*
X65411Y4584D01*
X65420Y4562D01*
X65425Y4537D01*
X65436Y4510D01*
X65450Y4479D01*
X65464Y4448D01*
X65217D01*
X65214Y4451D01*
X65212Y4462D01*
X65206Y4476D01*
X65198Y4498D01*
X65189Y4523D01*
X65184Y4554D01*
X65178Y4587D01*
X65173Y4623D01*
X65170D01*
X65167Y4618D01*
X65151Y4604D01*
X65126Y4584D01*
X65092Y4559D01*
X65051Y4534D01*
X65009Y4507D01*
X64965Y4482D01*
X64917Y4462D01*
X64912Y4460D01*
X64895Y4457D01*
X64870Y4448D01*
X64840Y4440D01*
X64801Y4432D01*
X64756Y4426D01*
X64706Y4421D01*
X64656Y4418D01*
X64634D01*
X64618Y4421D01*
X64598D01*
X64576Y4423D01*
X64526Y4432D01*
X64470Y4446D01*
X64409Y4465D01*
X64354Y4493D01*
X64304Y4529D01*
X64298Y4534D01*
X64284Y4548D01*
X64265Y4573D01*
X64243Y4607D01*
X64220Y4648D01*
X64201Y4696D01*
X64187Y4754D01*
X64184Y4782D01*
X64182Y4815D01*
Y4820D01*
Y4832D01*
X64184Y4851D01*
X64187Y4876D01*
X64193Y4907D01*
X64201Y4937D01*
X64212Y4970D01*
X64226Y5001D01*
X64229Y5004D01*
X64234Y5015D01*
X64245Y5031D01*
X64259Y5051D01*
X64276Y5073D01*
X64298Y5095D01*
X64320Y5117D01*
X64348Y5137D01*
X64351Y5140D01*
X64362Y5145D01*
X64376Y5156D01*
X64398Y5167D01*
X64423Y5179D01*
X64454Y5192D01*
X64484Y5204D01*
X64520Y5215D01*
X64523D01*
X64534Y5217D01*
X64551Y5223D01*
X64573Y5226D01*
X64601Y5231D01*
X64637Y5237D01*
X64679Y5245D01*
X64729Y5251D01*
X64731D01*
X64742Y5254D01*
X64756D01*
X64776Y5256D01*
X64798Y5259D01*
X64826Y5265D01*
X64856Y5267D01*
X64890Y5273D01*
X64956Y5287D01*
X65028Y5301D01*
X65092Y5317D01*
X65123Y5326D01*
X65151Y5334D01*
Y5337D01*
Y5342D01*
X65153Y5359D01*
Y5378D01*
Y5390D01*
Y5395D01*
Y5398D01*
Y5401D01*
Y5417D01*
X65151Y5445D01*
X65145Y5476D01*
X65137Y5509D01*
X65123Y5542D01*
X65106Y5573D01*
X65084Y5598D01*
X65081Y5601D01*
X65067Y5612D01*
X65045Y5623D01*
X65017Y5639D01*
X64978Y5653D01*
X64934Y5667D01*
X64878Y5676D01*
X64815Y5678D01*
X64787D01*
X64759Y5676D01*
X64720Y5670D01*
X64681Y5664D01*
X64640Y5653D01*
X64601Y5639D01*
X64568Y5620D01*
X64565Y5617D01*
X64554Y5609D01*
X64540Y5595D01*
X64523Y5573D01*
X64506Y5545D01*
X64487Y5509D01*
X64470Y5465D01*
X64454Y5415D01*
X64223Y5445D01*
Y5448D01*
X64226Y5451D01*
Y5459D01*
X64229Y5470D01*
X64237Y5495D01*
X64248Y5531D01*
X64262Y5567D01*
X64279Y5606D01*
X64301Y5645D01*
X64326Y5681D01*
X64329Y5684D01*
X64340Y5695D01*
X64357Y5712D01*
X64379Y5734D01*
X64409Y5756D01*
X64445Y5778D01*
X64487Y5803D01*
X64534Y5823D01*
X64537D01*
X64540Y5825D01*
X64548Y5828D01*
X64559Y5831D01*
X64587Y5839D01*
X64626Y5848D01*
X64670Y5856D01*
X64726Y5864D01*
X64784Y5870D01*
X64851Y5873D01*
X64881D01*
X64912Y5870D01*
D02*
G37*
G36*
X63332Y6367D02*
X63379Y6364D01*
X63429Y6361D01*
X63476Y6356D01*
X63518Y6350D01*
X63524D01*
X63543Y6345D01*
X63568Y6339D01*
X63601Y6331D01*
X63637Y6317D01*
X63676Y6300D01*
X63718Y6281D01*
X63754Y6259D01*
X63760Y6256D01*
X63771Y6247D01*
X63787Y6231D01*
X63810Y6211D01*
X63835Y6186D01*
X63860Y6153D01*
X63887Y6117D01*
X63910Y6075D01*
X63912Y6070D01*
X63918Y6056D01*
X63929Y6031D01*
X63940Y5998D01*
X63948Y5959D01*
X63960Y5914D01*
X63965Y5864D01*
X63968Y5812D01*
Y5809D01*
Y5800D01*
Y5789D01*
X63965Y5770D01*
X63962Y5750D01*
X63960Y5725D01*
X63954Y5698D01*
X63948Y5667D01*
X63929Y5603D01*
X63918Y5570D01*
X63901Y5534D01*
X63882Y5498D01*
X63862Y5465D01*
X63837Y5431D01*
X63810Y5398D01*
X63807Y5395D01*
X63801Y5390D01*
X63793Y5381D01*
X63779Y5373D01*
X63762Y5359D01*
X63740Y5345D01*
X63712Y5328D01*
X63682Y5315D01*
X63646Y5298D01*
X63604Y5281D01*
X63560Y5267D01*
X63507Y5256D01*
X63451Y5245D01*
X63390Y5237D01*
X63321Y5231D01*
X63249Y5229D01*
X62757D01*
Y4448D01*
X62502D01*
Y6370D01*
X63290D01*
X63332Y6367D01*
D02*
G37*
G36*
X58504Y6142D02*
X57871D01*
Y4448D01*
X57616D01*
Y6142D01*
X56983D01*
Y6370D01*
X58504D01*
Y6142D01*
D02*
G37*
G36*
X67374Y5842D02*
X67613D01*
Y5659D01*
X67374D01*
Y4840D01*
Y4834D01*
Y4823D01*
Y4807D01*
X67377Y4787D01*
X67380Y4743D01*
X67383Y4723D01*
X67385Y4709D01*
X67388Y4704D01*
X67396Y4693D01*
X67408Y4679D01*
X67427Y4665D01*
X67433Y4662D01*
X67446Y4657D01*
X67471Y4651D01*
X67508Y4648D01*
X67535D01*
X67549Y4651D01*
X67569D01*
X67591Y4654D01*
X67613Y4657D01*
X67644Y4448D01*
X67638D01*
X67627Y4446D01*
X67607Y4443D01*
X67582Y4440D01*
X67555Y4435D01*
X67524Y4432D01*
X67463Y4429D01*
X67441D01*
X67419Y4432D01*
X67391Y4435D01*
X67358Y4437D01*
X67324Y4446D01*
X67294Y4454D01*
X67263Y4468D01*
X67260Y4471D01*
X67252Y4476D01*
X67241Y4485D01*
X67224Y4498D01*
X67210Y4512D01*
X67194Y4532D01*
X67177Y4551D01*
X67166Y4576D01*
Y4579D01*
X67161Y4590D01*
X67158Y4609D01*
X67152Y4637D01*
X67147Y4673D01*
X67144Y4696D01*
Y4720D01*
X67141Y4751D01*
X67138Y4782D01*
Y4815D01*
Y4854D01*
Y5659D01*
X66963D01*
Y5842D01*
X67138D01*
Y6186D01*
X67374Y6328D01*
Y5842D01*
D02*
G37*
G36*
X68463Y5870D02*
X68485Y5867D01*
X68513Y5862D01*
X68543Y5856D01*
X68579Y5848D01*
X68612Y5839D01*
X68651Y5825D01*
X68687Y5812D01*
X68726Y5792D01*
X68765Y5770D01*
X68804Y5745D01*
X68840Y5714D01*
X68873Y5681D01*
X68876Y5678D01*
X68882Y5673D01*
X68890Y5662D01*
X68901Y5645D01*
X68915Y5626D01*
X68929Y5603D01*
X68946Y5576D01*
X68962Y5542D01*
X68979Y5506D01*
X68996Y5467D01*
X69009Y5423D01*
X69023Y5376D01*
X69034Y5323D01*
X69043Y5267D01*
X69048Y5209D01*
X69051Y5145D01*
Y5142D01*
Y5131D01*
Y5112D01*
X69048Y5084D01*
X68007D01*
Y5081D01*
Y5073D01*
X68010Y5062D01*
Y5045D01*
X68013Y5026D01*
X68018Y5004D01*
X68027Y4954D01*
X68043Y4898D01*
X68066Y4837D01*
X68096Y4782D01*
X68135Y4732D01*
X68138D01*
X68141Y4726D01*
X68157Y4712D01*
X68182Y4693D01*
X68215Y4673D01*
X68260Y4651D01*
X68310Y4632D01*
X68365Y4618D01*
X68396Y4615D01*
X68429Y4612D01*
X68451D01*
X68476Y4615D01*
X68507Y4621D01*
X68540Y4629D01*
X68579Y4640D01*
X68615Y4657D01*
X68651Y4679D01*
X68654Y4682D01*
X68668Y4693D01*
X68685Y4709D01*
X68704Y4732D01*
X68726Y4762D01*
X68751Y4801D01*
X68776Y4845D01*
X68798Y4898D01*
X69043Y4868D01*
Y4865D01*
X69040Y4859D01*
X69037Y4848D01*
X69032Y4832D01*
X69023Y4815D01*
X69015Y4793D01*
X68993Y4745D01*
X68965Y4693D01*
X68926Y4637D01*
X68882Y4584D01*
X68826Y4534D01*
X68823D01*
X68818Y4529D01*
X68810Y4523D01*
X68798Y4515D01*
X68782Y4507D01*
X68765Y4498D01*
X68743Y4487D01*
X68718Y4476D01*
X68690Y4465D01*
X68662Y4454D01*
X68593Y4437D01*
X68515Y4423D01*
X68429Y4418D01*
X68399D01*
X68379Y4421D01*
X68354Y4423D01*
X68324Y4429D01*
X68290Y4435D01*
X68254Y4440D01*
X68177Y4462D01*
X68135Y4479D01*
X68096Y4496D01*
X68054Y4518D01*
X68016Y4543D01*
X67979Y4571D01*
X67943Y4604D01*
X67941Y4607D01*
X67935Y4612D01*
X67927Y4623D01*
X67916Y4640D01*
X67902Y4659D01*
X67888Y4682D01*
X67871Y4709D01*
X67855Y4740D01*
X67838Y4776D01*
X67821Y4815D01*
X67807Y4859D01*
X67793Y4907D01*
X67782Y4956D01*
X67774Y5012D01*
X67769Y5070D01*
X67766Y5131D01*
Y5134D01*
Y5148D01*
Y5165D01*
X67769Y5190D01*
X67771Y5220D01*
X67774Y5254D01*
X67780Y5292D01*
X67788Y5331D01*
X67810Y5420D01*
X67824Y5465D01*
X67841Y5512D01*
X67863Y5556D01*
X67888Y5598D01*
X67916Y5639D01*
X67946Y5678D01*
X67949Y5681D01*
X67955Y5687D01*
X67966Y5695D01*
X67979Y5709D01*
X67996Y5723D01*
X68018Y5739D01*
X68043Y5759D01*
X68074Y5775D01*
X68104Y5795D01*
X68141Y5812D01*
X68179Y5828D01*
X68221Y5842D01*
X68265Y5856D01*
X68313Y5864D01*
X68363Y5870D01*
X68415Y5873D01*
X68443D01*
X68463Y5870D01*
D02*
G37*
G36*
X59348D02*
X59373Y5867D01*
X59401Y5862D01*
X59432Y5856D01*
X59468Y5850D01*
X59543Y5825D01*
X59581Y5812D01*
X59620Y5792D01*
X59659Y5773D01*
X59698Y5745D01*
X59734Y5717D01*
X59770Y5684D01*
X59773Y5681D01*
X59779Y5676D01*
X59787Y5664D01*
X59798Y5651D01*
X59812Y5631D01*
X59829Y5606D01*
X59845Y5578D01*
X59862Y5548D01*
X59878Y5515D01*
X59895Y5473D01*
X59912Y5431D01*
X59926Y5384D01*
X59937Y5334D01*
X59945Y5281D01*
X59951Y5226D01*
X59953Y5165D01*
Y5162D01*
Y5154D01*
Y5140D01*
Y5120D01*
X59951Y5098D01*
X59948Y5070D01*
Y5043D01*
X59942Y5012D01*
X59934Y4943D01*
X59917Y4873D01*
X59898Y4804D01*
X59870Y4740D01*
Y4737D01*
X59867Y4734D01*
X59862Y4726D01*
X59856Y4715D01*
X59837Y4687D01*
X59812Y4654D01*
X59779Y4615D01*
X59737Y4576D01*
X59690Y4537D01*
X59634Y4501D01*
X59631D01*
X59629Y4498D01*
X59620Y4493D01*
X59606Y4487D01*
X59593Y4482D01*
X59576Y4476D01*
X59534Y4460D01*
X59487Y4446D01*
X59429Y4432D01*
X59368Y4421D01*
X59301Y4418D01*
X59273D01*
X59251Y4421D01*
X59226Y4423D01*
X59198Y4429D01*
X59165Y4435D01*
X59132Y4440D01*
X59057Y4462D01*
X59015Y4479D01*
X58976Y4496D01*
X58937Y4518D01*
X58898Y4543D01*
X58862Y4571D01*
X58826Y4604D01*
X58824Y4607D01*
X58818Y4612D01*
X58810Y4623D01*
X58799Y4640D01*
X58785Y4659D01*
X58771Y4682D01*
X58754Y4709D01*
X58737Y4743D01*
X58721Y4779D01*
X58704Y4820D01*
X58690Y4865D01*
X58676Y4912D01*
X58665Y4965D01*
X58657Y5020D01*
X58651Y5081D01*
X58649Y5145D01*
Y5151D01*
Y5162D01*
X58651Y5181D01*
Y5209D01*
X58654Y5240D01*
X58660Y5279D01*
X58665Y5317D01*
X58676Y5362D01*
X58687Y5406D01*
X58701Y5453D01*
X58718Y5503D01*
X58740Y5551D01*
X58762Y5595D01*
X58793Y5639D01*
X58824Y5681D01*
X58862Y5717D01*
X58865Y5720D01*
X58871Y5723D01*
X58882Y5731D01*
X58896Y5742D01*
X58912Y5753D01*
X58935Y5767D01*
X58957Y5781D01*
X58985Y5795D01*
X59015Y5809D01*
X59048Y5823D01*
X59123Y5848D01*
X59209Y5867D01*
X59254Y5870D01*
X59301Y5873D01*
X59329D01*
X59348Y5870D01*
D02*
G37*
%LPC*%
G36*
X103922Y6142D02*
X103372D01*
Y5456D01*
X103889D01*
X103908Y5459D01*
X103928D01*
X103950Y5462D01*
X104002Y5467D01*
X104061Y5478D01*
X104119Y5495D01*
X104172Y5517D01*
X104197Y5531D01*
X104216Y5548D01*
X104222Y5553D01*
X104233Y5564D01*
X104250Y5587D01*
X104269Y5614D01*
X104288Y5651D01*
X104305Y5695D01*
X104316Y5745D01*
X104322Y5803D01*
Y5806D01*
Y5809D01*
Y5823D01*
X104319Y5848D01*
X104313Y5875D01*
X104308Y5906D01*
X104297Y5942D01*
X104280Y5975D01*
X104261Y6009D01*
X104258Y6011D01*
X104250Y6023D01*
X104236Y6036D01*
X104219Y6056D01*
X104194Y6075D01*
X104166Y6092D01*
X104136Y6109D01*
X104100Y6122D01*
X104097D01*
X104086Y6125D01*
X104069Y6128D01*
X104047Y6134D01*
X104014Y6136D01*
X103972Y6139D01*
X103922Y6142D01*
D02*
G37*
G36*
X60825Y5687D02*
X60811D01*
X60800Y5684D01*
X60772Y5678D01*
X60736Y5670D01*
X60695Y5653D01*
X60650Y5628D01*
X60625Y5612D01*
X60603Y5592D01*
X60581Y5570D01*
X60559Y5545D01*
Y5542D01*
X60553Y5539D01*
X60548Y5531D01*
X60542Y5520D01*
X60534Y5503D01*
X60523Y5487D01*
X60511Y5465D01*
X60503Y5442D01*
X60492Y5415D01*
X60481Y5384D01*
X60473Y5351D01*
X60461Y5315D01*
X60456Y5273D01*
X60450Y5231D01*
X60445Y5187D01*
Y5137D01*
Y5134D01*
Y5126D01*
Y5112D01*
X60448Y5093D01*
Y5070D01*
X60450Y5045D01*
X60459Y4987D01*
X60473Y4920D01*
X60489Y4857D01*
X60517Y4793D01*
X60534Y4765D01*
X60553Y4740D01*
X60559Y4734D01*
X60573Y4720D01*
X60595Y4698D01*
X60625Y4676D01*
X60664Y4654D01*
X60709Y4632D01*
X60759Y4618D01*
X60786Y4615D01*
X60814Y4612D01*
X60831D01*
X60842Y4615D01*
X60870Y4621D01*
X60908Y4629D01*
X60950Y4646D01*
X60995Y4668D01*
X61039Y4701D01*
X61061Y4720D01*
X61083Y4743D01*
Y4745D01*
X61089Y4748D01*
X61094Y4757D01*
X61100Y4768D01*
X61111Y4782D01*
X61119Y4801D01*
X61131Y4820D01*
X61142Y4845D01*
X61150Y4870D01*
X61161Y4904D01*
X61172Y4937D01*
X61181Y4973D01*
X61186Y5015D01*
X61192Y5059D01*
X61197Y5106D01*
Y5156D01*
Y5159D01*
Y5167D01*
Y5181D01*
X61194Y5201D01*
Y5223D01*
X61192Y5248D01*
X61183Y5306D01*
X61169Y5370D01*
X61150Y5434D01*
X61122Y5498D01*
X61106Y5528D01*
X61086Y5553D01*
Y5556D01*
X61081Y5559D01*
X61067Y5576D01*
X61044Y5595D01*
X61014Y5620D01*
X60975Y5645D01*
X60931Y5667D01*
X60881Y5681D01*
X60853Y5684D01*
X60825Y5687D01*
D02*
G37*
G36*
X65153Y5148D02*
X65151D01*
X65148Y5145D01*
X65139Y5142D01*
X65128Y5140D01*
X65114Y5134D01*
X65098Y5129D01*
X65078Y5123D01*
X65056Y5117D01*
X65031Y5109D01*
X65001Y5104D01*
X64970Y5095D01*
X64934Y5087D01*
X64895Y5079D01*
X64856Y5070D01*
X64812Y5065D01*
X64765Y5056D01*
X64759D01*
X64742Y5054D01*
X64715Y5048D01*
X64684Y5043D01*
X64651Y5037D01*
X64618Y5029D01*
X64587Y5020D01*
X64559Y5009D01*
X64556D01*
X64548Y5004D01*
X64537Y4998D01*
X64526Y4990D01*
X64493Y4968D01*
X64465Y4934D01*
Y4931D01*
X64459Y4926D01*
X64456Y4915D01*
X64451Y4901D01*
X64445Y4884D01*
X64440Y4868D01*
X64437Y4845D01*
X64434Y4823D01*
Y4820D01*
Y4807D01*
X64437Y4790D01*
X64443Y4768D01*
X64451Y4743D01*
X64465Y4718D01*
X64481Y4690D01*
X64504Y4665D01*
X64506Y4662D01*
X64518Y4657D01*
X64534Y4646D01*
X64556Y4634D01*
X64587Y4623D01*
X64623Y4612D01*
X64665Y4607D01*
X64715Y4604D01*
X64737D01*
X64765Y4607D01*
X64795Y4612D01*
X64834Y4618D01*
X64873Y4629D01*
X64915Y4643D01*
X64956Y4662D01*
X64962Y4665D01*
X64973Y4673D01*
X64992Y4687D01*
X65015Y4707D01*
X65039Y4729D01*
X65067Y4757D01*
X65089Y4790D01*
X65112Y4826D01*
X65114Y4829D01*
X65117Y4840D01*
X65123Y4859D01*
X65131Y4884D01*
X65139Y4918D01*
X65145Y4956D01*
X65148Y5004D01*
X65151Y5059D01*
X65153Y5148D01*
D02*
G37*
G36*
X63307Y6142D02*
X62757D01*
Y5456D01*
X63274D01*
X63293Y5459D01*
X63313D01*
X63335Y5462D01*
X63388Y5467D01*
X63446Y5478D01*
X63504Y5495D01*
X63557Y5517D01*
X63582Y5531D01*
X63601Y5548D01*
X63607Y5553D01*
X63618Y5564D01*
X63635Y5587D01*
X63654Y5614D01*
X63674Y5651D01*
X63690Y5695D01*
X63701Y5745D01*
X63707Y5803D01*
Y5806D01*
Y5809D01*
Y5823D01*
X63704Y5848D01*
X63699Y5875D01*
X63693Y5906D01*
X63682Y5942D01*
X63665Y5975D01*
X63646Y6009D01*
X63643Y6011D01*
X63635Y6023D01*
X63621Y6036D01*
X63604Y6056D01*
X63579Y6075D01*
X63551Y6092D01*
X63521Y6109D01*
X63485Y6122D01*
X63482D01*
X63471Y6125D01*
X63454Y6128D01*
X63432Y6134D01*
X63399Y6136D01*
X63357Y6139D01*
X63307Y6142D01*
D02*
G37*
G36*
X68418Y5678D02*
X68401D01*
X68390Y5676D01*
X68360Y5673D01*
X68324Y5664D01*
X68279Y5651D01*
X68232Y5631D01*
X68188Y5603D01*
X68143Y5567D01*
X68138Y5562D01*
X68127Y5548D01*
X68107Y5523D01*
X68088Y5490D01*
X68066Y5451D01*
X68046Y5401D01*
X68029Y5342D01*
X68021Y5279D01*
X68801D01*
Y5281D01*
Y5287D01*
X68798Y5295D01*
Y5306D01*
X68793Y5340D01*
X68785Y5376D01*
X68771Y5420D01*
X68757Y5462D01*
X68735Y5503D01*
X68710Y5539D01*
Y5542D01*
X68704Y5545D01*
X68690Y5562D01*
X68665Y5584D01*
X68632Y5609D01*
X68590Y5634D01*
X68540Y5656D01*
X68482Y5673D01*
X68451Y5676D01*
X68418Y5678D01*
D02*
G37*
G36*
X59301D02*
X59284D01*
X59271Y5676D01*
X59240Y5673D01*
X59198Y5662D01*
X59151Y5645D01*
X59101Y5623D01*
X59054Y5589D01*
X59029Y5567D01*
X59007Y5545D01*
Y5542D01*
X59001Y5539D01*
X58996Y5531D01*
X58987Y5520D01*
X58979Y5506D01*
X58971Y5490D01*
X58960Y5467D01*
X58948Y5445D01*
X58937Y5417D01*
X58926Y5390D01*
X58918Y5356D01*
X58910Y5320D01*
X58901Y5281D01*
X58896Y5240D01*
X58893Y5192D01*
X58890Y5145D01*
Y5142D01*
Y5134D01*
Y5120D01*
X58893Y5101D01*
Y5079D01*
X58896Y5054D01*
X58904Y4995D01*
X58918Y4929D01*
X58940Y4862D01*
X58968Y4798D01*
X58987Y4770D01*
X59007Y4743D01*
X59010D01*
X59012Y4737D01*
X59029Y4723D01*
X59054Y4701D01*
X59087Y4679D01*
X59129Y4654D01*
X59179Y4632D01*
X59237Y4618D01*
X59268Y4615D01*
X59301Y4612D01*
X59318D01*
X59332Y4615D01*
X59362Y4621D01*
X59404Y4629D01*
X59448Y4646D01*
X59498Y4668D01*
X59545Y4701D01*
X59570Y4723D01*
X59593Y4745D01*
X59595Y4748D01*
X59598Y4751D01*
X59604Y4759D01*
X59612Y4770D01*
X59620Y4784D01*
X59631Y4801D01*
X59643Y4823D01*
X59654Y4845D01*
X59665Y4873D01*
X59673Y4904D01*
X59684Y4937D01*
X59692Y4973D01*
X59701Y5015D01*
X59706Y5056D01*
X59712Y5104D01*
Y5154D01*
Y5156D01*
Y5165D01*
Y5179D01*
X59709Y5195D01*
Y5217D01*
X59706Y5242D01*
X59698Y5301D01*
X59684Y5362D01*
X59662Y5428D01*
X59631Y5490D01*
X59615Y5520D01*
X59593Y5545D01*
Y5548D01*
X59587Y5551D01*
X59570Y5567D01*
X59545Y5587D01*
X59512Y5612D01*
X59470Y5637D01*
X59420Y5659D01*
X59365Y5673D01*
X59334Y5676D01*
X59301Y5678D01*
D02*
G37*
%LPD*%
D10*
X0Y0D02*
X37280D01*
X0Y31820D02*
X37280D01*
Y0D02*
Y31820D01*
X0Y0D02*
Y31820D01*
D11*
X3137Y8021D02*
D03*
X2637D02*
D03*
X2137D02*
D03*
X1636D02*
D03*
Y5118D02*
D03*
X2137D02*
D03*
X2637D02*
D03*
X3137D02*
D03*
D12*
X2387Y6570D02*
D03*
D13*
X7776Y10567D02*
D03*
X7789Y9317D02*
D03*
D14*
X628Y4233D02*
D03*
Y653D02*
D03*
D15*
X3278Y1443D02*
D03*
Y1943D02*
D03*
Y3443D02*
D03*
Y2443D02*
D03*
Y2943D02*
D03*
D16*
X2750Y8950D02*
D03*
X1850D02*
D03*
D17*
X35800Y1250D02*
D03*
X1800Y30100D02*
D03*
M02*
