G04*
G04 #@! TF.GenerationSoftware,Altium Limited,Altium Designer,24.10.1 (45)*
G04*
G04 Layer_Color=128*
%FSLAX43Y43*%
%MOMM*%
G71*
G04*
G04 #@! TF.SameCoordinates,E9FE6A12-5DCA-4434-B4C6-82F8609C9334*
G04*
G04*
G04 #@! TF.FilePolarity,Positive*
G04*
G01*
G75*
%ADD10C,0.254*%
%ADD17C,0.500*%
G36*
X121956Y5838D02*
X122003Y5830D01*
X122045Y5821D01*
X122081Y5810D01*
X122112Y5796D01*
X122134Y5788D01*
X122148Y5780D01*
X122153Y5777D01*
X122192Y5752D01*
X122225Y5724D01*
X122256Y5696D01*
X122281Y5669D01*
X122300Y5646D01*
X122317Y5627D01*
X122325Y5616D01*
X122328Y5610D01*
Y5810D01*
X122539D01*
Y4416D01*
X122303D01*
Y5138D01*
X122300Y5205D01*
X122298Y5263D01*
X122292Y5313D01*
X122284Y5355D01*
X122275Y5385D01*
X122270Y5408D01*
X122267Y5421D01*
X122264Y5427D01*
X122248Y5463D01*
X122228Y5494D01*
X122209Y5521D01*
X122189Y5544D01*
X122170Y5560D01*
X122156Y5571D01*
X122145Y5580D01*
X122142Y5582D01*
X122109Y5599D01*
X122078Y5613D01*
X122045Y5621D01*
X122017Y5630D01*
X121995Y5632D01*
X121976Y5635D01*
X121959D01*
X121912Y5632D01*
X121873Y5624D01*
X121840Y5610D01*
X121815Y5596D01*
X121795Y5580D01*
X121781Y5569D01*
X121773Y5557D01*
X121770Y5555D01*
X121751Y5521D01*
X121737Y5485D01*
X121726Y5446D01*
X121720Y5408D01*
X121715Y5374D01*
X121712Y5344D01*
Y5333D01*
Y5327D01*
Y5321D01*
Y5319D01*
Y4416D01*
X121476Y4416D01*
Y5224D01*
X121470Y5299D01*
X121459Y5363D01*
X121445Y5416D01*
X121426Y5460D01*
X121409Y5494D01*
X121393Y5516D01*
X121382Y5530D01*
X121379Y5535D01*
X121340Y5569D01*
X121298Y5594D01*
X121257Y5610D01*
X121218Y5624D01*
X121184Y5630D01*
X121157Y5632D01*
X121146Y5635D01*
X121132D01*
X121101Y5632D01*
X121076Y5630D01*
X121051Y5624D01*
X121032Y5616D01*
X121012Y5607D01*
X121001Y5602D01*
X120993Y5599D01*
X120990Y5596D01*
X120968Y5580D01*
X120951Y5563D01*
X120937Y5546D01*
X120926Y5530D01*
X120918Y5516D01*
X120912Y5505D01*
X120907Y5496D01*
Y5494D01*
X120898Y5469D01*
X120893Y5435D01*
X120890Y5402D01*
X120887Y5369D01*
X120885Y5338D01*
Y5313D01*
Y5296D01*
Y5294D01*
Y5291D01*
Y4416D01*
X120649D01*
Y5371D01*
Y5416D01*
X120654Y5455D01*
X120660Y5494D01*
X120665Y5527D01*
X120674Y5560D01*
X120685Y5588D01*
X120693Y5613D01*
X120704Y5638D01*
X120715Y5657D01*
X120724Y5677D01*
X120743Y5702D01*
X120754Y5718D01*
X120760Y5724D01*
X120804Y5763D01*
X120857Y5791D01*
X120910Y5813D01*
X120960Y5827D01*
X121007Y5835D01*
X121026Y5838D01*
X121046D01*
X121059Y5841D01*
X121079D01*
X121129Y5838D01*
X121173Y5830D01*
X121218Y5818D01*
X121259Y5802D01*
X121298Y5782D01*
X121334Y5763D01*
X121365Y5741D01*
X121395Y5718D01*
X121423Y5693D01*
X121445Y5671D01*
X121465Y5652D01*
X121481Y5632D01*
X121495Y5616D01*
X121504Y5605D01*
X121509Y5596D01*
X121512Y5594D01*
X121529Y5635D01*
X121551Y5671D01*
X121576Y5702D01*
X121598Y5727D01*
X121620Y5749D01*
X121637Y5763D01*
X121648Y5771D01*
X121654Y5774D01*
X121692Y5796D01*
X121734Y5813D01*
X121776Y5824D01*
X121817Y5832D01*
X121851Y5838D01*
X121881Y5841D01*
X121906D01*
X121956Y5838D01*
D02*
G37*
G36*
X117239Y5838D02*
X117298Y5832D01*
X117353Y5824D01*
X117398Y5816D01*
X117436Y5807D01*
X117464Y5799D01*
X117475Y5796D01*
X117484Y5793D01*
X117486Y5791D01*
X117489D01*
X117536Y5771D01*
X117578Y5746D01*
X117614Y5724D01*
X117645Y5702D01*
X117667Y5680D01*
X117684Y5663D01*
X117695Y5652D01*
X117697Y5649D01*
X117722Y5613D01*
X117745Y5574D01*
X117761Y5535D01*
X117775Y5499D01*
X117786Y5463D01*
X117795Y5438D01*
X117797Y5427D01*
Y5419D01*
X117800Y5416D01*
Y5413D01*
X117570Y5383D01*
X117553Y5433D01*
X117536Y5477D01*
X117517Y5513D01*
X117500Y5541D01*
X117484Y5563D01*
X117470Y5577D01*
X117459Y5585D01*
X117456Y5588D01*
X117423Y5607D01*
X117384Y5621D01*
X117342Y5632D01*
X117303Y5638D01*
X117264Y5644D01*
X117237Y5646D01*
X117209D01*
X117145Y5644D01*
X117089Y5635D01*
X117045Y5621D01*
X117006Y5607D01*
X116978Y5591D01*
X116956Y5580D01*
X116942Y5569D01*
X116940Y5566D01*
X116917Y5541D01*
X116901Y5510D01*
X116887Y5477D01*
X116878Y5444D01*
X116873Y5413D01*
X116870Y5385D01*
Y5369D01*
Y5366D01*
Y5363D01*
Y5358D01*
Y5346D01*
Y5327D01*
X116873Y5310D01*
Y5305D01*
Y5302D01*
X116901Y5294D01*
X116931Y5285D01*
X116995Y5269D01*
X117067Y5255D01*
X117134Y5241D01*
X117167Y5235D01*
X117198Y5233D01*
X117226Y5227D01*
X117248Y5224D01*
X117267Y5222D01*
X117281D01*
X117292Y5219D01*
X117295D01*
X117345Y5213D01*
X117387Y5205D01*
X117423Y5199D01*
X117450Y5194D01*
X117473Y5191D01*
X117489Y5185D01*
X117500Y5183D01*
X117503D01*
X117539Y5172D01*
X117570Y5160D01*
X117600Y5147D01*
X117625Y5135D01*
X117647Y5124D01*
X117661Y5113D01*
X117672Y5108D01*
X117675Y5105D01*
X117703Y5085D01*
X117725Y5063D01*
X117747Y5041D01*
X117764Y5019D01*
X117778Y4999D01*
X117789Y4983D01*
X117795Y4972D01*
X117797Y4969D01*
X117811Y4938D01*
X117822Y4905D01*
X117831Y4875D01*
X117836Y4844D01*
X117839Y4819D01*
X117842Y4800D01*
Y4788D01*
Y4783D01*
X117839Y4750D01*
X117836Y4722D01*
X117822Y4664D01*
X117803Y4616D01*
X117781Y4575D01*
X117759Y4541D01*
X117739Y4516D01*
X117725Y4503D01*
X117720Y4497D01*
X117670Y4461D01*
X117614Y4433D01*
X117553Y4414D01*
X117498Y4400D01*
X117448Y4391D01*
X117425Y4389D01*
X117406D01*
X117389Y4386D01*
X117367D01*
X117317Y4389D01*
X117267Y4394D01*
X117223Y4400D01*
X117184Y4408D01*
X117153Y4416D01*
X117128Y4425D01*
X117112Y4428D01*
X117106Y4430D01*
X117059Y4450D01*
X117015Y4475D01*
X116973Y4503D01*
X116931Y4527D01*
X116898Y4552D01*
X116873Y4572D01*
X116856Y4586D01*
X116853Y4591D01*
X116851D01*
X116845Y4555D01*
X116840Y4522D01*
X116834Y4491D01*
X116826Y4466D01*
X116817Y4444D01*
X116812Y4430D01*
X116809Y4419D01*
X116806Y4416D01*
X116559D01*
X116573Y4447D01*
X116587Y4478D01*
X116598Y4505D01*
X116604Y4530D01*
X116612Y4552D01*
X116615Y4569D01*
X116618Y4580D01*
Y4583D01*
X116620Y4602D01*
X116623Y4627D01*
Y4655D01*
X116626Y4686D01*
X116629Y4755D01*
Y4825D01*
X116631Y4891D01*
Y4922D01*
Y4947D01*
Y4969D01*
Y4986D01*
Y4997D01*
Y4999D01*
Y5316D01*
Y5369D01*
X116634Y5416D01*
X116637Y5452D01*
Y5483D01*
X116640Y5505D01*
X116642Y5521D01*
X116645Y5530D01*
Y5532D01*
X116654Y5569D01*
X116665Y5599D01*
X116676Y5624D01*
X116690Y5649D01*
X116701Y5666D01*
X116709Y5680D01*
X116715Y5688D01*
X116717Y5691D01*
X116740Y5713D01*
X116765Y5735D01*
X116792Y5752D01*
X116820Y5768D01*
X116845Y5780D01*
X116865Y5788D01*
X116878Y5793D01*
X116884Y5796D01*
X116928Y5810D01*
X116976Y5821D01*
X117023Y5830D01*
X117070Y5835D01*
X117112Y5838D01*
X117142Y5841D01*
X117173D01*
X117239Y5838D01*
D02*
G37*
G36*
X125485Y6154D02*
Y5810D01*
X125660D01*
Y5627D01*
X125485D01*
Y4822D01*
Y4783D01*
Y4750D01*
X125482Y4719D01*
X125479Y4688D01*
Y4664D01*
X125476Y4641D01*
X125471Y4605D01*
X125465Y4577D01*
X125463Y4558D01*
X125457Y4547D01*
Y4544D01*
X125446Y4519D01*
X125429Y4500D01*
X125413Y4480D01*
X125399Y4466D01*
X125382Y4453D01*
X125371Y4444D01*
X125363Y4439D01*
X125360Y4436D01*
X125329Y4422D01*
X125299Y4414D01*
X125265Y4405D01*
X125232Y4403D01*
X125204Y4400D01*
X125182Y4397D01*
X125160D01*
X125099Y4400D01*
X125068Y4403D01*
X125041Y4408D01*
X125016Y4411D01*
X124996Y4414D01*
X124985Y4416D01*
X124979D01*
X125010Y4625D01*
X125032Y4622D01*
X125054Y4619D01*
X125074D01*
X125088Y4616D01*
X125116D01*
X125152Y4619D01*
X125177Y4625D01*
X125190Y4630D01*
X125196Y4633D01*
X125215Y4647D01*
X125227Y4661D01*
X125235Y4672D01*
X125238Y4677D01*
X125240Y4691D01*
X125243Y4711D01*
X125246Y4755D01*
X125249Y4775D01*
Y4791D01*
Y4802D01*
Y4808D01*
Y5627D01*
X125010D01*
Y5810D01*
X125249D01*
Y6296D01*
X125485Y6154D01*
D02*
G37*
G36*
X124738D02*
Y5810D01*
X124913D01*
Y5627D01*
X124738D01*
Y4822D01*
Y4783D01*
Y4750D01*
X124735Y4719D01*
X124732Y4688D01*
Y4664D01*
X124730Y4641D01*
X124724Y4605D01*
X124719Y4577D01*
X124716Y4558D01*
X124710Y4547D01*
Y4544D01*
X124699Y4519D01*
X124682Y4500D01*
X124666Y4480D01*
X124652Y4466D01*
X124635Y4453D01*
X124624Y4444D01*
X124616Y4439D01*
X124613Y4436D01*
X124582Y4422D01*
X124552Y4414D01*
X124519Y4405D01*
X124485Y4403D01*
X124458Y4400D01*
X124435Y4397D01*
X124413D01*
X124352Y4400D01*
X124322Y4403D01*
X124294Y4408D01*
X124269Y4411D01*
X124249Y4414D01*
X124238Y4416D01*
X124233D01*
X124263Y4625D01*
X124285Y4622D01*
X124308Y4619D01*
X124327D01*
X124341Y4616D01*
X124369D01*
X124405Y4619D01*
X124430Y4625D01*
X124444Y4630D01*
X124449Y4633D01*
X124469Y4647D01*
X124480Y4661D01*
X124488Y4672D01*
X124491Y4677D01*
X124494Y4691D01*
X124496Y4711D01*
X124499Y4755D01*
X124502Y4775D01*
Y4791D01*
Y4802D01*
Y4808D01*
Y5627D01*
X124263D01*
Y5810D01*
X124502D01*
Y6296D01*
X124738Y6154D01*
D02*
G37*
G36*
X114885Y6154D02*
Y5810D01*
X115060D01*
Y5627D01*
X114885D01*
Y4822D01*
Y4783D01*
Y4750D01*
X114882Y4719D01*
X114880Y4688D01*
Y4664D01*
X114877Y4641D01*
X114871Y4605D01*
X114866Y4577D01*
X114863Y4558D01*
X114857Y4547D01*
Y4544D01*
X114846Y4519D01*
X114830Y4500D01*
X114813Y4480D01*
X114799Y4466D01*
X114782Y4453D01*
X114771Y4444D01*
X114763Y4439D01*
X114760Y4436D01*
X114730Y4422D01*
X114699Y4414D01*
X114666Y4405D01*
X114633Y4403D01*
X114605Y4400D01*
X114583Y4397D01*
X114560D01*
X114499Y4400D01*
X114469Y4403D01*
X114441Y4408D01*
X114416Y4411D01*
X114397Y4414D01*
X114385Y4416D01*
X114380D01*
X114410Y4625D01*
X114433Y4622D01*
X114455Y4619D01*
X114474D01*
X114488Y4616D01*
X114516D01*
X114552Y4619D01*
X114577Y4625D01*
X114591Y4630D01*
X114596Y4633D01*
X114616Y4647D01*
X114627Y4661D01*
X114635Y4672D01*
X114638Y4677D01*
X114641Y4691D01*
X114644Y4711D01*
X114646Y4755D01*
X114649Y4775D01*
Y4791D01*
Y4802D01*
Y4808D01*
Y5627D01*
X114410D01*
Y5810D01*
X114649D01*
Y6296D01*
X114885Y6154D01*
D02*
G37*
G36*
X113661Y5838D02*
X113711Y5832D01*
X113758Y5824D01*
X113802Y5810D01*
X113844Y5796D01*
X113883Y5780D01*
X113919Y5763D01*
X113950Y5743D01*
X113980Y5727D01*
X114005Y5707D01*
X114027Y5691D01*
X114044Y5677D01*
X114058Y5663D01*
X114069Y5655D01*
X114074Y5649D01*
X114077Y5646D01*
X114108Y5607D01*
X114136Y5566D01*
X114161Y5524D01*
X114183Y5480D01*
X114199Y5433D01*
X114213Y5388D01*
X114236Y5299D01*
X114244Y5260D01*
X114249Y5222D01*
X114252Y5188D01*
X114255Y5158D01*
X114258Y5133D01*
Y5116D01*
Y5102D01*
Y5099D01*
X114255Y5038D01*
X114249Y4980D01*
X114241Y4924D01*
X114230Y4875D01*
X114216Y4827D01*
X114202Y4783D01*
X114186Y4744D01*
X114169Y4708D01*
X114152Y4677D01*
X114136Y4650D01*
X114122Y4627D01*
X114108Y4608D01*
X114097Y4591D01*
X114088Y4580D01*
X114083Y4575D01*
X114080Y4572D01*
X114044Y4539D01*
X114008Y4511D01*
X113969Y4486D01*
X113927Y4464D01*
X113888Y4447D01*
X113847Y4430D01*
X113769Y4408D01*
X113733Y4403D01*
X113700Y4397D01*
X113669Y4391D01*
X113644Y4389D01*
X113625Y4386D01*
X113594D01*
X113508Y4391D01*
X113430Y4405D01*
X113361Y4422D01*
X113333Y4433D01*
X113305Y4444D01*
X113280Y4455D01*
X113258Y4466D01*
X113242Y4475D01*
X113225Y4483D01*
X113214Y4491D01*
X113206Y4497D01*
X113200Y4503D01*
X113197D01*
X113142Y4552D01*
X113097Y4605D01*
X113058Y4661D01*
X113031Y4713D01*
X113008Y4761D01*
X113000Y4783D01*
X112992Y4800D01*
X112986Y4816D01*
X112983Y4827D01*
X112981Y4833D01*
Y4836D01*
X113225Y4866D01*
X113247Y4813D01*
X113272Y4769D01*
X113297Y4730D01*
X113319Y4700D01*
X113339Y4677D01*
X113355Y4661D01*
X113369Y4650D01*
X113372Y4647D01*
X113408Y4625D01*
X113444Y4608D01*
X113483Y4597D01*
X113516Y4589D01*
X113547Y4583D01*
X113572Y4580D01*
X113594D01*
X113628Y4583D01*
X113658Y4586D01*
X113714Y4600D01*
X113764Y4619D01*
X113808Y4641D01*
X113841Y4661D01*
X113866Y4680D01*
X113883Y4694D01*
X113886Y4700D01*
X113888D01*
X113927Y4750D01*
X113958Y4805D01*
X113980Y4866D01*
X113997Y4922D01*
X114005Y4972D01*
X114011Y4994D01*
X114013Y5013D01*
Y5030D01*
X114016Y5041D01*
Y5049D01*
Y5052D01*
X112975D01*
X112972Y5080D01*
Y5099D01*
Y5110D01*
Y5113D01*
X112975Y5177D01*
X112981Y5235D01*
X112989Y5291D01*
X113000Y5344D01*
X113014Y5391D01*
X113028Y5435D01*
X113045Y5474D01*
X113061Y5510D01*
X113078Y5544D01*
X113094Y5571D01*
X113108Y5594D01*
X113122Y5613D01*
X113133Y5630D01*
X113142Y5641D01*
X113147Y5646D01*
X113150Y5649D01*
X113183Y5682D01*
X113219Y5713D01*
X113258Y5738D01*
X113297Y5760D01*
X113336Y5780D01*
X113372Y5793D01*
X113411Y5807D01*
X113444Y5816D01*
X113480Y5824D01*
X113511Y5830D01*
X113539Y5835D01*
X113561Y5838D01*
X113580Y5841D01*
X113608D01*
X113661Y5838D01*
D02*
G37*
G36*
X128788Y4416D02*
X128056D01*
X127989Y4419D01*
X127931Y4422D01*
X127878Y4428D01*
X127833Y4433D01*
X127797Y4439D01*
X127770Y4441D01*
X127753Y4447D01*
X127747D01*
X127700Y4461D01*
X127661Y4475D01*
X127625Y4491D01*
X127595Y4508D01*
X127570Y4519D01*
X127550Y4530D01*
X127539Y4539D01*
X127536Y4541D01*
X127506Y4566D01*
X127478Y4597D01*
X127456Y4627D01*
X127434Y4655D01*
X127417Y4683D01*
X127406Y4702D01*
X127398Y4716D01*
X127395Y4722D01*
X127375Y4766D01*
X127361Y4811D01*
X127350Y4852D01*
X127345Y4891D01*
X127339Y4924D01*
X127336Y4952D01*
Y4969D01*
Y4972D01*
Y4974D01*
X127339Y5036D01*
X127350Y5091D01*
X127367Y5138D01*
X127384Y5183D01*
X127400Y5216D01*
X127417Y5241D01*
X127428Y5258D01*
X127431Y5263D01*
X127470Y5308D01*
X127511Y5344D01*
X127559Y5374D01*
X127600Y5399D01*
X127639Y5419D01*
X127672Y5430D01*
X127684Y5435D01*
X127692Y5438D01*
X127697Y5441D01*
X127700D01*
X127653Y5469D01*
X127611Y5496D01*
X127578Y5527D01*
X127550Y5555D01*
X127528Y5577D01*
X127511Y5599D01*
X127503Y5610D01*
X127500Y5616D01*
X127478Y5657D01*
X127461Y5696D01*
X127448Y5735D01*
X127439Y5771D01*
X127434Y5802D01*
X127431Y5827D01*
Y5841D01*
Y5846D01*
X127434Y5893D01*
X127442Y5941D01*
X127456Y5982D01*
X127470Y6021D01*
X127484Y6054D01*
X127498Y6077D01*
X127506Y6093D01*
X127509Y6099D01*
X127539Y6140D01*
X127572Y6179D01*
X127609Y6210D01*
X127642Y6235D01*
X127670Y6254D01*
X127695Y6268D01*
X127711Y6277D01*
X127714Y6279D01*
X127717D01*
X127770Y6299D01*
X127828Y6313D01*
X127886Y6324D01*
X127942Y6329D01*
X127992Y6335D01*
X128014D01*
X128033Y6338D01*
X128788D01*
Y4416D01*
D02*
G37*
G36*
X119521Y4416D02*
X119266D01*
Y5197D01*
X118775D01*
X118702Y5199D01*
X118633Y5205D01*
X118572Y5213D01*
X118516Y5224D01*
X118464Y5235D01*
X118419Y5249D01*
X118378Y5266D01*
X118342Y5283D01*
X118311Y5296D01*
X118283Y5313D01*
X118261Y5327D01*
X118244Y5341D01*
X118230Y5349D01*
X118222Y5358D01*
X118217Y5363D01*
X118214Y5366D01*
X118186Y5399D01*
X118161Y5433D01*
X118142Y5466D01*
X118122Y5502D01*
X118106Y5538D01*
X118094Y5571D01*
X118075Y5635D01*
X118069Y5666D01*
X118064Y5693D01*
X118061Y5718D01*
X118058Y5738D01*
X118056Y5757D01*
Y5768D01*
Y5777D01*
Y5780D01*
X118058Y5832D01*
X118064Y5882D01*
X118075Y5927D01*
X118083Y5966D01*
X118094Y5999D01*
X118106Y6024D01*
X118111Y6038D01*
X118114Y6043D01*
X118136Y6085D01*
X118164Y6121D01*
X118189Y6154D01*
X118214Y6179D01*
X118236Y6199D01*
X118253Y6215D01*
X118264Y6224D01*
X118269Y6227D01*
X118305Y6249D01*
X118347Y6268D01*
X118386Y6285D01*
X118422Y6299D01*
X118455Y6307D01*
X118480Y6313D01*
X118500Y6318D01*
X118505D01*
X118547Y6324D01*
X118594Y6329D01*
X118644Y6332D01*
X118691Y6335D01*
X118733Y6338D01*
X119521D01*
Y4416D01*
D02*
G37*
G36*
X126501Y5838D02*
X126545Y5835D01*
X126631Y5816D01*
X126706Y5791D01*
X126740Y5777D01*
X126770Y5763D01*
X126798Y5749D01*
X126820Y5735D01*
X126842Y5721D01*
X126859Y5710D01*
X126873Y5699D01*
X126884Y5691D01*
X126890Y5688D01*
X126892Y5685D01*
X126931Y5649D01*
X126962Y5607D01*
X126992Y5563D01*
X127014Y5519D01*
X127037Y5471D01*
X127053Y5421D01*
X127067Y5374D01*
X127078Y5330D01*
X127089Y5285D01*
X127095Y5247D01*
X127101Y5208D01*
X127103Y5177D01*
Y5149D01*
X127106Y5130D01*
Y5119D01*
Y5113D01*
X127103Y5049D01*
X127098Y4988D01*
X127089Y4933D01*
X127078Y4880D01*
X127064Y4833D01*
X127051Y4788D01*
X127034Y4747D01*
X127017Y4711D01*
X127001Y4677D01*
X126984Y4650D01*
X126970Y4627D01*
X126956Y4608D01*
X126945Y4591D01*
X126937Y4580D01*
X126931Y4575D01*
X126928Y4572D01*
X126892Y4539D01*
X126856Y4511D01*
X126817Y4486D01*
X126778Y4464D01*
X126740Y4447D01*
X126698Y4430D01*
X126623Y4408D01*
X126590Y4403D01*
X126556Y4397D01*
X126529Y4391D01*
X126504Y4389D01*
X126481Y4386D01*
X126454D01*
X126387Y4389D01*
X126326Y4400D01*
X126268Y4414D01*
X126220Y4428D01*
X126179Y4444D01*
X126162Y4450D01*
X126148Y4455D01*
X126134Y4461D01*
X126126Y4466D01*
X126123Y4469D01*
X126121D01*
X126065Y4505D01*
X126018Y4544D01*
X125976Y4583D01*
X125943Y4622D01*
X125918Y4655D01*
X125898Y4683D01*
X125893Y4694D01*
X125887Y4702D01*
X125885Y4705D01*
Y4708D01*
X125857Y4772D01*
X125837Y4841D01*
X125821Y4911D01*
X125812Y4980D01*
X125807Y5011D01*
Y5038D01*
X125804Y5066D01*
X125801Y5088D01*
Y5108D01*
Y5122D01*
Y5130D01*
Y5133D01*
X125804Y5194D01*
X125810Y5249D01*
X125818Y5302D01*
X125829Y5352D01*
X125843Y5399D01*
X125860Y5441D01*
X125876Y5483D01*
X125893Y5516D01*
X125910Y5546D01*
X125926Y5574D01*
X125943Y5599D01*
X125957Y5619D01*
X125968Y5632D01*
X125976Y5644D01*
X125982Y5649D01*
X125984Y5652D01*
X126021Y5685D01*
X126057Y5713D01*
X126096Y5741D01*
X126134Y5760D01*
X126173Y5780D01*
X126212Y5793D01*
X126287Y5818D01*
X126323Y5824D01*
X126354Y5830D01*
X126381Y5835D01*
X126406Y5838D01*
X126426Y5841D01*
X126454D01*
X126501Y5838D01*
D02*
G37*
G36*
X123514D02*
X123558Y5835D01*
X123644Y5816D01*
X123719Y5791D01*
X123752Y5777D01*
X123783Y5763D01*
X123811Y5749D01*
X123833Y5735D01*
X123855Y5721D01*
X123872Y5710D01*
X123886Y5699D01*
X123897Y5691D01*
X123902Y5688D01*
X123905Y5685D01*
X123944Y5649D01*
X123974Y5607D01*
X124005Y5563D01*
X124027Y5519D01*
X124049Y5471D01*
X124066Y5421D01*
X124080Y5374D01*
X124091Y5330D01*
X124102Y5285D01*
X124108Y5247D01*
X124113Y5208D01*
X124116Y5177D01*
Y5149D01*
X124119Y5130D01*
Y5119D01*
Y5113D01*
X124116Y5049D01*
X124111Y4988D01*
X124102Y4933D01*
X124091Y4880D01*
X124077Y4833D01*
X124063Y4788D01*
X124047Y4747D01*
X124030Y4711D01*
X124013Y4677D01*
X123997Y4650D01*
X123983Y4627D01*
X123969Y4608D01*
X123958Y4591D01*
X123950Y4580D01*
X123944Y4575D01*
X123941Y4572D01*
X123905Y4539D01*
X123869Y4511D01*
X123830Y4486D01*
X123791Y4464D01*
X123752Y4447D01*
X123711Y4430D01*
X123636Y4408D01*
X123602Y4403D01*
X123569Y4397D01*
X123541Y4391D01*
X123516Y4389D01*
X123494Y4386D01*
X123466D01*
X123400Y4389D01*
X123339Y4400D01*
X123280Y4414D01*
X123233Y4428D01*
X123192Y4444D01*
X123175Y4450D01*
X123161Y4455D01*
X123147Y4461D01*
X123139Y4466D01*
X123136Y4469D01*
X123133D01*
X123078Y4505D01*
X123031Y4544D01*
X122989Y4583D01*
X122956Y4622D01*
X122931Y4655D01*
X122911Y4683D01*
X122906Y4694D01*
X122900Y4702D01*
X122897Y4705D01*
Y4708D01*
X122870Y4772D01*
X122850Y4841D01*
X122833Y4911D01*
X122825Y4980D01*
X122820Y5011D01*
Y5038D01*
X122817Y5066D01*
X122814Y5088D01*
Y5108D01*
Y5122D01*
Y5130D01*
Y5133D01*
X122817Y5194D01*
X122822Y5249D01*
X122831Y5302D01*
X122842Y5352D01*
X122856Y5399D01*
X122872Y5441D01*
X122889Y5483D01*
X122906Y5516D01*
X122922Y5546D01*
X122939Y5574D01*
X122956Y5599D01*
X122969Y5619D01*
X122981Y5632D01*
X122989Y5644D01*
X122994Y5649D01*
X122997Y5652D01*
X123033Y5685D01*
X123069Y5713D01*
X123108Y5741D01*
X123147Y5760D01*
X123186Y5780D01*
X123225Y5793D01*
X123300Y5818D01*
X123336Y5824D01*
X123367Y5830D01*
X123394Y5835D01*
X123419Y5838D01*
X123439Y5841D01*
X123466D01*
X123514Y5838D01*
D02*
G37*
G36*
X115890Y5835D02*
X115923Y5832D01*
X115954Y5827D01*
X115979Y5821D01*
X115998Y5816D01*
X116010Y5813D01*
X116015Y5810D01*
X116048Y5799D01*
X116079Y5788D01*
X116104Y5777D01*
X116126Y5766D01*
X116143Y5757D01*
X116154Y5749D01*
X116162Y5746D01*
X116165Y5743D01*
X116193Y5724D01*
X116215Y5702D01*
X116234Y5677D01*
X116251Y5657D01*
X116265Y5638D01*
X116273Y5624D01*
X116279Y5613D01*
X116282Y5610D01*
X116295Y5580D01*
X116307Y5552D01*
X116312Y5521D01*
X116318Y5496D01*
X116320Y5471D01*
X116323Y5455D01*
Y5444D01*
Y5438D01*
X116320Y5399D01*
X116315Y5366D01*
X116307Y5333D01*
X116298Y5305D01*
X116290Y5283D01*
X116282Y5263D01*
X116276Y5252D01*
X116273Y5249D01*
X116251Y5219D01*
X116226Y5194D01*
X116201Y5172D01*
X116176Y5152D01*
X116154Y5138D01*
X116137Y5127D01*
X116126Y5122D01*
X116121Y5119D01*
X116101Y5110D01*
X116076Y5099D01*
X116021Y5080D01*
X115962Y5063D01*
X115901Y5044D01*
X115848Y5030D01*
X115824Y5022D01*
X115801Y5016D01*
X115785Y5011D01*
X115771Y5008D01*
X115762Y5005D01*
X115760D01*
X115724Y4997D01*
X115693Y4988D01*
X115665Y4980D01*
X115640Y4972D01*
X115618Y4966D01*
X115599Y4958D01*
X115565Y4947D01*
X115543Y4938D01*
X115529Y4930D01*
X115521Y4927D01*
X115518Y4924D01*
X115493Y4908D01*
X115476Y4886D01*
X115463Y4866D01*
X115454Y4847D01*
X115449Y4827D01*
X115446Y4813D01*
Y4802D01*
Y4800D01*
X115449Y4766D01*
X115457Y4738D01*
X115471Y4711D01*
X115485Y4688D01*
X115501Y4669D01*
X115513Y4655D01*
X115524Y4647D01*
X115526Y4644D01*
X115560Y4622D01*
X115596Y4608D01*
X115637Y4597D01*
X115676Y4589D01*
X115712Y4583D01*
X115740Y4580D01*
X115768D01*
X115826Y4583D01*
X115876Y4591D01*
X115918Y4602D01*
X115954Y4616D01*
X115982Y4630D01*
X116004Y4641D01*
X116015Y4650D01*
X116021Y4652D01*
X116051Y4683D01*
X116076Y4719D01*
X116093Y4755D01*
X116107Y4788D01*
X116118Y4819D01*
X116123Y4847D01*
X116129Y4863D01*
Y4866D01*
Y4869D01*
X116362Y4833D01*
X116343Y4755D01*
X116318Y4686D01*
X116287Y4630D01*
X116257Y4583D01*
X116229Y4544D01*
X116204Y4519D01*
X116187Y4503D01*
X116184Y4500D01*
X116182Y4497D01*
X116154Y4478D01*
X116123Y4461D01*
X116057Y4433D01*
X115987Y4414D01*
X115921Y4400D01*
X115890Y4394D01*
X115862Y4391D01*
X115835Y4389D01*
X115812D01*
X115793Y4386D01*
X115768D01*
X115707Y4389D01*
X115654Y4394D01*
X115604Y4403D01*
X115560Y4414D01*
X115524Y4425D01*
X115496Y4433D01*
X115479Y4439D01*
X115476Y4441D01*
X115474D01*
X115427Y4466D01*
X115388Y4491D01*
X115354Y4519D01*
X115324Y4544D01*
X115302Y4566D01*
X115288Y4586D01*
X115277Y4597D01*
X115274Y4602D01*
X115252Y4641D01*
X115235Y4683D01*
X115221Y4719D01*
X115213Y4752D01*
X115207Y4783D01*
X115204Y4805D01*
Y4819D01*
Y4825D01*
X115207Y4869D01*
X115213Y4908D01*
X115224Y4941D01*
X115232Y4972D01*
X115243Y4997D01*
X115254Y5013D01*
X115260Y5024D01*
X115263Y5027D01*
X115285Y5055D01*
X115310Y5080D01*
X115335Y5102D01*
X115360Y5119D01*
X115385Y5133D01*
X115402Y5141D01*
X115413Y5147D01*
X115418Y5149D01*
X115438Y5158D01*
X115460Y5166D01*
X115513Y5185D01*
X115571Y5205D01*
X115629Y5222D01*
X115682Y5238D01*
X115707Y5244D01*
X115726Y5249D01*
X115743Y5255D01*
X115757Y5258D01*
X115765Y5260D01*
X115768D01*
X115799Y5269D01*
X115826Y5277D01*
X115851Y5283D01*
X115873Y5291D01*
X115910Y5299D01*
X115937Y5308D01*
X115957Y5316D01*
X115968Y5319D01*
X115973Y5321D01*
X115976D01*
X115998Y5333D01*
X116018Y5341D01*
X116035Y5352D01*
X116046Y5360D01*
X116057Y5369D01*
X116062Y5377D01*
X116065Y5380D01*
X116068Y5383D01*
X116084Y5410D01*
X116093Y5438D01*
Y5449D01*
X116096Y5458D01*
Y5463D01*
Y5466D01*
X116093Y5491D01*
X116084Y5516D01*
X116073Y5538D01*
X116059Y5555D01*
X116048Y5571D01*
X116037Y5582D01*
X116029Y5588D01*
X116026Y5591D01*
X115996Y5610D01*
X115960Y5624D01*
X115921Y5632D01*
X115885Y5641D01*
X115848Y5644D01*
X115821Y5646D01*
X115793D01*
X115746Y5644D01*
X115701Y5638D01*
X115665Y5627D01*
X115637Y5616D01*
X115613Y5605D01*
X115596Y5594D01*
X115585Y5588D01*
X115582Y5585D01*
X115554Y5560D01*
X115535Y5532D01*
X115518Y5505D01*
X115504Y5480D01*
X115496Y5455D01*
X115490Y5435D01*
X115488Y5424D01*
Y5419D01*
X115257Y5449D01*
X115268Y5496D01*
X115279Y5538D01*
X115293Y5574D01*
X115307Y5607D01*
X115321Y5630D01*
X115332Y5649D01*
X115338Y5660D01*
X115340Y5663D01*
X115365Y5691D01*
X115393Y5716D01*
X115424Y5738D01*
X115454Y5757D01*
X115482Y5771D01*
X115504Y5782D01*
X115518Y5788D01*
X115521Y5791D01*
X115524D01*
X115571Y5807D01*
X115621Y5818D01*
X115668Y5830D01*
X115712Y5835D01*
X115754Y5838D01*
X115785Y5841D01*
X115851D01*
X115890Y5835D01*
D02*
G37*
G36*
X85973Y6365D02*
X86070Y6351D01*
X86114Y6343D01*
X86156Y6332D01*
X86195Y6324D01*
X86231Y6313D01*
X86264Y6301D01*
X86292Y6290D01*
X86317Y6279D01*
X86339Y6271D01*
X86356Y6263D01*
X86367Y6257D01*
X86375Y6254D01*
X86378Y6252D01*
X86417Y6227D01*
X86456Y6202D01*
X86522Y6143D01*
X86581Y6085D01*
X86628Y6024D01*
X86667Y5971D01*
X86680Y5949D01*
X86692Y5927D01*
X86703Y5910D01*
X86708Y5899D01*
X86711Y5891D01*
X86714Y5888D01*
X86753Y5796D01*
X86780Y5705D01*
X86803Y5616D01*
X86808Y5574D01*
X86816Y5535D01*
X86819Y5499D01*
X86825Y5469D01*
X86828Y5438D01*
Y5413D01*
X86830Y5394D01*
Y5380D01*
Y5369D01*
Y5366D01*
X86825Y5263D01*
X86811Y5166D01*
X86803Y5122D01*
X86794Y5080D01*
X86783Y5038D01*
X86772Y5002D01*
X86761Y4969D01*
X86750Y4941D01*
X86742Y4913D01*
X86733Y4894D01*
X86725Y4875D01*
X86719Y4863D01*
X86714Y4855D01*
Y4852D01*
X86664Y4772D01*
X86608Y4702D01*
X86550Y4641D01*
X86494Y4591D01*
X86442Y4552D01*
X86422Y4539D01*
X86403Y4525D01*
X86386Y4516D01*
X86375Y4508D01*
X86367Y4505D01*
X86364Y4503D01*
X86320Y4480D01*
X86275Y4464D01*
X86186Y4433D01*
X86100Y4414D01*
X86020Y4397D01*
X85984Y4394D01*
X85950Y4389D01*
X85920Y4386D01*
X85895D01*
X85875Y4383D01*
X85848D01*
X85770Y4386D01*
X85695Y4394D01*
X85625Y4408D01*
X85564Y4422D01*
X85539Y4428D01*
X85514Y4433D01*
X85492Y4441D01*
X85473Y4447D01*
X85459Y4453D01*
X85448Y4455D01*
X85442Y4458D01*
X85439D01*
X85365Y4489D01*
X85295Y4525D01*
X85228Y4564D01*
X85170Y4600D01*
X85145Y4616D01*
X85120Y4633D01*
X85101Y4647D01*
X85084Y4658D01*
X85070Y4669D01*
X85059Y4677D01*
X85054Y4680D01*
X85051Y4683D01*
Y5396D01*
X85867D01*
Y5169D01*
X85301D01*
Y4808D01*
X85334Y4780D01*
X85373Y4755D01*
X85414Y4733D01*
X85453Y4713D01*
X85487Y4697D01*
X85517Y4683D01*
X85528Y4677D01*
X85534Y4675D01*
X85539Y4672D01*
X85542D01*
X85601Y4652D01*
X85659Y4636D01*
X85712Y4625D01*
X85762Y4619D01*
X85803Y4614D01*
X85820D01*
X85836Y4611D01*
X85864D01*
X85934Y4614D01*
X86000Y4625D01*
X86061Y4639D01*
X86117Y4652D01*
X86161Y4669D01*
X86181Y4675D01*
X86195Y4680D01*
X86209Y4686D01*
X86217Y4691D01*
X86222Y4694D01*
X86225D01*
X86283Y4730D01*
X86336Y4769D01*
X86381Y4811D01*
X86417Y4852D01*
X86447Y4891D01*
X86467Y4922D01*
X86475Y4933D01*
X86478Y4941D01*
X86483Y4947D01*
Y4949D01*
X86511Y5019D01*
X86533Y5091D01*
X86547Y5163D01*
X86558Y5233D01*
X86561Y5263D01*
X86564Y5291D01*
X86567Y5319D01*
Y5341D01*
X86569Y5358D01*
Y5371D01*
Y5380D01*
Y5383D01*
X86567Y5460D01*
X86558Y5530D01*
X86547Y5596D01*
X86533Y5655D01*
X86528Y5680D01*
X86519Y5702D01*
X86514Y5721D01*
X86508Y5738D01*
X86503Y5752D01*
X86500Y5760D01*
X86497Y5766D01*
Y5768D01*
X86478Y5807D01*
X86458Y5843D01*
X86439Y5877D01*
X86419Y5904D01*
X86403Y5927D01*
X86389Y5946D01*
X86378Y5957D01*
X86375Y5960D01*
X86345Y5991D01*
X86311Y6018D01*
X86275Y6041D01*
X86242Y6063D01*
X86214Y6077D01*
X86192Y6090D01*
X86175Y6096D01*
X86170Y6099D01*
X86120Y6118D01*
X86070Y6132D01*
X86017Y6140D01*
X85970Y6149D01*
X85928Y6152D01*
X85911D01*
X85898Y6154D01*
X85867D01*
X85814Y6152D01*
X85764Y6146D01*
X85720Y6138D01*
X85681Y6129D01*
X85648Y6118D01*
X85623Y6110D01*
X85609Y6104D01*
X85603Y6102D01*
X85562Y6082D01*
X85526Y6060D01*
X85492Y6038D01*
X85467Y6016D01*
X85448Y5996D01*
X85431Y5982D01*
X85423Y5971D01*
X85420Y5968D01*
X85395Y5935D01*
X85376Y5896D01*
X85356Y5860D01*
X85340Y5821D01*
X85328Y5788D01*
X85320Y5763D01*
X85317Y5752D01*
X85315Y5743D01*
X85312Y5741D01*
Y5738D01*
X85081Y5799D01*
X85101Y5868D01*
X85126Y5929D01*
X85151Y5985D01*
X85173Y6029D01*
X85195Y6066D01*
X85212Y6090D01*
X85223Y6107D01*
X85228Y6113D01*
X85267Y6157D01*
X85309Y6193D01*
X85353Y6227D01*
X85395Y6254D01*
X85434Y6274D01*
X85464Y6290D01*
X85476Y6296D01*
X85484Y6299D01*
X85489Y6301D01*
X85492D01*
X85556Y6324D01*
X85623Y6340D01*
X85684Y6354D01*
X85742Y6363D01*
X85795Y6368D01*
X85817D01*
X85834Y6371D01*
X85923D01*
X85973Y6365D01*
D02*
G37*
G36*
X87474Y4416D02*
X87205D01*
Y4686D01*
X87474D01*
Y4416D01*
D02*
G37*
G36*
X84687D02*
X83954D01*
X83888Y4419D01*
X83829Y4422D01*
X83777Y4428D01*
X83732Y4433D01*
X83696Y4439D01*
X83668Y4441D01*
X83652Y4447D01*
X83646D01*
X83599Y4461D01*
X83560Y4475D01*
X83524Y4491D01*
X83493Y4508D01*
X83468Y4519D01*
X83449Y4530D01*
X83438Y4539D01*
X83435Y4541D01*
X83405Y4566D01*
X83377Y4597D01*
X83355Y4627D01*
X83332Y4655D01*
X83316Y4683D01*
X83305Y4702D01*
X83296Y4716D01*
X83293Y4722D01*
X83274Y4766D01*
X83260Y4811D01*
X83249Y4852D01*
X83243Y4891D01*
X83238Y4924D01*
X83235Y4952D01*
Y4969D01*
Y4972D01*
Y4974D01*
X83238Y5036D01*
X83249Y5091D01*
X83266Y5138D01*
X83282Y5183D01*
X83299Y5216D01*
X83316Y5241D01*
X83327Y5258D01*
X83330Y5263D01*
X83368Y5308D01*
X83410Y5344D01*
X83457Y5374D01*
X83499Y5399D01*
X83538Y5419D01*
X83571Y5430D01*
X83582Y5435D01*
X83591Y5438D01*
X83596Y5441D01*
X83599D01*
X83552Y5469D01*
X83510Y5496D01*
X83477Y5527D01*
X83449Y5555D01*
X83427Y5577D01*
X83410Y5599D01*
X83402Y5610D01*
X83399Y5616D01*
X83377Y5657D01*
X83360Y5696D01*
X83346Y5735D01*
X83338Y5771D01*
X83332Y5802D01*
X83330Y5827D01*
Y5841D01*
Y5846D01*
X83332Y5893D01*
X83341Y5941D01*
X83355Y5982D01*
X83368Y6021D01*
X83382Y6054D01*
X83396Y6077D01*
X83405Y6093D01*
X83407Y6099D01*
X83438Y6140D01*
X83471Y6179D01*
X83507Y6210D01*
X83541Y6235D01*
X83568Y6254D01*
X83593Y6268D01*
X83610Y6277D01*
X83613Y6279D01*
X83616D01*
X83668Y6299D01*
X83727Y6313D01*
X83785Y6324D01*
X83840Y6329D01*
X83890Y6335D01*
X83913D01*
X83932Y6338D01*
X84687D01*
Y4416D01*
D02*
G37*
G36*
X82885D02*
X82630D01*
Y5197D01*
X82139D01*
X82066Y5199D01*
X81997Y5205D01*
X81936Y5213D01*
X81880Y5224D01*
X81828Y5235D01*
X81783Y5249D01*
X81742Y5266D01*
X81705Y5283D01*
X81675Y5297D01*
X81647Y5313D01*
X81625Y5327D01*
X81608Y5341D01*
X81594Y5349D01*
X81586Y5358D01*
X81581Y5363D01*
X81578Y5366D01*
X81550Y5399D01*
X81525Y5433D01*
X81506Y5466D01*
X81486Y5502D01*
X81469Y5538D01*
X81458Y5571D01*
X81439Y5635D01*
X81433Y5666D01*
X81428Y5694D01*
X81425Y5718D01*
X81422Y5738D01*
X81420Y5757D01*
Y5768D01*
Y5777D01*
Y5780D01*
X81422Y5832D01*
X81428Y5882D01*
X81439Y5927D01*
X81447Y5966D01*
X81458Y5999D01*
X81469Y6024D01*
X81475Y6038D01*
X81478Y6043D01*
X81500Y6085D01*
X81528Y6121D01*
X81553Y6154D01*
X81578Y6179D01*
X81600Y6199D01*
X81617Y6215D01*
X81628Y6224D01*
X81633Y6227D01*
X81669Y6249D01*
X81711Y6268D01*
X81750Y6285D01*
X81786Y6299D01*
X81819Y6307D01*
X81844Y6313D01*
X81864Y6318D01*
X81869D01*
X81911Y6324D01*
X81958Y6329D01*
X82008Y6332D01*
X82055Y6335D01*
X82097Y6338D01*
X82885D01*
Y4416D01*
D02*
G37*
%LPC*%
G36*
X116873Y5116D02*
X116870D01*
X116873Y5027D01*
X116876Y4972D01*
X116878Y4924D01*
X116884Y4886D01*
X116892Y4852D01*
X116901Y4827D01*
X116906Y4808D01*
X116909Y4797D01*
X116912Y4794D01*
X116934Y4758D01*
X116956Y4725D01*
X116984Y4697D01*
X117009Y4675D01*
X117031Y4655D01*
X117051Y4641D01*
X117062Y4633D01*
X117067Y4630D01*
X117109Y4611D01*
X117151Y4597D01*
X117189Y4586D01*
X117228Y4580D01*
X117259Y4575D01*
X117287Y4572D01*
X117309D01*
X117359Y4575D01*
X117400Y4580D01*
X117436Y4591D01*
X117467Y4602D01*
X117489Y4614D01*
X117506Y4625D01*
X117517Y4630D01*
X117520Y4633D01*
X117542Y4658D01*
X117559Y4686D01*
X117573Y4711D01*
X117581Y4736D01*
X117586Y4758D01*
X117589Y4775D01*
Y4788D01*
Y4791D01*
X117586Y4813D01*
X117584Y4836D01*
X117578Y4852D01*
X117573Y4869D01*
X117567Y4883D01*
X117564Y4894D01*
X117559Y4899D01*
Y4902D01*
X117531Y4936D01*
X117498Y4958D01*
X117486Y4966D01*
X117475Y4972D01*
X117467Y4977D01*
X117464D01*
X117436Y4988D01*
X117406Y4997D01*
X117373Y5005D01*
X117339Y5011D01*
X117309Y5016D01*
X117281Y5022D01*
X117264Y5024D01*
X117259D01*
X117212Y5033D01*
X117167Y5038D01*
X117128Y5047D01*
X117089Y5055D01*
X117053Y5063D01*
X117023Y5072D01*
X116992Y5077D01*
X116967Y5085D01*
X116945Y5091D01*
X116926Y5097D01*
X116909Y5102D01*
X116895Y5108D01*
X116884Y5110D01*
X116876Y5113D01*
X116873Y5116D01*
D02*
G37*
G36*
X113622Y5646D02*
X113605D01*
X113572Y5644D01*
X113541Y5641D01*
X113483Y5624D01*
X113433Y5602D01*
X113392Y5577D01*
X113358Y5552D01*
X113333Y5530D01*
X113319Y5513D01*
X113314Y5510D01*
Y5507D01*
X113289Y5471D01*
X113267Y5430D01*
X113253Y5388D01*
X113239Y5344D01*
X113231Y5308D01*
X113225Y5274D01*
Y5263D01*
X113222Y5255D01*
Y5249D01*
Y5247D01*
X114002D01*
X113994Y5310D01*
X113977Y5369D01*
X113958Y5419D01*
X113936Y5458D01*
X113916Y5491D01*
X113897Y5516D01*
X113886Y5530D01*
X113880Y5535D01*
X113836Y5571D01*
X113791Y5599D01*
X113744Y5619D01*
X113700Y5632D01*
X113664Y5641D01*
X113633Y5644D01*
X113622Y5646D01*
D02*
G37*
G36*
X128533Y6110D02*
X128078D01*
X128017Y6104D01*
X127969Y6102D01*
X127928Y6096D01*
X127897Y6090D01*
X127878Y6088D01*
X127864Y6082D01*
X127861D01*
X127831Y6071D01*
X127803Y6054D01*
X127781Y6038D01*
X127761Y6021D01*
X127747Y6007D01*
X127736Y5993D01*
X127731Y5985D01*
X127728Y5982D01*
X127711Y5954D01*
X127700Y5927D01*
X127692Y5899D01*
X127686Y5871D01*
X127684Y5849D01*
X127681Y5832D01*
Y5821D01*
Y5816D01*
X127684Y5780D01*
X127689Y5746D01*
X127697Y5718D01*
X127706Y5696D01*
X127714Y5677D01*
X127722Y5660D01*
X127728Y5652D01*
X127731Y5649D01*
X127750Y5627D01*
X127775Y5605D01*
X127800Y5588D01*
X127822Y5577D01*
X127845Y5566D01*
X127861Y5557D01*
X127872Y5555D01*
X127878Y5552D01*
X127908Y5546D01*
X127947Y5541D01*
X127986Y5538D01*
X128025Y5535D01*
X128061Y5532D01*
X128533D01*
Y6110D01*
D02*
G37*
G36*
Y5305D02*
X128028D01*
X127969Y5299D01*
X127922Y5294D01*
X127883Y5288D01*
X127853Y5283D01*
X127828Y5277D01*
X127817Y5274D01*
X127811Y5272D01*
X127775Y5258D01*
X127745Y5241D01*
X127717Y5222D01*
X127695Y5202D01*
X127678Y5185D01*
X127667Y5172D01*
X127659Y5160D01*
X127656Y5158D01*
X127636Y5127D01*
X127622Y5097D01*
X127611Y5066D01*
X127606Y5038D01*
X127600Y5013D01*
X127597Y4991D01*
Y4980D01*
Y4974D01*
X127600Y4941D01*
X127603Y4908D01*
X127609Y4880D01*
X127617Y4858D01*
X127625Y4838D01*
X127631Y4822D01*
X127634Y4813D01*
X127636Y4811D01*
X127653Y4786D01*
X127667Y4763D01*
X127686Y4747D01*
X127700Y4730D01*
X127714Y4719D01*
X127725Y4711D01*
X127733Y4705D01*
X127736Y4702D01*
X127783Y4680D01*
X127831Y4664D01*
X127850Y4658D01*
X127867Y4655D01*
X127878Y4652D01*
X127881D01*
X127903Y4650D01*
X127928Y4647D01*
X127986Y4644D01*
X128533D01*
Y5305D01*
D02*
G37*
G36*
X119266Y6110D02*
X118716D01*
X118666Y6107D01*
X118625Y6104D01*
X118591Y6102D01*
X118569Y6096D01*
X118553Y6093D01*
X118541Y6090D01*
X118539D01*
X118503Y6077D01*
X118472Y6060D01*
X118444Y6043D01*
X118419Y6024D01*
X118403Y6004D01*
X118389Y5991D01*
X118380Y5979D01*
X118378Y5977D01*
X118358Y5943D01*
X118342Y5910D01*
X118330Y5874D01*
X118325Y5843D01*
X118319Y5816D01*
X118317Y5791D01*
Y5777D01*
Y5774D01*
Y5771D01*
X118322Y5713D01*
X118333Y5663D01*
X118350Y5619D01*
X118369Y5582D01*
X118389Y5555D01*
X118405Y5532D01*
X118416Y5521D01*
X118422Y5516D01*
X118441Y5499D01*
X118466Y5485D01*
X118519Y5463D01*
X118578Y5446D01*
X118636Y5435D01*
X118689Y5430D01*
X118711Y5427D01*
X118730D01*
X118750Y5424D01*
X119266D01*
Y6110D01*
D02*
G37*
G36*
X126470Y5646D02*
X126454D01*
X126420Y5644D01*
X126390Y5641D01*
X126334Y5627D01*
X126284Y5605D01*
X126243Y5580D01*
X126209Y5555D01*
X126184Y5535D01*
X126168Y5519D01*
X126162Y5516D01*
Y5513D01*
X126140Y5488D01*
X126123Y5458D01*
X126093Y5396D01*
X126071Y5330D01*
X126057Y5269D01*
X126048Y5210D01*
X126046Y5185D01*
Y5163D01*
X126043Y5147D01*
Y5133D01*
Y5124D01*
Y5122D01*
Y5072D01*
X126048Y5024D01*
X126054Y4983D01*
X126062Y4941D01*
X126071Y4905D01*
X126082Y4872D01*
X126090Y4841D01*
X126101Y4813D01*
X126112Y4791D01*
X126123Y4769D01*
X126134Y4752D01*
X126143Y4738D01*
X126151Y4727D01*
X126157Y4719D01*
X126159Y4716D01*
X126162Y4713D01*
X126184Y4691D01*
X126209Y4669D01*
X126257Y4636D01*
X126307Y4614D01*
X126351Y4597D01*
X126393Y4589D01*
X126423Y4583D01*
X126437Y4580D01*
X126454D01*
X126487Y4583D01*
X126518Y4586D01*
X126576Y4600D01*
X126626Y4622D01*
X126667Y4647D01*
X126701Y4669D01*
X126726Y4691D01*
X126742Y4705D01*
X126745Y4711D01*
X126748D01*
X126767Y4738D01*
X126787Y4766D01*
X126815Y4830D01*
X126837Y4897D01*
X126851Y4963D01*
X126859Y5022D01*
X126862Y5047D01*
Y5069D01*
X126865Y5088D01*
Y5102D01*
Y5110D01*
Y5113D01*
X126862Y5160D01*
X126859Y5208D01*
X126853Y5249D01*
X126845Y5288D01*
X126837Y5324D01*
X126828Y5358D01*
X126817Y5385D01*
X126806Y5413D01*
X126795Y5435D01*
X126784Y5458D01*
X126776Y5474D01*
X126767Y5488D01*
X126759Y5499D01*
X126753Y5507D01*
X126748Y5510D01*
Y5513D01*
X126726Y5535D01*
X126701Y5557D01*
X126654Y5591D01*
X126604Y5613D01*
X126556Y5630D01*
X126515Y5641D01*
X126484Y5644D01*
X126470Y5646D01*
D02*
G37*
G36*
X123483D02*
X123466D01*
X123433Y5644D01*
X123403Y5641D01*
X123347Y5627D01*
X123297Y5605D01*
X123255Y5580D01*
X123222Y5555D01*
X123197Y5535D01*
X123180Y5519D01*
X123175Y5516D01*
Y5513D01*
X123153Y5488D01*
X123136Y5458D01*
X123106Y5396D01*
X123083Y5330D01*
X123069Y5269D01*
X123061Y5210D01*
X123058Y5185D01*
Y5163D01*
X123056Y5147D01*
Y5133D01*
Y5124D01*
Y5122D01*
Y5072D01*
X123061Y5024D01*
X123067Y4983D01*
X123075Y4941D01*
X123083Y4905D01*
X123094Y4872D01*
X123103Y4841D01*
X123114Y4813D01*
X123125Y4791D01*
X123136Y4769D01*
X123147Y4752D01*
X123156Y4738D01*
X123164Y4727D01*
X123169Y4719D01*
X123172Y4716D01*
X123175Y4713D01*
X123197Y4691D01*
X123222Y4669D01*
X123269Y4636D01*
X123319Y4614D01*
X123364Y4597D01*
X123405Y4589D01*
X123436Y4583D01*
X123450Y4580D01*
X123466D01*
X123500Y4583D01*
X123530Y4586D01*
X123589Y4600D01*
X123639Y4622D01*
X123680Y4647D01*
X123714Y4669D01*
X123739Y4691D01*
X123755Y4705D01*
X123758Y4711D01*
X123761D01*
X123780Y4738D01*
X123800Y4766D01*
X123827Y4830D01*
X123850Y4897D01*
X123863Y4963D01*
X123872Y5022D01*
X123875Y5047D01*
Y5069D01*
X123877Y5088D01*
Y5102D01*
Y5110D01*
Y5113D01*
X123875Y5160D01*
X123872Y5208D01*
X123866Y5249D01*
X123858Y5288D01*
X123850Y5324D01*
X123841Y5358D01*
X123830Y5385D01*
X123819Y5413D01*
X123808Y5435D01*
X123797Y5458D01*
X123788Y5474D01*
X123780Y5488D01*
X123772Y5499D01*
X123766Y5507D01*
X123761Y5510D01*
Y5513D01*
X123739Y5535D01*
X123714Y5557D01*
X123666Y5591D01*
X123616Y5613D01*
X123569Y5630D01*
X123528Y5641D01*
X123497Y5644D01*
X123483Y5646D01*
D02*
G37*
G36*
X84432Y6110D02*
X83976D01*
X83915Y6104D01*
X83868Y6102D01*
X83826Y6096D01*
X83796Y6090D01*
X83777Y6088D01*
X83763Y6082D01*
X83760D01*
X83729Y6071D01*
X83702Y6054D01*
X83679Y6038D01*
X83660Y6021D01*
X83646Y6007D01*
X83635Y5993D01*
X83629Y5985D01*
X83627Y5982D01*
X83610Y5954D01*
X83599Y5927D01*
X83591Y5899D01*
X83585Y5871D01*
X83582Y5849D01*
X83579Y5832D01*
Y5821D01*
Y5816D01*
X83582Y5780D01*
X83588Y5746D01*
X83596Y5718D01*
X83604Y5696D01*
X83613Y5677D01*
X83621Y5660D01*
X83627Y5652D01*
X83629Y5649D01*
X83649Y5627D01*
X83674Y5605D01*
X83699Y5588D01*
X83721Y5577D01*
X83743Y5566D01*
X83760Y5557D01*
X83771Y5555D01*
X83777Y5552D01*
X83807Y5546D01*
X83846Y5541D01*
X83885Y5538D01*
X83924Y5535D01*
X83960Y5532D01*
X84432D01*
Y6110D01*
D02*
G37*
G36*
Y5305D02*
X83926D01*
X83868Y5299D01*
X83821Y5294D01*
X83782Y5288D01*
X83752Y5283D01*
X83727Y5277D01*
X83715Y5274D01*
X83710Y5272D01*
X83674Y5258D01*
X83643Y5241D01*
X83616Y5222D01*
X83593Y5202D01*
X83577Y5185D01*
X83566Y5172D01*
X83557Y5160D01*
X83554Y5158D01*
X83535Y5127D01*
X83521Y5097D01*
X83510Y5066D01*
X83504Y5038D01*
X83499Y5013D01*
X83496Y4991D01*
Y4980D01*
Y4974D01*
X83499Y4941D01*
X83502Y4908D01*
X83507Y4880D01*
X83516Y4858D01*
X83524Y4838D01*
X83529Y4822D01*
X83532Y4813D01*
X83535Y4811D01*
X83552Y4786D01*
X83566Y4763D01*
X83585Y4747D01*
X83599Y4730D01*
X83613Y4719D01*
X83624Y4711D01*
X83632Y4705D01*
X83635Y4702D01*
X83682Y4680D01*
X83729Y4664D01*
X83749Y4658D01*
X83765Y4655D01*
X83777Y4652D01*
X83779D01*
X83802Y4650D01*
X83826Y4647D01*
X83885Y4644D01*
X84432D01*
Y5305D01*
D02*
G37*
G36*
X82630Y6110D02*
X82080D01*
X82030Y6107D01*
X81989Y6104D01*
X81955Y6102D01*
X81933Y6096D01*
X81916Y6093D01*
X81905Y6090D01*
X81903D01*
X81866Y6077D01*
X81836Y6060D01*
X81808Y6043D01*
X81783Y6024D01*
X81767Y6004D01*
X81753Y5991D01*
X81744Y5979D01*
X81742Y5977D01*
X81722Y5943D01*
X81705Y5910D01*
X81694Y5874D01*
X81689Y5843D01*
X81683Y5816D01*
X81680Y5791D01*
Y5777D01*
Y5774D01*
Y5771D01*
X81686Y5713D01*
X81697Y5663D01*
X81714Y5619D01*
X81733Y5582D01*
X81753Y5555D01*
X81769Y5532D01*
X81780Y5521D01*
X81786Y5516D01*
X81805Y5499D01*
X81830Y5485D01*
X81883Y5463D01*
X81941Y5446D01*
X82000Y5435D01*
X82052Y5430D01*
X82075Y5427D01*
X82094D01*
X82114Y5424D01*
X82630D01*
Y6110D01*
D02*
G37*
%LPD*%
D10*
X0Y0D02*
X37280D01*
X0Y31820D02*
X37280D01*
Y0D02*
Y31820D01*
X0Y0D02*
Y31820D01*
D17*
X35800Y1250D02*
D03*
X1800Y30100D02*
D03*
M02*
