G04*
G04 #@! TF.GenerationSoftware,Altium Limited,Altium Designer,23.6.0 (18)*
G04*
G04 Layer_Physical_Order=1*
G04 Layer_Color=255*
%FSLAX43Y43*%
%MOMM*%
G71*
G04*
G04 #@! TF.SameCoordinates,0D2679BE-82C5-4F77-93CB-BF777400B08C*
G04*
G04*
G04 #@! TF.FilePolarity,Positive*
G04*
G01*
G75*
%ADD11C,0.200*%
%ADD12C,0.254*%
%ADD13R,1.600X1.600*%
%ADD14R,0.249X0.805*%
G04:AMPARAMS|DCode=20|XSize=0.254mm|YSize=0.254mm|CornerRadius=0.064mm|HoleSize=0mm|Usage=FLASHONLY|Rotation=0.000|XOffset=0mm|YOffset=0mm|HoleType=Round|Shape=RoundedRectangle|*
%AMROUNDEDRECTD20*
21,1,0.254,0.127,0,0,0.0*
21,1,0.127,0.254,0,0,0.0*
1,1,0.127,0.064,-0.064*
1,1,0.127,-0.064,-0.064*
1,1,0.127,-0.064,0.064*
1,1,0.127,0.064,0.064*
%
%ADD20ROUNDEDRECTD20*%
%ADD21R,0.510X0.560*%
%ADD22R,1.000X0.300*%
%ADD23R,0.700X0.300*%
%ADD24C,0.150*%
%ADD25C,2.000*%
%ADD26C,1.270*%
G36*
X35320Y3400D02*
X10320D01*
X10320Y8883D01*
X10322Y8881D01*
X10420Y8862D01*
X10517Y8881D01*
X10520Y8883D01*
Y3600D01*
X35120D01*
Y28200D01*
X10920D01*
Y4000D01*
X34720D01*
Y27800D01*
X11320D01*
Y4400D01*
X34320D01*
Y27400D01*
X11720D01*
Y4800D01*
X33920D01*
Y27000D01*
X12120D01*
Y5200D01*
X33520D01*
Y26600D01*
X12520D01*
Y5600D01*
X33120D01*
Y26200D01*
X12920D01*
Y6000D01*
X32720D01*
Y25800D01*
X13320D01*
Y6400D01*
X32320D01*
Y25400D01*
X13720D01*
Y6800D01*
X31920D01*
Y25000D01*
X14120D01*
Y7200D01*
X31520D01*
Y24600D01*
X14520D01*
Y7600D01*
X31120D01*
Y24200D01*
X14920D01*
Y8000D01*
X30720D01*
Y23800D01*
X15320D01*
Y8400D01*
X30320D01*
Y23400D01*
X15720D01*
Y8800D01*
X29920D01*
Y23000D01*
X16120D01*
Y9200D01*
X29520D01*
Y22600D01*
X16520D01*
Y12015D01*
X16320D01*
Y22800D01*
X29720D01*
Y9000D01*
X15920D01*
Y23200D01*
X30120D01*
Y8600D01*
X15520D01*
Y23600D01*
X30520D01*
Y8200D01*
X15120D01*
Y24000D01*
X30920D01*
Y7800D01*
X14720D01*
Y24400D01*
X31320D01*
Y7400D01*
X14320D01*
Y24800D01*
X31720D01*
Y7000D01*
X13920D01*
Y25200D01*
X32120D01*
Y6600D01*
X13520D01*
Y25600D01*
X32520D01*
Y6200D01*
X13120D01*
Y26000D01*
X32920D01*
Y5800D01*
X12720D01*
Y26400D01*
X33320D01*
Y5400D01*
X12320D01*
Y26800D01*
X33720D01*
Y5000D01*
X11920D01*
Y27200D01*
X34120D01*
Y4600D01*
X11520D01*
Y27600D01*
X34520D01*
Y4200D01*
X11120D01*
Y28000D01*
X34920D01*
Y3800D01*
X10720D01*
Y28400D01*
X35320D01*
Y3400D01*
D02*
G37*
D11*
X16420Y12015D02*
X17118Y11317D01*
X16420Y12015D02*
X17118Y11317D01*
X17215D01*
D12*
X10220Y9317D02*
X10420Y9117D01*
Y8905D02*
Y9117D01*
X7776Y10567D02*
X8715D01*
X7789Y9317D02*
X10220D01*
X10420Y8905D02*
Y9117D01*
X10220Y9317D02*
X10420Y9117D01*
X3039Y9317D02*
X10220D01*
X3347Y10567D02*
X8715D01*
X2639Y8917D02*
X3039Y9317D01*
X2637Y8021D02*
X2639Y8024D01*
Y8917D01*
X2137Y8424D02*
Y9357D01*
X3347Y10567D01*
X0Y0D02*
X37280D01*
X0Y31820D02*
X37280D01*
Y0D02*
Y31820D01*
X0Y0D02*
Y31820D01*
D13*
X2387Y6570D02*
D03*
D14*
X3137Y5118D02*
D03*
X2637D02*
D03*
X2137D02*
D03*
X1636D02*
D03*
Y8021D02*
D03*
X2137D02*
D03*
X2637D02*
D03*
X3137D02*
D03*
D20*
X7776Y10567D02*
D03*
X7789Y9317D02*
D03*
D21*
X1850Y8950D02*
D03*
X2750D02*
D03*
D22*
X628Y653D02*
D03*
Y4233D02*
D03*
D23*
X3278Y1443D02*
D03*
Y1943D02*
D03*
Y2443D02*
D03*
Y2943D02*
D03*
Y3443D02*
D03*
D24*
X2517Y1483D02*
X3278D01*
X1400Y2600D02*
X2517Y1483D01*
X2087Y4922D02*
X2136Y4873D01*
Y4716D02*
Y4873D01*
X2216Y3008D02*
Y4636D01*
X2136Y4716D02*
X2216Y4636D01*
X900Y5009D02*
Y7600D01*
Y5009D02*
X1400Y4509D01*
X900Y7600D02*
X1301Y8001D01*
X1400Y2600D02*
Y4509D01*
X1301Y8001D02*
X1657D01*
X3212Y3483D02*
X3278D01*
X3137Y3558D02*
X3212Y3483D01*
X3137Y3558D02*
Y5168D01*
X2637Y3159D02*
X2792Y3004D01*
X2637Y3159D02*
Y5168D01*
X1636Y4716D02*
Y5365D01*
X1870Y2783D02*
Y4482D01*
X1636Y4716D02*
X1870Y4482D01*
X1589Y5412D02*
X1636Y5365D01*
X2087Y4922D02*
Y5414D01*
X1870Y2783D02*
X2649Y2004D01*
X3257D02*
X3278Y1983D01*
X2649Y2004D02*
X3257D01*
X2216Y3008D02*
X2720Y2504D01*
X3257D02*
X3278Y2483D01*
X2720Y2504D02*
X3257D01*
X2792Y3004D02*
X3257D01*
X3278Y2983D01*
D25*
X9000Y18620D02*
D03*
D26*
X17215Y11317D02*
D03*
X8715Y10567D02*
D03*
M02*
