G04*
G04 #@! TF.GenerationSoftware,Altium Limited,Altium Designer,23.6.0 (18)*
G04*
G04 Layer_Color=8421504*
%FSLAX43Y43*%
%MOMM*%
G71*
G04*
G04 #@! TF.SameCoordinates,1F856303-4855-4FAD-9779-59D88F79B900*
G04*
G04*
G04 #@! TF.FilePolarity,Positive*
G04*
G01*
G75*
%ADD10C,0.254*%
%ADD11R,2.000X3.600*%
%ADD12R,1.700X0.800*%
%ADD13R,0.900X1.000*%
%ADD14R,1.150X0.800*%
%ADD15R,0.300X0.280*%
%ADD16R,0.280X0.300*%
%ADD17R,0.300X0.300*%
%ADD18R,1.000X0.640*%
%ADD19R,0.510X0.700*%
%ADD20R,0.650X0.560*%
%ADD21R,1.550X0.850*%
%ADD22O,0.750X0.300*%
%ADD23O,0.300X0.750*%
%ADD24R,3.700X3.700*%
%ADD25R,0.305X0.660*%
%ADD26R,3.099X2.388*%
%ADD27R,0.750X0.850*%
%ADD28R,1.000X1.250*%
%ADD29R,0.740X2.790*%
%ADD30R,1.000X1.000*%
%ADD31R,1.100X2.200*%
%ADD32R,0.700X0.300*%
%ADD33R,1.000X0.300*%
%ADD34R,0.890X0.640*%
%ADD35R,0.560X0.510*%
%ADD36R,0.400X0.500*%
%ADD37R,3.000X3.600*%
%ADD38R,3.000X2.600*%
%ADD39R,1.200X1.000*%
%ADD40R,0.640X0.890*%
%ADD41R,0.510X0.560*%
%ADD42R,0.700X0.510*%
G04:AMPARAMS|DCode=43|XSize=0.56mm|YSize=0.51mm|CornerRadius=0mm|HoleSize=0mm|Usage=FLASHONLY|Rotation=135.000|XOffset=0mm|YOffset=0mm|HoleType=Round|Shape=Rectangle|*
%AMROTATEDRECTD43*
4,1,4,0.378,-0.018,0.018,-0.378,-0.378,0.018,-0.018,0.378,0.378,-0.018,0.0*
%
%ADD43ROTATEDRECTD43*%

G04:AMPARAMS|DCode=44|XSize=0.4mm|YSize=0.5mm|CornerRadius=0mm|HoleSize=0mm|Usage=FLASHONLY|Rotation=225.000|XOffset=0mm|YOffset=0mm|HoleType=Round|Shape=Rectangle|*
%AMROTATEDRECTD44*
4,1,4,-0.035,0.318,0.318,-0.035,0.035,-0.318,-0.318,0.035,-0.035,0.318,0.0*
%
%ADD44ROTATEDRECTD44*%

%ADD45R,0.500X0.400*%
G04:AMPARAMS|DCode=46|XSize=0.4mm|YSize=0.5mm|CornerRadius=0mm|HoleSize=0mm|Usage=FLASHONLY|Rotation=135.000|XOffset=0mm|YOffset=0mm|HoleType=Round|Shape=Rectangle|*
%AMROTATEDRECTD46*
4,1,4,0.318,0.035,-0.035,-0.318,-0.318,-0.035,0.035,0.318,0.318,0.035,0.0*
%
%ADD46ROTATEDRECTD46*%

G04:AMPARAMS|DCode=47|XSize=0.56mm|YSize=0.51mm|CornerRadius=0mm|HoleSize=0mm|Usage=FLASHONLY|Rotation=225.000|XOffset=0mm|YOffset=0mm|HoleType=Round|Shape=Rectangle|*
%AMROTATEDRECTD47*
4,1,4,0.018,0.378,0.378,0.018,-0.018,-0.378,-0.378,-0.018,0.018,0.378,0.0*
%
%ADD47ROTATEDRECTD47*%

G36*
X9860Y18261D02*
Y20449D01*
X8511D01*
Y18261D01*
X9860D01*
D02*
G37*
G36*
X11409D02*
Y20449D01*
X10060D01*
Y18261D01*
X11409D01*
D02*
G37*
D10*
X-0Y-4D02*
X40150D01*
X-0Y31796D02*
X40150D01*
Y-4D02*
Y31796D01*
X-0Y-4D02*
Y31796D01*
D11*
X9447Y8636D02*
D03*
X6047D02*
D03*
D12*
X15621Y31045D02*
D03*
D13*
X17671Y29045D02*
D03*
X13571D02*
D03*
Y30645D02*
D03*
X17671D02*
D03*
D14*
X6449Y3791D02*
D03*
X2949D02*
D03*
X8227Y1124D02*
D03*
X4727D02*
D03*
X11910Y4445D02*
D03*
X8410D02*
D03*
D15*
X30361Y24526D02*
D03*
X33520Y21776D02*
D03*
Y21306D02*
D03*
X29668Y23562D02*
D03*
Y24032D02*
D03*
X27699Y24085D02*
D03*
Y24555D02*
D03*
X25691Y24085D02*
D03*
Y24555D02*
D03*
D16*
X30830Y24056D02*
D03*
X26922Y24429D02*
D03*
X26452D02*
D03*
X33488Y22402D02*
D03*
X33018D02*
D03*
X33488Y20679D02*
D03*
X33018D02*
D03*
X26453Y23705D02*
D03*
X26923D02*
D03*
X28921Y24058D02*
D03*
X28451D02*
D03*
D17*
X30361Y24056D02*
D03*
D18*
X15600Y19150D02*
D03*
Y17750D02*
D03*
D19*
X1950Y25750D02*
D03*
X1050D02*
D03*
X3886Y5117D02*
D03*
X4786D02*
D03*
X17545Y927D02*
D03*
X18445D02*
D03*
X24350Y1550D02*
D03*
X25250D02*
D03*
X1900Y26700D02*
D03*
X1000D02*
D03*
X4776Y23620D02*
D03*
X5676D02*
D03*
X6292Y16637D02*
D03*
X5392D02*
D03*
X6292Y17526D02*
D03*
X5392D02*
D03*
X9608Y16499D02*
D03*
X8708D02*
D03*
X18379Y2032D02*
D03*
X17479D02*
D03*
X3200Y5100D02*
D03*
X2300D02*
D03*
X3200Y6000D02*
D03*
X2300D02*
D03*
X3891Y5983D02*
D03*
X4791D02*
D03*
X3521Y25735D02*
D03*
X2621D02*
D03*
D20*
X2536Y8264D02*
D03*
X4336Y7614D02*
D03*
X2536Y6964D02*
D03*
D21*
X15621Y26148D02*
D03*
X15621Y24398D02*
D03*
D22*
X24483Y23556D02*
D03*
X24483Y24556D02*
D03*
X19633Y21556D02*
D03*
X19633Y22056D02*
D03*
X19633Y22556D02*
D03*
X19633Y23056D02*
D03*
X19633Y23556D02*
D03*
X19633Y24056D02*
D03*
X19633Y24556D02*
D03*
X19633Y25056D02*
D03*
X24483Y25056D02*
D03*
Y24056D02*
D03*
X24483Y23056D02*
D03*
X24483Y22556D02*
D03*
X24483Y22056D02*
D03*
X24483Y21556D02*
D03*
D23*
X20308Y25731D02*
D03*
X20808Y20881D02*
D03*
X20808Y25731D02*
D03*
X21308D02*
D03*
X21808Y25731D02*
D03*
X22308Y25731D02*
D03*
X22808Y25731D02*
D03*
X23308Y25731D02*
D03*
X23808Y25731D02*
D03*
Y20881D02*
D03*
X23308Y20881D02*
D03*
X22808Y20881D02*
D03*
X22308D02*
D03*
X21808D02*
D03*
X21308D02*
D03*
X20308Y20881D02*
D03*
D24*
X22058Y23306D02*
D03*
D25*
X11160Y17437D02*
D03*
X10360D02*
D03*
X9560Y21272D02*
D03*
X11160D02*
D03*
X10360D02*
D03*
X8760D02*
D03*
Y17437D02*
D03*
X9560D02*
D03*
D26*
X9960Y19355D02*
D03*
D27*
X25487Y28659D02*
D03*
X25487Y27309D02*
D03*
X24437Y27309D02*
D03*
Y28659D02*
D03*
D28*
X22836Y28829D02*
D03*
X21336Y28829D02*
D03*
D29*
X10922Y29845D02*
D03*
X4572D02*
D03*
X5842D02*
D03*
X7112D02*
D03*
Y25781D02*
D03*
X5842D02*
D03*
X4572D02*
D03*
X8382D02*
D03*
X9652D02*
D03*
X10922D02*
D03*
X12192D02*
D03*
Y29845D02*
D03*
X9652D02*
D03*
X8382D02*
D03*
D30*
X31750Y27075D02*
D03*
D31*
X30250Y28575D02*
D03*
X33250D02*
D03*
D32*
X3262Y21590D02*
D03*
Y21090D02*
D03*
Y20590D02*
D03*
Y20090D02*
D03*
Y19590D02*
D03*
Y19090D02*
D03*
Y18590D02*
D03*
Y18090D02*
D03*
Y17590D02*
D03*
Y17090D02*
D03*
Y16590D02*
D03*
Y16090D02*
D03*
Y15590D02*
D03*
Y15090D02*
D03*
Y14590D02*
D03*
Y14090D02*
D03*
Y13590D02*
D03*
Y13090D02*
D03*
Y12590D02*
D03*
Y12090D02*
D03*
Y11590D02*
D03*
Y11090D02*
D03*
Y10590D02*
D03*
Y10090D02*
D03*
X3278Y28337D02*
D03*
Y28837D02*
D03*
Y29337D02*
D03*
Y29837D02*
D03*
Y30337D02*
D03*
D33*
X612Y22380D02*
D03*
Y9300D02*
D03*
X628Y27547D02*
D03*
Y31127D02*
D03*
D34*
X2250Y24700D02*
D03*
Y23300D02*
D03*
X1000D02*
D03*
Y24700D02*
D03*
X11303Y6666D02*
D03*
Y8066D02*
D03*
X3522Y23300D02*
D03*
Y24700D02*
D03*
D35*
X13335Y28009D02*
D03*
Y27109D02*
D03*
X17830Y20478D02*
D03*
X17830Y21378D02*
D03*
X18030Y25056D02*
D03*
Y24156D02*
D03*
X16930Y25056D02*
D03*
Y24156D02*
D03*
D36*
X19223Y27051D02*
D03*
X18623D02*
D03*
D37*
X13009Y10479D02*
D03*
D38*
X34409D02*
D03*
D39*
X10662Y801D02*
D03*
Y2501D02*
D03*
X16262Y801D02*
D03*
Y2501D02*
D03*
D40*
X7558Y5588D02*
D03*
X6158D02*
D03*
X5892Y11958D02*
D03*
X4492D02*
D03*
X5907Y13208D02*
D03*
X4507D02*
D03*
X2729Y2267D02*
D03*
X4129D02*
D03*
X6288Y18542D02*
D03*
X4888D02*
D03*
X6245Y19746D02*
D03*
X4845D02*
D03*
X6251Y20951D02*
D03*
X4851D02*
D03*
X6302Y22166D02*
D03*
X4902D02*
D03*
D41*
X10399Y16434D02*
D03*
X11299D02*
D03*
X17076Y26289D02*
D03*
X17976D02*
D03*
X18473Y27940D02*
D03*
X19373Y27940D02*
D03*
X23691Y30607D02*
D03*
X22791D02*
D03*
X21278Y30607D02*
D03*
X20378Y30607D02*
D03*
D42*
X7000Y12600D02*
D03*
Y11700D02*
D03*
X4191Y9202D02*
D03*
Y10102D02*
D03*
X14478Y28009D02*
D03*
Y27109D02*
D03*
X11947Y21870D02*
D03*
Y22770D02*
D03*
X10922Y23945D02*
D03*
Y23045D02*
D03*
X9906Y23945D02*
D03*
Y23045D02*
D03*
X8890Y23945D02*
D03*
Y23045D02*
D03*
X7802Y23554D02*
D03*
Y22654D02*
D03*
X6994Y14175D02*
D03*
Y13275D02*
D03*
D43*
X14922Y22669D02*
D03*
X15558Y23305D02*
D03*
X28098Y21824D02*
D03*
X27462Y21188D02*
D03*
D44*
X27168Y22162D02*
D03*
X26744Y21738D02*
D03*
D45*
X18718Y20931D02*
D03*
Y21531D02*
D03*
D46*
X26842Y25994D02*
D03*
X26418Y26418D02*
D03*
D47*
X27760Y26338D02*
D03*
X27123Y26974D02*
D03*
M02*
